<?xml version="1.0"?>
<Project_Data Version="8.00">
<Project_Settings>
<ProfileName>MP4 with Smart Player (up to 480p)</ProfileName>
<ProjectWidth>1280</ProjectWidth>
<ProjectHeight>720</ProjectHeight>
<IsCustomProject>1</IsCustomProject>
<SavedProjectSettings>1</SavedProjectSettings>
<LastFlashTemplate>-1</LastFlashTemplate>
</Project_Settings>


<AutoSaveFile>C:\Users\Cipri\AppData\Local\TechSmith\Camtasia Studio\8.0\Auto-Saves\seminar-internet412e41a.autosave.camproj</AutoSaveFile>

<ProjectID>0FCFA548-2D23-49DA-9F58-8CA18A42E9D9</ProjectID>

<PowerPointProject>0</PowerPointProject>

<PowerPointFilename></PowerPointFilename>


<Project_Notes>
</Project_Notes>

<Project_MetaData>
<Project_MetaData_Object>
<FieldArrayKey>8</FieldArrayKey>
<Value>seminar-internet</Value>
</Project_MetaData_Object>
<Project_MetaData_Object>
<FieldArrayKey>13</FieldArrayKey>
<Value>2015-04-22 03:46:11 PM</Value>
</Project_MetaData_Object>
<Project_MetaData_Object>
<FieldArrayKey>16</FieldArrayKey>
<Value>ENU</Value>
</Project_MetaData_Object>
</Project_MetaData>

<CSMLData>
<GoProject id="1" version="3.0" >
 <Project id="2" editRate="30/1" version="3.0" >
  <Author></Author>
  <Comment></Comment>
  <System></System>
  <SourceBin id="3"  >
    <Source id="4" src="C:\Users\Cipri\Desktop\20150422_152539.mp4" lastMod="20150422T133034" rect="(0,0,1920,1080)" >
      <SourceTrack range="(0,2932333333)" type="0" editRate="10000000/1" trackRect="(0,0,1920,1080)" sampleRate="625000/20823" bitDepth="24" numChannels="0" filename="" metaData="" />
      <SourceTrack range="(0,2932333333)" type="2" editRate="10000000/1" trackRect="(0,0,0,0)" sampleRate="48000/1" bitDepth="16" numChannels="2" filename="" metaData="" />
    </Source>
    <Source id="5" src="C:\Users\Cipri\Desktop\DistributedFileSystems_Cipri.trec" lastMod="20150422T133037" rect="(0,0,1366,768)" >
      <SourceTrack range="(0,9707)" type="0" editRate="30/1" trackRect="(0,0,1366,768)" sampleRate="0/1" bitDepth="0" numChannels="0" filename="DistributedFileSystems_Cipri.trec!Strack0.tsc2" metaData="DistributedFileSystems_Cipri.trec;" />
      <SourceTrack range="(0,14267392)" type="2" editRate="44100/1" trackRect="(0,0,0,0)" sampleRate="44100/1" bitDepth="16" numChannels="2" filename="DistributedFileSystems_Cipri.trec!Maudio1.mp4" metaData="" />
      <SourceTrack range="(0,14245888)" type="2" editRate="44100/1" trackRect="(0,0,0,0)" sampleRate="44100/1" bitDepth="16" numChannels="2" filename="DistributedFileSystems_Cipri.trec!$audio2.mp4" metaData="" />
    </Source>
  </SourceBin>
  <Timeline id="6"  >
   <Attributes>
    <Attribute id="7" value="1280" name="width"/>
    <Attribute id="8" value="720" name="height"/>
    <Attribute id="9" value="(0,0,0,255)" name="backgroundColor"/>
   </Attributes>
    <GenericMixer id="10"  name="Unified Mixer">
     <MetaData>
      <entry key="MixerType" val="TimelineMixer"/>
     </MetaData>
     <Tracks>
      <GenericTrack id="11"  >
       <Attributes>
        <Attribute id="12" value="" name="ident"/>
        <Attribute id="13" value="0" name="audioMuted"/>
        <Attribute id="14" value="0" name="videoHidden"/>
       </Attributes>
       <MetaData>
        <entry key="IsLocked" val="False"/>
        <entry key="WinTrackHeight" val="62"/>
       </MetaData>
       <Medias>
        <StitchedMedia id="15" start="0" duration="3105" scalar="1/1" mediaStart="830/1" mediaDuration="3105/1" minMediaStart="0/1" >
         <Transformer>
          <VectorParam id="16"  name="translation">
           <InterpolatingParam id="17" interp="linr"  time="-9999999/1" value="0" leadInLength="0/1"  interpolater="leadin-linr"  />
           <InterpolatingParam id="18" interp="linr"  time="-9999999/1" value="0" leadInLength="0/1"  interpolater="leadin-linr"  />
           <InterpolatingParam id="19" interp="linr"  time="-9999999/1" value="0" leadInLength="0/1"  interpolater="leadin-linr"  />
          </VectorParam>
          <VectorParam id="20"  name="rotation">
           <InterpolatingParam id="21" interp="linr"  time="-9999999/1" value="0" leadInLength="0/1"  interpolater="leadin-linr"  />
           <InterpolatingParam id="22" interp="linr"  time="-9999999/1" value="0" leadInLength="0/1"  interpolater="leadin-linr"  />
           <InterpolatingParam id="23" interp="linr"  time="-9999999/1" value="0" leadInLength="0/1"  interpolater="leadin-linr"  />
          </VectorParam>
          <VectorParam id="24"  name="shear">
           <InterpolatingParam id="25" interp="linr"  time="-9999999/1" value="0" leadInLength="0/1"  interpolater="leadin-linr"  />
           <InterpolatingParam id="26" interp="linr"  time="-9999999/1" value="0" leadInLength="0/1"  interpolater="leadin-linr"  />
           <InterpolatingParam id="27" interp="linr"  time="-9999999/1" value="0" leadInLength="0/1"  interpolater="leadin-linr"  />
          </VectorParam>
          <VectorParam id="28"  name="scale">
           <InterpolatingParam id="29" interp="linr"  time="-9999999/1" value="0.93704245973645683" leadInLength="0/1"  interpolater="leadin-linr"  />
           <InterpolatingParam id="30" interp="linr"  time="-9999999/1" value="0.93704245973645683" leadInLength="0/1"  interpolater="leadin-linr"  />
           <InterpolatingParam id="31" interp="linr"  time="-9999999/1" value="1" leadInLength="0/1"  interpolater="leadin-linr"  />
          </VectorParam>
          <VectorParam id="32"  name="anchor">
           <InterpolatingParam id="33" interp="linr"  time="0/1" value="0" leadInLength="0/1"  />
           <InterpolatingParam id="34" interp="linr"  time="0/1" value="0" leadInLength="0/1"  />
           <InterpolatingParam id="35" interp="linr"  time="0/1" value="0" leadInLength="0/1"  />
          </VectorParam>
         </Transformer>
         <Parameters>
          <VectorParam id="36"  name="sourceCrop">
           <InterpolatingParam id="37" interp="linr"  time="0/1" value="0" leadInLength="0/1"  />
           <InterpolatingParam id="38" interp="linr"  time="0/1" value="0" leadInLength="0/1"  />
           <InterpolatingParam id="39" interp="linr"  time="0/1" value="0" leadInLength="0/1"  />
           <InterpolatingParam id="40" interp="linr"  time="0/1" value="0" leadInLength="0/1"  />
          </VectorParam>
          <VectorParam id="41"  name="geometryCrop">
           <InterpolatingParam id="42" interp="linr"  time="-9999999/1" value="0" leadInLength="0/1"  interpolater="leadin-linr"  />
           <InterpolatingParam id="43" interp="linr"  time="-9999999/1" value="0" leadInLength="0/1"  interpolater="leadin-linr"  />
           <InterpolatingParam id="44" interp="linr"  time="-9999999/1" value="0" leadInLength="0/1"  interpolater="leadin-linr"  />
           <InterpolatingParam id="45" interp="linr"  time="-9999999/1" value="0" leadInLength="0/1"  interpolater="leadin-linr"  />
          </VectorParam>
          <InterpolatingParam id="46" interp="linr"  time="-9999999/1" value="1" leadInLength="0/1"  interpolater="leadin-linr"  name="opacity"/>
          <Parameter id="47"  name="toc">
           <Keyframes>
           <Keyframe id="48"  time="1265/1" value="Distributed File Systems - Motivation" leadInLength="0/1"  >
            <MetaData>
             <entry key="Checked" val="True"/>
             <entry key="IndentLevel" val="0"/>
            </MetaData>
           </Keyframe>
           <Keyframe id="49"  time="1320/1" value="Distributed File Systems - Motivation" leadInLength="0/1"  >
            <MetaData>
             <entry key="Checked" val="True"/>
             <entry key="IndentLevel" val="0"/>
            </MetaData>
           </Keyframe>
           <Keyframe id="50"  time="2346/1" value="Distributed File Systems - Motivation" leadInLength="0/1"  >
            <MetaData>
             <entry key="Checked" val="True"/>
             <entry key="IndentLevel" val="0"/>
            </MetaData>
           </Keyframe>
           <Keyframe id="51"  time="2398/1" value="Distributed File Systems - Motivation" leadInLength="0/1"  >
            <MetaData>
             <entry key="Checked" val="True"/>
             <entry key="IndentLevel" val="0"/>
            </MetaData>
           </Keyframe>
           <Keyframe id="52"  time="2623/1" value="HDFS - Architecture" leadInLength="0/1"  >
            <MetaData>
             <entry key="Checked" val="True"/>
             <entry key="IndentLevel" val="0"/>
            </MetaData>
           </Keyframe>
           <Keyframe id="53"  time="2678/1" value="HDFS - Architecture" leadInLength="0/1"  >
            <MetaData>
             <entry key="Checked" val="True"/>
             <entry key="IndentLevel" val="0"/>
            </MetaData>
           </Keyframe>
           <Keyframe id="54"  time="3245/1" value="HDFS - Architecture" leadInLength="0/1"  >
            <MetaData>
             <entry key="Checked" val="True"/>
             <entry key="IndentLevel" val="0"/>
            </MetaData>
           </Keyframe>
           </Keyframes>
          </Parameter>
          <InterpolatingParam id="55" interp="linr"  time="0/1" value="1" leadInLength="0/1"  name="cursorOpacity"/>
          <InterpolatingParam id="56" interp="linr"  time="0/1" value="1" leadInLength="0/1"  name="cursorScale"/>
          <InterpolatingParam id="57" interp="linr"  time="0/1" value="1" leadInLength="0/1"  name="volume"/>
          <Parameter id="58"  name="captions"/>
         </Parameters>
         <Effects>
          <GenericEffect id="59" name = "CursorBaseEffectName" >
           <Parameters>
           <InterpolatingParam id="60" interp="linr"  time="-9999999/1" value="1" leadInLength="0/1"   name="cursorSize"/>
           <InterpolatingParam id="61" interp="linr"  time="-9999999/1" value="0" leadInLength="0/1"   name="highlightBlurRadius"/>
           <InterpolatingParam id="62" interp="linr"  time="-9999999/1" value="0" leadInLength="0/1"   name="highlightColorBlue"/>
           <InterpolatingParam id="63" interp="linr"  time="-9999999/1" value="255" leadInLength="0/1"   name="highlightColorGreen"/>
           <InterpolatingParam id="64" interp="linr"  time="-9999999/1" value="255" leadInLength="0/1"   name="highlightColorRed"/>
           <InterpolatingParam id="65" interp="linr"  time="-9999999/1" value="5" leadInLength="0/1"   name="highlightFeatherSize"/>
           <InterpolatingParam id="66" interp="linr"  time="-9999999/1" value="2" leadInLength="0/1"   name="highlightMagnification"/>
           <InterpolatingParam id="67" interp="linr"  time="-9999999/1" value="1" leadInLength="0/1"   name="highlightOpacity"/>
           <InterpolatingParam id="68" interp="linr"  time="-9999999/1" value="45" leadInLength="0/1"   name="highlightSize"/>
           <Parameter id="69"   name="highlightType">
            <Keyframes>
            <Keyframe id="70"  time="-9999999/1" value="0" leadInLength="0/1"  />
            </Keyframes>
           </Parameter>
           <InterpolatingParam id="71" interp="linr"  time="-9999999/1" value="0" leadInLength="0/1"   name="leftClickColorBlue"/>
           <InterpolatingParam id="72" interp="linr"  time="-9999999/1" value="0" leadInLength="0/1"   name="leftClickColorGreen"/>
           <InterpolatingParam id="73" interp="linr"  time="-9999999/1" value="255" leadInLength="0/1"   name="leftClickColorRed"/>
           <InterpolatingParam id="74" interp="linr"  time="-9999999/1" value="0.80000000000000004" leadInLength="0/1"   name="leftClickDuration"/>
           <InterpolatingParam id="75" interp="linr"  time="-9999999/1" value="20" leadInLength="0/1"   name="leftClickSize"/>
           <Parameter id="76"   name="leftClickSoundFilename">
            <Keyframes>
            <Keyframe id="77"  time="-9999999/1" value="" leadInLength="0/1"  />
            </Keyframes>
           </Parameter>
           <InterpolatingParam id="78" interp="linr"  time="-9999999/1" value="1" leadInLength="0/1"   name="leftClickSoundVolume"/>
           <Parameter id="79"   name="leftClickType">
            <Keyframes>
            <Keyframe id="80"  time="-9999999/1" value="0" leadInLength="0/1"  />
            </Keyframes>
           </Parameter>
           <InterpolatingParam id="81" interp="linr"  time="-9999999/1" value="1" leadInLength="0/1"   name="opacity"/>
           <InterpolatingParam id="82" interp="linr"  time="-9999999/1" value="255" leadInLength="0/1"   name="rightClickColorBlue"/>
           <InterpolatingParam id="83" interp="linr"  time="-9999999/1" value="0" leadInLength="0/1"   name="rightClickColorGreen"/>
           <InterpolatingParam id="84" interp="linr"  time="-9999999/1" value="0" leadInLength="0/1"   name="rightClickColorRed"/>
           <InterpolatingParam id="85" interp="linr"  time="-9999999/1" value="0.80000000000000004" leadInLength="0/1"   name="rightClickDuration"/>
           <InterpolatingParam id="86" interp="linr"  time="-9999999/1" value="20" leadInLength="0/1"   name="rightClickSize"/>
           <Parameter id="87"   name="rightClickSoundFilename">
            <Keyframes>
            <Keyframe id="88"  time="-9999999/1" value="" leadInLength="0/1"  />
            </Keyframes>
           </Parameter>
           <InterpolatingParam id="89" interp="linr"  time="-9999999/1" value="1" leadInLength="0/1"   name="rightClickSoundVolume"/>
           <Parameter id="90"   name="rightClickType">
            <Keyframes>
            <Keyframe id="91"  time="-9999999/1" value="0" leadInLength="0/1"  />
            </Keyframes>
           </Parameter>
           </Parameters>
           <MetaData>
            <entry key="effectIndex" val="0"/>
           </MetaData>
          </GenericEffect>
         </Effects>
         <Attributes>
          <Attribute id="92" value="" name="ident"/>
          <Attribute id="93" value="0" name="mixToMono"/>
         </Attributes>
         <MetaData>
          <entry key="AutoAppliedSmartFocus" val="False"/>
          <entry key="WinSubProjectDisplayName" val=""/>
         </MetaData>
         <ExtraData>
          <Entry key="ZoomPanBin">
           <ZoomPanBin id="94"  >
            <ZoomPanKeyframes>
             <ZoomPanKeyframe id="95" timeRangeEnd="-9999999/1" timeRangeDuration="0/1" interpolaterName="linr"  />
            </ZoomPanKeyframes>
           </ZoomPanBin>
          </Entry>
          <Entry key="CursorEffectBin">
           <CursorEffectBin id="96"  >
            <CursorEffectKeyframes>
             <CursorEffectKeyframe id="97" timeRangeEnd="-9999999/1" timeRangeDuration="0/1" interpolaterName=""  />
            </CursorEffectKeyframes>
           </CursorEffectBin>
          </Entry>
         </ExtraData>
         <GenericTrack id="98"  >
          <Attributes>
           <Attribute id="99" value="" name="ident"/>
           <Attribute id="100" value="0" name="audioMuted"/>
           <Attribute id="101" value="0" name="videoHidden"/>
          </Attributes>
          <MetaData>
           <entry key="IsLocked" val="False"/>
           <entry key="WinTrackHeight" val="0"/>
          </MetaData>
          <Medias>
           <UnifiedMedia id="102"  >
            <AMFile id="103" start="0" duration="831" scalar="1/1" mediaStart="0/1" mediaDuration="831/1" trackNumber="1" src="5" channelNumber="0,1" >
             <Parameters>
              <InterpolatingParam id="104" interp="linr"  time="0/1" value="1" leadInLength="0/1"  name="volume"/>
              <Parameter id="105"  name="captions"/>
             </Parameters>
             <Attributes>
              <Attribute id="106" value="" name="ident"/>
              <Attribute id="107" value="44100" name="sampleRate"/>
              <Attribute id="108" value="16" name="bitDepth"/>
              <Attribute id="109" value="1" name="gain"/>
              <Attribute id="110" value="0" name="mixToMono"/>
             </Attributes>
            </AMFile>
            <ScreenVMFile id="111" start="0" duration="831" scalar="1/1" mediaStart="0/1" mediaDuration="831/1" trackNumber="0" src="5" >
             <Transformer>
              <VectorParam id="112"  name="translation">
               <InterpolatingParam id="113" interp="linr"  time="-9999999/1" value="0" leadInLength="0/1"  />
               <InterpolatingParam id="114" interp="linr"  time="-9999999/1" value="0" leadInLength="0/1"  />
               <InterpolatingParam id="115" interp="linr"  time="-9999999/1" value="0" leadInLength="0/1"  />
              </VectorParam>
              <VectorParam id="116"  name="rotation">
               <InterpolatingParam id="117" interp="linr"  time="-9999999/1" value="0" leadInLength="0/1"  />
               <InterpolatingParam id="118" interp="linr"  time="-9999999/1" value="0" leadInLength="0/1"  />
               <InterpolatingParam id="119" interp="linr"  time="-9999999/1" value="0" leadInLength="0/1"  />
              </VectorParam>
              <VectorParam id="120"  name="shear">
               <InterpolatingParam id="121" interp="linr"  time="-9999999/1" value="0" leadInLength="0/1"  />
               <InterpolatingParam id="122" interp="linr"  time="-9999999/1" value="0" leadInLength="0/1"  />
               <InterpolatingParam id="123" interp="linr"  time="-9999999/1" value="0" leadInLength="0/1"  />
              </VectorParam>
              <VectorParam id="124"  name="scale">
               <InterpolatingParam id="125" interp="linr"  time="-9999999/1" value="1" leadInLength="0/1"  />
               <InterpolatingParam id="126" interp="linr"  time="-9999999/1" value="1" leadInLength="0/1"  />
               <InterpolatingParam id="127" interp="linr"  time="-9999999/1" value="1" leadInLength="0/1"  />
              </VectorParam>
              <VectorParam id="128"  name="anchor">
               <InterpolatingParam id="129" interp="linr"  time="0/1" value="0" leadInLength="0/1"  />
               <InterpolatingParam id="130" interp="linr"  time="0/1" value="0" leadInLength="0/1"  />
               <InterpolatingParam id="131" interp="linr"  time="0/1" value="0" leadInLength="0/1"  />
              </VectorParam>
             </Transformer>
             <Parameters>
              <VectorParam id="132"  name="sourceCrop">
               <InterpolatingParam id="133" interp="linr"  time="0/1" value="0" leadInLength="0/1"  />
               <InterpolatingParam id="134" interp="linr"  time="0/1" value="0" leadInLength="0/1"  />
               <InterpolatingParam id="135" interp="linr"  time="0/1" value="0" leadInLength="0/1"  />
               <InterpolatingParam id="136" interp="linr"  time="0/1" value="0" leadInLength="0/1"  />
              </VectorParam>
              <VectorParam id="137"  name="geometryCrop">
               <InterpolatingParam id="138" interp="linr"  time="-9999999/1" value="0" leadInLength="0/1"  />
               <InterpolatingParam id="139" interp="linr"  time="-9999999/1" value="0" leadInLength="0/1"  />
               <InterpolatingParam id="140" interp="linr"  time="-9999999/1" value="0" leadInLength="0/1"  />
               <InterpolatingParam id="141" interp="linr"  time="-9999999/1" value="0" leadInLength="0/1"  />
              </VectorParam>
              <InterpolatingParam id="142" interp="linr"  time="-9999999/1" value="1" leadInLength="0/1"  name="opacity"/>
              <InterpolatingParam id="143" interp="linr"  time="0/1" value="0" leadInLength="0/1"  name="cursorOpacity"/>
              <InterpolatingParam id="144" interp="linr"  time="0/1" value="0" leadInLength="0/1"  name="cursorScale"/>
             </Parameters>
             <Attributes>
              <Attribute id="145" value="" name="ident"/>
             </Attributes>
             <ExtraData>
              <Entry key="ZoomPanBin">
               <ZoomPanBin id="146"  >
                <ZoomPanKeyframes>
                </ZoomPanKeyframes>
               </ZoomPanBin>
              </Entry>
              <Entry key="CursorEffectBin">
               <CursorEffectBin id="147"  >
                <CursorEffectKeyframes>
                </CursorEffectKeyframes>
               </CursorEffectBin>
              </Entry>
             </ExtraData>
            </ScreenVMFile>
            <MetaData>
             <entry key="AutoAppliedSmartFocus" val="False"/>
             <entry key="WinSubProjectDisplayName" val=""/>
            </MetaData>
           </UnifiedMedia>
           <UnifiedMedia id="148"  >
            <AMFile id="149" start="831" duration="353" scalar="1/1" mediaStart="955/1" mediaDuration="353/1" trackNumber="1" src="5" channelNumber="0,1" >
             <Parameters>
              <InterpolatingParam id="150" interp="linr"  time="0/1" value="1" leadInLength="0/1"  name="volume"/>
              <Parameter id="151"  name="captions"/>
             </Parameters>
             <Attributes>
              <Attribute id="152" value="" name="ident"/>
              <Attribute id="153" value="44100" name="sampleRate"/>
              <Attribute id="154" value="16" name="bitDepth"/>
              <Attribute id="155" value="1" name="gain"/>
              <Attribute id="156" value="0" name="mixToMono"/>
             </Attributes>
            </AMFile>
            <ScreenVMFile id="157" start="831" duration="353" scalar="1/1" mediaStart="955/1" mediaDuration="353/1" trackNumber="0" src="5" >
             <Transformer>
              <VectorParam id="158"  name="translation">
               <InterpolatingParam id="159" interp="linr"  time="-9999999/1" value="0" leadInLength="0/1"  />
               <InterpolatingParam id="160" interp="linr"  time="-9999999/1" value="0" leadInLength="0/1"  />
               <InterpolatingParam id="161" interp="linr"  time="-9999999/1" value="0" leadInLength="0/1"  />
              </VectorParam>
              <VectorParam id="162"  name="rotation">
               <InterpolatingParam id="163" interp="linr"  time="-9999999/1" value="0" leadInLength="0/1"  />
               <InterpolatingParam id="164" interp="linr"  time="-9999999/1" value="0" leadInLength="0/1"  />
               <InterpolatingParam id="165" interp="linr"  time="-9999999/1" value="0" leadInLength="0/1"  />
              </VectorParam>
              <VectorParam id="166"  name="shear">
               <InterpolatingParam id="167" interp="linr"  time="-9999999/1" value="0" leadInLength="0/1"  />
               <InterpolatingParam id="168" interp="linr"  time="-9999999/1" value="0" leadInLength="0/1"  />
               <InterpolatingParam id="169" interp="linr"  time="-9999999/1" value="0" leadInLength="0/1"  />
              </VectorParam>
              <VectorParam id="170"  name="scale">
               <InterpolatingParam id="171" interp="linr"  time="-9999999/1" value="1" leadInLength="0/1"  />
               <InterpolatingParam id="172" interp="linr"  time="-9999999/1" value="1" leadInLength="0/1"  />
               <InterpolatingParam id="173" interp="linr"  time="-9999999/1" value="1" leadInLength="0/1"  />
              </VectorParam>
              <VectorParam id="174"  name="anchor">
               <InterpolatingParam id="175" interp="linr"  time="0/1" value="0" leadInLength="0/1"  />
               <InterpolatingParam id="176" interp="linr"  time="0/1" value="0" leadInLength="0/1"  />
               <InterpolatingParam id="177" interp="linr"  time="0/1" value="0" leadInLength="0/1"  />
              </VectorParam>
             </Transformer>
             <Parameters>
              <VectorParam id="178"  name="sourceCrop">
               <InterpolatingParam id="179" interp="linr"  time="0/1" value="0" leadInLength="0/1"  />
               <InterpolatingParam id="180" interp="linr"  time="0/1" value="0" leadInLength="0/1"  />
               <InterpolatingParam id="181" interp="linr"  time="0/1" value="0" leadInLength="0/1"  />
               <InterpolatingParam id="182" interp="linr"  time="0/1" value="0" leadInLength="0/1"  />
              </VectorParam>
              <VectorParam id="183"  name="geometryCrop">
               <InterpolatingParam id="184" interp="linr"  time="-9999999/1" value="0" leadInLength="0/1"  />
               <InterpolatingParam id="185" interp="linr"  time="-9999999/1" value="0" leadInLength="0/1"  />
               <InterpolatingParam id="186" interp="linr"  time="-9999999/1" value="0" leadInLength="0/1"  />
               <InterpolatingParam id="187" interp="linr"  time="-9999999/1" value="0" leadInLength="0/1"  />
              </VectorParam>
              <InterpolatingParam id="188" interp="linr"  time="-9999999/1" value="1" leadInLength="0/1"  name="opacity"/>
              <InterpolatingParam id="189" interp="linr"  time="0/1" value="0" leadInLength="0/1"  name="cursorOpacity"/>
              <InterpolatingParam id="190" interp="linr"  time="0/1" value="0" leadInLength="0/1"  name="cursorScale"/>
             </Parameters>
             <Attributes>
              <Attribute id="191" value="" name="ident"/>
             </Attributes>
             <ExtraData>
              <Entry key="ZoomPanBin">
               <ZoomPanBin id="192"  >
                <ZoomPanKeyframes>
                </ZoomPanKeyframes>
               </ZoomPanBin>
              </Entry>
              <Entry key="CursorEffectBin">
               <CursorEffectBin id="193"  >
                <CursorEffectKeyframes>
                </CursorEffectKeyframes>
               </CursorEffectBin>
              </Entry>
             </ExtraData>
            </ScreenVMFile>
            <MetaData>
             <entry key="AutoAppliedSmartFocus" val="False"/>
             <entry key="WinSubProjectDisplayName" val=""/>
            </MetaData>
           </UnifiedMedia>
           <UnifiedMedia id="194"  >
            <AMFile id="195" start="1184" duration="371" scalar="1/1" mediaStart="1321/1" mediaDuration="371/1" trackNumber="1" src="5" channelNumber="0,1" >
             <Parameters>
              <InterpolatingParam id="196" interp="linr"  time="0/1" value="1" leadInLength="0/1"  name="volume"/>
              <Parameter id="197"  name="captions"/>
             </Parameters>
             <Attributes>
              <Attribute id="198" value="" name="ident"/>
              <Attribute id="199" value="44100" name="sampleRate"/>
              <Attribute id="200" value="16" name="bitDepth"/>
              <Attribute id="201" value="1" name="gain"/>
              <Attribute id="202" value="0" name="mixToMono"/>
             </Attributes>
            </AMFile>
            <ScreenVMFile id="203" start="1184" duration="371" scalar="1/1" mediaStart="1321/1" mediaDuration="371/1" trackNumber="0" src="5" >
             <Transformer>
              <VectorParam id="204"  name="translation">
               <InterpolatingParam id="205" interp="linr"  time="-9999999/1" value="0" leadInLength="0/1"  />
               <InterpolatingParam id="206" interp="linr"  time="-9999999/1" value="0" leadInLength="0/1"  />
               <InterpolatingParam id="207" interp="linr"  time="-9999999/1" value="0" leadInLength="0/1"  />
              </VectorParam>
              <VectorParam id="208"  name="rotation">
               <InterpolatingParam id="209" interp="linr"  time="-9999999/1" value="0" leadInLength="0/1"  />
               <InterpolatingParam id="210" interp="linr"  time="-9999999/1" value="0" leadInLength="0/1"  />
               <InterpolatingParam id="211" interp="linr"  time="-9999999/1" value="0" leadInLength="0/1"  />
              </VectorParam>
              <VectorParam id="212"  name="shear">
               <InterpolatingParam id="213" interp="linr"  time="-9999999/1" value="0" leadInLength="0/1"  />
               <InterpolatingParam id="214" interp="linr"  time="-9999999/1" value="0" leadInLength="0/1"  />
               <InterpolatingParam id="215" interp="linr"  time="-9999999/1" value="0" leadInLength="0/1"  />
              </VectorParam>
              <VectorParam id="216"  name="scale">
               <InterpolatingParam id="217" interp="linr"  time="-9999999/1" value="1" leadInLength="0/1"  />
               <InterpolatingParam id="218" interp="linr"  time="-9999999/1" value="1" leadInLength="0/1"  />
               <InterpolatingParam id="219" interp="linr"  time="-9999999/1" value="1" leadInLength="0/1"  />
              </VectorParam>
              <VectorParam id="220"  name="anchor">
               <InterpolatingParam id="221" interp="linr"  time="0/1" value="0" leadInLength="0/1"  />
               <InterpolatingParam id="222" interp="linr"  time="0/1" value="0" leadInLength="0/1"  />
               <InterpolatingParam id="223" interp="linr"  time="0/1" value="0" leadInLength="0/1"  />
              </VectorParam>
             </Transformer>
             <Parameters>
              <VectorParam id="224"  name="sourceCrop">
               <InterpolatingParam id="225" interp="linr"  time="0/1" value="0" leadInLength="0/1"  />
               <InterpolatingParam id="226" interp="linr"  time="0/1" value="0" leadInLength="0/1"  />
               <InterpolatingParam id="227" interp="linr"  time="0/1" value="0" leadInLength="0/1"  />
               <InterpolatingParam id="228" interp="linr"  time="0/1" value="0" leadInLength="0/1"  />
              </VectorParam>
              <VectorParam id="229"  name="geometryCrop">
               <InterpolatingParam id="230" interp="linr"  time="-9999999/1" value="0" leadInLength="0/1"  />
               <InterpolatingParam id="231" interp="linr"  time="-9999999/1" value="0" leadInLength="0/1"  />
               <InterpolatingParam id="232" interp="linr"  time="-9999999/1" value="0" leadInLength="0/1"  />
               <InterpolatingParam id="233" interp="linr"  time="-9999999/1" value="0" leadInLength="0/1"  />
              </VectorParam>
              <InterpolatingParam id="234" interp="linr"  time="-9999999/1" value="1" leadInLength="0/1"  name="opacity"/>
              <InterpolatingParam id="235" interp="linr"  time="0/1" value="0" leadInLength="0/1"  name="cursorOpacity"/>
              <InterpolatingParam id="236" interp="linr"  time="0/1" value="0" leadInLength="0/1"  name="cursorScale"/>
             </Parameters>
             <Attributes>
              <Attribute id="237" value="" name="ident"/>
             </Attributes>
             <ExtraData>
              <Entry key="ZoomPanBin">
               <ZoomPanBin id="238"  >
                <ZoomPanKeyframes>
                </ZoomPanKeyframes>
               </ZoomPanBin>
              </Entry>
              <Entry key="CursorEffectBin">
               <CursorEffectBin id="239"  >
                <CursorEffectKeyframes>
                </CursorEffectKeyframes>
               </CursorEffectBin>
              </Entry>
             </ExtraData>
            </ScreenVMFile>
            <MetaData>
             <entry key="AutoAppliedSmartFocus" val="False"/>
             <entry key="WinSubProjectDisplayName" val=""/>
            </MetaData>
           </UnifiedMedia>
           <UnifiedMedia id="240"  >
            <AMFile id="241" start="1555" duration="271" scalar="1/1" mediaStart="1716/1" mediaDuration="271/1" trackNumber="1" src="5" channelNumber="0,1" >
             <Parameters>
              <InterpolatingParam id="242" interp="linr"  time="0/1" value="1" leadInLength="0/1"  name="volume"/>
              <Parameter id="243"  name="captions"/>
             </Parameters>
             <Attributes>
              <Attribute id="244" value="" name="ident"/>
              <Attribute id="245" value="44100" name="sampleRate"/>
              <Attribute id="246" value="16" name="bitDepth"/>
              <Attribute id="247" value="1" name="gain"/>
              <Attribute id="248" value="0" name="mixToMono"/>
             </Attributes>
            </AMFile>
            <ScreenVMFile id="249" start="1555" duration="271" scalar="1/1" mediaStart="1716/1" mediaDuration="271/1" trackNumber="0" src="5" >
             <Transformer>
              <VectorParam id="250"  name="translation">
               <InterpolatingParam id="251" interp="linr"  time="-9999999/1" value="0" leadInLength="0/1"  />
               <InterpolatingParam id="252" interp="linr"  time="-9999999/1" value="0" leadInLength="0/1"  />
               <InterpolatingParam id="253" interp="linr"  time="-9999999/1" value="0" leadInLength="0/1"  />
              </VectorParam>
              <VectorParam id="254"  name="rotation">
               <InterpolatingParam id="255" interp="linr"  time="-9999999/1" value="0" leadInLength="0/1"  />
               <InterpolatingParam id="256" interp="linr"  time="-9999999/1" value="0" leadInLength="0/1"  />
               <InterpolatingParam id="257" interp="linr"  time="-9999999/1" value="0" leadInLength="0/1"  />
              </VectorParam>
              <VectorParam id="258"  name="shear">
               <InterpolatingParam id="259" interp="linr"  time="-9999999/1" value="0" leadInLength="0/1"  />
               <InterpolatingParam id="260" interp="linr"  time="-9999999/1" value="0" leadInLength="0/1"  />
               <InterpolatingParam id="261" interp="linr"  time="-9999999/1" value="0" leadInLength="0/1"  />
              </VectorParam>
              <VectorParam id="262"  name="scale">
               <InterpolatingParam id="263" interp="linr"  time="-9999999/1" value="1" leadInLength="0/1"  />
               <InterpolatingParam id="264" interp="linr"  time="-9999999/1" value="1" leadInLength="0/1"  />
               <InterpolatingParam id="265" interp="linr"  time="-9999999/1" value="1" leadInLength="0/1"  />
              </VectorParam>
              <VectorParam id="266"  name="anchor">
               <InterpolatingParam id="267" interp="linr"  time="0/1" value="0" leadInLength="0/1"  />
               <InterpolatingParam id="268" interp="linr"  time="0/1" value="0" leadInLength="0/1"  />
               <InterpolatingParam id="269" interp="linr"  time="0/1" value="0" leadInLength="0/1"  />
              </VectorParam>
             </Transformer>
             <Parameters>
              <VectorParam id="270"  name="sourceCrop">
               <InterpolatingParam id="271" interp="linr"  time="0/1" value="0" leadInLength="0/1"  />
               <InterpolatingParam id="272" interp="linr"  time="0/1" value="0" leadInLength="0/1"  />
               <InterpolatingParam id="273" interp="linr"  time="0/1" value="0" leadInLength="0/1"  />
               <InterpolatingParam id="274" interp="linr"  time="0/1" value="0" leadInLength="0/1"  />
              </VectorParam>
              <VectorParam id="275"  name="geometryCrop">
               <InterpolatingParam id="276" interp="linr"  time="-9999999/1" value="0" leadInLength="0/1"  />
               <InterpolatingParam id="277" interp="linr"  time="-9999999/1" value="0" leadInLength="0/1"  />
               <InterpolatingParam id="278" interp="linr"  time="-9999999/1" value="0" leadInLength="0/1"  />
               <InterpolatingParam id="279" interp="linr"  time="-9999999/1" value="0" leadInLength="0/1"  />
              </VectorParam>
              <InterpolatingParam id="280" interp="linr"  time="-9999999/1" value="1" leadInLength="0/1"  name="opacity"/>
              <InterpolatingParam id="281" interp="linr"  time="0/1" value="0" leadInLength="0/1"  name="cursorOpacity"/>
              <InterpolatingParam id="282" interp="linr"  time="0/1" value="0" leadInLength="0/1"  name="cursorScale"/>
             </Parameters>
             <Attributes>
              <Attribute id="283" value="" name="ident"/>
             </Attributes>
             <ExtraData>
              <Entry key="ZoomPanBin">
               <ZoomPanBin id="284"  >
                <ZoomPanKeyframes>
                </ZoomPanKeyframes>
               </ZoomPanBin>
              </Entry>
              <Entry key="CursorEffectBin">
               <CursorEffectBin id="285"  >
                <CursorEffectKeyframes>
                </CursorEffectKeyframes>
               </CursorEffectBin>
              </Entry>
             </ExtraData>
            </ScreenVMFile>
            <MetaData>
             <entry key="AutoAppliedSmartFocus" val="False"/>
             <entry key="WinSubProjectDisplayName" val=""/>
            </MetaData>
           </UnifiedMedia>
           <UnifiedMedia id="286"  >
            <AMFile id="287" start="1826" duration="335" scalar="1/1" mediaStart="2006/1" mediaDuration="335/1" trackNumber="1" src="5" channelNumber="0,1" >
             <Parameters>
              <InterpolatingParam id="288" interp="linr"  time="0/1" value="1" leadInLength="0/1"  name="volume"/>
              <Parameter id="289"  name="captions"/>
             </Parameters>
             <Attributes>
              <Attribute id="290" value="" name="ident"/>
              <Attribute id="291" value="44100" name="sampleRate"/>
              <Attribute id="292" value="16" name="bitDepth"/>
              <Attribute id="293" value="1" name="gain"/>
              <Attribute id="294" value="0" name="mixToMono"/>
             </Attributes>
            </AMFile>
            <ScreenVMFile id="295" start="1826" duration="335" scalar="1/1" mediaStart="2006/1" mediaDuration="335/1" trackNumber="0" src="5" >
             <Transformer>
              <VectorParam id="296"  name="translation">
               <InterpolatingParam id="297" interp="linr"  time="-9999999/1" value="0" leadInLength="0/1"  />
               <InterpolatingParam id="298" interp="linr"  time="-9999999/1" value="0" leadInLength="0/1"  />
               <InterpolatingParam id="299" interp="linr"  time="-9999999/1" value="0" leadInLength="0/1"  />
              </VectorParam>
              <VectorParam id="300"  name="rotation">
               <InterpolatingParam id="301" interp="linr"  time="-9999999/1" value="0" leadInLength="0/1"  />
               <InterpolatingParam id="302" interp="linr"  time="-9999999/1" value="0" leadInLength="0/1"  />
               <InterpolatingParam id="303" interp="linr"  time="-9999999/1" value="0" leadInLength="0/1"  />
              </VectorParam>
              <VectorParam id="304"  name="shear">
               <InterpolatingParam id="305" interp="linr"  time="-9999999/1" value="0" leadInLength="0/1"  />
               <InterpolatingParam id="306" interp="linr"  time="-9999999/1" value="0" leadInLength="0/1"  />
               <InterpolatingParam id="307" interp="linr"  time="-9999999/1" value="0" leadInLength="0/1"  />
              </VectorParam>
              <VectorParam id="308"  name="scale">
               <InterpolatingParam id="309" interp="linr"  time="-9999999/1" value="1" leadInLength="0/1"  />
               <InterpolatingParam id="310" interp="linr"  time="-9999999/1" value="1" leadInLength="0/1"  />
               <InterpolatingParam id="311" interp="linr"  time="-9999999/1" value="1" leadInLength="0/1"  />
              </VectorParam>
              <VectorParam id="312"  name="anchor">
               <InterpolatingParam id="313" interp="linr"  time="0/1" value="0" leadInLength="0/1"  />
               <InterpolatingParam id="314" interp="linr"  time="0/1" value="0" leadInLength="0/1"  />
               <InterpolatingParam id="315" interp="linr"  time="0/1" value="0" leadInLength="0/1"  />
              </VectorParam>
             </Transformer>
             <Parameters>
              <VectorParam id="316"  name="sourceCrop">
               <InterpolatingParam id="317" interp="linr"  time="0/1" value="0" leadInLength="0/1"  />
               <InterpolatingParam id="318" interp="linr"  time="0/1" value="0" leadInLength="0/1"  />
               <InterpolatingParam id="319" interp="linr"  time="0/1" value="0" leadInLength="0/1"  />
               <InterpolatingParam id="320" interp="linr"  time="0/1" value="0" leadInLength="0/1"  />
              </VectorParam>
              <VectorParam id="321"  name="geometryCrop">
               <InterpolatingParam id="322" interp="linr"  time="-9999999/1" value="0" leadInLength="0/1"  />
               <InterpolatingParam id="323" interp="linr"  time="-9999999/1" value="0" leadInLength="0/1"  />
               <InterpolatingParam id="324" interp="linr"  time="-9999999/1" value="0" leadInLength="0/1"  />
               <InterpolatingParam id="325" interp="linr"  time="-9999999/1" value="0" leadInLength="0/1"  />
              </VectorParam>
              <InterpolatingParam id="326" interp="linr"  time="-9999999/1" value="1" leadInLength="0/1"  name="opacity"/>
              <InterpolatingParam id="327" interp="linr"  time="0/1" value="0" leadInLength="0/1"  name="cursorOpacity"/>
              <InterpolatingParam id="328" interp="linr"  time="0/1" value="0" leadInLength="0/1"  name="cursorScale"/>
             </Parameters>
             <Attributes>
              <Attribute id="329" value="" name="ident"/>
             </Attributes>
             <ExtraData>
              <Entry key="ZoomPanBin">
               <ZoomPanBin id="330"  >
                <ZoomPanKeyframes>
                </ZoomPanKeyframes>
               </ZoomPanBin>
              </Entry>
              <Entry key="CursorEffectBin">
               <CursorEffectBin id="331"  >
                <CursorEffectKeyframes>
                </CursorEffectKeyframes>
               </CursorEffectBin>
              </Entry>
             </ExtraData>
            </ScreenVMFile>
            <MetaData>
             <entry key="AutoAppliedSmartFocus" val="False"/>
             <entry key="WinSubProjectDisplayName" val=""/>
            </MetaData>
           </UnifiedMedia>
           <UnifiedMedia id="332"  >
            <AMFile id="333" start="2161" duration="33" scalar="1/1" mediaStart="2479/1" mediaDuration="33/1" trackNumber="1" src="5" channelNumber="0,1" >
             <Parameters>
              <InterpolatingParam id="334" interp="linr"  time="0/1" value="1" leadInLength="0/1"  name="volume"/>
              <Parameter id="335"  name="captions"/>
             </Parameters>
             <Attributes>
              <Attribute id="336" value="" name="ident"/>
              <Attribute id="337" value="44100" name="sampleRate"/>
              <Attribute id="338" value="16" name="bitDepth"/>
              <Attribute id="339" value="1" name="gain"/>
              <Attribute id="340" value="0" name="mixToMono"/>
             </Attributes>
            </AMFile>
            <ScreenVMFile id="341" start="2161" duration="33" scalar="1/1" mediaStart="2479/1" mediaDuration="33/1" trackNumber="0" src="5" >
             <Transformer>
              <VectorParam id="342"  name="translation">
               <InterpolatingParam id="343" interp="linr"  time="-9999999/1" value="0" leadInLength="0/1"  />
               <InterpolatingParam id="344" interp="linr"  time="-9999999/1" value="0" leadInLength="0/1"  />
               <InterpolatingParam id="345" interp="linr"  time="-9999999/1" value="0" leadInLength="0/1"  />
              </VectorParam>
              <VectorParam id="346"  name="rotation">
               <InterpolatingParam id="347" interp="linr"  time="-9999999/1" value="0" leadInLength="0/1"  />
               <InterpolatingParam id="348" interp="linr"  time="-9999999/1" value="0" leadInLength="0/1"  />
               <InterpolatingParam id="349" interp="linr"  time="-9999999/1" value="0" leadInLength="0/1"  />
              </VectorParam>
              <VectorParam id="350"  name="shear">
               <InterpolatingParam id="351" interp="linr"  time="-9999999/1" value="0" leadInLength="0/1"  />
               <InterpolatingParam id="352" interp="linr"  time="-9999999/1" value="0" leadInLength="0/1"  />
               <InterpolatingParam id="353" interp="linr"  time="-9999999/1" value="0" leadInLength="0/1"  />
              </VectorParam>
              <VectorParam id="354"  name="scale">
               <InterpolatingParam id="355" interp="linr"  time="-9999999/1" value="1" leadInLength="0/1"  />
               <InterpolatingParam id="356" interp="linr"  time="-9999999/1" value="1" leadInLength="0/1"  />
               <InterpolatingParam id="357" interp="linr"  time="-9999999/1" value="1" leadInLength="0/1"  />
              </VectorParam>
              <VectorParam id="358"  name="anchor">
               <InterpolatingParam id="359" interp="linr"  time="0/1" value="0" leadInLength="0/1"  />
               <InterpolatingParam id="360" interp="linr"  time="0/1" value="0" leadInLength="0/1"  />
               <InterpolatingParam id="361" interp="linr"  time="0/1" value="0" leadInLength="0/1"  />
              </VectorParam>
             </Transformer>
             <Parameters>
              <VectorParam id="362"  name="sourceCrop">
               <InterpolatingParam id="363" interp="linr"  time="0/1" value="0" leadInLength="0/1"  />
               <InterpolatingParam id="364" interp="linr"  time="0/1" value="0" leadInLength="0/1"  />
               <InterpolatingParam id="365" interp="linr"  time="0/1" value="0" leadInLength="0/1"  />
               <InterpolatingParam id="366" interp="linr"  time="0/1" value="0" leadInLength="0/1"  />
              </VectorParam>
              <VectorParam id="367"  name="geometryCrop">
               <InterpolatingParam id="368" interp="linr"  time="-9999999/1" value="0" leadInLength="0/1"  />
               <InterpolatingParam id="369" interp="linr"  time="-9999999/1" value="0" leadInLength="0/1"  />
               <InterpolatingParam id="370" interp="linr"  time="-9999999/1" value="0" leadInLength="0/1"  />
               <InterpolatingParam id="371" interp="linr"  time="-9999999/1" value="0" leadInLength="0/1"  />
              </VectorParam>
              <InterpolatingParam id="372" interp="linr"  time="-9999999/1" value="1" leadInLength="0/1"  name="opacity"/>
              <InterpolatingParam id="373" interp="linr"  time="0/1" value="0" leadInLength="0/1"  name="cursorOpacity"/>
              <InterpolatingParam id="374" interp="linr"  time="0/1" value="0" leadInLength="0/1"  name="cursorScale"/>
             </Parameters>
             <Attributes>
              <Attribute id="375" value="" name="ident"/>
             </Attributes>
             <ExtraData>
              <Entry key="ZoomPanBin">
               <ZoomPanBin id="376"  >
                <ZoomPanKeyframes>
                </ZoomPanKeyframes>
               </ZoomPanBin>
              </Entry>
              <Entry key="CursorEffectBin">
               <CursorEffectBin id="377"  >
                <CursorEffectKeyframes>
                </CursorEffectKeyframes>
               </CursorEffectBin>
              </Entry>
             </ExtraData>
            </ScreenVMFile>
            <MetaData>
             <entry key="AutoAppliedSmartFocus" val="False"/>
             <entry key="WinSubProjectDisplayName" val=""/>
            </MetaData>
           </UnifiedMedia>
           <UnifiedMedia id="378"  >
            <AMFile id="379" start="2194" duration="89" scalar="1/1" mediaStart="2526/1" mediaDuration="89/1" trackNumber="1" src="5" channelNumber="0,1" >
             <Parameters>
              <InterpolatingParam id="380" interp="linr"  time="0/1" value="1" leadInLength="0/1"  name="volume"/>
              <Parameter id="381"  name="captions"/>
             </Parameters>
             <Attributes>
              <Attribute id="382" value="" name="ident"/>
              <Attribute id="383" value="44100" name="sampleRate"/>
              <Attribute id="384" value="16" name="bitDepth"/>
              <Attribute id="385" value="1" name="gain"/>
              <Attribute id="386" value="0" name="mixToMono"/>
             </Attributes>
            </AMFile>
            <ScreenVMFile id="387" start="2194" duration="89" scalar="1/1" mediaStart="2526/1" mediaDuration="89/1" trackNumber="0" src="5" >
             <Transformer>
              <VectorParam id="388"  name="translation">
               <InterpolatingParam id="389" interp="linr"  time="-9999999/1" value="0" leadInLength="0/1"  />
               <InterpolatingParam id="390" interp="linr"  time="-9999999/1" value="0" leadInLength="0/1"  />
               <InterpolatingParam id="391" interp="linr"  time="-9999999/1" value="0" leadInLength="0/1"  />
              </VectorParam>
              <VectorParam id="392"  name="rotation">
               <InterpolatingParam id="393" interp="linr"  time="-9999999/1" value="0" leadInLength="0/1"  />
               <InterpolatingParam id="394" interp="linr"  time="-9999999/1" value="0" leadInLength="0/1"  />
               <InterpolatingParam id="395" interp="linr"  time="-9999999/1" value="0" leadInLength="0/1"  />
              </VectorParam>
              <VectorParam id="396"  name="shear">
               <InterpolatingParam id="397" interp="linr"  time="-9999999/1" value="0" leadInLength="0/1"  />
               <InterpolatingParam id="398" interp="linr"  time="-9999999/1" value="0" leadInLength="0/1"  />
               <InterpolatingParam id="399" interp="linr"  time="-9999999/1" value="0" leadInLength="0/1"  />
              </VectorParam>
              <VectorParam id="400"  name="scale">
               <InterpolatingParam id="401" interp="linr"  time="-9999999/1" value="1" leadInLength="0/1"  />
               <InterpolatingParam id="402" interp="linr"  time="-9999999/1" value="1" leadInLength="0/1"  />
               <InterpolatingParam id="403" interp="linr"  time="-9999999/1" value="1" leadInLength="0/1"  />
              </VectorParam>
              <VectorParam id="404"  name="anchor">
               <InterpolatingParam id="405" interp="linr"  time="0/1" value="0" leadInLength="0/1"  />
               <InterpolatingParam id="406" interp="linr"  time="0/1" value="0" leadInLength="0/1"  />
               <InterpolatingParam id="407" interp="linr"  time="0/1" value="0" leadInLength="0/1"  />
              </VectorParam>
             </Transformer>
             <Parameters>
              <VectorParam id="408"  name="sourceCrop">
               <InterpolatingParam id="409" interp="linr"  time="0/1" value="0" leadInLength="0/1"  />
               <InterpolatingParam id="410" interp="linr"  time="0/1" value="0" leadInLength="0/1"  />
               <InterpolatingParam id="411" interp="linr"  time="0/1" value="0" leadInLength="0/1"  />
               <InterpolatingParam id="412" interp="linr"  time="0/1" value="0" leadInLength="0/1"  />
              </VectorParam>
              <VectorParam id="413"  name="geometryCrop">
               <InterpolatingParam id="414" interp="linr"  time="-9999999/1" value="0" leadInLength="0/1"  />
               <InterpolatingParam id="415" interp="linr"  time="-9999999/1" value="0" leadInLength="0/1"  />
               <InterpolatingParam id="416" interp="linr"  time="-9999999/1" value="0" leadInLength="0/1"  />
               <InterpolatingParam id="417" interp="linr"  time="-9999999/1" value="0" leadInLength="0/1"  />
              </VectorParam>
              <InterpolatingParam id="418" interp="linr"  time="-9999999/1" value="1" leadInLength="0/1"  name="opacity"/>
              <InterpolatingParam id="419" interp="linr"  time="0/1" value="0" leadInLength="0/1"  name="cursorOpacity"/>
              <InterpolatingParam id="420" interp="linr"  time="0/1" value="0" leadInLength="0/1"  name="cursorScale"/>
             </Parameters>
             <Attributes>
              <Attribute id="421" value="" name="ident"/>
             </Attributes>
             <ExtraData>
              <Entry key="ZoomPanBin">
               <ZoomPanBin id="422"  >
                <ZoomPanKeyframes>
                </ZoomPanKeyframes>
               </ZoomPanBin>
              </Entry>
              <Entry key="CursorEffectBin">
               <CursorEffectBin id="423"  >
                <CursorEffectKeyframes>
                </CursorEffectKeyframes>
               </CursorEffectBin>
              </Entry>
             </ExtraData>
            </ScreenVMFile>
            <MetaData>
             <entry key="AutoAppliedSmartFocus" val="False"/>
             <entry key="WinSubProjectDisplayName" val=""/>
            </MetaData>
           </UnifiedMedia>
           <UnifiedMedia id="424"  >
            <AMFile id="425" start="2283" duration="311" scalar="1/1" mediaStart="2676/1" mediaDuration="311/1" trackNumber="1" src="5" channelNumber="0,1" >
             <Parameters>
              <InterpolatingParam id="426" interp="linr"  time="0/1" value="1" leadInLength="0/1"  name="volume"/>
              <Parameter id="427"  name="captions"/>
             </Parameters>
             <Attributes>
              <Attribute id="428" value="" name="ident"/>
              <Attribute id="429" value="44100" name="sampleRate"/>
              <Attribute id="430" value="16" name="bitDepth"/>
              <Attribute id="431" value="1" name="gain"/>
              <Attribute id="432" value="0" name="mixToMono"/>
             </Attributes>
            </AMFile>
            <ScreenVMFile id="433" start="2283" duration="311" scalar="1/1" mediaStart="2676/1" mediaDuration="311/1" trackNumber="0" src="5" >
             <Transformer>
              <VectorParam id="434"  name="translation">
               <InterpolatingParam id="435" interp="linr"  time="-9999999/1" value="0" leadInLength="0/1"  />
               <InterpolatingParam id="436" interp="linr"  time="-9999999/1" value="0" leadInLength="0/1"  />
               <InterpolatingParam id="437" interp="linr"  time="-9999999/1" value="0" leadInLength="0/1"  />
              </VectorParam>
              <VectorParam id="438"  name="rotation">
               <InterpolatingParam id="439" interp="linr"  time="-9999999/1" value="0" leadInLength="0/1"  />
               <InterpolatingParam id="440" interp="linr"  time="-9999999/1" value="0" leadInLength="0/1"  />
               <InterpolatingParam id="441" interp="linr"  time="-9999999/1" value="0" leadInLength="0/1"  />
              </VectorParam>
              <VectorParam id="442"  name="shear">
               <InterpolatingParam id="443" interp="linr"  time="-9999999/1" value="0" leadInLength="0/1"  />
               <InterpolatingParam id="444" interp="linr"  time="-9999999/1" value="0" leadInLength="0/1"  />
               <InterpolatingParam id="445" interp="linr"  time="-9999999/1" value="0" leadInLength="0/1"  />
              </VectorParam>
              <VectorParam id="446"  name="scale">
               <InterpolatingParam id="447" interp="linr"  time="-9999999/1" value="1" leadInLength="0/1"  />
               <InterpolatingParam id="448" interp="linr"  time="-9999999/1" value="1" leadInLength="0/1"  />
               <InterpolatingParam id="449" interp="linr"  time="-9999999/1" value="1" leadInLength="0/1"  />
              </VectorParam>
              <VectorParam id="450"  name="anchor">
               <InterpolatingParam id="451" interp="linr"  time="0/1" value="0" leadInLength="0/1"  />
               <InterpolatingParam id="452" interp="linr"  time="0/1" value="0" leadInLength="0/1"  />
               <InterpolatingParam id="453" interp="linr"  time="0/1" value="0" leadInLength="0/1"  />
              </VectorParam>
             </Transformer>
             <Parameters>
              <VectorParam id="454"  name="sourceCrop">
               <InterpolatingParam id="455" interp="linr"  time="0/1" value="0" leadInLength="0/1"  />
               <InterpolatingParam id="456" interp="linr"  time="0/1" value="0" leadInLength="0/1"  />
               <InterpolatingParam id="457" interp="linr"  time="0/1" value="0" leadInLength="0/1"  />
               <InterpolatingParam id="458" interp="linr"  time="0/1" value="0" leadInLength="0/1"  />
              </VectorParam>
              <VectorParam id="459"  name="geometryCrop">
               <InterpolatingParam id="460" interp="linr"  time="-9999999/1" value="0" leadInLength="0/1"  />
               <InterpolatingParam id="461" interp="linr"  time="-9999999/1" value="0" leadInLength="0/1"  />
               <InterpolatingParam id="462" interp="linr"  time="-9999999/1" value="0" leadInLength="0/1"  />
               <InterpolatingParam id="463" interp="linr"  time="-9999999/1" value="0" leadInLength="0/1"  />
              </VectorParam>
              <InterpolatingParam id="464" interp="linr"  time="-9999999/1" value="1" leadInLength="0/1"  name="opacity"/>
              <InterpolatingParam id="465" interp="linr"  time="0/1" value="0" leadInLength="0/1"  name="cursorOpacity"/>
              <InterpolatingParam id="466" interp="linr"  time="0/1" value="0" leadInLength="0/1"  name="cursorScale"/>
             </Parameters>
             <Attributes>
              <Attribute id="467" value="" name="ident"/>
             </Attributes>
             <ExtraData>
              <Entry key="ZoomPanBin">
               <ZoomPanBin id="468"  >
                <ZoomPanKeyframes>
                </ZoomPanKeyframes>
               </ZoomPanBin>
              </Entry>
              <Entry key="CursorEffectBin">
               <CursorEffectBin id="469"  >
                <CursorEffectKeyframes>
                </CursorEffectKeyframes>
               </CursorEffectBin>
              </Entry>
             </ExtraData>
            </ScreenVMFile>
            <MetaData>
             <entry key="AutoAppliedSmartFocus" val="False"/>
             <entry key="WinSubProjectDisplayName" val=""/>
            </MetaData>
           </UnifiedMedia>
           <UnifiedMedia id="470"  >
            <AMFile id="471" start="2594" duration="623" scalar="1/1" mediaStart="3101/1" mediaDuration="623/1" trackNumber="1" src="5" channelNumber="0,1" >
             <Parameters>
              <InterpolatingParam id="472" interp="linr"  time="0/1" value="1" leadInLength="0/1"  name="volume"/>
              <Parameter id="473"  name="captions"/>
             </Parameters>
             <Attributes>
              <Attribute id="474" value="" name="ident"/>
              <Attribute id="475" value="44100" name="sampleRate"/>
              <Attribute id="476" value="16" name="bitDepth"/>
              <Attribute id="477" value="1" name="gain"/>
              <Attribute id="478" value="0" name="mixToMono"/>
             </Attributes>
            </AMFile>
            <ScreenVMFile id="479" start="2594" duration="623" scalar="1/1" mediaStart="3101/1" mediaDuration="623/1" trackNumber="0" src="5" >
             <Transformer>
              <VectorParam id="480"  name="translation">
               <InterpolatingParam id="481" interp="linr"  time="-9999999/1" value="0" leadInLength="0/1"  />
               <InterpolatingParam id="482" interp="linr"  time="-9999999/1" value="0" leadInLength="0/1"  />
               <InterpolatingParam id="483" interp="linr"  time="-9999999/1" value="0" leadInLength="0/1"  />
              </VectorParam>
              <VectorParam id="484"  name="rotation">
               <InterpolatingParam id="485" interp="linr"  time="-9999999/1" value="0" leadInLength="0/1"  />
               <InterpolatingParam id="486" interp="linr"  time="-9999999/1" value="0" leadInLength="0/1"  />
               <InterpolatingParam id="487" interp="linr"  time="-9999999/1" value="0" leadInLength="0/1"  />
              </VectorParam>
              <VectorParam id="488"  name="shear">
               <InterpolatingParam id="489" interp="linr"  time="-9999999/1" value="0" leadInLength="0/1"  />
               <InterpolatingParam id="490" interp="linr"  time="-9999999/1" value="0" leadInLength="0/1"  />
               <InterpolatingParam id="491" interp="linr"  time="-9999999/1" value="0" leadInLength="0/1"  />
              </VectorParam>
              <VectorParam id="492"  name="scale">
               <InterpolatingParam id="493" interp="linr"  time="-9999999/1" value="1" leadInLength="0/1"  />
               <InterpolatingParam id="494" interp="linr"  time="-9999999/1" value="1" leadInLength="0/1"  />
               <InterpolatingParam id="495" interp="linr"  time="-9999999/1" value="1" leadInLength="0/1"  />
              </VectorParam>
              <VectorParam id="496"  name="anchor">
               <InterpolatingParam id="497" interp="linr"  time="0/1" value="0" leadInLength="0/1"  />
               <InterpolatingParam id="498" interp="linr"  time="0/1" value="0" leadInLength="0/1"  />
               <InterpolatingParam id="499" interp="linr"  time="0/1" value="0" leadInLength="0/1"  />
              </VectorParam>
             </Transformer>
             <Parameters>
              <VectorParam id="500"  name="sourceCrop">
               <InterpolatingParam id="501" interp="linr"  time="0/1" value="0" leadInLength="0/1"  />
               <InterpolatingParam id="502" interp="linr"  time="0/1" value="0" leadInLength="0/1"  />
               <InterpolatingParam id="503" interp="linr"  time="0/1" value="0" leadInLength="0/1"  />
               <InterpolatingParam id="504" interp="linr"  time="0/1" value="0" leadInLength="0/1"  />
              </VectorParam>
              <VectorParam id="505"  name="geometryCrop">
               <InterpolatingParam id="506" interp="linr"  time="-9999999/1" value="0" leadInLength="0/1"  />
               <InterpolatingParam id="507" interp="linr"  time="-9999999/1" value="0" leadInLength="0/1"  />
               <InterpolatingParam id="508" interp="linr"  time="-9999999/1" value="0" leadInLength="0/1"  />
               <InterpolatingParam id="509" interp="linr"  time="-9999999/1" value="0" leadInLength="0/1"  />
              </VectorParam>
              <InterpolatingParam id="510" interp="linr"  time="-9999999/1" value="1" leadInLength="0/1"  name="opacity"/>
              <InterpolatingParam id="511" interp="linr"  time="0/1" value="0" leadInLength="0/1"  name="cursorOpacity"/>
              <InterpolatingParam id="512" interp="linr"  time="0/1" value="0" leadInLength="0/1"  name="cursorScale"/>
             </Parameters>
             <Attributes>
              <Attribute id="513" value="" name="ident"/>
             </Attributes>
             <ExtraData>
              <Entry key="ZoomPanBin">
               <ZoomPanBin id="514"  >
                <ZoomPanKeyframes>
                </ZoomPanKeyframes>
               </ZoomPanBin>
              </Entry>
              <Entry key="CursorEffectBin">
               <CursorEffectBin id="515"  >
                <CursorEffectKeyframes>
                </CursorEffectKeyframes>
               </CursorEffectBin>
              </Entry>
             </ExtraData>
            </ScreenVMFile>
            <MetaData>
             <entry key="AutoAppliedSmartFocus" val="False"/>
             <entry key="WinSubProjectDisplayName" val=""/>
            </MetaData>
           </UnifiedMedia>
           <UnifiedMedia id="516"  >
            <AMFile id="517" start="3217" duration="82" scalar="1/1" mediaStart="3754/1" mediaDuration="82/1" trackNumber="1" src="5" channelNumber="0,1" >
             <Parameters>
              <InterpolatingParam id="518" interp="linr"  time="0/1" value="1" leadInLength="0/1"  name="volume"/>
              <Parameter id="519"  name="captions"/>
             </Parameters>
             <Attributes>
              <Attribute id="520" value="" name="ident"/>
              <Attribute id="521" value="44100" name="sampleRate"/>
              <Attribute id="522" value="16" name="bitDepth"/>
              <Attribute id="523" value="1" name="gain"/>
              <Attribute id="524" value="0" name="mixToMono"/>
             </Attributes>
            </AMFile>
            <ScreenVMFile id="525" start="3217" duration="82" scalar="1/1" mediaStart="3754/1" mediaDuration="82/1" trackNumber="0" src="5" >
             <Transformer>
              <VectorParam id="526"  name="translation">
               <InterpolatingParam id="527" interp="linr"  time="-9999999/1" value="0" leadInLength="0/1"  />
               <InterpolatingParam id="528" interp="linr"  time="-9999999/1" value="0" leadInLength="0/1"  />
               <InterpolatingParam id="529" interp="linr"  time="-9999999/1" value="0" leadInLength="0/1"  />
              </VectorParam>
              <VectorParam id="530"  name="rotation">
               <InterpolatingParam id="531" interp="linr"  time="-9999999/1" value="0" leadInLength="0/1"  />
               <InterpolatingParam id="532" interp="linr"  time="-9999999/1" value="0" leadInLength="0/1"  />
               <InterpolatingParam id="533" interp="linr"  time="-9999999/1" value="0" leadInLength="0/1"  />
              </VectorParam>
              <VectorParam id="534"  name="shear">
               <InterpolatingParam id="535" interp="linr"  time="-9999999/1" value="0" leadInLength="0/1"  />
               <InterpolatingParam id="536" interp="linr"  time="-9999999/1" value="0" leadInLength="0/1"  />
               <InterpolatingParam id="537" interp="linr"  time="-9999999/1" value="0" leadInLength="0/1"  />
              </VectorParam>
              <VectorParam id="538"  name="scale">
               <InterpolatingParam id="539" interp="linr"  time="-9999999/1" value="1" leadInLength="0/1"  />
               <InterpolatingParam id="540" interp="linr"  time="-9999999/1" value="1" leadInLength="0/1"  />
               <InterpolatingParam id="541" interp="linr"  time="-9999999/1" value="1" leadInLength="0/1"  />
              </VectorParam>
              <VectorParam id="542"  name="anchor">
               <InterpolatingParam id="543" interp="linr"  time="0/1" value="0" leadInLength="0/1"  />
               <InterpolatingParam id="544" interp="linr"  time="0/1" value="0" leadInLength="0/1"  />
               <InterpolatingParam id="545" interp="linr"  time="0/1" value="0" leadInLength="0/1"  />
              </VectorParam>
             </Transformer>
             <Parameters>
              <VectorParam id="546"  name="sourceCrop">
               <InterpolatingParam id="547" interp="linr"  time="0/1" value="0" leadInLength="0/1"  />
               <InterpolatingParam id="548" interp="linr"  time="0/1" value="0" leadInLength="0/1"  />
               <InterpolatingParam id="549" interp="linr"  time="0/1" value="0" leadInLength="0/1"  />
               <InterpolatingParam id="550" interp="linr"  time="0/1" value="0" leadInLength="0/1"  />
              </VectorParam>
              <VectorParam id="551"  name="geometryCrop">
               <InterpolatingParam id="552" interp="linr"  time="-9999999/1" value="0" leadInLength="0/1"  />
               <InterpolatingParam id="553" interp="linr"  time="-9999999/1" value="0" leadInLength="0/1"  />
               <InterpolatingParam id="554" interp="linr"  time="-9999999/1" value="0" leadInLength="0/1"  />
               <InterpolatingParam id="555" interp="linr"  time="-9999999/1" value="0" leadInLength="0/1"  />
              </VectorParam>
              <InterpolatingParam id="556" interp="linr"  time="-9999999/1" value="1" leadInLength="0/1"  name="opacity"/>
              <InterpolatingParam id="557" interp="linr"  time="0/1" value="0" leadInLength="0/1"  name="cursorOpacity"/>
              <InterpolatingParam id="558" interp="linr"  time="0/1" value="0" leadInLength="0/1"  name="cursorScale"/>
             </Parameters>
             <Attributes>
              <Attribute id="559" value="" name="ident"/>
             </Attributes>
             <ExtraData>
              <Entry key="ZoomPanBin">
               <ZoomPanBin id="560"  >
                <ZoomPanKeyframes>
                </ZoomPanKeyframes>
               </ZoomPanBin>
              </Entry>
              <Entry key="CursorEffectBin">
               <CursorEffectBin id="561"  >
                <CursorEffectKeyframes>
                </CursorEffectKeyframes>
               </CursorEffectBin>
              </Entry>
             </ExtraData>
            </ScreenVMFile>
            <MetaData>
             <entry key="AutoAppliedSmartFocus" val="False"/>
             <entry key="WinSubProjectDisplayName" val=""/>
            </MetaData>
           </UnifiedMedia>
           <UnifiedMedia id="562"  >
            <AMFile id="563" start="3299" duration="33" scalar="1/1" mediaStart="3892/1" mediaDuration="33/1" trackNumber="1" src="5" channelNumber="0,1" >
             <Parameters>
              <InterpolatingParam id="564" interp="linr"  time="0/1" value="1" leadInLength="0/1"  name="volume"/>
              <Parameter id="565"  name="captions"/>
             </Parameters>
             <Attributes>
              <Attribute id="566" value="" name="ident"/>
              <Attribute id="567" value="44100" name="sampleRate"/>
              <Attribute id="568" value="16" name="bitDepth"/>
              <Attribute id="569" value="1" name="gain"/>
              <Attribute id="570" value="0" name="mixToMono"/>
             </Attributes>
            </AMFile>
            <ScreenVMFile id="571" start="3299" duration="33" scalar="1/1" mediaStart="3892/1" mediaDuration="33/1" trackNumber="0" src="5" >
             <Transformer>
              <VectorParam id="572"  name="translation">
               <InterpolatingParam id="573" interp="linr"  time="-9999999/1" value="0" leadInLength="0/1"  />
               <InterpolatingParam id="574" interp="linr"  time="-9999999/1" value="0" leadInLength="0/1"  />
               <InterpolatingParam id="575" interp="linr"  time="-9999999/1" value="0" leadInLength="0/1"  />
              </VectorParam>
              <VectorParam id="576"  name="rotation">
               <InterpolatingParam id="577" interp="linr"  time="-9999999/1" value="0" leadInLength="0/1"  />
               <InterpolatingParam id="578" interp="linr"  time="-9999999/1" value="0" leadInLength="0/1"  />
               <InterpolatingParam id="579" interp="linr"  time="-9999999/1" value="0" leadInLength="0/1"  />
              </VectorParam>
              <VectorParam id="580"  name="shear">
               <InterpolatingParam id="581" interp="linr"  time="-9999999/1" value="0" leadInLength="0/1"  />
               <InterpolatingParam id="582" interp="linr"  time="-9999999/1" value="0" leadInLength="0/1"  />
               <InterpolatingParam id="583" interp="linr"  time="-9999999/1" value="0" leadInLength="0/1"  />
              </VectorParam>
              <VectorParam id="584"  name="scale">
               <InterpolatingParam id="585" interp="linr"  time="-9999999/1" value="1" leadInLength="0/1"  />
               <InterpolatingParam id="586" interp="linr"  time="-9999999/1" value="1" leadInLength="0/1"  />
               <InterpolatingParam id="587" interp="linr"  time="-9999999/1" value="1" leadInLength="0/1"  />
              </VectorParam>
              <VectorParam id="588"  name="anchor">
               <InterpolatingParam id="589" interp="linr"  time="0/1" value="0" leadInLength="0/1"  />
               <InterpolatingParam id="590" interp="linr"  time="0/1" value="0" leadInLength="0/1"  />
               <InterpolatingParam id="591" interp="linr"  time="0/1" value="0" leadInLength="0/1"  />
              </VectorParam>
             </Transformer>
             <Parameters>
              <VectorParam id="592"  name="sourceCrop">
               <InterpolatingParam id="593" interp="linr"  time="0/1" value="0" leadInLength="0/1"  />
               <InterpolatingParam id="594" interp="linr"  time="0/1" value="0" leadInLength="0/1"  />
               <InterpolatingParam id="595" interp="linr"  time="0/1" value="0" leadInLength="0/1"  />
               <InterpolatingParam id="596" interp="linr"  time="0/1" value="0" leadInLength="0/1"  />
              </VectorParam>
              <VectorParam id="597"  name="geometryCrop">
               <InterpolatingParam id="598" interp="linr"  time="-9999999/1" value="0" leadInLength="0/1"  />
               <InterpolatingParam id="599" interp="linr"  time="-9999999/1" value="0" leadInLength="0/1"  />
               <InterpolatingParam id="600" interp="linr"  time="-9999999/1" value="0" leadInLength="0/1"  />
               <InterpolatingParam id="601" interp="linr"  time="-9999999/1" value="0" leadInLength="0/1"  />
              </VectorParam>
              <InterpolatingParam id="602" interp="linr"  time="-9999999/1" value="1" leadInLength="0/1"  name="opacity"/>
              <InterpolatingParam id="603" interp="linr"  time="0/1" value="0" leadInLength="0/1"  name="cursorOpacity"/>
              <InterpolatingParam id="604" interp="linr"  time="0/1" value="0" leadInLength="0/1"  name="cursorScale"/>
             </Parameters>
             <Attributes>
              <Attribute id="605" value="" name="ident"/>
             </Attributes>
             <ExtraData>
              <Entry key="ZoomPanBin">
               <ZoomPanBin id="606"  >
                <ZoomPanKeyframes>
                </ZoomPanKeyframes>
               </ZoomPanBin>
              </Entry>
              <Entry key="CursorEffectBin">
               <CursorEffectBin id="607"  >
                <CursorEffectKeyframes>
                </CursorEffectKeyframes>
               </CursorEffectBin>
              </Entry>
             </ExtraData>
            </ScreenVMFile>
            <MetaData>
             <entry key="AutoAppliedSmartFocus" val="False"/>
             <entry key="WinSubProjectDisplayName" val=""/>
            </MetaData>
           </UnifiedMedia>
           <UnifiedMedia id="608"  >
            <AMFile id="609" start="3332" duration="33" scalar="1/1" mediaStart="4067/1" mediaDuration="33/1" trackNumber="1" src="5" channelNumber="0,1" >
             <Parameters>
              <InterpolatingParam id="610" interp="linr"  time="0/1" value="1" leadInLength="0/1"  name="volume"/>
              <Parameter id="611"  name="captions"/>
             </Parameters>
             <Attributes>
              <Attribute id="612" value="" name="ident"/>
              <Attribute id="613" value="44100" name="sampleRate"/>
              <Attribute id="614" value="16" name="bitDepth"/>
              <Attribute id="615" value="1" name="gain"/>
              <Attribute id="616" value="0" name="mixToMono"/>
             </Attributes>
            </AMFile>
            <ScreenVMFile id="617" start="3332" duration="33" scalar="1/1" mediaStart="4067/1" mediaDuration="33/1" trackNumber="0" src="5" >
             <Transformer>
              <VectorParam id="618"  name="translation">
               <InterpolatingParam id="619" interp="linr"  time="-9999999/1" value="0" leadInLength="0/1"  />
               <InterpolatingParam id="620" interp="linr"  time="-9999999/1" value="0" leadInLength="0/1"  />
               <InterpolatingParam id="621" interp="linr"  time="-9999999/1" value="0" leadInLength="0/1"  />
              </VectorParam>
              <VectorParam id="622"  name="rotation">
               <InterpolatingParam id="623" interp="linr"  time="-9999999/1" value="0" leadInLength="0/1"  />
               <InterpolatingParam id="624" interp="linr"  time="-9999999/1" value="0" leadInLength="0/1"  />
               <InterpolatingParam id="625" interp="linr"  time="-9999999/1" value="0" leadInLength="0/1"  />
              </VectorParam>
              <VectorParam id="626"  name="shear">
               <InterpolatingParam id="627" interp="linr"  time="-9999999/1" value="0" leadInLength="0/1"  />
               <InterpolatingParam id="628" interp="linr"  time="-9999999/1" value="0" leadInLength="0/1"  />
               <InterpolatingParam id="629" interp="linr"  time="-9999999/1" value="0" leadInLength="0/1"  />
              </VectorParam>
              <VectorParam id="630"  name="scale">
               <InterpolatingParam id="631" interp="linr"  time="-9999999/1" value="1" leadInLength="0/1"  />
               <InterpolatingParam id="632" interp="linr"  time="-9999999/1" value="1" leadInLength="0/1"  />
               <InterpolatingParam id="633" interp="linr"  time="-9999999/1" value="1" leadInLength="0/1"  />
              </VectorParam>
              <VectorParam id="634"  name="anchor">
               <InterpolatingParam id="635" interp="linr"  time="0/1" value="0" leadInLength="0/1"  />
               <InterpolatingParam id="636" interp="linr"  time="0/1" value="0" leadInLength="0/1"  />
               <InterpolatingParam id="637" interp="linr"  time="0/1" value="0" leadInLength="0/1"  />
              </VectorParam>
             </Transformer>
             <Parameters>
              <VectorParam id="638"  name="sourceCrop">
               <InterpolatingParam id="639" interp="linr"  time="0/1" value="0" leadInLength="0/1"  />
               <InterpolatingParam id="640" interp="linr"  time="0/1" value="0" leadInLength="0/1"  />
               <InterpolatingParam id="641" interp="linr"  time="0/1" value="0" leadInLength="0/1"  />
               <InterpolatingParam id="642" interp="linr"  time="0/1" value="0" leadInLength="0/1"  />
              </VectorParam>
              <VectorParam id="643"  name="geometryCrop">
               <InterpolatingParam id="644" interp="linr"  time="-9999999/1" value="0" leadInLength="0/1"  />
               <InterpolatingParam id="645" interp="linr"  time="-9999999/1" value="0" leadInLength="0/1"  />
               <InterpolatingParam id="646" interp="linr"  time="-9999999/1" value="0" leadInLength="0/1"  />
               <InterpolatingParam id="647" interp="linr"  time="-9999999/1" value="0" leadInLength="0/1"  />
              </VectorParam>
              <InterpolatingParam id="648" interp="linr"  time="-9999999/1" value="1" leadInLength="0/1"  name="opacity"/>
              <InterpolatingParam id="649" interp="linr"  time="0/1" value="0" leadInLength="0/1"  name="cursorOpacity"/>
              <InterpolatingParam id="650" interp="linr"  time="0/1" value="0" leadInLength="0/1"  name="cursorScale"/>
             </Parameters>
             <Attributes>
              <Attribute id="651" value="" name="ident"/>
             </Attributes>
             <ExtraData>
              <Entry key="ZoomPanBin">
               <ZoomPanBin id="652"  >
                <ZoomPanKeyframes>
                </ZoomPanKeyframes>
               </ZoomPanBin>
              </Entry>
              <Entry key="CursorEffectBin">
               <CursorEffectBin id="653"  >
                <CursorEffectKeyframes>
                </CursorEffectKeyframes>
               </CursorEffectBin>
              </Entry>
             </ExtraData>
            </ScreenVMFile>
            <MetaData>
             <entry key="AutoAppliedSmartFocus" val="False"/>
             <entry key="WinSubProjectDisplayName" val=""/>
            </MetaData>
           </UnifiedMedia>
           <UnifiedMedia id="654"  >
            <AMFile id="655" start="3365" duration="46" scalar="1/1" mediaStart="4166/1" mediaDuration="46/1" trackNumber="1" src="5" channelNumber="0,1" >
             <Parameters>
              <InterpolatingParam id="656" interp="linr"  time="0/1" value="1" leadInLength="0/1"  name="volume"/>
              <Parameter id="657"  name="captions"/>
             </Parameters>
             <Attributes>
              <Attribute id="658" value="" name="ident"/>
              <Attribute id="659" value="44100" name="sampleRate"/>
              <Attribute id="660" value="16" name="bitDepth"/>
              <Attribute id="661" value="1" name="gain"/>
              <Attribute id="662" value="0" name="mixToMono"/>
             </Attributes>
            </AMFile>
            <ScreenVMFile id="663" start="3365" duration="46" scalar="1/1" mediaStart="4166/1" mediaDuration="46/1" trackNumber="0" src="5" >
             <Transformer>
              <VectorParam id="664"  name="translation">
               <InterpolatingParam id="665" interp="linr"  time="-9999999/1" value="0" leadInLength="0/1"  />
               <InterpolatingParam id="666" interp="linr"  time="-9999999/1" value="0" leadInLength="0/1"  />
               <InterpolatingParam id="667" interp="linr"  time="-9999999/1" value="0" leadInLength="0/1"  />
              </VectorParam>
              <VectorParam id="668"  name="rotation">
               <InterpolatingParam id="669" interp="linr"  time="-9999999/1" value="0" leadInLength="0/1"  />
               <InterpolatingParam id="670" interp="linr"  time="-9999999/1" value="0" leadInLength="0/1"  />
               <InterpolatingParam id="671" interp="linr"  time="-9999999/1" value="0" leadInLength="0/1"  />
              </VectorParam>
              <VectorParam id="672"  name="shear">
               <InterpolatingParam id="673" interp="linr"  time="-9999999/1" value="0" leadInLength="0/1"  />
               <InterpolatingParam id="674" interp="linr"  time="-9999999/1" value="0" leadInLength="0/1"  />
               <InterpolatingParam id="675" interp="linr"  time="-9999999/1" value="0" leadInLength="0/1"  />
              </VectorParam>
              <VectorParam id="676"  name="scale">
               <InterpolatingParam id="677" interp="linr"  time="-9999999/1" value="1" leadInLength="0/1"  />
               <InterpolatingParam id="678" interp="linr"  time="-9999999/1" value="1" leadInLength="0/1"  />
               <InterpolatingParam id="679" interp="linr"  time="-9999999/1" value="1" leadInLength="0/1"  />
              </VectorParam>
              <VectorParam id="680"  name="anchor">
               <InterpolatingParam id="681" interp="linr"  time="0/1" value="0" leadInLength="0/1"  />
               <InterpolatingParam id="682" interp="linr"  time="0/1" value="0" leadInLength="0/1"  />
               <InterpolatingParam id="683" interp="linr"  time="0/1" value="0" leadInLength="0/1"  />
              </VectorParam>
             </Transformer>
             <Parameters>
              <VectorParam id="684"  name="sourceCrop">
               <InterpolatingParam id="685" interp="linr"  time="0/1" value="0" leadInLength="0/1"  />
               <InterpolatingParam id="686" interp="linr"  time="0/1" value="0" leadInLength="0/1"  />
               <InterpolatingParam id="687" interp="linr"  time="0/1" value="0" leadInLength="0/1"  />
               <InterpolatingParam id="688" interp="linr"  time="0/1" value="0" leadInLength="0/1"  />
              </VectorParam>
              <VectorParam id="689"  name="geometryCrop">
               <InterpolatingParam id="690" interp="linr"  time="-9999999/1" value="0" leadInLength="0/1"  />
               <InterpolatingParam id="691" interp="linr"  time="-9999999/1" value="0" leadInLength="0/1"  />
               <InterpolatingParam id="692" interp="linr"  time="-9999999/1" value="0" leadInLength="0/1"  />
               <InterpolatingParam id="693" interp="linr"  time="-9999999/1" value="0" leadInLength="0/1"  />
              </VectorParam>
              <InterpolatingParam id="694" interp="linr"  time="-9999999/1" value="1" leadInLength="0/1"  name="opacity"/>
              <InterpolatingParam id="695" interp="linr"  time="0/1" value="0" leadInLength="0/1"  name="cursorOpacity"/>
              <InterpolatingParam id="696" interp="linr"  time="0/1" value="0" leadInLength="0/1"  name="cursorScale"/>
             </Parameters>
             <Attributes>
              <Attribute id="697" value="" name="ident"/>
             </Attributes>
             <ExtraData>
              <Entry key="ZoomPanBin">
               <ZoomPanBin id="698"  >
                <ZoomPanKeyframes>
                </ZoomPanKeyframes>
               </ZoomPanBin>
              </Entry>
              <Entry key="CursorEffectBin">
               <CursorEffectBin id="699"  >
                <CursorEffectKeyframes>
                </CursorEffectKeyframes>
               </CursorEffectBin>
              </Entry>
             </ExtraData>
            </ScreenVMFile>
            <MetaData>
             <entry key="AutoAppliedSmartFocus" val="False"/>
             <entry key="WinSubProjectDisplayName" val=""/>
            </MetaData>
           </UnifiedMedia>
           <UnifiedMedia id="700"  >
            <AMFile id="701" start="3411" duration="22" scalar="1/1" mediaStart="4221/1" mediaDuration="22/1" trackNumber="1" src="5" channelNumber="0,1" >
             <Parameters>
              <InterpolatingParam id="702" interp="linr"  time="0/1" value="1" leadInLength="0/1"  name="volume"/>
              <Parameter id="703"  name="captions"/>
             </Parameters>
             <Attributes>
              <Attribute id="704" value="" name="ident"/>
              <Attribute id="705" value="44100" name="sampleRate"/>
              <Attribute id="706" value="16" name="bitDepth"/>
              <Attribute id="707" value="1" name="gain"/>
              <Attribute id="708" value="0" name="mixToMono"/>
             </Attributes>
            </AMFile>
            <ScreenVMFile id="709" start="3411" duration="22" scalar="1/1" mediaStart="4221/1" mediaDuration="22/1" trackNumber="0" src="5" >
             <Transformer>
              <VectorParam id="710"  name="translation">
               <InterpolatingParam id="711" interp="linr"  time="-9999999/1" value="0" leadInLength="0/1"  />
               <InterpolatingParam id="712" interp="linr"  time="-9999999/1" value="0" leadInLength="0/1"  />
               <InterpolatingParam id="713" interp="linr"  time="-9999999/1" value="0" leadInLength="0/1"  />
              </VectorParam>
              <VectorParam id="714"  name="rotation">
               <InterpolatingParam id="715" interp="linr"  time="-9999999/1" value="0" leadInLength="0/1"  />
               <InterpolatingParam id="716" interp="linr"  time="-9999999/1" value="0" leadInLength="0/1"  />
               <InterpolatingParam id="717" interp="linr"  time="-9999999/1" value="0" leadInLength="0/1"  />
              </VectorParam>
              <VectorParam id="718"  name="shear">
               <InterpolatingParam id="719" interp="linr"  time="-9999999/1" value="0" leadInLength="0/1"  />
               <InterpolatingParam id="720" interp="linr"  time="-9999999/1" value="0" leadInLength="0/1"  />
               <InterpolatingParam id="721" interp="linr"  time="-9999999/1" value="0" leadInLength="0/1"  />
              </VectorParam>
              <VectorParam id="722"  name="scale">
               <InterpolatingParam id="723" interp="linr"  time="-9999999/1" value="1" leadInLength="0/1"  />
               <InterpolatingParam id="724" interp="linr"  time="-9999999/1" value="1" leadInLength="0/1"  />
               <InterpolatingParam id="725" interp="linr"  time="-9999999/1" value="1" leadInLength="0/1"  />
              </VectorParam>
              <VectorParam id="726"  name="anchor">
               <InterpolatingParam id="727" interp="linr"  time="0/1" value="0" leadInLength="0/1"  />
               <InterpolatingParam id="728" interp="linr"  time="0/1" value="0" leadInLength="0/1"  />
               <InterpolatingParam id="729" interp="linr"  time="0/1" value="0" leadInLength="0/1"  />
              </VectorParam>
             </Transformer>
             <Parameters>
              <VectorParam id="730"  name="sourceCrop">
               <InterpolatingParam id="731" interp="linr"  time="0/1" value="0" leadInLength="0/1"  />
               <InterpolatingParam id="732" interp="linr"  time="0/1" value="0" leadInLength="0/1"  />
               <InterpolatingParam id="733" interp="linr"  time="0/1" value="0" leadInLength="0/1"  />
               <InterpolatingParam id="734" interp="linr"  time="0/1" value="0" leadInLength="0/1"  />
              </VectorParam>
              <VectorParam id="735"  name="geometryCrop">
               <InterpolatingParam id="736" interp="linr"  time="-9999999/1" value="0" leadInLength="0/1"  />
               <InterpolatingParam id="737" interp="linr"  time="-9999999/1" value="0" leadInLength="0/1"  />
               <InterpolatingParam id="738" interp="linr"  time="-9999999/1" value="0" leadInLength="0/1"  />
               <InterpolatingParam id="739" interp="linr"  time="-9999999/1" value="0" leadInLength="0/1"  />
              </VectorParam>
              <InterpolatingParam id="740" interp="linr"  time="-9999999/1" value="1" leadInLength="0/1"  name="opacity"/>
              <InterpolatingParam id="741" interp="linr"  time="0/1" value="0" leadInLength="0/1"  name="cursorOpacity"/>
              <InterpolatingParam id="742" interp="linr"  time="0/1" value="0" leadInLength="0/1"  name="cursorScale"/>
             </Parameters>
             <Attributes>
              <Attribute id="743" value="" name="ident"/>
             </Attributes>
             <ExtraData>
              <Entry key="ZoomPanBin">
               <ZoomPanBin id="744"  >
                <ZoomPanKeyframes>
                </ZoomPanKeyframes>
               </ZoomPanBin>
              </Entry>
              <Entry key="CursorEffectBin">
               <CursorEffectBin id="745"  >
                <CursorEffectKeyframes>
                </CursorEffectKeyframes>
               </CursorEffectBin>
              </Entry>
             </ExtraData>
            </ScreenVMFile>
            <MetaData>
             <entry key="AutoAppliedSmartFocus" val="False"/>
             <entry key="WinSubProjectDisplayName" val=""/>
            </MetaData>
           </UnifiedMedia>
           <UnifiedMedia id="746"  >
            <AMFile id="747" start="3433" duration="5430" scalar="1/1" mediaStart="4275/1" mediaDuration="5430/1" trackNumber="1" src="5" channelNumber="0,1" >
             <Parameters>
              <InterpolatingParam id="748" interp="linr"  time="0/1" value="1" leadInLength="0/1"  name="volume"/>
              <Parameter id="749"  name="captions"/>
             </Parameters>
             <Attributes>
              <Attribute id="750" value="" name="ident"/>
              <Attribute id="751" value="44100" name="sampleRate"/>
              <Attribute id="752" value="16" name="bitDepth"/>
              <Attribute id="753" value="1" name="gain"/>
              <Attribute id="754" value="0" name="mixToMono"/>
             </Attributes>
            </AMFile>
            <ScreenVMFile id="755" start="3433" duration="5430" scalar="1/1" mediaStart="4275/1" mediaDuration="5430/1" trackNumber="0" src="5" >
             <Transformer>
              <VectorParam id="756"  name="translation">
               <InterpolatingParam id="757" interp="linr"  time="-9999999/1" value="0" leadInLength="0/1"  />
               <InterpolatingParam id="758" interp="linr"  time="-9999999/1" value="0" leadInLength="0/1"  />
               <InterpolatingParam id="759" interp="linr"  time="-9999999/1" value="0" leadInLength="0/1"  />
              </VectorParam>
              <VectorParam id="760"  name="rotation">
               <InterpolatingParam id="761" interp="linr"  time="-9999999/1" value="0" leadInLength="0/1"  />
               <InterpolatingParam id="762" interp="linr"  time="-9999999/1" value="0" leadInLength="0/1"  />
               <InterpolatingParam id="763" interp="linr"  time="-9999999/1" value="0" leadInLength="0/1"  />
              </VectorParam>
              <VectorParam id="764"  name="shear">
               <InterpolatingParam id="765" interp="linr"  time="-9999999/1" value="0" leadInLength="0/1"  />
               <InterpolatingParam id="766" interp="linr"  time="-9999999/1" value="0" leadInLength="0/1"  />
               <InterpolatingParam id="767" interp="linr"  time="-9999999/1" value="0" leadInLength="0/1"  />
              </VectorParam>
              <VectorParam id="768"  name="scale">
               <InterpolatingParam id="769" interp="linr"  time="-9999999/1" value="1" leadInLength="0/1"  />
               <InterpolatingParam id="770" interp="linr"  time="-9999999/1" value="1" leadInLength="0/1"  />
               <InterpolatingParam id="771" interp="linr"  time="-9999999/1" value="1" leadInLength="0/1"  />
              </VectorParam>
              <VectorParam id="772"  name="anchor">
               <InterpolatingParam id="773" interp="linr"  time="0/1" value="0" leadInLength="0/1"  />
               <InterpolatingParam id="774" interp="linr"  time="0/1" value="0" leadInLength="0/1"  />
               <InterpolatingParam id="775" interp="linr"  time="0/1" value="0" leadInLength="0/1"  />
              </VectorParam>
             </Transformer>
             <Parameters>
              <VectorParam id="776"  name="sourceCrop">
               <InterpolatingParam id="777" interp="linr"  time="0/1" value="0" leadInLength="0/1"  />
               <InterpolatingParam id="778" interp="linr"  time="0/1" value="0" leadInLength="0/1"  />
               <InterpolatingParam id="779" interp="linr"  time="0/1" value="0" leadInLength="0/1"  />
               <InterpolatingParam id="780" interp="linr"  time="0/1" value="0" leadInLength="0/1"  />
              </VectorParam>
              <VectorParam id="781"  name="geometryCrop">
               <InterpolatingParam id="782" interp="linr"  time="-9999999/1" value="0" leadInLength="0/1"  />
               <InterpolatingParam id="783" interp="linr"  time="-9999999/1" value="0" leadInLength="0/1"  />
               <InterpolatingParam id="784" interp="linr"  time="-9999999/1" value="0" leadInLength="0/1"  />
               <InterpolatingParam id="785" interp="linr"  time="-9999999/1" value="0" leadInLength="0/1"  />
              </VectorParam>
              <InterpolatingParam id="786" interp="linr"  time="-9999999/1" value="1" leadInLength="0/1"  name="opacity"/>
              <InterpolatingParam id="787" interp="linr"  time="0/1" value="0" leadInLength="0/1"  name="cursorOpacity"/>
              <InterpolatingParam id="788" interp="linr"  time="0/1" value="0" leadInLength="0/1"  name="cursorScale"/>
             </Parameters>
             <Attributes>
              <Attribute id="789" value="" name="ident"/>
             </Attributes>
             <ExtraData>
              <Entry key="ZoomPanBin">
               <ZoomPanBin id="790"  >
                <ZoomPanKeyframes>
                </ZoomPanKeyframes>
               </ZoomPanBin>
              </Entry>
              <Entry key="CursorEffectBin">
               <CursorEffectBin id="791"  >
                <CursorEffectKeyframes>
                </CursorEffectKeyframes>
               </CursorEffectBin>
              </Entry>
             </ExtraData>
            </ScreenVMFile>
            <MetaData>
             <entry key="AutoAppliedSmartFocus" val="False"/>
             <entry key="WinSubProjectDisplayName" val=""/>
            </MetaData>
           </UnifiedMedia>
          </Medias>
         </GenericTrack>
        </StitchedMedia>
        <StitchedMedia id="792" start="3105" duration="36" scalar="1/1" mediaStart="4812/1" mediaDuration="36/1" minMediaStart="0/1" >
         <Transformer>
          <VectorParam id="793"  name="translation">
           <InterpolatingParam id="794" interp="linr"  time="-9999999/1" value="0" leadInLength="0/1"  interpolater="leadin-linr"  />
           <InterpolatingParam id="795" interp="linr"  time="-9999999/1" value="0" leadInLength="0/1"  interpolater="leadin-linr"  />
           <InterpolatingParam id="796" interp="linr"  time="-9999999/1" value="0" leadInLength="0/1"  interpolater="leadin-linr"  />
          </VectorParam>
          <VectorParam id="797"  name="rotation">
           <InterpolatingParam id="798" interp="linr"  time="-9999999/1" value="0" leadInLength="0/1"  interpolater="leadin-linr"  />
           <InterpolatingParam id="799" interp="linr"  time="-9999999/1" value="0" leadInLength="0/1"  interpolater="leadin-linr"  />
           <InterpolatingParam id="800" interp="linr"  time="-9999999/1" value="0" leadInLength="0/1"  interpolater="leadin-linr"  />
          </VectorParam>
          <VectorParam id="801"  name="shear">
           <InterpolatingParam id="802" interp="linr"  time="-9999999/1" value="0" leadInLength="0/1"  interpolater="leadin-linr"  />
           <InterpolatingParam id="803" interp="linr"  time="-9999999/1" value="0" leadInLength="0/1"  interpolater="leadin-linr"  />
           <InterpolatingParam id="804" interp="linr"  time="-9999999/1" value="0" leadInLength="0/1"  interpolater="leadin-linr"  />
          </VectorParam>
          <VectorParam id="805"  name="scale">
           <InterpolatingParam id="806" interp="linr"  time="-9999999/1" value="0.93704245973645683" leadInLength="0/1"  interpolater="leadin-linr"  />
           <InterpolatingParam id="807" interp="linr"  time="-9999999/1" value="0.93704245973645683" leadInLength="0/1"  interpolater="leadin-linr"  />
           <InterpolatingParam id="808" interp="linr"  time="-9999999/1" value="1" leadInLength="0/1"  interpolater="leadin-linr"  />
          </VectorParam>
          <VectorParam id="809"  name="anchor">
           <InterpolatingParam id="810" interp="linr"  time="0/1" value="0" leadInLength="0/1"  />
           <InterpolatingParam id="811" interp="linr"  time="0/1" value="0" leadInLength="0/1"  />
           <InterpolatingParam id="812" interp="linr"  time="0/1" value="0" leadInLength="0/1"  />
          </VectorParam>
         </Transformer>
         <Parameters>
          <VectorParam id="813"  name="sourceCrop">
           <InterpolatingParam id="814" interp="linr"  time="0/1" value="0" leadInLength="0/1"  />
           <InterpolatingParam id="815" interp="linr"  time="0/1" value="0" leadInLength="0/1"  />
           <InterpolatingParam id="816" interp="linr"  time="0/1" value="0" leadInLength="0/1"  />
           <InterpolatingParam id="817" interp="linr"  time="0/1" value="0" leadInLength="0/1"  />
          </VectorParam>
          <VectorParam id="818"  name="geometryCrop">
           <InterpolatingParam id="819" interp="linr"  time="-9999999/1" value="0" leadInLength="0/1"  interpolater="leadin-linr"  />
           <InterpolatingParam id="820" interp="linr"  time="-9999999/1" value="0" leadInLength="0/1"  interpolater="leadin-linr"  />
           <InterpolatingParam id="821" interp="linr"  time="-9999999/1" value="0" leadInLength="0/1"  interpolater="leadin-linr"  />
           <InterpolatingParam id="822" interp="linr"  time="-9999999/1" value="0" leadInLength="0/1"  interpolater="leadin-linr"  />
          </VectorParam>
          <InterpolatingParam id="823" interp="linr"  time="-9999999/1" value="1" leadInLength="0/1"  interpolater="leadin-linr"  name="opacity"/>
          <InterpolatingParam id="824" interp="linr"  time="0/1" value="1" leadInLength="0/1"  name="cursorOpacity"/>
          <InterpolatingParam id="825" interp="linr"  time="0/1" value="1" leadInLength="0/1"  name="cursorScale"/>
          <InterpolatingParam id="826" interp="linr"  name="volume">
           <Keyframes>
           <Keyframe id="827"  time="0/1" value="1" leadInLength="0/1"  />
           <Keyframe id="828"  time="4812/1" value="1" leadInLength="0/1"  />
           </Keyframes>
          </InterpolatingParam>
          <Parameter id="829"  name="captions"/>
         </Parameters>
         <Effects>
          <GenericEffect id="830" name = "CursorBaseEffectName" >
           <Parameters>
           <InterpolatingParam id="831" interp="linr"  time="-9999999/1" value="1" leadInLength="0/1"   name="cursorSize"/>
           <InterpolatingParam id="832" interp="linr"  time="-9999999/1" value="0" leadInLength="0/1"   name="highlightBlurRadius"/>
           <InterpolatingParam id="833" interp="linr"  time="-9999999/1" value="0" leadInLength="0/1"   name="highlightColorBlue"/>
           <InterpolatingParam id="834" interp="linr"  time="-9999999/1" value="255" leadInLength="0/1"   name="highlightColorGreen"/>
           <InterpolatingParam id="835" interp="linr"  time="-9999999/1" value="255" leadInLength="0/1"   name="highlightColorRed"/>
           <InterpolatingParam id="836" interp="linr"  time="-9999999/1" value="5" leadInLength="0/1"   name="highlightFeatherSize"/>
           <InterpolatingParam id="837" interp="linr"  time="-9999999/1" value="2" leadInLength="0/1"   name="highlightMagnification"/>
           <InterpolatingParam id="838" interp="linr"  time="-9999999/1" value="1" leadInLength="0/1"   name="highlightOpacity"/>
           <InterpolatingParam id="839" interp="linr"  time="-9999999/1" value="45" leadInLength="0/1"   name="highlightSize"/>
           <Parameter id="840"   name="highlightType">
            <Keyframes>
            <Keyframe id="841"  time="-9999999/1" value="0" leadInLength="0/1"  />
            </Keyframes>
           </Parameter>
           <InterpolatingParam id="842" interp="linr"  time="-9999999/1" value="0" leadInLength="0/1"   name="leftClickColorBlue"/>
           <InterpolatingParam id="843" interp="linr"  time="-9999999/1" value="0" leadInLength="0/1"   name="leftClickColorGreen"/>
           <InterpolatingParam id="844" interp="linr"  time="-9999999/1" value="255" leadInLength="0/1"   name="leftClickColorRed"/>
           <InterpolatingParam id="845" interp="linr"  time="-9999999/1" value="0.80000000000000004" leadInLength="0/1"   name="leftClickDuration"/>
           <InterpolatingParam id="846" interp="linr"  time="-9999999/1" value="20" leadInLength="0/1"   name="leftClickSize"/>
           <Parameter id="847"   name="leftClickSoundFilename">
            <Keyframes>
            <Keyframe id="848"  time="-9999999/1" value="" leadInLength="0/1"  />
            </Keyframes>
           </Parameter>
           <InterpolatingParam id="849" interp="linr"  time="-9999999/1" value="1" leadInLength="0/1"   name="leftClickSoundVolume"/>
           <Parameter id="850"   name="leftClickType">
            <Keyframes>
            <Keyframe id="851"  time="-9999999/1" value="0" leadInLength="0/1"  />
            </Keyframes>
           </Parameter>
           <InterpolatingParam id="852" interp="linr"  time="-9999999/1" value="1" leadInLength="0/1"   name="opacity"/>
           <InterpolatingParam id="853" interp="linr"  time="-9999999/1" value="255" leadInLength="0/1"   name="rightClickColorBlue"/>
           <InterpolatingParam id="854" interp="linr"  time="-9999999/1" value="0" leadInLength="0/1"   name="rightClickColorGreen"/>
           <InterpolatingParam id="855" interp="linr"  time="-9999999/1" value="0" leadInLength="0/1"   name="rightClickColorRed"/>
           <InterpolatingParam id="856" interp="linr"  time="-9999999/1" value="0.80000000000000004" leadInLength="0/1"   name="rightClickDuration"/>
           <InterpolatingParam id="857" interp="linr"  time="-9999999/1" value="20" leadInLength="0/1"   name="rightClickSize"/>
           <Parameter id="858"   name="rightClickSoundFilename">
            <Keyframes>
            <Keyframe id="859"  time="-9999999/1" value="" leadInLength="0/1"  />
            </Keyframes>
           </Parameter>
           <InterpolatingParam id="860" interp="linr"  time="-9999999/1" value="1" leadInLength="0/1"   name="rightClickSoundVolume"/>
           <Parameter id="861"   name="rightClickType">
            <Keyframes>
            <Keyframe id="862"  time="-9999999/1" value="0" leadInLength="0/1"  />
            </Keyframes>
           </Parameter>
           </Parameters>
           <MetaData>
            <entry key="effectIndex" val="0"/>
           </MetaData>
          </GenericEffect>
         </Effects>
         <Attributes>
          <Attribute id="863" value="" name="ident"/>
          <Attribute id="864" value="0" name="mixToMono"/>
         </Attributes>
         <MetaData>
          <entry key="AutoAppliedSmartFocus" val="False"/>
          <entry key="WinSubProjectDisplayName" val=""/>
         </MetaData>
         <ExtraData>
          <Entry key="ZoomPanBin">
           <ZoomPanBin id="865"  >
            <ZoomPanKeyframes>
             <ZoomPanKeyframe id="866" timeRangeEnd="-9999999/1" timeRangeDuration="0/1" interpolaterName="linr"  />
            </ZoomPanKeyframes>
           </ZoomPanBin>
          </Entry>
          <Entry key="CursorEffectBin">
           <CursorEffectBin id="867"  >
            <CursorEffectKeyframes>
             <CursorEffectKeyframe id="868" timeRangeEnd="-9999999/1" timeRangeDuration="0/1" interpolaterName=""  />
            </CursorEffectKeyframes>
           </CursorEffectBin>
          </Entry>
         </ExtraData>
         <GenericTrack id="869"  >
          <Attributes>
           <Attribute id="870" value="" name="ident"/>
           <Attribute id="871" value="0" name="audioMuted"/>
           <Attribute id="872" value="0" name="videoHidden"/>
          </Attributes>
          <MetaData>
           <entry key="IsLocked" val="False"/>
           <entry key="WinTrackHeight" val="0"/>
          </MetaData>
          <Medias>
           <UnifiedMedia id="873"  >
            <AMFile id="874" start="0" duration="4847" scalar="1/1" mediaStart="0/1" mediaDuration="4847/1" trackNumber="1" src="5" channelNumber="0,1" >
             <Parameters>
              <InterpolatingParam id="875" interp="linr"  time="0/1" value="1" leadInLength="0/1"  name="volume"/>
              <Parameter id="876"  name="captions"/>
             </Parameters>
             <Attributes>
              <Attribute id="877" value="" name="ident"/>
              <Attribute id="878" value="44100" name="sampleRate"/>
              <Attribute id="879" value="16" name="bitDepth"/>
              <Attribute id="880" value="1" name="gain"/>
              <Attribute id="881" value="0" name="mixToMono"/>
             </Attributes>
            </AMFile>
            <ScreenVMFile id="882" start="0" duration="4847" scalar="1/1" mediaStart="0/1" mediaDuration="4847/1" trackNumber="0" src="5" >
             <Transformer>
              <VectorParam id="883"  name="translation">
               <InterpolatingParam id="884" interp="linr"  time="-9999999/1" value="0" leadInLength="0/1"  />
               <InterpolatingParam id="885" interp="linr"  time="-9999999/1" value="0" leadInLength="0/1"  />
               <InterpolatingParam id="886" interp="linr"  time="-9999999/1" value="0" leadInLength="0/1"  />
              </VectorParam>
              <VectorParam id="887"  name="rotation">
               <InterpolatingParam id="888" interp="linr"  time="-9999999/1" value="0" leadInLength="0/1"  />
               <InterpolatingParam id="889" interp="linr"  time="-9999999/1" value="0" leadInLength="0/1"  />
               <InterpolatingParam id="890" interp="linr"  time="-9999999/1" value="0" leadInLength="0/1"  />
              </VectorParam>
              <VectorParam id="891"  name="shear">
               <InterpolatingParam id="892" interp="linr"  time="-9999999/1" value="0" leadInLength="0/1"  />
               <InterpolatingParam id="893" interp="linr"  time="-9999999/1" value="0" leadInLength="0/1"  />
               <InterpolatingParam id="894" interp="linr"  time="-9999999/1" value="0" leadInLength="0/1"  />
              </VectorParam>
              <VectorParam id="895"  name="scale">
               <InterpolatingParam id="896" interp="linr"  time="-9999999/1" value="1" leadInLength="0/1"  />
               <InterpolatingParam id="897" interp="linr"  time="-9999999/1" value="1" leadInLength="0/1"  />
               <InterpolatingParam id="898" interp="linr"  time="-9999999/1" value="1" leadInLength="0/1"  />
              </VectorParam>
              <VectorParam id="899"  name="anchor">
               <InterpolatingParam id="900" interp="linr"  time="0/1" value="0" leadInLength="0/1"  />
               <InterpolatingParam id="901" interp="linr"  time="0/1" value="0" leadInLength="0/1"  />
               <InterpolatingParam id="902" interp="linr"  time="0/1" value="0" leadInLength="0/1"  />
              </VectorParam>
             </Transformer>
             <Parameters>
              <VectorParam id="903"  name="sourceCrop">
               <InterpolatingParam id="904" interp="linr"  time="0/1" value="0" leadInLength="0/1"  />
               <InterpolatingParam id="905" interp="linr"  time="0/1" value="0" leadInLength="0/1"  />
               <InterpolatingParam id="906" interp="linr"  time="0/1" value="0" leadInLength="0/1"  />
               <InterpolatingParam id="907" interp="linr"  time="0/1" value="0" leadInLength="0/1"  />
              </VectorParam>
              <VectorParam id="908"  name="geometryCrop">
               <InterpolatingParam id="909" interp="linr"  time="-9999999/1" value="0" leadInLength="0/1"  />
               <InterpolatingParam id="910" interp="linr"  time="-9999999/1" value="0" leadInLength="0/1"  />
               <InterpolatingParam id="911" interp="linr"  time="-9999999/1" value="0" leadInLength="0/1"  />
               <InterpolatingParam id="912" interp="linr"  time="-9999999/1" value="0" leadInLength="0/1"  />
              </VectorParam>
              <InterpolatingParam id="913" interp="linr"  time="-9999999/1" value="1" leadInLength="0/1"  name="opacity"/>
              <InterpolatingParam id="914" interp="linr"  time="0/1" value="0" leadInLength="0/1"  name="cursorOpacity"/>
              <InterpolatingParam id="915" interp="linr"  time="0/1" value="0" leadInLength="0/1"  name="cursorScale"/>
             </Parameters>
             <Attributes>
              <Attribute id="916" value="" name="ident"/>
             </Attributes>
             <ExtraData>
              <Entry key="ZoomPanBin">
               <ZoomPanBin id="917"  >
                <ZoomPanKeyframes>
                </ZoomPanKeyframes>
               </ZoomPanBin>
              </Entry>
              <Entry key="CursorEffectBin">
               <CursorEffectBin id="918"  >
                <CursorEffectKeyframes>
                </CursorEffectKeyframes>
               </CursorEffectBin>
              </Entry>
             </ExtraData>
            </ScreenVMFile>
            <MetaData>
             <entry key="AutoAppliedSmartFocus" val="False"/>
             <entry key="WinSubProjectDisplayName" val=""/>
            </MetaData>
           </UnifiedMedia>
           <UnifiedMedia id="919"  >
            <AMFile id="920" start="4847" duration="30" scalar="1/1" mediaStart="4916/1" mediaDuration="30/1" trackNumber="1" src="5" channelNumber="0,1" >
             <Parameters>
              <InterpolatingParam id="921" interp="linr"  time="0/1" value="1" leadInLength="0/1"  name="volume"/>
              <Parameter id="922"  name="captions"/>
             </Parameters>
             <Attributes>
              <Attribute id="923" value="" name="ident"/>
              <Attribute id="924" value="44100" name="sampleRate"/>
              <Attribute id="925" value="16" name="bitDepth"/>
              <Attribute id="926" value="1" name="gain"/>
              <Attribute id="927" value="0" name="mixToMono"/>
             </Attributes>
            </AMFile>
            <ScreenVMFile id="928" start="4847" duration="30" scalar="1/1" mediaStart="4916/1" mediaDuration="30/1" trackNumber="0" src="5" >
             <Transformer>
              <VectorParam id="929"  name="translation">
               <InterpolatingParam id="930" interp="linr"  time="-9999999/1" value="0" leadInLength="0/1"  />
               <InterpolatingParam id="931" interp="linr"  time="-9999999/1" value="0" leadInLength="0/1"  />
               <InterpolatingParam id="932" interp="linr"  time="-9999999/1" value="0" leadInLength="0/1"  />
              </VectorParam>
              <VectorParam id="933"  name="rotation">
               <InterpolatingParam id="934" interp="linr"  time="-9999999/1" value="0" leadInLength="0/1"  />
               <InterpolatingParam id="935" interp="linr"  time="-9999999/1" value="0" leadInLength="0/1"  />
               <InterpolatingParam id="936" interp="linr"  time="-9999999/1" value="0" leadInLength="0/1"  />
              </VectorParam>
              <VectorParam id="937"  name="shear">
               <InterpolatingParam id="938" interp="linr"  time="-9999999/1" value="0" leadInLength="0/1"  />
               <InterpolatingParam id="939" interp="linr"  time="-9999999/1" value="0" leadInLength="0/1"  />
               <InterpolatingParam id="940" interp="linr"  time="-9999999/1" value="0" leadInLength="0/1"  />
              </VectorParam>
              <VectorParam id="941"  name="scale">
               <InterpolatingParam id="942" interp="linr"  time="-9999999/1" value="1" leadInLength="0/1"  />
               <InterpolatingParam id="943" interp="linr"  time="-9999999/1" value="1" leadInLength="0/1"  />
               <InterpolatingParam id="944" interp="linr"  time="-9999999/1" value="1" leadInLength="0/1"  />
              </VectorParam>
              <VectorParam id="945"  name="anchor">
               <InterpolatingParam id="946" interp="linr"  time="0/1" value="0" leadInLength="0/1"  />
               <InterpolatingParam id="947" interp="linr"  time="0/1" value="0" leadInLength="0/1"  />
               <InterpolatingParam id="948" interp="linr"  time="0/1" value="0" leadInLength="0/1"  />
              </VectorParam>
             </Transformer>
             <Parameters>
              <VectorParam id="949"  name="sourceCrop">
               <InterpolatingParam id="950" interp="linr"  time="0/1" value="0" leadInLength="0/1"  />
               <InterpolatingParam id="951" interp="linr"  time="0/1" value="0" leadInLength="0/1"  />
               <InterpolatingParam id="952" interp="linr"  time="0/1" value="0" leadInLength="0/1"  />
               <InterpolatingParam id="953" interp="linr"  time="0/1" value="0" leadInLength="0/1"  />
              </VectorParam>
              <VectorParam id="954"  name="geometryCrop">
               <InterpolatingParam id="955" interp="linr"  time="-9999999/1" value="0" leadInLength="0/1"  />
               <InterpolatingParam id="956" interp="linr"  time="-9999999/1" value="0" leadInLength="0/1"  />
               <InterpolatingParam id="957" interp="linr"  time="-9999999/1" value="0" leadInLength="0/1"  />
               <InterpolatingParam id="958" interp="linr"  time="-9999999/1" value="0" leadInLength="0/1"  />
              </VectorParam>
              <InterpolatingParam id="959" interp="linr"  time="-9999999/1" value="1" leadInLength="0/1"  name="opacity"/>
              <InterpolatingParam id="960" interp="linr"  time="0/1" value="0" leadInLength="0/1"  name="cursorOpacity"/>
              <InterpolatingParam id="961" interp="linr"  time="0/1" value="0" leadInLength="0/1"  name="cursorScale"/>
             </Parameters>
             <Attributes>
              <Attribute id="962" value="" name="ident"/>
             </Attributes>
             <ExtraData>
              <Entry key="ZoomPanBin">
               <ZoomPanBin id="963"  >
                <ZoomPanKeyframes>
                </ZoomPanKeyframes>
               </ZoomPanBin>
              </Entry>
              <Entry key="CursorEffectBin">
               <CursorEffectBin id="964"  >
                <CursorEffectKeyframes>
                </CursorEffectKeyframes>
               </CursorEffectBin>
              </Entry>
             </ExtraData>
            </ScreenVMFile>
            <MetaData>
             <entry key="AutoAppliedSmartFocus" val="False"/>
             <entry key="WinSubProjectDisplayName" val=""/>
            </MetaData>
           </UnifiedMedia>
           <UnifiedMedia id="965"  >
            <AMFile id="966" start="4877" duration="287" scalar="1/1" mediaStart="4963/1" mediaDuration="287/1" trackNumber="1" src="5" channelNumber="0,1" >
             <Parameters>
              <InterpolatingParam id="967" interp="linr"  time="0/1" value="1" leadInLength="0/1"  name="volume"/>
              <Parameter id="968"  name="captions"/>
             </Parameters>
             <Attributes>
              <Attribute id="969" value="" name="ident"/>
              <Attribute id="970" value="44100" name="sampleRate"/>
              <Attribute id="971" value="16" name="bitDepth"/>
              <Attribute id="972" value="1" name="gain"/>
              <Attribute id="973" value="0" name="mixToMono"/>
             </Attributes>
            </AMFile>
            <ScreenVMFile id="974" start="4877" duration="287" scalar="1/1" mediaStart="4963/1" mediaDuration="287/1" trackNumber="0" src="5" >
             <Transformer>
              <VectorParam id="975"  name="translation">
               <InterpolatingParam id="976" interp="linr"  time="-9999999/1" value="0" leadInLength="0/1"  />
               <InterpolatingParam id="977" interp="linr"  time="-9999999/1" value="0" leadInLength="0/1"  />
               <InterpolatingParam id="978" interp="linr"  time="-9999999/1" value="0" leadInLength="0/1"  />
              </VectorParam>
              <VectorParam id="979"  name="rotation">
               <InterpolatingParam id="980" interp="linr"  time="-9999999/1" value="0" leadInLength="0/1"  />
               <InterpolatingParam id="981" interp="linr"  time="-9999999/1" value="0" leadInLength="0/1"  />
               <InterpolatingParam id="982" interp="linr"  time="-9999999/1" value="0" leadInLength="0/1"  />
              </VectorParam>
              <VectorParam id="983"  name="shear">
               <InterpolatingParam id="984" interp="linr"  time="-9999999/1" value="0" leadInLength="0/1"  />
               <InterpolatingParam id="985" interp="linr"  time="-9999999/1" value="0" leadInLength="0/1"  />
               <InterpolatingParam id="986" interp="linr"  time="-9999999/1" value="0" leadInLength="0/1"  />
              </VectorParam>
              <VectorParam id="987"  name="scale">
               <InterpolatingParam id="988" interp="linr"  time="-9999999/1" value="1" leadInLength="0/1"  />
               <InterpolatingParam id="989" interp="linr"  time="-9999999/1" value="1" leadInLength="0/1"  />
               <InterpolatingParam id="990" interp="linr"  time="-9999999/1" value="1" leadInLength="0/1"  />
              </VectorParam>
              <VectorParam id="991"  name="anchor">
               <InterpolatingParam id="992" interp="linr"  time="0/1" value="0" leadInLength="0/1"  />
               <InterpolatingParam id="993" interp="linr"  time="0/1" value="0" leadInLength="0/1"  />
               <InterpolatingParam id="994" interp="linr"  time="0/1" value="0" leadInLength="0/1"  />
              </VectorParam>
             </Transformer>
             <Parameters>
              <VectorParam id="995"  name="sourceCrop">
               <InterpolatingParam id="996" interp="linr"  time="0/1" value="0" leadInLength="0/1"  />
               <InterpolatingParam id="997" interp="linr"  time="0/1" value="0" leadInLength="0/1"  />
               <InterpolatingParam id="998" interp="linr"  time="0/1" value="0" leadInLength="0/1"  />
               <InterpolatingParam id="999" interp="linr"  time="0/1" value="0" leadInLength="0/1"  />
              </VectorParam>
              <VectorParam id="1000"  name="geometryCrop">
               <InterpolatingParam id="1001" interp="linr"  time="-9999999/1" value="0" leadInLength="0/1"  />
               <InterpolatingParam id="1002" interp="linr"  time="-9999999/1" value="0" leadInLength="0/1"  />
               <InterpolatingParam id="1003" interp="linr"  time="-9999999/1" value="0" leadInLength="0/1"  />
               <InterpolatingParam id="1004" interp="linr"  time="-9999999/1" value="0" leadInLength="0/1"  />
              </VectorParam>
              <InterpolatingParam id="1005" interp="linr"  time="-9999999/1" value="1" leadInLength="0/1"  name="opacity"/>
              <InterpolatingParam id="1006" interp="linr"  time="0/1" value="0" leadInLength="0/1"  name="cursorOpacity"/>
              <InterpolatingParam id="1007" interp="linr"  time="0/1" value="0" leadInLength="0/1"  name="cursorScale"/>
             </Parameters>
             <Attributes>
              <Attribute id="1008" value="" name="ident"/>
             </Attributes>
             <ExtraData>
              <Entry key="ZoomPanBin">
               <ZoomPanBin id="1009"  >
                <ZoomPanKeyframes>
                </ZoomPanKeyframes>
               </ZoomPanBin>
              </Entry>
              <Entry key="CursorEffectBin">
               <CursorEffectBin id="1010"  >
                <CursorEffectKeyframes>
                </CursorEffectKeyframes>
               </CursorEffectBin>
              </Entry>
             </ExtraData>
            </ScreenVMFile>
            <MetaData>
             <entry key="AutoAppliedSmartFocus" val="False"/>
             <entry key="WinSubProjectDisplayName" val=""/>
            </MetaData>
           </UnifiedMedia>
           <UnifiedMedia id="1011"  >
            <AMFile id="1012" start="5164" duration="253" scalar="1/1" mediaStart="5271/1" mediaDuration="253/1" trackNumber="1" src="5" channelNumber="0,1" >
             <Parameters>
              <InterpolatingParam id="1013" interp="linr"  time="0/1" value="1" leadInLength="0/1"  name="volume"/>
              <Parameter id="1014"  name="captions"/>
             </Parameters>
             <Attributes>
              <Attribute id="1015" value="" name="ident"/>
              <Attribute id="1016" value="44100" name="sampleRate"/>
              <Attribute id="1017" value="16" name="bitDepth"/>
              <Attribute id="1018" value="1" name="gain"/>
              <Attribute id="1019" value="0" name="mixToMono"/>
             </Attributes>
            </AMFile>
            <ScreenVMFile id="1020" start="5164" duration="253" scalar="1/1" mediaStart="5271/1" mediaDuration="253/1" trackNumber="0" src="5" >
             <Transformer>
              <VectorParam id="1021"  name="translation">
               <InterpolatingParam id="1022" interp="linr"  time="-9999999/1" value="0" leadInLength="0/1"  />
               <InterpolatingParam id="1023" interp="linr"  time="-9999999/1" value="0" leadInLength="0/1"  />
               <InterpolatingParam id="1024" interp="linr"  time="-9999999/1" value="0" leadInLength="0/1"  />
              </VectorParam>
              <VectorParam id="1025"  name="rotation">
               <InterpolatingParam id="1026" interp="linr"  time="-9999999/1" value="0" leadInLength="0/1"  />
               <InterpolatingParam id="1027" interp="linr"  time="-9999999/1" value="0" leadInLength="0/1"  />
               <InterpolatingParam id="1028" interp="linr"  time="-9999999/1" value="0" leadInLength="0/1"  />
              </VectorParam>
              <VectorParam id="1029"  name="shear">
               <InterpolatingParam id="1030" interp="linr"  time="-9999999/1" value="0" leadInLength="0/1"  />
               <InterpolatingParam id="1031" interp="linr"  time="-9999999/1" value="0" leadInLength="0/1"  />
               <InterpolatingParam id="1032" interp="linr"  time="-9999999/1" value="0" leadInLength="0/1"  />
              </VectorParam>
              <VectorParam id="1033"  name="scale">
               <InterpolatingParam id="1034" interp="linr"  time="-9999999/1" value="1" leadInLength="0/1"  />
               <InterpolatingParam id="1035" interp="linr"  time="-9999999/1" value="1" leadInLength="0/1"  />
               <InterpolatingParam id="1036" interp="linr"  time="-9999999/1" value="1" leadInLength="0/1"  />
              </VectorParam>
              <VectorParam id="1037"  name="anchor">
               <InterpolatingParam id="1038" interp="linr"  time="0/1" value="0" leadInLength="0/1"  />
               <InterpolatingParam id="1039" interp="linr"  time="0/1" value="0" leadInLength="0/1"  />
               <InterpolatingParam id="1040" interp="linr"  time="0/1" value="0" leadInLength="0/1"  />
              </VectorParam>
             </Transformer>
             <Parameters>
              <VectorParam id="1041"  name="sourceCrop">
               <InterpolatingParam id="1042" interp="linr"  time="0/1" value="0" leadInLength="0/1"  />
               <InterpolatingParam id="1043" interp="linr"  time="0/1" value="0" leadInLength="0/1"  />
               <InterpolatingParam id="1044" interp="linr"  time="0/1" value="0" leadInLength="0/1"  />
               <InterpolatingParam id="1045" interp="linr"  time="0/1" value="0" leadInLength="0/1"  />
              </VectorParam>
              <VectorParam id="1046"  name="geometryCrop">
               <InterpolatingParam id="1047" interp="linr"  time="-9999999/1" value="0" leadInLength="0/1"  />
               <InterpolatingParam id="1048" interp="linr"  time="-9999999/1" value="0" leadInLength="0/1"  />
               <InterpolatingParam id="1049" interp="linr"  time="-9999999/1" value="0" leadInLength="0/1"  />
               <InterpolatingParam id="1050" interp="linr"  time="-9999999/1" value="0" leadInLength="0/1"  />
              </VectorParam>
              <InterpolatingParam id="1051" interp="linr"  time="-9999999/1" value="1" leadInLength="0/1"  name="opacity"/>
              <InterpolatingParam id="1052" interp="linr"  time="0/1" value="0" leadInLength="0/1"  name="cursorOpacity"/>
              <InterpolatingParam id="1053" interp="linr"  time="0/1" value="0" leadInLength="0/1"  name="cursorScale"/>
             </Parameters>
             <Attributes>
              <Attribute id="1054" value="" name="ident"/>
             </Attributes>
             <ExtraData>
              <Entry key="ZoomPanBin">
               <ZoomPanBin id="1055"  >
                <ZoomPanKeyframes>
                </ZoomPanKeyframes>
               </ZoomPanBin>
              </Entry>
              <Entry key="CursorEffectBin">
               <CursorEffectBin id="1056"  >
                <CursorEffectKeyframes>
                </CursorEffectKeyframes>
               </CursorEffectBin>
              </Entry>
             </ExtraData>
            </ScreenVMFile>
            <MetaData>
             <entry key="AutoAppliedSmartFocus" val="False"/>
             <entry key="WinSubProjectDisplayName" val=""/>
            </MetaData>
           </UnifiedMedia>
           <UnifiedMedia id="1057"  >
            <AMFile id="1058" start="5417" duration="237" scalar="1/1" mediaStart="5576/1" mediaDuration="237/1" trackNumber="1" src="5" channelNumber="0,1" >
             <Parameters>
              <InterpolatingParam id="1059" interp="linr"  time="0/1" value="1" leadInLength="0/1"  name="volume"/>
              <Parameter id="1060"  name="captions"/>
             </Parameters>
             <Attributes>
              <Attribute id="1061" value="" name="ident"/>
              <Attribute id="1062" value="44100" name="sampleRate"/>
              <Attribute id="1063" value="16" name="bitDepth"/>
              <Attribute id="1064" value="1" name="gain"/>
              <Attribute id="1065" value="0" name="mixToMono"/>
             </Attributes>
            </AMFile>
            <ScreenVMFile id="1066" start="5417" duration="237" scalar="1/1" mediaStart="5576/1" mediaDuration="237/1" trackNumber="0" src="5" >
             <Transformer>
              <VectorParam id="1067"  name="translation">
               <InterpolatingParam id="1068" interp="linr"  time="-9999999/1" value="0" leadInLength="0/1"  />
               <InterpolatingParam id="1069" interp="linr"  time="-9999999/1" value="0" leadInLength="0/1"  />
               <InterpolatingParam id="1070" interp="linr"  time="-9999999/1" value="0" leadInLength="0/1"  />
              </VectorParam>
              <VectorParam id="1071"  name="rotation">
               <InterpolatingParam id="1072" interp="linr"  time="-9999999/1" value="0" leadInLength="0/1"  />
               <InterpolatingParam id="1073" interp="linr"  time="-9999999/1" value="0" leadInLength="0/1"  />
               <InterpolatingParam id="1074" interp="linr"  time="-9999999/1" value="0" leadInLength="0/1"  />
              </VectorParam>
              <VectorParam id="1075"  name="shear">
               <InterpolatingParam id="1076" interp="linr"  time="-9999999/1" value="0" leadInLength="0/1"  />
               <InterpolatingParam id="1077" interp="linr"  time="-9999999/1" value="0" leadInLength="0/1"  />
               <InterpolatingParam id="1078" interp="linr"  time="-9999999/1" value="0" leadInLength="0/1"  />
              </VectorParam>
              <VectorParam id="1079"  name="scale">
               <InterpolatingParam id="1080" interp="linr"  time="-9999999/1" value="1" leadInLength="0/1"  />
               <InterpolatingParam id="1081" interp="linr"  time="-9999999/1" value="1" leadInLength="0/1"  />
               <InterpolatingParam id="1082" interp="linr"  time="-9999999/1" value="1" leadInLength="0/1"  />
              </VectorParam>
              <VectorParam id="1083"  name="anchor">
               <InterpolatingParam id="1084" interp="linr"  time="0/1" value="0" leadInLength="0/1"  />
               <InterpolatingParam id="1085" interp="linr"  time="0/1" value="0" leadInLength="0/1"  />
               <InterpolatingParam id="1086" interp="linr"  time="0/1" value="0" leadInLength="0/1"  />
              </VectorParam>
             </Transformer>
             <Parameters>
              <VectorParam id="1087"  name="sourceCrop">
               <InterpolatingParam id="1088" interp="linr"  time="0/1" value="0" leadInLength="0/1"  />
               <InterpolatingParam id="1089" interp="linr"  time="0/1" value="0" leadInLength="0/1"  />
               <InterpolatingParam id="1090" interp="linr"  time="0/1" value="0" leadInLength="0/1"  />
               <InterpolatingParam id="1091" interp="linr"  time="0/1" value="0" leadInLength="0/1"  />
              </VectorParam>
              <VectorParam id="1092"  name="geometryCrop">
               <InterpolatingParam id="1093" interp="linr"  time="-9999999/1" value="0" leadInLength="0/1"  />
               <InterpolatingParam id="1094" interp="linr"  time="-9999999/1" value="0" leadInLength="0/1"  />
               <InterpolatingParam id="1095" interp="linr"  time="-9999999/1" value="0" leadInLength="0/1"  />
               <InterpolatingParam id="1096" interp="linr"  time="-9999999/1" value="0" leadInLength="0/1"  />
              </VectorParam>
              <InterpolatingParam id="1097" interp="linr"  time="-9999999/1" value="1" leadInLength="0/1"  name="opacity"/>
              <InterpolatingParam id="1098" interp="linr"  time="0/1" value="0" leadInLength="0/1"  name="cursorOpacity"/>
              <InterpolatingParam id="1099" interp="linr"  time="0/1" value="0" leadInLength="0/1"  name="cursorScale"/>
             </Parameters>
             <Attributes>
              <Attribute id="1100" value="" name="ident"/>
             </Attributes>
             <ExtraData>
              <Entry key="ZoomPanBin">
               <ZoomPanBin id="1101"  >
                <ZoomPanKeyframes>
                </ZoomPanKeyframes>
               </ZoomPanBin>
              </Entry>
              <Entry key="CursorEffectBin">
               <CursorEffectBin id="1102"  >
                <CursorEffectKeyframes>
                </CursorEffectKeyframes>
               </CursorEffectBin>
              </Entry>
             </ExtraData>
            </ScreenVMFile>
            <MetaData>
             <entry key="AutoAppliedSmartFocus" val="False"/>
             <entry key="WinSubProjectDisplayName" val=""/>
            </MetaData>
           </UnifiedMedia>
           <UnifiedMedia id="1103"  >
            <AMFile id="1104" start="5654" duration="161" scalar="1/1" mediaStart="5827/1" mediaDuration="161/1" trackNumber="1" src="5" channelNumber="0,1" >
             <Parameters>
              <InterpolatingParam id="1105" interp="linr"  time="0/1" value="1" leadInLength="0/1"  name="volume"/>
              <Parameter id="1106"  name="captions"/>
             </Parameters>
             <Attributes>
              <Attribute id="1107" value="" name="ident"/>
              <Attribute id="1108" value="44100" name="sampleRate"/>
              <Attribute id="1109" value="16" name="bitDepth"/>
              <Attribute id="1110" value="1" name="gain"/>
              <Attribute id="1111" value="0" name="mixToMono"/>
             </Attributes>
            </AMFile>
            <ScreenVMFile id="1112" start="5654" duration="161" scalar="1/1" mediaStart="5827/1" mediaDuration="161/1" trackNumber="0" src="5" >
             <Transformer>
              <VectorParam id="1113"  name="translation">
               <InterpolatingParam id="1114" interp="linr"  time="-9999999/1" value="0" leadInLength="0/1"  />
               <InterpolatingParam id="1115" interp="linr"  time="-9999999/1" value="0" leadInLength="0/1"  />
               <InterpolatingParam id="1116" interp="linr"  time="-9999999/1" value="0" leadInLength="0/1"  />
              </VectorParam>
              <VectorParam id="1117"  name="rotation">
               <InterpolatingParam id="1118" interp="linr"  time="-9999999/1" value="0" leadInLength="0/1"  />
               <InterpolatingParam id="1119" interp="linr"  time="-9999999/1" value="0" leadInLength="0/1"  />
               <InterpolatingParam id="1120" interp="linr"  time="-9999999/1" value="0" leadInLength="0/1"  />
              </VectorParam>
              <VectorParam id="1121"  name="shear">
               <InterpolatingParam id="1122" interp="linr"  time="-9999999/1" value="0" leadInLength="0/1"  />
               <InterpolatingParam id="1123" interp="linr"  time="-9999999/1" value="0" leadInLength="0/1"  />
               <InterpolatingParam id="1124" interp="linr"  time="-9999999/1" value="0" leadInLength="0/1"  />
              </VectorParam>
              <VectorParam id="1125"  name="scale">
               <InterpolatingParam id="1126" interp="linr"  time="-9999999/1" value="1" leadInLength="0/1"  />
               <InterpolatingParam id="1127" interp="linr"  time="-9999999/1" value="1" leadInLength="0/1"  />
               <InterpolatingParam id="1128" interp="linr"  time="-9999999/1" value="1" leadInLength="0/1"  />
              </VectorParam>
              <VectorParam id="1129"  name="anchor">
               <InterpolatingParam id="1130" interp="linr"  time="0/1" value="0" leadInLength="0/1"  />
               <InterpolatingParam id="1131" interp="linr"  time="0/1" value="0" leadInLength="0/1"  />
               <InterpolatingParam id="1132" interp="linr"  time="0/1" value="0" leadInLength="0/1"  />
              </VectorParam>
             </Transformer>
             <Parameters>
              <VectorParam id="1133"  name="sourceCrop">
               <InterpolatingParam id="1134" interp="linr"  time="0/1" value="0" leadInLength="0/1"  />
               <InterpolatingParam id="1135" interp="linr"  time="0/1" value="0" leadInLength="0/1"  />
               <InterpolatingParam id="1136" interp="linr"  time="0/1" value="0" leadInLength="0/1"  />
               <InterpolatingParam id="1137" interp="linr"  time="0/1" value="0" leadInLength="0/1"  />
              </VectorParam>
              <VectorParam id="1138"  name="geometryCrop">
               <InterpolatingParam id="1139" interp="linr"  time="-9999999/1" value="0" leadInLength="0/1"  />
               <InterpolatingParam id="1140" interp="linr"  time="-9999999/1" value="0" leadInLength="0/1"  />
               <InterpolatingParam id="1141" interp="linr"  time="-9999999/1" value="0" leadInLength="0/1"  />
               <InterpolatingParam id="1142" interp="linr"  time="-9999999/1" value="0" leadInLength="0/1"  />
              </VectorParam>
              <InterpolatingParam id="1143" interp="linr"  time="-9999999/1" value="1" leadInLength="0/1"  name="opacity"/>
              <InterpolatingParam id="1144" interp="linr"  time="0/1" value="0" leadInLength="0/1"  name="cursorOpacity"/>
              <InterpolatingParam id="1145" interp="linr"  time="0/1" value="0" leadInLength="0/1"  name="cursorScale"/>
             </Parameters>
             <Attributes>
              <Attribute id="1146" value="" name="ident"/>
             </Attributes>
             <ExtraData>
              <Entry key="ZoomPanBin">
               <ZoomPanBin id="1147"  >
                <ZoomPanKeyframes>
                </ZoomPanKeyframes>
               </ZoomPanBin>
              </Entry>
              <Entry key="CursorEffectBin">
               <CursorEffectBin id="1148"  >
                <CursorEffectKeyframes>
                </CursorEffectKeyframes>
               </CursorEffectBin>
              </Entry>
             </ExtraData>
            </ScreenVMFile>
            <MetaData>
             <entry key="AutoAppliedSmartFocus" val="False"/>
             <entry key="WinSubProjectDisplayName" val=""/>
            </MetaData>
           </UnifiedMedia>
           <UnifiedMedia id="1149"  >
            <AMFile id="1150" start="5815" duration="502" scalar="1/1" mediaStart="6040/1" mediaDuration="502/1" trackNumber="1" src="5" channelNumber="0,1" >
             <Parameters>
              <InterpolatingParam id="1151" interp="linr"  time="0/1" value="1" leadInLength="0/1"  name="volume"/>
              <Parameter id="1152"  name="captions"/>
             </Parameters>
             <Attributes>
              <Attribute id="1153" value="" name="ident"/>
              <Attribute id="1154" value="44100" name="sampleRate"/>
              <Attribute id="1155" value="16" name="bitDepth"/>
              <Attribute id="1156" value="1" name="gain"/>
              <Attribute id="1157" value="0" name="mixToMono"/>
             </Attributes>
            </AMFile>
            <ScreenVMFile id="1158" start="5815" duration="502" scalar="1/1" mediaStart="6040/1" mediaDuration="502/1" trackNumber="0" src="5" >
             <Transformer>
              <VectorParam id="1159"  name="translation">
               <InterpolatingParam id="1160" interp="linr"  time="-9999999/1" value="0" leadInLength="0/1"  />
               <InterpolatingParam id="1161" interp="linr"  time="-9999999/1" value="0" leadInLength="0/1"  />
               <InterpolatingParam id="1162" interp="linr"  time="-9999999/1" value="0" leadInLength="0/1"  />
              </VectorParam>
              <VectorParam id="1163"  name="rotation">
               <InterpolatingParam id="1164" interp="linr"  time="-9999999/1" value="0" leadInLength="0/1"  />
               <InterpolatingParam id="1165" interp="linr"  time="-9999999/1" value="0" leadInLength="0/1"  />
               <InterpolatingParam id="1166" interp="linr"  time="-9999999/1" value="0" leadInLength="0/1"  />
              </VectorParam>
              <VectorParam id="1167"  name="shear">
               <InterpolatingParam id="1168" interp="linr"  time="-9999999/1" value="0" leadInLength="0/1"  />
               <InterpolatingParam id="1169" interp="linr"  time="-9999999/1" value="0" leadInLength="0/1"  />
               <InterpolatingParam id="1170" interp="linr"  time="-9999999/1" value="0" leadInLength="0/1"  />
              </VectorParam>
              <VectorParam id="1171"  name="scale">
               <InterpolatingParam id="1172" interp="linr"  time="-9999999/1" value="1" leadInLength="0/1"  />
               <InterpolatingParam id="1173" interp="linr"  time="-9999999/1" value="1" leadInLength="0/1"  />
               <InterpolatingParam id="1174" interp="linr"  time="-9999999/1" value="1" leadInLength="0/1"  />
              </VectorParam>
              <VectorParam id="1175"  name="anchor">
               <InterpolatingParam id="1176" interp="linr"  time="0/1" value="0" leadInLength="0/1"  />
               <InterpolatingParam id="1177" interp="linr"  time="0/1" value="0" leadInLength="0/1"  />
               <InterpolatingParam id="1178" interp="linr"  time="0/1" value="0" leadInLength="0/1"  />
              </VectorParam>
             </Transformer>
             <Parameters>
              <VectorParam id="1179"  name="sourceCrop">
               <InterpolatingParam id="1180" interp="linr"  time="0/1" value="0" leadInLength="0/1"  />
               <InterpolatingParam id="1181" interp="linr"  time="0/1" value="0" leadInLength="0/1"  />
               <InterpolatingParam id="1182" interp="linr"  time="0/1" value="0" leadInLength="0/1"  />
               <InterpolatingParam id="1183" interp="linr"  time="0/1" value="0" leadInLength="0/1"  />
              </VectorParam>
              <VectorParam id="1184"  name="geometryCrop">
               <InterpolatingParam id="1185" interp="linr"  time="-9999999/1" value="0" leadInLength="0/1"  />
               <InterpolatingParam id="1186" interp="linr"  time="-9999999/1" value="0" leadInLength="0/1"  />
               <InterpolatingParam id="1187" interp="linr"  time="-9999999/1" value="0" leadInLength="0/1"  />
               <InterpolatingParam id="1188" interp="linr"  time="-9999999/1" value="0" leadInLength="0/1"  />
              </VectorParam>
              <InterpolatingParam id="1189" interp="linr"  time="-9999999/1" value="1" leadInLength="0/1"  name="opacity"/>
              <InterpolatingParam id="1190" interp="linr"  time="0/1" value="0" leadInLength="0/1"  name="cursorOpacity"/>
              <InterpolatingParam id="1191" interp="linr"  time="0/1" value="0" leadInLength="0/1"  name="cursorScale"/>
             </Parameters>
             <Attributes>
              <Attribute id="1192" value="" name="ident"/>
             </Attributes>
             <ExtraData>
              <Entry key="ZoomPanBin">
               <ZoomPanBin id="1193"  >
                <ZoomPanKeyframes>
                </ZoomPanKeyframes>
               </ZoomPanBin>
              </Entry>
              <Entry key="CursorEffectBin">
               <CursorEffectBin id="1194"  >
                <CursorEffectKeyframes>
                </CursorEffectKeyframes>
               </CursorEffectBin>
              </Entry>
             </ExtraData>
            </ScreenVMFile>
            <MetaData>
             <entry key="AutoAppliedSmartFocus" val="False"/>
             <entry key="WinSubProjectDisplayName" val=""/>
            </MetaData>
           </UnifiedMedia>
           <UnifiedMedia id="1195"  >
            <AMFile id="1196" start="6317" duration="590" scalar="1/1" mediaStart="6564/1" mediaDuration="590/1" trackNumber="1" src="5" channelNumber="0,1" >
             <Parameters>
              <InterpolatingParam id="1197" interp="linr"  time="0/1" value="1" leadInLength="0/1"  name="volume"/>
              <Parameter id="1198"  name="captions"/>
             </Parameters>
             <Attributes>
              <Attribute id="1199" value="" name="ident"/>
              <Attribute id="1200" value="44100" name="sampleRate"/>
              <Attribute id="1201" value="16" name="bitDepth"/>
              <Attribute id="1202" value="1" name="gain"/>
              <Attribute id="1203" value="0" name="mixToMono"/>
             </Attributes>
            </AMFile>
            <ScreenVMFile id="1204" start="6317" duration="590" scalar="1/1" mediaStart="6564/1" mediaDuration="590/1" trackNumber="0" src="5" >
             <Transformer>
              <VectorParam id="1205"  name="translation">
               <InterpolatingParam id="1206" interp="linr"  time="-9999999/1" value="0" leadInLength="0/1"  />
               <InterpolatingParam id="1207" interp="linr"  time="-9999999/1" value="0" leadInLength="0/1"  />
               <InterpolatingParam id="1208" interp="linr"  time="-9999999/1" value="0" leadInLength="0/1"  />
              </VectorParam>
              <VectorParam id="1209"  name="rotation">
               <InterpolatingParam id="1210" interp="linr"  time="-9999999/1" value="0" leadInLength="0/1"  />
               <InterpolatingParam id="1211" interp="linr"  time="-9999999/1" value="0" leadInLength="0/1"  />
               <InterpolatingParam id="1212" interp="linr"  time="-9999999/1" value="0" leadInLength="0/1"  />
              </VectorParam>
              <VectorParam id="1213"  name="shear">
               <InterpolatingParam id="1214" interp="linr"  time="-9999999/1" value="0" leadInLength="0/1"  />
               <InterpolatingParam id="1215" interp="linr"  time="-9999999/1" value="0" leadInLength="0/1"  />
               <InterpolatingParam id="1216" interp="linr"  time="-9999999/1" value="0" leadInLength="0/1"  />
              </VectorParam>
              <VectorParam id="1217"  name="scale">
               <InterpolatingParam id="1218" interp="linr"  time="-9999999/1" value="1" leadInLength="0/1"  />
               <InterpolatingParam id="1219" interp="linr"  time="-9999999/1" value="1" leadInLength="0/1"  />
               <InterpolatingParam id="1220" interp="linr"  time="-9999999/1" value="1" leadInLength="0/1"  />
              </VectorParam>
              <VectorParam id="1221"  name="anchor">
               <InterpolatingParam id="1222" interp="linr"  time="0/1" value="0" leadInLength="0/1"  />
               <InterpolatingParam id="1223" interp="linr"  time="0/1" value="0" leadInLength="0/1"  />
               <InterpolatingParam id="1224" interp="linr"  time="0/1" value="0" leadInLength="0/1"  />
              </VectorParam>
             </Transformer>
             <Parameters>
              <VectorParam id="1225"  name="sourceCrop">
               <InterpolatingParam id="1226" interp="linr"  time="0/1" value="0" leadInLength="0/1"  />
               <InterpolatingParam id="1227" interp="linr"  time="0/1" value="0" leadInLength="0/1"  />
               <InterpolatingParam id="1228" interp="linr"  time="0/1" value="0" leadInLength="0/1"  />
               <InterpolatingParam id="1229" interp="linr"  time="0/1" value="0" leadInLength="0/1"  />
              </VectorParam>
              <VectorParam id="1230"  name="geometryCrop">
               <InterpolatingParam id="1231" interp="linr"  time="-9999999/1" value="0" leadInLength="0/1"  />
               <InterpolatingParam id="1232" interp="linr"  time="-9999999/1" value="0" leadInLength="0/1"  />
               <InterpolatingParam id="1233" interp="linr"  time="-9999999/1" value="0" leadInLength="0/1"  />
               <InterpolatingParam id="1234" interp="linr"  time="-9999999/1" value="0" leadInLength="0/1"  />
              </VectorParam>
              <InterpolatingParam id="1235" interp="linr"  time="-9999999/1" value="1" leadInLength="0/1"  name="opacity"/>
              <InterpolatingParam id="1236" interp="linr"  time="0/1" value="0" leadInLength="0/1"  name="cursorOpacity"/>
              <InterpolatingParam id="1237" interp="linr"  time="0/1" value="0" leadInLength="0/1"  name="cursorScale"/>
             </Parameters>
             <Attributes>
              <Attribute id="1238" value="" name="ident"/>
             </Attributes>
             <ExtraData>
              <Entry key="ZoomPanBin">
               <ZoomPanBin id="1239"  >
                <ZoomPanKeyframes>
                </ZoomPanKeyframes>
               </ZoomPanBin>
              </Entry>
              <Entry key="CursorEffectBin">
               <CursorEffectBin id="1240"  >
                <CursorEffectKeyframes>
                </CursorEffectKeyframes>
               </CursorEffectBin>
              </Entry>
             </ExtraData>
            </ScreenVMFile>
            <MetaData>
             <entry key="AutoAppliedSmartFocus" val="False"/>
             <entry key="WinSubProjectDisplayName" val=""/>
            </MetaData>
           </UnifiedMedia>
           <UnifiedMedia id="1241"  >
            <AMFile id="1242" start="6907" duration="77" scalar="1/1" mediaStart="7186/1" mediaDuration="77/1" trackNumber="1" src="5" channelNumber="0,1" >
             <Parameters>
              <InterpolatingParam id="1243" interp="linr"  time="0/1" value="1" leadInLength="0/1"  name="volume"/>
              <Parameter id="1244"  name="captions"/>
             </Parameters>
             <Attributes>
              <Attribute id="1245" value="" name="ident"/>
              <Attribute id="1246" value="44100" name="sampleRate"/>
              <Attribute id="1247" value="16" name="bitDepth"/>
              <Attribute id="1248" value="1" name="gain"/>
              <Attribute id="1249" value="0" name="mixToMono"/>
             </Attributes>
            </AMFile>
            <ScreenVMFile id="1250" start="6907" duration="77" scalar="1/1" mediaStart="7186/1" mediaDuration="77/1" trackNumber="0" src="5" >
             <Transformer>
              <VectorParam id="1251"  name="translation">
               <InterpolatingParam id="1252" interp="linr"  time="-9999999/1" value="0" leadInLength="0/1"  />
               <InterpolatingParam id="1253" interp="linr"  time="-9999999/1" value="0" leadInLength="0/1"  />
               <InterpolatingParam id="1254" interp="linr"  time="-9999999/1" value="0" leadInLength="0/1"  />
              </VectorParam>
              <VectorParam id="1255"  name="rotation">
               <InterpolatingParam id="1256" interp="linr"  time="-9999999/1" value="0" leadInLength="0/1"  />
               <InterpolatingParam id="1257" interp="linr"  time="-9999999/1" value="0" leadInLength="0/1"  />
               <InterpolatingParam id="1258" interp="linr"  time="-9999999/1" value="0" leadInLength="0/1"  />
              </VectorParam>
              <VectorParam id="1259"  name="shear">
               <InterpolatingParam id="1260" interp="linr"  time="-9999999/1" value="0" leadInLength="0/1"  />
               <InterpolatingParam id="1261" interp="linr"  time="-9999999/1" value="0" leadInLength="0/1"  />
               <InterpolatingParam id="1262" interp="linr"  time="-9999999/1" value="0" leadInLength="0/1"  />
              </VectorParam>
              <VectorParam id="1263"  name="scale">
               <InterpolatingParam id="1264" interp="linr"  time="-9999999/1" value="1" leadInLength="0/1"  />
               <InterpolatingParam id="1265" interp="linr"  time="-9999999/1" value="1" leadInLength="0/1"  />
               <InterpolatingParam id="1266" interp="linr"  time="-9999999/1" value="1" leadInLength="0/1"  />
              </VectorParam>
              <VectorParam id="1267"  name="anchor">
               <InterpolatingParam id="1268" interp="linr"  time="0/1" value="0" leadInLength="0/1"  />
               <InterpolatingParam id="1269" interp="linr"  time="0/1" value="0" leadInLength="0/1"  />
               <InterpolatingParam id="1270" interp="linr"  time="0/1" value="0" leadInLength="0/1"  />
              </VectorParam>
             </Transformer>
             <Parameters>
              <VectorParam id="1271"  name="sourceCrop">
               <InterpolatingParam id="1272" interp="linr"  time="0/1" value="0" leadInLength="0/1"  />
               <InterpolatingParam id="1273" interp="linr"  time="0/1" value="0" leadInLength="0/1"  />
               <InterpolatingParam id="1274" interp="linr"  time="0/1" value="0" leadInLength="0/1"  />
               <InterpolatingParam id="1275" interp="linr"  time="0/1" value="0" leadInLength="0/1"  />
              </VectorParam>
              <VectorParam id="1276"  name="geometryCrop">
               <InterpolatingParam id="1277" interp="linr"  time="-9999999/1" value="0" leadInLength="0/1"  />
               <InterpolatingParam id="1278" interp="linr"  time="-9999999/1" value="0" leadInLength="0/1"  />
               <InterpolatingParam id="1279" interp="linr"  time="-9999999/1" value="0" leadInLength="0/1"  />
               <InterpolatingParam id="1280" interp="linr"  time="-9999999/1" value="0" leadInLength="0/1"  />
              </VectorParam>
              <InterpolatingParam id="1281" interp="linr"  time="-9999999/1" value="1" leadInLength="0/1"  name="opacity"/>
              <InterpolatingParam id="1282" interp="linr"  time="0/1" value="0" leadInLength="0/1"  name="cursorOpacity"/>
              <InterpolatingParam id="1283" interp="linr"  time="0/1" value="0" leadInLength="0/1"  name="cursorScale"/>
             </Parameters>
             <Attributes>
              <Attribute id="1284" value="" name="ident"/>
             </Attributes>
             <ExtraData>
              <Entry key="ZoomPanBin">
               <ZoomPanBin id="1285"  >
                <ZoomPanKeyframes>
                </ZoomPanKeyframes>
               </ZoomPanBin>
              </Entry>
              <Entry key="CursorEffectBin">
               <CursorEffectBin id="1286"  >
                <CursorEffectKeyframes>
                </CursorEffectKeyframes>
               </CursorEffectBin>
              </Entry>
             </ExtraData>
            </ScreenVMFile>
            <MetaData>
             <entry key="AutoAppliedSmartFocus" val="False"/>
             <entry key="WinSubProjectDisplayName" val=""/>
            </MetaData>
           </UnifiedMedia>
           <UnifiedMedia id="1287"  >
            <AMFile id="1288" start="6984" duration="82" scalar="1/1" mediaStart="7302/1" mediaDuration="82/1" trackNumber="1" src="5" channelNumber="0,1" >
             <Parameters>
              <InterpolatingParam id="1289" interp="linr"  time="0/1" value="1" leadInLength="0/1"  name="volume"/>
              <Parameter id="1290"  name="captions"/>
             </Parameters>
             <Attributes>
              <Attribute id="1291" value="" name="ident"/>
              <Attribute id="1292" value="44100" name="sampleRate"/>
              <Attribute id="1293" value="16" name="bitDepth"/>
              <Attribute id="1294" value="1" name="gain"/>
              <Attribute id="1295" value="0" name="mixToMono"/>
             </Attributes>
            </AMFile>
            <ScreenVMFile id="1296" start="6984" duration="82" scalar="1/1" mediaStart="7302/1" mediaDuration="82/1" trackNumber="0" src="5" >
             <Transformer>
              <VectorParam id="1297"  name="translation">
               <InterpolatingParam id="1298" interp="linr"  time="-9999999/1" value="0" leadInLength="0/1"  />
               <InterpolatingParam id="1299" interp="linr"  time="-9999999/1" value="0" leadInLength="0/1"  />
               <InterpolatingParam id="1300" interp="linr"  time="-9999999/1" value="0" leadInLength="0/1"  />
              </VectorParam>
              <VectorParam id="1301"  name="rotation">
               <InterpolatingParam id="1302" interp="linr"  time="-9999999/1" value="0" leadInLength="0/1"  />
               <InterpolatingParam id="1303" interp="linr"  time="-9999999/1" value="0" leadInLength="0/1"  />
               <InterpolatingParam id="1304" interp="linr"  time="-9999999/1" value="0" leadInLength="0/1"  />
              </VectorParam>
              <VectorParam id="1305"  name="shear">
               <InterpolatingParam id="1306" interp="linr"  time="-9999999/1" value="0" leadInLength="0/1"  />
               <InterpolatingParam id="1307" interp="linr"  time="-9999999/1" value="0" leadInLength="0/1"  />
               <InterpolatingParam id="1308" interp="linr"  time="-9999999/1" value="0" leadInLength="0/1"  />
              </VectorParam>
              <VectorParam id="1309"  name="scale">
               <InterpolatingParam id="1310" interp="linr"  time="-9999999/1" value="1" leadInLength="0/1"  />
               <InterpolatingParam id="1311" interp="linr"  time="-9999999/1" value="1" leadInLength="0/1"  />
               <InterpolatingParam id="1312" interp="linr"  time="-9999999/1" value="1" leadInLength="0/1"  />
              </VectorParam>
              <VectorParam id="1313"  name="anchor">
               <InterpolatingParam id="1314" interp="linr"  time="0/1" value="0" leadInLength="0/1"  />
               <InterpolatingParam id="1315" interp="linr"  time="0/1" value="0" leadInLength="0/1"  />
               <InterpolatingParam id="1316" interp="linr"  time="0/1" value="0" leadInLength="0/1"  />
              </VectorParam>
             </Transformer>
             <Parameters>
              <VectorParam id="1317"  name="sourceCrop">
               <InterpolatingParam id="1318" interp="linr"  time="0/1" value="0" leadInLength="0/1"  />
               <InterpolatingParam id="1319" interp="linr"  time="0/1" value="0" leadInLength="0/1"  />
               <InterpolatingParam id="1320" interp="linr"  time="0/1" value="0" leadInLength="0/1"  />
               <InterpolatingParam id="1321" interp="linr"  time="0/1" value="0" leadInLength="0/1"  />
              </VectorParam>
              <VectorParam id="1322"  name="geometryCrop">
               <InterpolatingParam id="1323" interp="linr"  time="-9999999/1" value="0" leadInLength="0/1"  />
               <InterpolatingParam id="1324" interp="linr"  time="-9999999/1" value="0" leadInLength="0/1"  />
               <InterpolatingParam id="1325" interp="linr"  time="-9999999/1" value="0" leadInLength="0/1"  />
               <InterpolatingParam id="1326" interp="linr"  time="-9999999/1" value="0" leadInLength="0/1"  />
              </VectorParam>
              <InterpolatingParam id="1327" interp="linr"  time="-9999999/1" value="1" leadInLength="0/1"  name="opacity"/>
              <InterpolatingParam id="1328" interp="linr"  time="0/1" value="0" leadInLength="0/1"  name="cursorOpacity"/>
              <InterpolatingParam id="1329" interp="linr"  time="0/1" value="0" leadInLength="0/1"  name="cursorScale"/>
             </Parameters>
             <Attributes>
              <Attribute id="1330" value="" name="ident"/>
             </Attributes>
             <ExtraData>
              <Entry key="ZoomPanBin">
               <ZoomPanBin id="1331"  >
                <ZoomPanKeyframes>
                </ZoomPanKeyframes>
               </ZoomPanBin>
              </Entry>
              <Entry key="CursorEffectBin">
               <CursorEffectBin id="1332"  >
                <CursorEffectKeyframes>
                </CursorEffectKeyframes>
               </CursorEffectBin>
              </Entry>
             </ExtraData>
            </ScreenVMFile>
            <MetaData>
             <entry key="AutoAppliedSmartFocus" val="False"/>
             <entry key="WinSubProjectDisplayName" val=""/>
            </MetaData>
           </UnifiedMedia>
           <UnifiedMedia id="1333"  >
            <AMFile id="1334" start="7066" duration="2268" scalar="1/1" mediaStart="7437/1" mediaDuration="2268/1" trackNumber="1" src="5" channelNumber="0,1" >
             <Parameters>
              <InterpolatingParam id="1335" interp="linr"  time="0/1" value="1" leadInLength="0/1"  name="volume"/>
              <Parameter id="1336"  name="captions"/>
             </Parameters>
             <Attributes>
              <Attribute id="1337" value="" name="ident"/>
              <Attribute id="1338" value="44100" name="sampleRate"/>
              <Attribute id="1339" value="16" name="bitDepth"/>
              <Attribute id="1340" value="1" name="gain"/>
              <Attribute id="1341" value="0" name="mixToMono"/>
             </Attributes>
            </AMFile>
            <ScreenVMFile id="1342" start="7066" duration="2268" scalar="1/1" mediaStart="7437/1" mediaDuration="2268/1" trackNumber="0" src="5" >
             <Transformer>
              <VectorParam id="1343"  name="translation">
               <InterpolatingParam id="1344" interp="linr"  time="-9999999/1" value="0" leadInLength="0/1"  />
               <InterpolatingParam id="1345" interp="linr"  time="-9999999/1" value="0" leadInLength="0/1"  />
               <InterpolatingParam id="1346" interp="linr"  time="-9999999/1" value="0" leadInLength="0/1"  />
              </VectorParam>
              <VectorParam id="1347"  name="rotation">
               <InterpolatingParam id="1348" interp="linr"  time="-9999999/1" value="0" leadInLength="0/1"  />
               <InterpolatingParam id="1349" interp="linr"  time="-9999999/1" value="0" leadInLength="0/1"  />
               <InterpolatingParam id="1350" interp="linr"  time="-9999999/1" value="0" leadInLength="0/1"  />
              </VectorParam>
              <VectorParam id="1351"  name="shear">
               <InterpolatingParam id="1352" interp="linr"  time="-9999999/1" value="0" leadInLength="0/1"  />
               <InterpolatingParam id="1353" interp="linr"  time="-9999999/1" value="0" leadInLength="0/1"  />
               <InterpolatingParam id="1354" interp="linr"  time="-9999999/1" value="0" leadInLength="0/1"  />
              </VectorParam>
              <VectorParam id="1355"  name="scale">
               <InterpolatingParam id="1356" interp="linr"  time="-9999999/1" value="1" leadInLength="0/1"  />
               <InterpolatingParam id="1357" interp="linr"  time="-9999999/1" value="1" leadInLength="0/1"  />
               <InterpolatingParam id="1358" interp="linr"  time="-9999999/1" value="1" leadInLength="0/1"  />
              </VectorParam>
              <VectorParam id="1359"  name="anchor">
               <InterpolatingParam id="1360" interp="linr"  time="0/1" value="0" leadInLength="0/1"  />
               <InterpolatingParam id="1361" interp="linr"  time="0/1" value="0" leadInLength="0/1"  />
               <InterpolatingParam id="1362" interp="linr"  time="0/1" value="0" leadInLength="0/1"  />
              </VectorParam>
             </Transformer>
             <Parameters>
              <VectorParam id="1363"  name="sourceCrop">
               <InterpolatingParam id="1364" interp="linr"  time="0/1" value="0" leadInLength="0/1"  />
               <InterpolatingParam id="1365" interp="linr"  time="0/1" value="0" leadInLength="0/1"  />
               <InterpolatingParam id="1366" interp="linr"  time="0/1" value="0" leadInLength="0/1"  />
               <InterpolatingParam id="1367" interp="linr"  time="0/1" value="0" leadInLength="0/1"  />
              </VectorParam>
              <VectorParam id="1368"  name="geometryCrop">
               <InterpolatingParam id="1369" interp="linr"  time="-9999999/1" value="0" leadInLength="0/1"  />
               <InterpolatingParam id="1370" interp="linr"  time="-9999999/1" value="0" leadInLength="0/1"  />
               <InterpolatingParam id="1371" interp="linr"  time="-9999999/1" value="0" leadInLength="0/1"  />
               <InterpolatingParam id="1372" interp="linr"  time="-9999999/1" value="0" leadInLength="0/1"  />
              </VectorParam>
              <InterpolatingParam id="1373" interp="linr"  time="-9999999/1" value="1" leadInLength="0/1"  name="opacity"/>
              <InterpolatingParam id="1374" interp="linr"  time="0/1" value="0" leadInLength="0/1"  name="cursorOpacity"/>
              <InterpolatingParam id="1375" interp="linr"  time="0/1" value="0" leadInLength="0/1"  name="cursorScale"/>
             </Parameters>
             <Attributes>
              <Attribute id="1376" value="" name="ident"/>
             </Attributes>
             <ExtraData>
              <Entry key="ZoomPanBin">
               <ZoomPanBin id="1377"  >
                <ZoomPanKeyframes>
                </ZoomPanKeyframes>
               </ZoomPanBin>
              </Entry>
              <Entry key="CursorEffectBin">
               <CursorEffectBin id="1378"  >
                <CursorEffectKeyframes>
                </CursorEffectKeyframes>
               </CursorEffectBin>
              </Entry>
             </ExtraData>
            </ScreenVMFile>
            <MetaData>
             <entry key="AutoAppliedSmartFocus" val="False"/>
             <entry key="WinSubProjectDisplayName" val=""/>
            </MetaData>
           </UnifiedMedia>
          </Medias>
         </GenericTrack>
        </StitchedMedia>
        <StitchedMedia id="1379" start="3141" duration="4124" scalar="1/1" mediaStart="3971/1" mediaDuration="4124/1" minMediaStart="0/1" >
         <Transformer>
          <VectorParam id="1380"  name="translation">
           <InterpolatingParam id="1381" interp="linr"  time="-9999999/1" value="0" leadInLength="0/1"  interpolater="leadin-linr"  />
           <InterpolatingParam id="1382" interp="linr"  time="-9999999/1" value="0" leadInLength="0/1"  interpolater="leadin-linr"  />
           <InterpolatingParam id="1383" interp="linr"  time="-9999999/1" value="0" leadInLength="0/1"  interpolater="leadin-linr"  />
          </VectorParam>
          <VectorParam id="1384"  name="rotation">
           <InterpolatingParam id="1385" interp="linr"  time="-9999999/1" value="0" leadInLength="0/1"  interpolater="leadin-linr"  />
           <InterpolatingParam id="1386" interp="linr"  time="-9999999/1" value="0" leadInLength="0/1"  interpolater="leadin-linr"  />
           <InterpolatingParam id="1387" interp="linr"  time="-9999999/1" value="0" leadInLength="0/1"  interpolater="leadin-linr"  />
          </VectorParam>
          <VectorParam id="1388"  name="shear">
           <InterpolatingParam id="1389" interp="linr"  time="-9999999/1" value="0" leadInLength="0/1"  interpolater="leadin-linr"  />
           <InterpolatingParam id="1390" interp="linr"  time="-9999999/1" value="0" leadInLength="0/1"  interpolater="leadin-linr"  />
           <InterpolatingParam id="1391" interp="linr"  time="-9999999/1" value="0" leadInLength="0/1"  interpolater="leadin-linr"  />
          </VectorParam>
          <VectorParam id="1392"  name="scale">
           <InterpolatingParam id="1393" interp="linr"  time="-9999999/1" value="0.93704245973645683" leadInLength="0/1"  interpolater="leadin-linr"  />
           <InterpolatingParam id="1394" interp="linr"  time="-9999999/1" value="0.93704245973645683" leadInLength="0/1"  interpolater="leadin-linr"  />
           <InterpolatingParam id="1395" interp="linr"  time="-9999999/1" value="1" leadInLength="0/1"  interpolater="leadin-linr"  />
          </VectorParam>
          <VectorParam id="1396"  name="anchor">
           <InterpolatingParam id="1397" interp="linr"  time="0/1" value="0" leadInLength="0/1"  />
           <InterpolatingParam id="1398" interp="linr"  time="0/1" value="0" leadInLength="0/1"  />
           <InterpolatingParam id="1399" interp="linr"  time="0/1" value="0" leadInLength="0/1"  />
          </VectorParam>
         </Transformer>
         <Parameters>
          <VectorParam id="1400"  name="sourceCrop">
           <InterpolatingParam id="1401" interp="linr"  time="0/1" value="0" leadInLength="0/1"  />
           <InterpolatingParam id="1402" interp="linr"  time="0/1" value="0" leadInLength="0/1"  />
           <InterpolatingParam id="1403" interp="linr"  time="0/1" value="0" leadInLength="0/1"  />
           <InterpolatingParam id="1404" interp="linr"  time="0/1" value="0" leadInLength="0/1"  />
          </VectorParam>
          <VectorParam id="1405"  name="geometryCrop">
           <InterpolatingParam id="1406" interp="linr"  time="-9999999/1" value="0" leadInLength="0/1"  interpolater="leadin-linr"  />
           <InterpolatingParam id="1407" interp="linr"  time="-9999999/1" value="0" leadInLength="0/1"  interpolater="leadin-linr"  />
           <InterpolatingParam id="1408" interp="linr"  time="-9999999/1" value="0" leadInLength="0/1"  interpolater="leadin-linr"  />
           <InterpolatingParam id="1409" interp="linr"  time="-9999999/1" value="0" leadInLength="0/1"  interpolater="leadin-linr"  />
          </VectorParam>
          <InterpolatingParam id="1410" interp="linr"  time="-9999999/1" value="1" leadInLength="0/1"  interpolater="leadin-linr"  name="opacity"/>
          <Parameter id="1411"  name="toc">
           <Keyframes>
           <Keyframe id="1412"  time="4179/1" value="HDFS - Architecture" leadInLength="0/1"  >
            <MetaData>
             <entry key="Checked" val="True"/>
             <entry key="IndentLevel" val="0"/>
            </MetaData>
           </Keyframe>
           <Keyframe id="1413"  time="4235/1" value="HDFS - Architecture" leadInLength="0/1"  >
            <MetaData>
             <entry key="Checked" val="True"/>
             <entry key="IndentLevel" val="0"/>
            </MetaData>
           </Keyframe>
           <Keyframe id="1414"  time="4291/1" value="HDFS - Architecture" leadInLength="0/1"  >
            <MetaData>
             <entry key="Checked" val="True"/>
             <entry key="IndentLevel" val="0"/>
            </MetaData>
           </Keyframe>
           <Keyframe id="1415"  time="4344/1" value="HDFS - Architecture" leadInLength="0/1"  >
            <MetaData>
             <entry key="Checked" val="True"/>
             <entry key="IndentLevel" val="0"/>
            </MetaData>
           </Keyframe>
           <Keyframe id="1416"  time="4648/1" value="HDFS - Architecture" leadInLength="0/1"  >
            <MetaData>
             <entry key="Checked" val="True"/>
             <entry key="IndentLevel" val="0"/>
            </MetaData>
           </Keyframe>
           <Keyframe id="1417"  time="4697/1" value="HDFS - Architecture" leadInLength="0/1"  >
            <MetaData>
             <entry key="Checked" val="True"/>
             <entry key="IndentLevel" val="0"/>
            </MetaData>
           </Keyframe>
           <Keyframe id="1418"  time="4813/1" value="HDFS - Architecture" leadInLength="0/1"  >
            <MetaData>
             <entry key="Checked" val="True"/>
             <entry key="IndentLevel" val="0"/>
            </MetaData>
           </Keyframe>
           <Keyframe id="1419"  time="4868/1" value="HDFS - Architecture" leadInLength="0/1"  >
            <MetaData>
             <entry key="Checked" val="True"/>
             <entry key="IndentLevel" val="0"/>
            </MetaData>
           </Keyframe>
           <Keyframe id="1420"  time="5199/1" value="HDFS - Architecture" leadInLength="0/1"  >
            <MetaData>
             <entry key="Checked" val="True"/>
             <entry key="IndentLevel" val="0"/>
            </MetaData>
           </Keyframe>
           <Keyframe id="1421"  time="5252/1" value="HDFS - Architecture" leadInLength="0/1"  >
            <MetaData>
             <entry key="Checked" val="True"/>
             <entry key="IndentLevel" val="0"/>
            </MetaData>
           </Keyframe>
           <Keyframe id="1422"  time="5433/1" value="HDFS - Workflow" leadInLength="0/1"  >
            <MetaData>
             <entry key="Checked" val="True"/>
             <entry key="IndentLevel" val="0"/>
            </MetaData>
           </Keyframe>
           <Keyframe id="1423"  time="6478/1" value="HDFS - Purpose" leadInLength="0/1"  >
            <MetaData>
             <entry key="Checked" val="True"/>
             <entry key="IndentLevel" val="0"/>
            </MetaData>
           </Keyframe>
           <Keyframe id="1424"  time="6504/1" value="HDFS - Purpose" leadInLength="0/1"  >
            <MetaData>
             <entry key="Checked" val="True"/>
             <entry key="IndentLevel" val="0"/>
            </MetaData>
           </Keyframe>
           </Keyframes>
          </Parameter>
          <InterpolatingParam id="1425" interp="linr"  time="0/1" value="1" leadInLength="0/1"  name="cursorOpacity"/>
          <InterpolatingParam id="1426" interp="linr"  time="0/1" value="1" leadInLength="0/1"  name="cursorScale"/>
          <InterpolatingParam id="1427" interp="linr"  time="0/1" value="1" leadInLength="0/1"  name="volume"/>
          <Parameter id="1428"  name="captions"/>
         </Parameters>
         <Effects>
          <GenericEffect id="1429" name = "CursorBaseEffectName" >
           <Parameters>
           <InterpolatingParam id="1430" interp="linr"  time="-9999999/1" value="1" leadInLength="0/1"   name="cursorSize"/>
           <InterpolatingParam id="1431" interp="linr"  time="-9999999/1" value="0" leadInLength="0/1"   name="highlightBlurRadius"/>
           <InterpolatingParam id="1432" interp="linr"  time="-9999999/1" value="0" leadInLength="0/1"   name="highlightColorBlue"/>
           <InterpolatingParam id="1433" interp="linr"  time="-9999999/1" value="255" leadInLength="0/1"   name="highlightColorGreen"/>
           <InterpolatingParam id="1434" interp="linr"  time="-9999999/1" value="255" leadInLength="0/1"   name="highlightColorRed"/>
           <InterpolatingParam id="1435" interp="linr"  time="-9999999/1" value="5" leadInLength="0/1"   name="highlightFeatherSize"/>
           <InterpolatingParam id="1436" interp="linr"  time="-9999999/1" value="2" leadInLength="0/1"   name="highlightMagnification"/>
           <InterpolatingParam id="1437" interp="linr"  time="-9999999/1" value="1" leadInLength="0/1"   name="highlightOpacity"/>
           <InterpolatingParam id="1438" interp="linr"  time="-9999999/1" value="45" leadInLength="0/1"   name="highlightSize"/>
           <Parameter id="1439"   name="highlightType">
            <Keyframes>
            <Keyframe id="1440"  time="-9999999/1" value="0" leadInLength="0/1"  />
            </Keyframes>
           </Parameter>
           <InterpolatingParam id="1441" interp="linr"  time="-9999999/1" value="0" leadInLength="0/1"   name="leftClickColorBlue"/>
           <InterpolatingParam id="1442" interp="linr"  time="-9999999/1" value="0" leadInLength="0/1"   name="leftClickColorGreen"/>
           <InterpolatingParam id="1443" interp="linr"  time="-9999999/1" value="255" leadInLength="0/1"   name="leftClickColorRed"/>
           <InterpolatingParam id="1444" interp="linr"  time="-9999999/1" value="0.80000000000000004" leadInLength="0/1"   name="leftClickDuration"/>
           <InterpolatingParam id="1445" interp="linr"  time="-9999999/1" value="20" leadInLength="0/1"   name="leftClickSize"/>
           <Parameter id="1446"   name="leftClickSoundFilename">
            <Keyframes>
            <Keyframe id="1447"  time="-9999999/1" value="" leadInLength="0/1"  />
            </Keyframes>
           </Parameter>
           <InterpolatingParam id="1448" interp="linr"  time="-9999999/1" value="1" leadInLength="0/1"   name="leftClickSoundVolume"/>
           <Parameter id="1449"   name="leftClickType">
            <Keyframes>
            <Keyframe id="1450"  time="-9999999/1" value="0" leadInLength="0/1"  />
            </Keyframes>
           </Parameter>
           <InterpolatingParam id="1451" interp="linr"  time="-9999999/1" value="1" leadInLength="0/1"   name="opacity"/>
           <InterpolatingParam id="1452" interp="linr"  time="-9999999/1" value="255" leadInLength="0/1"   name="rightClickColorBlue"/>
           <InterpolatingParam id="1453" interp="linr"  time="-9999999/1" value="0" leadInLength="0/1"   name="rightClickColorGreen"/>
           <InterpolatingParam id="1454" interp="linr"  time="-9999999/1" value="0" leadInLength="0/1"   name="rightClickColorRed"/>
           <InterpolatingParam id="1455" interp="linr"  time="-9999999/1" value="0.80000000000000004" leadInLength="0/1"   name="rightClickDuration"/>
           <InterpolatingParam id="1456" interp="linr"  time="-9999999/1" value="20" leadInLength="0/1"   name="rightClickSize"/>
           <Parameter id="1457"   name="rightClickSoundFilename">
            <Keyframes>
            <Keyframe id="1458"  time="-9999999/1" value="" leadInLength="0/1"  />
            </Keyframes>
           </Parameter>
           <InterpolatingParam id="1459" interp="linr"  time="-9999999/1" value="1" leadInLength="0/1"   name="rightClickSoundVolume"/>
           <Parameter id="1460"   name="rightClickType">
            <Keyframes>
            <Keyframe id="1461"  time="-9999999/1" value="0" leadInLength="0/1"  />
            </Keyframes>
           </Parameter>
           </Parameters>
           <MetaData>
            <entry key="effectIndex" val="0"/>
           </MetaData>
          </GenericEffect>
         </Effects>
         <Attributes>
          <Attribute id="1462" value="" name="ident"/>
          <Attribute id="1463" value="0" name="mixToMono"/>
         </Attributes>
         <MetaData>
          <entry key="AutoAppliedSmartFocus" val="False"/>
          <entry key="WinSubProjectDisplayName" val=""/>
         </MetaData>
         <ExtraData>
          <Entry key="ZoomPanBin">
           <ZoomPanBin id="1464"  >
            <ZoomPanKeyframes>
             <ZoomPanKeyframe id="1465" timeRangeEnd="-9999999/1" timeRangeDuration="0/1" interpolaterName="linr"  />
            </ZoomPanKeyframes>
           </ZoomPanBin>
          </Entry>
          <Entry key="CursorEffectBin">
           <CursorEffectBin id="1466"  >
            <CursorEffectKeyframes>
             <CursorEffectKeyframe id="1467" timeRangeEnd="-9999999/1" timeRangeDuration="0/1" interpolaterName=""  />
            </CursorEffectKeyframes>
           </CursorEffectBin>
          </Entry>
         </ExtraData>
         <GenericTrack id="1468"  >
          <Attributes>
           <Attribute id="1469" value="" name="ident"/>
           <Attribute id="1470" value="0" name="audioMuted"/>
           <Attribute id="1471" value="0" name="videoHidden"/>
          </Attributes>
          <MetaData>
           <entry key="IsLocked" val="False"/>
           <entry key="WinTrackHeight" val="0"/>
          </MetaData>
          <Medias>
           <UnifiedMedia id="1472"  >
            <AMFile id="1473" start="0" duration="831" scalar="1/1" mediaStart="0/1" mediaDuration="831/1" trackNumber="1" src="5" channelNumber="0,1" >
             <Parameters>
              <InterpolatingParam id="1474" interp="linr"  time="0/1" value="1" leadInLength="0/1"  name="volume"/>
              <Parameter id="1475"  name="captions"/>
             </Parameters>
             <Attributes>
              <Attribute id="1476" value="" name="ident"/>
              <Attribute id="1477" value="44100" name="sampleRate"/>
              <Attribute id="1478" value="16" name="bitDepth"/>
              <Attribute id="1479" value="1" name="gain"/>
              <Attribute id="1480" value="0" name="mixToMono"/>
             </Attributes>
            </AMFile>
            <ScreenVMFile id="1481" start="0" duration="831" scalar="1/1" mediaStart="0/1" mediaDuration="831/1" trackNumber="0" src="5" >
             <Transformer>
              <VectorParam id="1482"  name="translation">
               <InterpolatingParam id="1483" interp="linr"  time="-9999999/1" value="0" leadInLength="0/1"  />
               <InterpolatingParam id="1484" interp="linr"  time="-9999999/1" value="0" leadInLength="0/1"  />
               <InterpolatingParam id="1485" interp="linr"  time="-9999999/1" value="0" leadInLength="0/1"  />
              </VectorParam>
              <VectorParam id="1486"  name="rotation">
               <InterpolatingParam id="1487" interp="linr"  time="-9999999/1" value="0" leadInLength="0/1"  />
               <InterpolatingParam id="1488" interp="linr"  time="-9999999/1" value="0" leadInLength="0/1"  />
               <InterpolatingParam id="1489" interp="linr"  time="-9999999/1" value="0" leadInLength="0/1"  />
              </VectorParam>
              <VectorParam id="1490"  name="shear">
               <InterpolatingParam id="1491" interp="linr"  time="-9999999/1" value="0" leadInLength="0/1"  />
               <InterpolatingParam id="1492" interp="linr"  time="-9999999/1" value="0" leadInLength="0/1"  />
               <InterpolatingParam id="1493" interp="linr"  time="-9999999/1" value="0" leadInLength="0/1"  />
              </VectorParam>
              <VectorParam id="1494"  name="scale">
               <InterpolatingParam id="1495" interp="linr"  time="-9999999/1" value="1" leadInLength="0/1"  />
               <InterpolatingParam id="1496" interp="linr"  time="-9999999/1" value="1" leadInLength="0/1"  />
               <InterpolatingParam id="1497" interp="linr"  time="-9999999/1" value="1" leadInLength="0/1"  />
              </VectorParam>
              <VectorParam id="1498"  name="anchor">
               <InterpolatingParam id="1499" interp="linr"  time="0/1" value="0" leadInLength="0/1"  />
               <InterpolatingParam id="1500" interp="linr"  time="0/1" value="0" leadInLength="0/1"  />
               <InterpolatingParam id="1501" interp="linr"  time="0/1" value="0" leadInLength="0/1"  />
              </VectorParam>
             </Transformer>
             <Parameters>
              <VectorParam id="1502"  name="sourceCrop">
               <InterpolatingParam id="1503" interp="linr"  time="0/1" value="0" leadInLength="0/1"  />
               <InterpolatingParam id="1504" interp="linr"  time="0/1" value="0" leadInLength="0/1"  />
               <InterpolatingParam id="1505" interp="linr"  time="0/1" value="0" leadInLength="0/1"  />
               <InterpolatingParam id="1506" interp="linr"  time="0/1" value="0" leadInLength="0/1"  />
              </VectorParam>
              <VectorParam id="1507"  name="geometryCrop">
               <InterpolatingParam id="1508" interp="linr"  time="-9999999/1" value="0" leadInLength="0/1"  />
               <InterpolatingParam id="1509" interp="linr"  time="-9999999/1" value="0" leadInLength="0/1"  />
               <InterpolatingParam id="1510" interp="linr"  time="-9999999/1" value="0" leadInLength="0/1"  />
               <InterpolatingParam id="1511" interp="linr"  time="-9999999/1" value="0" leadInLength="0/1"  />
              </VectorParam>
              <InterpolatingParam id="1512" interp="linr"  time="-9999999/1" value="1" leadInLength="0/1"  name="opacity"/>
              <InterpolatingParam id="1513" interp="linr"  time="0/1" value="0" leadInLength="0/1"  name="cursorOpacity"/>
              <InterpolatingParam id="1514" interp="linr"  time="0/1" value="0" leadInLength="0/1"  name="cursorScale"/>
             </Parameters>
             <Attributes>
              <Attribute id="1515" value="" name="ident"/>
             </Attributes>
             <ExtraData>
              <Entry key="ZoomPanBin">
               <ZoomPanBin id="1516"  >
                <ZoomPanKeyframes>
                 <ZoomPanKeyframe id="1517" timeRangeEnd="-9999999/1" timeRangeDuration="0/1" interpolaterName=""  />
                </ZoomPanKeyframes>
               </ZoomPanBin>
              </Entry>
              <Entry key="CursorEffectBin">
               <CursorEffectBin id="1518"  >
                <CursorEffectKeyframes>
                </CursorEffectKeyframes>
               </CursorEffectBin>
              </Entry>
             </ExtraData>
            </ScreenVMFile>
            <MetaData>
             <entry key="AutoAppliedSmartFocus" val="False"/>
             <entry key="WinSubProjectDisplayName" val=""/>
            </MetaData>
           </UnifiedMedia>
           <UnifiedMedia id="1519"  >
            <AMFile id="1520" start="831" duration="353" scalar="1/1" mediaStart="955/1" mediaDuration="353/1" trackNumber="1" src="5" channelNumber="0,1" >
             <Parameters>
              <InterpolatingParam id="1521" interp="linr"  time="0/1" value="1" leadInLength="0/1"  name="volume"/>
              <Parameter id="1522"  name="captions"/>
             </Parameters>
             <Attributes>
              <Attribute id="1523" value="" name="ident"/>
              <Attribute id="1524" value="44100" name="sampleRate"/>
              <Attribute id="1525" value="16" name="bitDepth"/>
              <Attribute id="1526" value="1" name="gain"/>
              <Attribute id="1527" value="0" name="mixToMono"/>
             </Attributes>
            </AMFile>
            <ScreenVMFile id="1528" start="831" duration="353" scalar="1/1" mediaStart="955/1" mediaDuration="353/1" trackNumber="0" src="5" >
             <Transformer>
              <VectorParam id="1529"  name="translation">
               <InterpolatingParam id="1530" interp="linr"  time="-9999999/1" value="0" leadInLength="0/1"  />
               <InterpolatingParam id="1531" interp="linr"  time="-9999999/1" value="0" leadInLength="0/1"  />
               <InterpolatingParam id="1532" interp="linr"  time="-9999999/1" value="0" leadInLength="0/1"  />
              </VectorParam>
              <VectorParam id="1533"  name="rotation">
               <InterpolatingParam id="1534" interp="linr"  time="-9999999/1" value="0" leadInLength="0/1"  />
               <InterpolatingParam id="1535" interp="linr"  time="-9999999/1" value="0" leadInLength="0/1"  />
               <InterpolatingParam id="1536" interp="linr"  time="-9999999/1" value="0" leadInLength="0/1"  />
              </VectorParam>
              <VectorParam id="1537"  name="shear">
               <InterpolatingParam id="1538" interp="linr"  time="-9999999/1" value="0" leadInLength="0/1"  />
               <InterpolatingParam id="1539" interp="linr"  time="-9999999/1" value="0" leadInLength="0/1"  />
               <InterpolatingParam id="1540" interp="linr"  time="-9999999/1" value="0" leadInLength="0/1"  />
              </VectorParam>
              <VectorParam id="1541"  name="scale">
               <InterpolatingParam id="1542" interp="linr"  time="-9999999/1" value="1" leadInLength="0/1"  />
               <InterpolatingParam id="1543" interp="linr"  time="-9999999/1" value="1" leadInLength="0/1"  />
               <InterpolatingParam id="1544" interp="linr"  time="-9999999/1" value="1" leadInLength="0/1"  />
              </VectorParam>
              <VectorParam id="1545"  name="anchor">
               <InterpolatingParam id="1546" interp="linr"  time="0/1" value="0" leadInLength="0/1"  />
               <InterpolatingParam id="1547" interp="linr"  time="0/1" value="0" leadInLength="0/1"  />
               <InterpolatingParam id="1548" interp="linr"  time="0/1" value="0" leadInLength="0/1"  />
              </VectorParam>
             </Transformer>
             <Parameters>
              <VectorParam id="1549"  name="sourceCrop">
               <InterpolatingParam id="1550" interp="linr"  time="0/1" value="0" leadInLength="0/1"  />
               <InterpolatingParam id="1551" interp="linr"  time="0/1" value="0" leadInLength="0/1"  />
               <InterpolatingParam id="1552" interp="linr"  time="0/1" value="0" leadInLength="0/1"  />
               <InterpolatingParam id="1553" interp="linr"  time="0/1" value="0" leadInLength="0/1"  />
              </VectorParam>
              <VectorParam id="1554"  name="geometryCrop">
               <InterpolatingParam id="1555" interp="linr"  time="-9999999/1" value="0" leadInLength="0/1"  />
               <InterpolatingParam id="1556" interp="linr"  time="-9999999/1" value="0" leadInLength="0/1"  />
               <InterpolatingParam id="1557" interp="linr"  time="-9999999/1" value="0" leadInLength="0/1"  />
               <InterpolatingParam id="1558" interp="linr"  time="-9999999/1" value="0" leadInLength="0/1"  />
              </VectorParam>
              <InterpolatingParam id="1559" interp="linr"  time="-9999999/1" value="1" leadInLength="0/1"  name="opacity"/>
              <InterpolatingParam id="1560" interp="linr"  time="0/1" value="0" leadInLength="0/1"  name="cursorOpacity"/>
              <InterpolatingParam id="1561" interp="linr"  time="0/1" value="0" leadInLength="0/1"  name="cursorScale"/>
             </Parameters>
             <Attributes>
              <Attribute id="1562" value="" name="ident"/>
             </Attributes>
             <ExtraData>
              <Entry key="ZoomPanBin">
               <ZoomPanBin id="1563"  >
                <ZoomPanKeyframes>
                 <ZoomPanKeyframe id="1564" timeRangeEnd="-9999999/1" timeRangeDuration="0/1" interpolaterName=""  />
                </ZoomPanKeyframes>
               </ZoomPanBin>
              </Entry>
              <Entry key="CursorEffectBin">
               <CursorEffectBin id="1565"  >
                <CursorEffectKeyframes>
                </CursorEffectKeyframes>
               </CursorEffectBin>
              </Entry>
             </ExtraData>
            </ScreenVMFile>
            <MetaData>
             <entry key="AutoAppliedSmartFocus" val="False"/>
             <entry key="WinSubProjectDisplayName" val=""/>
            </MetaData>
           </UnifiedMedia>
           <UnifiedMedia id="1566"  >
            <AMFile id="1567" start="1184" duration="371" scalar="1/1" mediaStart="1321/1" mediaDuration="371/1" trackNumber="1" src="5" channelNumber="0,1" >
             <Parameters>
              <InterpolatingParam id="1568" interp="linr"  time="0/1" value="1" leadInLength="0/1"  name="volume"/>
              <Parameter id="1569"  name="captions"/>
             </Parameters>
             <Attributes>
              <Attribute id="1570" value="" name="ident"/>
              <Attribute id="1571" value="44100" name="sampleRate"/>
              <Attribute id="1572" value="16" name="bitDepth"/>
              <Attribute id="1573" value="1" name="gain"/>
              <Attribute id="1574" value="0" name="mixToMono"/>
             </Attributes>
            </AMFile>
            <ScreenVMFile id="1575" start="1184" duration="371" scalar="1/1" mediaStart="1321/1" mediaDuration="371/1" trackNumber="0" src="5" >
             <Transformer>
              <VectorParam id="1576"  name="translation">
               <InterpolatingParam id="1577" interp="linr"  time="-9999999/1" value="0" leadInLength="0/1"  />
               <InterpolatingParam id="1578" interp="linr"  time="-9999999/1" value="0" leadInLength="0/1"  />
               <InterpolatingParam id="1579" interp="linr"  time="-9999999/1" value="0" leadInLength="0/1"  />
              </VectorParam>
              <VectorParam id="1580"  name="rotation">
               <InterpolatingParam id="1581" interp="linr"  time="-9999999/1" value="0" leadInLength="0/1"  />
               <InterpolatingParam id="1582" interp="linr"  time="-9999999/1" value="0" leadInLength="0/1"  />
               <InterpolatingParam id="1583" interp="linr"  time="-9999999/1" value="0" leadInLength="0/1"  />
              </VectorParam>
              <VectorParam id="1584"  name="shear">
               <InterpolatingParam id="1585" interp="linr"  time="-9999999/1" value="0" leadInLength="0/1"  />
               <InterpolatingParam id="1586" interp="linr"  time="-9999999/1" value="0" leadInLength="0/1"  />
               <InterpolatingParam id="1587" interp="linr"  time="-9999999/1" value="0" leadInLength="0/1"  />
              </VectorParam>
              <VectorParam id="1588"  name="scale">
               <InterpolatingParam id="1589" interp="linr"  time="-9999999/1" value="1" leadInLength="0/1"  />
               <InterpolatingParam id="1590" interp="linr"  time="-9999999/1" value="1" leadInLength="0/1"  />
               <InterpolatingParam id="1591" interp="linr"  time="-9999999/1" value="1" leadInLength="0/1"  />
              </VectorParam>
              <VectorParam id="1592"  name="anchor">
               <InterpolatingParam id="1593" interp="linr"  time="0/1" value="0" leadInLength="0/1"  />
               <InterpolatingParam id="1594" interp="linr"  time="0/1" value="0" leadInLength="0/1"  />
               <InterpolatingParam id="1595" interp="linr"  time="0/1" value="0" leadInLength="0/1"  />
              </VectorParam>
             </Transformer>
             <Parameters>
              <VectorParam id="1596"  name="sourceCrop">
               <InterpolatingParam id="1597" interp="linr"  time="0/1" value="0" leadInLength="0/1"  />
               <InterpolatingParam id="1598" interp="linr"  time="0/1" value="0" leadInLength="0/1"  />
               <InterpolatingParam id="1599" interp="linr"  time="0/1" value="0" leadInLength="0/1"  />
               <InterpolatingParam id="1600" interp="linr"  time="0/1" value="0" leadInLength="0/1"  />
              </VectorParam>
              <VectorParam id="1601"  name="geometryCrop">
               <InterpolatingParam id="1602" interp="linr"  time="-9999999/1" value="0" leadInLength="0/1"  />
               <InterpolatingParam id="1603" interp="linr"  time="-9999999/1" value="0" leadInLength="0/1"  />
               <InterpolatingParam id="1604" interp="linr"  time="-9999999/1" value="0" leadInLength="0/1"  />
               <InterpolatingParam id="1605" interp="linr"  time="-9999999/1" value="0" leadInLength="0/1"  />
              </VectorParam>
              <InterpolatingParam id="1606" interp="linr"  time="-9999999/1" value="1" leadInLength="0/1"  name="opacity"/>
              <InterpolatingParam id="1607" interp="linr"  time="0/1" value="0" leadInLength="0/1"  name="cursorOpacity"/>
              <InterpolatingParam id="1608" interp="linr"  time="0/1" value="0" leadInLength="0/1"  name="cursorScale"/>
             </Parameters>
             <Attributes>
              <Attribute id="1609" value="" name="ident"/>
             </Attributes>
             <ExtraData>
              <Entry key="ZoomPanBin">
               <ZoomPanBin id="1610"  >
                <ZoomPanKeyframes>
                 <ZoomPanKeyframe id="1611" timeRangeEnd="-9999999/1" timeRangeDuration="0/1" interpolaterName=""  />
                </ZoomPanKeyframes>
               </ZoomPanBin>
              </Entry>
              <Entry key="CursorEffectBin">
               <CursorEffectBin id="1612"  >
                <CursorEffectKeyframes>
                </CursorEffectKeyframes>
               </CursorEffectBin>
              </Entry>
             </ExtraData>
            </ScreenVMFile>
            <MetaData>
             <entry key="AutoAppliedSmartFocus" val="False"/>
             <entry key="WinSubProjectDisplayName" val=""/>
            </MetaData>
           </UnifiedMedia>
           <UnifiedMedia id="1613"  >
            <AMFile id="1614" start="1555" duration="271" scalar="1/1" mediaStart="1716/1" mediaDuration="271/1" trackNumber="1" src="5" channelNumber="0,1" >
             <Parameters>
              <InterpolatingParam id="1615" interp="linr"  time="0/1" value="1" leadInLength="0/1"  name="volume"/>
              <Parameter id="1616"  name="captions"/>
             </Parameters>
             <Attributes>
              <Attribute id="1617" value="" name="ident"/>
              <Attribute id="1618" value="44100" name="sampleRate"/>
              <Attribute id="1619" value="16" name="bitDepth"/>
              <Attribute id="1620" value="1" name="gain"/>
              <Attribute id="1621" value="0" name="mixToMono"/>
             </Attributes>
            </AMFile>
            <ScreenVMFile id="1622" start="1555" duration="271" scalar="1/1" mediaStart="1716/1" mediaDuration="271/1" trackNumber="0" src="5" >
             <Transformer>
              <VectorParam id="1623"  name="translation">
               <InterpolatingParam id="1624" interp="linr"  time="-9999999/1" value="0" leadInLength="0/1"  />
               <InterpolatingParam id="1625" interp="linr"  time="-9999999/1" value="0" leadInLength="0/1"  />
               <InterpolatingParam id="1626" interp="linr"  time="-9999999/1" value="0" leadInLength="0/1"  />
              </VectorParam>
              <VectorParam id="1627"  name="rotation">
               <InterpolatingParam id="1628" interp="linr"  time="-9999999/1" value="0" leadInLength="0/1"  />
               <InterpolatingParam id="1629" interp="linr"  time="-9999999/1" value="0" leadInLength="0/1"  />
               <InterpolatingParam id="1630" interp="linr"  time="-9999999/1" value="0" leadInLength="0/1"  />
              </VectorParam>
              <VectorParam id="1631"  name="shear">
               <InterpolatingParam id="1632" interp="linr"  time="-9999999/1" value="0" leadInLength="0/1"  />
               <InterpolatingParam id="1633" interp="linr"  time="-9999999/1" value="0" leadInLength="0/1"  />
               <InterpolatingParam id="1634" interp="linr"  time="-9999999/1" value="0" leadInLength="0/1"  />
              </VectorParam>
              <VectorParam id="1635"  name="scale">
               <InterpolatingParam id="1636" interp="linr"  time="-9999999/1" value="1" leadInLength="0/1"  />
               <InterpolatingParam id="1637" interp="linr"  time="-9999999/1" value="1" leadInLength="0/1"  />
               <InterpolatingParam id="1638" interp="linr"  time="-9999999/1" value="1" leadInLength="0/1"  />
              </VectorParam>
              <VectorParam id="1639"  name="anchor">
               <InterpolatingParam id="1640" interp="linr"  time="0/1" value="0" leadInLength="0/1"  />
               <InterpolatingParam id="1641" interp="linr"  time="0/1" value="0" leadInLength="0/1"  />
               <InterpolatingParam id="1642" interp="linr"  time="0/1" value="0" leadInLength="0/1"  />
              </VectorParam>
             </Transformer>
             <Parameters>
              <VectorParam id="1643"  name="sourceCrop">
               <InterpolatingParam id="1644" interp="linr"  time="0/1" value="0" leadInLength="0/1"  />
               <InterpolatingParam id="1645" interp="linr"  time="0/1" value="0" leadInLength="0/1"  />
               <InterpolatingParam id="1646" interp="linr"  time="0/1" value="0" leadInLength="0/1"  />
               <InterpolatingParam id="1647" interp="linr"  time="0/1" value="0" leadInLength="0/1"  />
              </VectorParam>
              <VectorParam id="1648"  name="geometryCrop">
               <InterpolatingParam id="1649" interp="linr"  time="-9999999/1" value="0" leadInLength="0/1"  />
               <InterpolatingParam id="1650" interp="linr"  time="-9999999/1" value="0" leadInLength="0/1"  />
               <InterpolatingParam id="1651" interp="linr"  time="-9999999/1" value="0" leadInLength="0/1"  />
               <InterpolatingParam id="1652" interp="linr"  time="-9999999/1" value="0" leadInLength="0/1"  />
              </VectorParam>
              <InterpolatingParam id="1653" interp="linr"  time="-9999999/1" value="1" leadInLength="0/1"  name="opacity"/>
              <InterpolatingParam id="1654" interp="linr"  time="0/1" value="0" leadInLength="0/1"  name="cursorOpacity"/>
              <InterpolatingParam id="1655" interp="linr"  time="0/1" value="0" leadInLength="0/1"  name="cursorScale"/>
             </Parameters>
             <Attributes>
              <Attribute id="1656" value="" name="ident"/>
             </Attributes>
             <ExtraData>
              <Entry key="ZoomPanBin">
               <ZoomPanBin id="1657"  >
                <ZoomPanKeyframes>
                 <ZoomPanKeyframe id="1658" timeRangeEnd="-9999999/1" timeRangeDuration="0/1" interpolaterName=""  />
                </ZoomPanKeyframes>
               </ZoomPanBin>
              </Entry>
              <Entry key="CursorEffectBin">
               <CursorEffectBin id="1659"  >
                <CursorEffectKeyframes>
                </CursorEffectKeyframes>
               </CursorEffectBin>
              </Entry>
             </ExtraData>
            </ScreenVMFile>
            <MetaData>
             <entry key="AutoAppliedSmartFocus" val="False"/>
             <entry key="WinSubProjectDisplayName" val=""/>
            </MetaData>
           </UnifiedMedia>
           <UnifiedMedia id="1660"  >
            <AMFile id="1661" start="1826" duration="335" scalar="1/1" mediaStart="2006/1" mediaDuration="335/1" trackNumber="1" src="5" channelNumber="0,1" >
             <Parameters>
              <InterpolatingParam id="1662" interp="linr"  time="0/1" value="1" leadInLength="0/1"  name="volume"/>
              <Parameter id="1663"  name="captions"/>
             </Parameters>
             <Attributes>
              <Attribute id="1664" value="" name="ident"/>
              <Attribute id="1665" value="44100" name="sampleRate"/>
              <Attribute id="1666" value="16" name="bitDepth"/>
              <Attribute id="1667" value="1" name="gain"/>
              <Attribute id="1668" value="0" name="mixToMono"/>
             </Attributes>
            </AMFile>
            <ScreenVMFile id="1669" start="1826" duration="335" scalar="1/1" mediaStart="2006/1" mediaDuration="335/1" trackNumber="0" src="5" >
             <Transformer>
              <VectorParam id="1670"  name="translation">
               <InterpolatingParam id="1671" interp="linr"  time="-9999999/1" value="0" leadInLength="0/1"  />
               <InterpolatingParam id="1672" interp="linr"  time="-9999999/1" value="0" leadInLength="0/1"  />
               <InterpolatingParam id="1673" interp="linr"  time="-9999999/1" value="0" leadInLength="0/1"  />
              </VectorParam>
              <VectorParam id="1674"  name="rotation">
               <InterpolatingParam id="1675" interp="linr"  time="-9999999/1" value="0" leadInLength="0/1"  />
               <InterpolatingParam id="1676" interp="linr"  time="-9999999/1" value="0" leadInLength="0/1"  />
               <InterpolatingParam id="1677" interp="linr"  time="-9999999/1" value="0" leadInLength="0/1"  />
              </VectorParam>
              <VectorParam id="1678"  name="shear">
               <InterpolatingParam id="1679" interp="linr"  time="-9999999/1" value="0" leadInLength="0/1"  />
               <InterpolatingParam id="1680" interp="linr"  time="-9999999/1" value="0" leadInLength="0/1"  />
               <InterpolatingParam id="1681" interp="linr"  time="-9999999/1" value="0" leadInLength="0/1"  />
              </VectorParam>
              <VectorParam id="1682"  name="scale">
               <InterpolatingParam id="1683" interp="linr"  time="-9999999/1" value="1" leadInLength="0/1"  />
               <InterpolatingParam id="1684" interp="linr"  time="-9999999/1" value="1" leadInLength="0/1"  />
               <InterpolatingParam id="1685" interp="linr"  time="-9999999/1" value="1" leadInLength="0/1"  />
              </VectorParam>
              <VectorParam id="1686"  name="anchor">
               <InterpolatingParam id="1687" interp="linr"  time="0/1" value="0" leadInLength="0/1"  />
               <InterpolatingParam id="1688" interp="linr"  time="0/1" value="0" leadInLength="0/1"  />
               <InterpolatingParam id="1689" interp="linr"  time="0/1" value="0" leadInLength="0/1"  />
              </VectorParam>
             </Transformer>
             <Parameters>
              <VectorParam id="1690"  name="sourceCrop">
               <InterpolatingParam id="1691" interp="linr"  time="0/1" value="0" leadInLength="0/1"  />
               <InterpolatingParam id="1692" interp="linr"  time="0/1" value="0" leadInLength="0/1"  />
               <InterpolatingParam id="1693" interp="linr"  time="0/1" value="0" leadInLength="0/1"  />
               <InterpolatingParam id="1694" interp="linr"  time="0/1" value="0" leadInLength="0/1"  />
              </VectorParam>
              <VectorParam id="1695"  name="geometryCrop">
               <InterpolatingParam id="1696" interp="linr"  time="-9999999/1" value="0" leadInLength="0/1"  />
               <InterpolatingParam id="1697" interp="linr"  time="-9999999/1" value="0" leadInLength="0/1"  />
               <InterpolatingParam id="1698" interp="linr"  time="-9999999/1" value="0" leadInLength="0/1"  />
               <InterpolatingParam id="1699" interp="linr"  time="-9999999/1" value="0" leadInLength="0/1"  />
              </VectorParam>
              <InterpolatingParam id="1700" interp="linr"  time="-9999999/1" value="1" leadInLength="0/1"  name="opacity"/>
              <InterpolatingParam id="1701" interp="linr"  time="0/1" value="0" leadInLength="0/1"  name="cursorOpacity"/>
              <InterpolatingParam id="1702" interp="linr"  time="0/1" value="0" leadInLength="0/1"  name="cursorScale"/>
             </Parameters>
             <Attributes>
              <Attribute id="1703" value="" name="ident"/>
             </Attributes>
             <ExtraData>
              <Entry key="ZoomPanBin">
               <ZoomPanBin id="1704"  >
                <ZoomPanKeyframes>
                 <ZoomPanKeyframe id="1705" timeRangeEnd="-9999999/1" timeRangeDuration="0/1" interpolaterName=""  />
                </ZoomPanKeyframes>
               </ZoomPanBin>
              </Entry>
              <Entry key="CursorEffectBin">
               <CursorEffectBin id="1706"  >
                <CursorEffectKeyframes>
                </CursorEffectKeyframes>
               </CursorEffectBin>
              </Entry>
             </ExtraData>
            </ScreenVMFile>
            <MetaData>
             <entry key="AutoAppliedSmartFocus" val="False"/>
             <entry key="WinSubProjectDisplayName" val=""/>
            </MetaData>
           </UnifiedMedia>
           <UnifiedMedia id="1707"  >
            <AMFile id="1708" start="2161" duration="33" scalar="1/1" mediaStart="2479/1" mediaDuration="33/1" trackNumber="1" src="5" channelNumber="0,1" >
             <Parameters>
              <InterpolatingParam id="1709" interp="linr"  time="0/1" value="1" leadInLength="0/1"  name="volume"/>
              <Parameter id="1710"  name="captions"/>
             </Parameters>
             <Attributes>
              <Attribute id="1711" value="" name="ident"/>
              <Attribute id="1712" value="44100" name="sampleRate"/>
              <Attribute id="1713" value="16" name="bitDepth"/>
              <Attribute id="1714" value="1" name="gain"/>
              <Attribute id="1715" value="0" name="mixToMono"/>
             </Attributes>
            </AMFile>
            <ScreenVMFile id="1716" start="2161" duration="33" scalar="1/1" mediaStart="2479/1" mediaDuration="33/1" trackNumber="0" src="5" >
             <Transformer>
              <VectorParam id="1717"  name="translation">
               <InterpolatingParam id="1718" interp="linr"  time="-9999999/1" value="0" leadInLength="0/1"  />
               <InterpolatingParam id="1719" interp="linr"  time="-9999999/1" value="0" leadInLength="0/1"  />
               <InterpolatingParam id="1720" interp="linr"  time="-9999999/1" value="0" leadInLength="0/1"  />
              </VectorParam>
              <VectorParam id="1721"  name="rotation">
               <InterpolatingParam id="1722" interp="linr"  time="-9999999/1" value="0" leadInLength="0/1"  />
               <InterpolatingParam id="1723" interp="linr"  time="-9999999/1" value="0" leadInLength="0/1"  />
               <InterpolatingParam id="1724" interp="linr"  time="-9999999/1" value="0" leadInLength="0/1"  />
              </VectorParam>
              <VectorParam id="1725"  name="shear">
               <InterpolatingParam id="1726" interp="linr"  time="-9999999/1" value="0" leadInLength="0/1"  />
               <InterpolatingParam id="1727" interp="linr"  time="-9999999/1" value="0" leadInLength="0/1"  />
               <InterpolatingParam id="1728" interp="linr"  time="-9999999/1" value="0" leadInLength="0/1"  />
              </VectorParam>
              <VectorParam id="1729"  name="scale">
               <InterpolatingParam id="1730" interp="linr"  time="-9999999/1" value="1" leadInLength="0/1"  />
               <InterpolatingParam id="1731" interp="linr"  time="-9999999/1" value="1" leadInLength="0/1"  />
               <InterpolatingParam id="1732" interp="linr"  time="-9999999/1" value="1" leadInLength="0/1"  />
              </VectorParam>
              <VectorParam id="1733"  name="anchor">
               <InterpolatingParam id="1734" interp="linr"  time="0/1" value="0" leadInLength="0/1"  />
               <InterpolatingParam id="1735" interp="linr"  time="0/1" value="0" leadInLength="0/1"  />
               <InterpolatingParam id="1736" interp="linr"  time="0/1" value="0" leadInLength="0/1"  />
              </VectorParam>
             </Transformer>
             <Parameters>
              <VectorParam id="1737"  name="sourceCrop">
               <InterpolatingParam id="1738" interp="linr"  time="0/1" value="0" leadInLength="0/1"  />
               <InterpolatingParam id="1739" interp="linr"  time="0/1" value="0" leadInLength="0/1"  />
               <InterpolatingParam id="1740" interp="linr"  time="0/1" value="0" leadInLength="0/1"  />
               <InterpolatingParam id="1741" interp="linr"  time="0/1" value="0" leadInLength="0/1"  />
              </VectorParam>
              <VectorParam id="1742"  name="geometryCrop">
               <InterpolatingParam id="1743" interp="linr"  time="-9999999/1" value="0" leadInLength="0/1"  />
               <InterpolatingParam id="1744" interp="linr"  time="-9999999/1" value="0" leadInLength="0/1"  />
               <InterpolatingParam id="1745" interp="linr"  time="-9999999/1" value="0" leadInLength="0/1"  />
               <InterpolatingParam id="1746" interp="linr"  time="-9999999/1" value="0" leadInLength="0/1"  />
              </VectorParam>
              <InterpolatingParam id="1747" interp="linr"  time="-9999999/1" value="1" leadInLength="0/1"  name="opacity"/>
              <InterpolatingParam id="1748" interp="linr"  time="0/1" value="0" leadInLength="0/1"  name="cursorOpacity"/>
              <InterpolatingParam id="1749" interp="linr"  time="0/1" value="0" leadInLength="0/1"  name="cursorScale"/>
             </Parameters>
             <Attributes>
              <Attribute id="1750" value="" name="ident"/>
             </Attributes>
             <ExtraData>
              <Entry key="ZoomPanBin">
               <ZoomPanBin id="1751"  >
                <ZoomPanKeyframes>
                 <ZoomPanKeyframe id="1752" timeRangeEnd="-9999999/1" timeRangeDuration="0/1" interpolaterName=""  />
                </ZoomPanKeyframes>
               </ZoomPanBin>
              </Entry>
              <Entry key="CursorEffectBin">
               <CursorEffectBin id="1753"  >
                <CursorEffectKeyframes>
                </CursorEffectKeyframes>
               </CursorEffectBin>
              </Entry>
             </ExtraData>
            </ScreenVMFile>
            <MetaData>
             <entry key="AutoAppliedSmartFocus" val="False"/>
             <entry key="WinSubProjectDisplayName" val=""/>
            </MetaData>
           </UnifiedMedia>
           <UnifiedMedia id="1754"  >
            <AMFile id="1755" start="2194" duration="89" scalar="1/1" mediaStart="2526/1" mediaDuration="89/1" trackNumber="1" src="5" channelNumber="0,1" >
             <Parameters>
              <InterpolatingParam id="1756" interp="linr"  time="0/1" value="1" leadInLength="0/1"  name="volume"/>
              <Parameter id="1757"  name="captions"/>
             </Parameters>
             <Attributes>
              <Attribute id="1758" value="" name="ident"/>
              <Attribute id="1759" value="44100" name="sampleRate"/>
              <Attribute id="1760" value="16" name="bitDepth"/>
              <Attribute id="1761" value="1" name="gain"/>
              <Attribute id="1762" value="0" name="mixToMono"/>
             </Attributes>
            </AMFile>
            <ScreenVMFile id="1763" start="2194" duration="89" scalar="1/1" mediaStart="2526/1" mediaDuration="89/1" trackNumber="0" src="5" >
             <Transformer>
              <VectorParam id="1764"  name="translation">
               <InterpolatingParam id="1765" interp="linr"  time="-9999999/1" value="0" leadInLength="0/1"  />
               <InterpolatingParam id="1766" interp="linr"  time="-9999999/1" value="0" leadInLength="0/1"  />
               <InterpolatingParam id="1767" interp="linr"  time="-9999999/1" value="0" leadInLength="0/1"  />
              </VectorParam>
              <VectorParam id="1768"  name="rotation">
               <InterpolatingParam id="1769" interp="linr"  time="-9999999/1" value="0" leadInLength="0/1"  />
               <InterpolatingParam id="1770" interp="linr"  time="-9999999/1" value="0" leadInLength="0/1"  />
               <InterpolatingParam id="1771" interp="linr"  time="-9999999/1" value="0" leadInLength="0/1"  />
              </VectorParam>
              <VectorParam id="1772"  name="shear">
               <InterpolatingParam id="1773" interp="linr"  time="-9999999/1" value="0" leadInLength="0/1"  />
               <InterpolatingParam id="1774" interp="linr"  time="-9999999/1" value="0" leadInLength="0/1"  />
               <InterpolatingParam id="1775" interp="linr"  time="-9999999/1" value="0" leadInLength="0/1"  />
              </VectorParam>
              <VectorParam id="1776"  name="scale">
               <InterpolatingParam id="1777" interp="linr"  time="-9999999/1" value="1" leadInLength="0/1"  />
               <InterpolatingParam id="1778" interp="linr"  time="-9999999/1" value="1" leadInLength="0/1"  />
               <InterpolatingParam id="1779" interp="linr"  time="-9999999/1" value="1" leadInLength="0/1"  />
              </VectorParam>
              <VectorParam id="1780"  name="anchor">
               <InterpolatingParam id="1781" interp="linr"  time="0/1" value="0" leadInLength="0/1"  />
               <InterpolatingParam id="1782" interp="linr"  time="0/1" value="0" leadInLength="0/1"  />
               <InterpolatingParam id="1783" interp="linr"  time="0/1" value="0" leadInLength="0/1"  />
              </VectorParam>
             </Transformer>
             <Parameters>
              <VectorParam id="1784"  name="sourceCrop">
               <InterpolatingParam id="1785" interp="linr"  time="0/1" value="0" leadInLength="0/1"  />
               <InterpolatingParam id="1786" interp="linr"  time="0/1" value="0" leadInLength="0/1"  />
               <InterpolatingParam id="1787" interp="linr"  time="0/1" value="0" leadInLength="0/1"  />
               <InterpolatingParam id="1788" interp="linr"  time="0/1" value="0" leadInLength="0/1"  />
              </VectorParam>
              <VectorParam id="1789"  name="geometryCrop">
               <InterpolatingParam id="1790" interp="linr"  time="-9999999/1" value="0" leadInLength="0/1"  />
               <InterpolatingParam id="1791" interp="linr"  time="-9999999/1" value="0" leadInLength="0/1"  />
               <InterpolatingParam id="1792" interp="linr"  time="-9999999/1" value="0" leadInLength="0/1"  />
               <InterpolatingParam id="1793" interp="linr"  time="-9999999/1" value="0" leadInLength="0/1"  />
              </VectorParam>
              <InterpolatingParam id="1794" interp="linr"  time="-9999999/1" value="1" leadInLength="0/1"  name="opacity"/>
              <InterpolatingParam id="1795" interp="linr"  time="0/1" value="0" leadInLength="0/1"  name="cursorOpacity"/>
              <InterpolatingParam id="1796" interp="linr"  time="0/1" value="0" leadInLength="0/1"  name="cursorScale"/>
             </Parameters>
             <Attributes>
              <Attribute id="1797" value="" name="ident"/>
             </Attributes>
             <ExtraData>
              <Entry key="ZoomPanBin">
               <ZoomPanBin id="1798"  >
                <ZoomPanKeyframes>
                 <ZoomPanKeyframe id="1799" timeRangeEnd="-9999999/1" timeRangeDuration="0/1" interpolaterName=""  />
                </ZoomPanKeyframes>
               </ZoomPanBin>
              </Entry>
              <Entry key="CursorEffectBin">
               <CursorEffectBin id="1800"  >
                <CursorEffectKeyframes>
                </CursorEffectKeyframes>
               </CursorEffectBin>
              </Entry>
             </ExtraData>
            </ScreenVMFile>
            <MetaData>
             <entry key="AutoAppliedSmartFocus" val="False"/>
             <entry key="WinSubProjectDisplayName" val=""/>
            </MetaData>
           </UnifiedMedia>
           <UnifiedMedia id="1801"  >
            <AMFile id="1802" start="2283" duration="311" scalar="1/1" mediaStart="2676/1" mediaDuration="311/1" trackNumber="1" src="5" channelNumber="0,1" >
             <Parameters>
              <InterpolatingParam id="1803" interp="linr"  time="0/1" value="1" leadInLength="0/1"  name="volume"/>
              <Parameter id="1804"  name="captions"/>
             </Parameters>
             <Attributes>
              <Attribute id="1805" value="" name="ident"/>
              <Attribute id="1806" value="44100" name="sampleRate"/>
              <Attribute id="1807" value="16" name="bitDepth"/>
              <Attribute id="1808" value="1" name="gain"/>
              <Attribute id="1809" value="0" name="mixToMono"/>
             </Attributes>
            </AMFile>
            <ScreenVMFile id="1810" start="2283" duration="311" scalar="1/1" mediaStart="2676/1" mediaDuration="311/1" trackNumber="0" src="5" >
             <Transformer>
              <VectorParam id="1811"  name="translation">
               <InterpolatingParam id="1812" interp="linr"  time="-9999999/1" value="0" leadInLength="0/1"  />
               <InterpolatingParam id="1813" interp="linr"  time="-9999999/1" value="0" leadInLength="0/1"  />
               <InterpolatingParam id="1814" interp="linr"  time="-9999999/1" value="0" leadInLength="0/1"  />
              </VectorParam>
              <VectorParam id="1815"  name="rotation">
               <InterpolatingParam id="1816" interp="linr"  time="-9999999/1" value="0" leadInLength="0/1"  />
               <InterpolatingParam id="1817" interp="linr"  time="-9999999/1" value="0" leadInLength="0/1"  />
               <InterpolatingParam id="1818" interp="linr"  time="-9999999/1" value="0" leadInLength="0/1"  />
              </VectorParam>
              <VectorParam id="1819"  name="shear">
               <InterpolatingParam id="1820" interp="linr"  time="-9999999/1" value="0" leadInLength="0/1"  />
               <InterpolatingParam id="1821" interp="linr"  time="-9999999/1" value="0" leadInLength="0/1"  />
               <InterpolatingParam id="1822" interp="linr"  time="-9999999/1" value="0" leadInLength="0/1"  />
              </VectorParam>
              <VectorParam id="1823"  name="scale">
               <InterpolatingParam id="1824" interp="linr"  time="-9999999/1" value="1" leadInLength="0/1"  />
               <InterpolatingParam id="1825" interp="linr"  time="-9999999/1" value="1" leadInLength="0/1"  />
               <InterpolatingParam id="1826" interp="linr"  time="-9999999/1" value="1" leadInLength="0/1"  />
              </VectorParam>
              <VectorParam id="1827"  name="anchor">
               <InterpolatingParam id="1828" interp="linr"  time="0/1" value="0" leadInLength="0/1"  />
               <InterpolatingParam id="1829" interp="linr"  time="0/1" value="0" leadInLength="0/1"  />
               <InterpolatingParam id="1830" interp="linr"  time="0/1" value="0" leadInLength="0/1"  />
              </VectorParam>
             </Transformer>
             <Parameters>
              <VectorParam id="1831"  name="sourceCrop">
               <InterpolatingParam id="1832" interp="linr"  time="0/1" value="0" leadInLength="0/1"  />
               <InterpolatingParam id="1833" interp="linr"  time="0/1" value="0" leadInLength="0/1"  />
               <InterpolatingParam id="1834" interp="linr"  time="0/1" value="0" leadInLength="0/1"  />
               <InterpolatingParam id="1835" interp="linr"  time="0/1" value="0" leadInLength="0/1"  />
              </VectorParam>
              <VectorParam id="1836"  name="geometryCrop">
               <InterpolatingParam id="1837" interp="linr"  time="-9999999/1" value="0" leadInLength="0/1"  />
               <InterpolatingParam id="1838" interp="linr"  time="-9999999/1" value="0" leadInLength="0/1"  />
               <InterpolatingParam id="1839" interp="linr"  time="-9999999/1" value="0" leadInLength="0/1"  />
               <InterpolatingParam id="1840" interp="linr"  time="-9999999/1" value="0" leadInLength="0/1"  />
              </VectorParam>
              <InterpolatingParam id="1841" interp="linr"  time="-9999999/1" value="1" leadInLength="0/1"  name="opacity"/>
              <InterpolatingParam id="1842" interp="linr"  time="0/1" value="0" leadInLength="0/1"  name="cursorOpacity"/>
              <InterpolatingParam id="1843" interp="linr"  time="0/1" value="0" leadInLength="0/1"  name="cursorScale"/>
             </Parameters>
             <Attributes>
              <Attribute id="1844" value="" name="ident"/>
             </Attributes>
             <ExtraData>
              <Entry key="ZoomPanBin">
               <ZoomPanBin id="1845"  >
                <ZoomPanKeyframes>
                 <ZoomPanKeyframe id="1846" timeRangeEnd="-9999999/1" timeRangeDuration="0/1" interpolaterName=""  />
                </ZoomPanKeyframes>
               </ZoomPanBin>
              </Entry>
              <Entry key="CursorEffectBin">
               <CursorEffectBin id="1847"  >
                <CursorEffectKeyframes>
                </CursorEffectKeyframes>
               </CursorEffectBin>
              </Entry>
             </ExtraData>
            </ScreenVMFile>
            <MetaData>
             <entry key="AutoAppliedSmartFocus" val="False"/>
             <entry key="WinSubProjectDisplayName" val=""/>
            </MetaData>
           </UnifiedMedia>
           <UnifiedMedia id="1848"  >
            <AMFile id="1849" start="2594" duration="623" scalar="1/1" mediaStart="3101/1" mediaDuration="623/1" trackNumber="1" src="5" channelNumber="0,1" >
             <Parameters>
              <InterpolatingParam id="1850" interp="linr"  time="0/1" value="1" leadInLength="0/1"  name="volume"/>
              <Parameter id="1851"  name="captions"/>
             </Parameters>
             <Attributes>
              <Attribute id="1852" value="" name="ident"/>
              <Attribute id="1853" value="44100" name="sampleRate"/>
              <Attribute id="1854" value="16" name="bitDepth"/>
              <Attribute id="1855" value="1" name="gain"/>
              <Attribute id="1856" value="0" name="mixToMono"/>
             </Attributes>
            </AMFile>
            <ScreenVMFile id="1857" start="2594" duration="623" scalar="1/1" mediaStart="3101/1" mediaDuration="623/1" trackNumber="0" src="5" >
             <Transformer>
              <VectorParam id="1858"  name="translation">
               <InterpolatingParam id="1859" interp="linr"  time="-9999999/1" value="0" leadInLength="0/1"  />
               <InterpolatingParam id="1860" interp="linr"  time="-9999999/1" value="0" leadInLength="0/1"  />
               <InterpolatingParam id="1861" interp="linr"  time="-9999999/1" value="0" leadInLength="0/1"  />
              </VectorParam>
              <VectorParam id="1862"  name="rotation">
               <InterpolatingParam id="1863" interp="linr"  time="-9999999/1" value="0" leadInLength="0/1"  />
               <InterpolatingParam id="1864" interp="linr"  time="-9999999/1" value="0" leadInLength="0/1"  />
               <InterpolatingParam id="1865" interp="linr"  time="-9999999/1" value="0" leadInLength="0/1"  />
              </VectorParam>
              <VectorParam id="1866"  name="shear">
               <InterpolatingParam id="1867" interp="linr"  time="-9999999/1" value="0" leadInLength="0/1"  />
               <InterpolatingParam id="1868" interp="linr"  time="-9999999/1" value="0" leadInLength="0/1"  />
               <InterpolatingParam id="1869" interp="linr"  time="-9999999/1" value="0" leadInLength="0/1"  />
              </VectorParam>
              <VectorParam id="1870"  name="scale">
               <InterpolatingParam id="1871" interp="linr"  time="-9999999/1" value="1" leadInLength="0/1"  />
               <InterpolatingParam id="1872" interp="linr"  time="-9999999/1" value="1" leadInLength="0/1"  />
               <InterpolatingParam id="1873" interp="linr"  time="-9999999/1" value="1" leadInLength="0/1"  />
              </VectorParam>
              <VectorParam id="1874"  name="anchor">
               <InterpolatingParam id="1875" interp="linr"  time="0/1" value="0" leadInLength="0/1"  />
               <InterpolatingParam id="1876" interp="linr"  time="0/1" value="0" leadInLength="0/1"  />
               <InterpolatingParam id="1877" interp="linr"  time="0/1" value="0" leadInLength="0/1"  />
              </VectorParam>
             </Transformer>
             <Parameters>
              <VectorParam id="1878"  name="sourceCrop">
               <InterpolatingParam id="1879" interp="linr"  time="0/1" value="0" leadInLength="0/1"  />
               <InterpolatingParam id="1880" interp="linr"  time="0/1" value="0" leadInLength="0/1"  />
               <InterpolatingParam id="1881" interp="linr"  time="0/1" value="0" leadInLength="0/1"  />
               <InterpolatingParam id="1882" interp="linr"  time="0/1" value="0" leadInLength="0/1"  />
              </VectorParam>
              <VectorParam id="1883"  name="geometryCrop">
               <InterpolatingParam id="1884" interp="linr"  time="-9999999/1" value="0" leadInLength="0/1"  />
               <InterpolatingParam id="1885" interp="linr"  time="-9999999/1" value="0" leadInLength="0/1"  />
               <InterpolatingParam id="1886" interp="linr"  time="-9999999/1" value="0" leadInLength="0/1"  />
               <InterpolatingParam id="1887" interp="linr"  time="-9999999/1" value="0" leadInLength="0/1"  />
              </VectorParam>
              <InterpolatingParam id="1888" interp="linr"  time="-9999999/1" value="1" leadInLength="0/1"  name="opacity"/>
              <InterpolatingParam id="1889" interp="linr"  time="0/1" value="0" leadInLength="0/1"  name="cursorOpacity"/>
              <InterpolatingParam id="1890" interp="linr"  time="0/1" value="0" leadInLength="0/1"  name="cursorScale"/>
             </Parameters>
             <Attributes>
              <Attribute id="1891" value="" name="ident"/>
             </Attributes>
             <ExtraData>
              <Entry key="ZoomPanBin">
               <ZoomPanBin id="1892"  >
                <ZoomPanKeyframes>
                 <ZoomPanKeyframe id="1893" timeRangeEnd="-9999999/1" timeRangeDuration="0/1" interpolaterName=""  />
                </ZoomPanKeyframes>
               </ZoomPanBin>
              </Entry>
              <Entry key="CursorEffectBin">
               <CursorEffectBin id="1894"  >
                <CursorEffectKeyframes>
                </CursorEffectKeyframes>
               </CursorEffectBin>
              </Entry>
             </ExtraData>
            </ScreenVMFile>
            <MetaData>
             <entry key="AutoAppliedSmartFocus" val="False"/>
             <entry key="WinSubProjectDisplayName" val=""/>
            </MetaData>
           </UnifiedMedia>
           <UnifiedMedia id="1895"  >
            <AMFile id="1896" start="3217" duration="82" scalar="1/1" mediaStart="3754/1" mediaDuration="82/1" trackNumber="1" src="5" channelNumber="0,1" >
             <Parameters>
              <InterpolatingParam id="1897" interp="linr"  time="0/1" value="1" leadInLength="0/1"  name="volume"/>
              <Parameter id="1898"  name="captions"/>
             </Parameters>
             <Attributes>
              <Attribute id="1899" value="" name="ident"/>
              <Attribute id="1900" value="44100" name="sampleRate"/>
              <Attribute id="1901" value="16" name="bitDepth"/>
              <Attribute id="1902" value="1" name="gain"/>
              <Attribute id="1903" value="0" name="mixToMono"/>
             </Attributes>
            </AMFile>
            <ScreenVMFile id="1904" start="3217" duration="82" scalar="1/1" mediaStart="3754/1" mediaDuration="82/1" trackNumber="0" src="5" >
             <Transformer>
              <VectorParam id="1905"  name="translation">
               <InterpolatingParam id="1906" interp="linr"  time="-9999999/1" value="0" leadInLength="0/1"  />
               <InterpolatingParam id="1907" interp="linr"  time="-9999999/1" value="0" leadInLength="0/1"  />
               <InterpolatingParam id="1908" interp="linr"  time="-9999999/1" value="0" leadInLength="0/1"  />
              </VectorParam>
              <VectorParam id="1909"  name="rotation">
               <InterpolatingParam id="1910" interp="linr"  time="-9999999/1" value="0" leadInLength="0/1"  />
               <InterpolatingParam id="1911" interp="linr"  time="-9999999/1" value="0" leadInLength="0/1"  />
               <InterpolatingParam id="1912" interp="linr"  time="-9999999/1" value="0" leadInLength="0/1"  />
              </VectorParam>
              <VectorParam id="1913"  name="shear">
               <InterpolatingParam id="1914" interp="linr"  time="-9999999/1" value="0" leadInLength="0/1"  />
               <InterpolatingParam id="1915" interp="linr"  time="-9999999/1" value="0" leadInLength="0/1"  />
               <InterpolatingParam id="1916" interp="linr"  time="-9999999/1" value="0" leadInLength="0/1"  />
              </VectorParam>
              <VectorParam id="1917"  name="scale">
               <InterpolatingParam id="1918" interp="linr"  time="-9999999/1" value="1" leadInLength="0/1"  />
               <InterpolatingParam id="1919" interp="linr"  time="-9999999/1" value="1" leadInLength="0/1"  />
               <InterpolatingParam id="1920" interp="linr"  time="-9999999/1" value="1" leadInLength="0/1"  />
              </VectorParam>
              <VectorParam id="1921"  name="anchor">
               <InterpolatingParam id="1922" interp="linr"  time="0/1" value="0" leadInLength="0/1"  />
               <InterpolatingParam id="1923" interp="linr"  time="0/1" value="0" leadInLength="0/1"  />
               <InterpolatingParam id="1924" interp="linr"  time="0/1" value="0" leadInLength="0/1"  />
              </VectorParam>
             </Transformer>
             <Parameters>
              <VectorParam id="1925"  name="sourceCrop">
               <InterpolatingParam id="1926" interp="linr"  time="0/1" value="0" leadInLength="0/1"  />
               <InterpolatingParam id="1927" interp="linr"  time="0/1" value="0" leadInLength="0/1"  />
               <InterpolatingParam id="1928" interp="linr"  time="0/1" value="0" leadInLength="0/1"  />
               <InterpolatingParam id="1929" interp="linr"  time="0/1" value="0" leadInLength="0/1"  />
              </VectorParam>
              <VectorParam id="1930"  name="geometryCrop">
               <InterpolatingParam id="1931" interp="linr"  time="-9999999/1" value="0" leadInLength="0/1"  />
               <InterpolatingParam id="1932" interp="linr"  time="-9999999/1" value="0" leadInLength="0/1"  />
               <InterpolatingParam id="1933" interp="linr"  time="-9999999/1" value="0" leadInLength="0/1"  />
               <InterpolatingParam id="1934" interp="linr"  time="-9999999/1" value="0" leadInLength="0/1"  />
              </VectorParam>
              <InterpolatingParam id="1935" interp="linr"  time="-9999999/1" value="1" leadInLength="0/1"  name="opacity"/>
              <InterpolatingParam id="1936" interp="linr"  time="0/1" value="0" leadInLength="0/1"  name="cursorOpacity"/>
              <InterpolatingParam id="1937" interp="linr"  time="0/1" value="0" leadInLength="0/1"  name="cursorScale"/>
             </Parameters>
             <Attributes>
              <Attribute id="1938" value="" name="ident"/>
             </Attributes>
             <ExtraData>
              <Entry key="ZoomPanBin">
               <ZoomPanBin id="1939"  >
                <ZoomPanKeyframes>
                 <ZoomPanKeyframe id="1940" timeRangeEnd="-9999999/1" timeRangeDuration="0/1" interpolaterName=""  />
                </ZoomPanKeyframes>
               </ZoomPanBin>
              </Entry>
              <Entry key="CursorEffectBin">
               <CursorEffectBin id="1941"  >
                <CursorEffectKeyframes>
                </CursorEffectKeyframes>
               </CursorEffectBin>
              </Entry>
             </ExtraData>
            </ScreenVMFile>
            <MetaData>
             <entry key="AutoAppliedSmartFocus" val="False"/>
             <entry key="WinSubProjectDisplayName" val=""/>
            </MetaData>
           </UnifiedMedia>
           <UnifiedMedia id="1942"  >
            <AMFile id="1943" start="3299" duration="33" scalar="1/1" mediaStart="3892/1" mediaDuration="33/1" trackNumber="1" src="5" channelNumber="0,1" >
             <Parameters>
              <InterpolatingParam id="1944" interp="linr"  time="0/1" value="1" leadInLength="0/1"  name="volume"/>
              <Parameter id="1945"  name="captions"/>
             </Parameters>
             <Attributes>
              <Attribute id="1946" value="" name="ident"/>
              <Attribute id="1947" value="44100" name="sampleRate"/>
              <Attribute id="1948" value="16" name="bitDepth"/>
              <Attribute id="1949" value="1" name="gain"/>
              <Attribute id="1950" value="0" name="mixToMono"/>
             </Attributes>
            </AMFile>
            <ScreenVMFile id="1951" start="3299" duration="33" scalar="1/1" mediaStart="3892/1" mediaDuration="33/1" trackNumber="0" src="5" >
             <Transformer>
              <VectorParam id="1952"  name="translation">
               <InterpolatingParam id="1953" interp="linr"  time="-9999999/1" value="0" leadInLength="0/1"  />
               <InterpolatingParam id="1954" interp="linr"  time="-9999999/1" value="0" leadInLength="0/1"  />
               <InterpolatingParam id="1955" interp="linr"  time="-9999999/1" value="0" leadInLength="0/1"  />
              </VectorParam>
              <VectorParam id="1956"  name="rotation">
               <InterpolatingParam id="1957" interp="linr"  time="-9999999/1" value="0" leadInLength="0/1"  />
               <InterpolatingParam id="1958" interp="linr"  time="-9999999/1" value="0" leadInLength="0/1"  />
               <InterpolatingParam id="1959" interp="linr"  time="-9999999/1" value="0" leadInLength="0/1"  />
              </VectorParam>
              <VectorParam id="1960"  name="shear">
               <InterpolatingParam id="1961" interp="linr"  time="-9999999/1" value="0" leadInLength="0/1"  />
               <InterpolatingParam id="1962" interp="linr"  time="-9999999/1" value="0" leadInLength="0/1"  />
               <InterpolatingParam id="1963" interp="linr"  time="-9999999/1" value="0" leadInLength="0/1"  />
              </VectorParam>
              <VectorParam id="1964"  name="scale">
               <InterpolatingParam id="1965" interp="linr"  time="-9999999/1" value="1" leadInLength="0/1"  />
               <InterpolatingParam id="1966" interp="linr"  time="-9999999/1" value="1" leadInLength="0/1"  />
               <InterpolatingParam id="1967" interp="linr"  time="-9999999/1" value="1" leadInLength="0/1"  />
              </VectorParam>
              <VectorParam id="1968"  name="anchor">
               <InterpolatingParam id="1969" interp="linr"  time="0/1" value="0" leadInLength="0/1"  />
               <InterpolatingParam id="1970" interp="linr"  time="0/1" value="0" leadInLength="0/1"  />
               <InterpolatingParam id="1971" interp="linr"  time="0/1" value="0" leadInLength="0/1"  />
              </VectorParam>
             </Transformer>
             <Parameters>
              <VectorParam id="1972"  name="sourceCrop">
               <InterpolatingParam id="1973" interp="linr"  time="0/1" value="0" leadInLength="0/1"  />
               <InterpolatingParam id="1974" interp="linr"  time="0/1" value="0" leadInLength="0/1"  />
               <InterpolatingParam id="1975" interp="linr"  time="0/1" value="0" leadInLength="0/1"  />
               <InterpolatingParam id="1976" interp="linr"  time="0/1" value="0" leadInLength="0/1"  />
              </VectorParam>
              <VectorParam id="1977"  name="geometryCrop">
               <InterpolatingParam id="1978" interp="linr"  time="-9999999/1" value="0" leadInLength="0/1"  />
               <InterpolatingParam id="1979" interp="linr"  time="-9999999/1" value="0" leadInLength="0/1"  />
               <InterpolatingParam id="1980" interp="linr"  time="-9999999/1" value="0" leadInLength="0/1"  />
               <InterpolatingParam id="1981" interp="linr"  time="-9999999/1" value="0" leadInLength="0/1"  />
              </VectorParam>
              <InterpolatingParam id="1982" interp="linr"  time="-9999999/1" value="1" leadInLength="0/1"  name="opacity"/>
              <InterpolatingParam id="1983" interp="linr"  time="0/1" value="0" leadInLength="0/1"  name="cursorOpacity"/>
              <InterpolatingParam id="1984" interp="linr"  time="0/1" value="0" leadInLength="0/1"  name="cursorScale"/>
             </Parameters>
             <Attributes>
              <Attribute id="1985" value="" name="ident"/>
             </Attributes>
             <ExtraData>
              <Entry key="ZoomPanBin">
               <ZoomPanBin id="1986"  >
                <ZoomPanKeyframes>
                 <ZoomPanKeyframe id="1987" timeRangeEnd="-9999999/1" timeRangeDuration="0/1" interpolaterName=""  />
                </ZoomPanKeyframes>
               </ZoomPanBin>
              </Entry>
              <Entry key="CursorEffectBin">
               <CursorEffectBin id="1988"  >
                <CursorEffectKeyframes>
                </CursorEffectKeyframes>
               </CursorEffectBin>
              </Entry>
             </ExtraData>
            </ScreenVMFile>
            <MetaData>
             <entry key="AutoAppliedSmartFocus" val="False"/>
             <entry key="WinSubProjectDisplayName" val=""/>
            </MetaData>
           </UnifiedMedia>
           <UnifiedMedia id="1989"  >
            <AMFile id="1990" start="3332" duration="33" scalar="1/1" mediaStart="4067/1" mediaDuration="33/1" trackNumber="1" src="5" channelNumber="0,1" >
             <Parameters>
              <InterpolatingParam id="1991" interp="linr"  time="0/1" value="1" leadInLength="0/1"  name="volume"/>
              <Parameter id="1992"  name="captions"/>
             </Parameters>
             <Attributes>
              <Attribute id="1993" value="" name="ident"/>
              <Attribute id="1994" value="44100" name="sampleRate"/>
              <Attribute id="1995" value="16" name="bitDepth"/>
              <Attribute id="1996" value="1" name="gain"/>
              <Attribute id="1997" value="0" name="mixToMono"/>
             </Attributes>
            </AMFile>
            <ScreenVMFile id="1998" start="3332" duration="33" scalar="1/1" mediaStart="4067/1" mediaDuration="33/1" trackNumber="0" src="5" >
             <Transformer>
              <VectorParam id="1999"  name="translation">
               <InterpolatingParam id="2000" interp="linr"  time="-9999999/1" value="0" leadInLength="0/1"  />
               <InterpolatingParam id="2001" interp="linr"  time="-9999999/1" value="0" leadInLength="0/1"  />
               <InterpolatingParam id="2002" interp="linr"  time="-9999999/1" value="0" leadInLength="0/1"  />
              </VectorParam>
              <VectorParam id="2003"  name="rotation">
               <InterpolatingParam id="2004" interp="linr"  time="-9999999/1" value="0" leadInLength="0/1"  />
               <InterpolatingParam id="2005" interp="linr"  time="-9999999/1" value="0" leadInLength="0/1"  />
               <InterpolatingParam id="2006" interp="linr"  time="-9999999/1" value="0" leadInLength="0/1"  />
              </VectorParam>
              <VectorParam id="2007"  name="shear">
               <InterpolatingParam id="2008" interp="linr"  time="-9999999/1" value="0" leadInLength="0/1"  />
               <InterpolatingParam id="2009" interp="linr"  time="-9999999/1" value="0" leadInLength="0/1"  />
               <InterpolatingParam id="2010" interp="linr"  time="-9999999/1" value="0" leadInLength="0/1"  />
              </VectorParam>
              <VectorParam id="2011"  name="scale">
               <InterpolatingParam id="2012" interp="linr"  time="-9999999/1" value="1" leadInLength="0/1"  />
               <InterpolatingParam id="2013" interp="linr"  time="-9999999/1" value="1" leadInLength="0/1"  />
               <InterpolatingParam id="2014" interp="linr"  time="-9999999/1" value="1" leadInLength="0/1"  />
              </VectorParam>
              <VectorParam id="2015"  name="anchor">
               <InterpolatingParam id="2016" interp="linr"  time="0/1" value="0" leadInLength="0/1"  />
               <InterpolatingParam id="2017" interp="linr"  time="0/1" value="0" leadInLength="0/1"  />
               <InterpolatingParam id="2018" interp="linr"  time="0/1" value="0" leadInLength="0/1"  />
              </VectorParam>
             </Transformer>
             <Parameters>
              <VectorParam id="2019"  name="sourceCrop">
               <InterpolatingParam id="2020" interp="linr"  time="0/1" value="0" leadInLength="0/1"  />
               <InterpolatingParam id="2021" interp="linr"  time="0/1" value="0" leadInLength="0/1"  />
               <InterpolatingParam id="2022" interp="linr"  time="0/1" value="0" leadInLength="0/1"  />
               <InterpolatingParam id="2023" interp="linr"  time="0/1" value="0" leadInLength="0/1"  />
              </VectorParam>
              <VectorParam id="2024"  name="geometryCrop">
               <InterpolatingParam id="2025" interp="linr"  time="-9999999/1" value="0" leadInLength="0/1"  />
               <InterpolatingParam id="2026" interp="linr"  time="-9999999/1" value="0" leadInLength="0/1"  />
               <InterpolatingParam id="2027" interp="linr"  time="-9999999/1" value="0" leadInLength="0/1"  />
               <InterpolatingParam id="2028" interp="linr"  time="-9999999/1" value="0" leadInLength="0/1"  />
              </VectorParam>
              <InterpolatingParam id="2029" interp="linr"  time="-9999999/1" value="1" leadInLength="0/1"  name="opacity"/>
              <InterpolatingParam id="2030" interp="linr"  time="0/1" value="0" leadInLength="0/1"  name="cursorOpacity"/>
              <InterpolatingParam id="2031" interp="linr"  time="0/1" value="0" leadInLength="0/1"  name="cursorScale"/>
             </Parameters>
             <Attributes>
              <Attribute id="2032" value="" name="ident"/>
             </Attributes>
             <ExtraData>
              <Entry key="ZoomPanBin">
               <ZoomPanBin id="2033"  >
                <ZoomPanKeyframes>
                 <ZoomPanKeyframe id="2034" timeRangeEnd="-9999999/1" timeRangeDuration="0/1" interpolaterName=""  />
                </ZoomPanKeyframes>
               </ZoomPanBin>
              </Entry>
              <Entry key="CursorEffectBin">
               <CursorEffectBin id="2035"  >
                <CursorEffectKeyframes>
                </CursorEffectKeyframes>
               </CursorEffectBin>
              </Entry>
             </ExtraData>
            </ScreenVMFile>
            <MetaData>
             <entry key="AutoAppliedSmartFocus" val="False"/>
             <entry key="WinSubProjectDisplayName" val=""/>
            </MetaData>
           </UnifiedMedia>
           <UnifiedMedia id="2036"  >
            <AMFile id="2037" start="3365" duration="46" scalar="1/1" mediaStart="4166/1" mediaDuration="46/1" trackNumber="1" src="5" channelNumber="0,1" >
             <Parameters>
              <InterpolatingParam id="2038" interp="linr"  time="0/1" value="1" leadInLength="0/1"  name="volume"/>
              <Parameter id="2039"  name="captions"/>
             </Parameters>
             <Attributes>
              <Attribute id="2040" value="" name="ident"/>
              <Attribute id="2041" value="44100" name="sampleRate"/>
              <Attribute id="2042" value="16" name="bitDepth"/>
              <Attribute id="2043" value="1" name="gain"/>
              <Attribute id="2044" value="0" name="mixToMono"/>
             </Attributes>
            </AMFile>
            <ScreenVMFile id="2045" start="3365" duration="46" scalar="1/1" mediaStart="4166/1" mediaDuration="46/1" trackNumber="0" src="5" >
             <Transformer>
              <VectorParam id="2046"  name="translation">
               <InterpolatingParam id="2047" interp="linr"  time="-9999999/1" value="0" leadInLength="0/1"  />
               <InterpolatingParam id="2048" interp="linr"  time="-9999999/1" value="0" leadInLength="0/1"  />
               <InterpolatingParam id="2049" interp="linr"  time="-9999999/1" value="0" leadInLength="0/1"  />
              </VectorParam>
              <VectorParam id="2050"  name="rotation">
               <InterpolatingParam id="2051" interp="linr"  time="-9999999/1" value="0" leadInLength="0/1"  />
               <InterpolatingParam id="2052" interp="linr"  time="-9999999/1" value="0" leadInLength="0/1"  />
               <InterpolatingParam id="2053" interp="linr"  time="-9999999/1" value="0" leadInLength="0/1"  />
              </VectorParam>
              <VectorParam id="2054"  name="shear">
               <InterpolatingParam id="2055" interp="linr"  time="-9999999/1" value="0" leadInLength="0/1"  />
               <InterpolatingParam id="2056" interp="linr"  time="-9999999/1" value="0" leadInLength="0/1"  />
               <InterpolatingParam id="2057" interp="linr"  time="-9999999/1" value="0" leadInLength="0/1"  />
              </VectorParam>
              <VectorParam id="2058"  name="scale">
               <InterpolatingParam id="2059" interp="linr"  time="-9999999/1" value="1" leadInLength="0/1"  />
               <InterpolatingParam id="2060" interp="linr"  time="-9999999/1" value="1" leadInLength="0/1"  />
               <InterpolatingParam id="2061" interp="linr"  time="-9999999/1" value="1" leadInLength="0/1"  />
              </VectorParam>
              <VectorParam id="2062"  name="anchor">
               <InterpolatingParam id="2063" interp="linr"  time="0/1" value="0" leadInLength="0/1"  />
               <InterpolatingParam id="2064" interp="linr"  time="0/1" value="0" leadInLength="0/1"  />
               <InterpolatingParam id="2065" interp="linr"  time="0/1" value="0" leadInLength="0/1"  />
              </VectorParam>
             </Transformer>
             <Parameters>
              <VectorParam id="2066"  name="sourceCrop">
               <InterpolatingParam id="2067" interp="linr"  time="0/1" value="0" leadInLength="0/1"  />
               <InterpolatingParam id="2068" interp="linr"  time="0/1" value="0" leadInLength="0/1"  />
               <InterpolatingParam id="2069" interp="linr"  time="0/1" value="0" leadInLength="0/1"  />
               <InterpolatingParam id="2070" interp="linr"  time="0/1" value="0" leadInLength="0/1"  />
              </VectorParam>
              <VectorParam id="2071"  name="geometryCrop">
               <InterpolatingParam id="2072" interp="linr"  time="-9999999/1" value="0" leadInLength="0/1"  />
               <InterpolatingParam id="2073" interp="linr"  time="-9999999/1" value="0" leadInLength="0/1"  />
               <InterpolatingParam id="2074" interp="linr"  time="-9999999/1" value="0" leadInLength="0/1"  />
               <InterpolatingParam id="2075" interp="linr"  time="-9999999/1" value="0" leadInLength="0/1"  />
              </VectorParam>
              <InterpolatingParam id="2076" interp="linr"  time="-9999999/1" value="1" leadInLength="0/1"  name="opacity"/>
              <InterpolatingParam id="2077" interp="linr"  time="0/1" value="0" leadInLength="0/1"  name="cursorOpacity"/>
              <InterpolatingParam id="2078" interp="linr"  time="0/1" value="0" leadInLength="0/1"  name="cursorScale"/>
             </Parameters>
             <Attributes>
              <Attribute id="2079" value="" name="ident"/>
             </Attributes>
             <ExtraData>
              <Entry key="ZoomPanBin">
               <ZoomPanBin id="2080"  >
                <ZoomPanKeyframes>
                 <ZoomPanKeyframe id="2081" timeRangeEnd="-9999999/1" timeRangeDuration="0/1" interpolaterName=""  />
                </ZoomPanKeyframes>
               </ZoomPanBin>
              </Entry>
              <Entry key="CursorEffectBin">
               <CursorEffectBin id="2082"  >
                <CursorEffectKeyframes>
                </CursorEffectKeyframes>
               </CursorEffectBin>
              </Entry>
             </ExtraData>
            </ScreenVMFile>
            <MetaData>
             <entry key="AutoAppliedSmartFocus" val="False"/>
             <entry key="WinSubProjectDisplayName" val=""/>
            </MetaData>
           </UnifiedMedia>
           <UnifiedMedia id="2083"  >
            <AMFile id="2084" start="3411" duration="22" scalar="1/1" mediaStart="4221/1" mediaDuration="22/1" trackNumber="1" src="5" channelNumber="0,1" >
             <Parameters>
              <InterpolatingParam id="2085" interp="linr"  time="0/1" value="1" leadInLength="0/1"  name="volume"/>
              <Parameter id="2086"  name="captions"/>
             </Parameters>
             <Attributes>
              <Attribute id="2087" value="" name="ident"/>
              <Attribute id="2088" value="44100" name="sampleRate"/>
              <Attribute id="2089" value="16" name="bitDepth"/>
              <Attribute id="2090" value="1" name="gain"/>
              <Attribute id="2091" value="0" name="mixToMono"/>
             </Attributes>
            </AMFile>
            <ScreenVMFile id="2092" start="3411" duration="22" scalar="1/1" mediaStart="4221/1" mediaDuration="22/1" trackNumber="0" src="5" >
             <Transformer>
              <VectorParam id="2093"  name="translation">
               <InterpolatingParam id="2094" interp="linr"  time="-9999999/1" value="0" leadInLength="0/1"  />
               <InterpolatingParam id="2095" interp="linr"  time="-9999999/1" value="0" leadInLength="0/1"  />
               <InterpolatingParam id="2096" interp="linr"  time="-9999999/1" value="0" leadInLength="0/1"  />
              </VectorParam>
              <VectorParam id="2097"  name="rotation">
               <InterpolatingParam id="2098" interp="linr"  time="-9999999/1" value="0" leadInLength="0/1"  />
               <InterpolatingParam id="2099" interp="linr"  time="-9999999/1" value="0" leadInLength="0/1"  />
               <InterpolatingParam id="2100" interp="linr"  time="-9999999/1" value="0" leadInLength="0/1"  />
              </VectorParam>
              <VectorParam id="2101"  name="shear">
               <InterpolatingParam id="2102" interp="linr"  time="-9999999/1" value="0" leadInLength="0/1"  />
               <InterpolatingParam id="2103" interp="linr"  time="-9999999/1" value="0" leadInLength="0/1"  />
               <InterpolatingParam id="2104" interp="linr"  time="-9999999/1" value="0" leadInLength="0/1"  />
              </VectorParam>
              <VectorParam id="2105"  name="scale">
               <InterpolatingParam id="2106" interp="linr"  time="-9999999/1" value="1" leadInLength="0/1"  />
               <InterpolatingParam id="2107" interp="linr"  time="-9999999/1" value="1" leadInLength="0/1"  />
               <InterpolatingParam id="2108" interp="linr"  time="-9999999/1" value="1" leadInLength="0/1"  />
              </VectorParam>
              <VectorParam id="2109"  name="anchor">
               <InterpolatingParam id="2110" interp="linr"  time="0/1" value="0" leadInLength="0/1"  />
               <InterpolatingParam id="2111" interp="linr"  time="0/1" value="0" leadInLength="0/1"  />
               <InterpolatingParam id="2112" interp="linr"  time="0/1" value="0" leadInLength="0/1"  />
              </VectorParam>
             </Transformer>
             <Parameters>
              <VectorParam id="2113"  name="sourceCrop">
               <InterpolatingParam id="2114" interp="linr"  time="0/1" value="0" leadInLength="0/1"  />
               <InterpolatingParam id="2115" interp="linr"  time="0/1" value="0" leadInLength="0/1"  />
               <InterpolatingParam id="2116" interp="linr"  time="0/1" value="0" leadInLength="0/1"  />
               <InterpolatingParam id="2117" interp="linr"  time="0/1" value="0" leadInLength="0/1"  />
              </VectorParam>
              <VectorParam id="2118"  name="geometryCrop">
               <InterpolatingParam id="2119" interp="linr"  time="-9999999/1" value="0" leadInLength="0/1"  />
               <InterpolatingParam id="2120" interp="linr"  time="-9999999/1" value="0" leadInLength="0/1"  />
               <InterpolatingParam id="2121" interp="linr"  time="-9999999/1" value="0" leadInLength="0/1"  />
               <InterpolatingParam id="2122" interp="linr"  time="-9999999/1" value="0" leadInLength="0/1"  />
              </VectorParam>
              <InterpolatingParam id="2123" interp="linr"  time="-9999999/1" value="1" leadInLength="0/1"  name="opacity"/>
              <InterpolatingParam id="2124" interp="linr"  time="0/1" value="0" leadInLength="0/1"  name="cursorOpacity"/>
              <InterpolatingParam id="2125" interp="linr"  time="0/1" value="0" leadInLength="0/1"  name="cursorScale"/>
             </Parameters>
             <Attributes>
              <Attribute id="2126" value="" name="ident"/>
             </Attributes>
             <ExtraData>
              <Entry key="ZoomPanBin">
               <ZoomPanBin id="2127"  >
                <ZoomPanKeyframes>
                 <ZoomPanKeyframe id="2128" timeRangeEnd="-9999999/1" timeRangeDuration="0/1" interpolaterName=""  />
                </ZoomPanKeyframes>
               </ZoomPanBin>
              </Entry>
              <Entry key="CursorEffectBin">
               <CursorEffectBin id="2129"  >
                <CursorEffectKeyframes>
                </CursorEffectKeyframes>
               </CursorEffectBin>
              </Entry>
             </ExtraData>
            </ScreenVMFile>
            <MetaData>
             <entry key="AutoAppliedSmartFocus" val="False"/>
             <entry key="WinSubProjectDisplayName" val=""/>
            </MetaData>
           </UnifiedMedia>
           <UnifiedMedia id="2130"  >
            <AMFile id="2131" start="3433" duration="502" scalar="1/1" mediaStart="4275/1" mediaDuration="502/1" trackNumber="1" src="5" channelNumber="0,1" >
             <Parameters>
              <InterpolatingParam id="2132" interp="linr"  time="0/1" value="1" leadInLength="0/1"  name="volume"/>
              <Parameter id="2133"  name="captions"/>
             </Parameters>
             <Attributes>
              <Attribute id="2134" value="" name="ident"/>
              <Attribute id="2135" value="44100" name="sampleRate"/>
              <Attribute id="2136" value="16" name="bitDepth"/>
              <Attribute id="2137" value="1" name="gain"/>
              <Attribute id="2138" value="0" name="mixToMono"/>
             </Attributes>
            </AMFile>
            <ScreenVMFile id="2139" start="3433" duration="502" scalar="1/1" mediaStart="4275/1" mediaDuration="502/1" trackNumber="0" src="5" >
             <Transformer>
              <VectorParam id="2140"  name="translation">
               <InterpolatingParam id="2141" interp="linr"  time="-9999999/1" value="0" leadInLength="0/1"  />
               <InterpolatingParam id="2142" interp="linr"  time="-9999999/1" value="0" leadInLength="0/1"  />
               <InterpolatingParam id="2143" interp="linr"  time="-9999999/1" value="0" leadInLength="0/1"  />
              </VectorParam>
              <VectorParam id="2144"  name="rotation">
               <InterpolatingParam id="2145" interp="linr"  time="-9999999/1" value="0" leadInLength="0/1"  />
               <InterpolatingParam id="2146" interp="linr"  time="-9999999/1" value="0" leadInLength="0/1"  />
               <InterpolatingParam id="2147" interp="linr"  time="-9999999/1" value="0" leadInLength="0/1"  />
              </VectorParam>
              <VectorParam id="2148"  name="shear">
               <InterpolatingParam id="2149" interp="linr"  time="-9999999/1" value="0" leadInLength="0/1"  />
               <InterpolatingParam id="2150" interp="linr"  time="-9999999/1" value="0" leadInLength="0/1"  />
               <InterpolatingParam id="2151" interp="linr"  time="-9999999/1" value="0" leadInLength="0/1"  />
              </VectorParam>
              <VectorParam id="2152"  name="scale">
               <InterpolatingParam id="2153" interp="linr"  time="-9999999/1" value="1" leadInLength="0/1"  />
               <InterpolatingParam id="2154" interp="linr"  time="-9999999/1" value="1" leadInLength="0/1"  />
               <InterpolatingParam id="2155" interp="linr"  time="-9999999/1" value="1" leadInLength="0/1"  />
              </VectorParam>
              <VectorParam id="2156"  name="anchor">
               <InterpolatingParam id="2157" interp="linr"  time="0/1" value="0" leadInLength="0/1"  />
               <InterpolatingParam id="2158" interp="linr"  time="0/1" value="0" leadInLength="0/1"  />
               <InterpolatingParam id="2159" interp="linr"  time="0/1" value="0" leadInLength="0/1"  />
              </VectorParam>
             </Transformer>
             <Parameters>
              <VectorParam id="2160"  name="sourceCrop">
               <InterpolatingParam id="2161" interp="linr"  time="0/1" value="0" leadInLength="0/1"  />
               <InterpolatingParam id="2162" interp="linr"  time="0/1" value="0" leadInLength="0/1"  />
               <InterpolatingParam id="2163" interp="linr"  time="0/1" value="0" leadInLength="0/1"  />
               <InterpolatingParam id="2164" interp="linr"  time="0/1" value="0" leadInLength="0/1"  />
              </VectorParam>
              <VectorParam id="2165"  name="geometryCrop">
               <InterpolatingParam id="2166" interp="linr"  time="-9999999/1" value="0" leadInLength="0/1"  />
               <InterpolatingParam id="2167" interp="linr"  time="-9999999/1" value="0" leadInLength="0/1"  />
               <InterpolatingParam id="2168" interp="linr"  time="-9999999/1" value="0" leadInLength="0/1"  />
               <InterpolatingParam id="2169" interp="linr"  time="-9999999/1" value="0" leadInLength="0/1"  />
              </VectorParam>
              <InterpolatingParam id="2170" interp="linr"  time="-9999999/1" value="1" leadInLength="0/1"  name="opacity"/>
              <InterpolatingParam id="2171" interp="linr"  time="0/1" value="0" leadInLength="0/1"  name="cursorOpacity"/>
              <InterpolatingParam id="2172" interp="linr"  time="0/1" value="0" leadInLength="0/1"  name="cursorScale"/>
             </Parameters>
             <Attributes>
              <Attribute id="2173" value="" name="ident"/>
             </Attributes>
             <ExtraData>
              <Entry key="ZoomPanBin">
               <ZoomPanBin id="2174"  >
                <ZoomPanKeyframes>
                 <ZoomPanKeyframe id="2175" timeRangeEnd="-9999999/1" timeRangeDuration="0/1" interpolaterName=""  />
                </ZoomPanKeyframes>
               </ZoomPanBin>
              </Entry>
              <Entry key="CursorEffectBin">
               <CursorEffectBin id="2176"  >
                <CursorEffectKeyframes>
                </CursorEffectKeyframes>
               </CursorEffectBin>
              </Entry>
             </ExtraData>
            </ScreenVMFile>
            <MetaData>
             <entry key="AutoAppliedSmartFocus" val="False"/>
             <entry key="WinSubProjectDisplayName" val=""/>
            </MetaData>
           </UnifiedMedia>
           <UnifiedMedia id="2177"  >
            <AMFile id="2178" start="3935" duration="35" scalar="1/1" mediaStart="4812/1" mediaDuration="35/1" trackNumber="1" src="5" channelNumber="0,1" >
             <Parameters>
              <InterpolatingParam id="2179" interp="linr"  time="0/1" value="1" leadInLength="0/1"  name="volume"/>
              <Parameter id="2180"  name="captions"/>
             </Parameters>
             <Attributes>
              <Attribute id="2181" value="" name="ident"/>
              <Attribute id="2182" value="44100" name="sampleRate"/>
              <Attribute id="2183" value="16" name="bitDepth"/>
              <Attribute id="2184" value="1" name="gain"/>
              <Attribute id="2185" value="0" name="mixToMono"/>
             </Attributes>
            </AMFile>
            <ScreenVMFile id="2186" start="3935" duration="35" scalar="1/1" mediaStart="4812/1" mediaDuration="35/1" trackNumber="0" src="5" >
             <Transformer>
              <VectorParam id="2187"  name="translation">
               <InterpolatingParam id="2188" interp="linr"  time="-9999999/1" value="0" leadInLength="0/1"  />
               <InterpolatingParam id="2189" interp="linr"  time="-9999999/1" value="0" leadInLength="0/1"  />
               <InterpolatingParam id="2190" interp="linr"  time="-9999999/1" value="0" leadInLength="0/1"  />
              </VectorParam>
              <VectorParam id="2191"  name="rotation">
               <InterpolatingParam id="2192" interp="linr"  time="-9999999/1" value="0" leadInLength="0/1"  />
               <InterpolatingParam id="2193" interp="linr"  time="-9999999/1" value="0" leadInLength="0/1"  />
               <InterpolatingParam id="2194" interp="linr"  time="-9999999/1" value="0" leadInLength="0/1"  />
              </VectorParam>
              <VectorParam id="2195"  name="shear">
               <InterpolatingParam id="2196" interp="linr"  time="-9999999/1" value="0" leadInLength="0/1"  />
               <InterpolatingParam id="2197" interp="linr"  time="-9999999/1" value="0" leadInLength="0/1"  />
               <InterpolatingParam id="2198" interp="linr"  time="-9999999/1" value="0" leadInLength="0/1"  />
              </VectorParam>
              <VectorParam id="2199"  name="scale">
               <InterpolatingParam id="2200" interp="linr"  time="-9999999/1" value="1" leadInLength="0/1"  />
               <InterpolatingParam id="2201" interp="linr"  time="-9999999/1" value="1" leadInLength="0/1"  />
               <InterpolatingParam id="2202" interp="linr"  time="-9999999/1" value="1" leadInLength="0/1"  />
              </VectorParam>
              <VectorParam id="2203"  name="anchor">
               <InterpolatingParam id="2204" interp="linr"  time="0/1" value="0" leadInLength="0/1"  />
               <InterpolatingParam id="2205" interp="linr"  time="0/1" value="0" leadInLength="0/1"  />
               <InterpolatingParam id="2206" interp="linr"  time="0/1" value="0" leadInLength="0/1"  />
              </VectorParam>
             </Transformer>
             <Parameters>
              <VectorParam id="2207"  name="sourceCrop">
               <InterpolatingParam id="2208" interp="linr"  time="0/1" value="0" leadInLength="0/1"  />
               <InterpolatingParam id="2209" interp="linr"  time="0/1" value="0" leadInLength="0/1"  />
               <InterpolatingParam id="2210" interp="linr"  time="0/1" value="0" leadInLength="0/1"  />
               <InterpolatingParam id="2211" interp="linr"  time="0/1" value="0" leadInLength="0/1"  />
              </VectorParam>
              <VectorParam id="2212"  name="geometryCrop">
               <InterpolatingParam id="2213" interp="linr"  time="-9999999/1" value="0" leadInLength="0/1"  />
               <InterpolatingParam id="2214" interp="linr"  time="-9999999/1" value="0" leadInLength="0/1"  />
               <InterpolatingParam id="2215" interp="linr"  time="-9999999/1" value="0" leadInLength="0/1"  />
               <InterpolatingParam id="2216" interp="linr"  time="-9999999/1" value="0" leadInLength="0/1"  />
              </VectorParam>
              <InterpolatingParam id="2217" interp="linr"  time="-9999999/1" value="1" leadInLength="0/1"  name="opacity"/>
              <InterpolatingParam id="2218" interp="linr"  time="0/1" value="0" leadInLength="0/1"  name="cursorOpacity"/>
              <InterpolatingParam id="2219" interp="linr"  time="0/1" value="0" leadInLength="0/1"  name="cursorScale"/>
             </Parameters>
             <Attributes>
              <Attribute id="2220" value="" name="ident"/>
             </Attributes>
             <ExtraData>
              <Entry key="ZoomPanBin">
               <ZoomPanBin id="2221"  >
                <ZoomPanKeyframes>
                 <ZoomPanKeyframe id="2222" timeRangeEnd="-9999999/1" timeRangeDuration="0/1" interpolaterName=""  />
                </ZoomPanKeyframes>
               </ZoomPanBin>
              </Entry>
              <Entry key="CursorEffectBin">
               <CursorEffectBin id="2223"  >
                <CursorEffectKeyframes>
                </CursorEffectKeyframes>
               </CursorEffectBin>
              </Entry>
             </ExtraData>
            </ScreenVMFile>
            <MetaData>
             <entry key="AutoAppliedSmartFocus" val="False"/>
             <entry key="WinSubProjectDisplayName" val=""/>
            </MetaData>
           </UnifiedMedia>
           <UnifiedMedia id="2224"  >
            <AMFile id="2225" start="3970" duration="14" scalar="1/1" mediaStart="4916/1" mediaDuration="14/1" trackNumber="1" src="5" channelNumber="0,1" >
             <Parameters>
              <InterpolatingParam id="2226" interp="linr"  time="0/1" value="1" leadInLength="0/1"  name="volume"/>
              <Parameter id="2227"  name="captions"/>
             </Parameters>
             <Attributes>
              <Attribute id="2228" value="" name="ident"/>
              <Attribute id="2229" value="44100" name="sampleRate"/>
              <Attribute id="2230" value="16" name="bitDepth"/>
              <Attribute id="2231" value="1" name="gain"/>
              <Attribute id="2232" value="0" name="mixToMono"/>
             </Attributes>
            </AMFile>
            <ScreenVMFile id="2233" start="3970" duration="14" scalar="1/1" mediaStart="4916/1" mediaDuration="14/1" trackNumber="0" src="5" >
             <Transformer>
              <VectorParam id="2234"  name="translation">
               <InterpolatingParam id="2235" interp="linr"  time="-9999999/1" value="0" leadInLength="0/1"  />
               <InterpolatingParam id="2236" interp="linr"  time="-9999999/1" value="0" leadInLength="0/1"  />
               <InterpolatingParam id="2237" interp="linr"  time="-9999999/1" value="0" leadInLength="0/1"  />
              </VectorParam>
              <VectorParam id="2238"  name="rotation">
               <InterpolatingParam id="2239" interp="linr"  time="-9999999/1" value="0" leadInLength="0/1"  />
               <InterpolatingParam id="2240" interp="linr"  time="-9999999/1" value="0" leadInLength="0/1"  />
               <InterpolatingParam id="2241" interp="linr"  time="-9999999/1" value="0" leadInLength="0/1"  />
              </VectorParam>
              <VectorParam id="2242"  name="shear">
               <InterpolatingParam id="2243" interp="linr"  time="-9999999/1" value="0" leadInLength="0/1"  />
               <InterpolatingParam id="2244" interp="linr"  time="-9999999/1" value="0" leadInLength="0/1"  />
               <InterpolatingParam id="2245" interp="linr"  time="-9999999/1" value="0" leadInLength="0/1"  />
              </VectorParam>
              <VectorParam id="2246"  name="scale">
               <InterpolatingParam id="2247" interp="linr"  time="-9999999/1" value="1" leadInLength="0/1"  />
               <InterpolatingParam id="2248" interp="linr"  time="-9999999/1" value="1" leadInLength="0/1"  />
               <InterpolatingParam id="2249" interp="linr"  time="-9999999/1" value="1" leadInLength="0/1"  />
              </VectorParam>
              <VectorParam id="2250"  name="anchor">
               <InterpolatingParam id="2251" interp="linr"  time="0/1" value="0" leadInLength="0/1"  />
               <InterpolatingParam id="2252" interp="linr"  time="0/1" value="0" leadInLength="0/1"  />
               <InterpolatingParam id="2253" interp="linr"  time="0/1" value="0" leadInLength="0/1"  />
              </VectorParam>
             </Transformer>
             <Parameters>
              <VectorParam id="2254"  name="sourceCrop">
               <InterpolatingParam id="2255" interp="linr"  time="0/1" value="0" leadInLength="0/1"  />
               <InterpolatingParam id="2256" interp="linr"  time="0/1" value="0" leadInLength="0/1"  />
               <InterpolatingParam id="2257" interp="linr"  time="0/1" value="0" leadInLength="0/1"  />
               <InterpolatingParam id="2258" interp="linr"  time="0/1" value="0" leadInLength="0/1"  />
              </VectorParam>
              <VectorParam id="2259"  name="geometryCrop">
               <InterpolatingParam id="2260" interp="linr"  time="-9999999/1" value="0" leadInLength="0/1"  />
               <InterpolatingParam id="2261" interp="linr"  time="-9999999/1" value="0" leadInLength="0/1"  />
               <InterpolatingParam id="2262" interp="linr"  time="-9999999/1" value="0" leadInLength="0/1"  />
               <InterpolatingParam id="2263" interp="linr"  time="-9999999/1" value="0" leadInLength="0/1"  />
              </VectorParam>
              <InterpolatingParam id="2264" interp="linr"  time="-9999999/1" value="1" leadInLength="0/1"  name="opacity"/>
              <InterpolatingParam id="2265" interp="linr"  time="0/1" value="0" leadInLength="0/1"  name="cursorOpacity"/>
              <InterpolatingParam id="2266" interp="linr"  time="0/1" value="0" leadInLength="0/1"  name="cursorScale"/>
             </Parameters>
             <Attributes>
              <Attribute id="2267" value="" name="ident"/>
             </Attributes>
             <ExtraData>
              <Entry key="ZoomPanBin">
               <ZoomPanBin id="2268"  >
                <ZoomPanKeyframes>
                 <ZoomPanKeyframe id="2269" timeRangeEnd="-9999999/1" timeRangeDuration="0/1" interpolaterName=""  />
                </ZoomPanKeyframes>
               </ZoomPanBin>
              </Entry>
              <Entry key="CursorEffectBin">
               <CursorEffectBin id="2270"  >
                <CursorEffectKeyframes>
                </CursorEffectKeyframes>
               </CursorEffectBin>
              </Entry>
             </ExtraData>
            </ScreenVMFile>
            <MetaData>
             <entry key="AutoAppliedSmartFocus" val="False"/>
             <entry key="WinSubProjectDisplayName" val=""/>
            </MetaData>
           </UnifiedMedia>
           <UnifiedMedia id="2271"  >
            <AMFile id="2272" start="3984" duration="2" scalar="1/1" mediaStart="4944/1" mediaDuration="2/1" trackNumber="1" src="5" channelNumber="0,1" >
             <Parameters>
              <InterpolatingParam id="2273" interp="linr"  time="0/1" value="1" leadInLength="0/1"  name="volume"/>
              <Parameter id="2274"  name="captions"/>
             </Parameters>
             <Attributes>
              <Attribute id="2275" value="" name="ident"/>
              <Attribute id="2276" value="44100" name="sampleRate"/>
              <Attribute id="2277" value="16" name="bitDepth"/>
              <Attribute id="2278" value="1" name="gain"/>
              <Attribute id="2279" value="0" name="mixToMono"/>
             </Attributes>
            </AMFile>
            <ScreenVMFile id="2280" start="3984" duration="2" scalar="1/1" mediaStart="4944/1" mediaDuration="2/1" trackNumber="0" src="5" >
             <Transformer>
              <VectorParam id="2281"  name="translation">
               <InterpolatingParam id="2282" interp="linr"  time="-9999999/1" value="0" leadInLength="0/1"  />
               <InterpolatingParam id="2283" interp="linr"  time="-9999999/1" value="0" leadInLength="0/1"  />
               <InterpolatingParam id="2284" interp="linr"  time="-9999999/1" value="0" leadInLength="0/1"  />
              </VectorParam>
              <VectorParam id="2285"  name="rotation">
               <InterpolatingParam id="2286" interp="linr"  time="-9999999/1" value="0" leadInLength="0/1"  />
               <InterpolatingParam id="2287" interp="linr"  time="-9999999/1" value="0" leadInLength="0/1"  />
               <InterpolatingParam id="2288" interp="linr"  time="-9999999/1" value="0" leadInLength="0/1"  />
              </VectorParam>
              <VectorParam id="2289"  name="shear">
               <InterpolatingParam id="2290" interp="linr"  time="-9999999/1" value="0" leadInLength="0/1"  />
               <InterpolatingParam id="2291" interp="linr"  time="-9999999/1" value="0" leadInLength="0/1"  />
               <InterpolatingParam id="2292" interp="linr"  time="-9999999/1" value="0" leadInLength="0/1"  />
              </VectorParam>
              <VectorParam id="2293"  name="scale">
               <InterpolatingParam id="2294" interp="linr"  time="-9999999/1" value="1" leadInLength="0/1"  />
               <InterpolatingParam id="2295" interp="linr"  time="-9999999/1" value="1" leadInLength="0/1"  />
               <InterpolatingParam id="2296" interp="linr"  time="-9999999/1" value="1" leadInLength="0/1"  />
              </VectorParam>
              <VectorParam id="2297"  name="anchor">
               <InterpolatingParam id="2298" interp="linr"  time="0/1" value="0" leadInLength="0/1"  />
               <InterpolatingParam id="2299" interp="linr"  time="0/1" value="0" leadInLength="0/1"  />
               <InterpolatingParam id="2300" interp="linr"  time="0/1" value="0" leadInLength="0/1"  />
              </VectorParam>
             </Transformer>
             <Parameters>
              <VectorParam id="2301"  name="sourceCrop">
               <InterpolatingParam id="2302" interp="linr"  time="0/1" value="0" leadInLength="0/1"  />
               <InterpolatingParam id="2303" interp="linr"  time="0/1" value="0" leadInLength="0/1"  />
               <InterpolatingParam id="2304" interp="linr"  time="0/1" value="0" leadInLength="0/1"  />
               <InterpolatingParam id="2305" interp="linr"  time="0/1" value="0" leadInLength="0/1"  />
              </VectorParam>
              <VectorParam id="2306"  name="geometryCrop">
               <InterpolatingParam id="2307" interp="linr"  time="-9999999/1" value="0" leadInLength="0/1"  />
               <InterpolatingParam id="2308" interp="linr"  time="-9999999/1" value="0" leadInLength="0/1"  />
               <InterpolatingParam id="2309" interp="linr"  time="-9999999/1" value="0" leadInLength="0/1"  />
               <InterpolatingParam id="2310" interp="linr"  time="-9999999/1" value="0" leadInLength="0/1"  />
              </VectorParam>
              <InterpolatingParam id="2311" interp="linr"  time="-9999999/1" value="1" leadInLength="0/1"  name="opacity"/>
              <InterpolatingParam id="2312" interp="linr"  time="0/1" value="0" leadInLength="0/1"  name="cursorOpacity"/>
              <InterpolatingParam id="2313" interp="linr"  time="0/1" value="0" leadInLength="0/1"  name="cursorScale"/>
             </Parameters>
             <Attributes>
              <Attribute id="2314" value="" name="ident"/>
             </Attributes>
             <ExtraData>
              <Entry key="ZoomPanBin">
               <ZoomPanBin id="2315"  >
                <ZoomPanKeyframes>
                 <ZoomPanKeyframe id="2316" timeRangeEnd="-9999999/1" timeRangeDuration="0/1" interpolaterName=""  />
                </ZoomPanKeyframes>
               </ZoomPanBin>
              </Entry>
              <Entry key="CursorEffectBin">
               <CursorEffectBin id="2317"  >
                <CursorEffectKeyframes>
                </CursorEffectKeyframes>
               </CursorEffectBin>
              </Entry>
             </ExtraData>
            </ScreenVMFile>
            <MetaData>
             <entry key="AutoAppliedSmartFocus" val="False"/>
             <entry key="WinSubProjectDisplayName" val=""/>
            </MetaData>
           </UnifiedMedia>
           <UnifiedMedia id="2318"  >
            <AMFile id="2319" start="3986" duration="287" scalar="1/1" mediaStart="4963/1" mediaDuration="287/1" trackNumber="1" src="5" channelNumber="0,1" >
             <Parameters>
              <InterpolatingParam id="2320" interp="linr"  time="0/1" value="1" leadInLength="0/1"  name="volume"/>
              <Parameter id="2321"  name="captions"/>
             </Parameters>
             <Attributes>
              <Attribute id="2322" value="" name="ident"/>
              <Attribute id="2323" value="44100" name="sampleRate"/>
              <Attribute id="2324" value="16" name="bitDepth"/>
              <Attribute id="2325" value="1" name="gain"/>
              <Attribute id="2326" value="0" name="mixToMono"/>
             </Attributes>
            </AMFile>
            <ScreenVMFile id="2327" start="3986" duration="287" scalar="1/1" mediaStart="4963/1" mediaDuration="287/1" trackNumber="0" src="5" >
             <Transformer>
              <VectorParam id="2328"  name="translation">
               <InterpolatingParam id="2329" interp="linr"  time="-9999999/1" value="0" leadInLength="0/1"  />
               <InterpolatingParam id="2330" interp="linr"  time="-9999999/1" value="0" leadInLength="0/1"  />
               <InterpolatingParam id="2331" interp="linr"  time="-9999999/1" value="0" leadInLength="0/1"  />
              </VectorParam>
              <VectorParam id="2332"  name="rotation">
               <InterpolatingParam id="2333" interp="linr"  time="-9999999/1" value="0" leadInLength="0/1"  />
               <InterpolatingParam id="2334" interp="linr"  time="-9999999/1" value="0" leadInLength="0/1"  />
               <InterpolatingParam id="2335" interp="linr"  time="-9999999/1" value="0" leadInLength="0/1"  />
              </VectorParam>
              <VectorParam id="2336"  name="shear">
               <InterpolatingParam id="2337" interp="linr"  time="-9999999/1" value="0" leadInLength="0/1"  />
               <InterpolatingParam id="2338" interp="linr"  time="-9999999/1" value="0" leadInLength="0/1"  />
               <InterpolatingParam id="2339" interp="linr"  time="-9999999/1" value="0" leadInLength="0/1"  />
              </VectorParam>
              <VectorParam id="2340"  name="scale">
               <InterpolatingParam id="2341" interp="linr"  time="-9999999/1" value="1" leadInLength="0/1"  />
               <InterpolatingParam id="2342" interp="linr"  time="-9999999/1" value="1" leadInLength="0/1"  />
               <InterpolatingParam id="2343" interp="linr"  time="-9999999/1" value="1" leadInLength="0/1"  />
              </VectorParam>
              <VectorParam id="2344"  name="anchor">
               <InterpolatingParam id="2345" interp="linr"  time="0/1" value="0" leadInLength="0/1"  />
               <InterpolatingParam id="2346" interp="linr"  time="0/1" value="0" leadInLength="0/1"  />
               <InterpolatingParam id="2347" interp="linr"  time="0/1" value="0" leadInLength="0/1"  />
              </VectorParam>
             </Transformer>
             <Parameters>
              <VectorParam id="2348"  name="sourceCrop">
               <InterpolatingParam id="2349" interp="linr"  time="0/1" value="0" leadInLength="0/1"  />
               <InterpolatingParam id="2350" interp="linr"  time="0/1" value="0" leadInLength="0/1"  />
               <InterpolatingParam id="2351" interp="linr"  time="0/1" value="0" leadInLength="0/1"  />
               <InterpolatingParam id="2352" interp="linr"  time="0/1" value="0" leadInLength="0/1"  />
              </VectorParam>
              <VectorParam id="2353"  name="geometryCrop">
               <InterpolatingParam id="2354" interp="linr"  time="-9999999/1" value="0" leadInLength="0/1"  />
               <InterpolatingParam id="2355" interp="linr"  time="-9999999/1" value="0" leadInLength="0/1"  />
               <InterpolatingParam id="2356" interp="linr"  time="-9999999/1" value="0" leadInLength="0/1"  />
               <InterpolatingParam id="2357" interp="linr"  time="-9999999/1" value="0" leadInLength="0/1"  />
              </VectorParam>
              <InterpolatingParam id="2358" interp="linr"  time="-9999999/1" value="1" leadInLength="0/1"  name="opacity"/>
              <InterpolatingParam id="2359" interp="linr"  time="0/1" value="0" leadInLength="0/1"  name="cursorOpacity"/>
              <InterpolatingParam id="2360" interp="linr"  time="0/1" value="0" leadInLength="0/1"  name="cursorScale"/>
             </Parameters>
             <Attributes>
              <Attribute id="2361" value="" name="ident"/>
             </Attributes>
             <ExtraData>
              <Entry key="ZoomPanBin">
               <ZoomPanBin id="2362"  >
                <ZoomPanKeyframes>
                 <ZoomPanKeyframe id="2363" timeRangeEnd="-9999999/1" timeRangeDuration="0/1" interpolaterName=""  />
                </ZoomPanKeyframes>
               </ZoomPanBin>
              </Entry>
              <Entry key="CursorEffectBin">
               <CursorEffectBin id="2364"  >
                <CursorEffectKeyframes>
                </CursorEffectKeyframes>
               </CursorEffectBin>
              </Entry>
             </ExtraData>
            </ScreenVMFile>
            <MetaData>
             <entry key="AutoAppliedSmartFocus" val="False"/>
             <entry key="WinSubProjectDisplayName" val=""/>
            </MetaData>
           </UnifiedMedia>
           <UnifiedMedia id="2365"  >
            <AMFile id="2366" start="4273" duration="253" scalar="1/1" mediaStart="5271/1" mediaDuration="253/1" trackNumber="1" src="5" channelNumber="0,1" >
             <Parameters>
              <InterpolatingParam id="2367" interp="linr"  time="0/1" value="1" leadInLength="0/1"  name="volume"/>
              <Parameter id="2368"  name="captions"/>
             </Parameters>
             <Attributes>
              <Attribute id="2369" value="" name="ident"/>
              <Attribute id="2370" value="44100" name="sampleRate"/>
              <Attribute id="2371" value="16" name="bitDepth"/>
              <Attribute id="2372" value="1" name="gain"/>
              <Attribute id="2373" value="0" name="mixToMono"/>
             </Attributes>
            </AMFile>
            <ScreenVMFile id="2374" start="4273" duration="253" scalar="1/1" mediaStart="5271/1" mediaDuration="253/1" trackNumber="0" src="5" >
             <Transformer>
              <VectorParam id="2375"  name="translation">
               <InterpolatingParam id="2376" interp="linr"  time="-9999999/1" value="0" leadInLength="0/1"  />
               <InterpolatingParam id="2377" interp="linr"  time="-9999999/1" value="0" leadInLength="0/1"  />
               <InterpolatingParam id="2378" interp="linr"  time="-9999999/1" value="0" leadInLength="0/1"  />
              </VectorParam>
              <VectorParam id="2379"  name="rotation">
               <InterpolatingParam id="2380" interp="linr"  time="-9999999/1" value="0" leadInLength="0/1"  />
               <InterpolatingParam id="2381" interp="linr"  time="-9999999/1" value="0" leadInLength="0/1"  />
               <InterpolatingParam id="2382" interp="linr"  time="-9999999/1" value="0" leadInLength="0/1"  />
              </VectorParam>
              <VectorParam id="2383"  name="shear">
               <InterpolatingParam id="2384" interp="linr"  time="-9999999/1" value="0" leadInLength="0/1"  />
               <InterpolatingParam id="2385" interp="linr"  time="-9999999/1" value="0" leadInLength="0/1"  />
               <InterpolatingParam id="2386" interp="linr"  time="-9999999/1" value="0" leadInLength="0/1"  />
              </VectorParam>
              <VectorParam id="2387"  name="scale">
               <InterpolatingParam id="2388" interp="linr"  time="-9999999/1" value="1" leadInLength="0/1"  />
               <InterpolatingParam id="2389" interp="linr"  time="-9999999/1" value="1" leadInLength="0/1"  />
               <InterpolatingParam id="2390" interp="linr"  time="-9999999/1" value="1" leadInLength="0/1"  />
              </VectorParam>
              <VectorParam id="2391"  name="anchor">
               <InterpolatingParam id="2392" interp="linr"  time="0/1" value="0" leadInLength="0/1"  />
               <InterpolatingParam id="2393" interp="linr"  time="0/1" value="0" leadInLength="0/1"  />
               <InterpolatingParam id="2394" interp="linr"  time="0/1" value="0" leadInLength="0/1"  />
              </VectorParam>
             </Transformer>
             <Parameters>
              <VectorParam id="2395"  name="sourceCrop">
               <InterpolatingParam id="2396" interp="linr"  time="0/1" value="0" leadInLength="0/1"  />
               <InterpolatingParam id="2397" interp="linr"  time="0/1" value="0" leadInLength="0/1"  />
               <InterpolatingParam id="2398" interp="linr"  time="0/1" value="0" leadInLength="0/1"  />
               <InterpolatingParam id="2399" interp="linr"  time="0/1" value="0" leadInLength="0/1"  />
              </VectorParam>
              <VectorParam id="2400"  name="geometryCrop">
               <InterpolatingParam id="2401" interp="linr"  time="-9999999/1" value="0" leadInLength="0/1"  />
               <InterpolatingParam id="2402" interp="linr"  time="-9999999/1" value="0" leadInLength="0/1"  />
               <InterpolatingParam id="2403" interp="linr"  time="-9999999/1" value="0" leadInLength="0/1"  />
               <InterpolatingParam id="2404" interp="linr"  time="-9999999/1" value="0" leadInLength="0/1"  />
              </VectorParam>
              <InterpolatingParam id="2405" interp="linr"  time="-9999999/1" value="1" leadInLength="0/1"  name="opacity"/>
              <InterpolatingParam id="2406" interp="linr"  time="0/1" value="0" leadInLength="0/1"  name="cursorOpacity"/>
              <InterpolatingParam id="2407" interp="linr"  time="0/1" value="0" leadInLength="0/1"  name="cursorScale"/>
             </Parameters>
             <Attributes>
              <Attribute id="2408" value="" name="ident"/>
             </Attributes>
             <ExtraData>
              <Entry key="ZoomPanBin">
               <ZoomPanBin id="2409"  >
                <ZoomPanKeyframes>
                 <ZoomPanKeyframe id="2410" timeRangeEnd="-9999999/1" timeRangeDuration="0/1" interpolaterName=""  />
                </ZoomPanKeyframes>
               </ZoomPanBin>
              </Entry>
              <Entry key="CursorEffectBin">
               <CursorEffectBin id="2411"  >
                <CursorEffectKeyframes>
                </CursorEffectKeyframes>
               </CursorEffectBin>
              </Entry>
             </ExtraData>
            </ScreenVMFile>
            <MetaData>
             <entry key="AutoAppliedSmartFocus" val="False"/>
             <entry key="WinSubProjectDisplayName" val=""/>
            </MetaData>
           </UnifiedMedia>
           <UnifiedMedia id="2412"  >
            <AMFile id="2413" start="4526" duration="237" scalar="1/1" mediaStart="5576/1" mediaDuration="237/1" trackNumber="1" src="5" channelNumber="0,1" >
             <Parameters>
              <InterpolatingParam id="2414" interp="linr"  time="0/1" value="1" leadInLength="0/1"  name="volume"/>
              <Parameter id="2415"  name="captions"/>
             </Parameters>
             <Attributes>
              <Attribute id="2416" value="" name="ident"/>
              <Attribute id="2417" value="44100" name="sampleRate"/>
              <Attribute id="2418" value="16" name="bitDepth"/>
              <Attribute id="2419" value="1" name="gain"/>
              <Attribute id="2420" value="0" name="mixToMono"/>
             </Attributes>
            </AMFile>
            <ScreenVMFile id="2421" start="4526" duration="237" scalar="1/1" mediaStart="5576/1" mediaDuration="237/1" trackNumber="0" src="5" >
             <Transformer>
              <VectorParam id="2422"  name="translation">
               <InterpolatingParam id="2423" interp="linr"  time="-9999999/1" value="0" leadInLength="0/1"  />
               <InterpolatingParam id="2424" interp="linr"  time="-9999999/1" value="0" leadInLength="0/1"  />
               <InterpolatingParam id="2425" interp="linr"  time="-9999999/1" value="0" leadInLength="0/1"  />
              </VectorParam>
              <VectorParam id="2426"  name="rotation">
               <InterpolatingParam id="2427" interp="linr"  time="-9999999/1" value="0" leadInLength="0/1"  />
               <InterpolatingParam id="2428" interp="linr"  time="-9999999/1" value="0" leadInLength="0/1"  />
               <InterpolatingParam id="2429" interp="linr"  time="-9999999/1" value="0" leadInLength="0/1"  />
              </VectorParam>
              <VectorParam id="2430"  name="shear">
               <InterpolatingParam id="2431" interp="linr"  time="-9999999/1" value="0" leadInLength="0/1"  />
               <InterpolatingParam id="2432" interp="linr"  time="-9999999/1" value="0" leadInLength="0/1"  />
               <InterpolatingParam id="2433" interp="linr"  time="-9999999/1" value="0" leadInLength="0/1"  />
              </VectorParam>
              <VectorParam id="2434"  name="scale">
               <InterpolatingParam id="2435" interp="linr"  time="-9999999/1" value="1" leadInLength="0/1"  />
               <InterpolatingParam id="2436" interp="linr"  time="-9999999/1" value="1" leadInLength="0/1"  />
               <InterpolatingParam id="2437" interp="linr"  time="-9999999/1" value="1" leadInLength="0/1"  />
              </VectorParam>
              <VectorParam id="2438"  name="anchor">
               <InterpolatingParam id="2439" interp="linr"  time="0/1" value="0" leadInLength="0/1"  />
               <InterpolatingParam id="2440" interp="linr"  time="0/1" value="0" leadInLength="0/1"  />
               <InterpolatingParam id="2441" interp="linr"  time="0/1" value="0" leadInLength="0/1"  />
              </VectorParam>
             </Transformer>
             <Parameters>
              <VectorParam id="2442"  name="sourceCrop">
               <InterpolatingParam id="2443" interp="linr"  time="0/1" value="0" leadInLength="0/1"  />
               <InterpolatingParam id="2444" interp="linr"  time="0/1" value="0" leadInLength="0/1"  />
               <InterpolatingParam id="2445" interp="linr"  time="0/1" value="0" leadInLength="0/1"  />
               <InterpolatingParam id="2446" interp="linr"  time="0/1" value="0" leadInLength="0/1"  />
              </VectorParam>
              <VectorParam id="2447"  name="geometryCrop">
               <InterpolatingParam id="2448" interp="linr"  time="-9999999/1" value="0" leadInLength="0/1"  />
               <InterpolatingParam id="2449" interp="linr"  time="-9999999/1" value="0" leadInLength="0/1"  />
               <InterpolatingParam id="2450" interp="linr"  time="-9999999/1" value="0" leadInLength="0/1"  />
               <InterpolatingParam id="2451" interp="linr"  time="-9999999/1" value="0" leadInLength="0/1"  />
              </VectorParam>
              <InterpolatingParam id="2452" interp="linr"  time="-9999999/1" value="1" leadInLength="0/1"  name="opacity"/>
              <InterpolatingParam id="2453" interp="linr"  time="0/1" value="0" leadInLength="0/1"  name="cursorOpacity"/>
              <InterpolatingParam id="2454" interp="linr"  time="0/1" value="0" leadInLength="0/1"  name="cursorScale"/>
             </Parameters>
             <Attributes>
              <Attribute id="2455" value="" name="ident"/>
             </Attributes>
             <ExtraData>
              <Entry key="ZoomPanBin">
               <ZoomPanBin id="2456"  >
                <ZoomPanKeyframes>
                 <ZoomPanKeyframe id="2457" timeRangeEnd="-9999999/1" timeRangeDuration="0/1" interpolaterName=""  />
                </ZoomPanKeyframes>
               </ZoomPanBin>
              </Entry>
              <Entry key="CursorEffectBin">
               <CursorEffectBin id="2458"  >
                <CursorEffectKeyframes>
                </CursorEffectKeyframes>
               </CursorEffectBin>
              </Entry>
             </ExtraData>
            </ScreenVMFile>
            <MetaData>
             <entry key="AutoAppliedSmartFocus" val="False"/>
             <entry key="WinSubProjectDisplayName" val=""/>
            </MetaData>
           </UnifiedMedia>
           <UnifiedMedia id="2459"  >
            <AMFile id="2460" start="4763" duration="161" scalar="1/1" mediaStart="5827/1" mediaDuration="161/1" trackNumber="1" src="5" channelNumber="0,1" >
             <Parameters>
              <InterpolatingParam id="2461" interp="linr"  time="0/1" value="1" leadInLength="0/1"  name="volume"/>
              <Parameter id="2462"  name="captions"/>
             </Parameters>
             <Attributes>
              <Attribute id="2463" value="" name="ident"/>
              <Attribute id="2464" value="44100" name="sampleRate"/>
              <Attribute id="2465" value="16" name="bitDepth"/>
              <Attribute id="2466" value="1" name="gain"/>
              <Attribute id="2467" value="0" name="mixToMono"/>
             </Attributes>
            </AMFile>
            <ScreenVMFile id="2468" start="4763" duration="161" scalar="1/1" mediaStart="5827/1" mediaDuration="161/1" trackNumber="0" src="5" >
             <Transformer>
              <VectorParam id="2469"  name="translation">
               <InterpolatingParam id="2470" interp="linr"  time="-9999999/1" value="0" leadInLength="0/1"  />
               <InterpolatingParam id="2471" interp="linr"  time="-9999999/1" value="0" leadInLength="0/1"  />
               <InterpolatingParam id="2472" interp="linr"  time="-9999999/1" value="0" leadInLength="0/1"  />
              </VectorParam>
              <VectorParam id="2473"  name="rotation">
               <InterpolatingParam id="2474" interp="linr"  time="-9999999/1" value="0" leadInLength="0/1"  />
               <InterpolatingParam id="2475" interp="linr"  time="-9999999/1" value="0" leadInLength="0/1"  />
               <InterpolatingParam id="2476" interp="linr"  time="-9999999/1" value="0" leadInLength="0/1"  />
              </VectorParam>
              <VectorParam id="2477"  name="shear">
               <InterpolatingParam id="2478" interp="linr"  time="-9999999/1" value="0" leadInLength="0/1"  />
               <InterpolatingParam id="2479" interp="linr"  time="-9999999/1" value="0" leadInLength="0/1"  />
               <InterpolatingParam id="2480" interp="linr"  time="-9999999/1" value="0" leadInLength="0/1"  />
              </VectorParam>
              <VectorParam id="2481"  name="scale">
               <InterpolatingParam id="2482" interp="linr"  time="-9999999/1" value="1" leadInLength="0/1"  />
               <InterpolatingParam id="2483" interp="linr"  time="-9999999/1" value="1" leadInLength="0/1"  />
               <InterpolatingParam id="2484" interp="linr"  time="-9999999/1" value="1" leadInLength="0/1"  />
              </VectorParam>
              <VectorParam id="2485"  name="anchor">
               <InterpolatingParam id="2486" interp="linr"  time="0/1" value="0" leadInLength="0/1"  />
               <InterpolatingParam id="2487" interp="linr"  time="0/1" value="0" leadInLength="0/1"  />
               <InterpolatingParam id="2488" interp="linr"  time="0/1" value="0" leadInLength="0/1"  />
              </VectorParam>
             </Transformer>
             <Parameters>
              <VectorParam id="2489"  name="sourceCrop">
               <InterpolatingParam id="2490" interp="linr"  time="0/1" value="0" leadInLength="0/1"  />
               <InterpolatingParam id="2491" interp="linr"  time="0/1" value="0" leadInLength="0/1"  />
               <InterpolatingParam id="2492" interp="linr"  time="0/1" value="0" leadInLength="0/1"  />
               <InterpolatingParam id="2493" interp="linr"  time="0/1" value="0" leadInLength="0/1"  />
              </VectorParam>
              <VectorParam id="2494"  name="geometryCrop">
               <InterpolatingParam id="2495" interp="linr"  time="-9999999/1" value="0" leadInLength="0/1"  />
               <InterpolatingParam id="2496" interp="linr"  time="-9999999/1" value="0" leadInLength="0/1"  />
               <InterpolatingParam id="2497" interp="linr"  time="-9999999/1" value="0" leadInLength="0/1"  />
               <InterpolatingParam id="2498" interp="linr"  time="-9999999/1" value="0" leadInLength="0/1"  />
              </VectorParam>
              <InterpolatingParam id="2499" interp="linr"  time="-9999999/1" value="1" leadInLength="0/1"  name="opacity"/>
              <InterpolatingParam id="2500" interp="linr"  time="0/1" value="0" leadInLength="0/1"  name="cursorOpacity"/>
              <InterpolatingParam id="2501" interp="linr"  time="0/1" value="0" leadInLength="0/1"  name="cursorScale"/>
             </Parameters>
             <Attributes>
              <Attribute id="2502" value="" name="ident"/>
             </Attributes>
             <ExtraData>
              <Entry key="ZoomPanBin">
               <ZoomPanBin id="2503"  >
                <ZoomPanKeyframes>
                 <ZoomPanKeyframe id="2504" timeRangeEnd="-9999999/1" timeRangeDuration="0/1" interpolaterName=""  />
                </ZoomPanKeyframes>
               </ZoomPanBin>
              </Entry>
              <Entry key="CursorEffectBin">
               <CursorEffectBin id="2505"  >
                <CursorEffectKeyframes>
                </CursorEffectKeyframes>
               </CursorEffectBin>
              </Entry>
             </ExtraData>
            </ScreenVMFile>
            <MetaData>
             <entry key="AutoAppliedSmartFocus" val="False"/>
             <entry key="WinSubProjectDisplayName" val=""/>
            </MetaData>
           </UnifiedMedia>
           <UnifiedMedia id="2506"  >
            <AMFile id="2507" start="4924" duration="502" scalar="1/1" mediaStart="6040/1" mediaDuration="502/1" trackNumber="1" src="5" channelNumber="0,1" >
             <Parameters>
              <InterpolatingParam id="2508" interp="linr"  time="0/1" value="1" leadInLength="0/1"  name="volume"/>
              <Parameter id="2509"  name="captions"/>
             </Parameters>
             <Attributes>
              <Attribute id="2510" value="" name="ident"/>
              <Attribute id="2511" value="44100" name="sampleRate"/>
              <Attribute id="2512" value="16" name="bitDepth"/>
              <Attribute id="2513" value="1" name="gain"/>
              <Attribute id="2514" value="0" name="mixToMono"/>
             </Attributes>
            </AMFile>
            <ScreenVMFile id="2515" start="4924" duration="502" scalar="1/1" mediaStart="6040/1" mediaDuration="502/1" trackNumber="0" src="5" >
             <Transformer>
              <VectorParam id="2516"  name="translation">
               <InterpolatingParam id="2517" interp="linr"  time="-9999999/1" value="0" leadInLength="0/1"  />
               <InterpolatingParam id="2518" interp="linr"  time="-9999999/1" value="0" leadInLength="0/1"  />
               <InterpolatingParam id="2519" interp="linr"  time="-9999999/1" value="0" leadInLength="0/1"  />
              </VectorParam>
              <VectorParam id="2520"  name="rotation">
               <InterpolatingParam id="2521" interp="linr"  time="-9999999/1" value="0" leadInLength="0/1"  />
               <InterpolatingParam id="2522" interp="linr"  time="-9999999/1" value="0" leadInLength="0/1"  />
               <InterpolatingParam id="2523" interp="linr"  time="-9999999/1" value="0" leadInLength="0/1"  />
              </VectorParam>
              <VectorParam id="2524"  name="shear">
               <InterpolatingParam id="2525" interp="linr"  time="-9999999/1" value="0" leadInLength="0/1"  />
               <InterpolatingParam id="2526" interp="linr"  time="-9999999/1" value="0" leadInLength="0/1"  />
               <InterpolatingParam id="2527" interp="linr"  time="-9999999/1" value="0" leadInLength="0/1"  />
              </VectorParam>
              <VectorParam id="2528"  name="scale">
               <InterpolatingParam id="2529" interp="linr"  time="-9999999/1" value="1" leadInLength="0/1"  />
               <InterpolatingParam id="2530" interp="linr"  time="-9999999/1" value="1" leadInLength="0/1"  />
               <InterpolatingParam id="2531" interp="linr"  time="-9999999/1" value="1" leadInLength="0/1"  />
              </VectorParam>
              <VectorParam id="2532"  name="anchor">
               <InterpolatingParam id="2533" interp="linr"  time="0/1" value="0" leadInLength="0/1"  />
               <InterpolatingParam id="2534" interp="linr"  time="0/1" value="0" leadInLength="0/1"  />
               <InterpolatingParam id="2535" interp="linr"  time="0/1" value="0" leadInLength="0/1"  />
              </VectorParam>
             </Transformer>
             <Parameters>
              <VectorParam id="2536"  name="sourceCrop">
               <InterpolatingParam id="2537" interp="linr"  time="0/1" value="0" leadInLength="0/1"  />
               <InterpolatingParam id="2538" interp="linr"  time="0/1" value="0" leadInLength="0/1"  />
               <InterpolatingParam id="2539" interp="linr"  time="0/1" value="0" leadInLength="0/1"  />
               <InterpolatingParam id="2540" interp="linr"  time="0/1" value="0" leadInLength="0/1"  />
              </VectorParam>
              <VectorParam id="2541"  name="geometryCrop">
               <InterpolatingParam id="2542" interp="linr"  time="-9999999/1" value="0" leadInLength="0/1"  />
               <InterpolatingParam id="2543" interp="linr"  time="-9999999/1" value="0" leadInLength="0/1"  />
               <InterpolatingParam id="2544" interp="linr"  time="-9999999/1" value="0" leadInLength="0/1"  />
               <InterpolatingParam id="2545" interp="linr"  time="-9999999/1" value="0" leadInLength="0/1"  />
              </VectorParam>
              <InterpolatingParam id="2546" interp="linr"  time="-9999999/1" value="1" leadInLength="0/1"  name="opacity"/>
              <InterpolatingParam id="2547" interp="linr"  time="0/1" value="0" leadInLength="0/1"  name="cursorOpacity"/>
              <InterpolatingParam id="2548" interp="linr"  time="0/1" value="0" leadInLength="0/1"  name="cursorScale"/>
             </Parameters>
             <Attributes>
              <Attribute id="2549" value="" name="ident"/>
             </Attributes>
             <ExtraData>
              <Entry key="ZoomPanBin">
               <ZoomPanBin id="2550"  >
                <ZoomPanKeyframes>
                 <ZoomPanKeyframe id="2551" timeRangeEnd="-9999999/1" timeRangeDuration="0/1" interpolaterName=""  />
                </ZoomPanKeyframes>
               </ZoomPanBin>
              </Entry>
              <Entry key="CursorEffectBin">
               <CursorEffectBin id="2552"  >
                <CursorEffectKeyframes>
                </CursorEffectKeyframes>
               </CursorEffectBin>
              </Entry>
             </ExtraData>
            </ScreenVMFile>
            <MetaData>
             <entry key="AutoAppliedSmartFocus" val="False"/>
             <entry key="WinSubProjectDisplayName" val=""/>
            </MetaData>
           </UnifiedMedia>
           <UnifiedMedia id="2553"  >
            <AMFile id="2554" start="5426" duration="64" scalar="1/1" mediaStart="6564/1" mediaDuration="64/1" trackNumber="1" src="5" channelNumber="0,1" >
             <Parameters>
              <InterpolatingParam id="2555" interp="linr"  time="0/1" value="1" leadInLength="0/1"  name="volume"/>
              <Parameter id="2556"  name="captions"/>
             </Parameters>
             <Attributes>
              <Attribute id="2557" value="" name="ident"/>
              <Attribute id="2558" value="44100" name="sampleRate"/>
              <Attribute id="2559" value="16" name="bitDepth"/>
              <Attribute id="2560" value="1" name="gain"/>
              <Attribute id="2561" value="0" name="mixToMono"/>
             </Attributes>
            </AMFile>
            <ScreenVMFile id="2562" start="5426" duration="64" scalar="1/1" mediaStart="6564/1" mediaDuration="64/1" trackNumber="0" src="5" >
             <Transformer>
              <VectorParam id="2563"  name="translation">
               <InterpolatingParam id="2564" interp="linr"  time="-9999999/1" value="0" leadInLength="0/1"  />
               <InterpolatingParam id="2565" interp="linr"  time="-9999999/1" value="0" leadInLength="0/1"  />
               <InterpolatingParam id="2566" interp="linr"  time="-9999999/1" value="0" leadInLength="0/1"  />
              </VectorParam>
              <VectorParam id="2567"  name="rotation">
               <InterpolatingParam id="2568" interp="linr"  time="-9999999/1" value="0" leadInLength="0/1"  />
               <InterpolatingParam id="2569" interp="linr"  time="-9999999/1" value="0" leadInLength="0/1"  />
               <InterpolatingParam id="2570" interp="linr"  time="-9999999/1" value="0" leadInLength="0/1"  />
              </VectorParam>
              <VectorParam id="2571"  name="shear">
               <InterpolatingParam id="2572" interp="linr"  time="-9999999/1" value="0" leadInLength="0/1"  />
               <InterpolatingParam id="2573" interp="linr"  time="-9999999/1" value="0" leadInLength="0/1"  />
               <InterpolatingParam id="2574" interp="linr"  time="-9999999/1" value="0" leadInLength="0/1"  />
              </VectorParam>
              <VectorParam id="2575"  name="scale">
               <InterpolatingParam id="2576" interp="linr"  time="-9999999/1" value="1" leadInLength="0/1"  />
               <InterpolatingParam id="2577" interp="linr"  time="-9999999/1" value="1" leadInLength="0/1"  />
               <InterpolatingParam id="2578" interp="linr"  time="-9999999/1" value="1" leadInLength="0/1"  />
              </VectorParam>
              <VectorParam id="2579"  name="anchor">
               <InterpolatingParam id="2580" interp="linr"  time="0/1" value="0" leadInLength="0/1"  />
               <InterpolatingParam id="2581" interp="linr"  time="0/1" value="0" leadInLength="0/1"  />
               <InterpolatingParam id="2582" interp="linr"  time="0/1" value="0" leadInLength="0/1"  />
              </VectorParam>
             </Transformer>
             <Parameters>
              <VectorParam id="2583"  name="sourceCrop">
               <InterpolatingParam id="2584" interp="linr"  time="0/1" value="0" leadInLength="0/1"  />
               <InterpolatingParam id="2585" interp="linr"  time="0/1" value="0" leadInLength="0/1"  />
               <InterpolatingParam id="2586" interp="linr"  time="0/1" value="0" leadInLength="0/1"  />
               <InterpolatingParam id="2587" interp="linr"  time="0/1" value="0" leadInLength="0/1"  />
              </VectorParam>
              <VectorParam id="2588"  name="geometryCrop">
               <InterpolatingParam id="2589" interp="linr"  time="-9999999/1" value="0" leadInLength="0/1"  />
               <InterpolatingParam id="2590" interp="linr"  time="-9999999/1" value="0" leadInLength="0/1"  />
               <InterpolatingParam id="2591" interp="linr"  time="-9999999/1" value="0" leadInLength="0/1"  />
               <InterpolatingParam id="2592" interp="linr"  time="-9999999/1" value="0" leadInLength="0/1"  />
              </VectorParam>
              <InterpolatingParam id="2593" interp="linr"  time="-9999999/1" value="1" leadInLength="0/1"  name="opacity"/>
              <InterpolatingParam id="2594" interp="linr"  time="0/1" value="0" leadInLength="0/1"  name="cursorOpacity"/>
              <InterpolatingParam id="2595" interp="linr"  time="0/1" value="0" leadInLength="0/1"  name="cursorScale"/>
             </Parameters>
             <Attributes>
              <Attribute id="2596" value="" name="ident"/>
             </Attributes>
             <ExtraData>
              <Entry key="ZoomPanBin">
               <ZoomPanBin id="2597"  >
                <ZoomPanKeyframes>
                 <ZoomPanKeyframe id="2598" timeRangeEnd="-9999999/1" timeRangeDuration="0/1" interpolaterName=""  />
                </ZoomPanKeyframes>
               </ZoomPanBin>
              </Entry>
              <Entry key="CursorEffectBin">
               <CursorEffectBin id="2599"  >
                <CursorEffectKeyframes>
                </CursorEffectKeyframes>
               </CursorEffectBin>
              </Entry>
             </ExtraData>
            </ScreenVMFile>
            <MetaData>
             <entry key="AutoAppliedSmartFocus" val="False"/>
             <entry key="WinSubProjectDisplayName" val=""/>
            </MetaData>
           </UnifiedMedia>
           <UnifiedMedia id="2600"  >
            <AMFile id="2601" start="5490" duration="475" scalar="1/1" mediaStart="6679/1" mediaDuration="475/1" trackNumber="1" src="5" channelNumber="0,1" >
             <Parameters>
              <InterpolatingParam id="2602" interp="linr"  time="0/1" value="1" leadInLength="0/1"  name="volume"/>
              <Parameter id="2603"  name="captions"/>
             </Parameters>
             <Attributes>
              <Attribute id="2604" value="" name="ident"/>
              <Attribute id="2605" value="44100" name="sampleRate"/>
              <Attribute id="2606" value="16" name="bitDepth"/>
              <Attribute id="2607" value="1" name="gain"/>
              <Attribute id="2608" value="0" name="mixToMono"/>
             </Attributes>
            </AMFile>
            <ScreenVMFile id="2609" start="5490" duration="475" scalar="1/1" mediaStart="6679/1" mediaDuration="475/1" trackNumber="0" src="5" >
             <Transformer>
              <VectorParam id="2610"  name="translation">
               <InterpolatingParam id="2611" interp="linr"  time="-9999999/1" value="0" leadInLength="0/1"  />
               <InterpolatingParam id="2612" interp="linr"  time="-9999999/1" value="0" leadInLength="0/1"  />
               <InterpolatingParam id="2613" interp="linr"  time="-9999999/1" value="0" leadInLength="0/1"  />
              </VectorParam>
              <VectorParam id="2614"  name="rotation">
               <InterpolatingParam id="2615" interp="linr"  time="-9999999/1" value="0" leadInLength="0/1"  />
               <InterpolatingParam id="2616" interp="linr"  time="-9999999/1" value="0" leadInLength="0/1"  />
               <InterpolatingParam id="2617" interp="linr"  time="-9999999/1" value="0" leadInLength="0/1"  />
              </VectorParam>
              <VectorParam id="2618"  name="shear">
               <InterpolatingParam id="2619" interp="linr"  time="-9999999/1" value="0" leadInLength="0/1"  />
               <InterpolatingParam id="2620" interp="linr"  time="-9999999/1" value="0" leadInLength="0/1"  />
               <InterpolatingParam id="2621" interp="linr"  time="-9999999/1" value="0" leadInLength="0/1"  />
              </VectorParam>
              <VectorParam id="2622"  name="scale">
               <InterpolatingParam id="2623" interp="linr"  time="-9999999/1" value="1" leadInLength="0/1"  />
               <InterpolatingParam id="2624" interp="linr"  time="-9999999/1" value="1" leadInLength="0/1"  />
               <InterpolatingParam id="2625" interp="linr"  time="-9999999/1" value="1" leadInLength="0/1"  />
              </VectorParam>
              <VectorParam id="2626"  name="anchor">
               <InterpolatingParam id="2627" interp="linr"  time="0/1" value="0" leadInLength="0/1"  />
               <InterpolatingParam id="2628" interp="linr"  time="0/1" value="0" leadInLength="0/1"  />
               <InterpolatingParam id="2629" interp="linr"  time="0/1" value="0" leadInLength="0/1"  />
              </VectorParam>
             </Transformer>
             <Parameters>
              <VectorParam id="2630"  name="sourceCrop">
               <InterpolatingParam id="2631" interp="linr"  time="0/1" value="0" leadInLength="0/1"  />
               <InterpolatingParam id="2632" interp="linr"  time="0/1" value="0" leadInLength="0/1"  />
               <InterpolatingParam id="2633" interp="linr"  time="0/1" value="0" leadInLength="0/1"  />
               <InterpolatingParam id="2634" interp="linr"  time="0/1" value="0" leadInLength="0/1"  />
              </VectorParam>
              <VectorParam id="2635"  name="geometryCrop">
               <InterpolatingParam id="2636" interp="linr"  time="-9999999/1" value="0" leadInLength="0/1"  />
               <InterpolatingParam id="2637" interp="linr"  time="-9999999/1" value="0" leadInLength="0/1"  />
               <InterpolatingParam id="2638" interp="linr"  time="-9999999/1" value="0" leadInLength="0/1"  />
               <InterpolatingParam id="2639" interp="linr"  time="-9999999/1" value="0" leadInLength="0/1"  />
              </VectorParam>
              <InterpolatingParam id="2640" interp="linr"  time="-9999999/1" value="1" leadInLength="0/1"  name="opacity"/>
              <InterpolatingParam id="2641" interp="linr"  time="0/1" value="0" leadInLength="0/1"  name="cursorOpacity"/>
              <InterpolatingParam id="2642" interp="linr"  time="0/1" value="0" leadInLength="0/1"  name="cursorScale"/>
             </Parameters>
             <Attributes>
              <Attribute id="2643" value="" name="ident"/>
             </Attributes>
             <ExtraData>
              <Entry key="ZoomPanBin">
               <ZoomPanBin id="2644"  >
                <ZoomPanKeyframes>
                 <ZoomPanKeyframe id="2645" timeRangeEnd="-9999999/1" timeRangeDuration="0/1" interpolaterName=""  />
                </ZoomPanKeyframes>
               </ZoomPanBin>
              </Entry>
              <Entry key="CursorEffectBin">
               <CursorEffectBin id="2646"  >
                <CursorEffectKeyframes>
                </CursorEffectKeyframes>
               </CursorEffectBin>
              </Entry>
             </ExtraData>
            </ScreenVMFile>
            <MetaData>
             <entry key="AutoAppliedSmartFocus" val="False"/>
             <entry key="WinSubProjectDisplayName" val=""/>
            </MetaData>
           </UnifiedMedia>
           <UnifiedMedia id="2647"  >
            <AMFile id="2648" start="5965" duration="77" scalar="1/1" mediaStart="7186/1" mediaDuration="77/1" trackNumber="1" src="5" channelNumber="0,1" >
             <Parameters>
              <InterpolatingParam id="2649" interp="linr"  time="0/1" value="1" leadInLength="0/1"  name="volume"/>
              <Parameter id="2650"  name="captions"/>
             </Parameters>
             <Attributes>
              <Attribute id="2651" value="" name="ident"/>
              <Attribute id="2652" value="44100" name="sampleRate"/>
              <Attribute id="2653" value="16" name="bitDepth"/>
              <Attribute id="2654" value="1" name="gain"/>
              <Attribute id="2655" value="0" name="mixToMono"/>
             </Attributes>
            </AMFile>
            <ScreenVMFile id="2656" start="5965" duration="77" scalar="1/1" mediaStart="7186/1" mediaDuration="77/1" trackNumber="0" src="5" >
             <Transformer>
              <VectorParam id="2657"  name="translation">
               <InterpolatingParam id="2658" interp="linr"  time="-9999999/1" value="0" leadInLength="0/1"  />
               <InterpolatingParam id="2659" interp="linr"  time="-9999999/1" value="0" leadInLength="0/1"  />
               <InterpolatingParam id="2660" interp="linr"  time="-9999999/1" value="0" leadInLength="0/1"  />
              </VectorParam>
              <VectorParam id="2661"  name="rotation">
               <InterpolatingParam id="2662" interp="linr"  time="-9999999/1" value="0" leadInLength="0/1"  />
               <InterpolatingParam id="2663" interp="linr"  time="-9999999/1" value="0" leadInLength="0/1"  />
               <InterpolatingParam id="2664" interp="linr"  time="-9999999/1" value="0" leadInLength="0/1"  />
              </VectorParam>
              <VectorParam id="2665"  name="shear">
               <InterpolatingParam id="2666" interp="linr"  time="-9999999/1" value="0" leadInLength="0/1"  />
               <InterpolatingParam id="2667" interp="linr"  time="-9999999/1" value="0" leadInLength="0/1"  />
               <InterpolatingParam id="2668" interp="linr"  time="-9999999/1" value="0" leadInLength="0/1"  />
              </VectorParam>
              <VectorParam id="2669"  name="scale">
               <InterpolatingParam id="2670" interp="linr"  time="-9999999/1" value="1" leadInLength="0/1"  />
               <InterpolatingParam id="2671" interp="linr"  time="-9999999/1" value="1" leadInLength="0/1"  />
               <InterpolatingParam id="2672" interp="linr"  time="-9999999/1" value="1" leadInLength="0/1"  />
              </VectorParam>
              <VectorParam id="2673"  name="anchor">
               <InterpolatingParam id="2674" interp="linr"  time="0/1" value="0" leadInLength="0/1"  />
               <InterpolatingParam id="2675" interp="linr"  time="0/1" value="0" leadInLength="0/1"  />
               <InterpolatingParam id="2676" interp="linr"  time="0/1" value="0" leadInLength="0/1"  />
              </VectorParam>
             </Transformer>
             <Parameters>
              <VectorParam id="2677"  name="sourceCrop">
               <InterpolatingParam id="2678" interp="linr"  time="0/1" value="0" leadInLength="0/1"  />
               <InterpolatingParam id="2679" interp="linr"  time="0/1" value="0" leadInLength="0/1"  />
               <InterpolatingParam id="2680" interp="linr"  time="0/1" value="0" leadInLength="0/1"  />
               <InterpolatingParam id="2681" interp="linr"  time="0/1" value="0" leadInLength="0/1"  />
              </VectorParam>
              <VectorParam id="2682"  name="geometryCrop">
               <InterpolatingParam id="2683" interp="linr"  time="-9999999/1" value="0" leadInLength="0/1"  />
               <InterpolatingParam id="2684" interp="linr"  time="-9999999/1" value="0" leadInLength="0/1"  />
               <InterpolatingParam id="2685" interp="linr"  time="-9999999/1" value="0" leadInLength="0/1"  />
               <InterpolatingParam id="2686" interp="linr"  time="-9999999/1" value="0" leadInLength="0/1"  />
              </VectorParam>
              <InterpolatingParam id="2687" interp="linr"  time="-9999999/1" value="1" leadInLength="0/1"  name="opacity"/>
              <InterpolatingParam id="2688" interp="linr"  time="0/1" value="0" leadInLength="0/1"  name="cursorOpacity"/>
              <InterpolatingParam id="2689" interp="linr"  time="0/1" value="0" leadInLength="0/1"  name="cursorScale"/>
             </Parameters>
             <Attributes>
              <Attribute id="2690" value="" name="ident"/>
             </Attributes>
             <ExtraData>
              <Entry key="ZoomPanBin">
               <ZoomPanBin id="2691"  >
                <ZoomPanKeyframes>
                 <ZoomPanKeyframe id="2692" timeRangeEnd="-9999999/1" timeRangeDuration="0/1" interpolaterName=""  />
                </ZoomPanKeyframes>
               </ZoomPanBin>
              </Entry>
              <Entry key="CursorEffectBin">
               <CursorEffectBin id="2693"  >
                <CursorEffectKeyframes>
                </CursorEffectKeyframes>
               </CursorEffectBin>
              </Entry>
             </ExtraData>
            </ScreenVMFile>
            <MetaData>
             <entry key="AutoAppliedSmartFocus" val="False"/>
             <entry key="WinSubProjectDisplayName" val=""/>
            </MetaData>
           </UnifiedMedia>
           <UnifiedMedia id="2694"  >
            <AMFile id="2695" start="6042" duration="82" scalar="1/1" mediaStart="7302/1" mediaDuration="82/1" trackNumber="1" src="5" channelNumber="0,1" >
             <Parameters>
              <InterpolatingParam id="2696" interp="linr"  time="0/1" value="1" leadInLength="0/1"  name="volume"/>
              <Parameter id="2697"  name="captions"/>
             </Parameters>
             <Attributes>
              <Attribute id="2698" value="" name="ident"/>
              <Attribute id="2699" value="44100" name="sampleRate"/>
              <Attribute id="2700" value="16" name="bitDepth"/>
              <Attribute id="2701" value="1" name="gain"/>
              <Attribute id="2702" value="0" name="mixToMono"/>
             </Attributes>
            </AMFile>
            <ScreenVMFile id="2703" start="6042" duration="82" scalar="1/1" mediaStart="7302/1" mediaDuration="82/1" trackNumber="0" src="5" >
             <Transformer>
              <VectorParam id="2704"  name="translation">
               <InterpolatingParam id="2705" interp="linr"  time="-9999999/1" value="0" leadInLength="0/1"  />
               <InterpolatingParam id="2706" interp="linr"  time="-9999999/1" value="0" leadInLength="0/1"  />
               <InterpolatingParam id="2707" interp="linr"  time="-9999999/1" value="0" leadInLength="0/1"  />
              </VectorParam>
              <VectorParam id="2708"  name="rotation">
               <InterpolatingParam id="2709" interp="linr"  time="-9999999/1" value="0" leadInLength="0/1"  />
               <InterpolatingParam id="2710" interp="linr"  time="-9999999/1" value="0" leadInLength="0/1"  />
               <InterpolatingParam id="2711" interp="linr"  time="-9999999/1" value="0" leadInLength="0/1"  />
              </VectorParam>
              <VectorParam id="2712"  name="shear">
               <InterpolatingParam id="2713" interp="linr"  time="-9999999/1" value="0" leadInLength="0/1"  />
               <InterpolatingParam id="2714" interp="linr"  time="-9999999/1" value="0" leadInLength="0/1"  />
               <InterpolatingParam id="2715" interp="linr"  time="-9999999/1" value="0" leadInLength="0/1"  />
              </VectorParam>
              <VectorParam id="2716"  name="scale">
               <InterpolatingParam id="2717" interp="linr"  time="-9999999/1" value="1" leadInLength="0/1"  />
               <InterpolatingParam id="2718" interp="linr"  time="-9999999/1" value="1" leadInLength="0/1"  />
               <InterpolatingParam id="2719" interp="linr"  time="-9999999/1" value="1" leadInLength="0/1"  />
              </VectorParam>
              <VectorParam id="2720"  name="anchor">
               <InterpolatingParam id="2721" interp="linr"  time="0/1" value="0" leadInLength="0/1"  />
               <InterpolatingParam id="2722" interp="linr"  time="0/1" value="0" leadInLength="0/1"  />
               <InterpolatingParam id="2723" interp="linr"  time="0/1" value="0" leadInLength="0/1"  />
              </VectorParam>
             </Transformer>
             <Parameters>
              <VectorParam id="2724"  name="sourceCrop">
               <InterpolatingParam id="2725" interp="linr"  time="0/1" value="0" leadInLength="0/1"  />
               <InterpolatingParam id="2726" interp="linr"  time="0/1" value="0" leadInLength="0/1"  />
               <InterpolatingParam id="2727" interp="linr"  time="0/1" value="0" leadInLength="0/1"  />
               <InterpolatingParam id="2728" interp="linr"  time="0/1" value="0" leadInLength="0/1"  />
              </VectorParam>
              <VectorParam id="2729"  name="geometryCrop">
               <InterpolatingParam id="2730" interp="linr"  time="-9999999/1" value="0" leadInLength="0/1"  />
               <InterpolatingParam id="2731" interp="linr"  time="-9999999/1" value="0" leadInLength="0/1"  />
               <InterpolatingParam id="2732" interp="linr"  time="-9999999/1" value="0" leadInLength="0/1"  />
               <InterpolatingParam id="2733" interp="linr"  time="-9999999/1" value="0" leadInLength="0/1"  />
              </VectorParam>
              <InterpolatingParam id="2734" interp="linr"  time="-9999999/1" value="1" leadInLength="0/1"  name="opacity"/>
              <InterpolatingParam id="2735" interp="linr"  time="0/1" value="0" leadInLength="0/1"  name="cursorOpacity"/>
              <InterpolatingParam id="2736" interp="linr"  time="0/1" value="0" leadInLength="0/1"  name="cursorScale"/>
             </Parameters>
             <Attributes>
              <Attribute id="2737" value="" name="ident"/>
             </Attributes>
             <ExtraData>
              <Entry key="ZoomPanBin">
               <ZoomPanBin id="2738"  >
                <ZoomPanKeyframes>
                 <ZoomPanKeyframe id="2739" timeRangeEnd="-9999999/1" timeRangeDuration="0/1" interpolaterName=""  />
                </ZoomPanKeyframes>
               </ZoomPanBin>
              </Entry>
              <Entry key="CursorEffectBin">
               <CursorEffectBin id="2740"  >
                <CursorEffectKeyframes>
                </CursorEffectKeyframes>
               </CursorEffectBin>
              </Entry>
             </ExtraData>
            </ScreenVMFile>
            <MetaData>
             <entry key="AutoAppliedSmartFocus" val="False"/>
             <entry key="WinSubProjectDisplayName" val=""/>
            </MetaData>
           </UnifiedMedia>
           <UnifiedMedia id="2741"  >
            <AMFile id="2742" start="6124" duration="95" scalar="1/1" mediaStart="7437/1" mediaDuration="95/1" trackNumber="1" src="5" channelNumber="0,1" >
             <Parameters>
              <InterpolatingParam id="2743" interp="linr"  time="0/1" value="1" leadInLength="0/1"  name="volume"/>
              <Parameter id="2744"  name="captions"/>
             </Parameters>
             <Attributes>
              <Attribute id="2745" value="" name="ident"/>
              <Attribute id="2746" value="44100" name="sampleRate"/>
              <Attribute id="2747" value="16" name="bitDepth"/>
              <Attribute id="2748" value="1" name="gain"/>
              <Attribute id="2749" value="0" name="mixToMono"/>
             </Attributes>
            </AMFile>
            <ScreenVMFile id="2750" start="6124" duration="95" scalar="1/1" mediaStart="7437/1" mediaDuration="95/1" trackNumber="0" src="5" >
             <Transformer>
              <VectorParam id="2751"  name="translation">
               <InterpolatingParam id="2752" interp="linr"  time="-9999999/1" value="0" leadInLength="0/1"  />
               <InterpolatingParam id="2753" interp="linr"  time="-9999999/1" value="0" leadInLength="0/1"  />
               <InterpolatingParam id="2754" interp="linr"  time="-9999999/1" value="0" leadInLength="0/1"  />
              </VectorParam>
              <VectorParam id="2755"  name="rotation">
               <InterpolatingParam id="2756" interp="linr"  time="-9999999/1" value="0" leadInLength="0/1"  />
               <InterpolatingParam id="2757" interp="linr"  time="-9999999/1" value="0" leadInLength="0/1"  />
               <InterpolatingParam id="2758" interp="linr"  time="-9999999/1" value="0" leadInLength="0/1"  />
              </VectorParam>
              <VectorParam id="2759"  name="shear">
               <InterpolatingParam id="2760" interp="linr"  time="-9999999/1" value="0" leadInLength="0/1"  />
               <InterpolatingParam id="2761" interp="linr"  time="-9999999/1" value="0" leadInLength="0/1"  />
               <InterpolatingParam id="2762" interp="linr"  time="-9999999/1" value="0" leadInLength="0/1"  />
              </VectorParam>
              <VectorParam id="2763"  name="scale">
               <InterpolatingParam id="2764" interp="linr"  time="-9999999/1" value="1" leadInLength="0/1"  />
               <InterpolatingParam id="2765" interp="linr"  time="-9999999/1" value="1" leadInLength="0/1"  />
               <InterpolatingParam id="2766" interp="linr"  time="-9999999/1" value="1" leadInLength="0/1"  />
              </VectorParam>
              <VectorParam id="2767"  name="anchor">
               <InterpolatingParam id="2768" interp="linr"  time="0/1" value="0" leadInLength="0/1"  />
               <InterpolatingParam id="2769" interp="linr"  time="0/1" value="0" leadInLength="0/1"  />
               <InterpolatingParam id="2770" interp="linr"  time="0/1" value="0" leadInLength="0/1"  />
              </VectorParam>
             </Transformer>
             <Parameters>
              <VectorParam id="2771"  name="sourceCrop">
               <InterpolatingParam id="2772" interp="linr"  time="0/1" value="0" leadInLength="0/1"  />
               <InterpolatingParam id="2773" interp="linr"  time="0/1" value="0" leadInLength="0/1"  />
               <InterpolatingParam id="2774" interp="linr"  time="0/1" value="0" leadInLength="0/1"  />
               <InterpolatingParam id="2775" interp="linr"  time="0/1" value="0" leadInLength="0/1"  />
              </VectorParam>
              <VectorParam id="2776"  name="geometryCrop">
               <InterpolatingParam id="2777" interp="linr"  time="-9999999/1" value="0" leadInLength="0/1"  />
               <InterpolatingParam id="2778" interp="linr"  time="-9999999/1" value="0" leadInLength="0/1"  />
               <InterpolatingParam id="2779" interp="linr"  time="-9999999/1" value="0" leadInLength="0/1"  />
               <InterpolatingParam id="2780" interp="linr"  time="-9999999/1" value="0" leadInLength="0/1"  />
              </VectorParam>
              <InterpolatingParam id="2781" interp="linr"  time="-9999999/1" value="1" leadInLength="0/1"  name="opacity"/>
              <InterpolatingParam id="2782" interp="linr"  time="0/1" value="0" leadInLength="0/1"  name="cursorOpacity"/>
              <InterpolatingParam id="2783" interp="linr"  time="0/1" value="0" leadInLength="0/1"  name="cursorScale"/>
             </Parameters>
             <Attributes>
              <Attribute id="2784" value="" name="ident"/>
             </Attributes>
             <ExtraData>
              <Entry key="ZoomPanBin">
               <ZoomPanBin id="2785"  >
                <ZoomPanKeyframes>
                 <ZoomPanKeyframe id="2786" timeRangeEnd="-9999999/1" timeRangeDuration="0/1" interpolaterName=""  />
                </ZoomPanKeyframes>
               </ZoomPanBin>
              </Entry>
              <Entry key="CursorEffectBin">
               <CursorEffectBin id="2787"  >
                <CursorEffectKeyframes>
                </CursorEffectKeyframes>
               </CursorEffectBin>
              </Entry>
             </ExtraData>
            </ScreenVMFile>
            <MetaData>
             <entry key="AutoAppliedSmartFocus" val="False"/>
             <entry key="WinSubProjectDisplayName" val=""/>
            </MetaData>
           </UnifiedMedia>
           <UnifiedMedia id="2788"  >
            <AMFile id="2789" start="6219" duration="108" scalar="1/1" mediaStart="7556/1" mediaDuration="108/1" trackNumber="1" src="5" channelNumber="0,1" >
             <Parameters>
              <InterpolatingParam id="2790" interp="linr"  time="0/1" value="1" leadInLength="0/1"  name="volume"/>
              <Parameter id="2791"  name="captions"/>
             </Parameters>
             <Attributes>
              <Attribute id="2792" value="" name="ident"/>
              <Attribute id="2793" value="44100" name="sampleRate"/>
              <Attribute id="2794" value="16" name="bitDepth"/>
              <Attribute id="2795" value="1" name="gain"/>
              <Attribute id="2796" value="0" name="mixToMono"/>
             </Attributes>
            </AMFile>
            <ScreenVMFile id="2797" start="6219" duration="108" scalar="1/1" mediaStart="7556/1" mediaDuration="108/1" trackNumber="0" src="5" >
             <Transformer>
              <VectorParam id="2798"  name="translation">
               <InterpolatingParam id="2799" interp="linr"  time="-9999999/1" value="0" leadInLength="0/1"  />
               <InterpolatingParam id="2800" interp="linr"  time="-9999999/1" value="0" leadInLength="0/1"  />
               <InterpolatingParam id="2801" interp="linr"  time="-9999999/1" value="0" leadInLength="0/1"  />
              </VectorParam>
              <VectorParam id="2802"  name="rotation">
               <InterpolatingParam id="2803" interp="linr"  time="-9999999/1" value="0" leadInLength="0/1"  />
               <InterpolatingParam id="2804" interp="linr"  time="-9999999/1" value="0" leadInLength="0/1"  />
               <InterpolatingParam id="2805" interp="linr"  time="-9999999/1" value="0" leadInLength="0/1"  />
              </VectorParam>
              <VectorParam id="2806"  name="shear">
               <InterpolatingParam id="2807" interp="linr"  time="-9999999/1" value="0" leadInLength="0/1"  />
               <InterpolatingParam id="2808" interp="linr"  time="-9999999/1" value="0" leadInLength="0/1"  />
               <InterpolatingParam id="2809" interp="linr"  time="-9999999/1" value="0" leadInLength="0/1"  />
              </VectorParam>
              <VectorParam id="2810"  name="scale">
               <InterpolatingParam id="2811" interp="linr"  time="-9999999/1" value="1" leadInLength="0/1"  />
               <InterpolatingParam id="2812" interp="linr"  time="-9999999/1" value="1" leadInLength="0/1"  />
               <InterpolatingParam id="2813" interp="linr"  time="-9999999/1" value="1" leadInLength="0/1"  />
              </VectorParam>
              <VectorParam id="2814"  name="anchor">
               <InterpolatingParam id="2815" interp="linr"  time="0/1" value="0" leadInLength="0/1"  />
               <InterpolatingParam id="2816" interp="linr"  time="0/1" value="0" leadInLength="0/1"  />
               <InterpolatingParam id="2817" interp="linr"  time="0/1" value="0" leadInLength="0/1"  />
              </VectorParam>
             </Transformer>
             <Parameters>
              <VectorParam id="2818"  name="sourceCrop">
               <InterpolatingParam id="2819" interp="linr"  time="0/1" value="0" leadInLength="0/1"  />
               <InterpolatingParam id="2820" interp="linr"  time="0/1" value="0" leadInLength="0/1"  />
               <InterpolatingParam id="2821" interp="linr"  time="0/1" value="0" leadInLength="0/1"  />
               <InterpolatingParam id="2822" interp="linr"  time="0/1" value="0" leadInLength="0/1"  />
              </VectorParam>
              <VectorParam id="2823"  name="geometryCrop">
               <InterpolatingParam id="2824" interp="linr"  time="-9999999/1" value="0" leadInLength="0/1"  />
               <InterpolatingParam id="2825" interp="linr"  time="-9999999/1" value="0" leadInLength="0/1"  />
               <InterpolatingParam id="2826" interp="linr"  time="-9999999/1" value="0" leadInLength="0/1"  />
               <InterpolatingParam id="2827" interp="linr"  time="-9999999/1" value="0" leadInLength="0/1"  />
              </VectorParam>
              <InterpolatingParam id="2828" interp="linr"  time="-9999999/1" value="1" leadInLength="0/1"  name="opacity"/>
              <InterpolatingParam id="2829" interp="linr"  time="0/1" value="0" leadInLength="0/1"  name="cursorOpacity"/>
              <InterpolatingParam id="2830" interp="linr"  time="0/1" value="0" leadInLength="0/1"  name="cursorScale"/>
             </Parameters>
             <Attributes>
              <Attribute id="2831" value="" name="ident"/>
             </Attributes>
             <ExtraData>
              <Entry key="ZoomPanBin">
               <ZoomPanBin id="2832"  >
                <ZoomPanKeyframes>
                 <ZoomPanKeyframe id="2833" timeRangeEnd="-9999999/1" timeRangeDuration="0/1" interpolaterName=""  />
                </ZoomPanKeyframes>
               </ZoomPanBin>
              </Entry>
              <Entry key="CursorEffectBin">
               <CursorEffectBin id="2834"  >
                <CursorEffectKeyframes>
                </CursorEffectKeyframes>
               </CursorEffectBin>
              </Entry>
             </ExtraData>
            </ScreenVMFile>
            <MetaData>
             <entry key="AutoAppliedSmartFocus" val="False"/>
             <entry key="WinSubProjectDisplayName" val=""/>
            </MetaData>
           </UnifiedMedia>
           <UnifiedMedia id="2835"  >
            <AMFile id="2836" start="6327" duration="177" scalar="1/1" mediaStart="7685/1" mediaDuration="177/1" trackNumber="1" src="5" channelNumber="0,1" >
             <Parameters>
              <InterpolatingParam id="2837" interp="linr"  time="0/1" value="1" leadInLength="0/1"  name="volume"/>
              <Parameter id="2838"  name="captions"/>
             </Parameters>
             <Attributes>
              <Attribute id="2839" value="" name="ident"/>
              <Attribute id="2840" value="44100" name="sampleRate"/>
              <Attribute id="2841" value="16" name="bitDepth"/>
              <Attribute id="2842" value="1" name="gain"/>
              <Attribute id="2843" value="0" name="mixToMono"/>
             </Attributes>
            </AMFile>
            <ScreenVMFile id="2844" start="6327" duration="177" scalar="1/1" mediaStart="7685/1" mediaDuration="177/1" trackNumber="0" src="5" >
             <Transformer>
              <VectorParam id="2845"  name="translation">
               <InterpolatingParam id="2846" interp="linr"  time="-9999999/1" value="0" leadInLength="0/1"  />
               <InterpolatingParam id="2847" interp="linr"  time="-9999999/1" value="0" leadInLength="0/1"  />
               <InterpolatingParam id="2848" interp="linr"  time="-9999999/1" value="0" leadInLength="0/1"  />
              </VectorParam>
              <VectorParam id="2849"  name="rotation">
               <InterpolatingParam id="2850" interp="linr"  time="-9999999/1" value="0" leadInLength="0/1"  />
               <InterpolatingParam id="2851" interp="linr"  time="-9999999/1" value="0" leadInLength="0/1"  />
               <InterpolatingParam id="2852" interp="linr"  time="-9999999/1" value="0" leadInLength="0/1"  />
              </VectorParam>
              <VectorParam id="2853"  name="shear">
               <InterpolatingParam id="2854" interp="linr"  time="-9999999/1" value="0" leadInLength="0/1"  />
               <InterpolatingParam id="2855" interp="linr"  time="-9999999/1" value="0" leadInLength="0/1"  />
               <InterpolatingParam id="2856" interp="linr"  time="-9999999/1" value="0" leadInLength="0/1"  />
              </VectorParam>
              <VectorParam id="2857"  name="scale">
               <InterpolatingParam id="2858" interp="linr"  time="-9999999/1" value="1" leadInLength="0/1"  />
               <InterpolatingParam id="2859" interp="linr"  time="-9999999/1" value="1" leadInLength="0/1"  />
               <InterpolatingParam id="2860" interp="linr"  time="-9999999/1" value="1" leadInLength="0/1"  />
              </VectorParam>
              <VectorParam id="2861"  name="anchor">
               <InterpolatingParam id="2862" interp="linr"  time="0/1" value="0" leadInLength="0/1"  />
               <InterpolatingParam id="2863" interp="linr"  time="0/1" value="0" leadInLength="0/1"  />
               <InterpolatingParam id="2864" interp="linr"  time="0/1" value="0" leadInLength="0/1"  />
              </VectorParam>
             </Transformer>
             <Parameters>
              <VectorParam id="2865"  name="sourceCrop">
               <InterpolatingParam id="2866" interp="linr"  time="0/1" value="0" leadInLength="0/1"  />
               <InterpolatingParam id="2867" interp="linr"  time="0/1" value="0" leadInLength="0/1"  />
               <InterpolatingParam id="2868" interp="linr"  time="0/1" value="0" leadInLength="0/1"  />
               <InterpolatingParam id="2869" interp="linr"  time="0/1" value="0" leadInLength="0/1"  />
              </VectorParam>
              <VectorParam id="2870"  name="geometryCrop">
               <InterpolatingParam id="2871" interp="linr"  time="-9999999/1" value="0" leadInLength="0/1"  />
               <InterpolatingParam id="2872" interp="linr"  time="-9999999/1" value="0" leadInLength="0/1"  />
               <InterpolatingParam id="2873" interp="linr"  time="-9999999/1" value="0" leadInLength="0/1"  />
               <InterpolatingParam id="2874" interp="linr"  time="-9999999/1" value="0" leadInLength="0/1"  />
              </VectorParam>
              <InterpolatingParam id="2875" interp="linr"  time="-9999999/1" value="1" leadInLength="0/1"  name="opacity"/>
              <InterpolatingParam id="2876" interp="linr"  time="0/1" value="0" leadInLength="0/1"  name="cursorOpacity"/>
              <InterpolatingParam id="2877" interp="linr"  time="0/1" value="0" leadInLength="0/1"  name="cursorScale"/>
             </Parameters>
             <Attributes>
              <Attribute id="2878" value="" name="ident"/>
             </Attributes>
             <ExtraData>
              <Entry key="ZoomPanBin">
               <ZoomPanBin id="2879"  >
                <ZoomPanKeyframes>
                 <ZoomPanKeyframe id="2880" timeRangeEnd="-9999999/1" timeRangeDuration="0/1" interpolaterName=""  />
                </ZoomPanKeyframes>
               </ZoomPanBin>
              </Entry>
              <Entry key="CursorEffectBin">
               <CursorEffectBin id="2881"  >
                <CursorEffectKeyframes>
                </CursorEffectKeyframes>
               </CursorEffectBin>
              </Entry>
             </ExtraData>
            </ScreenVMFile>
            <MetaData>
             <entry key="AutoAppliedSmartFocus" val="False"/>
             <entry key="WinSubProjectDisplayName" val=""/>
            </MetaData>
           </UnifiedMedia>
           <UnifiedMedia id="2882"  >
            <AMFile id="2883" start="6504" duration="116" scalar="1/1" mediaStart="7885/1" mediaDuration="116/1" trackNumber="1" src="5" channelNumber="0,1" >
             <Parameters>
              <InterpolatingParam id="2884" interp="linr"  time="0/1" value="1" leadInLength="0/1"  name="volume"/>
              <Parameter id="2885"  name="captions"/>
             </Parameters>
             <Attributes>
              <Attribute id="2886" value="" name="ident"/>
              <Attribute id="2887" value="44100" name="sampleRate"/>
              <Attribute id="2888" value="16" name="bitDepth"/>
              <Attribute id="2889" value="1" name="gain"/>
              <Attribute id="2890" value="0" name="mixToMono"/>
             </Attributes>
            </AMFile>
            <ScreenVMFile id="2891" start="6504" duration="116" scalar="1/1" mediaStart="7885/1" mediaDuration="116/1" trackNumber="0" src="5" >
             <Transformer>
              <VectorParam id="2892"  name="translation">
               <InterpolatingParam id="2893" interp="linr"  time="-9999999/1" value="0" leadInLength="0/1"  />
               <InterpolatingParam id="2894" interp="linr"  time="-9999999/1" value="0" leadInLength="0/1"  />
               <InterpolatingParam id="2895" interp="linr"  time="-9999999/1" value="0" leadInLength="0/1"  />
              </VectorParam>
              <VectorParam id="2896"  name="rotation">
               <InterpolatingParam id="2897" interp="linr"  time="-9999999/1" value="0" leadInLength="0/1"  />
               <InterpolatingParam id="2898" interp="linr"  time="-9999999/1" value="0" leadInLength="0/1"  />
               <InterpolatingParam id="2899" interp="linr"  time="-9999999/1" value="0" leadInLength="0/1"  />
              </VectorParam>
              <VectorParam id="2900"  name="shear">
               <InterpolatingParam id="2901" interp="linr"  time="-9999999/1" value="0" leadInLength="0/1"  />
               <InterpolatingParam id="2902" interp="linr"  time="-9999999/1" value="0" leadInLength="0/1"  />
               <InterpolatingParam id="2903" interp="linr"  time="-9999999/1" value="0" leadInLength="0/1"  />
              </VectorParam>
              <VectorParam id="2904"  name="scale">
               <InterpolatingParam id="2905" interp="linr"  time="-9999999/1" value="1" leadInLength="0/1"  />
               <InterpolatingParam id="2906" interp="linr"  time="-9999999/1" value="1" leadInLength="0/1"  />
               <InterpolatingParam id="2907" interp="linr"  time="-9999999/1" value="1" leadInLength="0/1"  />
              </VectorParam>
              <VectorParam id="2908"  name="anchor">
               <InterpolatingParam id="2909" interp="linr"  time="0/1" value="0" leadInLength="0/1"  />
               <InterpolatingParam id="2910" interp="linr"  time="0/1" value="0" leadInLength="0/1"  />
               <InterpolatingParam id="2911" interp="linr"  time="0/1" value="0" leadInLength="0/1"  />
              </VectorParam>
             </Transformer>
             <Parameters>
              <VectorParam id="2912"  name="sourceCrop">
               <InterpolatingParam id="2913" interp="linr"  time="0/1" value="0" leadInLength="0/1"  />
               <InterpolatingParam id="2914" interp="linr"  time="0/1" value="0" leadInLength="0/1"  />
               <InterpolatingParam id="2915" interp="linr"  time="0/1" value="0" leadInLength="0/1"  />
               <InterpolatingParam id="2916" interp="linr"  time="0/1" value="0" leadInLength="0/1"  />
              </VectorParam>
              <VectorParam id="2917"  name="geometryCrop">
               <InterpolatingParam id="2918" interp="linr"  time="-9999999/1" value="0" leadInLength="0/1"  />
               <InterpolatingParam id="2919" interp="linr"  time="-9999999/1" value="0" leadInLength="0/1"  />
               <InterpolatingParam id="2920" interp="linr"  time="-9999999/1" value="0" leadInLength="0/1"  />
               <InterpolatingParam id="2921" interp="linr"  time="-9999999/1" value="0" leadInLength="0/1"  />
              </VectorParam>
              <InterpolatingParam id="2922" interp="linr"  time="-9999999/1" value="1" leadInLength="0/1"  name="opacity"/>
              <InterpolatingParam id="2923" interp="linr"  time="0/1" value="0" leadInLength="0/1"  name="cursorOpacity"/>
              <InterpolatingParam id="2924" interp="linr"  time="0/1" value="0" leadInLength="0/1"  name="cursorScale"/>
             </Parameters>
             <Attributes>
              <Attribute id="2925" value="" name="ident"/>
             </Attributes>
             <ExtraData>
              <Entry key="ZoomPanBin">
               <ZoomPanBin id="2926"  >
                <ZoomPanKeyframes>
                 <ZoomPanKeyframe id="2927" timeRangeEnd="-9999999/1" timeRangeDuration="0/1" interpolaterName=""  />
                </ZoomPanKeyframes>
               </ZoomPanBin>
              </Entry>
              <Entry key="CursorEffectBin">
               <CursorEffectBin id="2928"  >
                <CursorEffectKeyframes>
                </CursorEffectKeyframes>
               </CursorEffectBin>
              </Entry>
             </ExtraData>
            </ScreenVMFile>
            <MetaData>
             <entry key="AutoAppliedSmartFocus" val="False"/>
             <entry key="WinSubProjectDisplayName" val=""/>
            </MetaData>
           </UnifiedMedia>
           <UnifiedMedia id="2929"  >
            <AMFile id="2930" start="6620" duration="110" scalar="1/1" mediaStart="8022/1" mediaDuration="110/1" trackNumber="1" src="5" channelNumber="0,1" >
             <Parameters>
              <InterpolatingParam id="2931" interp="linr"  time="0/1" value="1" leadInLength="0/1"  name="volume"/>
              <Parameter id="2932"  name="captions"/>
             </Parameters>
             <Attributes>
              <Attribute id="2933" value="" name="ident"/>
              <Attribute id="2934" value="44100" name="sampleRate"/>
              <Attribute id="2935" value="16" name="bitDepth"/>
              <Attribute id="2936" value="1" name="gain"/>
              <Attribute id="2937" value="0" name="mixToMono"/>
             </Attributes>
            </AMFile>
            <ScreenVMFile id="2938" start="6620" duration="110" scalar="1/1" mediaStart="8022/1" mediaDuration="110/1" trackNumber="0" src="5" >
             <Transformer>
              <VectorParam id="2939"  name="translation">
               <InterpolatingParam id="2940" interp="linr"  time="-9999999/1" value="0" leadInLength="0/1"  />
               <InterpolatingParam id="2941" interp="linr"  time="-9999999/1" value="0" leadInLength="0/1"  />
               <InterpolatingParam id="2942" interp="linr"  time="-9999999/1" value="0" leadInLength="0/1"  />
              </VectorParam>
              <VectorParam id="2943"  name="rotation">
               <InterpolatingParam id="2944" interp="linr"  time="-9999999/1" value="0" leadInLength="0/1"  />
               <InterpolatingParam id="2945" interp="linr"  time="-9999999/1" value="0" leadInLength="0/1"  />
               <InterpolatingParam id="2946" interp="linr"  time="-9999999/1" value="0" leadInLength="0/1"  />
              </VectorParam>
              <VectorParam id="2947"  name="shear">
               <InterpolatingParam id="2948" interp="linr"  time="-9999999/1" value="0" leadInLength="0/1"  />
               <InterpolatingParam id="2949" interp="linr"  time="-9999999/1" value="0" leadInLength="0/1"  />
               <InterpolatingParam id="2950" interp="linr"  time="-9999999/1" value="0" leadInLength="0/1"  />
              </VectorParam>
              <VectorParam id="2951"  name="scale">
               <InterpolatingParam id="2952" interp="linr"  time="-9999999/1" value="1" leadInLength="0/1"  />
               <InterpolatingParam id="2953" interp="linr"  time="-9999999/1" value="1" leadInLength="0/1"  />
               <InterpolatingParam id="2954" interp="linr"  time="-9999999/1" value="1" leadInLength="0/1"  />
              </VectorParam>
              <VectorParam id="2955"  name="anchor">
               <InterpolatingParam id="2956" interp="linr"  time="0/1" value="0" leadInLength="0/1"  />
               <InterpolatingParam id="2957" interp="linr"  time="0/1" value="0" leadInLength="0/1"  />
               <InterpolatingParam id="2958" interp="linr"  time="0/1" value="0" leadInLength="0/1"  />
              </VectorParam>
             </Transformer>
             <Parameters>
              <VectorParam id="2959"  name="sourceCrop">
               <InterpolatingParam id="2960" interp="linr"  time="0/1" value="0" leadInLength="0/1"  />
               <InterpolatingParam id="2961" interp="linr"  time="0/1" value="0" leadInLength="0/1"  />
               <InterpolatingParam id="2962" interp="linr"  time="0/1" value="0" leadInLength="0/1"  />
               <InterpolatingParam id="2963" interp="linr"  time="0/1" value="0" leadInLength="0/1"  />
              </VectorParam>
              <VectorParam id="2964"  name="geometryCrop">
               <InterpolatingParam id="2965" interp="linr"  time="-9999999/1" value="0" leadInLength="0/1"  />
               <InterpolatingParam id="2966" interp="linr"  time="-9999999/1" value="0" leadInLength="0/1"  />
               <InterpolatingParam id="2967" interp="linr"  time="-9999999/1" value="0" leadInLength="0/1"  />
               <InterpolatingParam id="2968" interp="linr"  time="-9999999/1" value="0" leadInLength="0/1"  />
              </VectorParam>
              <InterpolatingParam id="2969" interp="linr"  time="-9999999/1" value="1" leadInLength="0/1"  name="opacity"/>
              <InterpolatingParam id="2970" interp="linr"  time="0/1" value="0" leadInLength="0/1"  name="cursorOpacity"/>
              <InterpolatingParam id="2971" interp="linr"  time="0/1" value="0" leadInLength="0/1"  name="cursorScale"/>
             </Parameters>
             <Attributes>
              <Attribute id="2972" value="" name="ident"/>
             </Attributes>
             <ExtraData>
              <Entry key="ZoomPanBin">
               <ZoomPanBin id="2973"  >
                <ZoomPanKeyframes>
                 <ZoomPanKeyframe id="2974" timeRangeEnd="-9999999/1" timeRangeDuration="0/1" interpolaterName=""  />
                </ZoomPanKeyframes>
               </ZoomPanBin>
              </Entry>
              <Entry key="CursorEffectBin">
               <CursorEffectBin id="2975"  >
                <CursorEffectKeyframes>
                </CursorEffectKeyframes>
               </CursorEffectBin>
              </Entry>
             </ExtraData>
            </ScreenVMFile>
            <MetaData>
             <entry key="AutoAppliedSmartFocus" val="False"/>
             <entry key="WinSubProjectDisplayName" val=""/>
            </MetaData>
           </UnifiedMedia>
           <UnifiedMedia id="2976"  >
            <AMFile id="2977" start="6730" duration="111" scalar="1/1" mediaStart="8152/1" mediaDuration="111/1" trackNumber="1" src="5" channelNumber="0,1" >
             <Parameters>
              <InterpolatingParam id="2978" interp="linr"  time="0/1" value="1" leadInLength="0/1"  name="volume"/>
              <Parameter id="2979"  name="captions"/>
             </Parameters>
             <Attributes>
              <Attribute id="2980" value="" name="ident"/>
              <Attribute id="2981" value="44100" name="sampleRate"/>
              <Attribute id="2982" value="16" name="bitDepth"/>
              <Attribute id="2983" value="1" name="gain"/>
              <Attribute id="2984" value="0" name="mixToMono"/>
             </Attributes>
            </AMFile>
            <ScreenVMFile id="2985" start="6730" duration="111" scalar="1/1" mediaStart="8152/1" mediaDuration="111/1" trackNumber="0" src="5" >
             <Transformer>
              <VectorParam id="2986"  name="translation">
               <InterpolatingParam id="2987" interp="linr"  time="-9999999/1" value="0" leadInLength="0/1"  />
               <InterpolatingParam id="2988" interp="linr"  time="-9999999/1" value="0" leadInLength="0/1"  />
               <InterpolatingParam id="2989" interp="linr"  time="-9999999/1" value="0" leadInLength="0/1"  />
              </VectorParam>
              <VectorParam id="2990"  name="rotation">
               <InterpolatingParam id="2991" interp="linr"  time="-9999999/1" value="0" leadInLength="0/1"  />
               <InterpolatingParam id="2992" interp="linr"  time="-9999999/1" value="0" leadInLength="0/1"  />
               <InterpolatingParam id="2993" interp="linr"  time="-9999999/1" value="0" leadInLength="0/1"  />
              </VectorParam>
              <VectorParam id="2994"  name="shear">
               <InterpolatingParam id="2995" interp="linr"  time="-9999999/1" value="0" leadInLength="0/1"  />
               <InterpolatingParam id="2996" interp="linr"  time="-9999999/1" value="0" leadInLength="0/1"  />
               <InterpolatingParam id="2997" interp="linr"  time="-9999999/1" value="0" leadInLength="0/1"  />
              </VectorParam>
              <VectorParam id="2998"  name="scale">
               <InterpolatingParam id="2999" interp="linr"  time="-9999999/1" value="1" leadInLength="0/1"  />
               <InterpolatingParam id="3000" interp="linr"  time="-9999999/1" value="1" leadInLength="0/1"  />
               <InterpolatingParam id="3001" interp="linr"  time="-9999999/1" value="1" leadInLength="0/1"  />
              </VectorParam>
              <VectorParam id="3002"  name="anchor">
               <InterpolatingParam id="3003" interp="linr"  time="0/1" value="0" leadInLength="0/1"  />
               <InterpolatingParam id="3004" interp="linr"  time="0/1" value="0" leadInLength="0/1"  />
               <InterpolatingParam id="3005" interp="linr"  time="0/1" value="0" leadInLength="0/1"  />
              </VectorParam>
             </Transformer>
             <Parameters>
              <VectorParam id="3006"  name="sourceCrop">
               <InterpolatingParam id="3007" interp="linr"  time="0/1" value="0" leadInLength="0/1"  />
               <InterpolatingParam id="3008" interp="linr"  time="0/1" value="0" leadInLength="0/1"  />
               <InterpolatingParam id="3009" interp="linr"  time="0/1" value="0" leadInLength="0/1"  />
               <InterpolatingParam id="3010" interp="linr"  time="0/1" value="0" leadInLength="0/1"  />
              </VectorParam>
              <VectorParam id="3011"  name="geometryCrop">
               <InterpolatingParam id="3012" interp="linr"  time="-9999999/1" value="0" leadInLength="0/1"  />
               <InterpolatingParam id="3013" interp="linr"  time="-9999999/1" value="0" leadInLength="0/1"  />
               <InterpolatingParam id="3014" interp="linr"  time="-9999999/1" value="0" leadInLength="0/1"  />
               <InterpolatingParam id="3015" interp="linr"  time="-9999999/1" value="0" leadInLength="0/1"  />
              </VectorParam>
              <InterpolatingParam id="3016" interp="linr"  time="-9999999/1" value="1" leadInLength="0/1"  name="opacity"/>
              <InterpolatingParam id="3017" interp="linr"  time="0/1" value="0" leadInLength="0/1"  name="cursorOpacity"/>
              <InterpolatingParam id="3018" interp="linr"  time="0/1" value="0" leadInLength="0/1"  name="cursorScale"/>
             </Parameters>
             <Attributes>
              <Attribute id="3019" value="" name="ident"/>
             </Attributes>
             <ExtraData>
              <Entry key="ZoomPanBin">
               <ZoomPanBin id="3020"  >
                <ZoomPanKeyframes>
                 <ZoomPanKeyframe id="3021" timeRangeEnd="-9999999/1" timeRangeDuration="0/1" interpolaterName=""  />
                </ZoomPanKeyframes>
               </ZoomPanBin>
              </Entry>
              <Entry key="CursorEffectBin">
               <CursorEffectBin id="3022"  >
                <CursorEffectKeyframes>
                </CursorEffectKeyframes>
               </CursorEffectBin>
              </Entry>
             </ExtraData>
            </ScreenVMFile>
            <MetaData>
             <entry key="AutoAppliedSmartFocus" val="False"/>
             <entry key="WinSubProjectDisplayName" val=""/>
            </MetaData>
           </UnifiedMedia>
           <UnifiedMedia id="3023"  >
            <AMFile id="3024" start="6841" duration="254" scalar="1/1" mediaStart="8276/1" mediaDuration="254/1" trackNumber="1" src="5" channelNumber="0,1" >
             <Parameters>
              <InterpolatingParam id="3025" interp="linr"  time="0/1" value="1" leadInLength="0/1"  name="volume"/>
              <Parameter id="3026"  name="captions"/>
             </Parameters>
             <Attributes>
              <Attribute id="3027" value="" name="ident"/>
              <Attribute id="3028" value="44100" name="sampleRate"/>
              <Attribute id="3029" value="16" name="bitDepth"/>
              <Attribute id="3030" value="1" name="gain"/>
              <Attribute id="3031" value="0" name="mixToMono"/>
             </Attributes>
            </AMFile>
            <ScreenVMFile id="3032" start="6841" duration="254" scalar="1/1" mediaStart="8276/1" mediaDuration="254/1" trackNumber="0" src="5" >
             <Transformer>
              <VectorParam id="3033"  name="translation">
               <InterpolatingParam id="3034" interp="linr"  time="-9999999/1" value="0" leadInLength="0/1"  />
               <InterpolatingParam id="3035" interp="linr"  time="-9999999/1" value="0" leadInLength="0/1"  />
               <InterpolatingParam id="3036" interp="linr"  time="-9999999/1" value="0" leadInLength="0/1"  />
              </VectorParam>
              <VectorParam id="3037"  name="rotation">
               <InterpolatingParam id="3038" interp="linr"  time="-9999999/1" value="0" leadInLength="0/1"  />
               <InterpolatingParam id="3039" interp="linr"  time="-9999999/1" value="0" leadInLength="0/1"  />
               <InterpolatingParam id="3040" interp="linr"  time="-9999999/1" value="0" leadInLength="0/1"  />
              </VectorParam>
              <VectorParam id="3041"  name="shear">
               <InterpolatingParam id="3042" interp="linr"  time="-9999999/1" value="0" leadInLength="0/1"  />
               <InterpolatingParam id="3043" interp="linr"  time="-9999999/1" value="0" leadInLength="0/1"  />
               <InterpolatingParam id="3044" interp="linr"  time="-9999999/1" value="0" leadInLength="0/1"  />
              </VectorParam>
              <VectorParam id="3045"  name="scale">
               <InterpolatingParam id="3046" interp="linr"  time="-9999999/1" value="1" leadInLength="0/1"  />
               <InterpolatingParam id="3047" interp="linr"  time="-9999999/1" value="1" leadInLength="0/1"  />
               <InterpolatingParam id="3048" interp="linr"  time="-9999999/1" value="1" leadInLength="0/1"  />
              </VectorParam>
              <VectorParam id="3049"  name="anchor">
               <InterpolatingParam id="3050" interp="linr"  time="0/1" value="0" leadInLength="0/1"  />
               <InterpolatingParam id="3051" interp="linr"  time="0/1" value="0" leadInLength="0/1"  />
               <InterpolatingParam id="3052" interp="linr"  time="0/1" value="0" leadInLength="0/1"  />
              </VectorParam>
             </Transformer>
             <Parameters>
              <VectorParam id="3053"  name="sourceCrop">
               <InterpolatingParam id="3054" interp="linr"  time="0/1" value="0" leadInLength="0/1"  />
               <InterpolatingParam id="3055" interp="linr"  time="0/1" value="0" leadInLength="0/1"  />
               <InterpolatingParam id="3056" interp="linr"  time="0/1" value="0" leadInLength="0/1"  />
               <InterpolatingParam id="3057" interp="linr"  time="0/1" value="0" leadInLength="0/1"  />
              </VectorParam>
              <VectorParam id="3058"  name="geometryCrop">
               <InterpolatingParam id="3059" interp="linr"  time="-9999999/1" value="0" leadInLength="0/1"  />
               <InterpolatingParam id="3060" interp="linr"  time="-9999999/1" value="0" leadInLength="0/1"  />
               <InterpolatingParam id="3061" interp="linr"  time="-9999999/1" value="0" leadInLength="0/1"  />
               <InterpolatingParam id="3062" interp="linr"  time="-9999999/1" value="0" leadInLength="0/1"  />
              </VectorParam>
              <InterpolatingParam id="3063" interp="linr"  time="-9999999/1" value="1" leadInLength="0/1"  name="opacity"/>
              <InterpolatingParam id="3064" interp="linr"  time="0/1" value="0" leadInLength="0/1"  name="cursorOpacity"/>
              <InterpolatingParam id="3065" interp="linr"  time="0/1" value="0" leadInLength="0/1"  name="cursorScale"/>
             </Parameters>
             <Attributes>
              <Attribute id="3066" value="" name="ident"/>
             </Attributes>
             <ExtraData>
              <Entry key="ZoomPanBin">
               <ZoomPanBin id="3067"  >
                <ZoomPanKeyframes>
                 <ZoomPanKeyframe id="3068" timeRangeEnd="-9999999/1" timeRangeDuration="0/1" interpolaterName=""  />
                </ZoomPanKeyframes>
               </ZoomPanBin>
              </Entry>
              <Entry key="CursorEffectBin">
               <CursorEffectBin id="3069"  >
                <CursorEffectKeyframes>
                </CursorEffectKeyframes>
               </CursorEffectBin>
              </Entry>
             </ExtraData>
            </ScreenVMFile>
            <MetaData>
             <entry key="AutoAppliedSmartFocus" val="False"/>
             <entry key="WinSubProjectDisplayName" val=""/>
            </MetaData>
           </UnifiedMedia>
           <UnifiedMedia id="3070"  >
            <AMFile id="3071" start="7095" duration="484" scalar="1/1" mediaStart="8549/1" mediaDuration="484/1" trackNumber="1" src="5" channelNumber="0,1" >
             <Parameters>
              <InterpolatingParam id="3072" interp="linr"  time="0/1" value="1" leadInLength="0/1"  name="volume"/>
              <Parameter id="3073"  name="captions"/>
             </Parameters>
             <Attributes>
              <Attribute id="3074" value="" name="ident"/>
              <Attribute id="3075" value="44100" name="sampleRate"/>
              <Attribute id="3076" value="16" name="bitDepth"/>
              <Attribute id="3077" value="1" name="gain"/>
              <Attribute id="3078" value="0" name="mixToMono"/>
             </Attributes>
            </AMFile>
            <ScreenVMFile id="3079" start="7095" duration="484" scalar="1/1" mediaStart="8549/1" mediaDuration="484/1" trackNumber="0" src="5" >
             <Transformer>
              <VectorParam id="3080"  name="translation">
               <InterpolatingParam id="3081" interp="linr"  time="-9999999/1" value="0" leadInLength="0/1"  />
               <InterpolatingParam id="3082" interp="linr"  time="-9999999/1" value="0" leadInLength="0/1"  />
               <InterpolatingParam id="3083" interp="linr"  time="-9999999/1" value="0" leadInLength="0/1"  />
              </VectorParam>
              <VectorParam id="3084"  name="rotation">
               <InterpolatingParam id="3085" interp="linr"  time="-9999999/1" value="0" leadInLength="0/1"  />
               <InterpolatingParam id="3086" interp="linr"  time="-9999999/1" value="0" leadInLength="0/1"  />
               <InterpolatingParam id="3087" interp="linr"  time="-9999999/1" value="0" leadInLength="0/1"  />
              </VectorParam>
              <VectorParam id="3088"  name="shear">
               <InterpolatingParam id="3089" interp="linr"  time="-9999999/1" value="0" leadInLength="0/1"  />
               <InterpolatingParam id="3090" interp="linr"  time="-9999999/1" value="0" leadInLength="0/1"  />
               <InterpolatingParam id="3091" interp="linr"  time="-9999999/1" value="0" leadInLength="0/1"  />
              </VectorParam>
              <VectorParam id="3092"  name="scale">
               <InterpolatingParam id="3093" interp="linr"  time="-9999999/1" value="1" leadInLength="0/1"  />
               <InterpolatingParam id="3094" interp="linr"  time="-9999999/1" value="1" leadInLength="0/1"  />
               <InterpolatingParam id="3095" interp="linr"  time="-9999999/1" value="1" leadInLength="0/1"  />
              </VectorParam>
              <VectorParam id="3096"  name="anchor">
               <InterpolatingParam id="3097" interp="linr"  time="0/1" value="0" leadInLength="0/1"  />
               <InterpolatingParam id="3098" interp="linr"  time="0/1" value="0" leadInLength="0/1"  />
               <InterpolatingParam id="3099" interp="linr"  time="0/1" value="0" leadInLength="0/1"  />
              </VectorParam>
             </Transformer>
             <Parameters>
              <VectorParam id="3100"  name="sourceCrop">
               <InterpolatingParam id="3101" interp="linr"  time="0/1" value="0" leadInLength="0/1"  />
               <InterpolatingParam id="3102" interp="linr"  time="0/1" value="0" leadInLength="0/1"  />
               <InterpolatingParam id="3103" interp="linr"  time="0/1" value="0" leadInLength="0/1"  />
               <InterpolatingParam id="3104" interp="linr"  time="0/1" value="0" leadInLength="0/1"  />
              </VectorParam>
              <VectorParam id="3105"  name="geometryCrop">
               <InterpolatingParam id="3106" interp="linr"  time="-9999999/1" value="0" leadInLength="0/1"  />
               <InterpolatingParam id="3107" interp="linr"  time="-9999999/1" value="0" leadInLength="0/1"  />
               <InterpolatingParam id="3108" interp="linr"  time="-9999999/1" value="0" leadInLength="0/1"  />
               <InterpolatingParam id="3109" interp="linr"  time="-9999999/1" value="0" leadInLength="0/1"  />
              </VectorParam>
              <InterpolatingParam id="3110" interp="linr"  time="-9999999/1" value="1" leadInLength="0/1"  name="opacity"/>
              <InterpolatingParam id="3111" interp="linr"  time="0/1" value="0" leadInLength="0/1"  name="cursorOpacity"/>
              <InterpolatingParam id="3112" interp="linr"  time="0/1" value="0" leadInLength="0/1"  name="cursorScale"/>
             </Parameters>
             <Attributes>
              <Attribute id="3113" value="" name="ident"/>
             </Attributes>
             <ExtraData>
              <Entry key="ZoomPanBin">
               <ZoomPanBin id="3114"  >
                <ZoomPanKeyframes>
                 <ZoomPanKeyframe id="3115" timeRangeEnd="-9999999/1" timeRangeDuration="0/1" interpolaterName=""  />
                </ZoomPanKeyframes>
               </ZoomPanBin>
              </Entry>
              <Entry key="CursorEffectBin">
               <CursorEffectBin id="3116"  >
                <CursorEffectKeyframes>
                </CursorEffectKeyframes>
               </CursorEffectBin>
              </Entry>
             </ExtraData>
            </ScreenVMFile>
            <MetaData>
             <entry key="AutoAppliedSmartFocus" val="False"/>
             <entry key="WinSubProjectDisplayName" val=""/>
            </MetaData>
           </UnifiedMedia>
           <UnifiedMedia id="3117"  >
            <AMFile id="3118" start="7579" duration="237" scalar="1/1" mediaStart="9067/1" mediaDuration="237/1" trackNumber="1" src="5" channelNumber="0,1" >
             <Parameters>
              <InterpolatingParam id="3119" interp="linr"  time="0/1" value="1" leadInLength="0/1"  name="volume"/>
              <Parameter id="3120"  name="captions"/>
             </Parameters>
             <Attributes>
              <Attribute id="3121" value="" name="ident"/>
              <Attribute id="3122" value="44100" name="sampleRate"/>
              <Attribute id="3123" value="16" name="bitDepth"/>
              <Attribute id="3124" value="1" name="gain"/>
              <Attribute id="3125" value="0" name="mixToMono"/>
             </Attributes>
            </AMFile>
            <ScreenVMFile id="3126" start="7579" duration="237" scalar="1/1" mediaStart="9067/1" mediaDuration="237/1" trackNumber="0" src="5" >
             <Transformer>
              <VectorParam id="3127"  name="translation">
               <InterpolatingParam id="3128" interp="linr"  time="-9999999/1" value="0" leadInLength="0/1"  />
               <InterpolatingParam id="3129" interp="linr"  time="-9999999/1" value="0" leadInLength="0/1"  />
               <InterpolatingParam id="3130" interp="linr"  time="-9999999/1" value="0" leadInLength="0/1"  />
              </VectorParam>
              <VectorParam id="3131"  name="rotation">
               <InterpolatingParam id="3132" interp="linr"  time="-9999999/1" value="0" leadInLength="0/1"  />
               <InterpolatingParam id="3133" interp="linr"  time="-9999999/1" value="0" leadInLength="0/1"  />
               <InterpolatingParam id="3134" interp="linr"  time="-9999999/1" value="0" leadInLength="0/1"  />
              </VectorParam>
              <VectorParam id="3135"  name="shear">
               <InterpolatingParam id="3136" interp="linr"  time="-9999999/1" value="0" leadInLength="0/1"  />
               <InterpolatingParam id="3137" interp="linr"  time="-9999999/1" value="0" leadInLength="0/1"  />
               <InterpolatingParam id="3138" interp="linr"  time="-9999999/1" value="0" leadInLength="0/1"  />
              </VectorParam>
              <VectorParam id="3139"  name="scale">
               <InterpolatingParam id="3140" interp="linr"  time="-9999999/1" value="1" leadInLength="0/1"  />
               <InterpolatingParam id="3141" interp="linr"  time="-9999999/1" value="1" leadInLength="0/1"  />
               <InterpolatingParam id="3142" interp="linr"  time="-9999999/1" value="1" leadInLength="0/1"  />
              </VectorParam>
              <VectorParam id="3143"  name="anchor">
               <InterpolatingParam id="3144" interp="linr"  time="0/1" value="0" leadInLength="0/1"  />
               <InterpolatingParam id="3145" interp="linr"  time="0/1" value="0" leadInLength="0/1"  />
               <InterpolatingParam id="3146" interp="linr"  time="0/1" value="0" leadInLength="0/1"  />
              </VectorParam>
             </Transformer>
             <Parameters>
              <VectorParam id="3147"  name="sourceCrop">
               <InterpolatingParam id="3148" interp="linr"  time="0/1" value="0" leadInLength="0/1"  />
               <InterpolatingParam id="3149" interp="linr"  time="0/1" value="0" leadInLength="0/1"  />
               <InterpolatingParam id="3150" interp="linr"  time="0/1" value="0" leadInLength="0/1"  />
               <InterpolatingParam id="3151" interp="linr"  time="0/1" value="0" leadInLength="0/1"  />
              </VectorParam>
              <VectorParam id="3152"  name="geometryCrop">
               <InterpolatingParam id="3153" interp="linr"  time="-9999999/1" value="0" leadInLength="0/1"  />
               <InterpolatingParam id="3154" interp="linr"  time="-9999999/1" value="0" leadInLength="0/1"  />
               <InterpolatingParam id="3155" interp="linr"  time="-9999999/1" value="0" leadInLength="0/1"  />
               <InterpolatingParam id="3156" interp="linr"  time="-9999999/1" value="0" leadInLength="0/1"  />
              </VectorParam>
              <InterpolatingParam id="3157" interp="linr"  time="-9999999/1" value="1" leadInLength="0/1"  name="opacity"/>
              <InterpolatingParam id="3158" interp="linr"  time="0/1" value="0" leadInLength="0/1"  name="cursorOpacity"/>
              <InterpolatingParam id="3159" interp="linr"  time="0/1" value="0" leadInLength="0/1"  name="cursorScale"/>
             </Parameters>
             <Attributes>
              <Attribute id="3160" value="" name="ident"/>
             </Attributes>
             <ExtraData>
              <Entry key="ZoomPanBin">
               <ZoomPanBin id="3161"  >
                <ZoomPanKeyframes>
                 <ZoomPanKeyframe id="3162" timeRangeEnd="-9999999/1" timeRangeDuration="0/1" interpolaterName=""  />
                </ZoomPanKeyframes>
               </ZoomPanBin>
              </Entry>
              <Entry key="CursorEffectBin">
               <CursorEffectBin id="3163"  >
                <CursorEffectKeyframes>
                </CursorEffectKeyframes>
               </CursorEffectBin>
              </Entry>
             </ExtraData>
            </ScreenVMFile>
            <MetaData>
             <entry key="AutoAppliedSmartFocus" val="False"/>
             <entry key="WinSubProjectDisplayName" val=""/>
            </MetaData>
           </UnifiedMedia>
           <UnifiedMedia id="3164"  >
            <AMFile id="3165" start="7816" duration="71" scalar="1/1" mediaStart="9322/1" mediaDuration="71/1" trackNumber="1" src="5" channelNumber="0,1" >
             <Parameters>
              <InterpolatingParam id="3166" interp="linr"  time="0/1" value="1" leadInLength="0/1"  name="volume"/>
              <Parameter id="3167"  name="captions"/>
             </Parameters>
             <Attributes>
              <Attribute id="3168" value="" name="ident"/>
              <Attribute id="3169" value="44100" name="sampleRate"/>
              <Attribute id="3170" value="16" name="bitDepth"/>
              <Attribute id="3171" value="1" name="gain"/>
              <Attribute id="3172" value="0" name="mixToMono"/>
             </Attributes>
            </AMFile>
            <ScreenVMFile id="3173" start="7816" duration="71" scalar="1/1" mediaStart="9322/1" mediaDuration="71/1" trackNumber="0" src="5" >
             <Transformer>
              <VectorParam id="3174"  name="translation">
               <InterpolatingParam id="3175" interp="linr"  time="-9999999/1" value="0" leadInLength="0/1"  />
               <InterpolatingParam id="3176" interp="linr"  time="-9999999/1" value="0" leadInLength="0/1"  />
               <InterpolatingParam id="3177" interp="linr"  time="-9999999/1" value="0" leadInLength="0/1"  />
              </VectorParam>
              <VectorParam id="3178"  name="rotation">
               <InterpolatingParam id="3179" interp="linr"  time="-9999999/1" value="0" leadInLength="0/1"  />
               <InterpolatingParam id="3180" interp="linr"  time="-9999999/1" value="0" leadInLength="0/1"  />
               <InterpolatingParam id="3181" interp="linr"  time="-9999999/1" value="0" leadInLength="0/1"  />
              </VectorParam>
              <VectorParam id="3182"  name="shear">
               <InterpolatingParam id="3183" interp="linr"  time="-9999999/1" value="0" leadInLength="0/1"  />
               <InterpolatingParam id="3184" interp="linr"  time="-9999999/1" value="0" leadInLength="0/1"  />
               <InterpolatingParam id="3185" interp="linr"  time="-9999999/1" value="0" leadInLength="0/1"  />
              </VectorParam>
              <VectorParam id="3186"  name="scale">
               <InterpolatingParam id="3187" interp="linr"  time="-9999999/1" value="1" leadInLength="0/1"  />
               <InterpolatingParam id="3188" interp="linr"  time="-9999999/1" value="1" leadInLength="0/1"  />
               <InterpolatingParam id="3189" interp="linr"  time="-9999999/1" value="1" leadInLength="0/1"  />
              </VectorParam>
              <VectorParam id="3190"  name="anchor">
               <InterpolatingParam id="3191" interp="linr"  time="0/1" value="0" leadInLength="0/1"  />
               <InterpolatingParam id="3192" interp="linr"  time="0/1" value="0" leadInLength="0/1"  />
               <InterpolatingParam id="3193" interp="linr"  time="0/1" value="0" leadInLength="0/1"  />
              </VectorParam>
             </Transformer>
             <Parameters>
              <VectorParam id="3194"  name="sourceCrop">
               <InterpolatingParam id="3195" interp="linr"  time="0/1" value="0" leadInLength="0/1"  />
               <InterpolatingParam id="3196" interp="linr"  time="0/1" value="0" leadInLength="0/1"  />
               <InterpolatingParam id="3197" interp="linr"  time="0/1" value="0" leadInLength="0/1"  />
               <InterpolatingParam id="3198" interp="linr"  time="0/1" value="0" leadInLength="0/1"  />
              </VectorParam>
              <VectorParam id="3199"  name="geometryCrop">
               <InterpolatingParam id="3200" interp="linr"  time="-9999999/1" value="0" leadInLength="0/1"  />
               <InterpolatingParam id="3201" interp="linr"  time="-9999999/1" value="0" leadInLength="0/1"  />
               <InterpolatingParam id="3202" interp="linr"  time="-9999999/1" value="0" leadInLength="0/1"  />
               <InterpolatingParam id="3203" interp="linr"  time="-9999999/1" value="0" leadInLength="0/1"  />
              </VectorParam>
              <InterpolatingParam id="3204" interp="linr"  time="-9999999/1" value="1" leadInLength="0/1"  name="opacity"/>
              <InterpolatingParam id="3205" interp="linr"  time="0/1" value="0" leadInLength="0/1"  name="cursorOpacity"/>
              <InterpolatingParam id="3206" interp="linr"  time="0/1" value="0" leadInLength="0/1"  name="cursorScale"/>
             </Parameters>
             <Attributes>
              <Attribute id="3207" value="" name="ident"/>
             </Attributes>
             <ExtraData>
              <Entry key="ZoomPanBin">
               <ZoomPanBin id="3208"  >
                <ZoomPanKeyframes>
                 <ZoomPanKeyframe id="3209" timeRangeEnd="-9999999/1" timeRangeDuration="0/1" interpolaterName=""  />
                </ZoomPanKeyframes>
               </ZoomPanBin>
              </Entry>
              <Entry key="CursorEffectBin">
               <CursorEffectBin id="3210"  >
                <CursorEffectKeyframes>
                </CursorEffectKeyframes>
               </CursorEffectBin>
              </Entry>
             </ExtraData>
            </ScreenVMFile>
            <MetaData>
             <entry key="AutoAppliedSmartFocus" val="False"/>
             <entry key="WinSubProjectDisplayName" val=""/>
            </MetaData>
           </UnifiedMedia>
           <UnifiedMedia id="3211"  >
            <AMFile id="3212" start="7887" duration="173" scalar="1/1" mediaStart="9406/1" mediaDuration="173/1" trackNumber="1" src="5" channelNumber="0,1" >
             <Parameters>
              <InterpolatingParam id="3213" interp="linr"  time="0/1" value="1" leadInLength="0/1"  name="volume"/>
              <Parameter id="3214"  name="captions"/>
             </Parameters>
             <Attributes>
              <Attribute id="3215" value="" name="ident"/>
              <Attribute id="3216" value="44100" name="sampleRate"/>
              <Attribute id="3217" value="16" name="bitDepth"/>
              <Attribute id="3218" value="1" name="gain"/>
              <Attribute id="3219" value="0" name="mixToMono"/>
             </Attributes>
            </AMFile>
            <ScreenVMFile id="3220" start="7887" duration="173" scalar="1/1" mediaStart="9406/1" mediaDuration="173/1" trackNumber="0" src="5" >
             <Transformer>
              <VectorParam id="3221"  name="translation">
               <InterpolatingParam id="3222" interp="linr"  time="-9999999/1" value="0" leadInLength="0/1"  />
               <InterpolatingParam id="3223" interp="linr"  time="-9999999/1" value="0" leadInLength="0/1"  />
               <InterpolatingParam id="3224" interp="linr"  time="-9999999/1" value="0" leadInLength="0/1"  />
              </VectorParam>
              <VectorParam id="3225"  name="rotation">
               <InterpolatingParam id="3226" interp="linr"  time="-9999999/1" value="0" leadInLength="0/1"  />
               <InterpolatingParam id="3227" interp="linr"  time="-9999999/1" value="0" leadInLength="0/1"  />
               <InterpolatingParam id="3228" interp="linr"  time="-9999999/1" value="0" leadInLength="0/1"  />
              </VectorParam>
              <VectorParam id="3229"  name="shear">
               <InterpolatingParam id="3230" interp="linr"  time="-9999999/1" value="0" leadInLength="0/1"  />
               <InterpolatingParam id="3231" interp="linr"  time="-9999999/1" value="0" leadInLength="0/1"  />
               <InterpolatingParam id="3232" interp="linr"  time="-9999999/1" value="0" leadInLength="0/1"  />
              </VectorParam>
              <VectorParam id="3233"  name="scale">
               <InterpolatingParam id="3234" interp="linr"  time="-9999999/1" value="1" leadInLength="0/1"  />
               <InterpolatingParam id="3235" interp="linr"  time="-9999999/1" value="1" leadInLength="0/1"  />
               <InterpolatingParam id="3236" interp="linr"  time="-9999999/1" value="1" leadInLength="0/1"  />
              </VectorParam>
              <VectorParam id="3237"  name="anchor">
               <InterpolatingParam id="3238" interp="linr"  time="0/1" value="0" leadInLength="0/1"  />
               <InterpolatingParam id="3239" interp="linr"  time="0/1" value="0" leadInLength="0/1"  />
               <InterpolatingParam id="3240" interp="linr"  time="0/1" value="0" leadInLength="0/1"  />
              </VectorParam>
             </Transformer>
             <Parameters>
              <VectorParam id="3241"  name="sourceCrop">
               <InterpolatingParam id="3242" interp="linr"  time="0/1" value="0" leadInLength="0/1"  />
               <InterpolatingParam id="3243" interp="linr"  time="0/1" value="0" leadInLength="0/1"  />
               <InterpolatingParam id="3244" interp="linr"  time="0/1" value="0" leadInLength="0/1"  />
               <InterpolatingParam id="3245" interp="linr"  time="0/1" value="0" leadInLength="0/1"  />
              </VectorParam>
              <VectorParam id="3246"  name="geometryCrop">
               <InterpolatingParam id="3247" interp="linr"  time="-9999999/1" value="0" leadInLength="0/1"  />
               <InterpolatingParam id="3248" interp="linr"  time="-9999999/1" value="0" leadInLength="0/1"  />
               <InterpolatingParam id="3249" interp="linr"  time="-9999999/1" value="0" leadInLength="0/1"  />
               <InterpolatingParam id="3250" interp="linr"  time="-9999999/1" value="0" leadInLength="0/1"  />
              </VectorParam>
              <InterpolatingParam id="3251" interp="linr"  time="-9999999/1" value="1" leadInLength="0/1"  name="opacity"/>
              <InterpolatingParam id="3252" interp="linr"  time="0/1" value="0" leadInLength="0/1"  name="cursorOpacity"/>
              <InterpolatingParam id="3253" interp="linr"  time="0/1" value="0" leadInLength="0/1"  name="cursorScale"/>
             </Parameters>
             <Attributes>
              <Attribute id="3254" value="" name="ident"/>
             </Attributes>
             <ExtraData>
              <Entry key="ZoomPanBin">
               <ZoomPanBin id="3255"  >
                <ZoomPanKeyframes>
                 <ZoomPanKeyframe id="3256" timeRangeEnd="-9999999/1" timeRangeDuration="0/1" interpolaterName=""  />
                </ZoomPanKeyframes>
               </ZoomPanBin>
              </Entry>
              <Entry key="CursorEffectBin">
               <CursorEffectBin id="3257"  >
                <CursorEffectKeyframes>
                </CursorEffectKeyframes>
               </CursorEffectBin>
              </Entry>
             </ExtraData>
            </ScreenVMFile>
            <MetaData>
             <entry key="AutoAppliedSmartFocus" val="False"/>
             <entry key="WinSubProjectDisplayName" val=""/>
            </MetaData>
           </UnifiedMedia>
           <UnifiedMedia id="3258"  >
            <AMFile id="3259" start="8060" duration="118" scalar="1/1" mediaStart="9587/1" mediaDuration="118/1" trackNumber="1" src="5" channelNumber="0,1" >
             <Parameters>
              <InterpolatingParam id="3260" interp="linr"  time="0/1" value="1" leadInLength="0/1"  name="volume"/>
              <Parameter id="3261"  name="captions"/>
             </Parameters>
             <Attributes>
              <Attribute id="3262" value="" name="ident"/>
              <Attribute id="3263" value="44100" name="sampleRate"/>
              <Attribute id="3264" value="16" name="bitDepth"/>
              <Attribute id="3265" value="1" name="gain"/>
              <Attribute id="3266" value="0" name="mixToMono"/>
             </Attributes>
            </AMFile>
            <ScreenVMFile id="3267" start="8060" duration="118" scalar="1/1" mediaStart="9587/1" mediaDuration="118/1" trackNumber="0" src="5" >
             <Transformer>
              <VectorParam id="3268"  name="translation">
               <InterpolatingParam id="3269" interp="linr"  time="-9999999/1" value="0" leadInLength="0/1"  />
               <InterpolatingParam id="3270" interp="linr"  time="-9999999/1" value="0" leadInLength="0/1"  />
               <InterpolatingParam id="3271" interp="linr"  time="-9999999/1" value="0" leadInLength="0/1"  />
              </VectorParam>
              <VectorParam id="3272"  name="rotation">
               <InterpolatingParam id="3273" interp="linr"  time="-9999999/1" value="0" leadInLength="0/1"  />
               <InterpolatingParam id="3274" interp="linr"  time="-9999999/1" value="0" leadInLength="0/1"  />
               <InterpolatingParam id="3275" interp="linr"  time="-9999999/1" value="0" leadInLength="0/1"  />
              </VectorParam>
              <VectorParam id="3276"  name="shear">
               <InterpolatingParam id="3277" interp="linr"  time="-9999999/1" value="0" leadInLength="0/1"  />
               <InterpolatingParam id="3278" interp="linr"  time="-9999999/1" value="0" leadInLength="0/1"  />
               <InterpolatingParam id="3279" interp="linr"  time="-9999999/1" value="0" leadInLength="0/1"  />
              </VectorParam>
              <VectorParam id="3280"  name="scale">
               <InterpolatingParam id="3281" interp="linr"  time="-9999999/1" value="1" leadInLength="0/1"  />
               <InterpolatingParam id="3282" interp="linr"  time="-9999999/1" value="1" leadInLength="0/1"  />
               <InterpolatingParam id="3283" interp="linr"  time="-9999999/1" value="1" leadInLength="0/1"  />
              </VectorParam>
              <VectorParam id="3284"  name="anchor">
               <InterpolatingParam id="3285" interp="linr"  time="0/1" value="0" leadInLength="0/1"  />
               <InterpolatingParam id="3286" interp="linr"  time="0/1" value="0" leadInLength="0/1"  />
               <InterpolatingParam id="3287" interp="linr"  time="0/1" value="0" leadInLength="0/1"  />
              </VectorParam>
             </Transformer>
             <Parameters>
              <VectorParam id="3288"  name="sourceCrop">
               <InterpolatingParam id="3289" interp="linr"  time="0/1" value="0" leadInLength="0/1"  />
               <InterpolatingParam id="3290" interp="linr"  time="0/1" value="0" leadInLength="0/1"  />
               <InterpolatingParam id="3291" interp="linr"  time="0/1" value="0" leadInLength="0/1"  />
               <InterpolatingParam id="3292" interp="linr"  time="0/1" value="0" leadInLength="0/1"  />
              </VectorParam>
              <VectorParam id="3293"  name="geometryCrop">
               <InterpolatingParam id="3294" interp="linr"  time="-9999999/1" value="0" leadInLength="0/1"  />
               <InterpolatingParam id="3295" interp="linr"  time="-9999999/1" value="0" leadInLength="0/1"  />
               <InterpolatingParam id="3296" interp="linr"  time="-9999999/1" value="0" leadInLength="0/1"  />
               <InterpolatingParam id="3297" interp="linr"  time="-9999999/1" value="0" leadInLength="0/1"  />
              </VectorParam>
              <InterpolatingParam id="3298" interp="linr"  time="-9999999/1" value="1" leadInLength="0/1"  name="opacity"/>
              <InterpolatingParam id="3299" interp="linr"  time="0/1" value="0" leadInLength="0/1"  name="cursorOpacity"/>
              <InterpolatingParam id="3300" interp="linr"  time="0/1" value="0" leadInLength="0/1"  name="cursorScale"/>
             </Parameters>
             <Attributes>
              <Attribute id="3301" value="" name="ident"/>
             </Attributes>
             <ExtraData>
              <Entry key="ZoomPanBin">
               <ZoomPanBin id="3302"  >
                <ZoomPanKeyframes>
                 <ZoomPanKeyframe id="3303" timeRangeEnd="-9999999/1" timeRangeDuration="0/1" interpolaterName=""  />
                </ZoomPanKeyframes>
               </ZoomPanBin>
              </Entry>
              <Entry key="CursorEffectBin">
               <CursorEffectBin id="3304"  >
                <CursorEffectKeyframes>
                </CursorEffectKeyframes>
               </CursorEffectBin>
              </Entry>
             </ExtraData>
            </ScreenVMFile>
            <MetaData>
             <entry key="AutoAppliedSmartFocus" val="False"/>
             <entry key="WinSubProjectDisplayName" val=""/>
            </MetaData>
           </UnifiedMedia>
          </Medias>
         </GenericTrack>
        </StitchedMedia>
       </Medias>
      </GenericTrack>
      <GenericTrack id="3305"  >
       <Attributes>
        <Attribute id="3306" value="" name="ident"/>
        <Attribute id="3307" value="0" name="audioMuted"/>
        <Attribute id="3308" value="0" name="videoHidden"/>
       </Attributes>
       <MetaData>
        <entry key="IsLocked" val="False"/>
        <entry key="WinTrackHeight" val="90"/>
       </MetaData>
       <Medias>
        <StitchedMedia id="3309" start="3" duration="3102" scalar="1/1" mediaStart="29/1" mediaDuration="3102/1" minMediaStart="0/1" >
         <Transformer>
          <VectorParam id="3310"  name="translation">
           <InterpolatingParam id="3311" interp="linr"  time="-9999999/1" value="574.63125870155341" leadInLength="0/1"  />
           <InterpolatingParam id="3312" interp="linr"  time="-9999999/1" value="-292.43665240012643" leadInLength="0/1"  />
           <InterpolatingParam id="3313" interp="linr"  time="-9999999/1" value="0" leadInLength="0/1"  />
          </VectorParam>
          <VectorParam id="3314"  name="rotation">
           <InterpolatingParam id="3315" interp="linr"  time="-9999999/1" value="0" leadInLength="0/1"  />
           <InterpolatingParam id="3316" interp="linr"  time="-9999999/1" value="0" leadInLength="0/1"  />
           <InterpolatingParam id="3317" interp="linr"  time="-9999999/1" value="0" leadInLength="0/1"  />
          </VectorParam>
          <VectorParam id="3318"  name="shear">
           <InterpolatingParam id="3319" interp="linr"  time="-9999999/1" value="0" leadInLength="0/1"  />
           <InterpolatingParam id="3320" interp="linr"  time="-9999999/1" value="0" leadInLength="0/1"  />
           <InterpolatingParam id="3321" interp="linr"  time="-9999999/1" value="0" leadInLength="0/1"  />
          </VectorParam>
          <VectorParam id="3322"  name="scale">
           <InterpolatingParam id="3323" interp="linr"  time="-9999999/1" value="0.21085271317836307" leadInLength="0/1"  />
           <InterpolatingParam id="3324" interp="linr"  time="-9999999/1" value="0.2108527131783631" leadInLength="0/1"  />
           <InterpolatingParam id="3325" interp="linr"  time="-9999999/1" value="1" leadInLength="0/1"  />
          </VectorParam>
          <VectorParam id="3326"  name="anchor">
           <InterpolatingParam id="3327" interp="linr"  time="0/1" value="0" leadInLength="0/1"  />
           <InterpolatingParam id="3328" interp="linr"  time="0/1" value="0" leadInLength="0/1"  />
           <InterpolatingParam id="3329" interp="linr"  time="0/1" value="0" leadInLength="0/1"  />
          </VectorParam>
         </Transformer>
         <Parameters>
          <VectorParam id="3330"  name="sourceCrop">
           <InterpolatingParam id="3331" interp="linr"  time="0/1" value="0" leadInLength="0/1"  />
           <InterpolatingParam id="3332" interp="linr"  time="0/1" value="0" leadInLength="0/1"  />
           <InterpolatingParam id="3333" interp="linr"  time="0/1" value="0" leadInLength="0/1"  />
           <InterpolatingParam id="3334" interp="linr"  time="0/1" value="0" leadInLength="0/1"  />
          </VectorParam>
          <VectorParam id="3335"  name="geometryCrop">
           <InterpolatingParam id="3336" interp="linr"  time="-9999999/1" value="627.40576496682729" leadInLength="0/1"  />
           <InterpolatingParam id="3337" interp="linr"  time="-9999999/1" value="50.288248336816537" leadInLength="0/1"  />
           <InterpolatingParam id="3338" interp="linr"  time="-9999999/1" value="649.97913134196688" leadInLength="0/1"  />
           <InterpolatingParam id="3339" interp="linr"  time="-9999999/1" value="219.57088822111729" leadInLength="0/1"  />
          </VectorParam>
          <InterpolatingParam id="3340" interp="linr"  time="-9999999/1" value="1" leadInLength="0/1"  name="opacity"/>
          <InterpolatingParam id="3341" interp="linr"  time="0/1" value="1" leadInLength="0/1"  name="cursorOpacity"/>
          <InterpolatingParam id="3342" interp="linr"  time="0/1" value="1" leadInLength="0/1"  name="cursorScale"/>
          <InterpolatingParam id="3343" interp="linr"  time="0/1" value="1" leadInLength="0/1"  name="volume"/>
          <Parameter id="3344"  name="captions"/>
         </Parameters>
         <Attributes>
          <Attribute id="3345" value="" name="ident"/>
          <Attribute id="3346" value="0" name="mixToMono"/>
         </Attributes>
         <MetaData>
          <entry key="WinSubProjectDisplayName" val=""/>
         </MetaData>
         <ExtraData>
          <Entry key="ZoomPanBin">
           <ZoomPanBin id="3347"  >
            <ZoomPanKeyframes>
             <ZoomPanKeyframe id="3348" timeRangeEnd="-9999999/1" timeRangeDuration="0/1" interpolaterName="linr"  />
            </ZoomPanKeyframes>
           </ZoomPanBin>
          </Entry>
          <Entry key="CursorEffectBin">
           <CursorEffectBin id="3349"  >
            <CursorEffectKeyframes>
            </CursorEffectKeyframes>
           </CursorEffectBin>
          </Entry>
         </ExtraData>
         <GenericTrack id="3350"  >
          <Attributes>
           <Attribute id="3351" value="" name="ident"/>
           <Attribute id="3352" value="0" name="audioMuted"/>
           <Attribute id="3353" value="0" name="videoHidden"/>
          </Attributes>
          <MetaData>
           <entry key="IsLocked" val="False"/>
           <entry key="WinTrackHeight" val="0"/>
          </MetaData>
          <Medias>
           <UnifiedMedia id="3354"  >
            <AMFile id="3355" start="0" duration="30" scalar="1/1" mediaStart="0/1" mediaDuration="30/1" trackNumber="1" src="4" channelNumber="0,1" >
             <Parameters>
              <InterpolatingParam id="3356" interp="linr"  time="0/1" value="1" leadInLength="0/1"  name="volume"/>
              <Parameter id="3357"  name="captions"/>
             </Parameters>
             <Attributes>
              <Attribute id="3358" value="" name="ident"/>
              <Attribute id="3359" value="48000" name="sampleRate"/>
              <Attribute id="3360" value="16" name="bitDepth"/>
              <Attribute id="3361" value="1" name="gain"/>
              <Attribute id="3362" value="0" name="mixToMono"/>
             </Attributes>
            </AMFile>
            <VMFile id="3363" start="0" duration="30" scalar="1/1" mediaStart="0/1" mediaDuration="30/1" trackNumber="0" src="4" >
             <Transformer>
              <VectorParam id="3364"  name="translation">
               <InterpolatingParam id="3365" interp="linr"  time="-9999999/1" value="0" leadInLength="0/1"  />
               <InterpolatingParam id="3366" interp="linr"  time="-9999999/1" value="0" leadInLength="0/1"  />
               <InterpolatingParam id="3367" interp="linr"  time="-9999999/1" value="0" leadInLength="0/1"  />
              </VectorParam>
              <VectorParam id="3368"  name="rotation">
               <InterpolatingParam id="3369" interp="linr"  time="-9999999/1" value="0" leadInLength="0/1"  />
               <InterpolatingParam id="3370" interp="linr"  time="-9999999/1" value="0" leadInLength="0/1"  />
               <InterpolatingParam id="3371" interp="linr"  time="-9999999/1" value="0" leadInLength="0/1"  />
              </VectorParam>
              <VectorParam id="3372"  name="shear">
               <InterpolatingParam id="3373" interp="linr"  time="-9999999/1" value="0" leadInLength="0/1"  />
               <InterpolatingParam id="3374" interp="linr"  time="-9999999/1" value="0" leadInLength="0/1"  />
               <InterpolatingParam id="3375" interp="linr"  time="-9999999/1" value="0" leadInLength="0/1"  />
              </VectorParam>
              <VectorParam id="3376"  name="scale">
               <InterpolatingParam id="3377" interp="linr"  time="-9999999/1" value="1" leadInLength="0/1"  />
               <InterpolatingParam id="3378" interp="linr"  time="-9999999/1" value="1" leadInLength="0/1"  />
               <InterpolatingParam id="3379" interp="linr"  time="-9999999/1" value="1" leadInLength="0/1"  />
              </VectorParam>
              <VectorParam id="3380"  name="anchor">
               <InterpolatingParam id="3381" interp="linr"  time="0/1" value="0" leadInLength="0/1"  />
               <InterpolatingParam id="3382" interp="linr"  time="0/1" value="0" leadInLength="0/1"  />
               <InterpolatingParam id="3383" interp="linr"  time="0/1" value="0" leadInLength="0/1"  />
              </VectorParam>
             </Transformer>
             <Parameters>
              <VectorParam id="3384"  name="sourceCrop">
               <InterpolatingParam id="3385" interp="linr"  time="0/1" value="0" leadInLength="0/1"  />
               <InterpolatingParam id="3386" interp="linr"  time="0/1" value="0" leadInLength="0/1"  />
               <InterpolatingParam id="3387" interp="linr"  time="0/1" value="0" leadInLength="0/1"  />
               <InterpolatingParam id="3388" interp="linr"  time="0/1" value="0" leadInLength="0/1"  />
              </VectorParam>
              <VectorParam id="3389"  name="geometryCrop">
               <InterpolatingParam id="3390" interp="linr"  time="-9999999/1" value="0" leadInLength="0/1"  />
               <InterpolatingParam id="3391" interp="linr"  time="-9999999/1" value="0" leadInLength="0/1"  />
               <InterpolatingParam id="3392" interp="linr"  time="-9999999/1" value="0" leadInLength="0/1"  />
               <InterpolatingParam id="3393" interp="linr"  time="-9999999/1" value="0" leadInLength="0/1"  />
              </VectorParam>
              <InterpolatingParam id="3394" interp="linr"  time="-9999999/1" value="1" leadInLength="0/1"  name="opacity"/>
             </Parameters>
             <Attributes>
              <Attribute id="3395" value="" name="ident"/>
             </Attributes>
             <ExtraData>
              <Entry key="ZoomPanBin">
               <ZoomPanBin id="3396"  >
                <ZoomPanKeyframes>
                </ZoomPanKeyframes>
               </ZoomPanBin>
              </Entry>
             </ExtraData>
            </VMFile>
            <MetaData>
             <entry key="WinSubProjectDisplayName" val=""/>
            </MetaData>
           </UnifiedMedia>
           <UnifiedMedia id="3397"  >
            <AMFile id="3398" start="30" duration="350" scalar="1/1" mediaStart="154/1" mediaDuration="350/1" trackNumber="1" src="4" channelNumber="0,1" >
             <Parameters>
              <InterpolatingParam id="3399" interp="linr"  time="0/1" value="1" leadInLength="0/1"  name="volume"/>
              <Parameter id="3400"  name="captions"/>
             </Parameters>
             <Attributes>
              <Attribute id="3401" value="" name="ident"/>
              <Attribute id="3402" value="48000" name="sampleRate"/>
              <Attribute id="3403" value="16" name="bitDepth"/>
              <Attribute id="3404" value="1" name="gain"/>
              <Attribute id="3405" value="0" name="mixToMono"/>
             </Attributes>
            </AMFile>
            <VMFile id="3406" start="30" duration="350" scalar="1/1" mediaStart="154/1" mediaDuration="350/1" trackNumber="0" src="4" >
             <Transformer>
              <VectorParam id="3407"  name="translation">
               <InterpolatingParam id="3408" interp="linr"  time="-9999999/1" value="0" leadInLength="0/1"  />
               <InterpolatingParam id="3409" interp="linr"  time="-9999999/1" value="0" leadInLength="0/1"  />
               <InterpolatingParam id="3410" interp="linr"  time="-9999999/1" value="0" leadInLength="0/1"  />
              </VectorParam>
              <VectorParam id="3411"  name="rotation">
               <InterpolatingParam id="3412" interp="linr"  time="-9999999/1" value="0" leadInLength="0/1"  />
               <InterpolatingParam id="3413" interp="linr"  time="-9999999/1" value="0" leadInLength="0/1"  />
               <InterpolatingParam id="3414" interp="linr"  time="-9999999/1" value="0" leadInLength="0/1"  />
              </VectorParam>
              <VectorParam id="3415"  name="shear">
               <InterpolatingParam id="3416" interp="linr"  time="-9999999/1" value="0" leadInLength="0/1"  />
               <InterpolatingParam id="3417" interp="linr"  time="-9999999/1" value="0" leadInLength="0/1"  />
               <InterpolatingParam id="3418" interp="linr"  time="-9999999/1" value="0" leadInLength="0/1"  />
              </VectorParam>
              <VectorParam id="3419"  name="scale">
               <InterpolatingParam id="3420" interp="linr"  time="-9999999/1" value="1" leadInLength="0/1"  />
               <InterpolatingParam id="3421" interp="linr"  time="-9999999/1" value="1" leadInLength="0/1"  />
               <InterpolatingParam id="3422" interp="linr"  time="-9999999/1" value="1" leadInLength="0/1"  />
              </VectorParam>
              <VectorParam id="3423"  name="anchor">
               <InterpolatingParam id="3424" interp="linr"  time="0/1" value="0" leadInLength="0/1"  />
               <InterpolatingParam id="3425" interp="linr"  time="0/1" value="0" leadInLength="0/1"  />
               <InterpolatingParam id="3426" interp="linr"  time="0/1" value="0" leadInLength="0/1"  />
              </VectorParam>
             </Transformer>
             <Parameters>
              <VectorParam id="3427"  name="sourceCrop">
               <InterpolatingParam id="3428" interp="linr"  time="0/1" value="0" leadInLength="0/1"  />
               <InterpolatingParam id="3429" interp="linr"  time="0/1" value="0" leadInLength="0/1"  />
               <InterpolatingParam id="3430" interp="linr"  time="0/1" value="0" leadInLength="0/1"  />
               <InterpolatingParam id="3431" interp="linr"  time="0/1" value="0" leadInLength="0/1"  />
              </VectorParam>
              <VectorParam id="3432"  name="geometryCrop">
               <InterpolatingParam id="3433" interp="linr"  time="-9999999/1" value="0" leadInLength="0/1"  />
               <InterpolatingParam id="3434" interp="linr"  time="-9999999/1" value="0" leadInLength="0/1"  />
               <InterpolatingParam id="3435" interp="linr"  time="-9999999/1" value="0" leadInLength="0/1"  />
               <InterpolatingParam id="3436" interp="linr"  time="-9999999/1" value="0" leadInLength="0/1"  />
              </VectorParam>
              <InterpolatingParam id="3437" interp="linr"  time="-9999999/1" value="1" leadInLength="0/1"  name="opacity"/>
             </Parameters>
             <Attributes>
              <Attribute id="3438" value="" name="ident"/>
             </Attributes>
             <ExtraData>
              <Entry key="ZoomPanBin">
               <ZoomPanBin id="3439"  >
                <ZoomPanKeyframes>
                </ZoomPanKeyframes>
               </ZoomPanBin>
              </Entry>
             </ExtraData>
            </VMFile>
            <MetaData>
             <entry key="WinSubProjectDisplayName" val=""/>
            </MetaData>
           </UnifiedMedia>
           <UnifiedMedia id="3440"  >
            <AMFile id="3441" start="380" duration="374" scalar="1/1" mediaStart="517/1" mediaDuration="374/1" trackNumber="1" src="4" channelNumber="0,1" >
             <Parameters>
              <InterpolatingParam id="3442" interp="linr"  time="0/1" value="1" leadInLength="0/1"  name="volume"/>
              <Parameter id="3443"  name="captions"/>
             </Parameters>
             <Attributes>
              <Attribute id="3444" value="" name="ident"/>
              <Attribute id="3445" value="48000" name="sampleRate"/>
              <Attribute id="3446" value="16" name="bitDepth"/>
              <Attribute id="3447" value="1" name="gain"/>
              <Attribute id="3448" value="0" name="mixToMono"/>
             </Attributes>
            </AMFile>
            <VMFile id="3449" start="380" duration="374" scalar="1/1" mediaStart="517/1" mediaDuration="374/1" trackNumber="0" src="4" >
             <Transformer>
              <VectorParam id="3450"  name="translation">
               <InterpolatingParam id="3451" interp="linr"  time="-9999999/1" value="0" leadInLength="0/1"  />
               <InterpolatingParam id="3452" interp="linr"  time="-9999999/1" value="0" leadInLength="0/1"  />
               <InterpolatingParam id="3453" interp="linr"  time="-9999999/1" value="0" leadInLength="0/1"  />
              </VectorParam>
              <VectorParam id="3454"  name="rotation">
               <InterpolatingParam id="3455" interp="linr"  time="-9999999/1" value="0" leadInLength="0/1"  />
               <InterpolatingParam id="3456" interp="linr"  time="-9999999/1" value="0" leadInLength="0/1"  />
               <InterpolatingParam id="3457" interp="linr"  time="-9999999/1" value="0" leadInLength="0/1"  />
              </VectorParam>
              <VectorParam id="3458"  name="shear">
               <InterpolatingParam id="3459" interp="linr"  time="-9999999/1" value="0" leadInLength="0/1"  />
               <InterpolatingParam id="3460" interp="linr"  time="-9999999/1" value="0" leadInLength="0/1"  />
               <InterpolatingParam id="3461" interp="linr"  time="-9999999/1" value="0" leadInLength="0/1"  />
              </VectorParam>
              <VectorParam id="3462"  name="scale">
               <InterpolatingParam id="3463" interp="linr"  time="-9999999/1" value="1" leadInLength="0/1"  />
               <InterpolatingParam id="3464" interp="linr"  time="-9999999/1" value="1" leadInLength="0/1"  />
               <InterpolatingParam id="3465" interp="linr"  time="-9999999/1" value="1" leadInLength="0/1"  />
              </VectorParam>
              <VectorParam id="3466"  name="anchor">
               <InterpolatingParam id="3467" interp="linr"  time="0/1" value="0" leadInLength="0/1"  />
               <InterpolatingParam id="3468" interp="linr"  time="0/1" value="0" leadInLength="0/1"  />
               <InterpolatingParam id="3469" interp="linr"  time="0/1" value="0" leadInLength="0/1"  />
              </VectorParam>
             </Transformer>
             <Parameters>
              <VectorParam id="3470"  name="sourceCrop">
               <InterpolatingParam id="3471" interp="linr"  time="0/1" value="0" leadInLength="0/1"  />
               <InterpolatingParam id="3472" interp="linr"  time="0/1" value="0" leadInLength="0/1"  />
               <InterpolatingParam id="3473" interp="linr"  time="0/1" value="0" leadInLength="0/1"  />
               <InterpolatingParam id="3474" interp="linr"  time="0/1" value="0" leadInLength="0/1"  />
              </VectorParam>
              <VectorParam id="3475"  name="geometryCrop">
               <InterpolatingParam id="3476" interp="linr"  time="-9999999/1" value="0" leadInLength="0/1"  />
               <InterpolatingParam id="3477" interp="linr"  time="-9999999/1" value="0" leadInLength="0/1"  />
               <InterpolatingParam id="3478" interp="linr"  time="-9999999/1" value="0" leadInLength="0/1"  />
               <InterpolatingParam id="3479" interp="linr"  time="-9999999/1" value="0" leadInLength="0/1"  />
              </VectorParam>
              <InterpolatingParam id="3480" interp="linr"  time="-9999999/1" value="1" leadInLength="0/1"  name="opacity"/>
             </Parameters>
             <Attributes>
              <Attribute id="3481" value="" name="ident"/>
             </Attributes>
             <ExtraData>
              <Entry key="ZoomPanBin">
               <ZoomPanBin id="3482"  >
                <ZoomPanKeyframes>
                </ZoomPanKeyframes>
               </ZoomPanBin>
              </Entry>
             </ExtraData>
            </VMFile>
            <MetaData>
             <entry key="WinSubProjectDisplayName" val=""/>
            </MetaData>
           </UnifiedMedia>
           <UnifiedMedia id="3483"  >
            <AMFile id="3484" start="754" duration="271" scalar="1/1" mediaStart="915/1" mediaDuration="271/1" trackNumber="1" src="4" channelNumber="0,1" >
             <Parameters>
              <InterpolatingParam id="3485" interp="linr"  time="0/1" value="1" leadInLength="0/1"  name="volume"/>
              <Parameter id="3486"  name="captions"/>
             </Parameters>
             <Attributes>
              <Attribute id="3487" value="" name="ident"/>
              <Attribute id="3488" value="48000" name="sampleRate"/>
              <Attribute id="3489" value="16" name="bitDepth"/>
              <Attribute id="3490" value="1" name="gain"/>
              <Attribute id="3491" value="0" name="mixToMono"/>
             </Attributes>
            </AMFile>
            <VMFile id="3492" start="754" duration="271" scalar="1/1" mediaStart="915/1" mediaDuration="271/1" trackNumber="0" src="4" >
             <Transformer>
              <VectorParam id="3493"  name="translation">
               <InterpolatingParam id="3494" interp="linr"  time="-9999999/1" value="0" leadInLength="0/1"  />
               <InterpolatingParam id="3495" interp="linr"  time="-9999999/1" value="0" leadInLength="0/1"  />
               <InterpolatingParam id="3496" interp="linr"  time="-9999999/1" value="0" leadInLength="0/1"  />
              </VectorParam>
              <VectorParam id="3497"  name="rotation">
               <InterpolatingParam id="3498" interp="linr"  time="-9999999/1" value="0" leadInLength="0/1"  />
               <InterpolatingParam id="3499" interp="linr"  time="-9999999/1" value="0" leadInLength="0/1"  />
               <InterpolatingParam id="3500" interp="linr"  time="-9999999/1" value="0" leadInLength="0/1"  />
              </VectorParam>
              <VectorParam id="3501"  name="shear">
               <InterpolatingParam id="3502" interp="linr"  time="-9999999/1" value="0" leadInLength="0/1"  />
               <InterpolatingParam id="3503" interp="linr"  time="-9999999/1" value="0" leadInLength="0/1"  />
               <InterpolatingParam id="3504" interp="linr"  time="-9999999/1" value="0" leadInLength="0/1"  />
              </VectorParam>
              <VectorParam id="3505"  name="scale">
               <InterpolatingParam id="3506" interp="linr"  time="-9999999/1" value="1" leadInLength="0/1"  />
               <InterpolatingParam id="3507" interp="linr"  time="-9999999/1" value="1" leadInLength="0/1"  />
               <InterpolatingParam id="3508" interp="linr"  time="-9999999/1" value="1" leadInLength="0/1"  />
              </VectorParam>
              <VectorParam id="3509"  name="anchor">
               <InterpolatingParam id="3510" interp="linr"  time="0/1" value="0" leadInLength="0/1"  />
               <InterpolatingParam id="3511" interp="linr"  time="0/1" value="0" leadInLength="0/1"  />
               <InterpolatingParam id="3512" interp="linr"  time="0/1" value="0" leadInLength="0/1"  />
              </VectorParam>
             </Transformer>
             <Parameters>
              <VectorParam id="3513"  name="sourceCrop">
               <InterpolatingParam id="3514" interp="linr"  time="0/1" value="0" leadInLength="0/1"  />
               <InterpolatingParam id="3515" interp="linr"  time="0/1" value="0" leadInLength="0/1"  />
               <InterpolatingParam id="3516" interp="linr"  time="0/1" value="0" leadInLength="0/1"  />
               <InterpolatingParam id="3517" interp="linr"  time="0/1" value="0" leadInLength="0/1"  />
              </VectorParam>
              <VectorParam id="3518"  name="geometryCrop">
               <InterpolatingParam id="3519" interp="linr"  time="-9999999/1" value="0" leadInLength="0/1"  />
               <InterpolatingParam id="3520" interp="linr"  time="-9999999/1" value="0" leadInLength="0/1"  />
               <InterpolatingParam id="3521" interp="linr"  time="-9999999/1" value="0" leadInLength="0/1"  />
               <InterpolatingParam id="3522" interp="linr"  time="-9999999/1" value="0" leadInLength="0/1"  />
              </VectorParam>
              <InterpolatingParam id="3523" interp="linr"  time="-9999999/1" value="1" leadInLength="0/1"  name="opacity"/>
             </Parameters>
             <Attributes>
              <Attribute id="3524" value="" name="ident"/>
             </Attributes>
             <ExtraData>
              <Entry key="ZoomPanBin">
               <ZoomPanBin id="3525"  >
                <ZoomPanKeyframes>
                </ZoomPanKeyframes>
               </ZoomPanBin>
              </Entry>
             </ExtraData>
            </VMFile>
            <MetaData>
             <entry key="WinSubProjectDisplayName" val=""/>
            </MetaData>
           </UnifiedMedia>
           <UnifiedMedia id="3526"  >
            <AMFile id="3527" start="1025" duration="332" scalar="1/1" mediaStart="1205/1" mediaDuration="332/1" trackNumber="1" src="4" channelNumber="0,1" >
             <Parameters>
              <InterpolatingParam id="3528" interp="linr"  time="0/1" value="1" leadInLength="0/1"  name="volume"/>
              <Parameter id="3529"  name="captions"/>
             </Parameters>
             <Attributes>
              <Attribute id="3530" value="" name="ident"/>
              <Attribute id="3531" value="48000" name="sampleRate"/>
              <Attribute id="3532" value="16" name="bitDepth"/>
              <Attribute id="3533" value="1" name="gain"/>
              <Attribute id="3534" value="0" name="mixToMono"/>
             </Attributes>
            </AMFile>
            <VMFile id="3535" start="1025" duration="332" scalar="1/1" mediaStart="1205/1" mediaDuration="332/1" trackNumber="0" src="4" >
             <Transformer>
              <VectorParam id="3536"  name="translation">
               <InterpolatingParam id="3537" interp="linr"  time="-9999999/1" value="0" leadInLength="0/1"  />
               <InterpolatingParam id="3538" interp="linr"  time="-9999999/1" value="0" leadInLength="0/1"  />
               <InterpolatingParam id="3539" interp="linr"  time="-9999999/1" value="0" leadInLength="0/1"  />
              </VectorParam>
              <VectorParam id="3540"  name="rotation">
               <InterpolatingParam id="3541" interp="linr"  time="-9999999/1" value="0" leadInLength="0/1"  />
               <InterpolatingParam id="3542" interp="linr"  time="-9999999/1" value="0" leadInLength="0/1"  />
               <InterpolatingParam id="3543" interp="linr"  time="-9999999/1" value="0" leadInLength="0/1"  />
              </VectorParam>
              <VectorParam id="3544"  name="shear">
               <InterpolatingParam id="3545" interp="linr"  time="-9999999/1" value="0" leadInLength="0/1"  />
               <InterpolatingParam id="3546" interp="linr"  time="-9999999/1" value="0" leadInLength="0/1"  />
               <InterpolatingParam id="3547" interp="linr"  time="-9999999/1" value="0" leadInLength="0/1"  />
              </VectorParam>
              <VectorParam id="3548"  name="scale">
               <InterpolatingParam id="3549" interp="linr"  time="-9999999/1" value="1" leadInLength="0/1"  />
               <InterpolatingParam id="3550" interp="linr"  time="-9999999/1" value="1" leadInLength="0/1"  />
               <InterpolatingParam id="3551" interp="linr"  time="-9999999/1" value="1" leadInLength="0/1"  />
              </VectorParam>
              <VectorParam id="3552"  name="anchor">
               <InterpolatingParam id="3553" interp="linr"  time="0/1" value="0" leadInLength="0/1"  />
               <InterpolatingParam id="3554" interp="linr"  time="0/1" value="0" leadInLength="0/1"  />
               <InterpolatingParam id="3555" interp="linr"  time="0/1" value="0" leadInLength="0/1"  />
              </VectorParam>
             </Transformer>
             <Parameters>
              <VectorParam id="3556"  name="sourceCrop">
               <InterpolatingParam id="3557" interp="linr"  time="0/1" value="0" leadInLength="0/1"  />
               <InterpolatingParam id="3558" interp="linr"  time="0/1" value="0" leadInLength="0/1"  />
               <InterpolatingParam id="3559" interp="linr"  time="0/1" value="0" leadInLength="0/1"  />
               <InterpolatingParam id="3560" interp="linr"  time="0/1" value="0" leadInLength="0/1"  />
              </VectorParam>
              <VectorParam id="3561"  name="geometryCrop">
               <InterpolatingParam id="3562" interp="linr"  time="-9999999/1" value="0" leadInLength="0/1"  />
               <InterpolatingParam id="3563" interp="linr"  time="-9999999/1" value="0" leadInLength="0/1"  />
               <InterpolatingParam id="3564" interp="linr"  time="-9999999/1" value="0" leadInLength="0/1"  />
               <InterpolatingParam id="3565" interp="linr"  time="-9999999/1" value="0" leadInLength="0/1"  />
              </VectorParam>
              <InterpolatingParam id="3566" interp="linr"  time="-9999999/1" value="1" leadInLength="0/1"  name="opacity"/>
             </Parameters>
             <Attributes>
              <Attribute id="3567" value="" name="ident"/>
             </Attributes>
             <ExtraData>
              <Entry key="ZoomPanBin">
               <ZoomPanBin id="3568"  >
                <ZoomPanKeyframes>
                </ZoomPanKeyframes>
               </ZoomPanBin>
              </Entry>
             </ExtraData>
            </VMFile>
            <MetaData>
             <entry key="WinSubProjectDisplayName" val=""/>
            </MetaData>
           </UnifiedMedia>
           <UnifiedMedia id="3569"  >
            <AMFile id="3570" start="1357" duration="33" scalar="1/1" mediaStart="1675/1" mediaDuration="33/1" trackNumber="1" src="4" channelNumber="0,1" >
             <Parameters>
              <InterpolatingParam id="3571" interp="linr"  time="0/1" value="1" leadInLength="0/1"  name="volume"/>
              <Parameter id="3572"  name="captions"/>
             </Parameters>
             <Attributes>
              <Attribute id="3573" value="" name="ident"/>
              <Attribute id="3574" value="48000" name="sampleRate"/>
              <Attribute id="3575" value="16" name="bitDepth"/>
              <Attribute id="3576" value="1" name="gain"/>
              <Attribute id="3577" value="0" name="mixToMono"/>
             </Attributes>
            </AMFile>
            <VMFile id="3578" start="1357" duration="33" scalar="1/1" mediaStart="1675/1" mediaDuration="33/1" trackNumber="0" src="4" >
             <Transformer>
              <VectorParam id="3579"  name="translation">
               <InterpolatingParam id="3580" interp="linr"  time="-9999999/1" value="0" leadInLength="0/1"  />
               <InterpolatingParam id="3581" interp="linr"  time="-9999999/1" value="0" leadInLength="0/1"  />
               <InterpolatingParam id="3582" interp="linr"  time="-9999999/1" value="0" leadInLength="0/1"  />
              </VectorParam>
              <VectorParam id="3583"  name="rotation">
               <InterpolatingParam id="3584" interp="linr"  time="-9999999/1" value="0" leadInLength="0/1"  />
               <InterpolatingParam id="3585" interp="linr"  time="-9999999/1" value="0" leadInLength="0/1"  />
               <InterpolatingParam id="3586" interp="linr"  time="-9999999/1" value="0" leadInLength="0/1"  />
              </VectorParam>
              <VectorParam id="3587"  name="shear">
               <InterpolatingParam id="3588" interp="linr"  time="-9999999/1" value="0" leadInLength="0/1"  />
               <InterpolatingParam id="3589" interp="linr"  time="-9999999/1" value="0" leadInLength="0/1"  />
               <InterpolatingParam id="3590" interp="linr"  time="-9999999/1" value="0" leadInLength="0/1"  />
              </VectorParam>
              <VectorParam id="3591"  name="scale">
               <InterpolatingParam id="3592" interp="linr"  time="-9999999/1" value="1" leadInLength="0/1"  />
               <InterpolatingParam id="3593" interp="linr"  time="-9999999/1" value="1" leadInLength="0/1"  />
               <InterpolatingParam id="3594" interp="linr"  time="-9999999/1" value="1" leadInLength="0/1"  />
              </VectorParam>
              <VectorParam id="3595"  name="anchor">
               <InterpolatingParam id="3596" interp="linr"  time="0/1" value="0" leadInLength="0/1"  />
               <InterpolatingParam id="3597" interp="linr"  time="0/1" value="0" leadInLength="0/1"  />
               <InterpolatingParam id="3598" interp="linr"  time="0/1" value="0" leadInLength="0/1"  />
              </VectorParam>
             </Transformer>
             <Parameters>
              <VectorParam id="3599"  name="sourceCrop">
               <InterpolatingParam id="3600" interp="linr"  time="0/1" value="0" leadInLength="0/1"  />
               <InterpolatingParam id="3601" interp="linr"  time="0/1" value="0" leadInLength="0/1"  />
               <InterpolatingParam id="3602" interp="linr"  time="0/1" value="0" leadInLength="0/1"  />
               <InterpolatingParam id="3603" interp="linr"  time="0/1" value="0" leadInLength="0/1"  />
              </VectorParam>
              <VectorParam id="3604"  name="geometryCrop">
               <InterpolatingParam id="3605" interp="linr"  time="-9999999/1" value="0" leadInLength="0/1"  />
               <InterpolatingParam id="3606" interp="linr"  time="-9999999/1" value="0" leadInLength="0/1"  />
               <InterpolatingParam id="3607" interp="linr"  time="-9999999/1" value="0" leadInLength="0/1"  />
               <InterpolatingParam id="3608" interp="linr"  time="-9999999/1" value="0" leadInLength="0/1"  />
              </VectorParam>
              <InterpolatingParam id="3609" interp="linr"  time="-9999999/1" value="1" leadInLength="0/1"  name="opacity"/>
             </Parameters>
             <Attributes>
              <Attribute id="3610" value="" name="ident"/>
             </Attributes>
             <ExtraData>
              <Entry key="ZoomPanBin">
               <ZoomPanBin id="3611"  >
                <ZoomPanKeyframes>
                </ZoomPanKeyframes>
               </ZoomPanBin>
              </Entry>
             </ExtraData>
            </VMFile>
            <MetaData>
             <entry key="WinSubProjectDisplayName" val=""/>
            </MetaData>
           </UnifiedMedia>
           <UnifiedMedia id="3612"  >
            <AMFile id="3613" start="1390" duration="92" scalar="1/1" mediaStart="1722/1" mediaDuration="92/1" trackNumber="1" src="4" channelNumber="0,1" >
             <Parameters>
              <InterpolatingParam id="3614" interp="linr"  time="0/1" value="1" leadInLength="0/1"  name="volume"/>
              <Parameter id="3615"  name="captions"/>
             </Parameters>
             <Attributes>
              <Attribute id="3616" value="" name="ident"/>
              <Attribute id="3617" value="48000" name="sampleRate"/>
              <Attribute id="3618" value="16" name="bitDepth"/>
              <Attribute id="3619" value="1" name="gain"/>
              <Attribute id="3620" value="0" name="mixToMono"/>
             </Attributes>
            </AMFile>
            <VMFile id="3621" start="1390" duration="92" scalar="1/1" mediaStart="1722/1" mediaDuration="92/1" trackNumber="0" src="4" >
             <Transformer>
              <VectorParam id="3622"  name="translation">
               <InterpolatingParam id="3623" interp="linr"  time="-9999999/1" value="0" leadInLength="0/1"  />
               <InterpolatingParam id="3624" interp="linr"  time="-9999999/1" value="0" leadInLength="0/1"  />
               <InterpolatingParam id="3625" interp="linr"  time="-9999999/1" value="0" leadInLength="0/1"  />
              </VectorParam>
              <VectorParam id="3626"  name="rotation">
               <InterpolatingParam id="3627" interp="linr"  time="-9999999/1" value="0" leadInLength="0/1"  />
               <InterpolatingParam id="3628" interp="linr"  time="-9999999/1" value="0" leadInLength="0/1"  />
               <InterpolatingParam id="3629" interp="linr"  time="-9999999/1" value="0" leadInLength="0/1"  />
              </VectorParam>
              <VectorParam id="3630"  name="shear">
               <InterpolatingParam id="3631" interp="linr"  time="-9999999/1" value="0" leadInLength="0/1"  />
               <InterpolatingParam id="3632" interp="linr"  time="-9999999/1" value="0" leadInLength="0/1"  />
               <InterpolatingParam id="3633" interp="linr"  time="-9999999/1" value="0" leadInLength="0/1"  />
              </VectorParam>
              <VectorParam id="3634"  name="scale">
               <InterpolatingParam id="3635" interp="linr"  time="-9999999/1" value="1" leadInLength="0/1"  />
               <InterpolatingParam id="3636" interp="linr"  time="-9999999/1" value="1" leadInLength="0/1"  />
               <InterpolatingParam id="3637" interp="linr"  time="-9999999/1" value="1" leadInLength="0/1"  />
              </VectorParam>
              <VectorParam id="3638"  name="anchor">
               <InterpolatingParam id="3639" interp="linr"  time="0/1" value="0" leadInLength="0/1"  />
               <InterpolatingParam id="3640" interp="linr"  time="0/1" value="0" leadInLength="0/1"  />
               <InterpolatingParam id="3641" interp="linr"  time="0/1" value="0" leadInLength="0/1"  />
              </VectorParam>
             </Transformer>
             <Parameters>
              <VectorParam id="3642"  name="sourceCrop">
               <InterpolatingParam id="3643" interp="linr"  time="0/1" value="0" leadInLength="0/1"  />
               <InterpolatingParam id="3644" interp="linr"  time="0/1" value="0" leadInLength="0/1"  />
               <InterpolatingParam id="3645" interp="linr"  time="0/1" value="0" leadInLength="0/1"  />
               <InterpolatingParam id="3646" interp="linr"  time="0/1" value="0" leadInLength="0/1"  />
              </VectorParam>
              <VectorParam id="3647"  name="geometryCrop">
               <InterpolatingParam id="3648" interp="linr"  time="-9999999/1" value="0" leadInLength="0/1"  />
               <InterpolatingParam id="3649" interp="linr"  time="-9999999/1" value="0" leadInLength="0/1"  />
               <InterpolatingParam id="3650" interp="linr"  time="-9999999/1" value="0" leadInLength="0/1"  />
               <InterpolatingParam id="3651" interp="linr"  time="-9999999/1" value="0" leadInLength="0/1"  />
              </VectorParam>
              <InterpolatingParam id="3652" interp="linr"  time="-9999999/1" value="1" leadInLength="0/1"  name="opacity"/>
             </Parameters>
             <Attributes>
              <Attribute id="3653" value="" name="ident"/>
             </Attributes>
             <ExtraData>
              <Entry key="ZoomPanBin">
               <ZoomPanBin id="3654"  >
                <ZoomPanKeyframes>
                </ZoomPanKeyframes>
               </ZoomPanBin>
              </Entry>
             </ExtraData>
            </VMFile>
            <MetaData>
             <entry key="WinSubProjectDisplayName" val=""/>
            </MetaData>
           </UnifiedMedia>
           <UnifiedMedia id="3655"  >
            <AMFile id="3656" start="1482" duration="308" scalar="1/1" mediaStart="1875/1" mediaDuration="308/1" trackNumber="1" src="4" channelNumber="0,1" >
             <Parameters>
              <InterpolatingParam id="3657" interp="linr"  time="0/1" value="1" leadInLength="0/1"  name="volume"/>
              <Parameter id="3658"  name="captions"/>
             </Parameters>
             <Attributes>
              <Attribute id="3659" value="" name="ident"/>
              <Attribute id="3660" value="48000" name="sampleRate"/>
              <Attribute id="3661" value="16" name="bitDepth"/>
              <Attribute id="3662" value="1" name="gain"/>
              <Attribute id="3663" value="0" name="mixToMono"/>
             </Attributes>
            </AMFile>
            <VMFile id="3664" start="1482" duration="308" scalar="1/1" mediaStart="1875/1" mediaDuration="308/1" trackNumber="0" src="4" >
             <Transformer>
              <VectorParam id="3665"  name="translation">
               <InterpolatingParam id="3666" interp="linr"  time="-9999999/1" value="0" leadInLength="0/1"  />
               <InterpolatingParam id="3667" interp="linr"  time="-9999999/1" value="0" leadInLength="0/1"  />
               <InterpolatingParam id="3668" interp="linr"  time="-9999999/1" value="0" leadInLength="0/1"  />
              </VectorParam>
              <VectorParam id="3669"  name="rotation">
               <InterpolatingParam id="3670" interp="linr"  time="-9999999/1" value="0" leadInLength="0/1"  />
               <InterpolatingParam id="3671" interp="linr"  time="-9999999/1" value="0" leadInLength="0/1"  />
               <InterpolatingParam id="3672" interp="linr"  time="-9999999/1" value="0" leadInLength="0/1"  />
              </VectorParam>
              <VectorParam id="3673"  name="shear">
               <InterpolatingParam id="3674" interp="linr"  time="-9999999/1" value="0" leadInLength="0/1"  />
               <InterpolatingParam id="3675" interp="linr"  time="-9999999/1" value="0" leadInLength="0/1"  />
               <InterpolatingParam id="3676" interp="linr"  time="-9999999/1" value="0" leadInLength="0/1"  />
              </VectorParam>
              <VectorParam id="3677"  name="scale">
               <InterpolatingParam id="3678" interp="linr"  time="-9999999/1" value="1" leadInLength="0/1"  />
               <InterpolatingParam id="3679" interp="linr"  time="-9999999/1" value="1" leadInLength="0/1"  />
               <InterpolatingParam id="3680" interp="linr"  time="-9999999/1" value="1" leadInLength="0/1"  />
              </VectorParam>
              <VectorParam id="3681"  name="anchor">
               <InterpolatingParam id="3682" interp="linr"  time="0/1" value="0" leadInLength="0/1"  />
               <InterpolatingParam id="3683" interp="linr"  time="0/1" value="0" leadInLength="0/1"  />
               <InterpolatingParam id="3684" interp="linr"  time="0/1" value="0" leadInLength="0/1"  />
              </VectorParam>
             </Transformer>
             <Parameters>
              <VectorParam id="3685"  name="sourceCrop">
               <InterpolatingParam id="3686" interp="linr"  time="0/1" value="0" leadInLength="0/1"  />
               <InterpolatingParam id="3687" interp="linr"  time="0/1" value="0" leadInLength="0/1"  />
               <InterpolatingParam id="3688" interp="linr"  time="0/1" value="0" leadInLength="0/1"  />
               <InterpolatingParam id="3689" interp="linr"  time="0/1" value="0" leadInLength="0/1"  />
              </VectorParam>
              <VectorParam id="3690"  name="geometryCrop">
               <InterpolatingParam id="3691" interp="linr"  time="-9999999/1" value="0" leadInLength="0/1"  />
               <InterpolatingParam id="3692" interp="linr"  time="-9999999/1" value="0" leadInLength="0/1"  />
               <InterpolatingParam id="3693" interp="linr"  time="-9999999/1" value="0" leadInLength="0/1"  />
               <InterpolatingParam id="3694" interp="linr"  time="-9999999/1" value="0" leadInLength="0/1"  />
              </VectorParam>
              <InterpolatingParam id="3695" interp="linr"  time="-9999999/1" value="1" leadInLength="0/1"  name="opacity"/>
             </Parameters>
             <Attributes>
              <Attribute id="3696" value="" name="ident"/>
             </Attributes>
             <ExtraData>
              <Entry key="ZoomPanBin">
               <ZoomPanBin id="3697"  >
                <ZoomPanKeyframes>
                </ZoomPanKeyframes>
               </ZoomPanBin>
              </Entry>
             </ExtraData>
            </VMFile>
            <MetaData>
             <entry key="WinSubProjectDisplayName" val=""/>
            </MetaData>
           </UnifiedMedia>
           <UnifiedMedia id="3698"  >
            <AMFile id="3699" start="1790" duration="49" scalar="1/1" mediaStart="2183/1" mediaDuration="49/1" trackNumber="1" src="4" channelNumber="0,1" >
             <Parameters>
              <InterpolatingParam id="3700" interp="linr"  time="0/1" value="1" leadInLength="0/1"  name="volume"/>
              <Parameter id="3701"  name="captions"/>
             </Parameters>
             <Attributes>
              <Attribute id="3702" value="" name="ident"/>
              <Attribute id="3703" value="48000" name="sampleRate"/>
              <Attribute id="3704" value="16" name="bitDepth"/>
              <Attribute id="3705" value="1" name="gain"/>
              <Attribute id="3706" value="0" name="mixToMono"/>
             </Attributes>
            </AMFile>
            <VMFile id="3707" start="1790" duration="49" scalar="1/1" mediaStart="2183/1" mediaDuration="49/1" trackNumber="0" src="4" >
             <Transformer>
              <VectorParam id="3708"  name="translation">
               <InterpolatingParam id="3709" interp="linr"  time="-9999999/1" value="0" leadInLength="0/1"  />
               <InterpolatingParam id="3710" interp="linr"  time="-9999999/1" value="0" leadInLength="0/1"  />
               <InterpolatingParam id="3711" interp="linr"  time="-9999999/1" value="0" leadInLength="0/1"  />
              </VectorParam>
              <VectorParam id="3712"  name="rotation">
               <InterpolatingParam id="3713" interp="linr"  time="-9999999/1" value="0" leadInLength="0/1"  />
               <InterpolatingParam id="3714" interp="linr"  time="-9999999/1" value="0" leadInLength="0/1"  />
               <InterpolatingParam id="3715" interp="linr"  time="-9999999/1" value="0" leadInLength="0/1"  />
              </VectorParam>
              <VectorParam id="3716"  name="shear">
               <InterpolatingParam id="3717" interp="linr"  time="-9999999/1" value="0" leadInLength="0/1"  />
               <InterpolatingParam id="3718" interp="linr"  time="-9999999/1" value="0" leadInLength="0/1"  />
               <InterpolatingParam id="3719" interp="linr"  time="-9999999/1" value="0" leadInLength="0/1"  />
              </VectorParam>
              <VectorParam id="3720"  name="scale">
               <InterpolatingParam id="3721" interp="linr"  time="-9999999/1" value="1" leadInLength="0/1"  />
               <InterpolatingParam id="3722" interp="linr"  time="-9999999/1" value="1" leadInLength="0/1"  />
               <InterpolatingParam id="3723" interp="linr"  time="-9999999/1" value="1" leadInLength="0/1"  />
              </VectorParam>
              <VectorParam id="3724"  name="anchor">
               <InterpolatingParam id="3725" interp="linr"  time="0/1" value="0" leadInLength="0/1"  />
               <InterpolatingParam id="3726" interp="linr"  time="0/1" value="0" leadInLength="0/1"  />
               <InterpolatingParam id="3727" interp="linr"  time="0/1" value="0" leadInLength="0/1"  />
              </VectorParam>
             </Transformer>
             <Parameters>
              <VectorParam id="3728"  name="sourceCrop">
               <InterpolatingParam id="3729" interp="linr"  time="0/1" value="0" leadInLength="0/1"  />
               <InterpolatingParam id="3730" interp="linr"  time="0/1" value="0" leadInLength="0/1"  />
               <InterpolatingParam id="3731" interp="linr"  time="0/1" value="0" leadInLength="0/1"  />
               <InterpolatingParam id="3732" interp="linr"  time="0/1" value="0" leadInLength="0/1"  />
              </VectorParam>
              <VectorParam id="3733"  name="geometryCrop">
               <InterpolatingParam id="3734" interp="linr"  time="-9999999/1" value="0" leadInLength="0/1"  />
               <InterpolatingParam id="3735" interp="linr"  time="-9999999/1" value="0" leadInLength="0/1"  />
               <InterpolatingParam id="3736" interp="linr"  time="-9999999/1" value="0" leadInLength="0/1"  />
               <InterpolatingParam id="3737" interp="linr"  time="-9999999/1" value="0" leadInLength="0/1"  />
              </VectorParam>
              <InterpolatingParam id="3738" interp="linr"  time="-9999999/1" value="1" leadInLength="0/1"  name="opacity"/>
             </Parameters>
             <Attributes>
              <Attribute id="3739" value="" name="ident"/>
             </Attributes>
             <ExtraData>
              <Entry key="ZoomPanBin">
               <ZoomPanBin id="3740"  >
                <ZoomPanKeyframes>
                </ZoomPanKeyframes>
               </ZoomPanBin>
              </Entry>
             </ExtraData>
            </VMFile>
            <MetaData>
             <entry key="WinSubProjectDisplayName" val=""/>
            </MetaData>
           </UnifiedMedia>
           <UnifiedMedia id="3741"  >
            <AMFile id="3742" start="1839" duration="574" scalar="1/1" mediaStart="2241/1" mediaDuration="574/1" trackNumber="1" src="4" channelNumber="0,1" >
             <Parameters>
              <InterpolatingParam id="3743" interp="linr"  time="0/1" value="1" leadInLength="0/1"  name="volume"/>
              <Parameter id="3744"  name="captions"/>
             </Parameters>
             <Attributes>
              <Attribute id="3745" value="" name="ident"/>
              <Attribute id="3746" value="48000" name="sampleRate"/>
              <Attribute id="3747" value="16" name="bitDepth"/>
              <Attribute id="3748" value="1" name="gain"/>
              <Attribute id="3749" value="0" name="mixToMono"/>
             </Attributes>
            </AMFile>
            <VMFile id="3750" start="1839" duration="574" scalar="1/1" mediaStart="2241/1" mediaDuration="574/1" trackNumber="0" src="4" >
             <Transformer>
              <VectorParam id="3751"  name="translation">
               <InterpolatingParam id="3752" interp="linr"  time="-9999999/1" value="0" leadInLength="0/1"  />
               <InterpolatingParam id="3753" interp="linr"  time="-9999999/1" value="0" leadInLength="0/1"  />
               <InterpolatingParam id="3754" interp="linr"  time="-9999999/1" value="0" leadInLength="0/1"  />
              </VectorParam>
              <VectorParam id="3755"  name="rotation">
               <InterpolatingParam id="3756" interp="linr"  time="-9999999/1" value="0" leadInLength="0/1"  />
               <InterpolatingParam id="3757" interp="linr"  time="-9999999/1" value="0" leadInLength="0/1"  />
               <InterpolatingParam id="3758" interp="linr"  time="-9999999/1" value="0" leadInLength="0/1"  />
              </VectorParam>
              <VectorParam id="3759"  name="shear">
               <InterpolatingParam id="3760" interp="linr"  time="-9999999/1" value="0" leadInLength="0/1"  />
               <InterpolatingParam id="3761" interp="linr"  time="-9999999/1" value="0" leadInLength="0/1"  />
               <InterpolatingParam id="3762" interp="linr"  time="-9999999/1" value="0" leadInLength="0/1"  />
              </VectorParam>
              <VectorParam id="3763"  name="scale">
               <InterpolatingParam id="3764" interp="linr"  time="-9999999/1" value="1" leadInLength="0/1"  />
               <InterpolatingParam id="3765" interp="linr"  time="-9999999/1" value="1" leadInLength="0/1"  />
               <InterpolatingParam id="3766" interp="linr"  time="-9999999/1" value="1" leadInLength="0/1"  />
              </VectorParam>
              <VectorParam id="3767"  name="anchor">
               <InterpolatingParam id="3768" interp="linr"  time="0/1" value="0" leadInLength="0/1"  />
               <InterpolatingParam id="3769" interp="linr"  time="0/1" value="0" leadInLength="0/1"  />
               <InterpolatingParam id="3770" interp="linr"  time="0/1" value="0" leadInLength="0/1"  />
              </VectorParam>
             </Transformer>
             <Parameters>
              <VectorParam id="3771"  name="sourceCrop">
               <InterpolatingParam id="3772" interp="linr"  time="0/1" value="0" leadInLength="0/1"  />
               <InterpolatingParam id="3773" interp="linr"  time="0/1" value="0" leadInLength="0/1"  />
               <InterpolatingParam id="3774" interp="linr"  time="0/1" value="0" leadInLength="0/1"  />
               <InterpolatingParam id="3775" interp="linr"  time="0/1" value="0" leadInLength="0/1"  />
              </VectorParam>
              <VectorParam id="3776"  name="geometryCrop">
               <InterpolatingParam id="3777" interp="linr"  time="-9999999/1" value="0" leadInLength="0/1"  />
               <InterpolatingParam id="3778" interp="linr"  time="-9999999/1" value="0" leadInLength="0/1"  />
               <InterpolatingParam id="3779" interp="linr"  time="-9999999/1" value="0" leadInLength="0/1"  />
               <InterpolatingParam id="3780" interp="linr"  time="-9999999/1" value="0" leadInLength="0/1"  />
              </VectorParam>
              <InterpolatingParam id="3781" interp="linr"  time="-9999999/1" value="1" leadInLength="0/1"  name="opacity"/>
             </Parameters>
             <Attributes>
              <Attribute id="3782" value="" name="ident"/>
             </Attributes>
             <ExtraData>
              <Entry key="ZoomPanBin">
               <ZoomPanBin id="3783"  >
                <ZoomPanKeyframes>
                </ZoomPanKeyframes>
               </ZoomPanBin>
              </Entry>
             </ExtraData>
            </VMFile>
            <MetaData>
             <entry key="WinSubProjectDisplayName" val=""/>
            </MetaData>
           </UnifiedMedia>
           <UnifiedMedia id="3784"  >
            <AMFile id="3785" start="2413" duration="82" scalar="1/1" mediaStart="2845/1" mediaDuration="82/1" trackNumber="1" src="4" channelNumber="0,1" >
             <Parameters>
              <InterpolatingParam id="3786" interp="linr"  time="0/1" value="1" leadInLength="0/1"  name="volume"/>
              <Parameter id="3787"  name="captions"/>
             </Parameters>
             <Attributes>
              <Attribute id="3788" value="" name="ident"/>
              <Attribute id="3789" value="48000" name="sampleRate"/>
              <Attribute id="3790" value="16" name="bitDepth"/>
              <Attribute id="3791" value="1" name="gain"/>
              <Attribute id="3792" value="0" name="mixToMono"/>
             </Attributes>
            </AMFile>
            <VMFile id="3793" start="2413" duration="82" scalar="1/1" mediaStart="2845/1" mediaDuration="82/1" trackNumber="0" src="4" >
             <Transformer>
              <VectorParam id="3794"  name="translation">
               <InterpolatingParam id="3795" interp="linr"  time="-9999999/1" value="0" leadInLength="0/1"  />
               <InterpolatingParam id="3796" interp="linr"  time="-9999999/1" value="0" leadInLength="0/1"  />
               <InterpolatingParam id="3797" interp="linr"  time="-9999999/1" value="0" leadInLength="0/1"  />
              </VectorParam>
              <VectorParam id="3798"  name="rotation">
               <InterpolatingParam id="3799" interp="linr"  time="-9999999/1" value="0" leadInLength="0/1"  />
               <InterpolatingParam id="3800" interp="linr"  time="-9999999/1" value="0" leadInLength="0/1"  />
               <InterpolatingParam id="3801" interp="linr"  time="-9999999/1" value="0" leadInLength="0/1"  />
              </VectorParam>
              <VectorParam id="3802"  name="shear">
               <InterpolatingParam id="3803" interp="linr"  time="-9999999/1" value="0" leadInLength="0/1"  />
               <InterpolatingParam id="3804" interp="linr"  time="-9999999/1" value="0" leadInLength="0/1"  />
               <InterpolatingParam id="3805" interp="linr"  time="-9999999/1" value="0" leadInLength="0/1"  />
              </VectorParam>
              <VectorParam id="3806"  name="scale">
               <InterpolatingParam id="3807" interp="linr"  time="-9999999/1" value="1" leadInLength="0/1"  />
               <InterpolatingParam id="3808" interp="linr"  time="-9999999/1" value="1" leadInLength="0/1"  />
               <InterpolatingParam id="3809" interp="linr"  time="-9999999/1" value="1" leadInLength="0/1"  />
              </VectorParam>
              <VectorParam id="3810"  name="anchor">
               <InterpolatingParam id="3811" interp="linr"  time="0/1" value="0" leadInLength="0/1"  />
               <InterpolatingParam id="3812" interp="linr"  time="0/1" value="0" leadInLength="0/1"  />
               <InterpolatingParam id="3813" interp="linr"  time="0/1" value="0" leadInLength="0/1"  />
              </VectorParam>
             </Transformer>
             <Parameters>
              <VectorParam id="3814"  name="sourceCrop">
               <InterpolatingParam id="3815" interp="linr"  time="0/1" value="0" leadInLength="0/1"  />
               <InterpolatingParam id="3816" interp="linr"  time="0/1" value="0" leadInLength="0/1"  />
               <InterpolatingParam id="3817" interp="linr"  time="0/1" value="0" leadInLength="0/1"  />
               <InterpolatingParam id="3818" interp="linr"  time="0/1" value="0" leadInLength="0/1"  />
              </VectorParam>
              <VectorParam id="3819"  name="geometryCrop">
               <InterpolatingParam id="3820" interp="linr"  time="-9999999/1" value="0" leadInLength="0/1"  />
               <InterpolatingParam id="3821" interp="linr"  time="-9999999/1" value="0" leadInLength="0/1"  />
               <InterpolatingParam id="3822" interp="linr"  time="-9999999/1" value="0" leadInLength="0/1"  />
               <InterpolatingParam id="3823" interp="linr"  time="-9999999/1" value="0" leadInLength="0/1"  />
              </VectorParam>
              <InterpolatingParam id="3824" interp="linr"  time="-9999999/1" value="1" leadInLength="0/1"  name="opacity"/>
             </Parameters>
             <Attributes>
              <Attribute id="3825" value="" name="ident"/>
             </Attributes>
             <ExtraData>
              <Entry key="ZoomPanBin">
               <ZoomPanBin id="3826"  >
                <ZoomPanKeyframes>
                </ZoomPanKeyframes>
               </ZoomPanBin>
              </Entry>
             </ExtraData>
            </VMFile>
            <MetaData>
             <entry key="WinSubProjectDisplayName" val=""/>
            </MetaData>
           </UnifiedMedia>
           <UnifiedMedia id="3827"  >
            <AMFile id="3828" start="2495" duration="33" scalar="1/1" mediaStart="2983/1" mediaDuration="33/1" trackNumber="1" src="4" channelNumber="0,1" >
             <Parameters>
              <InterpolatingParam id="3829" interp="linr"  time="0/1" value="1" leadInLength="0/1"  name="volume"/>
              <Parameter id="3830"  name="captions"/>
             </Parameters>
             <Attributes>
              <Attribute id="3831" value="" name="ident"/>
              <Attribute id="3832" value="48000" name="sampleRate"/>
              <Attribute id="3833" value="16" name="bitDepth"/>
              <Attribute id="3834" value="1" name="gain"/>
              <Attribute id="3835" value="0" name="mixToMono"/>
             </Attributes>
            </AMFile>
            <VMFile id="3836" start="2495" duration="33" scalar="1/1" mediaStart="2983/1" mediaDuration="33/1" trackNumber="0" src="4" >
             <Transformer>
              <VectorParam id="3837"  name="translation">
               <InterpolatingParam id="3838" interp="linr"  time="-9999999/1" value="0" leadInLength="0/1"  />
               <InterpolatingParam id="3839" interp="linr"  time="-9999999/1" value="0" leadInLength="0/1"  />
               <InterpolatingParam id="3840" interp="linr"  time="-9999999/1" value="0" leadInLength="0/1"  />
              </VectorParam>
              <VectorParam id="3841"  name="rotation">
               <InterpolatingParam id="3842" interp="linr"  time="-9999999/1" value="0" leadInLength="0/1"  />
               <InterpolatingParam id="3843" interp="linr"  time="-9999999/1" value="0" leadInLength="0/1"  />
               <InterpolatingParam id="3844" interp="linr"  time="-9999999/1" value="0" leadInLength="0/1"  />
              </VectorParam>
              <VectorParam id="3845"  name="shear">
               <InterpolatingParam id="3846" interp="linr"  time="-9999999/1" value="0" leadInLength="0/1"  />
               <InterpolatingParam id="3847" interp="linr"  time="-9999999/1" value="0" leadInLength="0/1"  />
               <InterpolatingParam id="3848" interp="linr"  time="-9999999/1" value="0" leadInLength="0/1"  />
              </VectorParam>
              <VectorParam id="3849"  name="scale">
               <InterpolatingParam id="3850" interp="linr"  time="-9999999/1" value="1" leadInLength="0/1"  />
               <InterpolatingParam id="3851" interp="linr"  time="-9999999/1" value="1" leadInLength="0/1"  />
               <InterpolatingParam id="3852" interp="linr"  time="-9999999/1" value="1" leadInLength="0/1"  />
              </VectorParam>
              <VectorParam id="3853"  name="anchor">
               <InterpolatingParam id="3854" interp="linr"  time="0/1" value="0" leadInLength="0/1"  />
               <InterpolatingParam id="3855" interp="linr"  time="0/1" value="0" leadInLength="0/1"  />
               <InterpolatingParam id="3856" interp="linr"  time="0/1" value="0" leadInLength="0/1"  />
              </VectorParam>
             </Transformer>
             <Parameters>
              <VectorParam id="3857"  name="sourceCrop">
               <InterpolatingParam id="3858" interp="linr"  time="0/1" value="0" leadInLength="0/1"  />
               <InterpolatingParam id="3859" interp="linr"  time="0/1" value="0" leadInLength="0/1"  />
               <InterpolatingParam id="3860" interp="linr"  time="0/1" value="0" leadInLength="0/1"  />
               <InterpolatingParam id="3861" interp="linr"  time="0/1" value="0" leadInLength="0/1"  />
              </VectorParam>
              <VectorParam id="3862"  name="geometryCrop">
               <InterpolatingParam id="3863" interp="linr"  time="-9999999/1" value="0" leadInLength="0/1"  />
               <InterpolatingParam id="3864" interp="linr"  time="-9999999/1" value="0" leadInLength="0/1"  />
               <InterpolatingParam id="3865" interp="linr"  time="-9999999/1" value="0" leadInLength="0/1"  />
               <InterpolatingParam id="3866" interp="linr"  time="-9999999/1" value="0" leadInLength="0/1"  />
              </VectorParam>
              <InterpolatingParam id="3867" interp="linr"  time="-9999999/1" value="1" leadInLength="0/1"  name="opacity"/>
             </Parameters>
             <Attributes>
              <Attribute id="3868" value="" name="ident"/>
             </Attributes>
             <ExtraData>
              <Entry key="ZoomPanBin">
               <ZoomPanBin id="3869"  >
                <ZoomPanKeyframes>
                </ZoomPanKeyframes>
               </ZoomPanBin>
              </Entry>
             </ExtraData>
            </VMFile>
            <MetaData>
             <entry key="WinSubProjectDisplayName" val=""/>
            </MetaData>
           </UnifiedMedia>
           <UnifiedMedia id="3870"  >
            <AMFile id="3871" start="2528" duration="33" scalar="1/1" mediaStart="3158/1" mediaDuration="33/1" trackNumber="1" src="4" channelNumber="0,1" >
             <Parameters>
              <InterpolatingParam id="3872" interp="linr"  time="0/1" value="1" leadInLength="0/1"  name="volume"/>
              <Parameter id="3873"  name="captions"/>
             </Parameters>
             <Attributes>
              <Attribute id="3874" value="" name="ident"/>
              <Attribute id="3875" value="48000" name="sampleRate"/>
              <Attribute id="3876" value="16" name="bitDepth"/>
              <Attribute id="3877" value="1" name="gain"/>
              <Attribute id="3878" value="0" name="mixToMono"/>
             </Attributes>
            </AMFile>
            <VMFile id="3879" start="2528" duration="33" scalar="1/1" mediaStart="3158/1" mediaDuration="33/1" trackNumber="0" src="4" >
             <Transformer>
              <VectorParam id="3880"  name="translation">
               <InterpolatingParam id="3881" interp="linr"  time="-9999999/1" value="0" leadInLength="0/1"  />
               <InterpolatingParam id="3882" interp="linr"  time="-9999999/1" value="0" leadInLength="0/1"  />
               <InterpolatingParam id="3883" interp="linr"  time="-9999999/1" value="0" leadInLength="0/1"  />
              </VectorParam>
              <VectorParam id="3884"  name="rotation">
               <InterpolatingParam id="3885" interp="linr"  time="-9999999/1" value="0" leadInLength="0/1"  />
               <InterpolatingParam id="3886" interp="linr"  time="-9999999/1" value="0" leadInLength="0/1"  />
               <InterpolatingParam id="3887" interp="linr"  time="-9999999/1" value="0" leadInLength="0/1"  />
              </VectorParam>
              <VectorParam id="3888"  name="shear">
               <InterpolatingParam id="3889" interp="linr"  time="-9999999/1" value="0" leadInLength="0/1"  />
               <InterpolatingParam id="3890" interp="linr"  time="-9999999/1" value="0" leadInLength="0/1"  />
               <InterpolatingParam id="3891" interp="linr"  time="-9999999/1" value="0" leadInLength="0/1"  />
              </VectorParam>
              <VectorParam id="3892"  name="scale">
               <InterpolatingParam id="3893" interp="linr"  time="-9999999/1" value="1" leadInLength="0/1"  />
               <InterpolatingParam id="3894" interp="linr"  time="-9999999/1" value="1" leadInLength="0/1"  />
               <InterpolatingParam id="3895" interp="linr"  time="-9999999/1" value="1" leadInLength="0/1"  />
              </VectorParam>
              <VectorParam id="3896"  name="anchor">
               <InterpolatingParam id="3897" interp="linr"  time="0/1" value="0" leadInLength="0/1"  />
               <InterpolatingParam id="3898" interp="linr"  time="0/1" value="0" leadInLength="0/1"  />
               <InterpolatingParam id="3899" interp="linr"  time="0/1" value="0" leadInLength="0/1"  />
              </VectorParam>
             </Transformer>
             <Parameters>
              <VectorParam id="3900"  name="sourceCrop">
               <InterpolatingParam id="3901" interp="linr"  time="0/1" value="0" leadInLength="0/1"  />
               <InterpolatingParam id="3902" interp="linr"  time="0/1" value="0" leadInLength="0/1"  />
               <InterpolatingParam id="3903" interp="linr"  time="0/1" value="0" leadInLength="0/1"  />
               <InterpolatingParam id="3904" interp="linr"  time="0/1" value="0" leadInLength="0/1"  />
              </VectorParam>
              <VectorParam id="3905"  name="geometryCrop">
               <InterpolatingParam id="3906" interp="linr"  time="-9999999/1" value="0" leadInLength="0/1"  />
               <InterpolatingParam id="3907" interp="linr"  time="-9999999/1" value="0" leadInLength="0/1"  />
               <InterpolatingParam id="3908" interp="linr"  time="-9999999/1" value="0" leadInLength="0/1"  />
               <InterpolatingParam id="3909" interp="linr"  time="-9999999/1" value="0" leadInLength="0/1"  />
              </VectorParam>
              <InterpolatingParam id="3910" interp="linr"  time="-9999999/1" value="1" leadInLength="0/1"  name="opacity"/>
             </Parameters>
             <Attributes>
              <Attribute id="3911" value="" name="ident"/>
             </Attributes>
             <ExtraData>
              <Entry key="ZoomPanBin">
               <ZoomPanBin id="3912"  >
                <ZoomPanKeyframes>
                </ZoomPanKeyframes>
               </ZoomPanBin>
              </Entry>
             </ExtraData>
            </VMFile>
            <MetaData>
             <entry key="WinSubProjectDisplayName" val=""/>
            </MetaData>
           </UnifiedMedia>
           <UnifiedMedia id="3913"  >
            <AMFile id="3914" start="2561" duration="46" scalar="1/1" mediaStart="3257/1" mediaDuration="46/1" trackNumber="1" src="4" channelNumber="0,1" >
             <Parameters>
              <InterpolatingParam id="3915" interp="linr"  time="0/1" value="1" leadInLength="0/1"  name="volume"/>
              <Parameter id="3916"  name="captions"/>
             </Parameters>
             <Attributes>
              <Attribute id="3917" value="" name="ident"/>
              <Attribute id="3918" value="48000" name="sampleRate"/>
              <Attribute id="3919" value="16" name="bitDepth"/>
              <Attribute id="3920" value="1" name="gain"/>
              <Attribute id="3921" value="0" name="mixToMono"/>
             </Attributes>
            </AMFile>
            <VMFile id="3922" start="2561" duration="46" scalar="1/1" mediaStart="3257/1" mediaDuration="46/1" trackNumber="0" src="4" >
             <Transformer>
              <VectorParam id="3923"  name="translation">
               <InterpolatingParam id="3924" interp="linr"  time="-9999999/1" value="0" leadInLength="0/1"  />
               <InterpolatingParam id="3925" interp="linr"  time="-9999999/1" value="0" leadInLength="0/1"  />
               <InterpolatingParam id="3926" interp="linr"  time="-9999999/1" value="0" leadInLength="0/1"  />
              </VectorParam>
              <VectorParam id="3927"  name="rotation">
               <InterpolatingParam id="3928" interp="linr"  time="-9999999/1" value="0" leadInLength="0/1"  />
               <InterpolatingParam id="3929" interp="linr"  time="-9999999/1" value="0" leadInLength="0/1"  />
               <InterpolatingParam id="3930" interp="linr"  time="-9999999/1" value="0" leadInLength="0/1"  />
              </VectorParam>
              <VectorParam id="3931"  name="shear">
               <InterpolatingParam id="3932" interp="linr"  time="-9999999/1" value="0" leadInLength="0/1"  />
               <InterpolatingParam id="3933" interp="linr"  time="-9999999/1" value="0" leadInLength="0/1"  />
               <InterpolatingParam id="3934" interp="linr"  time="-9999999/1" value="0" leadInLength="0/1"  />
              </VectorParam>
              <VectorParam id="3935"  name="scale">
               <InterpolatingParam id="3936" interp="linr"  time="-9999999/1" value="1" leadInLength="0/1"  />
               <InterpolatingParam id="3937" interp="linr"  time="-9999999/1" value="1" leadInLength="0/1"  />
               <InterpolatingParam id="3938" interp="linr"  time="-9999999/1" value="1" leadInLength="0/1"  />
              </VectorParam>
              <VectorParam id="3939"  name="anchor">
               <InterpolatingParam id="3940" interp="linr"  time="0/1" value="0" leadInLength="0/1"  />
               <InterpolatingParam id="3941" interp="linr"  time="0/1" value="0" leadInLength="0/1"  />
               <InterpolatingParam id="3942" interp="linr"  time="0/1" value="0" leadInLength="0/1"  />
              </VectorParam>
             </Transformer>
             <Parameters>
              <VectorParam id="3943"  name="sourceCrop">
               <InterpolatingParam id="3944" interp="linr"  time="0/1" value="0" leadInLength="0/1"  />
               <InterpolatingParam id="3945" interp="linr"  time="0/1" value="0" leadInLength="0/1"  />
               <InterpolatingParam id="3946" interp="linr"  time="0/1" value="0" leadInLength="0/1"  />
               <InterpolatingParam id="3947" interp="linr"  time="0/1" value="0" leadInLength="0/1"  />
              </VectorParam>
              <VectorParam id="3948"  name="geometryCrop">
               <InterpolatingParam id="3949" interp="linr"  time="-9999999/1" value="0" leadInLength="0/1"  />
               <InterpolatingParam id="3950" interp="linr"  time="-9999999/1" value="0" leadInLength="0/1"  />
               <InterpolatingParam id="3951" interp="linr"  time="-9999999/1" value="0" leadInLength="0/1"  />
               <InterpolatingParam id="3952" interp="linr"  time="-9999999/1" value="0" leadInLength="0/1"  />
              </VectorParam>
              <InterpolatingParam id="3953" interp="linr"  time="-9999999/1" value="1" leadInLength="0/1"  name="opacity"/>
             </Parameters>
             <Attributes>
              <Attribute id="3954" value="" name="ident"/>
             </Attributes>
             <ExtraData>
              <Entry key="ZoomPanBin">
               <ZoomPanBin id="3955"  >
                <ZoomPanKeyframes>
                </ZoomPanKeyframes>
               </ZoomPanBin>
              </Entry>
             </ExtraData>
            </VMFile>
            <MetaData>
             <entry key="WinSubProjectDisplayName" val=""/>
            </MetaData>
           </UnifiedMedia>
           <UnifiedMedia id="3956"  >
            <AMFile id="3957" start="2607" duration="22" scalar="1/1" mediaStart="3312/1" mediaDuration="22/1" trackNumber="1" src="4" channelNumber="0,1" >
             <Parameters>
              <InterpolatingParam id="3958" interp="linr"  time="0/1" value="1" leadInLength="0/1"  name="volume"/>
              <Parameter id="3959"  name="captions"/>
             </Parameters>
             <Attributes>
              <Attribute id="3960" value="" name="ident"/>
              <Attribute id="3961" value="48000" name="sampleRate"/>
              <Attribute id="3962" value="16" name="bitDepth"/>
              <Attribute id="3963" value="1" name="gain"/>
              <Attribute id="3964" value="0" name="mixToMono"/>
             </Attributes>
            </AMFile>
            <VMFile id="3965" start="2607" duration="22" scalar="1/1" mediaStart="3312/1" mediaDuration="22/1" trackNumber="0" src="4" >
             <Transformer>
              <VectorParam id="3966"  name="translation">
               <InterpolatingParam id="3967" interp="linr"  time="-9999999/1" value="0" leadInLength="0/1"  />
               <InterpolatingParam id="3968" interp="linr"  time="-9999999/1" value="0" leadInLength="0/1"  />
               <InterpolatingParam id="3969" interp="linr"  time="-9999999/1" value="0" leadInLength="0/1"  />
              </VectorParam>
              <VectorParam id="3970"  name="rotation">
               <InterpolatingParam id="3971" interp="linr"  time="-9999999/1" value="0" leadInLength="0/1"  />
               <InterpolatingParam id="3972" interp="linr"  time="-9999999/1" value="0" leadInLength="0/1"  />
               <InterpolatingParam id="3973" interp="linr"  time="-9999999/1" value="0" leadInLength="0/1"  />
              </VectorParam>
              <VectorParam id="3974"  name="shear">
               <InterpolatingParam id="3975" interp="linr"  time="-9999999/1" value="0" leadInLength="0/1"  />
               <InterpolatingParam id="3976" interp="linr"  time="-9999999/1" value="0" leadInLength="0/1"  />
               <InterpolatingParam id="3977" interp="linr"  time="-9999999/1" value="0" leadInLength="0/1"  />
              </VectorParam>
              <VectorParam id="3978"  name="scale">
               <InterpolatingParam id="3979" interp="linr"  time="-9999999/1" value="1" leadInLength="0/1"  />
               <InterpolatingParam id="3980" interp="linr"  time="-9999999/1" value="1" leadInLength="0/1"  />
               <InterpolatingParam id="3981" interp="linr"  time="-9999999/1" value="1" leadInLength="0/1"  />
              </VectorParam>
              <VectorParam id="3982"  name="anchor">
               <InterpolatingParam id="3983" interp="linr"  time="0/1" value="0" leadInLength="0/1"  />
               <InterpolatingParam id="3984" interp="linr"  time="0/1" value="0" leadInLength="0/1"  />
               <InterpolatingParam id="3985" interp="linr"  time="0/1" value="0" leadInLength="0/1"  />
              </VectorParam>
             </Transformer>
             <Parameters>
              <VectorParam id="3986"  name="sourceCrop">
               <InterpolatingParam id="3987" interp="linr"  time="0/1" value="0" leadInLength="0/1"  />
               <InterpolatingParam id="3988" interp="linr"  time="0/1" value="0" leadInLength="0/1"  />
               <InterpolatingParam id="3989" interp="linr"  time="0/1" value="0" leadInLength="0/1"  />
               <InterpolatingParam id="3990" interp="linr"  time="0/1" value="0" leadInLength="0/1"  />
              </VectorParam>
              <VectorParam id="3991"  name="geometryCrop">
               <InterpolatingParam id="3992" interp="linr"  time="-9999999/1" value="0" leadInLength="0/1"  />
               <InterpolatingParam id="3993" interp="linr"  time="-9999999/1" value="0" leadInLength="0/1"  />
               <InterpolatingParam id="3994" interp="linr"  time="-9999999/1" value="0" leadInLength="0/1"  />
               <InterpolatingParam id="3995" interp="linr"  time="-9999999/1" value="0" leadInLength="0/1"  />
              </VectorParam>
              <InterpolatingParam id="3996" interp="linr"  time="-9999999/1" value="1" leadInLength="0/1"  name="opacity"/>
             </Parameters>
             <Attributes>
              <Attribute id="3997" value="" name="ident"/>
             </Attributes>
             <ExtraData>
              <Entry key="ZoomPanBin">
               <ZoomPanBin id="3998"  >
                <ZoomPanKeyframes>
                </ZoomPanKeyframes>
               </ZoomPanBin>
              </Entry>
             </ExtraData>
            </VMFile>
            <MetaData>
             <entry key="WinSubProjectDisplayName" val=""/>
            </MetaData>
           </UnifiedMedia>
           <UnifiedMedia id="3999"  >
            <AMFile id="4000" start="2629" duration="5430" scalar="1/1" mediaStart="3366/1" mediaDuration="5430/1" trackNumber="1" src="4" channelNumber="0,1" >
             <Parameters>
              <InterpolatingParam id="4001" interp="linr"  time="0/1" value="1" leadInLength="0/1"  name="volume"/>
              <Parameter id="4002"  name="captions"/>
             </Parameters>
             <Attributes>
              <Attribute id="4003" value="" name="ident"/>
              <Attribute id="4004" value="48000" name="sampleRate"/>
              <Attribute id="4005" value="16" name="bitDepth"/>
              <Attribute id="4006" value="1" name="gain"/>
              <Attribute id="4007" value="0" name="mixToMono"/>
             </Attributes>
            </AMFile>
            <VMFile id="4008" start="2629" duration="5430" scalar="1/1" mediaStart="3366/1" mediaDuration="5430/1" trackNumber="0" src="4" >
             <Transformer>
              <VectorParam id="4009"  name="translation">
               <InterpolatingParam id="4010" interp="linr"  time="-9999999/1" value="0" leadInLength="0/1"  />
               <InterpolatingParam id="4011" interp="linr"  time="-9999999/1" value="0" leadInLength="0/1"  />
               <InterpolatingParam id="4012" interp="linr"  time="-9999999/1" value="0" leadInLength="0/1"  />
              </VectorParam>
              <VectorParam id="4013"  name="rotation">
               <InterpolatingParam id="4014" interp="linr"  time="-9999999/1" value="0" leadInLength="0/1"  />
               <InterpolatingParam id="4015" interp="linr"  time="-9999999/1" value="0" leadInLength="0/1"  />
               <InterpolatingParam id="4016" interp="linr"  time="-9999999/1" value="0" leadInLength="0/1"  />
              </VectorParam>
              <VectorParam id="4017"  name="shear">
               <InterpolatingParam id="4018" interp="linr"  time="-9999999/1" value="0" leadInLength="0/1"  />
               <InterpolatingParam id="4019" interp="linr"  time="-9999999/1" value="0" leadInLength="0/1"  />
               <InterpolatingParam id="4020" interp="linr"  time="-9999999/1" value="0" leadInLength="0/1"  />
              </VectorParam>
              <VectorParam id="4021"  name="scale">
               <InterpolatingParam id="4022" interp="linr"  time="-9999999/1" value="1" leadInLength="0/1"  />
               <InterpolatingParam id="4023" interp="linr"  time="-9999999/1" value="1" leadInLength="0/1"  />
               <InterpolatingParam id="4024" interp="linr"  time="-9999999/1" value="1" leadInLength="0/1"  />
              </VectorParam>
              <VectorParam id="4025"  name="anchor">
               <InterpolatingParam id="4026" interp="linr"  time="0/1" value="0" leadInLength="0/1"  />
               <InterpolatingParam id="4027" interp="linr"  time="0/1" value="0" leadInLength="0/1"  />
               <InterpolatingParam id="4028" interp="linr"  time="0/1" value="0" leadInLength="0/1"  />
              </VectorParam>
             </Transformer>
             <Parameters>
              <VectorParam id="4029"  name="sourceCrop">
               <InterpolatingParam id="4030" interp="linr"  time="0/1" value="0" leadInLength="0/1"  />
               <InterpolatingParam id="4031" interp="linr"  time="0/1" value="0" leadInLength="0/1"  />
               <InterpolatingParam id="4032" interp="linr"  time="0/1" value="0" leadInLength="0/1"  />
               <InterpolatingParam id="4033" interp="linr"  time="0/1" value="0" leadInLength="0/1"  />
              </VectorParam>
              <VectorParam id="4034"  name="geometryCrop">
               <InterpolatingParam id="4035" interp="linr"  time="-9999999/1" value="0" leadInLength="0/1"  />
               <InterpolatingParam id="4036" interp="linr"  time="-9999999/1" value="0" leadInLength="0/1"  />
               <InterpolatingParam id="4037" interp="linr"  time="-9999999/1" value="0" leadInLength="0/1"  />
               <InterpolatingParam id="4038" interp="linr"  time="-9999999/1" value="0" leadInLength="0/1"  />
              </VectorParam>
              <InterpolatingParam id="4039" interp="linr"  time="-9999999/1" value="1" leadInLength="0/1"  name="opacity"/>
             </Parameters>
             <Attributes>
              <Attribute id="4040" value="" name="ident"/>
             </Attributes>
             <ExtraData>
              <Entry key="ZoomPanBin">
               <ZoomPanBin id="4041"  >
                <ZoomPanKeyframes>
                </ZoomPanKeyframes>
               </ZoomPanBin>
              </Entry>
             </ExtraData>
            </VMFile>
            <MetaData>
             <entry key="WinSubProjectDisplayName" val=""/>
            </MetaData>
           </UnifiedMedia>
          </Medias>
         </GenericTrack>
        </StitchedMedia>
        <StitchedMedia id="4042" start="3105" duration="27" scalar="1/1" mediaStart="3167/1" mediaDuration="27/1" minMediaStart="0/1" >
         <Transformer>
          <VectorParam id="4043"  name="translation">
           <InterpolatingParam id="4044" interp="linr"  time="-9999999/1" value="574.63125870155341" leadInLength="0/1"  />
           <InterpolatingParam id="4045" interp="linr"  time="-9999999/1" value="-292.43665240012643" leadInLength="0/1"  />
           <InterpolatingParam id="4046" interp="linr"  time="-9999999/1" value="0" leadInLength="0/1"  />
          </VectorParam>
          <VectorParam id="4047"  name="rotation">
           <InterpolatingParam id="4048" interp="linr"  time="-9999999/1" value="0" leadInLength="0/1"  />
           <InterpolatingParam id="4049" interp="linr"  time="-9999999/1" value="0" leadInLength="0/1"  />
           <InterpolatingParam id="4050" interp="linr"  time="-9999999/1" value="0" leadInLength="0/1"  />
          </VectorParam>
          <VectorParam id="4051"  name="shear">
           <InterpolatingParam id="4052" interp="linr"  time="-9999999/1" value="0" leadInLength="0/1"  />
           <InterpolatingParam id="4053" interp="linr"  time="-9999999/1" value="0" leadInLength="0/1"  />
           <InterpolatingParam id="4054" interp="linr"  time="-9999999/1" value="0" leadInLength="0/1"  />
          </VectorParam>
          <VectorParam id="4055"  name="scale">
           <InterpolatingParam id="4056" interp="linr"  time="-9999999/1" value="0.21085271317836307" leadInLength="0/1"  />
           <InterpolatingParam id="4057" interp="linr"  time="-9999999/1" value="0.2108527131783631" leadInLength="0/1"  />
           <InterpolatingParam id="4058" interp="linr"  time="-9999999/1" value="1" leadInLength="0/1"  />
          </VectorParam>
          <VectorParam id="4059"  name="anchor">
           <InterpolatingParam id="4060" interp="linr"  time="0/1" value="0" leadInLength="0/1"  />
           <InterpolatingParam id="4061" interp="linr"  time="0/1" value="0" leadInLength="0/1"  />
           <InterpolatingParam id="4062" interp="linr"  time="0/1" value="0" leadInLength="0/1"  />
          </VectorParam>
         </Transformer>
         <Parameters>
          <VectorParam id="4063"  name="sourceCrop">
           <InterpolatingParam id="4064" interp="linr"  time="0/1" value="0" leadInLength="0/1"  />
           <InterpolatingParam id="4065" interp="linr"  time="0/1" value="0" leadInLength="0/1"  />
           <InterpolatingParam id="4066" interp="linr"  time="0/1" value="0" leadInLength="0/1"  />
           <InterpolatingParam id="4067" interp="linr"  time="0/1" value="0" leadInLength="0/1"  />
          </VectorParam>
          <VectorParam id="4068"  name="geometryCrop">
           <InterpolatingParam id="4069" interp="linr"  time="-9999999/1" value="627.40576496682729" leadInLength="0/1"  />
           <InterpolatingParam id="4070" interp="linr"  time="-9999999/1" value="50.288248336816537" leadInLength="0/1"  />
           <InterpolatingParam id="4071" interp="linr"  time="-9999999/1" value="649.97913134196688" leadInLength="0/1"  />
           <InterpolatingParam id="4072" interp="linr"  time="-9999999/1" value="219.57088822111729" leadInLength="0/1"  />
          </VectorParam>
          <InterpolatingParam id="4073" interp="linr"  time="-9999999/1" value="1" leadInLength="0/1"  name="opacity"/>
          <InterpolatingParam id="4074" interp="linr"  time="0/1" value="1" leadInLength="0/1"  name="cursorOpacity"/>
          <InterpolatingParam id="4075" interp="linr"  time="0/1" value="1" leadInLength="0/1"  name="cursorScale"/>
          <InterpolatingParam id="4076" interp="linr"  time="0/1" value="1" leadInLength="0/1"  name="volume"/>
          <Parameter id="4077"  name="captions"/>
         </Parameters>
         <Attributes>
          <Attribute id="4078" value="" name="ident"/>
          <Attribute id="4079" value="0" name="mixToMono"/>
         </Attributes>
         <MetaData>
          <entry key="WinSubProjectDisplayName" val=""/>
         </MetaData>
         <ExtraData>
          <Entry key="ZoomPanBin">
           <ZoomPanBin id="4080"  >
            <ZoomPanKeyframes>
             <ZoomPanKeyframe id="4081" timeRangeEnd="-9999999/1" timeRangeDuration="0/1" interpolaterName="linr"  />
            </ZoomPanKeyframes>
           </ZoomPanBin>
          </Entry>
          <Entry key="CursorEffectBin">
           <CursorEffectBin id="4082"  >
            <CursorEffectKeyframes>
            </CursorEffectKeyframes>
           </CursorEffectBin>
          </Entry>
         </ExtraData>
         <GenericTrack id="4083"  >
          <Attributes>
           <Attribute id="4084" value="" name="ident"/>
           <Attribute id="4085" value="0" name="audioMuted"/>
           <Attribute id="4086" value="0" name="videoHidden"/>
          </Attributes>
          <MetaData>
           <entry key="IsLocked" val="False"/>
           <entry key="WinTrackHeight" val="0"/>
          </MetaData>
          <Medias>
           <UnifiedMedia id="4087"  >
            <AMFile id="4088" start="0" duration="30" scalar="1/1" mediaStart="0/1" mediaDuration="30/1" trackNumber="1" src="4" channelNumber="0,1" >
             <Parameters>
              <InterpolatingParam id="4089" interp="linr"  time="0/1" value="1" leadInLength="0/1"  name="volume"/>
              <Parameter id="4090"  name="captions"/>
             </Parameters>
             <Attributes>
              <Attribute id="4091" value="" name="ident"/>
              <Attribute id="4092" value="48000" name="sampleRate"/>
              <Attribute id="4093" value="16" name="bitDepth"/>
              <Attribute id="4094" value="1" name="gain"/>
              <Attribute id="4095" value="0" name="mixToMono"/>
             </Attributes>
            </AMFile>
            <VMFile id="4096" start="0" duration="30" scalar="1/1" mediaStart="0/1" mediaDuration="30/1" trackNumber="0" src="4" >
             <Transformer>
              <VectorParam id="4097"  name="translation">
               <InterpolatingParam id="4098" interp="linr"  time="-9999999/1" value="0" leadInLength="0/1"  />
               <InterpolatingParam id="4099" interp="linr"  time="-9999999/1" value="0" leadInLength="0/1"  />
               <InterpolatingParam id="4100" interp="linr"  time="-9999999/1" value="0" leadInLength="0/1"  />
              </VectorParam>
              <VectorParam id="4101"  name="rotation">
               <InterpolatingParam id="4102" interp="linr"  time="-9999999/1" value="0" leadInLength="0/1"  />
               <InterpolatingParam id="4103" interp="linr"  time="-9999999/1" value="0" leadInLength="0/1"  />
               <InterpolatingParam id="4104" interp="linr"  time="-9999999/1" value="0" leadInLength="0/1"  />
              </VectorParam>
              <VectorParam id="4105"  name="shear">
               <InterpolatingParam id="4106" interp="linr"  time="-9999999/1" value="0" leadInLength="0/1"  />
               <InterpolatingParam id="4107" interp="linr"  time="-9999999/1" value="0" leadInLength="0/1"  />
               <InterpolatingParam id="4108" interp="linr"  time="-9999999/1" value="0" leadInLength="0/1"  />
              </VectorParam>
              <VectorParam id="4109"  name="scale">
               <InterpolatingParam id="4110" interp="linr"  time="-9999999/1" value="1" leadInLength="0/1"  />
               <InterpolatingParam id="4111" interp="linr"  time="-9999999/1" value="1" leadInLength="0/1"  />
               <InterpolatingParam id="4112" interp="linr"  time="-9999999/1" value="1" leadInLength="0/1"  />
              </VectorParam>
              <VectorParam id="4113"  name="anchor">
               <InterpolatingParam id="4114" interp="linr"  time="0/1" value="0" leadInLength="0/1"  />
               <InterpolatingParam id="4115" interp="linr"  time="0/1" value="0" leadInLength="0/1"  />
               <InterpolatingParam id="4116" interp="linr"  time="0/1" value="0" leadInLength="0/1"  />
              </VectorParam>
             </Transformer>
             <Parameters>
              <VectorParam id="4117"  name="sourceCrop">
               <InterpolatingParam id="4118" interp="linr"  time="0/1" value="0" leadInLength="0/1"  />
               <InterpolatingParam id="4119" interp="linr"  time="0/1" value="0" leadInLength="0/1"  />
               <InterpolatingParam id="4120" interp="linr"  time="0/1" value="0" leadInLength="0/1"  />
               <InterpolatingParam id="4121" interp="linr"  time="0/1" value="0" leadInLength="0/1"  />
              </VectorParam>
              <VectorParam id="4122"  name="geometryCrop">
               <InterpolatingParam id="4123" interp="linr"  time="-9999999/1" value="0" leadInLength="0/1"  />
               <InterpolatingParam id="4124" interp="linr"  time="-9999999/1" value="0" leadInLength="0/1"  />
               <InterpolatingParam id="4125" interp="linr"  time="-9999999/1" value="0" leadInLength="0/1"  />
               <InterpolatingParam id="4126" interp="linr"  time="-9999999/1" value="0" leadInLength="0/1"  />
              </VectorParam>
              <InterpolatingParam id="4127" interp="linr"  time="-9999999/1" value="1" leadInLength="0/1"  name="opacity"/>
             </Parameters>
             <Attributes>
              <Attribute id="4128" value="" name="ident"/>
             </Attributes>
             <ExtraData>
              <Entry key="ZoomPanBin">
               <ZoomPanBin id="4129"  >
                <ZoomPanKeyframes>
                 <ZoomPanKeyframe id="4130" timeRangeEnd="-9999999/1" timeRangeDuration="0/1" interpolaterName="linr"  />
                </ZoomPanKeyframes>
               </ZoomPanBin>
              </Entry>
             </ExtraData>
            </VMFile>
            <MetaData>
             <entry key="WinSubProjectDisplayName" val=""/>
            </MetaData>
           </UnifiedMedia>
           <UnifiedMedia id="4131"  >
            <AMFile id="4132" start="30" duration="350" scalar="1/1" mediaStart="154/1" mediaDuration="350/1" trackNumber="1" src="4" channelNumber="0,1" >
             <Parameters>
              <InterpolatingParam id="4133" interp="linr"  time="0/1" value="1" leadInLength="0/1"  name="volume"/>
              <Parameter id="4134"  name="captions"/>
             </Parameters>
             <Attributes>
              <Attribute id="4135" value="" name="ident"/>
              <Attribute id="4136" value="48000" name="sampleRate"/>
              <Attribute id="4137" value="16" name="bitDepth"/>
              <Attribute id="4138" value="1" name="gain"/>
              <Attribute id="4139" value="0" name="mixToMono"/>
             </Attributes>
            </AMFile>
            <VMFile id="4140" start="30" duration="350" scalar="1/1" mediaStart="154/1" mediaDuration="350/1" trackNumber="0" src="4" >
             <Transformer>
              <VectorParam id="4141"  name="translation">
               <InterpolatingParam id="4142" interp="linr"  time="-9999999/1" value="0" leadInLength="0/1"  />
               <InterpolatingParam id="4143" interp="linr"  time="-9999999/1" value="0" leadInLength="0/1"  />
               <InterpolatingParam id="4144" interp="linr"  time="-9999999/1" value="0" leadInLength="0/1"  />
              </VectorParam>
              <VectorParam id="4145"  name="rotation">
               <InterpolatingParam id="4146" interp="linr"  time="-9999999/1" value="0" leadInLength="0/1"  />
               <InterpolatingParam id="4147" interp="linr"  time="-9999999/1" value="0" leadInLength="0/1"  />
               <InterpolatingParam id="4148" interp="linr"  time="-9999999/1" value="0" leadInLength="0/1"  />
              </VectorParam>
              <VectorParam id="4149"  name="shear">
               <InterpolatingParam id="4150" interp="linr"  time="-9999999/1" value="0" leadInLength="0/1"  />
               <InterpolatingParam id="4151" interp="linr"  time="-9999999/1" value="0" leadInLength="0/1"  />
               <InterpolatingParam id="4152" interp="linr"  time="-9999999/1" value="0" leadInLength="0/1"  />
              </VectorParam>
              <VectorParam id="4153"  name="scale">
               <InterpolatingParam id="4154" interp="linr"  time="-9999999/1" value="1" leadInLength="0/1"  />
               <InterpolatingParam id="4155" interp="linr"  time="-9999999/1" value="1" leadInLength="0/1"  />
               <InterpolatingParam id="4156" interp="linr"  time="-9999999/1" value="1" leadInLength="0/1"  />
              </VectorParam>
              <VectorParam id="4157"  name="anchor">
               <InterpolatingParam id="4158" interp="linr"  time="0/1" value="0" leadInLength="0/1"  />
               <InterpolatingParam id="4159" interp="linr"  time="0/1" value="0" leadInLength="0/1"  />
               <InterpolatingParam id="4160" interp="linr"  time="0/1" value="0" leadInLength="0/1"  />
              </VectorParam>
             </Transformer>
             <Parameters>
              <VectorParam id="4161"  name="sourceCrop">
               <InterpolatingParam id="4162" interp="linr"  time="0/1" value="0" leadInLength="0/1"  />
               <InterpolatingParam id="4163" interp="linr"  time="0/1" value="0" leadInLength="0/1"  />
               <InterpolatingParam id="4164" interp="linr"  time="0/1" value="0" leadInLength="0/1"  />
               <InterpolatingParam id="4165" interp="linr"  time="0/1" value="0" leadInLength="0/1"  />
              </VectorParam>
              <VectorParam id="4166"  name="geometryCrop">
               <InterpolatingParam id="4167" interp="linr"  time="-9999999/1" value="0" leadInLength="0/1"  />
               <InterpolatingParam id="4168" interp="linr"  time="-9999999/1" value="0" leadInLength="0/1"  />
               <InterpolatingParam id="4169" interp="linr"  time="-9999999/1" value="0" leadInLength="0/1"  />
               <InterpolatingParam id="4170" interp="linr"  time="-9999999/1" value="0" leadInLength="0/1"  />
              </VectorParam>
              <InterpolatingParam id="4171" interp="linr"  time="-9999999/1" value="1" leadInLength="0/1"  name="opacity"/>
             </Parameters>
             <Attributes>
              <Attribute id="4172" value="" name="ident"/>
             </Attributes>
             <ExtraData>
              <Entry key="ZoomPanBin">
               <ZoomPanBin id="4173"  >
                <ZoomPanKeyframes>
                 <ZoomPanKeyframe id="4174" timeRangeEnd="-9999999/1" timeRangeDuration="0/1" interpolaterName="linr"  />
                </ZoomPanKeyframes>
               </ZoomPanBin>
              </Entry>
             </ExtraData>
            </VMFile>
            <MetaData>
             <entry key="WinSubProjectDisplayName" val=""/>
            </MetaData>
           </UnifiedMedia>
           <UnifiedMedia id="4175"  >
            <AMFile id="4176" start="380" duration="374" scalar="1/1" mediaStart="517/1" mediaDuration="374/1" trackNumber="1" src="4" channelNumber="0,1" >
             <Parameters>
              <InterpolatingParam id="4177" interp="linr"  time="0/1" value="1" leadInLength="0/1"  name="volume"/>
              <Parameter id="4178"  name="captions"/>
             </Parameters>
             <Attributes>
              <Attribute id="4179" value="" name="ident"/>
              <Attribute id="4180" value="48000" name="sampleRate"/>
              <Attribute id="4181" value="16" name="bitDepth"/>
              <Attribute id="4182" value="1" name="gain"/>
              <Attribute id="4183" value="0" name="mixToMono"/>
             </Attributes>
            </AMFile>
            <VMFile id="4184" start="380" duration="374" scalar="1/1" mediaStart="517/1" mediaDuration="374/1" trackNumber="0" src="4" >
             <Transformer>
              <VectorParam id="4185"  name="translation">
               <InterpolatingParam id="4186" interp="linr"  time="-9999999/1" value="0" leadInLength="0/1"  />
               <InterpolatingParam id="4187" interp="linr"  time="-9999999/1" value="0" leadInLength="0/1"  />
               <InterpolatingParam id="4188" interp="linr"  time="-9999999/1" value="0" leadInLength="0/1"  />
              </VectorParam>
              <VectorParam id="4189"  name="rotation">
               <InterpolatingParam id="4190" interp="linr"  time="-9999999/1" value="0" leadInLength="0/1"  />
               <InterpolatingParam id="4191" interp="linr"  time="-9999999/1" value="0" leadInLength="0/1"  />
               <InterpolatingParam id="4192" interp="linr"  time="-9999999/1" value="0" leadInLength="0/1"  />
              </VectorParam>
              <VectorParam id="4193"  name="shear">
               <InterpolatingParam id="4194" interp="linr"  time="-9999999/1" value="0" leadInLength="0/1"  />
               <InterpolatingParam id="4195" interp="linr"  time="-9999999/1" value="0" leadInLength="0/1"  />
               <InterpolatingParam id="4196" interp="linr"  time="-9999999/1" value="0" leadInLength="0/1"  />
              </VectorParam>
              <VectorParam id="4197"  name="scale">
               <InterpolatingParam id="4198" interp="linr"  time="-9999999/1" value="1" leadInLength="0/1"  />
               <InterpolatingParam id="4199" interp="linr"  time="-9999999/1" value="1" leadInLength="0/1"  />
               <InterpolatingParam id="4200" interp="linr"  time="-9999999/1" value="1" leadInLength="0/1"  />
              </VectorParam>
              <VectorParam id="4201"  name="anchor">
               <InterpolatingParam id="4202" interp="linr"  time="0/1" value="0" leadInLength="0/1"  />
               <InterpolatingParam id="4203" interp="linr"  time="0/1" value="0" leadInLength="0/1"  />
               <InterpolatingParam id="4204" interp="linr"  time="0/1" value="0" leadInLength="0/1"  />
              </VectorParam>
             </Transformer>
             <Parameters>
              <VectorParam id="4205"  name="sourceCrop">
               <InterpolatingParam id="4206" interp="linr"  time="0/1" value="0" leadInLength="0/1"  />
               <InterpolatingParam id="4207" interp="linr"  time="0/1" value="0" leadInLength="0/1"  />
               <InterpolatingParam id="4208" interp="linr"  time="0/1" value="0" leadInLength="0/1"  />
               <InterpolatingParam id="4209" interp="linr"  time="0/1" value="0" leadInLength="0/1"  />
              </VectorParam>
              <VectorParam id="4210"  name="geometryCrop">
               <InterpolatingParam id="4211" interp="linr"  time="-9999999/1" value="0" leadInLength="0/1"  />
               <InterpolatingParam id="4212" interp="linr"  time="-9999999/1" value="0" leadInLength="0/1"  />
               <InterpolatingParam id="4213" interp="linr"  time="-9999999/1" value="0" leadInLength="0/1"  />
               <InterpolatingParam id="4214" interp="linr"  time="-9999999/1" value="0" leadInLength="0/1"  />
              </VectorParam>
              <InterpolatingParam id="4215" interp="linr"  time="-9999999/1" value="1" leadInLength="0/1"  name="opacity"/>
             </Parameters>
             <Attributes>
              <Attribute id="4216" value="" name="ident"/>
             </Attributes>
             <ExtraData>
              <Entry key="ZoomPanBin">
               <ZoomPanBin id="4217"  >
                <ZoomPanKeyframes>
                 <ZoomPanKeyframe id="4218" timeRangeEnd="-9999999/1" timeRangeDuration="0/1" interpolaterName="linr"  />
                </ZoomPanKeyframes>
               </ZoomPanBin>
              </Entry>
             </ExtraData>
            </VMFile>
            <MetaData>
             <entry key="WinSubProjectDisplayName" val=""/>
            </MetaData>
           </UnifiedMedia>
           <UnifiedMedia id="4219"  >
            <AMFile id="4220" start="754" duration="271" scalar="1/1" mediaStart="915/1" mediaDuration="271/1" trackNumber="1" src="4" channelNumber="0,1" >
             <Parameters>
              <InterpolatingParam id="4221" interp="linr"  time="0/1" value="1" leadInLength="0/1"  name="volume"/>
              <Parameter id="4222"  name="captions"/>
             </Parameters>
             <Attributes>
              <Attribute id="4223" value="" name="ident"/>
              <Attribute id="4224" value="48000" name="sampleRate"/>
              <Attribute id="4225" value="16" name="bitDepth"/>
              <Attribute id="4226" value="1" name="gain"/>
              <Attribute id="4227" value="0" name="mixToMono"/>
             </Attributes>
            </AMFile>
            <VMFile id="4228" start="754" duration="271" scalar="1/1" mediaStart="915/1" mediaDuration="271/1" trackNumber="0" src="4" >
             <Transformer>
              <VectorParam id="4229"  name="translation">
               <InterpolatingParam id="4230" interp="linr"  time="-9999999/1" value="0" leadInLength="0/1"  />
               <InterpolatingParam id="4231" interp="linr"  time="-9999999/1" value="0" leadInLength="0/1"  />
               <InterpolatingParam id="4232" interp="linr"  time="-9999999/1" value="0" leadInLength="0/1"  />
              </VectorParam>
              <VectorParam id="4233"  name="rotation">
               <InterpolatingParam id="4234" interp="linr"  time="-9999999/1" value="0" leadInLength="0/1"  />
               <InterpolatingParam id="4235" interp="linr"  time="-9999999/1" value="0" leadInLength="0/1"  />
               <InterpolatingParam id="4236" interp="linr"  time="-9999999/1" value="0" leadInLength="0/1"  />
              </VectorParam>
              <VectorParam id="4237"  name="shear">
               <InterpolatingParam id="4238" interp="linr"  time="-9999999/1" value="0" leadInLength="0/1"  />
               <InterpolatingParam id="4239" interp="linr"  time="-9999999/1" value="0" leadInLength="0/1"  />
               <InterpolatingParam id="4240" interp="linr"  time="-9999999/1" value="0" leadInLength="0/1"  />
              </VectorParam>
              <VectorParam id="4241"  name="scale">
               <InterpolatingParam id="4242" interp="linr"  time="-9999999/1" value="1" leadInLength="0/1"  />
               <InterpolatingParam id="4243" interp="linr"  time="-9999999/1" value="1" leadInLength="0/1"  />
               <InterpolatingParam id="4244" interp="linr"  time="-9999999/1" value="1" leadInLength="0/1"  />
              </VectorParam>
              <VectorParam id="4245"  name="anchor">
               <InterpolatingParam id="4246" interp="linr"  time="0/1" value="0" leadInLength="0/1"  />
               <InterpolatingParam id="4247" interp="linr"  time="0/1" value="0" leadInLength="0/1"  />
               <InterpolatingParam id="4248" interp="linr"  time="0/1" value="0" leadInLength="0/1"  />
              </VectorParam>
             </Transformer>
             <Parameters>
              <VectorParam id="4249"  name="sourceCrop">
               <InterpolatingParam id="4250" interp="linr"  time="0/1" value="0" leadInLength="0/1"  />
               <InterpolatingParam id="4251" interp="linr"  time="0/1" value="0" leadInLength="0/1"  />
               <InterpolatingParam id="4252" interp="linr"  time="0/1" value="0" leadInLength="0/1"  />
               <InterpolatingParam id="4253" interp="linr"  time="0/1" value="0" leadInLength="0/1"  />
              </VectorParam>
              <VectorParam id="4254"  name="geometryCrop">
               <InterpolatingParam id="4255" interp="linr"  time="-9999999/1" value="0" leadInLength="0/1"  />
               <InterpolatingParam id="4256" interp="linr"  time="-9999999/1" value="0" leadInLength="0/1"  />
               <InterpolatingParam id="4257" interp="linr"  time="-9999999/1" value="0" leadInLength="0/1"  />
               <InterpolatingParam id="4258" interp="linr"  time="-9999999/1" value="0" leadInLength="0/1"  />
              </VectorParam>
              <InterpolatingParam id="4259" interp="linr"  time="-9999999/1" value="1" leadInLength="0/1"  name="opacity"/>
             </Parameters>
             <Attributes>
              <Attribute id="4260" value="" name="ident"/>
             </Attributes>
             <ExtraData>
              <Entry key="ZoomPanBin">
               <ZoomPanBin id="4261"  >
                <ZoomPanKeyframes>
                 <ZoomPanKeyframe id="4262" timeRangeEnd="-9999999/1" timeRangeDuration="0/1" interpolaterName="linr"  />
                </ZoomPanKeyframes>
               </ZoomPanBin>
              </Entry>
             </ExtraData>
            </VMFile>
            <MetaData>
             <entry key="WinSubProjectDisplayName" val=""/>
            </MetaData>
           </UnifiedMedia>
           <UnifiedMedia id="4263"  >
            <AMFile id="4264" start="1025" duration="332" scalar="1/1" mediaStart="1205/1" mediaDuration="332/1" trackNumber="1" src="4" channelNumber="0,1" >
             <Parameters>
              <InterpolatingParam id="4265" interp="linr"  time="0/1" value="1" leadInLength="0/1"  name="volume"/>
              <Parameter id="4266"  name="captions"/>
             </Parameters>
             <Attributes>
              <Attribute id="4267" value="" name="ident"/>
              <Attribute id="4268" value="48000" name="sampleRate"/>
              <Attribute id="4269" value="16" name="bitDepth"/>
              <Attribute id="4270" value="1" name="gain"/>
              <Attribute id="4271" value="0" name="mixToMono"/>
             </Attributes>
            </AMFile>
            <VMFile id="4272" start="1025" duration="332" scalar="1/1" mediaStart="1205/1" mediaDuration="332/1" trackNumber="0" src="4" >
             <Transformer>
              <VectorParam id="4273"  name="translation">
               <InterpolatingParam id="4274" interp="linr"  time="-9999999/1" value="0" leadInLength="0/1"  />
               <InterpolatingParam id="4275" interp="linr"  time="-9999999/1" value="0" leadInLength="0/1"  />
               <InterpolatingParam id="4276" interp="linr"  time="-9999999/1" value="0" leadInLength="0/1"  />
              </VectorParam>
              <VectorParam id="4277"  name="rotation">
               <InterpolatingParam id="4278" interp="linr"  time="-9999999/1" value="0" leadInLength="0/1"  />
               <InterpolatingParam id="4279" interp="linr"  time="-9999999/1" value="0" leadInLength="0/1"  />
               <InterpolatingParam id="4280" interp="linr"  time="-9999999/1" value="0" leadInLength="0/1"  />
              </VectorParam>
              <VectorParam id="4281"  name="shear">
               <InterpolatingParam id="4282" interp="linr"  time="-9999999/1" value="0" leadInLength="0/1"  />
               <InterpolatingParam id="4283" interp="linr"  time="-9999999/1" value="0" leadInLength="0/1"  />
               <InterpolatingParam id="4284" interp="linr"  time="-9999999/1" value="0" leadInLength="0/1"  />
              </VectorParam>
              <VectorParam id="4285"  name="scale">
               <InterpolatingParam id="4286" interp="linr"  time="-9999999/1" value="1" leadInLength="0/1"  />
               <InterpolatingParam id="4287" interp="linr"  time="-9999999/1" value="1" leadInLength="0/1"  />
               <InterpolatingParam id="4288" interp="linr"  time="-9999999/1" value="1" leadInLength="0/1"  />
              </VectorParam>
              <VectorParam id="4289"  name="anchor">
               <InterpolatingParam id="4290" interp="linr"  time="0/1" value="0" leadInLength="0/1"  />
               <InterpolatingParam id="4291" interp="linr"  time="0/1" value="0" leadInLength="0/1"  />
               <InterpolatingParam id="4292" interp="linr"  time="0/1" value="0" leadInLength="0/1"  />
              </VectorParam>
             </Transformer>
             <Parameters>
              <VectorParam id="4293"  name="sourceCrop">
               <InterpolatingParam id="4294" interp="linr"  time="0/1" value="0" leadInLength="0/1"  />
               <InterpolatingParam id="4295" interp="linr"  time="0/1" value="0" leadInLength="0/1"  />
               <InterpolatingParam id="4296" interp="linr"  time="0/1" value="0" leadInLength="0/1"  />
               <InterpolatingParam id="4297" interp="linr"  time="0/1" value="0" leadInLength="0/1"  />
              </VectorParam>
              <VectorParam id="4298"  name="geometryCrop">
               <InterpolatingParam id="4299" interp="linr"  time="-9999999/1" value="0" leadInLength="0/1"  />
               <InterpolatingParam id="4300" interp="linr"  time="-9999999/1" value="0" leadInLength="0/1"  />
               <InterpolatingParam id="4301" interp="linr"  time="-9999999/1" value="0" leadInLength="0/1"  />
               <InterpolatingParam id="4302" interp="linr"  time="-9999999/1" value="0" leadInLength="0/1"  />
              </VectorParam>
              <InterpolatingParam id="4303" interp="linr"  time="-9999999/1" value="1" leadInLength="0/1"  name="opacity"/>
             </Parameters>
             <Attributes>
              <Attribute id="4304" value="" name="ident"/>
             </Attributes>
             <ExtraData>
              <Entry key="ZoomPanBin">
               <ZoomPanBin id="4305"  >
                <ZoomPanKeyframes>
                 <ZoomPanKeyframe id="4306" timeRangeEnd="-9999999/1" timeRangeDuration="0/1" interpolaterName="linr"  />
                </ZoomPanKeyframes>
               </ZoomPanBin>
              </Entry>
             </ExtraData>
            </VMFile>
            <MetaData>
             <entry key="WinSubProjectDisplayName" val=""/>
            </MetaData>
           </UnifiedMedia>
           <UnifiedMedia id="4307"  >
            <AMFile id="4308" start="1357" duration="33" scalar="1/1" mediaStart="1675/1" mediaDuration="33/1" trackNumber="1" src="4" channelNumber="0,1" >
             <Parameters>
              <InterpolatingParam id="4309" interp="linr"  time="0/1" value="1" leadInLength="0/1"  name="volume"/>
              <Parameter id="4310"  name="captions"/>
             </Parameters>
             <Attributes>
              <Attribute id="4311" value="" name="ident"/>
              <Attribute id="4312" value="48000" name="sampleRate"/>
              <Attribute id="4313" value="16" name="bitDepth"/>
              <Attribute id="4314" value="1" name="gain"/>
              <Attribute id="4315" value="0" name="mixToMono"/>
             </Attributes>
            </AMFile>
            <VMFile id="4316" start="1357" duration="33" scalar="1/1" mediaStart="1675/1" mediaDuration="33/1" trackNumber="0" src="4" >
             <Transformer>
              <VectorParam id="4317"  name="translation">
               <InterpolatingParam id="4318" interp="linr"  time="-9999999/1" value="0" leadInLength="0/1"  />
               <InterpolatingParam id="4319" interp="linr"  time="-9999999/1" value="0" leadInLength="0/1"  />
               <InterpolatingParam id="4320" interp="linr"  time="-9999999/1" value="0" leadInLength="0/1"  />
              </VectorParam>
              <VectorParam id="4321"  name="rotation">
               <InterpolatingParam id="4322" interp="linr"  time="-9999999/1" value="0" leadInLength="0/1"  />
               <InterpolatingParam id="4323" interp="linr"  time="-9999999/1" value="0" leadInLength="0/1"  />
               <InterpolatingParam id="4324" interp="linr"  time="-9999999/1" value="0" leadInLength="0/1"  />
              </VectorParam>
              <VectorParam id="4325"  name="shear">
               <InterpolatingParam id="4326" interp="linr"  time="-9999999/1" value="0" leadInLength="0/1"  />
               <InterpolatingParam id="4327" interp="linr"  time="-9999999/1" value="0" leadInLength="0/1"  />
               <InterpolatingParam id="4328" interp="linr"  time="-9999999/1" value="0" leadInLength="0/1"  />
              </VectorParam>
              <VectorParam id="4329"  name="scale">
               <InterpolatingParam id="4330" interp="linr"  time="-9999999/1" value="1" leadInLength="0/1"  />
               <InterpolatingParam id="4331" interp="linr"  time="-9999999/1" value="1" leadInLength="0/1"  />
               <InterpolatingParam id="4332" interp="linr"  time="-9999999/1" value="1" leadInLength="0/1"  />
              </VectorParam>
              <VectorParam id="4333"  name="anchor">
               <InterpolatingParam id="4334" interp="linr"  time="0/1" value="0" leadInLength="0/1"  />
               <InterpolatingParam id="4335" interp="linr"  time="0/1" value="0" leadInLength="0/1"  />
               <InterpolatingParam id="4336" interp="linr"  time="0/1" value="0" leadInLength="0/1"  />
              </VectorParam>
             </Transformer>
             <Parameters>
              <VectorParam id="4337"  name="sourceCrop">
               <InterpolatingParam id="4338" interp="linr"  time="0/1" value="0" leadInLength="0/1"  />
               <InterpolatingParam id="4339" interp="linr"  time="0/1" value="0" leadInLength="0/1"  />
               <InterpolatingParam id="4340" interp="linr"  time="0/1" value="0" leadInLength="0/1"  />
               <InterpolatingParam id="4341" interp="linr"  time="0/1" value="0" leadInLength="0/1"  />
              </VectorParam>
              <VectorParam id="4342"  name="geometryCrop">
               <InterpolatingParam id="4343" interp="linr"  time="-9999999/1" value="0" leadInLength="0/1"  />
               <InterpolatingParam id="4344" interp="linr"  time="-9999999/1" value="0" leadInLength="0/1"  />
               <InterpolatingParam id="4345" interp="linr"  time="-9999999/1" value="0" leadInLength="0/1"  />
               <InterpolatingParam id="4346" interp="linr"  time="-9999999/1" value="0" leadInLength="0/1"  />
              </VectorParam>
              <InterpolatingParam id="4347" interp="linr"  time="-9999999/1" value="1" leadInLength="0/1"  name="opacity"/>
             </Parameters>
             <Attributes>
              <Attribute id="4348" value="" name="ident"/>
             </Attributes>
             <ExtraData>
              <Entry key="ZoomPanBin">
               <ZoomPanBin id="4349"  >
                <ZoomPanKeyframes>
                 <ZoomPanKeyframe id="4350" timeRangeEnd="-9999999/1" timeRangeDuration="0/1" interpolaterName="linr"  />
                </ZoomPanKeyframes>
               </ZoomPanBin>
              </Entry>
             </ExtraData>
            </VMFile>
            <MetaData>
             <entry key="WinSubProjectDisplayName" val=""/>
            </MetaData>
           </UnifiedMedia>
           <UnifiedMedia id="4351"  >
            <AMFile id="4352" start="1390" duration="92" scalar="1/1" mediaStart="1722/1" mediaDuration="92/1" trackNumber="1" src="4" channelNumber="0,1" >
             <Parameters>
              <InterpolatingParam id="4353" interp="linr"  time="0/1" value="1" leadInLength="0/1"  name="volume"/>
              <Parameter id="4354"  name="captions"/>
             </Parameters>
             <Attributes>
              <Attribute id="4355" value="" name="ident"/>
              <Attribute id="4356" value="48000" name="sampleRate"/>
              <Attribute id="4357" value="16" name="bitDepth"/>
              <Attribute id="4358" value="1" name="gain"/>
              <Attribute id="4359" value="0" name="mixToMono"/>
             </Attributes>
            </AMFile>
            <VMFile id="4360" start="1390" duration="92" scalar="1/1" mediaStart="1722/1" mediaDuration="92/1" trackNumber="0" src="4" >
             <Transformer>
              <VectorParam id="4361"  name="translation">
               <InterpolatingParam id="4362" interp="linr"  time="-9999999/1" value="0" leadInLength="0/1"  />
               <InterpolatingParam id="4363" interp="linr"  time="-9999999/1" value="0" leadInLength="0/1"  />
               <InterpolatingParam id="4364" interp="linr"  time="-9999999/1" value="0" leadInLength="0/1"  />
              </VectorParam>
              <VectorParam id="4365"  name="rotation">
               <InterpolatingParam id="4366" interp="linr"  time="-9999999/1" value="0" leadInLength="0/1"  />
               <InterpolatingParam id="4367" interp="linr"  time="-9999999/1" value="0" leadInLength="0/1"  />
               <InterpolatingParam id="4368" interp="linr"  time="-9999999/1" value="0" leadInLength="0/1"  />
              </VectorParam>
              <VectorParam id="4369"  name="shear">
               <InterpolatingParam id="4370" interp="linr"  time="-9999999/1" value="0" leadInLength="0/1"  />
               <InterpolatingParam id="4371" interp="linr"  time="-9999999/1" value="0" leadInLength="0/1"  />
               <InterpolatingParam id="4372" interp="linr"  time="-9999999/1" value="0" leadInLength="0/1"  />
              </VectorParam>
              <VectorParam id="4373"  name="scale">
               <InterpolatingParam id="4374" interp="linr"  time="-9999999/1" value="1" leadInLength="0/1"  />
               <InterpolatingParam id="4375" interp="linr"  time="-9999999/1" value="1" leadInLength="0/1"  />
               <InterpolatingParam id="4376" interp="linr"  time="-9999999/1" value="1" leadInLength="0/1"  />
              </VectorParam>
              <VectorParam id="4377"  name="anchor">
               <InterpolatingParam id="4378" interp="linr"  time="0/1" value="0" leadInLength="0/1"  />
               <InterpolatingParam id="4379" interp="linr"  time="0/1" value="0" leadInLength="0/1"  />
               <InterpolatingParam id="4380" interp="linr"  time="0/1" value="0" leadInLength="0/1"  />
              </VectorParam>
             </Transformer>
             <Parameters>
              <VectorParam id="4381"  name="sourceCrop">
               <InterpolatingParam id="4382" interp="linr"  time="0/1" value="0" leadInLength="0/1"  />
               <InterpolatingParam id="4383" interp="linr"  time="0/1" value="0" leadInLength="0/1"  />
               <InterpolatingParam id="4384" interp="linr"  time="0/1" value="0" leadInLength="0/1"  />
               <InterpolatingParam id="4385" interp="linr"  time="0/1" value="0" leadInLength="0/1"  />
              </VectorParam>
              <VectorParam id="4386"  name="geometryCrop">
               <InterpolatingParam id="4387" interp="linr"  time="-9999999/1" value="0" leadInLength="0/1"  />
               <InterpolatingParam id="4388" interp="linr"  time="-9999999/1" value="0" leadInLength="0/1"  />
               <InterpolatingParam id="4389" interp="linr"  time="-9999999/1" value="0" leadInLength="0/1"  />
               <InterpolatingParam id="4390" interp="linr"  time="-9999999/1" value="0" leadInLength="0/1"  />
              </VectorParam>
              <InterpolatingParam id="4391" interp="linr"  time="-9999999/1" value="1" leadInLength="0/1"  name="opacity"/>
             </Parameters>
             <Attributes>
              <Attribute id="4392" value="" name="ident"/>
             </Attributes>
             <ExtraData>
              <Entry key="ZoomPanBin">
               <ZoomPanBin id="4393"  >
                <ZoomPanKeyframes>
                 <ZoomPanKeyframe id="4394" timeRangeEnd="-9999999/1" timeRangeDuration="0/1" interpolaterName="linr"  />
                </ZoomPanKeyframes>
               </ZoomPanBin>
              </Entry>
             </ExtraData>
            </VMFile>
            <MetaData>
             <entry key="WinSubProjectDisplayName" val=""/>
            </MetaData>
           </UnifiedMedia>
           <UnifiedMedia id="4395"  >
            <AMFile id="4396" start="1482" duration="308" scalar="1/1" mediaStart="1875/1" mediaDuration="308/1" trackNumber="1" src="4" channelNumber="0,1" >
             <Parameters>
              <InterpolatingParam id="4397" interp="linr"  time="0/1" value="1" leadInLength="0/1"  name="volume"/>
              <Parameter id="4398"  name="captions"/>
             </Parameters>
             <Attributes>
              <Attribute id="4399" value="" name="ident"/>
              <Attribute id="4400" value="48000" name="sampleRate"/>
              <Attribute id="4401" value="16" name="bitDepth"/>
              <Attribute id="4402" value="1" name="gain"/>
              <Attribute id="4403" value="0" name="mixToMono"/>
             </Attributes>
            </AMFile>
            <VMFile id="4404" start="1482" duration="308" scalar="1/1" mediaStart="1875/1" mediaDuration="308/1" trackNumber="0" src="4" >
             <Transformer>
              <VectorParam id="4405"  name="translation">
               <InterpolatingParam id="4406" interp="linr"  time="-9999999/1" value="0" leadInLength="0/1"  />
               <InterpolatingParam id="4407" interp="linr"  time="-9999999/1" value="0" leadInLength="0/1"  />
               <InterpolatingParam id="4408" interp="linr"  time="-9999999/1" value="0" leadInLength="0/1"  />
              </VectorParam>
              <VectorParam id="4409"  name="rotation">
               <InterpolatingParam id="4410" interp="linr"  time="-9999999/1" value="0" leadInLength="0/1"  />
               <InterpolatingParam id="4411" interp="linr"  time="-9999999/1" value="0" leadInLength="0/1"  />
               <InterpolatingParam id="4412" interp="linr"  time="-9999999/1" value="0" leadInLength="0/1"  />
              </VectorParam>
              <VectorParam id="4413"  name="shear">
               <InterpolatingParam id="4414" interp="linr"  time="-9999999/1" value="0" leadInLength="0/1"  />
               <InterpolatingParam id="4415" interp="linr"  time="-9999999/1" value="0" leadInLength="0/1"  />
               <InterpolatingParam id="4416" interp="linr"  time="-9999999/1" value="0" leadInLength="0/1"  />
              </VectorParam>
              <VectorParam id="4417"  name="scale">
               <InterpolatingParam id="4418" interp="linr"  time="-9999999/1" value="1" leadInLength="0/1"  />
               <InterpolatingParam id="4419" interp="linr"  time="-9999999/1" value="1" leadInLength="0/1"  />
               <InterpolatingParam id="4420" interp="linr"  time="-9999999/1" value="1" leadInLength="0/1"  />
              </VectorParam>
              <VectorParam id="4421"  name="anchor">
               <InterpolatingParam id="4422" interp="linr"  time="0/1" value="0" leadInLength="0/1"  />
               <InterpolatingParam id="4423" interp="linr"  time="0/1" value="0" leadInLength="0/1"  />
               <InterpolatingParam id="4424" interp="linr"  time="0/1" value="0" leadInLength="0/1"  />
              </VectorParam>
             </Transformer>
             <Parameters>
              <VectorParam id="4425"  name="sourceCrop">
               <InterpolatingParam id="4426" interp="linr"  time="0/1" value="0" leadInLength="0/1"  />
               <InterpolatingParam id="4427" interp="linr"  time="0/1" value="0" leadInLength="0/1"  />
               <InterpolatingParam id="4428" interp="linr"  time="0/1" value="0" leadInLength="0/1"  />
               <InterpolatingParam id="4429" interp="linr"  time="0/1" value="0" leadInLength="0/1"  />
              </VectorParam>
              <VectorParam id="4430"  name="geometryCrop">
               <InterpolatingParam id="4431" interp="linr"  time="-9999999/1" value="0" leadInLength="0/1"  />
               <InterpolatingParam id="4432" interp="linr"  time="-9999999/1" value="0" leadInLength="0/1"  />
               <InterpolatingParam id="4433" interp="linr"  time="-9999999/1" value="0" leadInLength="0/1"  />
               <InterpolatingParam id="4434" interp="linr"  time="-9999999/1" value="0" leadInLength="0/1"  />
              </VectorParam>
              <InterpolatingParam id="4435" interp="linr"  time="-9999999/1" value="1" leadInLength="0/1"  name="opacity"/>
             </Parameters>
             <Attributes>
              <Attribute id="4436" value="" name="ident"/>
             </Attributes>
             <ExtraData>
              <Entry key="ZoomPanBin">
               <ZoomPanBin id="4437"  >
                <ZoomPanKeyframes>
                 <ZoomPanKeyframe id="4438" timeRangeEnd="-9999999/1" timeRangeDuration="0/1" interpolaterName="linr"  />
                </ZoomPanKeyframes>
               </ZoomPanBin>
              </Entry>
             </ExtraData>
            </VMFile>
            <MetaData>
             <entry key="WinSubProjectDisplayName" val=""/>
            </MetaData>
           </UnifiedMedia>
           <UnifiedMedia id="4439"  >
            <AMFile id="4440" start="1790" duration="49" scalar="1/1" mediaStart="2183/1" mediaDuration="49/1" trackNumber="1" src="4" channelNumber="0,1" >
             <Parameters>
              <InterpolatingParam id="4441" interp="linr"  time="0/1" value="1" leadInLength="0/1"  name="volume"/>
              <Parameter id="4442"  name="captions"/>
             </Parameters>
             <Attributes>
              <Attribute id="4443" value="" name="ident"/>
              <Attribute id="4444" value="48000" name="sampleRate"/>
              <Attribute id="4445" value="16" name="bitDepth"/>
              <Attribute id="4446" value="1" name="gain"/>
              <Attribute id="4447" value="0" name="mixToMono"/>
             </Attributes>
            </AMFile>
            <VMFile id="4448" start="1790" duration="49" scalar="1/1" mediaStart="2183/1" mediaDuration="49/1" trackNumber="0" src="4" >
             <Transformer>
              <VectorParam id="4449"  name="translation">
               <InterpolatingParam id="4450" interp="linr"  time="-9999999/1" value="0" leadInLength="0/1"  />
               <InterpolatingParam id="4451" interp="linr"  time="-9999999/1" value="0" leadInLength="0/1"  />
               <InterpolatingParam id="4452" interp="linr"  time="-9999999/1" value="0" leadInLength="0/1"  />
              </VectorParam>
              <VectorParam id="4453"  name="rotation">
               <InterpolatingParam id="4454" interp="linr"  time="-9999999/1" value="0" leadInLength="0/1"  />
               <InterpolatingParam id="4455" interp="linr"  time="-9999999/1" value="0" leadInLength="0/1"  />
               <InterpolatingParam id="4456" interp="linr"  time="-9999999/1" value="0" leadInLength="0/1"  />
              </VectorParam>
              <VectorParam id="4457"  name="shear">
               <InterpolatingParam id="4458" interp="linr"  time="-9999999/1" value="0" leadInLength="0/1"  />
               <InterpolatingParam id="4459" interp="linr"  time="-9999999/1" value="0" leadInLength="0/1"  />
               <InterpolatingParam id="4460" interp="linr"  time="-9999999/1" value="0" leadInLength="0/1"  />
              </VectorParam>
              <VectorParam id="4461"  name="scale">
               <InterpolatingParam id="4462" interp="linr"  time="-9999999/1" value="1" leadInLength="0/1"  />
               <InterpolatingParam id="4463" interp="linr"  time="-9999999/1" value="1" leadInLength="0/1"  />
               <InterpolatingParam id="4464" interp="linr"  time="-9999999/1" value="1" leadInLength="0/1"  />
              </VectorParam>
              <VectorParam id="4465"  name="anchor">
               <InterpolatingParam id="4466" interp="linr"  time="0/1" value="0" leadInLength="0/1"  />
               <InterpolatingParam id="4467" interp="linr"  time="0/1" value="0" leadInLength="0/1"  />
               <InterpolatingParam id="4468" interp="linr"  time="0/1" value="0" leadInLength="0/1"  />
              </VectorParam>
             </Transformer>
             <Parameters>
              <VectorParam id="4469"  name="sourceCrop">
               <InterpolatingParam id="4470" interp="linr"  time="0/1" value="0" leadInLength="0/1"  />
               <InterpolatingParam id="4471" interp="linr"  time="0/1" value="0" leadInLength="0/1"  />
               <InterpolatingParam id="4472" interp="linr"  time="0/1" value="0" leadInLength="0/1"  />
               <InterpolatingParam id="4473" interp="linr"  time="0/1" value="0" leadInLength="0/1"  />
              </VectorParam>
              <VectorParam id="4474"  name="geometryCrop">
               <InterpolatingParam id="4475" interp="linr"  time="-9999999/1" value="0" leadInLength="0/1"  />
               <InterpolatingParam id="4476" interp="linr"  time="-9999999/1" value="0" leadInLength="0/1"  />
               <InterpolatingParam id="4477" interp="linr"  time="-9999999/1" value="0" leadInLength="0/1"  />
               <InterpolatingParam id="4478" interp="linr"  time="-9999999/1" value="0" leadInLength="0/1"  />
              </VectorParam>
              <InterpolatingParam id="4479" interp="linr"  time="-9999999/1" value="1" leadInLength="0/1"  name="opacity"/>
             </Parameters>
             <Attributes>
              <Attribute id="4480" value="" name="ident"/>
             </Attributes>
             <ExtraData>
              <Entry key="ZoomPanBin">
               <ZoomPanBin id="4481"  >
                <ZoomPanKeyframes>
                 <ZoomPanKeyframe id="4482" timeRangeEnd="-9999999/1" timeRangeDuration="0/1" interpolaterName="linr"  />
                </ZoomPanKeyframes>
               </ZoomPanBin>
              </Entry>
             </ExtraData>
            </VMFile>
            <MetaData>
             <entry key="WinSubProjectDisplayName" val=""/>
            </MetaData>
           </UnifiedMedia>
           <UnifiedMedia id="4483"  >
            <AMFile id="4484" start="1839" duration="574" scalar="1/1" mediaStart="2241/1" mediaDuration="574/1" trackNumber="1" src="4" channelNumber="0,1" >
             <Parameters>
              <InterpolatingParam id="4485" interp="linr"  time="0/1" value="1" leadInLength="0/1"  name="volume"/>
              <Parameter id="4486"  name="captions"/>
             </Parameters>
             <Attributes>
              <Attribute id="4487" value="" name="ident"/>
              <Attribute id="4488" value="48000" name="sampleRate"/>
              <Attribute id="4489" value="16" name="bitDepth"/>
              <Attribute id="4490" value="1" name="gain"/>
              <Attribute id="4491" value="0" name="mixToMono"/>
             </Attributes>
            </AMFile>
            <VMFile id="4492" start="1839" duration="574" scalar="1/1" mediaStart="2241/1" mediaDuration="574/1" trackNumber="0" src="4" >
             <Transformer>
              <VectorParam id="4493"  name="translation">
               <InterpolatingParam id="4494" interp="linr"  time="-9999999/1" value="0" leadInLength="0/1"  />
               <InterpolatingParam id="4495" interp="linr"  time="-9999999/1" value="0" leadInLength="0/1"  />
               <InterpolatingParam id="4496" interp="linr"  time="-9999999/1" value="0" leadInLength="0/1"  />
              </VectorParam>
              <VectorParam id="4497"  name="rotation">
               <InterpolatingParam id="4498" interp="linr"  time="-9999999/1" value="0" leadInLength="0/1"  />
               <InterpolatingParam id="4499" interp="linr"  time="-9999999/1" value="0" leadInLength="0/1"  />
               <InterpolatingParam id="4500" interp="linr"  time="-9999999/1" value="0" leadInLength="0/1"  />
              </VectorParam>
              <VectorParam id="4501"  name="shear">
               <InterpolatingParam id="4502" interp="linr"  time="-9999999/1" value="0" leadInLength="0/1"  />
               <InterpolatingParam id="4503" interp="linr"  time="-9999999/1" value="0" leadInLength="0/1"  />
               <InterpolatingParam id="4504" interp="linr"  time="-9999999/1" value="0" leadInLength="0/1"  />
              </VectorParam>
              <VectorParam id="4505"  name="scale">
               <InterpolatingParam id="4506" interp="linr"  time="-9999999/1" value="1" leadInLength="0/1"  />
               <InterpolatingParam id="4507" interp="linr"  time="-9999999/1" value="1" leadInLength="0/1"  />
               <InterpolatingParam id="4508" interp="linr"  time="-9999999/1" value="1" leadInLength="0/1"  />
              </VectorParam>
              <VectorParam id="4509"  name="anchor">
               <InterpolatingParam id="4510" interp="linr"  time="0/1" value="0" leadInLength="0/1"  />
               <InterpolatingParam id="4511" interp="linr"  time="0/1" value="0" leadInLength="0/1"  />
               <InterpolatingParam id="4512" interp="linr"  time="0/1" value="0" leadInLength="0/1"  />
              </VectorParam>
             </Transformer>
             <Parameters>
              <VectorParam id="4513"  name="sourceCrop">
               <InterpolatingParam id="4514" interp="linr"  time="0/1" value="0" leadInLength="0/1"  />
               <InterpolatingParam id="4515" interp="linr"  time="0/1" value="0" leadInLength="0/1"  />
               <InterpolatingParam id="4516" interp="linr"  time="0/1" value="0" leadInLength="0/1"  />
               <InterpolatingParam id="4517" interp="linr"  time="0/1" value="0" leadInLength="0/1"  />
              </VectorParam>
              <VectorParam id="4518"  name="geometryCrop">
               <InterpolatingParam id="4519" interp="linr"  time="-9999999/1" value="0" leadInLength="0/1"  />
               <InterpolatingParam id="4520" interp="linr"  time="-9999999/1" value="0" leadInLength="0/1"  />
               <InterpolatingParam id="4521" interp="linr"  time="-9999999/1" value="0" leadInLength="0/1"  />
               <InterpolatingParam id="4522" interp="linr"  time="-9999999/1" value="0" leadInLength="0/1"  />
              </VectorParam>
              <InterpolatingParam id="4523" interp="linr"  time="-9999999/1" value="1" leadInLength="0/1"  name="opacity"/>
             </Parameters>
             <Attributes>
              <Attribute id="4524" value="" name="ident"/>
             </Attributes>
             <ExtraData>
              <Entry key="ZoomPanBin">
               <ZoomPanBin id="4525"  >
                <ZoomPanKeyframes>
                 <ZoomPanKeyframe id="4526" timeRangeEnd="-9999999/1" timeRangeDuration="0/1" interpolaterName="linr"  />
                </ZoomPanKeyframes>
               </ZoomPanBin>
              </Entry>
             </ExtraData>
            </VMFile>
            <MetaData>
             <entry key="WinSubProjectDisplayName" val=""/>
            </MetaData>
           </UnifiedMedia>
           <UnifiedMedia id="4527"  >
            <AMFile id="4528" start="2413" duration="82" scalar="1/1" mediaStart="2845/1" mediaDuration="82/1" trackNumber="1" src="4" channelNumber="0,1" >
             <Parameters>
              <InterpolatingParam id="4529" interp="linr"  time="0/1" value="1" leadInLength="0/1"  name="volume"/>
              <Parameter id="4530"  name="captions"/>
             </Parameters>
             <Attributes>
              <Attribute id="4531" value="" name="ident"/>
              <Attribute id="4532" value="48000" name="sampleRate"/>
              <Attribute id="4533" value="16" name="bitDepth"/>
              <Attribute id="4534" value="1" name="gain"/>
              <Attribute id="4535" value="0" name="mixToMono"/>
             </Attributes>
            </AMFile>
            <VMFile id="4536" start="2413" duration="82" scalar="1/1" mediaStart="2845/1" mediaDuration="82/1" trackNumber="0" src="4" >
             <Transformer>
              <VectorParam id="4537"  name="translation">
               <InterpolatingParam id="4538" interp="linr"  time="-9999999/1" value="0" leadInLength="0/1"  />
               <InterpolatingParam id="4539" interp="linr"  time="-9999999/1" value="0" leadInLength="0/1"  />
               <InterpolatingParam id="4540" interp="linr"  time="-9999999/1" value="0" leadInLength="0/1"  />
              </VectorParam>
              <VectorParam id="4541"  name="rotation">
               <InterpolatingParam id="4542" interp="linr"  time="-9999999/1" value="0" leadInLength="0/1"  />
               <InterpolatingParam id="4543" interp="linr"  time="-9999999/1" value="0" leadInLength="0/1"  />
               <InterpolatingParam id="4544" interp="linr"  time="-9999999/1" value="0" leadInLength="0/1"  />
              </VectorParam>
              <VectorParam id="4545"  name="shear">
               <InterpolatingParam id="4546" interp="linr"  time="-9999999/1" value="0" leadInLength="0/1"  />
               <InterpolatingParam id="4547" interp="linr"  time="-9999999/1" value="0" leadInLength="0/1"  />
               <InterpolatingParam id="4548" interp="linr"  time="-9999999/1" value="0" leadInLength="0/1"  />
              </VectorParam>
              <VectorParam id="4549"  name="scale">
               <InterpolatingParam id="4550" interp="linr"  time="-9999999/1" value="1" leadInLength="0/1"  />
               <InterpolatingParam id="4551" interp="linr"  time="-9999999/1" value="1" leadInLength="0/1"  />
               <InterpolatingParam id="4552" interp="linr"  time="-9999999/1" value="1" leadInLength="0/1"  />
              </VectorParam>
              <VectorParam id="4553"  name="anchor">
               <InterpolatingParam id="4554" interp="linr"  time="0/1" value="0" leadInLength="0/1"  />
               <InterpolatingParam id="4555" interp="linr"  time="0/1" value="0" leadInLength="0/1"  />
               <InterpolatingParam id="4556" interp="linr"  time="0/1" value="0" leadInLength="0/1"  />
              </VectorParam>
             </Transformer>
             <Parameters>
              <VectorParam id="4557"  name="sourceCrop">
               <InterpolatingParam id="4558" interp="linr"  time="0/1" value="0" leadInLength="0/1"  />
               <InterpolatingParam id="4559" interp="linr"  time="0/1" value="0" leadInLength="0/1"  />
               <InterpolatingParam id="4560" interp="linr"  time="0/1" value="0" leadInLength="0/1"  />
               <InterpolatingParam id="4561" interp="linr"  time="0/1" value="0" leadInLength="0/1"  />
              </VectorParam>
              <VectorParam id="4562"  name="geometryCrop">
               <InterpolatingParam id="4563" interp="linr"  time="-9999999/1" value="0" leadInLength="0/1"  />
               <InterpolatingParam id="4564" interp="linr"  time="-9999999/1" value="0" leadInLength="0/1"  />
               <InterpolatingParam id="4565" interp="linr"  time="-9999999/1" value="0" leadInLength="0/1"  />
               <InterpolatingParam id="4566" interp="linr"  time="-9999999/1" value="0" leadInLength="0/1"  />
              </VectorParam>
              <InterpolatingParam id="4567" interp="linr"  time="-9999999/1" value="1" leadInLength="0/1"  name="opacity"/>
             </Parameters>
             <Attributes>
              <Attribute id="4568" value="" name="ident"/>
             </Attributes>
             <ExtraData>
              <Entry key="ZoomPanBin">
               <ZoomPanBin id="4569"  >
                <ZoomPanKeyframes>
                 <ZoomPanKeyframe id="4570" timeRangeEnd="-9999999/1" timeRangeDuration="0/1" interpolaterName="linr"  />
                </ZoomPanKeyframes>
               </ZoomPanBin>
              </Entry>
             </ExtraData>
            </VMFile>
            <MetaData>
             <entry key="WinSubProjectDisplayName" val=""/>
            </MetaData>
           </UnifiedMedia>
           <UnifiedMedia id="4571"  >
            <AMFile id="4572" start="2495" duration="33" scalar="1/1" mediaStart="2983/1" mediaDuration="33/1" trackNumber="1" src="4" channelNumber="0,1" >
             <Parameters>
              <InterpolatingParam id="4573" interp="linr"  time="0/1" value="1" leadInLength="0/1"  name="volume"/>
              <Parameter id="4574"  name="captions"/>
             </Parameters>
             <Attributes>
              <Attribute id="4575" value="" name="ident"/>
              <Attribute id="4576" value="48000" name="sampleRate"/>
              <Attribute id="4577" value="16" name="bitDepth"/>
              <Attribute id="4578" value="1" name="gain"/>
              <Attribute id="4579" value="0" name="mixToMono"/>
             </Attributes>
            </AMFile>
            <VMFile id="4580" start="2495" duration="33" scalar="1/1" mediaStart="2983/1" mediaDuration="33/1" trackNumber="0" src="4" >
             <Transformer>
              <VectorParam id="4581"  name="translation">
               <InterpolatingParam id="4582" interp="linr"  time="-9999999/1" value="0" leadInLength="0/1"  />
               <InterpolatingParam id="4583" interp="linr"  time="-9999999/1" value="0" leadInLength="0/1"  />
               <InterpolatingParam id="4584" interp="linr"  time="-9999999/1" value="0" leadInLength="0/1"  />
              </VectorParam>
              <VectorParam id="4585"  name="rotation">
               <InterpolatingParam id="4586" interp="linr"  time="-9999999/1" value="0" leadInLength="0/1"  />
               <InterpolatingParam id="4587" interp="linr"  time="-9999999/1" value="0" leadInLength="0/1"  />
               <InterpolatingParam id="4588" interp="linr"  time="-9999999/1" value="0" leadInLength="0/1"  />
              </VectorParam>
              <VectorParam id="4589"  name="shear">
               <InterpolatingParam id="4590" interp="linr"  time="-9999999/1" value="0" leadInLength="0/1"  />
               <InterpolatingParam id="4591" interp="linr"  time="-9999999/1" value="0" leadInLength="0/1"  />
               <InterpolatingParam id="4592" interp="linr"  time="-9999999/1" value="0" leadInLength="0/1"  />
              </VectorParam>
              <VectorParam id="4593"  name="scale">
               <InterpolatingParam id="4594" interp="linr"  time="-9999999/1" value="1" leadInLength="0/1"  />
               <InterpolatingParam id="4595" interp="linr"  time="-9999999/1" value="1" leadInLength="0/1"  />
               <InterpolatingParam id="4596" interp="linr"  time="-9999999/1" value="1" leadInLength="0/1"  />
              </VectorParam>
              <VectorParam id="4597"  name="anchor">
               <InterpolatingParam id="4598" interp="linr"  time="0/1" value="0" leadInLength="0/1"  />
               <InterpolatingParam id="4599" interp="linr"  time="0/1" value="0" leadInLength="0/1"  />
               <InterpolatingParam id="4600" interp="linr"  time="0/1" value="0" leadInLength="0/1"  />
              </VectorParam>
             </Transformer>
             <Parameters>
              <VectorParam id="4601"  name="sourceCrop">
               <InterpolatingParam id="4602" interp="linr"  time="0/1" value="0" leadInLength="0/1"  />
               <InterpolatingParam id="4603" interp="linr"  time="0/1" value="0" leadInLength="0/1"  />
               <InterpolatingParam id="4604" interp="linr"  time="0/1" value="0" leadInLength="0/1"  />
               <InterpolatingParam id="4605" interp="linr"  time="0/1" value="0" leadInLength="0/1"  />
              </VectorParam>
              <VectorParam id="4606"  name="geometryCrop">
               <InterpolatingParam id="4607" interp="linr"  time="-9999999/1" value="0" leadInLength="0/1"  />
               <InterpolatingParam id="4608" interp="linr"  time="-9999999/1" value="0" leadInLength="0/1"  />
               <InterpolatingParam id="4609" interp="linr"  time="-9999999/1" value="0" leadInLength="0/1"  />
               <InterpolatingParam id="4610" interp="linr"  time="-9999999/1" value="0" leadInLength="0/1"  />
              </VectorParam>
              <InterpolatingParam id="4611" interp="linr"  time="-9999999/1" value="1" leadInLength="0/1"  name="opacity"/>
             </Parameters>
             <Attributes>
              <Attribute id="4612" value="" name="ident"/>
             </Attributes>
             <ExtraData>
              <Entry key="ZoomPanBin">
               <ZoomPanBin id="4613"  >
                <ZoomPanKeyframes>
                 <ZoomPanKeyframe id="4614" timeRangeEnd="-9999999/1" timeRangeDuration="0/1" interpolaterName="linr"  />
                </ZoomPanKeyframes>
               </ZoomPanBin>
              </Entry>
             </ExtraData>
            </VMFile>
            <MetaData>
             <entry key="WinSubProjectDisplayName" val=""/>
            </MetaData>
           </UnifiedMedia>
           <UnifiedMedia id="4615"  >
            <AMFile id="4616" start="2528" duration="33" scalar="1/1" mediaStart="3158/1" mediaDuration="33/1" trackNumber="1" src="4" channelNumber="0,1" >
             <Parameters>
              <InterpolatingParam id="4617" interp="linr"  time="0/1" value="1" leadInLength="0/1"  name="volume"/>
              <Parameter id="4618"  name="captions"/>
             </Parameters>
             <Attributes>
              <Attribute id="4619" value="" name="ident"/>
              <Attribute id="4620" value="48000" name="sampleRate"/>
              <Attribute id="4621" value="16" name="bitDepth"/>
              <Attribute id="4622" value="1" name="gain"/>
              <Attribute id="4623" value="0" name="mixToMono"/>
             </Attributes>
            </AMFile>
            <VMFile id="4624" start="2528" duration="33" scalar="1/1" mediaStart="3158/1" mediaDuration="33/1" trackNumber="0" src="4" >
             <Transformer>
              <VectorParam id="4625"  name="translation">
               <InterpolatingParam id="4626" interp="linr"  time="-9999999/1" value="0" leadInLength="0/1"  />
               <InterpolatingParam id="4627" interp="linr"  time="-9999999/1" value="0" leadInLength="0/1"  />
               <InterpolatingParam id="4628" interp="linr"  time="-9999999/1" value="0" leadInLength="0/1"  />
              </VectorParam>
              <VectorParam id="4629"  name="rotation">
               <InterpolatingParam id="4630" interp="linr"  time="-9999999/1" value="0" leadInLength="0/1"  />
               <InterpolatingParam id="4631" interp="linr"  time="-9999999/1" value="0" leadInLength="0/1"  />
               <InterpolatingParam id="4632" interp="linr"  time="-9999999/1" value="0" leadInLength="0/1"  />
              </VectorParam>
              <VectorParam id="4633"  name="shear">
               <InterpolatingParam id="4634" interp="linr"  time="-9999999/1" value="0" leadInLength="0/1"  />
               <InterpolatingParam id="4635" interp="linr"  time="-9999999/1" value="0" leadInLength="0/1"  />
               <InterpolatingParam id="4636" interp="linr"  time="-9999999/1" value="0" leadInLength="0/1"  />
              </VectorParam>
              <VectorParam id="4637"  name="scale">
               <InterpolatingParam id="4638" interp="linr"  time="-9999999/1" value="1" leadInLength="0/1"  />
               <InterpolatingParam id="4639" interp="linr"  time="-9999999/1" value="1" leadInLength="0/1"  />
               <InterpolatingParam id="4640" interp="linr"  time="-9999999/1" value="1" leadInLength="0/1"  />
              </VectorParam>
              <VectorParam id="4641"  name="anchor">
               <InterpolatingParam id="4642" interp="linr"  time="0/1" value="0" leadInLength="0/1"  />
               <InterpolatingParam id="4643" interp="linr"  time="0/1" value="0" leadInLength="0/1"  />
               <InterpolatingParam id="4644" interp="linr"  time="0/1" value="0" leadInLength="0/1"  />
              </VectorParam>
             </Transformer>
             <Parameters>
              <VectorParam id="4645"  name="sourceCrop">
               <InterpolatingParam id="4646" interp="linr"  time="0/1" value="0" leadInLength="0/1"  />
               <InterpolatingParam id="4647" interp="linr"  time="0/1" value="0" leadInLength="0/1"  />
               <InterpolatingParam id="4648" interp="linr"  time="0/1" value="0" leadInLength="0/1"  />
               <InterpolatingParam id="4649" interp="linr"  time="0/1" value="0" leadInLength="0/1"  />
              </VectorParam>
              <VectorParam id="4650"  name="geometryCrop">
               <InterpolatingParam id="4651" interp="linr"  time="-9999999/1" value="0" leadInLength="0/1"  />
               <InterpolatingParam id="4652" interp="linr"  time="-9999999/1" value="0" leadInLength="0/1"  />
               <InterpolatingParam id="4653" interp="linr"  time="-9999999/1" value="0" leadInLength="0/1"  />
               <InterpolatingParam id="4654" interp="linr"  time="-9999999/1" value="0" leadInLength="0/1"  />
              </VectorParam>
              <InterpolatingParam id="4655" interp="linr"  time="-9999999/1" value="1" leadInLength="0/1"  name="opacity"/>
             </Parameters>
             <Attributes>
              <Attribute id="4656" value="" name="ident"/>
             </Attributes>
             <ExtraData>
              <Entry key="ZoomPanBin">
               <ZoomPanBin id="4657"  >
                <ZoomPanKeyframes>
                 <ZoomPanKeyframe id="4658" timeRangeEnd="-9999999/1" timeRangeDuration="0/1" interpolaterName="linr"  />
                </ZoomPanKeyframes>
               </ZoomPanBin>
              </Entry>
             </ExtraData>
            </VMFile>
            <MetaData>
             <entry key="WinSubProjectDisplayName" val=""/>
            </MetaData>
           </UnifiedMedia>
           <UnifiedMedia id="4659"  >
            <AMFile id="4660" start="2561" duration="46" scalar="1/1" mediaStart="3257/1" mediaDuration="46/1" trackNumber="1" src="4" channelNumber="0,1" >
             <Parameters>
              <InterpolatingParam id="4661" interp="linr"  time="0/1" value="1" leadInLength="0/1"  name="volume"/>
              <Parameter id="4662"  name="captions"/>
             </Parameters>
             <Attributes>
              <Attribute id="4663" value="" name="ident"/>
              <Attribute id="4664" value="48000" name="sampleRate"/>
              <Attribute id="4665" value="16" name="bitDepth"/>
              <Attribute id="4666" value="1" name="gain"/>
              <Attribute id="4667" value="0" name="mixToMono"/>
             </Attributes>
            </AMFile>
            <VMFile id="4668" start="2561" duration="46" scalar="1/1" mediaStart="3257/1" mediaDuration="46/1" trackNumber="0" src="4" >
             <Transformer>
              <VectorParam id="4669"  name="translation">
               <InterpolatingParam id="4670" interp="linr"  time="-9999999/1" value="0" leadInLength="0/1"  />
               <InterpolatingParam id="4671" interp="linr"  time="-9999999/1" value="0" leadInLength="0/1"  />
               <InterpolatingParam id="4672" interp="linr"  time="-9999999/1" value="0" leadInLength="0/1"  />
              </VectorParam>
              <VectorParam id="4673"  name="rotation">
               <InterpolatingParam id="4674" interp="linr"  time="-9999999/1" value="0" leadInLength="0/1"  />
               <InterpolatingParam id="4675" interp="linr"  time="-9999999/1" value="0" leadInLength="0/1"  />
               <InterpolatingParam id="4676" interp="linr"  time="-9999999/1" value="0" leadInLength="0/1"  />
              </VectorParam>
              <VectorParam id="4677"  name="shear">
               <InterpolatingParam id="4678" interp="linr"  time="-9999999/1" value="0" leadInLength="0/1"  />
               <InterpolatingParam id="4679" interp="linr"  time="-9999999/1" value="0" leadInLength="0/1"  />
               <InterpolatingParam id="4680" interp="linr"  time="-9999999/1" value="0" leadInLength="0/1"  />
              </VectorParam>
              <VectorParam id="4681"  name="scale">
               <InterpolatingParam id="4682" interp="linr"  time="-9999999/1" value="1" leadInLength="0/1"  />
               <InterpolatingParam id="4683" interp="linr"  time="-9999999/1" value="1" leadInLength="0/1"  />
               <InterpolatingParam id="4684" interp="linr"  time="-9999999/1" value="1" leadInLength="0/1"  />
              </VectorParam>
              <VectorParam id="4685"  name="anchor">
               <InterpolatingParam id="4686" interp="linr"  time="0/1" value="0" leadInLength="0/1"  />
               <InterpolatingParam id="4687" interp="linr"  time="0/1" value="0" leadInLength="0/1"  />
               <InterpolatingParam id="4688" interp="linr"  time="0/1" value="0" leadInLength="0/1"  />
              </VectorParam>
             </Transformer>
             <Parameters>
              <VectorParam id="4689"  name="sourceCrop">
               <InterpolatingParam id="4690" interp="linr"  time="0/1" value="0" leadInLength="0/1"  />
               <InterpolatingParam id="4691" interp="linr"  time="0/1" value="0" leadInLength="0/1"  />
               <InterpolatingParam id="4692" interp="linr"  time="0/1" value="0" leadInLength="0/1"  />
               <InterpolatingParam id="4693" interp="linr"  time="0/1" value="0" leadInLength="0/1"  />
              </VectorParam>
              <VectorParam id="4694"  name="geometryCrop">
               <InterpolatingParam id="4695" interp="linr"  time="-9999999/1" value="0" leadInLength="0/1"  />
               <InterpolatingParam id="4696" interp="linr"  time="-9999999/1" value="0" leadInLength="0/1"  />
               <InterpolatingParam id="4697" interp="linr"  time="-9999999/1" value="0" leadInLength="0/1"  />
               <InterpolatingParam id="4698" interp="linr"  time="-9999999/1" value="0" leadInLength="0/1"  />
              </VectorParam>
              <InterpolatingParam id="4699" interp="linr"  time="-9999999/1" value="1" leadInLength="0/1"  name="opacity"/>
             </Parameters>
             <Attributes>
              <Attribute id="4700" value="" name="ident"/>
             </Attributes>
             <ExtraData>
              <Entry key="ZoomPanBin">
               <ZoomPanBin id="4701"  >
                <ZoomPanKeyframes>
                 <ZoomPanKeyframe id="4702" timeRangeEnd="-9999999/1" timeRangeDuration="0/1" interpolaterName="linr"  />
                </ZoomPanKeyframes>
               </ZoomPanBin>
              </Entry>
             </ExtraData>
            </VMFile>
            <MetaData>
             <entry key="WinSubProjectDisplayName" val=""/>
            </MetaData>
           </UnifiedMedia>
           <UnifiedMedia id="4703"  >
            <AMFile id="4704" start="2607" duration="22" scalar="1/1" mediaStart="3312/1" mediaDuration="22/1" trackNumber="1" src="4" channelNumber="0,1" >
             <Parameters>
              <InterpolatingParam id="4705" interp="linr"  time="0/1" value="1" leadInLength="0/1"  name="volume"/>
              <Parameter id="4706"  name="captions"/>
             </Parameters>
             <Attributes>
              <Attribute id="4707" value="" name="ident"/>
              <Attribute id="4708" value="48000" name="sampleRate"/>
              <Attribute id="4709" value="16" name="bitDepth"/>
              <Attribute id="4710" value="1" name="gain"/>
              <Attribute id="4711" value="0" name="mixToMono"/>
             </Attributes>
            </AMFile>
            <VMFile id="4712" start="2607" duration="22" scalar="1/1" mediaStart="3312/1" mediaDuration="22/1" trackNumber="0" src="4" >
             <Transformer>
              <VectorParam id="4713"  name="translation">
               <InterpolatingParam id="4714" interp="linr"  time="-9999999/1" value="0" leadInLength="0/1"  />
               <InterpolatingParam id="4715" interp="linr"  time="-9999999/1" value="0" leadInLength="0/1"  />
               <InterpolatingParam id="4716" interp="linr"  time="-9999999/1" value="0" leadInLength="0/1"  />
              </VectorParam>
              <VectorParam id="4717"  name="rotation">
               <InterpolatingParam id="4718" interp="linr"  time="-9999999/1" value="0" leadInLength="0/1"  />
               <InterpolatingParam id="4719" interp="linr"  time="-9999999/1" value="0" leadInLength="0/1"  />
               <InterpolatingParam id="4720" interp="linr"  time="-9999999/1" value="0" leadInLength="0/1"  />
              </VectorParam>
              <VectorParam id="4721"  name="shear">
               <InterpolatingParam id="4722" interp="linr"  time="-9999999/1" value="0" leadInLength="0/1"  />
               <InterpolatingParam id="4723" interp="linr"  time="-9999999/1" value="0" leadInLength="0/1"  />
               <InterpolatingParam id="4724" interp="linr"  time="-9999999/1" value="0" leadInLength="0/1"  />
              </VectorParam>
              <VectorParam id="4725"  name="scale">
               <InterpolatingParam id="4726" interp="linr"  time="-9999999/1" value="1" leadInLength="0/1"  />
               <InterpolatingParam id="4727" interp="linr"  time="-9999999/1" value="1" leadInLength="0/1"  />
               <InterpolatingParam id="4728" interp="linr"  time="-9999999/1" value="1" leadInLength="0/1"  />
              </VectorParam>
              <VectorParam id="4729"  name="anchor">
               <InterpolatingParam id="4730" interp="linr"  time="0/1" value="0" leadInLength="0/1"  />
               <InterpolatingParam id="4731" interp="linr"  time="0/1" value="0" leadInLength="0/1"  />
               <InterpolatingParam id="4732" interp="linr"  time="0/1" value="0" leadInLength="0/1"  />
              </VectorParam>
             </Transformer>
             <Parameters>
              <VectorParam id="4733"  name="sourceCrop">
               <InterpolatingParam id="4734" interp="linr"  time="0/1" value="0" leadInLength="0/1"  />
               <InterpolatingParam id="4735" interp="linr"  time="0/1" value="0" leadInLength="0/1"  />
               <InterpolatingParam id="4736" interp="linr"  time="0/1" value="0" leadInLength="0/1"  />
               <InterpolatingParam id="4737" interp="linr"  time="0/1" value="0" leadInLength="0/1"  />
              </VectorParam>
              <VectorParam id="4738"  name="geometryCrop">
               <InterpolatingParam id="4739" interp="linr"  time="-9999999/1" value="0" leadInLength="0/1"  />
               <InterpolatingParam id="4740" interp="linr"  time="-9999999/1" value="0" leadInLength="0/1"  />
               <InterpolatingParam id="4741" interp="linr"  time="-9999999/1" value="0" leadInLength="0/1"  />
               <InterpolatingParam id="4742" interp="linr"  time="-9999999/1" value="0" leadInLength="0/1"  />
              </VectorParam>
              <InterpolatingParam id="4743" interp="linr"  time="-9999999/1" value="1" leadInLength="0/1"  name="opacity"/>
             </Parameters>
             <Attributes>
              <Attribute id="4744" value="" name="ident"/>
             </Attributes>
             <ExtraData>
              <Entry key="ZoomPanBin">
               <ZoomPanBin id="4745"  >
                <ZoomPanKeyframes>
                 <ZoomPanKeyframe id="4746" timeRangeEnd="-9999999/1" timeRangeDuration="0/1" interpolaterName="linr"  />
                </ZoomPanKeyframes>
               </ZoomPanBin>
              </Entry>
             </ExtraData>
            </VMFile>
            <MetaData>
             <entry key="WinSubProjectDisplayName" val=""/>
            </MetaData>
           </UnifiedMedia>
           <UnifiedMedia id="4747"  >
            <AMFile id="4748" start="2629" duration="502" scalar="1/1" mediaStart="3366/1" mediaDuration="502/1" trackNumber="1" src="4" channelNumber="0,1" >
             <Parameters>
              <InterpolatingParam id="4749" interp="linr"  time="0/1" value="1" leadInLength="0/1"  name="volume"/>
              <Parameter id="4750"  name="captions"/>
             </Parameters>
             <Attributes>
              <Attribute id="4751" value="" name="ident"/>
              <Attribute id="4752" value="48000" name="sampleRate"/>
              <Attribute id="4753" value="16" name="bitDepth"/>
              <Attribute id="4754" value="1" name="gain"/>
              <Attribute id="4755" value="0" name="mixToMono"/>
             </Attributes>
            </AMFile>
            <VMFile id="4756" start="2629" duration="502" scalar="1/1" mediaStart="3366/1" mediaDuration="502/1" trackNumber="0" src="4" >
             <Transformer>
              <VectorParam id="4757"  name="translation">
               <InterpolatingParam id="4758" interp="linr"  time="-9999999/1" value="0" leadInLength="0/1"  />
               <InterpolatingParam id="4759" interp="linr"  time="-9999999/1" value="0" leadInLength="0/1"  />
               <InterpolatingParam id="4760" interp="linr"  time="-9999999/1" value="0" leadInLength="0/1"  />
              </VectorParam>
              <VectorParam id="4761"  name="rotation">
               <InterpolatingParam id="4762" interp="linr"  time="-9999999/1" value="0" leadInLength="0/1"  />
               <InterpolatingParam id="4763" interp="linr"  time="-9999999/1" value="0" leadInLength="0/1"  />
               <InterpolatingParam id="4764" interp="linr"  time="-9999999/1" value="0" leadInLength="0/1"  />
              </VectorParam>
              <VectorParam id="4765"  name="shear">
               <InterpolatingParam id="4766" interp="linr"  time="-9999999/1" value="0" leadInLength="0/1"  />
               <InterpolatingParam id="4767" interp="linr"  time="-9999999/1" value="0" leadInLength="0/1"  />
               <InterpolatingParam id="4768" interp="linr"  time="-9999999/1" value="0" leadInLength="0/1"  />
              </VectorParam>
              <VectorParam id="4769"  name="scale">
               <InterpolatingParam id="4770" interp="linr"  time="-9999999/1" value="1" leadInLength="0/1"  />
               <InterpolatingParam id="4771" interp="linr"  time="-9999999/1" value="1" leadInLength="0/1"  />
               <InterpolatingParam id="4772" interp="linr"  time="-9999999/1" value="1" leadInLength="0/1"  />
              </VectorParam>
              <VectorParam id="4773"  name="anchor">
               <InterpolatingParam id="4774" interp="linr"  time="0/1" value="0" leadInLength="0/1"  />
               <InterpolatingParam id="4775" interp="linr"  time="0/1" value="0" leadInLength="0/1"  />
               <InterpolatingParam id="4776" interp="linr"  time="0/1" value="0" leadInLength="0/1"  />
              </VectorParam>
             </Transformer>
             <Parameters>
              <VectorParam id="4777"  name="sourceCrop">
               <InterpolatingParam id="4778" interp="linr"  time="0/1" value="0" leadInLength="0/1"  />
               <InterpolatingParam id="4779" interp="linr"  time="0/1" value="0" leadInLength="0/1"  />
               <InterpolatingParam id="4780" interp="linr"  time="0/1" value="0" leadInLength="0/1"  />
               <InterpolatingParam id="4781" interp="linr"  time="0/1" value="0" leadInLength="0/1"  />
              </VectorParam>
              <VectorParam id="4782"  name="geometryCrop">
               <InterpolatingParam id="4783" interp="linr"  time="-9999999/1" value="0" leadInLength="0/1"  />
               <InterpolatingParam id="4784" interp="linr"  time="-9999999/1" value="0" leadInLength="0/1"  />
               <InterpolatingParam id="4785" interp="linr"  time="-9999999/1" value="0" leadInLength="0/1"  />
               <InterpolatingParam id="4786" interp="linr"  time="-9999999/1" value="0" leadInLength="0/1"  />
              </VectorParam>
              <InterpolatingParam id="4787" interp="linr"  time="-9999999/1" value="1" leadInLength="0/1"  name="opacity"/>
             </Parameters>
             <Attributes>
              <Attribute id="4788" value="" name="ident"/>
             </Attributes>
             <ExtraData>
              <Entry key="ZoomPanBin">
               <ZoomPanBin id="4789"  >
                <ZoomPanKeyframes>
                 <ZoomPanKeyframe id="4790" timeRangeEnd="-9999999/1" timeRangeDuration="0/1" interpolaterName="linr"  />
                </ZoomPanKeyframes>
               </ZoomPanBin>
              </Entry>
             </ExtraData>
            </VMFile>
            <MetaData>
             <entry key="WinSubProjectDisplayName" val=""/>
            </MetaData>
           </UnifiedMedia>
           <UnifiedMedia id="4791"  >
            <AMFile id="4792" start="3131" duration="35" scalar="1/1" mediaStart="3903/1" mediaDuration="35/1" trackNumber="1" src="4" channelNumber="0,1" >
             <Parameters>
              <InterpolatingParam id="4793" interp="linr"  time="0/1" value="1" leadInLength="0/1"  name="volume"/>
              <Parameter id="4794"  name="captions"/>
             </Parameters>
             <Attributes>
              <Attribute id="4795" value="" name="ident"/>
              <Attribute id="4796" value="48000" name="sampleRate"/>
              <Attribute id="4797" value="16" name="bitDepth"/>
              <Attribute id="4798" value="1" name="gain"/>
              <Attribute id="4799" value="0" name="mixToMono"/>
             </Attributes>
            </AMFile>
            <VMFile id="4800" start="3131" duration="35" scalar="1/1" mediaStart="3903/1" mediaDuration="35/1" trackNumber="0" src="4" >
             <Transformer>
              <VectorParam id="4801"  name="translation">
               <InterpolatingParam id="4802" interp="linr"  time="-9999999/1" value="0" leadInLength="0/1"  />
               <InterpolatingParam id="4803" interp="linr"  time="-9999999/1" value="0" leadInLength="0/1"  />
               <InterpolatingParam id="4804" interp="linr"  time="-9999999/1" value="0" leadInLength="0/1"  />
              </VectorParam>
              <VectorParam id="4805"  name="rotation">
               <InterpolatingParam id="4806" interp="linr"  time="-9999999/1" value="0" leadInLength="0/1"  />
               <InterpolatingParam id="4807" interp="linr"  time="-9999999/1" value="0" leadInLength="0/1"  />
               <InterpolatingParam id="4808" interp="linr"  time="-9999999/1" value="0" leadInLength="0/1"  />
              </VectorParam>
              <VectorParam id="4809"  name="shear">
               <InterpolatingParam id="4810" interp="linr"  time="-9999999/1" value="0" leadInLength="0/1"  />
               <InterpolatingParam id="4811" interp="linr"  time="-9999999/1" value="0" leadInLength="0/1"  />
               <InterpolatingParam id="4812" interp="linr"  time="-9999999/1" value="0" leadInLength="0/1"  />
              </VectorParam>
              <VectorParam id="4813"  name="scale">
               <InterpolatingParam id="4814" interp="linr"  time="-9999999/1" value="1" leadInLength="0/1"  />
               <InterpolatingParam id="4815" interp="linr"  time="-9999999/1" value="1" leadInLength="0/1"  />
               <InterpolatingParam id="4816" interp="linr"  time="-9999999/1" value="1" leadInLength="0/1"  />
              </VectorParam>
              <VectorParam id="4817"  name="anchor">
               <InterpolatingParam id="4818" interp="linr"  time="0/1" value="0" leadInLength="0/1"  />
               <InterpolatingParam id="4819" interp="linr"  time="0/1" value="0" leadInLength="0/1"  />
               <InterpolatingParam id="4820" interp="linr"  time="0/1" value="0" leadInLength="0/1"  />
              </VectorParam>
             </Transformer>
             <Parameters>
              <VectorParam id="4821"  name="sourceCrop">
               <InterpolatingParam id="4822" interp="linr"  time="0/1" value="0" leadInLength="0/1"  />
               <InterpolatingParam id="4823" interp="linr"  time="0/1" value="0" leadInLength="0/1"  />
               <InterpolatingParam id="4824" interp="linr"  time="0/1" value="0" leadInLength="0/1"  />
               <InterpolatingParam id="4825" interp="linr"  time="0/1" value="0" leadInLength="0/1"  />
              </VectorParam>
              <VectorParam id="4826"  name="geometryCrop">
               <InterpolatingParam id="4827" interp="linr"  time="-9999999/1" value="0" leadInLength="0/1"  />
               <InterpolatingParam id="4828" interp="linr"  time="-9999999/1" value="0" leadInLength="0/1"  />
               <InterpolatingParam id="4829" interp="linr"  time="-9999999/1" value="0" leadInLength="0/1"  />
               <InterpolatingParam id="4830" interp="linr"  time="-9999999/1" value="0" leadInLength="0/1"  />
              </VectorParam>
              <InterpolatingParam id="4831" interp="linr"  time="-9999999/1" value="1" leadInLength="0/1"  name="opacity"/>
             </Parameters>
             <Attributes>
              <Attribute id="4832" value="" name="ident"/>
             </Attributes>
             <ExtraData>
              <Entry key="ZoomPanBin">
               <ZoomPanBin id="4833"  >
                <ZoomPanKeyframes>
                 <ZoomPanKeyframe id="4834" timeRangeEnd="-9999999/1" timeRangeDuration="0/1" interpolaterName="linr"  />
                </ZoomPanKeyframes>
               </ZoomPanBin>
              </Entry>
             </ExtraData>
            </VMFile>
            <MetaData>
             <entry key="WinSubProjectDisplayName" val=""/>
            </MetaData>
           </UnifiedMedia>
           <UnifiedMedia id="4835"  >
            <AMFile id="4836" start="3166" duration="30" scalar="1/1" mediaStart="4007/1" mediaDuration="30/1" trackNumber="1" src="4" channelNumber="0,1" >
             <Parameters>
              <InterpolatingParam id="4837" interp="linr"  time="0/1" value="1" leadInLength="0/1"  name="volume"/>
              <Parameter id="4838"  name="captions"/>
             </Parameters>
             <Attributes>
              <Attribute id="4839" value="" name="ident"/>
              <Attribute id="4840" value="48000" name="sampleRate"/>
              <Attribute id="4841" value="16" name="bitDepth"/>
              <Attribute id="4842" value="1" name="gain"/>
              <Attribute id="4843" value="0" name="mixToMono"/>
             </Attributes>
            </AMFile>
            <VMFile id="4844" start="3166" duration="30" scalar="1/1" mediaStart="4007/1" mediaDuration="30/1" trackNumber="0" src="4" >
             <Transformer>
              <VectorParam id="4845"  name="translation">
               <InterpolatingParam id="4846" interp="linr"  time="-9999999/1" value="0" leadInLength="0/1"  />
               <InterpolatingParam id="4847" interp="linr"  time="-9999999/1" value="0" leadInLength="0/1"  />
               <InterpolatingParam id="4848" interp="linr"  time="-9999999/1" value="0" leadInLength="0/1"  />
              </VectorParam>
              <VectorParam id="4849"  name="rotation">
               <InterpolatingParam id="4850" interp="linr"  time="-9999999/1" value="0" leadInLength="0/1"  />
               <InterpolatingParam id="4851" interp="linr"  time="-9999999/1" value="0" leadInLength="0/1"  />
               <InterpolatingParam id="4852" interp="linr"  time="-9999999/1" value="0" leadInLength="0/1"  />
              </VectorParam>
              <VectorParam id="4853"  name="shear">
               <InterpolatingParam id="4854" interp="linr"  time="-9999999/1" value="0" leadInLength="0/1"  />
               <InterpolatingParam id="4855" interp="linr"  time="-9999999/1" value="0" leadInLength="0/1"  />
               <InterpolatingParam id="4856" interp="linr"  time="-9999999/1" value="0" leadInLength="0/1"  />
              </VectorParam>
              <VectorParam id="4857"  name="scale">
               <InterpolatingParam id="4858" interp="linr"  time="-9999999/1" value="1" leadInLength="0/1"  />
               <InterpolatingParam id="4859" interp="linr"  time="-9999999/1" value="1" leadInLength="0/1"  />
               <InterpolatingParam id="4860" interp="linr"  time="-9999999/1" value="1" leadInLength="0/1"  />
              </VectorParam>
              <VectorParam id="4861"  name="anchor">
               <InterpolatingParam id="4862" interp="linr"  time="0/1" value="0" leadInLength="0/1"  />
               <InterpolatingParam id="4863" interp="linr"  time="0/1" value="0" leadInLength="0/1"  />
               <InterpolatingParam id="4864" interp="linr"  time="0/1" value="0" leadInLength="0/1"  />
              </VectorParam>
             </Transformer>
             <Parameters>
              <VectorParam id="4865"  name="sourceCrop">
               <InterpolatingParam id="4866" interp="linr"  time="0/1" value="0" leadInLength="0/1"  />
               <InterpolatingParam id="4867" interp="linr"  time="0/1" value="0" leadInLength="0/1"  />
               <InterpolatingParam id="4868" interp="linr"  time="0/1" value="0" leadInLength="0/1"  />
               <InterpolatingParam id="4869" interp="linr"  time="0/1" value="0" leadInLength="0/1"  />
              </VectorParam>
              <VectorParam id="4870"  name="geometryCrop">
               <InterpolatingParam id="4871" interp="linr"  time="-9999999/1" value="0" leadInLength="0/1"  />
               <InterpolatingParam id="4872" interp="linr"  time="-9999999/1" value="0" leadInLength="0/1"  />
               <InterpolatingParam id="4873" interp="linr"  time="-9999999/1" value="0" leadInLength="0/1"  />
               <InterpolatingParam id="4874" interp="linr"  time="-9999999/1" value="0" leadInLength="0/1"  />
              </VectorParam>
              <InterpolatingParam id="4875" interp="linr"  time="-9999999/1" value="1" leadInLength="0/1"  name="opacity"/>
             </Parameters>
             <Attributes>
              <Attribute id="4876" value="" name="ident"/>
             </Attributes>
             <ExtraData>
              <Entry key="ZoomPanBin">
               <ZoomPanBin id="4877"  >
                <ZoomPanKeyframes>
                 <ZoomPanKeyframe id="4878" timeRangeEnd="-9999999/1" timeRangeDuration="0/1" interpolaterName="linr"  />
                </ZoomPanKeyframes>
               </ZoomPanBin>
              </Entry>
             </ExtraData>
            </VMFile>
            <MetaData>
             <entry key="WinSubProjectDisplayName" val=""/>
            </MetaData>
           </UnifiedMedia>
           <UnifiedMedia id="4879"  >
            <AMFile id="4880" start="3196" duration="287" scalar="1/1" mediaStart="4054/1" mediaDuration="287/1" trackNumber="1" src="4" channelNumber="0,1" >
             <Parameters>
              <InterpolatingParam id="4881" interp="linr"  time="0/1" value="1" leadInLength="0/1"  name="volume"/>
              <Parameter id="4882"  name="captions"/>
             </Parameters>
             <Attributes>
              <Attribute id="4883" value="" name="ident"/>
              <Attribute id="4884" value="48000" name="sampleRate"/>
              <Attribute id="4885" value="16" name="bitDepth"/>
              <Attribute id="4886" value="1" name="gain"/>
              <Attribute id="4887" value="0" name="mixToMono"/>
             </Attributes>
            </AMFile>
            <VMFile id="4888" start="3196" duration="287" scalar="1/1" mediaStart="4054/1" mediaDuration="287/1" trackNumber="0" src="4" >
             <Transformer>
              <VectorParam id="4889"  name="translation">
               <InterpolatingParam id="4890" interp="linr"  time="-9999999/1" value="0" leadInLength="0/1"  />
               <InterpolatingParam id="4891" interp="linr"  time="-9999999/1" value="0" leadInLength="0/1"  />
               <InterpolatingParam id="4892" interp="linr"  time="-9999999/1" value="0" leadInLength="0/1"  />
              </VectorParam>
              <VectorParam id="4893"  name="rotation">
               <InterpolatingParam id="4894" interp="linr"  time="-9999999/1" value="0" leadInLength="0/1"  />
               <InterpolatingParam id="4895" interp="linr"  time="-9999999/1" value="0" leadInLength="0/1"  />
               <InterpolatingParam id="4896" interp="linr"  time="-9999999/1" value="0" leadInLength="0/1"  />
              </VectorParam>
              <VectorParam id="4897"  name="shear">
               <InterpolatingParam id="4898" interp="linr"  time="-9999999/1" value="0" leadInLength="0/1"  />
               <InterpolatingParam id="4899" interp="linr"  time="-9999999/1" value="0" leadInLength="0/1"  />
               <InterpolatingParam id="4900" interp="linr"  time="-9999999/1" value="0" leadInLength="0/1"  />
              </VectorParam>
              <VectorParam id="4901"  name="scale">
               <InterpolatingParam id="4902" interp="linr"  time="-9999999/1" value="1" leadInLength="0/1"  />
               <InterpolatingParam id="4903" interp="linr"  time="-9999999/1" value="1" leadInLength="0/1"  />
               <InterpolatingParam id="4904" interp="linr"  time="-9999999/1" value="1" leadInLength="0/1"  />
              </VectorParam>
              <VectorParam id="4905"  name="anchor">
               <InterpolatingParam id="4906" interp="linr"  time="0/1" value="0" leadInLength="0/1"  />
               <InterpolatingParam id="4907" interp="linr"  time="0/1" value="0" leadInLength="0/1"  />
               <InterpolatingParam id="4908" interp="linr"  time="0/1" value="0" leadInLength="0/1"  />
              </VectorParam>
             </Transformer>
             <Parameters>
              <VectorParam id="4909"  name="sourceCrop">
               <InterpolatingParam id="4910" interp="linr"  time="0/1" value="0" leadInLength="0/1"  />
               <InterpolatingParam id="4911" interp="linr"  time="0/1" value="0" leadInLength="0/1"  />
               <InterpolatingParam id="4912" interp="linr"  time="0/1" value="0" leadInLength="0/1"  />
               <InterpolatingParam id="4913" interp="linr"  time="0/1" value="0" leadInLength="0/1"  />
              </VectorParam>
              <VectorParam id="4914"  name="geometryCrop">
               <InterpolatingParam id="4915" interp="linr"  time="-9999999/1" value="0" leadInLength="0/1"  />
               <InterpolatingParam id="4916" interp="linr"  time="-9999999/1" value="0" leadInLength="0/1"  />
               <InterpolatingParam id="4917" interp="linr"  time="-9999999/1" value="0" leadInLength="0/1"  />
               <InterpolatingParam id="4918" interp="linr"  time="-9999999/1" value="0" leadInLength="0/1"  />
              </VectorParam>
              <InterpolatingParam id="4919" interp="linr"  time="-9999999/1" value="1" leadInLength="0/1"  name="opacity"/>
             </Parameters>
             <Attributes>
              <Attribute id="4920" value="" name="ident"/>
             </Attributes>
             <ExtraData>
              <Entry key="ZoomPanBin">
               <ZoomPanBin id="4921"  >
                <ZoomPanKeyframes>
                 <ZoomPanKeyframe id="4922" timeRangeEnd="-9999999/1" timeRangeDuration="0/1" interpolaterName="linr"  />
                </ZoomPanKeyframes>
               </ZoomPanBin>
              </Entry>
             </ExtraData>
            </VMFile>
            <MetaData>
             <entry key="WinSubProjectDisplayName" val=""/>
            </MetaData>
           </UnifiedMedia>
           <UnifiedMedia id="4923"  >
            <AMFile id="4924" start="3483" duration="253" scalar="1/1" mediaStart="4362/1" mediaDuration="253/1" trackNumber="1" src="4" channelNumber="0,1" >
             <Parameters>
              <InterpolatingParam id="4925" interp="linr"  time="0/1" value="1" leadInLength="0/1"  name="volume"/>
              <Parameter id="4926"  name="captions"/>
             </Parameters>
             <Attributes>
              <Attribute id="4927" value="" name="ident"/>
              <Attribute id="4928" value="48000" name="sampleRate"/>
              <Attribute id="4929" value="16" name="bitDepth"/>
              <Attribute id="4930" value="1" name="gain"/>
              <Attribute id="4931" value="0" name="mixToMono"/>
             </Attributes>
            </AMFile>
            <VMFile id="4932" start="3483" duration="253" scalar="1/1" mediaStart="4362/1" mediaDuration="253/1" trackNumber="0" src="4" >
             <Transformer>
              <VectorParam id="4933"  name="translation">
               <InterpolatingParam id="4934" interp="linr"  time="-9999999/1" value="0" leadInLength="0/1"  />
               <InterpolatingParam id="4935" interp="linr"  time="-9999999/1" value="0" leadInLength="0/1"  />
               <InterpolatingParam id="4936" interp="linr"  time="-9999999/1" value="0" leadInLength="0/1"  />
              </VectorParam>
              <VectorParam id="4937"  name="rotation">
               <InterpolatingParam id="4938" interp="linr"  time="-9999999/1" value="0" leadInLength="0/1"  />
               <InterpolatingParam id="4939" interp="linr"  time="-9999999/1" value="0" leadInLength="0/1"  />
               <InterpolatingParam id="4940" interp="linr"  time="-9999999/1" value="0" leadInLength="0/1"  />
              </VectorParam>
              <VectorParam id="4941"  name="shear">
               <InterpolatingParam id="4942" interp="linr"  time="-9999999/1" value="0" leadInLength="0/1"  />
               <InterpolatingParam id="4943" interp="linr"  time="-9999999/1" value="0" leadInLength="0/1"  />
               <InterpolatingParam id="4944" interp="linr"  time="-9999999/1" value="0" leadInLength="0/1"  />
              </VectorParam>
              <VectorParam id="4945"  name="scale">
               <InterpolatingParam id="4946" interp="linr"  time="-9999999/1" value="1" leadInLength="0/1"  />
               <InterpolatingParam id="4947" interp="linr"  time="-9999999/1" value="1" leadInLength="0/1"  />
               <InterpolatingParam id="4948" interp="linr"  time="-9999999/1" value="1" leadInLength="0/1"  />
              </VectorParam>
              <VectorParam id="4949"  name="anchor">
               <InterpolatingParam id="4950" interp="linr"  time="0/1" value="0" leadInLength="0/1"  />
               <InterpolatingParam id="4951" interp="linr"  time="0/1" value="0" leadInLength="0/1"  />
               <InterpolatingParam id="4952" interp="linr"  time="0/1" value="0" leadInLength="0/1"  />
              </VectorParam>
             </Transformer>
             <Parameters>
              <VectorParam id="4953"  name="sourceCrop">
               <InterpolatingParam id="4954" interp="linr"  time="0/1" value="0" leadInLength="0/1"  />
               <InterpolatingParam id="4955" interp="linr"  time="0/1" value="0" leadInLength="0/1"  />
               <InterpolatingParam id="4956" interp="linr"  time="0/1" value="0" leadInLength="0/1"  />
               <InterpolatingParam id="4957" interp="linr"  time="0/1" value="0" leadInLength="0/1"  />
              </VectorParam>
              <VectorParam id="4958"  name="geometryCrop">
               <InterpolatingParam id="4959" interp="linr"  time="-9999999/1" value="0" leadInLength="0/1"  />
               <InterpolatingParam id="4960" interp="linr"  time="-9999999/1" value="0" leadInLength="0/1"  />
               <InterpolatingParam id="4961" interp="linr"  time="-9999999/1" value="0" leadInLength="0/1"  />
               <InterpolatingParam id="4962" interp="linr"  time="-9999999/1" value="0" leadInLength="0/1"  />
              </VectorParam>
              <InterpolatingParam id="4963" interp="linr"  time="-9999999/1" value="1" leadInLength="0/1"  name="opacity"/>
             </Parameters>
             <Attributes>
              <Attribute id="4964" value="" name="ident"/>
             </Attributes>
             <ExtraData>
              <Entry key="ZoomPanBin">
               <ZoomPanBin id="4965"  >
                <ZoomPanKeyframes>
                 <ZoomPanKeyframe id="4966" timeRangeEnd="-9999999/1" timeRangeDuration="0/1" interpolaterName="linr"  />
                </ZoomPanKeyframes>
               </ZoomPanBin>
              </Entry>
             </ExtraData>
            </VMFile>
            <MetaData>
             <entry key="WinSubProjectDisplayName" val=""/>
            </MetaData>
           </UnifiedMedia>
           <UnifiedMedia id="4967"  >
            <AMFile id="4968" start="3736" duration="237" scalar="1/1" mediaStart="4667/1" mediaDuration="237/1" trackNumber="1" src="4" channelNumber="0,1" >
             <Parameters>
              <InterpolatingParam id="4969" interp="linr"  time="0/1" value="1" leadInLength="0/1"  name="volume"/>
              <Parameter id="4970"  name="captions"/>
             </Parameters>
             <Attributes>
              <Attribute id="4971" value="" name="ident"/>
              <Attribute id="4972" value="48000" name="sampleRate"/>
              <Attribute id="4973" value="16" name="bitDepth"/>
              <Attribute id="4974" value="1" name="gain"/>
              <Attribute id="4975" value="0" name="mixToMono"/>
             </Attributes>
            </AMFile>
            <VMFile id="4976" start="3736" duration="237" scalar="1/1" mediaStart="4667/1" mediaDuration="237/1" trackNumber="0" src="4" >
             <Transformer>
              <VectorParam id="4977"  name="translation">
               <InterpolatingParam id="4978" interp="linr"  time="-9999999/1" value="0" leadInLength="0/1"  />
               <InterpolatingParam id="4979" interp="linr"  time="-9999999/1" value="0" leadInLength="0/1"  />
               <InterpolatingParam id="4980" interp="linr"  time="-9999999/1" value="0" leadInLength="0/1"  />
              </VectorParam>
              <VectorParam id="4981"  name="rotation">
               <InterpolatingParam id="4982" interp="linr"  time="-9999999/1" value="0" leadInLength="0/1"  />
               <InterpolatingParam id="4983" interp="linr"  time="-9999999/1" value="0" leadInLength="0/1"  />
               <InterpolatingParam id="4984" interp="linr"  time="-9999999/1" value="0" leadInLength="0/1"  />
              </VectorParam>
              <VectorParam id="4985"  name="shear">
               <InterpolatingParam id="4986" interp="linr"  time="-9999999/1" value="0" leadInLength="0/1"  />
               <InterpolatingParam id="4987" interp="linr"  time="-9999999/1" value="0" leadInLength="0/1"  />
               <InterpolatingParam id="4988" interp="linr"  time="-9999999/1" value="0" leadInLength="0/1"  />
              </VectorParam>
              <VectorParam id="4989"  name="scale">
               <InterpolatingParam id="4990" interp="linr"  time="-9999999/1" value="1" leadInLength="0/1"  />
               <InterpolatingParam id="4991" interp="linr"  time="-9999999/1" value="1" leadInLength="0/1"  />
               <InterpolatingParam id="4992" interp="linr"  time="-9999999/1" value="1" leadInLength="0/1"  />
              </VectorParam>
              <VectorParam id="4993"  name="anchor">
               <InterpolatingParam id="4994" interp="linr"  time="0/1" value="0" leadInLength="0/1"  />
               <InterpolatingParam id="4995" interp="linr"  time="0/1" value="0" leadInLength="0/1"  />
               <InterpolatingParam id="4996" interp="linr"  time="0/1" value="0" leadInLength="0/1"  />
              </VectorParam>
             </Transformer>
             <Parameters>
              <VectorParam id="4997"  name="sourceCrop">
               <InterpolatingParam id="4998" interp="linr"  time="0/1" value="0" leadInLength="0/1"  />
               <InterpolatingParam id="4999" interp="linr"  time="0/1" value="0" leadInLength="0/1"  />
               <InterpolatingParam id="5000" interp="linr"  time="0/1" value="0" leadInLength="0/1"  />
               <InterpolatingParam id="5001" interp="linr"  time="0/1" value="0" leadInLength="0/1"  />
              </VectorParam>
              <VectorParam id="5002"  name="geometryCrop">
               <InterpolatingParam id="5003" interp="linr"  time="-9999999/1" value="0" leadInLength="0/1"  />
               <InterpolatingParam id="5004" interp="linr"  time="-9999999/1" value="0" leadInLength="0/1"  />
               <InterpolatingParam id="5005" interp="linr"  time="-9999999/1" value="0" leadInLength="0/1"  />
               <InterpolatingParam id="5006" interp="linr"  time="-9999999/1" value="0" leadInLength="0/1"  />
              </VectorParam>
              <InterpolatingParam id="5007" interp="linr"  time="-9999999/1" value="1" leadInLength="0/1"  name="opacity"/>
             </Parameters>
             <Attributes>
              <Attribute id="5008" value="" name="ident"/>
             </Attributes>
             <ExtraData>
              <Entry key="ZoomPanBin">
               <ZoomPanBin id="5009"  >
                <ZoomPanKeyframes>
                 <ZoomPanKeyframe id="5010" timeRangeEnd="-9999999/1" timeRangeDuration="0/1" interpolaterName="linr"  />
                </ZoomPanKeyframes>
               </ZoomPanBin>
              </Entry>
             </ExtraData>
            </VMFile>
            <MetaData>
             <entry key="WinSubProjectDisplayName" val=""/>
            </MetaData>
           </UnifiedMedia>
           <UnifiedMedia id="5011"  >
            <AMFile id="5012" start="3973" duration="161" scalar="1/1" mediaStart="4918/1" mediaDuration="161/1" trackNumber="1" src="4" channelNumber="0,1" >
             <Parameters>
              <InterpolatingParam id="5013" interp="linr"  time="0/1" value="1" leadInLength="0/1"  name="volume"/>
              <Parameter id="5014"  name="captions"/>
             </Parameters>
             <Attributes>
              <Attribute id="5015" value="" name="ident"/>
              <Attribute id="5016" value="48000" name="sampleRate"/>
              <Attribute id="5017" value="16" name="bitDepth"/>
              <Attribute id="5018" value="1" name="gain"/>
              <Attribute id="5019" value="0" name="mixToMono"/>
             </Attributes>
            </AMFile>
            <VMFile id="5020" start="3973" duration="161" scalar="1/1" mediaStart="4918/1" mediaDuration="161/1" trackNumber="0" src="4" >
             <Transformer>
              <VectorParam id="5021"  name="translation">
               <InterpolatingParam id="5022" interp="linr"  time="-9999999/1" value="0" leadInLength="0/1"  />
               <InterpolatingParam id="5023" interp="linr"  time="-9999999/1" value="0" leadInLength="0/1"  />
               <InterpolatingParam id="5024" interp="linr"  time="-9999999/1" value="0" leadInLength="0/1"  />
              </VectorParam>
              <VectorParam id="5025"  name="rotation">
               <InterpolatingParam id="5026" interp="linr"  time="-9999999/1" value="0" leadInLength="0/1"  />
               <InterpolatingParam id="5027" interp="linr"  time="-9999999/1" value="0" leadInLength="0/1"  />
               <InterpolatingParam id="5028" interp="linr"  time="-9999999/1" value="0" leadInLength="0/1"  />
              </VectorParam>
              <VectorParam id="5029"  name="shear">
               <InterpolatingParam id="5030" interp="linr"  time="-9999999/1" value="0" leadInLength="0/1"  />
               <InterpolatingParam id="5031" interp="linr"  time="-9999999/1" value="0" leadInLength="0/1"  />
               <InterpolatingParam id="5032" interp="linr"  time="-9999999/1" value="0" leadInLength="0/1"  />
              </VectorParam>
              <VectorParam id="5033"  name="scale">
               <InterpolatingParam id="5034" interp="linr"  time="-9999999/1" value="1" leadInLength="0/1"  />
               <InterpolatingParam id="5035" interp="linr"  time="-9999999/1" value="1" leadInLength="0/1"  />
               <InterpolatingParam id="5036" interp="linr"  time="-9999999/1" value="1" leadInLength="0/1"  />
              </VectorParam>
              <VectorParam id="5037"  name="anchor">
               <InterpolatingParam id="5038" interp="linr"  time="0/1" value="0" leadInLength="0/1"  />
               <InterpolatingParam id="5039" interp="linr"  time="0/1" value="0" leadInLength="0/1"  />
               <InterpolatingParam id="5040" interp="linr"  time="0/1" value="0" leadInLength="0/1"  />
              </VectorParam>
             </Transformer>
             <Parameters>
              <VectorParam id="5041"  name="sourceCrop">
               <InterpolatingParam id="5042" interp="linr"  time="0/1" value="0" leadInLength="0/1"  />
               <InterpolatingParam id="5043" interp="linr"  time="0/1" value="0" leadInLength="0/1"  />
               <InterpolatingParam id="5044" interp="linr"  time="0/1" value="0" leadInLength="0/1"  />
               <InterpolatingParam id="5045" interp="linr"  time="0/1" value="0" leadInLength="0/1"  />
              </VectorParam>
              <VectorParam id="5046"  name="geometryCrop">
               <InterpolatingParam id="5047" interp="linr"  time="-9999999/1" value="0" leadInLength="0/1"  />
               <InterpolatingParam id="5048" interp="linr"  time="-9999999/1" value="0" leadInLength="0/1"  />
               <InterpolatingParam id="5049" interp="linr"  time="-9999999/1" value="0" leadInLength="0/1"  />
               <InterpolatingParam id="5050" interp="linr"  time="-9999999/1" value="0" leadInLength="0/1"  />
              </VectorParam>
              <InterpolatingParam id="5051" interp="linr"  time="-9999999/1" value="1" leadInLength="0/1"  name="opacity"/>
             </Parameters>
             <Attributes>
              <Attribute id="5052" value="" name="ident"/>
             </Attributes>
             <ExtraData>
              <Entry key="ZoomPanBin">
               <ZoomPanBin id="5053"  >
                <ZoomPanKeyframes>
                 <ZoomPanKeyframe id="5054" timeRangeEnd="-9999999/1" timeRangeDuration="0/1" interpolaterName="linr"  />
                </ZoomPanKeyframes>
               </ZoomPanBin>
              </Entry>
             </ExtraData>
            </VMFile>
            <MetaData>
             <entry key="WinSubProjectDisplayName" val=""/>
            </MetaData>
           </UnifiedMedia>
           <UnifiedMedia id="5055"  >
            <AMFile id="5056" start="4134" duration="502" scalar="1/1" mediaStart="5131/1" mediaDuration="502/1" trackNumber="1" src="4" channelNumber="0,1" >
             <Parameters>
              <InterpolatingParam id="5057" interp="linr"  time="0/1" value="1" leadInLength="0/1"  name="volume"/>
              <Parameter id="5058"  name="captions"/>
             </Parameters>
             <Attributes>
              <Attribute id="5059" value="" name="ident"/>
              <Attribute id="5060" value="48000" name="sampleRate"/>
              <Attribute id="5061" value="16" name="bitDepth"/>
              <Attribute id="5062" value="1" name="gain"/>
              <Attribute id="5063" value="0" name="mixToMono"/>
             </Attributes>
            </AMFile>
            <VMFile id="5064" start="4134" duration="502" scalar="1/1" mediaStart="5131/1" mediaDuration="502/1" trackNumber="0" src="4" >
             <Transformer>
              <VectorParam id="5065"  name="translation">
               <InterpolatingParam id="5066" interp="linr"  time="-9999999/1" value="0" leadInLength="0/1"  />
               <InterpolatingParam id="5067" interp="linr"  time="-9999999/1" value="0" leadInLength="0/1"  />
               <InterpolatingParam id="5068" interp="linr"  time="-9999999/1" value="0" leadInLength="0/1"  />
              </VectorParam>
              <VectorParam id="5069"  name="rotation">
               <InterpolatingParam id="5070" interp="linr"  time="-9999999/1" value="0" leadInLength="0/1"  />
               <InterpolatingParam id="5071" interp="linr"  time="-9999999/1" value="0" leadInLength="0/1"  />
               <InterpolatingParam id="5072" interp="linr"  time="-9999999/1" value="0" leadInLength="0/1"  />
              </VectorParam>
              <VectorParam id="5073"  name="shear">
               <InterpolatingParam id="5074" interp="linr"  time="-9999999/1" value="0" leadInLength="0/1"  />
               <InterpolatingParam id="5075" interp="linr"  time="-9999999/1" value="0" leadInLength="0/1"  />
               <InterpolatingParam id="5076" interp="linr"  time="-9999999/1" value="0" leadInLength="0/1"  />
              </VectorParam>
              <VectorParam id="5077"  name="scale">
               <InterpolatingParam id="5078" interp="linr"  time="-9999999/1" value="1" leadInLength="0/1"  />
               <InterpolatingParam id="5079" interp="linr"  time="-9999999/1" value="1" leadInLength="0/1"  />
               <InterpolatingParam id="5080" interp="linr"  time="-9999999/1" value="1" leadInLength="0/1"  />
              </VectorParam>
              <VectorParam id="5081"  name="anchor">
               <InterpolatingParam id="5082" interp="linr"  time="0/1" value="0" leadInLength="0/1"  />
               <InterpolatingParam id="5083" interp="linr"  time="0/1" value="0" leadInLength="0/1"  />
               <InterpolatingParam id="5084" interp="linr"  time="0/1" value="0" leadInLength="0/1"  />
              </VectorParam>
             </Transformer>
             <Parameters>
              <VectorParam id="5085"  name="sourceCrop">
               <InterpolatingParam id="5086" interp="linr"  time="0/1" value="0" leadInLength="0/1"  />
               <InterpolatingParam id="5087" interp="linr"  time="0/1" value="0" leadInLength="0/1"  />
               <InterpolatingParam id="5088" interp="linr"  time="0/1" value="0" leadInLength="0/1"  />
               <InterpolatingParam id="5089" interp="linr"  time="0/1" value="0" leadInLength="0/1"  />
              </VectorParam>
              <VectorParam id="5090"  name="geometryCrop">
               <InterpolatingParam id="5091" interp="linr"  time="-9999999/1" value="0" leadInLength="0/1"  />
               <InterpolatingParam id="5092" interp="linr"  time="-9999999/1" value="0" leadInLength="0/1"  />
               <InterpolatingParam id="5093" interp="linr"  time="-9999999/1" value="0" leadInLength="0/1"  />
               <InterpolatingParam id="5094" interp="linr"  time="-9999999/1" value="0" leadInLength="0/1"  />
              </VectorParam>
              <InterpolatingParam id="5095" interp="linr"  time="-9999999/1" value="1" leadInLength="0/1"  name="opacity"/>
             </Parameters>
             <Attributes>
              <Attribute id="5096" value="" name="ident"/>
             </Attributes>
             <ExtraData>
              <Entry key="ZoomPanBin">
               <ZoomPanBin id="5097"  >
                <ZoomPanKeyframes>
                 <ZoomPanKeyframe id="5098" timeRangeEnd="-9999999/1" timeRangeDuration="0/1" interpolaterName="linr"  />
                </ZoomPanKeyframes>
               </ZoomPanBin>
              </Entry>
             </ExtraData>
            </VMFile>
            <MetaData>
             <entry key="WinSubProjectDisplayName" val=""/>
            </MetaData>
           </UnifiedMedia>
           <UnifiedMedia id="5099"  >
            <AMFile id="5100" start="4636" duration="590" scalar="1/1" mediaStart="5655/1" mediaDuration="590/1" trackNumber="1" src="4" channelNumber="0,1" >
             <Parameters>
              <InterpolatingParam id="5101" interp="linr"  time="0/1" value="1" leadInLength="0/1"  name="volume"/>
              <Parameter id="5102"  name="captions"/>
             </Parameters>
             <Attributes>
              <Attribute id="5103" value="" name="ident"/>
              <Attribute id="5104" value="48000" name="sampleRate"/>
              <Attribute id="5105" value="16" name="bitDepth"/>
              <Attribute id="5106" value="1" name="gain"/>
              <Attribute id="5107" value="0" name="mixToMono"/>
             </Attributes>
            </AMFile>
            <VMFile id="5108" start="4636" duration="590" scalar="1/1" mediaStart="5655/1" mediaDuration="590/1" trackNumber="0" src="4" >
             <Transformer>
              <VectorParam id="5109"  name="translation">
               <InterpolatingParam id="5110" interp="linr"  time="-9999999/1" value="0" leadInLength="0/1"  />
               <InterpolatingParam id="5111" interp="linr"  time="-9999999/1" value="0" leadInLength="0/1"  />
               <InterpolatingParam id="5112" interp="linr"  time="-9999999/1" value="0" leadInLength="0/1"  />
              </VectorParam>
              <VectorParam id="5113"  name="rotation">
               <InterpolatingParam id="5114" interp="linr"  time="-9999999/1" value="0" leadInLength="0/1"  />
               <InterpolatingParam id="5115" interp="linr"  time="-9999999/1" value="0" leadInLength="0/1"  />
               <InterpolatingParam id="5116" interp="linr"  time="-9999999/1" value="0" leadInLength="0/1"  />
              </VectorParam>
              <VectorParam id="5117"  name="shear">
               <InterpolatingParam id="5118" interp="linr"  time="-9999999/1" value="0" leadInLength="0/1"  />
               <InterpolatingParam id="5119" interp="linr"  time="-9999999/1" value="0" leadInLength="0/1"  />
               <InterpolatingParam id="5120" interp="linr"  time="-9999999/1" value="0" leadInLength="0/1"  />
              </VectorParam>
              <VectorParam id="5121"  name="scale">
               <InterpolatingParam id="5122" interp="linr"  time="-9999999/1" value="1" leadInLength="0/1"  />
               <InterpolatingParam id="5123" interp="linr"  time="-9999999/1" value="1" leadInLength="0/1"  />
               <InterpolatingParam id="5124" interp="linr"  time="-9999999/1" value="1" leadInLength="0/1"  />
              </VectorParam>
              <VectorParam id="5125"  name="anchor">
               <InterpolatingParam id="5126" interp="linr"  time="0/1" value="0" leadInLength="0/1"  />
               <InterpolatingParam id="5127" interp="linr"  time="0/1" value="0" leadInLength="0/1"  />
               <InterpolatingParam id="5128" interp="linr"  time="0/1" value="0" leadInLength="0/1"  />
              </VectorParam>
             </Transformer>
             <Parameters>
              <VectorParam id="5129"  name="sourceCrop">
               <InterpolatingParam id="5130" interp="linr"  time="0/1" value="0" leadInLength="0/1"  />
               <InterpolatingParam id="5131" interp="linr"  time="0/1" value="0" leadInLength="0/1"  />
               <InterpolatingParam id="5132" interp="linr"  time="0/1" value="0" leadInLength="0/1"  />
               <InterpolatingParam id="5133" interp="linr"  time="0/1" value="0" leadInLength="0/1"  />
              </VectorParam>
              <VectorParam id="5134"  name="geometryCrop">
               <InterpolatingParam id="5135" interp="linr"  time="-9999999/1" value="0" leadInLength="0/1"  />
               <InterpolatingParam id="5136" interp="linr"  time="-9999999/1" value="0" leadInLength="0/1"  />
               <InterpolatingParam id="5137" interp="linr"  time="-9999999/1" value="0" leadInLength="0/1"  />
               <InterpolatingParam id="5138" interp="linr"  time="-9999999/1" value="0" leadInLength="0/1"  />
              </VectorParam>
              <InterpolatingParam id="5139" interp="linr"  time="-9999999/1" value="1" leadInLength="0/1"  name="opacity"/>
             </Parameters>
             <Attributes>
              <Attribute id="5140" value="" name="ident"/>
             </Attributes>
             <ExtraData>
              <Entry key="ZoomPanBin">
               <ZoomPanBin id="5141"  >
                <ZoomPanKeyframes>
                 <ZoomPanKeyframe id="5142" timeRangeEnd="-9999999/1" timeRangeDuration="0/1" interpolaterName="linr"  />
                </ZoomPanKeyframes>
               </ZoomPanBin>
              </Entry>
             </ExtraData>
            </VMFile>
            <MetaData>
             <entry key="WinSubProjectDisplayName" val=""/>
            </MetaData>
           </UnifiedMedia>
           <UnifiedMedia id="5143"  >
            <AMFile id="5144" start="5226" duration="77" scalar="1/1" mediaStart="6277/1" mediaDuration="77/1" trackNumber="1" src="4" channelNumber="0,1" >
             <Parameters>
              <InterpolatingParam id="5145" interp="linr"  time="0/1" value="1" leadInLength="0/1"  name="volume"/>
              <Parameter id="5146"  name="captions"/>
             </Parameters>
             <Attributes>
              <Attribute id="5147" value="" name="ident"/>
              <Attribute id="5148" value="48000" name="sampleRate"/>
              <Attribute id="5149" value="16" name="bitDepth"/>
              <Attribute id="5150" value="1" name="gain"/>
              <Attribute id="5151" value="0" name="mixToMono"/>
             </Attributes>
            </AMFile>
            <VMFile id="5152" start="5226" duration="77" scalar="1/1" mediaStart="6277/1" mediaDuration="77/1" trackNumber="0" src="4" >
             <Transformer>
              <VectorParam id="5153"  name="translation">
               <InterpolatingParam id="5154" interp="linr"  time="-9999999/1" value="0" leadInLength="0/1"  />
               <InterpolatingParam id="5155" interp="linr"  time="-9999999/1" value="0" leadInLength="0/1"  />
               <InterpolatingParam id="5156" interp="linr"  time="-9999999/1" value="0" leadInLength="0/1"  />
              </VectorParam>
              <VectorParam id="5157"  name="rotation">
               <InterpolatingParam id="5158" interp="linr"  time="-9999999/1" value="0" leadInLength="0/1"  />
               <InterpolatingParam id="5159" interp="linr"  time="-9999999/1" value="0" leadInLength="0/1"  />
               <InterpolatingParam id="5160" interp="linr"  time="-9999999/1" value="0" leadInLength="0/1"  />
              </VectorParam>
              <VectorParam id="5161"  name="shear">
               <InterpolatingParam id="5162" interp="linr"  time="-9999999/1" value="0" leadInLength="0/1"  />
               <InterpolatingParam id="5163" interp="linr"  time="-9999999/1" value="0" leadInLength="0/1"  />
               <InterpolatingParam id="5164" interp="linr"  time="-9999999/1" value="0" leadInLength="0/1"  />
              </VectorParam>
              <VectorParam id="5165"  name="scale">
               <InterpolatingParam id="5166" interp="linr"  time="-9999999/1" value="1" leadInLength="0/1"  />
               <InterpolatingParam id="5167" interp="linr"  time="-9999999/1" value="1" leadInLength="0/1"  />
               <InterpolatingParam id="5168" interp="linr"  time="-9999999/1" value="1" leadInLength="0/1"  />
              </VectorParam>
              <VectorParam id="5169"  name="anchor">
               <InterpolatingParam id="5170" interp="linr"  time="0/1" value="0" leadInLength="0/1"  />
               <InterpolatingParam id="5171" interp="linr"  time="0/1" value="0" leadInLength="0/1"  />
               <InterpolatingParam id="5172" interp="linr"  time="0/1" value="0" leadInLength="0/1"  />
              </VectorParam>
             </Transformer>
             <Parameters>
              <VectorParam id="5173"  name="sourceCrop">
               <InterpolatingParam id="5174" interp="linr"  time="0/1" value="0" leadInLength="0/1"  />
               <InterpolatingParam id="5175" interp="linr"  time="0/1" value="0" leadInLength="0/1"  />
               <InterpolatingParam id="5176" interp="linr"  time="0/1" value="0" leadInLength="0/1"  />
               <InterpolatingParam id="5177" interp="linr"  time="0/1" value="0" leadInLength="0/1"  />
              </VectorParam>
              <VectorParam id="5178"  name="geometryCrop">
               <InterpolatingParam id="5179" interp="linr"  time="-9999999/1" value="0" leadInLength="0/1"  />
               <InterpolatingParam id="5180" interp="linr"  time="-9999999/1" value="0" leadInLength="0/1"  />
               <InterpolatingParam id="5181" interp="linr"  time="-9999999/1" value="0" leadInLength="0/1"  />
               <InterpolatingParam id="5182" interp="linr"  time="-9999999/1" value="0" leadInLength="0/1"  />
              </VectorParam>
              <InterpolatingParam id="5183" interp="linr"  time="-9999999/1" value="1" leadInLength="0/1"  name="opacity"/>
             </Parameters>
             <Attributes>
              <Attribute id="5184" value="" name="ident"/>
             </Attributes>
             <ExtraData>
              <Entry key="ZoomPanBin">
               <ZoomPanBin id="5185"  >
                <ZoomPanKeyframes>
                 <ZoomPanKeyframe id="5186" timeRangeEnd="-9999999/1" timeRangeDuration="0/1" interpolaterName="linr"  />
                </ZoomPanKeyframes>
               </ZoomPanBin>
              </Entry>
             </ExtraData>
            </VMFile>
            <MetaData>
             <entry key="WinSubProjectDisplayName" val=""/>
            </MetaData>
           </UnifiedMedia>
           <UnifiedMedia id="5187"  >
            <AMFile id="5188" start="5303" duration="82" scalar="1/1" mediaStart="6393/1" mediaDuration="82/1" trackNumber="1" src="4" channelNumber="0,1" >
             <Parameters>
              <InterpolatingParam id="5189" interp="linr"  time="0/1" value="1" leadInLength="0/1"  name="volume"/>
              <Parameter id="5190"  name="captions"/>
             </Parameters>
             <Attributes>
              <Attribute id="5191" value="" name="ident"/>
              <Attribute id="5192" value="48000" name="sampleRate"/>
              <Attribute id="5193" value="16" name="bitDepth"/>
              <Attribute id="5194" value="1" name="gain"/>
              <Attribute id="5195" value="0" name="mixToMono"/>
             </Attributes>
            </AMFile>
            <VMFile id="5196" start="5303" duration="82" scalar="1/1" mediaStart="6393/1" mediaDuration="82/1" trackNumber="0" src="4" >
             <Transformer>
              <VectorParam id="5197"  name="translation">
               <InterpolatingParam id="5198" interp="linr"  time="-9999999/1" value="0" leadInLength="0/1"  />
               <InterpolatingParam id="5199" interp="linr"  time="-9999999/1" value="0" leadInLength="0/1"  />
               <InterpolatingParam id="5200" interp="linr"  time="-9999999/1" value="0" leadInLength="0/1"  />
              </VectorParam>
              <VectorParam id="5201"  name="rotation">
               <InterpolatingParam id="5202" interp="linr"  time="-9999999/1" value="0" leadInLength="0/1"  />
               <InterpolatingParam id="5203" interp="linr"  time="-9999999/1" value="0" leadInLength="0/1"  />
               <InterpolatingParam id="5204" interp="linr"  time="-9999999/1" value="0" leadInLength="0/1"  />
              </VectorParam>
              <VectorParam id="5205"  name="shear">
               <InterpolatingParam id="5206" interp="linr"  time="-9999999/1" value="0" leadInLength="0/1"  />
               <InterpolatingParam id="5207" interp="linr"  time="-9999999/1" value="0" leadInLength="0/1"  />
               <InterpolatingParam id="5208" interp="linr"  time="-9999999/1" value="0" leadInLength="0/1"  />
              </VectorParam>
              <VectorParam id="5209"  name="scale">
               <InterpolatingParam id="5210" interp="linr"  time="-9999999/1" value="1" leadInLength="0/1"  />
               <InterpolatingParam id="5211" interp="linr"  time="-9999999/1" value="1" leadInLength="0/1"  />
               <InterpolatingParam id="5212" interp="linr"  time="-9999999/1" value="1" leadInLength="0/1"  />
              </VectorParam>
              <VectorParam id="5213"  name="anchor">
               <InterpolatingParam id="5214" interp="linr"  time="0/1" value="0" leadInLength="0/1"  />
               <InterpolatingParam id="5215" interp="linr"  time="0/1" value="0" leadInLength="0/1"  />
               <InterpolatingParam id="5216" interp="linr"  time="0/1" value="0" leadInLength="0/1"  />
              </VectorParam>
             </Transformer>
             <Parameters>
              <VectorParam id="5217"  name="sourceCrop">
               <InterpolatingParam id="5218" interp="linr"  time="0/1" value="0" leadInLength="0/1"  />
               <InterpolatingParam id="5219" interp="linr"  time="0/1" value="0" leadInLength="0/1"  />
               <InterpolatingParam id="5220" interp="linr"  time="0/1" value="0" leadInLength="0/1"  />
               <InterpolatingParam id="5221" interp="linr"  time="0/1" value="0" leadInLength="0/1"  />
              </VectorParam>
              <VectorParam id="5222"  name="geometryCrop">
               <InterpolatingParam id="5223" interp="linr"  time="-9999999/1" value="0" leadInLength="0/1"  />
               <InterpolatingParam id="5224" interp="linr"  time="-9999999/1" value="0" leadInLength="0/1"  />
               <InterpolatingParam id="5225" interp="linr"  time="-9999999/1" value="0" leadInLength="0/1"  />
               <InterpolatingParam id="5226" interp="linr"  time="-9999999/1" value="0" leadInLength="0/1"  />
              </VectorParam>
              <InterpolatingParam id="5227" interp="linr"  time="-9999999/1" value="1" leadInLength="0/1"  name="opacity"/>
             </Parameters>
             <Attributes>
              <Attribute id="5228" value="" name="ident"/>
             </Attributes>
             <ExtraData>
              <Entry key="ZoomPanBin">
               <ZoomPanBin id="5229"  >
                <ZoomPanKeyframes>
                 <ZoomPanKeyframe id="5230" timeRangeEnd="-9999999/1" timeRangeDuration="0/1" interpolaterName="linr"  />
                </ZoomPanKeyframes>
               </ZoomPanBin>
              </Entry>
             </ExtraData>
            </VMFile>
            <MetaData>
             <entry key="WinSubProjectDisplayName" val=""/>
            </MetaData>
           </UnifiedMedia>
           <UnifiedMedia id="5231"  >
            <AMFile id="5232" start="5385" duration="2268" scalar="1/1" mediaStart="6528/1" mediaDuration="2268/1" trackNumber="1" src="4" channelNumber="0,1" >
             <Parameters>
              <InterpolatingParam id="5233" interp="linr"  time="0/1" value="1" leadInLength="0/1"  name="volume"/>
              <Parameter id="5234"  name="captions"/>
             </Parameters>
             <Attributes>
              <Attribute id="5235" value="" name="ident"/>
              <Attribute id="5236" value="48000" name="sampleRate"/>
              <Attribute id="5237" value="16" name="bitDepth"/>
              <Attribute id="5238" value="1" name="gain"/>
              <Attribute id="5239" value="0" name="mixToMono"/>
             </Attributes>
            </AMFile>
            <VMFile id="5240" start="5385" duration="2268" scalar="1/1" mediaStart="6528/1" mediaDuration="2268/1" trackNumber="0" src="4" >
             <Transformer>
              <VectorParam id="5241"  name="translation">
               <InterpolatingParam id="5242" interp="linr"  time="-9999999/1" value="0" leadInLength="0/1"  />
               <InterpolatingParam id="5243" interp="linr"  time="-9999999/1" value="0" leadInLength="0/1"  />
               <InterpolatingParam id="5244" interp="linr"  time="-9999999/1" value="0" leadInLength="0/1"  />
              </VectorParam>
              <VectorParam id="5245"  name="rotation">
               <InterpolatingParam id="5246" interp="linr"  time="-9999999/1" value="0" leadInLength="0/1"  />
               <InterpolatingParam id="5247" interp="linr"  time="-9999999/1" value="0" leadInLength="0/1"  />
               <InterpolatingParam id="5248" interp="linr"  time="-9999999/1" value="0" leadInLength="0/1"  />
              </VectorParam>
              <VectorParam id="5249"  name="shear">
               <InterpolatingParam id="5250" interp="linr"  time="-9999999/1" value="0" leadInLength="0/1"  />
               <InterpolatingParam id="5251" interp="linr"  time="-9999999/1" value="0" leadInLength="0/1"  />
               <InterpolatingParam id="5252" interp="linr"  time="-9999999/1" value="0" leadInLength="0/1"  />
              </VectorParam>
              <VectorParam id="5253"  name="scale">
               <InterpolatingParam id="5254" interp="linr"  time="-9999999/1" value="1" leadInLength="0/1"  />
               <InterpolatingParam id="5255" interp="linr"  time="-9999999/1" value="1" leadInLength="0/1"  />
               <InterpolatingParam id="5256" interp="linr"  time="-9999999/1" value="1" leadInLength="0/1"  />
              </VectorParam>
              <VectorParam id="5257"  name="anchor">
               <InterpolatingParam id="5258" interp="linr"  time="0/1" value="0" leadInLength="0/1"  />
               <InterpolatingParam id="5259" interp="linr"  time="0/1" value="0" leadInLength="0/1"  />
               <InterpolatingParam id="5260" interp="linr"  time="0/1" value="0" leadInLength="0/1"  />
              </VectorParam>
             </Transformer>
             <Parameters>
              <VectorParam id="5261"  name="sourceCrop">
               <InterpolatingParam id="5262" interp="linr"  time="0/1" value="0" leadInLength="0/1"  />
               <InterpolatingParam id="5263" interp="linr"  time="0/1" value="0" leadInLength="0/1"  />
               <InterpolatingParam id="5264" interp="linr"  time="0/1" value="0" leadInLength="0/1"  />
               <InterpolatingParam id="5265" interp="linr"  time="0/1" value="0" leadInLength="0/1"  />
              </VectorParam>
              <VectorParam id="5266"  name="geometryCrop">
               <InterpolatingParam id="5267" interp="linr"  time="-9999999/1" value="0" leadInLength="0/1"  />
               <InterpolatingParam id="5268" interp="linr"  time="-9999999/1" value="0" leadInLength="0/1"  />
               <InterpolatingParam id="5269" interp="linr"  time="-9999999/1" value="0" leadInLength="0/1"  />
               <InterpolatingParam id="5270" interp="linr"  time="-9999999/1" value="0" leadInLength="0/1"  />
              </VectorParam>
              <InterpolatingParam id="5271" interp="linr"  time="-9999999/1" value="1" leadInLength="0/1"  name="opacity"/>
             </Parameters>
             <Attributes>
              <Attribute id="5272" value="" name="ident"/>
             </Attributes>
             <ExtraData>
              <Entry key="ZoomPanBin">
               <ZoomPanBin id="5273"  >
                <ZoomPanKeyframes>
                 <ZoomPanKeyframe id="5274" timeRangeEnd="-9999999/1" timeRangeDuration="0/1" interpolaterName="linr"  />
                </ZoomPanKeyframes>
               </ZoomPanBin>
              </Entry>
             </ExtraData>
            </VMFile>
            <MetaData>
             <entry key="WinSubProjectDisplayName" val=""/>
            </MetaData>
           </UnifiedMedia>
          </Medias>
         </GenericTrack>
        </StitchedMedia>
        <StitchedMedia id="5275" start="3132" duration="22" scalar="1/1" mediaStart="3903/1" mediaDuration="22/1" minMediaStart="0/1" >
         <Transformer>
          <VectorParam id="5276"  name="translation">
           <InterpolatingParam id="5277" interp="linr"  time="-9999999/1" value="574.63125870155341" leadInLength="0/1"  interpolater="leadin-linr"  />
           <InterpolatingParam id="5278" interp="linr"  time="-9999999/1" value="-292.43665240012643" leadInLength="0/1"  interpolater="leadin-linr"  />
           <InterpolatingParam id="5279" interp="linr"  time="-9999999/1" value="0" leadInLength="0/1"  interpolater="leadin-linr"  />
          </VectorParam>
          <VectorParam id="5280"  name="rotation">
           <InterpolatingParam id="5281" interp="linr"  time="-9999999/1" value="0" leadInLength="0/1"  interpolater="leadin-linr"  />
           <InterpolatingParam id="5282" interp="linr"  time="-9999999/1" value="0" leadInLength="0/1"  interpolater="leadin-linr"  />
           <InterpolatingParam id="5283" interp="linr"  time="-9999999/1" value="0" leadInLength="0/1"  interpolater="leadin-linr"  />
          </VectorParam>
          <VectorParam id="5284"  name="shear">
           <InterpolatingParam id="5285" interp="linr"  time="-9999999/1" value="0" leadInLength="0/1"  interpolater="leadin-linr"  />
           <InterpolatingParam id="5286" interp="linr"  time="-9999999/1" value="0" leadInLength="0/1"  interpolater="leadin-linr"  />
           <InterpolatingParam id="5287" interp="linr"  time="-9999999/1" value="0" leadInLength="0/1"  interpolater="leadin-linr"  />
          </VectorParam>
          <VectorParam id="5288"  name="scale">
           <InterpolatingParam id="5289" interp="linr"  time="-9999999/1" value="0.21085271317836307" leadInLength="0/1"  interpolater="leadin-linr"  />
           <InterpolatingParam id="5290" interp="linr"  time="-9999999/1" value="0.2108527131783631" leadInLength="0/1"  interpolater="leadin-linr"  />
           <InterpolatingParam id="5291" interp="linr"  time="-9999999/1" value="1" leadInLength="0/1"  interpolater="leadin-linr"  />
          </VectorParam>
          <VectorParam id="5292"  name="anchor">
           <InterpolatingParam id="5293" interp="linr"  time="0/1" value="0" leadInLength="0/1"  />
           <InterpolatingParam id="5294" interp="linr"  time="0/1" value="0" leadInLength="0/1"  />
           <InterpolatingParam id="5295" interp="linr"  time="0/1" value="0" leadInLength="0/1"  />
          </VectorParam>
         </Transformer>
         <Parameters>
          <VectorParam id="5296"  name="sourceCrop">
           <InterpolatingParam id="5297" interp="linr"  time="0/1" value="0" leadInLength="0/1"  />
           <InterpolatingParam id="5298" interp="linr"  time="0/1" value="0" leadInLength="0/1"  />
           <InterpolatingParam id="5299" interp="linr"  time="0/1" value="0" leadInLength="0/1"  />
           <InterpolatingParam id="5300" interp="linr"  time="0/1" value="0" leadInLength="0/1"  />
          </VectorParam>
          <VectorParam id="5301"  name="geometryCrop">
           <InterpolatingParam id="5302" interp="linr"  time="-9999999/1" value="627.40576496682729" leadInLength="0/1"  interpolater="leadin-linr"  />
           <InterpolatingParam id="5303" interp="linr"  time="-9999999/1" value="50.288248336816537" leadInLength="0/1"  interpolater="leadin-linr"  />
           <InterpolatingParam id="5304" interp="linr"  time="-9999999/1" value="649.97913134196688" leadInLength="0/1"  interpolater="leadin-linr"  />
           <InterpolatingParam id="5305" interp="linr"  time="-9999999/1" value="219.57088822111729" leadInLength="0/1"  interpolater="leadin-linr"  />
          </VectorParam>
          <InterpolatingParam id="5306" interp="linr"  time="-9999999/1" value="1" leadInLength="0/1"  interpolater="leadin-linr"  name="opacity"/>
          <InterpolatingParam id="5307" interp="linr"  time="0/1" value="1" leadInLength="0/1"  name="cursorOpacity"/>
          <InterpolatingParam id="5308" interp="linr"  time="0/1" value="1" leadInLength="0/1"  name="cursorScale"/>
          <InterpolatingParam id="5309" interp="linr"  name="volume">
           <Keyframes>
           <Keyframe id="5310"  time="0/1" value="1" leadInLength="0/1"  />
           <Keyframe id="5311"  time="3903/1" value="1" leadInLength="0/1"  />
           </Keyframes>
          </InterpolatingParam>
          <Parameter id="5312"  name="captions"/>
         </Parameters>
         <Attributes>
          <Attribute id="5313" value="" name="ident"/>
          <Attribute id="5314" value="0" name="mixToMono"/>
         </Attributes>
         <MetaData>
          <entry key="WinSubProjectDisplayName" val=""/>
         </MetaData>
         <ExtraData>
          <Entry key="ZoomPanBin">
           <ZoomPanBin id="5315"  >
            <ZoomPanKeyframes>
             <ZoomPanKeyframe id="5316" timeRangeEnd="-9999999/1" timeRangeDuration="0/1" interpolaterName="linr"  />
            </ZoomPanKeyframes>
           </ZoomPanBin>
          </Entry>
          <Entry key="CursorEffectBin">
           <CursorEffectBin id="5317"  >
            <CursorEffectKeyframes>
            </CursorEffectKeyframes>
           </CursorEffectBin>
          </Entry>
         </ExtraData>
         <GenericTrack id="5318"  >
          <Attributes>
           <Attribute id="5319" value="" name="ident"/>
           <Attribute id="5320" value="0" name="audioMuted"/>
           <Attribute id="5321" value="0" name="videoHidden"/>
          </Attributes>
          <MetaData>
           <entry key="IsLocked" val="False"/>
           <entry key="WinTrackHeight" val="0"/>
          </MetaData>
          <Medias>
           <UnifiedMedia id="5322"  >
            <AMFile id="5323" start="0" duration="3938" scalar="1/1" mediaStart="0/1" mediaDuration="3938/1" trackNumber="1" src="4" channelNumber="0,1" >
             <Parameters>
              <InterpolatingParam id="5324" interp="linr"  time="0/1" value="1" leadInLength="0/1"  name="volume"/>
              <Parameter id="5325"  name="captions"/>
             </Parameters>
             <Attributes>
              <Attribute id="5326" value="" name="ident"/>
              <Attribute id="5327" value="48000" name="sampleRate"/>
              <Attribute id="5328" value="16" name="bitDepth"/>
              <Attribute id="5329" value="1" name="gain"/>
              <Attribute id="5330" value="0" name="mixToMono"/>
             </Attributes>
            </AMFile>
            <VMFile id="5331" start="0" duration="3938" scalar="1/1" mediaStart="0/1" mediaDuration="3938/1" trackNumber="0" src="4" >
             <Transformer>
              <VectorParam id="5332"  name="translation">
               <InterpolatingParam id="5333" interp="linr"  time="-9999999/1" value="0" leadInLength="0/1"  />
               <InterpolatingParam id="5334" interp="linr"  time="-9999999/1" value="0" leadInLength="0/1"  />
               <InterpolatingParam id="5335" interp="linr"  time="-9999999/1" value="0" leadInLength="0/1"  />
              </VectorParam>
              <VectorParam id="5336"  name="rotation">
               <InterpolatingParam id="5337" interp="linr"  time="-9999999/1" value="0" leadInLength="0/1"  />
               <InterpolatingParam id="5338" interp="linr"  time="-9999999/1" value="0" leadInLength="0/1"  />
               <InterpolatingParam id="5339" interp="linr"  time="-9999999/1" value="0" leadInLength="0/1"  />
              </VectorParam>
              <VectorParam id="5340"  name="shear">
               <InterpolatingParam id="5341" interp="linr"  time="-9999999/1" value="0" leadInLength="0/1"  />
               <InterpolatingParam id="5342" interp="linr"  time="-9999999/1" value="0" leadInLength="0/1"  />
               <InterpolatingParam id="5343" interp="linr"  time="-9999999/1" value="0" leadInLength="0/1"  />
              </VectorParam>
              <VectorParam id="5344"  name="scale">
               <InterpolatingParam id="5345" interp="linr"  time="-9999999/1" value="1" leadInLength="0/1"  />
               <InterpolatingParam id="5346" interp="linr"  time="-9999999/1" value="1" leadInLength="0/1"  />
               <InterpolatingParam id="5347" interp="linr"  time="-9999999/1" value="1" leadInLength="0/1"  />
              </VectorParam>
              <VectorParam id="5348"  name="anchor">
               <InterpolatingParam id="5349" interp="linr"  time="0/1" value="0" leadInLength="0/1"  />
               <InterpolatingParam id="5350" interp="linr"  time="0/1" value="0" leadInLength="0/1"  />
               <InterpolatingParam id="5351" interp="linr"  time="0/1" value="0" leadInLength="0/1"  />
              </VectorParam>
             </Transformer>
             <Parameters>
              <VectorParam id="5352"  name="sourceCrop">
               <InterpolatingParam id="5353" interp="linr"  time="0/1" value="0" leadInLength="0/1"  />
               <InterpolatingParam id="5354" interp="linr"  time="0/1" value="0" leadInLength="0/1"  />
               <InterpolatingParam id="5355" interp="linr"  time="0/1" value="0" leadInLength="0/1"  />
               <InterpolatingParam id="5356" interp="linr"  time="0/1" value="0" leadInLength="0/1"  />
              </VectorParam>
              <VectorParam id="5357"  name="geometryCrop">
               <InterpolatingParam id="5358" interp="linr"  time="-9999999/1" value="0" leadInLength="0/1"  />
               <InterpolatingParam id="5359" interp="linr"  time="-9999999/1" value="0" leadInLength="0/1"  />
               <InterpolatingParam id="5360" interp="linr"  time="-9999999/1" value="0" leadInLength="0/1"  />
               <InterpolatingParam id="5361" interp="linr"  time="-9999999/1" value="0" leadInLength="0/1"  />
              </VectorParam>
              <InterpolatingParam id="5362" interp="linr"  time="-9999999/1" value="1" leadInLength="0/1"  name="opacity"/>
             </Parameters>
             <Attributes>
              <Attribute id="5363" value="" name="ident"/>
             </Attributes>
             <ExtraData>
              <Entry key="ZoomPanBin">
               <ZoomPanBin id="5364"  >
                <ZoomPanKeyframes>
                </ZoomPanKeyframes>
               </ZoomPanBin>
              </Entry>
             </ExtraData>
            </VMFile>
            <MetaData>
             <entry key="WinSubProjectDisplayName" val=""/>
            </MetaData>
           </UnifiedMedia>
           <UnifiedMedia id="5365"  >
            <AMFile id="5366" start="3938" duration="30" scalar="1/1" mediaStart="4007/1" mediaDuration="30/1" trackNumber="1" src="4" channelNumber="0,1" >
             <Parameters>
              <InterpolatingParam id="5367" interp="linr"  time="0/1" value="1" leadInLength="0/1"  name="volume"/>
              <Parameter id="5368"  name="captions"/>
             </Parameters>
             <Attributes>
              <Attribute id="5369" value="" name="ident"/>
              <Attribute id="5370" value="48000" name="sampleRate"/>
              <Attribute id="5371" value="16" name="bitDepth"/>
              <Attribute id="5372" value="1" name="gain"/>
              <Attribute id="5373" value="0" name="mixToMono"/>
             </Attributes>
            </AMFile>
            <VMFile id="5374" start="3938" duration="30" scalar="1/1" mediaStart="4007/1" mediaDuration="30/1" trackNumber="0" src="4" >
             <Transformer>
              <VectorParam id="5375"  name="translation">
               <InterpolatingParam id="5376" interp="linr"  time="-9999999/1" value="0" leadInLength="0/1"  />
               <InterpolatingParam id="5377" interp="linr"  time="-9999999/1" value="0" leadInLength="0/1"  />
               <InterpolatingParam id="5378" interp="linr"  time="-9999999/1" value="0" leadInLength="0/1"  />
              </VectorParam>
              <VectorParam id="5379"  name="rotation">
               <InterpolatingParam id="5380" interp="linr"  time="-9999999/1" value="0" leadInLength="0/1"  />
               <InterpolatingParam id="5381" interp="linr"  time="-9999999/1" value="0" leadInLength="0/1"  />
               <InterpolatingParam id="5382" interp="linr"  time="-9999999/1" value="0" leadInLength="0/1"  />
              </VectorParam>
              <VectorParam id="5383"  name="shear">
               <InterpolatingParam id="5384" interp="linr"  time="-9999999/1" value="0" leadInLength="0/1"  />
               <InterpolatingParam id="5385" interp="linr"  time="-9999999/1" value="0" leadInLength="0/1"  />
               <InterpolatingParam id="5386" interp="linr"  time="-9999999/1" value="0" leadInLength="0/1"  />
              </VectorParam>
              <VectorParam id="5387"  name="scale">
               <InterpolatingParam id="5388" interp="linr"  time="-9999999/1" value="1" leadInLength="0/1"  />
               <InterpolatingParam id="5389" interp="linr"  time="-9999999/1" value="1" leadInLength="0/1"  />
               <InterpolatingParam id="5390" interp="linr"  time="-9999999/1" value="1" leadInLength="0/1"  />
              </VectorParam>
              <VectorParam id="5391"  name="anchor">
               <InterpolatingParam id="5392" interp="linr"  time="0/1" value="0" leadInLength="0/1"  />
               <InterpolatingParam id="5393" interp="linr"  time="0/1" value="0" leadInLength="0/1"  />
               <InterpolatingParam id="5394" interp="linr"  time="0/1" value="0" leadInLength="0/1"  />
              </VectorParam>
             </Transformer>
             <Parameters>
              <VectorParam id="5395"  name="sourceCrop">
               <InterpolatingParam id="5396" interp="linr"  time="0/1" value="0" leadInLength="0/1"  />
               <InterpolatingParam id="5397" interp="linr"  time="0/1" value="0" leadInLength="0/1"  />
               <InterpolatingParam id="5398" interp="linr"  time="0/1" value="0" leadInLength="0/1"  />
               <InterpolatingParam id="5399" interp="linr"  time="0/1" value="0" leadInLength="0/1"  />
              </VectorParam>
              <VectorParam id="5400"  name="geometryCrop">
               <InterpolatingParam id="5401" interp="linr"  time="-9999999/1" value="0" leadInLength="0/1"  />
               <InterpolatingParam id="5402" interp="linr"  time="-9999999/1" value="0" leadInLength="0/1"  />
               <InterpolatingParam id="5403" interp="linr"  time="-9999999/1" value="0" leadInLength="0/1"  />
               <InterpolatingParam id="5404" interp="linr"  time="-9999999/1" value="0" leadInLength="0/1"  />
              </VectorParam>
              <InterpolatingParam id="5405" interp="linr"  time="-9999999/1" value="1" leadInLength="0/1"  name="opacity"/>
             </Parameters>
             <Attributes>
              <Attribute id="5406" value="" name="ident"/>
             </Attributes>
             <ExtraData>
              <Entry key="ZoomPanBin">
               <ZoomPanBin id="5407"  >
                <ZoomPanKeyframes>
                </ZoomPanKeyframes>
               </ZoomPanBin>
              </Entry>
             </ExtraData>
            </VMFile>
            <MetaData>
             <entry key="WinSubProjectDisplayName" val=""/>
            </MetaData>
           </UnifiedMedia>
           <UnifiedMedia id="5408"  >
            <AMFile id="5409" start="3968" duration="287" scalar="1/1" mediaStart="4054/1" mediaDuration="287/1" trackNumber="1" src="4" channelNumber="0,1" >
             <Parameters>
              <InterpolatingParam id="5410" interp="linr"  time="0/1" value="1" leadInLength="0/1"  name="volume"/>
              <Parameter id="5411"  name="captions"/>
             </Parameters>
             <Attributes>
              <Attribute id="5412" value="" name="ident"/>
              <Attribute id="5413" value="48000" name="sampleRate"/>
              <Attribute id="5414" value="16" name="bitDepth"/>
              <Attribute id="5415" value="1" name="gain"/>
              <Attribute id="5416" value="0" name="mixToMono"/>
             </Attributes>
            </AMFile>
            <VMFile id="5417" start="3968" duration="287" scalar="1/1" mediaStart="4054/1" mediaDuration="287/1" trackNumber="0" src="4" >
             <Transformer>
              <VectorParam id="5418"  name="translation">
               <InterpolatingParam id="5419" interp="linr"  time="-9999999/1" value="0" leadInLength="0/1"  />
               <InterpolatingParam id="5420" interp="linr"  time="-9999999/1" value="0" leadInLength="0/1"  />
               <InterpolatingParam id="5421" interp="linr"  time="-9999999/1" value="0" leadInLength="0/1"  />
              </VectorParam>
              <VectorParam id="5422"  name="rotation">
               <InterpolatingParam id="5423" interp="linr"  time="-9999999/1" value="0" leadInLength="0/1"  />
               <InterpolatingParam id="5424" interp="linr"  time="-9999999/1" value="0" leadInLength="0/1"  />
               <InterpolatingParam id="5425" interp="linr"  time="-9999999/1" value="0" leadInLength="0/1"  />
              </VectorParam>
              <VectorParam id="5426"  name="shear">
               <InterpolatingParam id="5427" interp="linr"  time="-9999999/1" value="0" leadInLength="0/1"  />
               <InterpolatingParam id="5428" interp="linr"  time="-9999999/1" value="0" leadInLength="0/1"  />
               <InterpolatingParam id="5429" interp="linr"  time="-9999999/1" value="0" leadInLength="0/1"  />
              </VectorParam>
              <VectorParam id="5430"  name="scale">
               <InterpolatingParam id="5431" interp="linr"  time="-9999999/1" value="1" leadInLength="0/1"  />
               <InterpolatingParam id="5432" interp="linr"  time="-9999999/1" value="1" leadInLength="0/1"  />
               <InterpolatingParam id="5433" interp="linr"  time="-9999999/1" value="1" leadInLength="0/1"  />
              </VectorParam>
              <VectorParam id="5434"  name="anchor">
               <InterpolatingParam id="5435" interp="linr"  time="0/1" value="0" leadInLength="0/1"  />
               <InterpolatingParam id="5436" interp="linr"  time="0/1" value="0" leadInLength="0/1"  />
               <InterpolatingParam id="5437" interp="linr"  time="0/1" value="0" leadInLength="0/1"  />
              </VectorParam>
             </Transformer>
             <Parameters>
              <VectorParam id="5438"  name="sourceCrop">
               <InterpolatingParam id="5439" interp="linr"  time="0/1" value="0" leadInLength="0/1"  />
               <InterpolatingParam id="5440" interp="linr"  time="0/1" value="0" leadInLength="0/1"  />
               <InterpolatingParam id="5441" interp="linr"  time="0/1" value="0" leadInLength="0/1"  />
               <InterpolatingParam id="5442" interp="linr"  time="0/1" value="0" leadInLength="0/1"  />
              </VectorParam>
              <VectorParam id="5443"  name="geometryCrop">
               <InterpolatingParam id="5444" interp="linr"  time="-9999999/1" value="0" leadInLength="0/1"  />
               <InterpolatingParam id="5445" interp="linr"  time="-9999999/1" value="0" leadInLength="0/1"  />
               <InterpolatingParam id="5446" interp="linr"  time="-9999999/1" value="0" leadInLength="0/1"  />
               <InterpolatingParam id="5447" interp="linr"  time="-9999999/1" value="0" leadInLength="0/1"  />
              </VectorParam>
              <InterpolatingParam id="5448" interp="linr"  time="-9999999/1" value="1" leadInLength="0/1"  name="opacity"/>
             </Parameters>
             <Attributes>
              <Attribute id="5449" value="" name="ident"/>
             </Attributes>
             <ExtraData>
              <Entry key="ZoomPanBin">
               <ZoomPanBin id="5450"  >
                <ZoomPanKeyframes>
                </ZoomPanKeyframes>
               </ZoomPanBin>
              </Entry>
             </ExtraData>
            </VMFile>
            <MetaData>
             <entry key="WinSubProjectDisplayName" val=""/>
            </MetaData>
           </UnifiedMedia>
           <UnifiedMedia id="5451"  >
            <AMFile id="5452" start="4255" duration="253" scalar="1/1" mediaStart="4362/1" mediaDuration="253/1" trackNumber="1" src="4" channelNumber="0,1" >
             <Parameters>
              <InterpolatingParam id="5453" interp="linr"  time="0/1" value="1" leadInLength="0/1"  name="volume"/>
              <Parameter id="5454"  name="captions"/>
             </Parameters>
             <Attributes>
              <Attribute id="5455" value="" name="ident"/>
              <Attribute id="5456" value="48000" name="sampleRate"/>
              <Attribute id="5457" value="16" name="bitDepth"/>
              <Attribute id="5458" value="1" name="gain"/>
              <Attribute id="5459" value="0" name="mixToMono"/>
             </Attributes>
            </AMFile>
            <VMFile id="5460" start="4255" duration="253" scalar="1/1" mediaStart="4362/1" mediaDuration="253/1" trackNumber="0" src="4" >
             <Transformer>
              <VectorParam id="5461"  name="translation">
               <InterpolatingParam id="5462" interp="linr"  time="-9999999/1" value="0" leadInLength="0/1"  />
               <InterpolatingParam id="5463" interp="linr"  time="-9999999/1" value="0" leadInLength="0/1"  />
               <InterpolatingParam id="5464" interp="linr"  time="-9999999/1" value="0" leadInLength="0/1"  />
              </VectorParam>
              <VectorParam id="5465"  name="rotation">
               <InterpolatingParam id="5466" interp="linr"  time="-9999999/1" value="0" leadInLength="0/1"  />
               <InterpolatingParam id="5467" interp="linr"  time="-9999999/1" value="0" leadInLength="0/1"  />
               <InterpolatingParam id="5468" interp="linr"  time="-9999999/1" value="0" leadInLength="0/1"  />
              </VectorParam>
              <VectorParam id="5469"  name="shear">
               <InterpolatingParam id="5470" interp="linr"  time="-9999999/1" value="0" leadInLength="0/1"  />
               <InterpolatingParam id="5471" interp="linr"  time="-9999999/1" value="0" leadInLength="0/1"  />
               <InterpolatingParam id="5472" interp="linr"  time="-9999999/1" value="0" leadInLength="0/1"  />
              </VectorParam>
              <VectorParam id="5473"  name="scale">
               <InterpolatingParam id="5474" interp="linr"  time="-9999999/1" value="1" leadInLength="0/1"  />
               <InterpolatingParam id="5475" interp="linr"  time="-9999999/1" value="1" leadInLength="0/1"  />
               <InterpolatingParam id="5476" interp="linr"  time="-9999999/1" value="1" leadInLength="0/1"  />
              </VectorParam>
              <VectorParam id="5477"  name="anchor">
               <InterpolatingParam id="5478" interp="linr"  time="0/1" value="0" leadInLength="0/1"  />
               <InterpolatingParam id="5479" interp="linr"  time="0/1" value="0" leadInLength="0/1"  />
               <InterpolatingParam id="5480" interp="linr"  time="0/1" value="0" leadInLength="0/1"  />
              </VectorParam>
             </Transformer>
             <Parameters>
              <VectorParam id="5481"  name="sourceCrop">
               <InterpolatingParam id="5482" interp="linr"  time="0/1" value="0" leadInLength="0/1"  />
               <InterpolatingParam id="5483" interp="linr"  time="0/1" value="0" leadInLength="0/1"  />
               <InterpolatingParam id="5484" interp="linr"  time="0/1" value="0" leadInLength="0/1"  />
               <InterpolatingParam id="5485" interp="linr"  time="0/1" value="0" leadInLength="0/1"  />
              </VectorParam>
              <VectorParam id="5486"  name="geometryCrop">
               <InterpolatingParam id="5487" interp="linr"  time="-9999999/1" value="0" leadInLength="0/1"  />
               <InterpolatingParam id="5488" interp="linr"  time="-9999999/1" value="0" leadInLength="0/1"  />
               <InterpolatingParam id="5489" interp="linr"  time="-9999999/1" value="0" leadInLength="0/1"  />
               <InterpolatingParam id="5490" interp="linr"  time="-9999999/1" value="0" leadInLength="0/1"  />
              </VectorParam>
              <InterpolatingParam id="5491" interp="linr"  time="-9999999/1" value="1" leadInLength="0/1"  name="opacity"/>
             </Parameters>
             <Attributes>
              <Attribute id="5492" value="" name="ident"/>
             </Attributes>
             <ExtraData>
              <Entry key="ZoomPanBin">
               <ZoomPanBin id="5493"  >
                <ZoomPanKeyframes>
                </ZoomPanKeyframes>
               </ZoomPanBin>
              </Entry>
             </ExtraData>
            </VMFile>
            <MetaData>
             <entry key="WinSubProjectDisplayName" val=""/>
            </MetaData>
           </UnifiedMedia>
           <UnifiedMedia id="5494"  >
            <AMFile id="5495" start="4508" duration="237" scalar="1/1" mediaStart="4667/1" mediaDuration="237/1" trackNumber="1" src="4" channelNumber="0,1" >
             <Parameters>
              <InterpolatingParam id="5496" interp="linr"  time="0/1" value="1" leadInLength="0/1"  name="volume"/>
              <Parameter id="5497"  name="captions"/>
             </Parameters>
             <Attributes>
              <Attribute id="5498" value="" name="ident"/>
              <Attribute id="5499" value="48000" name="sampleRate"/>
              <Attribute id="5500" value="16" name="bitDepth"/>
              <Attribute id="5501" value="1" name="gain"/>
              <Attribute id="5502" value="0" name="mixToMono"/>
             </Attributes>
            </AMFile>
            <VMFile id="5503" start="4508" duration="237" scalar="1/1" mediaStart="4667/1" mediaDuration="237/1" trackNumber="0" src="4" >
             <Transformer>
              <VectorParam id="5504"  name="translation">
               <InterpolatingParam id="5505" interp="linr"  time="-9999999/1" value="0" leadInLength="0/1"  />
               <InterpolatingParam id="5506" interp="linr"  time="-9999999/1" value="0" leadInLength="0/1"  />
               <InterpolatingParam id="5507" interp="linr"  time="-9999999/1" value="0" leadInLength="0/1"  />
              </VectorParam>
              <VectorParam id="5508"  name="rotation">
               <InterpolatingParam id="5509" interp="linr"  time="-9999999/1" value="0" leadInLength="0/1"  />
               <InterpolatingParam id="5510" interp="linr"  time="-9999999/1" value="0" leadInLength="0/1"  />
               <InterpolatingParam id="5511" interp="linr"  time="-9999999/1" value="0" leadInLength="0/1"  />
              </VectorParam>
              <VectorParam id="5512"  name="shear">
               <InterpolatingParam id="5513" interp="linr"  time="-9999999/1" value="0" leadInLength="0/1"  />
               <InterpolatingParam id="5514" interp="linr"  time="-9999999/1" value="0" leadInLength="0/1"  />
               <InterpolatingParam id="5515" interp="linr"  time="-9999999/1" value="0" leadInLength="0/1"  />
              </VectorParam>
              <VectorParam id="5516"  name="scale">
               <InterpolatingParam id="5517" interp="linr"  time="-9999999/1" value="1" leadInLength="0/1"  />
               <InterpolatingParam id="5518" interp="linr"  time="-9999999/1" value="1" leadInLength="0/1"  />
               <InterpolatingParam id="5519" interp="linr"  time="-9999999/1" value="1" leadInLength="0/1"  />
              </VectorParam>
              <VectorParam id="5520"  name="anchor">
               <InterpolatingParam id="5521" interp="linr"  time="0/1" value="0" leadInLength="0/1"  />
               <InterpolatingParam id="5522" interp="linr"  time="0/1" value="0" leadInLength="0/1"  />
               <InterpolatingParam id="5523" interp="linr"  time="0/1" value="0" leadInLength="0/1"  />
              </VectorParam>
             </Transformer>
             <Parameters>
              <VectorParam id="5524"  name="sourceCrop">
               <InterpolatingParam id="5525" interp="linr"  time="0/1" value="0" leadInLength="0/1"  />
               <InterpolatingParam id="5526" interp="linr"  time="0/1" value="0" leadInLength="0/1"  />
               <InterpolatingParam id="5527" interp="linr"  time="0/1" value="0" leadInLength="0/1"  />
               <InterpolatingParam id="5528" interp="linr"  time="0/1" value="0" leadInLength="0/1"  />
              </VectorParam>
              <VectorParam id="5529"  name="geometryCrop">
               <InterpolatingParam id="5530" interp="linr"  time="-9999999/1" value="0" leadInLength="0/1"  />
               <InterpolatingParam id="5531" interp="linr"  time="-9999999/1" value="0" leadInLength="0/1"  />
               <InterpolatingParam id="5532" interp="linr"  time="-9999999/1" value="0" leadInLength="0/1"  />
               <InterpolatingParam id="5533" interp="linr"  time="-9999999/1" value="0" leadInLength="0/1"  />
              </VectorParam>
              <InterpolatingParam id="5534" interp="linr"  time="-9999999/1" value="1" leadInLength="0/1"  name="opacity"/>
             </Parameters>
             <Attributes>
              <Attribute id="5535" value="" name="ident"/>
             </Attributes>
             <ExtraData>
              <Entry key="ZoomPanBin">
               <ZoomPanBin id="5536"  >
                <ZoomPanKeyframes>
                </ZoomPanKeyframes>
               </ZoomPanBin>
              </Entry>
             </ExtraData>
            </VMFile>
            <MetaData>
             <entry key="WinSubProjectDisplayName" val=""/>
            </MetaData>
           </UnifiedMedia>
           <UnifiedMedia id="5537"  >
            <AMFile id="5538" start="4745" duration="161" scalar="1/1" mediaStart="4918/1" mediaDuration="161/1" trackNumber="1" src="4" channelNumber="0,1" >
             <Parameters>
              <InterpolatingParam id="5539" interp="linr"  time="0/1" value="1" leadInLength="0/1"  name="volume"/>
              <Parameter id="5540"  name="captions"/>
             </Parameters>
             <Attributes>
              <Attribute id="5541" value="" name="ident"/>
              <Attribute id="5542" value="48000" name="sampleRate"/>
              <Attribute id="5543" value="16" name="bitDepth"/>
              <Attribute id="5544" value="1" name="gain"/>
              <Attribute id="5545" value="0" name="mixToMono"/>
             </Attributes>
            </AMFile>
            <VMFile id="5546" start="4745" duration="161" scalar="1/1" mediaStart="4918/1" mediaDuration="161/1" trackNumber="0" src="4" >
             <Transformer>
              <VectorParam id="5547"  name="translation">
               <InterpolatingParam id="5548" interp="linr"  time="-9999999/1" value="0" leadInLength="0/1"  />
               <InterpolatingParam id="5549" interp="linr"  time="-9999999/1" value="0" leadInLength="0/1"  />
               <InterpolatingParam id="5550" interp="linr"  time="-9999999/1" value="0" leadInLength="0/1"  />
              </VectorParam>
              <VectorParam id="5551"  name="rotation">
               <InterpolatingParam id="5552" interp="linr"  time="-9999999/1" value="0" leadInLength="0/1"  />
               <InterpolatingParam id="5553" interp="linr"  time="-9999999/1" value="0" leadInLength="0/1"  />
               <InterpolatingParam id="5554" interp="linr"  time="-9999999/1" value="0" leadInLength="0/1"  />
              </VectorParam>
              <VectorParam id="5555"  name="shear">
               <InterpolatingParam id="5556" interp="linr"  time="-9999999/1" value="0" leadInLength="0/1"  />
               <InterpolatingParam id="5557" interp="linr"  time="-9999999/1" value="0" leadInLength="0/1"  />
               <InterpolatingParam id="5558" interp="linr"  time="-9999999/1" value="0" leadInLength="0/1"  />
              </VectorParam>
              <VectorParam id="5559"  name="scale">
               <InterpolatingParam id="5560" interp="linr"  time="-9999999/1" value="1" leadInLength="0/1"  />
               <InterpolatingParam id="5561" interp="linr"  time="-9999999/1" value="1" leadInLength="0/1"  />
               <InterpolatingParam id="5562" interp="linr"  time="-9999999/1" value="1" leadInLength="0/1"  />
              </VectorParam>
              <VectorParam id="5563"  name="anchor">
               <InterpolatingParam id="5564" interp="linr"  time="0/1" value="0" leadInLength="0/1"  />
               <InterpolatingParam id="5565" interp="linr"  time="0/1" value="0" leadInLength="0/1"  />
               <InterpolatingParam id="5566" interp="linr"  time="0/1" value="0" leadInLength="0/1"  />
              </VectorParam>
             </Transformer>
             <Parameters>
              <VectorParam id="5567"  name="sourceCrop">
               <InterpolatingParam id="5568" interp="linr"  time="0/1" value="0" leadInLength="0/1"  />
               <InterpolatingParam id="5569" interp="linr"  time="0/1" value="0" leadInLength="0/1"  />
               <InterpolatingParam id="5570" interp="linr"  time="0/1" value="0" leadInLength="0/1"  />
               <InterpolatingParam id="5571" interp="linr"  time="0/1" value="0" leadInLength="0/1"  />
              </VectorParam>
              <VectorParam id="5572"  name="geometryCrop">
               <InterpolatingParam id="5573" interp="linr"  time="-9999999/1" value="0" leadInLength="0/1"  />
               <InterpolatingParam id="5574" interp="linr"  time="-9999999/1" value="0" leadInLength="0/1"  />
               <InterpolatingParam id="5575" interp="linr"  time="-9999999/1" value="0" leadInLength="0/1"  />
               <InterpolatingParam id="5576" interp="linr"  time="-9999999/1" value="0" leadInLength="0/1"  />
              </VectorParam>
              <InterpolatingParam id="5577" interp="linr"  time="-9999999/1" value="1" leadInLength="0/1"  name="opacity"/>
             </Parameters>
             <Attributes>
              <Attribute id="5578" value="" name="ident"/>
             </Attributes>
             <ExtraData>
              <Entry key="ZoomPanBin">
               <ZoomPanBin id="5579"  >
                <ZoomPanKeyframes>
                </ZoomPanKeyframes>
               </ZoomPanBin>
              </Entry>
             </ExtraData>
            </VMFile>
            <MetaData>
             <entry key="WinSubProjectDisplayName" val=""/>
            </MetaData>
           </UnifiedMedia>
           <UnifiedMedia id="5580"  >
            <AMFile id="5581" start="4906" duration="502" scalar="1/1" mediaStart="5131/1" mediaDuration="502/1" trackNumber="1" src="4" channelNumber="0,1" >
             <Parameters>
              <InterpolatingParam id="5582" interp="linr"  time="0/1" value="1" leadInLength="0/1"  name="volume"/>
              <Parameter id="5583"  name="captions"/>
             </Parameters>
             <Attributes>
              <Attribute id="5584" value="" name="ident"/>
              <Attribute id="5585" value="48000" name="sampleRate"/>
              <Attribute id="5586" value="16" name="bitDepth"/>
              <Attribute id="5587" value="1" name="gain"/>
              <Attribute id="5588" value="0" name="mixToMono"/>
             </Attributes>
            </AMFile>
            <VMFile id="5589" start="4906" duration="502" scalar="1/1" mediaStart="5131/1" mediaDuration="502/1" trackNumber="0" src="4" >
             <Transformer>
              <VectorParam id="5590"  name="translation">
               <InterpolatingParam id="5591" interp="linr"  time="-9999999/1" value="0" leadInLength="0/1"  />
               <InterpolatingParam id="5592" interp="linr"  time="-9999999/1" value="0" leadInLength="0/1"  />
               <InterpolatingParam id="5593" interp="linr"  time="-9999999/1" value="0" leadInLength="0/1"  />
              </VectorParam>
              <VectorParam id="5594"  name="rotation">
               <InterpolatingParam id="5595" interp="linr"  time="-9999999/1" value="0" leadInLength="0/1"  />
               <InterpolatingParam id="5596" interp="linr"  time="-9999999/1" value="0" leadInLength="0/1"  />
               <InterpolatingParam id="5597" interp="linr"  time="-9999999/1" value="0" leadInLength="0/1"  />
              </VectorParam>
              <VectorParam id="5598"  name="shear">
               <InterpolatingParam id="5599" interp="linr"  time="-9999999/1" value="0" leadInLength="0/1"  />
               <InterpolatingParam id="5600" interp="linr"  time="-9999999/1" value="0" leadInLength="0/1"  />
               <InterpolatingParam id="5601" interp="linr"  time="-9999999/1" value="0" leadInLength="0/1"  />
              </VectorParam>
              <VectorParam id="5602"  name="scale">
               <InterpolatingParam id="5603" interp="linr"  time="-9999999/1" value="1" leadInLength="0/1"  />
               <InterpolatingParam id="5604" interp="linr"  time="-9999999/1" value="1" leadInLength="0/1"  />
               <InterpolatingParam id="5605" interp="linr"  time="-9999999/1" value="1" leadInLength="0/1"  />
              </VectorParam>
              <VectorParam id="5606"  name="anchor">
               <InterpolatingParam id="5607" interp="linr"  time="0/1" value="0" leadInLength="0/1"  />
               <InterpolatingParam id="5608" interp="linr"  time="0/1" value="0" leadInLength="0/1"  />
               <InterpolatingParam id="5609" interp="linr"  time="0/1" value="0" leadInLength="0/1"  />
              </VectorParam>
             </Transformer>
             <Parameters>
              <VectorParam id="5610"  name="sourceCrop">
               <InterpolatingParam id="5611" interp="linr"  time="0/1" value="0" leadInLength="0/1"  />
               <InterpolatingParam id="5612" interp="linr"  time="0/1" value="0" leadInLength="0/1"  />
               <InterpolatingParam id="5613" interp="linr"  time="0/1" value="0" leadInLength="0/1"  />
               <InterpolatingParam id="5614" interp="linr"  time="0/1" value="0" leadInLength="0/1"  />
              </VectorParam>
              <VectorParam id="5615"  name="geometryCrop">
               <InterpolatingParam id="5616" interp="linr"  time="-9999999/1" value="0" leadInLength="0/1"  />
               <InterpolatingParam id="5617" interp="linr"  time="-9999999/1" value="0" leadInLength="0/1"  />
               <InterpolatingParam id="5618" interp="linr"  time="-9999999/1" value="0" leadInLength="0/1"  />
               <InterpolatingParam id="5619" interp="linr"  time="-9999999/1" value="0" leadInLength="0/1"  />
              </VectorParam>
              <InterpolatingParam id="5620" interp="linr"  time="-9999999/1" value="1" leadInLength="0/1"  name="opacity"/>
             </Parameters>
             <Attributes>
              <Attribute id="5621" value="" name="ident"/>
             </Attributes>
             <ExtraData>
              <Entry key="ZoomPanBin">
               <ZoomPanBin id="5622"  >
                <ZoomPanKeyframes>
                </ZoomPanKeyframes>
               </ZoomPanBin>
              </Entry>
             </ExtraData>
            </VMFile>
            <MetaData>
             <entry key="WinSubProjectDisplayName" val=""/>
            </MetaData>
           </UnifiedMedia>
           <UnifiedMedia id="5623"  >
            <AMFile id="5624" start="5408" duration="590" scalar="1/1" mediaStart="5655/1" mediaDuration="590/1" trackNumber="1" src="4" channelNumber="0,1" >
             <Parameters>
              <InterpolatingParam id="5625" interp="linr"  time="0/1" value="1" leadInLength="0/1"  name="volume"/>
              <Parameter id="5626"  name="captions"/>
             </Parameters>
             <Attributes>
              <Attribute id="5627" value="" name="ident"/>
              <Attribute id="5628" value="48000" name="sampleRate"/>
              <Attribute id="5629" value="16" name="bitDepth"/>
              <Attribute id="5630" value="1" name="gain"/>
              <Attribute id="5631" value="0" name="mixToMono"/>
             </Attributes>
            </AMFile>
            <VMFile id="5632" start="5408" duration="590" scalar="1/1" mediaStart="5655/1" mediaDuration="590/1" trackNumber="0" src="4" >
             <Transformer>
              <VectorParam id="5633"  name="translation">
               <InterpolatingParam id="5634" interp="linr"  time="-9999999/1" value="0" leadInLength="0/1"  />
               <InterpolatingParam id="5635" interp="linr"  time="-9999999/1" value="0" leadInLength="0/1"  />
               <InterpolatingParam id="5636" interp="linr"  time="-9999999/1" value="0" leadInLength="0/1"  />
              </VectorParam>
              <VectorParam id="5637"  name="rotation">
               <InterpolatingParam id="5638" interp="linr"  time="-9999999/1" value="0" leadInLength="0/1"  />
               <InterpolatingParam id="5639" interp="linr"  time="-9999999/1" value="0" leadInLength="0/1"  />
               <InterpolatingParam id="5640" interp="linr"  time="-9999999/1" value="0" leadInLength="0/1"  />
              </VectorParam>
              <VectorParam id="5641"  name="shear">
               <InterpolatingParam id="5642" interp="linr"  time="-9999999/1" value="0" leadInLength="0/1"  />
               <InterpolatingParam id="5643" interp="linr"  time="-9999999/1" value="0" leadInLength="0/1"  />
               <InterpolatingParam id="5644" interp="linr"  time="-9999999/1" value="0" leadInLength="0/1"  />
              </VectorParam>
              <VectorParam id="5645"  name="scale">
               <InterpolatingParam id="5646" interp="linr"  time="-9999999/1" value="1" leadInLength="0/1"  />
               <InterpolatingParam id="5647" interp="linr"  time="-9999999/1" value="1" leadInLength="0/1"  />
               <InterpolatingParam id="5648" interp="linr"  time="-9999999/1" value="1" leadInLength="0/1"  />
              </VectorParam>
              <VectorParam id="5649"  name="anchor">
               <InterpolatingParam id="5650" interp="linr"  time="0/1" value="0" leadInLength="0/1"  />
               <InterpolatingParam id="5651" interp="linr"  time="0/1" value="0" leadInLength="0/1"  />
               <InterpolatingParam id="5652" interp="linr"  time="0/1" value="0" leadInLength="0/1"  />
              </VectorParam>
             </Transformer>
             <Parameters>
              <VectorParam id="5653"  name="sourceCrop">
               <InterpolatingParam id="5654" interp="linr"  time="0/1" value="0" leadInLength="0/1"  />
               <InterpolatingParam id="5655" interp="linr"  time="0/1" value="0" leadInLength="0/1"  />
               <InterpolatingParam id="5656" interp="linr"  time="0/1" value="0" leadInLength="0/1"  />
               <InterpolatingParam id="5657" interp="linr"  time="0/1" value="0" leadInLength="0/1"  />
              </VectorParam>
              <VectorParam id="5658"  name="geometryCrop">
               <InterpolatingParam id="5659" interp="linr"  time="-9999999/1" value="0" leadInLength="0/1"  />
               <InterpolatingParam id="5660" interp="linr"  time="-9999999/1" value="0" leadInLength="0/1"  />
               <InterpolatingParam id="5661" interp="linr"  time="-9999999/1" value="0" leadInLength="0/1"  />
               <InterpolatingParam id="5662" interp="linr"  time="-9999999/1" value="0" leadInLength="0/1"  />
              </VectorParam>
              <InterpolatingParam id="5663" interp="linr"  time="-9999999/1" value="1" leadInLength="0/1"  name="opacity"/>
             </Parameters>
             <Attributes>
              <Attribute id="5664" value="" name="ident"/>
             </Attributes>
             <ExtraData>
              <Entry key="ZoomPanBin">
               <ZoomPanBin id="5665"  >
                <ZoomPanKeyframes>
                </ZoomPanKeyframes>
               </ZoomPanBin>
              </Entry>
             </ExtraData>
            </VMFile>
            <MetaData>
             <entry key="WinSubProjectDisplayName" val=""/>
            </MetaData>
           </UnifiedMedia>
           <UnifiedMedia id="5666"  >
            <AMFile id="5667" start="5998" duration="77" scalar="1/1" mediaStart="6277/1" mediaDuration="77/1" trackNumber="1" src="4" channelNumber="0,1" >
             <Parameters>
              <InterpolatingParam id="5668" interp="linr"  time="0/1" value="1" leadInLength="0/1"  name="volume"/>
              <Parameter id="5669"  name="captions"/>
             </Parameters>
             <Attributes>
              <Attribute id="5670" value="" name="ident"/>
              <Attribute id="5671" value="48000" name="sampleRate"/>
              <Attribute id="5672" value="16" name="bitDepth"/>
              <Attribute id="5673" value="1" name="gain"/>
              <Attribute id="5674" value="0" name="mixToMono"/>
             </Attributes>
            </AMFile>
            <VMFile id="5675" start="5998" duration="77" scalar="1/1" mediaStart="6277/1" mediaDuration="77/1" trackNumber="0" src="4" >
             <Transformer>
              <VectorParam id="5676"  name="translation">
               <InterpolatingParam id="5677" interp="linr"  time="-9999999/1" value="0" leadInLength="0/1"  />
               <InterpolatingParam id="5678" interp="linr"  time="-9999999/1" value="0" leadInLength="0/1"  />
               <InterpolatingParam id="5679" interp="linr"  time="-9999999/1" value="0" leadInLength="0/1"  />
              </VectorParam>
              <VectorParam id="5680"  name="rotation">
               <InterpolatingParam id="5681" interp="linr"  time="-9999999/1" value="0" leadInLength="0/1"  />
               <InterpolatingParam id="5682" interp="linr"  time="-9999999/1" value="0" leadInLength="0/1"  />
               <InterpolatingParam id="5683" interp="linr"  time="-9999999/1" value="0" leadInLength="0/1"  />
              </VectorParam>
              <VectorParam id="5684"  name="shear">
               <InterpolatingParam id="5685" interp="linr"  time="-9999999/1" value="0" leadInLength="0/1"  />
               <InterpolatingParam id="5686" interp="linr"  time="-9999999/1" value="0" leadInLength="0/1"  />
               <InterpolatingParam id="5687" interp="linr"  time="-9999999/1" value="0" leadInLength="0/1"  />
              </VectorParam>
              <VectorParam id="5688"  name="scale">
               <InterpolatingParam id="5689" interp="linr"  time="-9999999/1" value="1" leadInLength="0/1"  />
               <InterpolatingParam id="5690" interp="linr"  time="-9999999/1" value="1" leadInLength="0/1"  />
               <InterpolatingParam id="5691" interp="linr"  time="-9999999/1" value="1" leadInLength="0/1"  />
              </VectorParam>
              <VectorParam id="5692"  name="anchor">
               <InterpolatingParam id="5693" interp="linr"  time="0/1" value="0" leadInLength="0/1"  />
               <InterpolatingParam id="5694" interp="linr"  time="0/1" value="0" leadInLength="0/1"  />
               <InterpolatingParam id="5695" interp="linr"  time="0/1" value="0" leadInLength="0/1"  />
              </VectorParam>
             </Transformer>
             <Parameters>
              <VectorParam id="5696"  name="sourceCrop">
               <InterpolatingParam id="5697" interp="linr"  time="0/1" value="0" leadInLength="0/1"  />
               <InterpolatingParam id="5698" interp="linr"  time="0/1" value="0" leadInLength="0/1"  />
               <InterpolatingParam id="5699" interp="linr"  time="0/1" value="0" leadInLength="0/1"  />
               <InterpolatingParam id="5700" interp="linr"  time="0/1" value="0" leadInLength="0/1"  />
              </VectorParam>
              <VectorParam id="5701"  name="geometryCrop">
               <InterpolatingParam id="5702" interp="linr"  time="-9999999/1" value="0" leadInLength="0/1"  />
               <InterpolatingParam id="5703" interp="linr"  time="-9999999/1" value="0" leadInLength="0/1"  />
               <InterpolatingParam id="5704" interp="linr"  time="-9999999/1" value="0" leadInLength="0/1"  />
               <InterpolatingParam id="5705" interp="linr"  time="-9999999/1" value="0" leadInLength="0/1"  />
              </VectorParam>
              <InterpolatingParam id="5706" interp="linr"  time="-9999999/1" value="1" leadInLength="0/1"  name="opacity"/>
             </Parameters>
             <Attributes>
              <Attribute id="5707" value="" name="ident"/>
             </Attributes>
             <ExtraData>
              <Entry key="ZoomPanBin">
               <ZoomPanBin id="5708"  >
                <ZoomPanKeyframes>
                </ZoomPanKeyframes>
               </ZoomPanBin>
              </Entry>
             </ExtraData>
            </VMFile>
            <MetaData>
             <entry key="WinSubProjectDisplayName" val=""/>
            </MetaData>
           </UnifiedMedia>
           <UnifiedMedia id="5709"  >
            <AMFile id="5710" start="6075" duration="82" scalar="1/1" mediaStart="6393/1" mediaDuration="82/1" trackNumber="1" src="4" channelNumber="0,1" >
             <Parameters>
              <InterpolatingParam id="5711" interp="linr"  time="0/1" value="1" leadInLength="0/1"  name="volume"/>
              <Parameter id="5712"  name="captions"/>
             </Parameters>
             <Attributes>
              <Attribute id="5713" value="" name="ident"/>
              <Attribute id="5714" value="48000" name="sampleRate"/>
              <Attribute id="5715" value="16" name="bitDepth"/>
              <Attribute id="5716" value="1" name="gain"/>
              <Attribute id="5717" value="0" name="mixToMono"/>
             </Attributes>
            </AMFile>
            <VMFile id="5718" start="6075" duration="82" scalar="1/1" mediaStart="6393/1" mediaDuration="82/1" trackNumber="0" src="4" >
             <Transformer>
              <VectorParam id="5719"  name="translation">
               <InterpolatingParam id="5720" interp="linr"  time="-9999999/1" value="0" leadInLength="0/1"  />
               <InterpolatingParam id="5721" interp="linr"  time="-9999999/1" value="0" leadInLength="0/1"  />
               <InterpolatingParam id="5722" interp="linr"  time="-9999999/1" value="0" leadInLength="0/1"  />
              </VectorParam>
              <VectorParam id="5723"  name="rotation">
               <InterpolatingParam id="5724" interp="linr"  time="-9999999/1" value="0" leadInLength="0/1"  />
               <InterpolatingParam id="5725" interp="linr"  time="-9999999/1" value="0" leadInLength="0/1"  />
               <InterpolatingParam id="5726" interp="linr"  time="-9999999/1" value="0" leadInLength="0/1"  />
              </VectorParam>
              <VectorParam id="5727"  name="shear">
               <InterpolatingParam id="5728" interp="linr"  time="-9999999/1" value="0" leadInLength="0/1"  />
               <InterpolatingParam id="5729" interp="linr"  time="-9999999/1" value="0" leadInLength="0/1"  />
               <InterpolatingParam id="5730" interp="linr"  time="-9999999/1" value="0" leadInLength="0/1"  />
              </VectorParam>
              <VectorParam id="5731"  name="scale">
               <InterpolatingParam id="5732" interp="linr"  time="-9999999/1" value="1" leadInLength="0/1"  />
               <InterpolatingParam id="5733" interp="linr"  time="-9999999/1" value="1" leadInLength="0/1"  />
               <InterpolatingParam id="5734" interp="linr"  time="-9999999/1" value="1" leadInLength="0/1"  />
              </VectorParam>
              <VectorParam id="5735"  name="anchor">
               <InterpolatingParam id="5736" interp="linr"  time="0/1" value="0" leadInLength="0/1"  />
               <InterpolatingParam id="5737" interp="linr"  time="0/1" value="0" leadInLength="0/1"  />
               <InterpolatingParam id="5738" interp="linr"  time="0/1" value="0" leadInLength="0/1"  />
              </VectorParam>
             </Transformer>
             <Parameters>
              <VectorParam id="5739"  name="sourceCrop">
               <InterpolatingParam id="5740" interp="linr"  time="0/1" value="0" leadInLength="0/1"  />
               <InterpolatingParam id="5741" interp="linr"  time="0/1" value="0" leadInLength="0/1"  />
               <InterpolatingParam id="5742" interp="linr"  time="0/1" value="0" leadInLength="0/1"  />
               <InterpolatingParam id="5743" interp="linr"  time="0/1" value="0" leadInLength="0/1"  />
              </VectorParam>
              <VectorParam id="5744"  name="geometryCrop">
               <InterpolatingParam id="5745" interp="linr"  time="-9999999/1" value="0" leadInLength="0/1"  />
               <InterpolatingParam id="5746" interp="linr"  time="-9999999/1" value="0" leadInLength="0/1"  />
               <InterpolatingParam id="5747" interp="linr"  time="-9999999/1" value="0" leadInLength="0/1"  />
               <InterpolatingParam id="5748" interp="linr"  time="-9999999/1" value="0" leadInLength="0/1"  />
              </VectorParam>
              <InterpolatingParam id="5749" interp="linr"  time="-9999999/1" value="1" leadInLength="0/1"  name="opacity"/>
             </Parameters>
             <Attributes>
              <Attribute id="5750" value="" name="ident"/>
             </Attributes>
             <ExtraData>
              <Entry key="ZoomPanBin">
               <ZoomPanBin id="5751"  >
                <ZoomPanKeyframes>
                </ZoomPanKeyframes>
               </ZoomPanBin>
              </Entry>
             </ExtraData>
            </VMFile>
            <MetaData>
             <entry key="WinSubProjectDisplayName" val=""/>
            </MetaData>
           </UnifiedMedia>
           <UnifiedMedia id="5752"  >
            <AMFile id="5753" start="6157" duration="2268" scalar="1/1" mediaStart="6528/1" mediaDuration="2268/1" trackNumber="1" src="4" channelNumber="0,1" >
             <Parameters>
              <InterpolatingParam id="5754" interp="linr"  time="0/1" value="1" leadInLength="0/1"  name="volume"/>
              <Parameter id="5755"  name="captions"/>
             </Parameters>
             <Attributes>
              <Attribute id="5756" value="" name="ident"/>
              <Attribute id="5757" value="48000" name="sampleRate"/>
              <Attribute id="5758" value="16" name="bitDepth"/>
              <Attribute id="5759" value="1" name="gain"/>
              <Attribute id="5760" value="0" name="mixToMono"/>
             </Attributes>
            </AMFile>
            <VMFile id="5761" start="6157" duration="2268" scalar="1/1" mediaStart="6528/1" mediaDuration="2268/1" trackNumber="0" src="4" >
             <Transformer>
              <VectorParam id="5762"  name="translation">
               <InterpolatingParam id="5763" interp="linr"  time="-9999999/1" value="0" leadInLength="0/1"  />
               <InterpolatingParam id="5764" interp="linr"  time="-9999999/1" value="0" leadInLength="0/1"  />
               <InterpolatingParam id="5765" interp="linr"  time="-9999999/1" value="0" leadInLength="0/1"  />
              </VectorParam>
              <VectorParam id="5766"  name="rotation">
               <InterpolatingParam id="5767" interp="linr"  time="-9999999/1" value="0" leadInLength="0/1"  />
               <InterpolatingParam id="5768" interp="linr"  time="-9999999/1" value="0" leadInLength="0/1"  />
               <InterpolatingParam id="5769" interp="linr"  time="-9999999/1" value="0" leadInLength="0/1"  />
              </VectorParam>
              <VectorParam id="5770"  name="shear">
               <InterpolatingParam id="5771" interp="linr"  time="-9999999/1" value="0" leadInLength="0/1"  />
               <InterpolatingParam id="5772" interp="linr"  time="-9999999/1" value="0" leadInLength="0/1"  />
               <InterpolatingParam id="5773" interp="linr"  time="-9999999/1" value="0" leadInLength="0/1"  />
              </VectorParam>
              <VectorParam id="5774"  name="scale">
               <InterpolatingParam id="5775" interp="linr"  time="-9999999/1" value="1" leadInLength="0/1"  />
               <InterpolatingParam id="5776" interp="linr"  time="-9999999/1" value="1" leadInLength="0/1"  />
               <InterpolatingParam id="5777" interp="linr"  time="-9999999/1" value="1" leadInLength="0/1"  />
              </VectorParam>
              <VectorParam id="5778"  name="anchor">
               <InterpolatingParam id="5779" interp="linr"  time="0/1" value="0" leadInLength="0/1"  />
               <InterpolatingParam id="5780" interp="linr"  time="0/1" value="0" leadInLength="0/1"  />
               <InterpolatingParam id="5781" interp="linr"  time="0/1" value="0" leadInLength="0/1"  />
              </VectorParam>
             </Transformer>
             <Parameters>
              <VectorParam id="5782"  name="sourceCrop">
               <InterpolatingParam id="5783" interp="linr"  time="0/1" value="0" leadInLength="0/1"  />
               <InterpolatingParam id="5784" interp="linr"  time="0/1" value="0" leadInLength="0/1"  />
               <InterpolatingParam id="5785" interp="linr"  time="0/1" value="0" leadInLength="0/1"  />
               <InterpolatingParam id="5786" interp="linr"  time="0/1" value="0" leadInLength="0/1"  />
              </VectorParam>
              <VectorParam id="5787"  name="geometryCrop">
               <InterpolatingParam id="5788" interp="linr"  time="-9999999/1" value="0" leadInLength="0/1"  />
               <InterpolatingParam id="5789" interp="linr"  time="-9999999/1" value="0" leadInLength="0/1"  />
               <InterpolatingParam id="5790" interp="linr"  time="-9999999/1" value="0" leadInLength="0/1"  />
               <InterpolatingParam id="5791" interp="linr"  time="-9999999/1" value="0" leadInLength="0/1"  />
              </VectorParam>
              <InterpolatingParam id="5792" interp="linr"  time="-9999999/1" value="1" leadInLength="0/1"  name="opacity"/>
             </Parameters>
             <Attributes>
              <Attribute id="5793" value="" name="ident"/>
             </Attributes>
             <ExtraData>
              <Entry key="ZoomPanBin">
               <ZoomPanBin id="5794"  >
                <ZoomPanKeyframes>
                </ZoomPanKeyframes>
               </ZoomPanBin>
              </Entry>
             </ExtraData>
            </VMFile>
            <MetaData>
             <entry key="WinSubProjectDisplayName" val=""/>
            </MetaData>
           </UnifiedMedia>
          </Medias>
         </GenericTrack>
        </StitchedMedia>
        <StitchedMedia id="5795" start="3154" duration="4111" scalar="1/1" mediaStart="3194/1" mediaDuration="4111/1" minMediaStart="0/1" >
         <Transformer>
          <VectorParam id="5796"  name="translation">
           <InterpolatingParam id="5797" interp="linr"  time="-9999999/1" value="574.63125870155341" leadInLength="0/1"  />
           <InterpolatingParam id="5798" interp="linr"  time="-9999999/1" value="-292.43665240012643" leadInLength="0/1"  />
           <InterpolatingParam id="5799" interp="linr"  time="-9999999/1" value="0" leadInLength="0/1"  />
          </VectorParam>
          <VectorParam id="5800"  name="rotation">
           <InterpolatingParam id="5801" interp="linr"  time="-9999999/1" value="0" leadInLength="0/1"  />
           <InterpolatingParam id="5802" interp="linr"  time="-9999999/1" value="0" leadInLength="0/1"  />
           <InterpolatingParam id="5803" interp="linr"  time="-9999999/1" value="0" leadInLength="0/1"  />
          </VectorParam>
          <VectorParam id="5804"  name="shear">
           <InterpolatingParam id="5805" interp="linr"  time="-9999999/1" value="0" leadInLength="0/1"  />
           <InterpolatingParam id="5806" interp="linr"  time="-9999999/1" value="0" leadInLength="0/1"  />
           <InterpolatingParam id="5807" interp="linr"  time="-9999999/1" value="0" leadInLength="0/1"  />
          </VectorParam>
          <VectorParam id="5808"  name="scale">
           <InterpolatingParam id="5809" interp="linr"  time="-9999999/1" value="0.21085271317836307" leadInLength="0/1"  />
           <InterpolatingParam id="5810" interp="linr"  time="-9999999/1" value="0.2108527131783631" leadInLength="0/1"  />
           <InterpolatingParam id="5811" interp="linr"  time="-9999999/1" value="1" leadInLength="0/1"  />
          </VectorParam>
          <VectorParam id="5812"  name="anchor">
           <InterpolatingParam id="5813" interp="linr"  time="0/1" value="0" leadInLength="0/1"  />
           <InterpolatingParam id="5814" interp="linr"  time="0/1" value="0" leadInLength="0/1"  />
           <InterpolatingParam id="5815" interp="linr"  time="0/1" value="0" leadInLength="0/1"  />
          </VectorParam>
         </Transformer>
         <Parameters>
          <VectorParam id="5816"  name="sourceCrop">
           <InterpolatingParam id="5817" interp="linr"  time="0/1" value="0" leadInLength="0/1"  />
           <InterpolatingParam id="5818" interp="linr"  time="0/1" value="0" leadInLength="0/1"  />
           <InterpolatingParam id="5819" interp="linr"  time="0/1" value="0" leadInLength="0/1"  />
           <InterpolatingParam id="5820" interp="linr"  time="0/1" value="0" leadInLength="0/1"  />
          </VectorParam>
          <VectorParam id="5821"  name="geometryCrop">
           <InterpolatingParam id="5822" interp="linr"  time="-9999999/1" value="627.40576496682729" leadInLength="0/1"  />
           <InterpolatingParam id="5823" interp="linr"  time="-9999999/1" value="50.288248336816537" leadInLength="0/1"  />
           <InterpolatingParam id="5824" interp="linr"  time="-9999999/1" value="649.97913134196688" leadInLength="0/1"  />
           <InterpolatingParam id="5825" interp="linr"  time="-9999999/1" value="219.57088822111729" leadInLength="0/1"  />
          </VectorParam>
          <InterpolatingParam id="5826" interp="linr"  time="-9999999/1" value="1" leadInLength="0/1"  name="opacity"/>
          <InterpolatingParam id="5827" interp="linr"  time="0/1" value="1" leadInLength="0/1"  name="cursorOpacity"/>
          <InterpolatingParam id="5828" interp="linr"  time="0/1" value="1" leadInLength="0/1"  name="cursorScale"/>
          <InterpolatingParam id="5829" interp="linr"  time="0/1" value="1" leadInLength="0/1"  name="volume"/>
          <Parameter id="5830"  name="captions"/>
         </Parameters>
         <Attributes>
          <Attribute id="5831" value="" name="ident"/>
          <Attribute id="5832" value="0" name="mixToMono"/>
         </Attributes>
         <MetaData>
          <entry key="WinSubProjectDisplayName" val=""/>
         </MetaData>
         <ExtraData>
          <Entry key="ZoomPanBin">
           <ZoomPanBin id="5833"  >
            <ZoomPanKeyframes>
             <ZoomPanKeyframe id="5834" timeRangeEnd="-9999999/1" timeRangeDuration="0/1" interpolaterName=""  />
            </ZoomPanKeyframes>
           </ZoomPanBin>
          </Entry>
          <Entry key="CursorEffectBin">
           <CursorEffectBin id="5835"  >
            <CursorEffectKeyframes>
            </CursorEffectKeyframes>
           </CursorEffectBin>
          </Entry>
         </ExtraData>
         <GenericTrack id="5836"  >
          <Attributes>
           <Attribute id="5837" value="" name="ident"/>
           <Attribute id="5838" value="0" name="audioMuted"/>
           <Attribute id="5839" value="0" name="videoHidden"/>
          </Attributes>
          <MetaData>
           <entry key="IsLocked" val="False"/>
           <entry key="WinTrackHeight" val="0"/>
          </MetaData>
          <Medias>
           <UnifiedMedia id="5840"  >
            <AMFile id="5841" start="0" duration="30" scalar="1/1" mediaStart="0/1" mediaDuration="30/1" trackNumber="1" src="4" channelNumber="0,1" >
             <Parameters>
              <InterpolatingParam id="5842" interp="linr"  time="0/1" value="1" leadInLength="0/1"  name="volume"/>
              <Parameter id="5843"  name="captions"/>
             </Parameters>
             <Attributes>
              <Attribute id="5844" value="" name="ident"/>
              <Attribute id="5845" value="48000" name="sampleRate"/>
              <Attribute id="5846" value="16" name="bitDepth"/>
              <Attribute id="5847" value="1" name="gain"/>
              <Attribute id="5848" value="0" name="mixToMono"/>
             </Attributes>
            </AMFile>
            <VMFile id="5849" start="0" duration="30" scalar="1/1" mediaStart="0/1" mediaDuration="30/1" trackNumber="0" src="4" >
             <Transformer>
              <VectorParam id="5850"  name="translation">
               <InterpolatingParam id="5851" interp="linr"  time="-9999999/1" value="0" leadInLength="0/1"  />
               <InterpolatingParam id="5852" interp="linr"  time="-9999999/1" value="0" leadInLength="0/1"  />
               <InterpolatingParam id="5853" interp="linr"  time="-9999999/1" value="0" leadInLength="0/1"  />
              </VectorParam>
              <VectorParam id="5854"  name="rotation">
               <InterpolatingParam id="5855" interp="linr"  time="-9999999/1" value="0" leadInLength="0/1"  />
               <InterpolatingParam id="5856" interp="linr"  time="-9999999/1" value="0" leadInLength="0/1"  />
               <InterpolatingParam id="5857" interp="linr"  time="-9999999/1" value="0" leadInLength="0/1"  />
              </VectorParam>
              <VectorParam id="5858"  name="shear">
               <InterpolatingParam id="5859" interp="linr"  time="-9999999/1" value="0" leadInLength="0/1"  />
               <InterpolatingParam id="5860" interp="linr"  time="-9999999/1" value="0" leadInLength="0/1"  />
               <InterpolatingParam id="5861" interp="linr"  time="-9999999/1" value="0" leadInLength="0/1"  />
              </VectorParam>
              <VectorParam id="5862"  name="scale">
               <InterpolatingParam id="5863" interp="linr"  time="-9999999/1" value="1" leadInLength="0/1"  />
               <InterpolatingParam id="5864" interp="linr"  time="-9999999/1" value="1" leadInLength="0/1"  />
               <InterpolatingParam id="5865" interp="linr"  time="-9999999/1" value="1" leadInLength="0/1"  />
              </VectorParam>
              <VectorParam id="5866"  name="anchor">
               <InterpolatingParam id="5867" interp="linr"  time="0/1" value="0" leadInLength="0/1"  />
               <InterpolatingParam id="5868" interp="linr"  time="0/1" value="0" leadInLength="0/1"  />
               <InterpolatingParam id="5869" interp="linr"  time="0/1" value="0" leadInLength="0/1"  />
              </VectorParam>
             </Transformer>
             <Parameters>
              <VectorParam id="5870"  name="sourceCrop">
               <InterpolatingParam id="5871" interp="linr"  time="0/1" value="0" leadInLength="0/1"  />
               <InterpolatingParam id="5872" interp="linr"  time="0/1" value="0" leadInLength="0/1"  />
               <InterpolatingParam id="5873" interp="linr"  time="0/1" value="0" leadInLength="0/1"  />
               <InterpolatingParam id="5874" interp="linr"  time="0/1" value="0" leadInLength="0/1"  />
              </VectorParam>
              <VectorParam id="5875"  name="geometryCrop">
               <InterpolatingParam id="5876" interp="linr"  time="-9999999/1" value="0" leadInLength="0/1"  />
               <InterpolatingParam id="5877" interp="linr"  time="-9999999/1" value="0" leadInLength="0/1"  />
               <InterpolatingParam id="5878" interp="linr"  time="-9999999/1" value="0" leadInLength="0/1"  />
               <InterpolatingParam id="5879" interp="linr"  time="-9999999/1" value="0" leadInLength="0/1"  />
              </VectorParam>
              <InterpolatingParam id="5880" interp="linr"  time="-9999999/1" value="1" leadInLength="0/1"  name="opacity"/>
             </Parameters>
             <Attributes>
              <Attribute id="5881" value="" name="ident"/>
             </Attributes>
             <ExtraData>
              <Entry key="ZoomPanBin">
               <ZoomPanBin id="5882"  >
                <ZoomPanKeyframes>
                 <ZoomPanKeyframe id="5883" timeRangeEnd="-9999999/1" timeRangeDuration="0/1" interpolaterName=""  />
                </ZoomPanKeyframes>
               </ZoomPanBin>
              </Entry>
             </ExtraData>
            </VMFile>
            <MetaData>
             <entry key="WinSubProjectDisplayName" val=""/>
            </MetaData>
           </UnifiedMedia>
           <UnifiedMedia id="5884"  >
            <AMFile id="5885" start="30" duration="350" scalar="1/1" mediaStart="154/1" mediaDuration="350/1" trackNumber="1" src="4" channelNumber="0,1" >
             <Parameters>
              <InterpolatingParam id="5886" interp="linr"  time="0/1" value="1" leadInLength="0/1"  name="volume"/>
              <Parameter id="5887"  name="captions"/>
             </Parameters>
             <Attributes>
              <Attribute id="5888" value="" name="ident"/>
              <Attribute id="5889" value="48000" name="sampleRate"/>
              <Attribute id="5890" value="16" name="bitDepth"/>
              <Attribute id="5891" value="1" name="gain"/>
              <Attribute id="5892" value="0" name="mixToMono"/>
             </Attributes>
            </AMFile>
            <VMFile id="5893" start="30" duration="350" scalar="1/1" mediaStart="154/1" mediaDuration="350/1" trackNumber="0" src="4" >
             <Transformer>
              <VectorParam id="5894"  name="translation">
               <InterpolatingParam id="5895" interp="linr"  time="-9999999/1" value="0" leadInLength="0/1"  />
               <InterpolatingParam id="5896" interp="linr"  time="-9999999/1" value="0" leadInLength="0/1"  />
               <InterpolatingParam id="5897" interp="linr"  time="-9999999/1" value="0" leadInLength="0/1"  />
              </VectorParam>
              <VectorParam id="5898"  name="rotation">
               <InterpolatingParam id="5899" interp="linr"  time="-9999999/1" value="0" leadInLength="0/1"  />
               <InterpolatingParam id="5900" interp="linr"  time="-9999999/1" value="0" leadInLength="0/1"  />
               <InterpolatingParam id="5901" interp="linr"  time="-9999999/1" value="0" leadInLength="0/1"  />
              </VectorParam>
              <VectorParam id="5902"  name="shear">
               <InterpolatingParam id="5903" interp="linr"  time="-9999999/1" value="0" leadInLength="0/1"  />
               <InterpolatingParam id="5904" interp="linr"  time="-9999999/1" value="0" leadInLength="0/1"  />
               <InterpolatingParam id="5905" interp="linr"  time="-9999999/1" value="0" leadInLength="0/1"  />
              </VectorParam>
              <VectorParam id="5906"  name="scale">
               <InterpolatingParam id="5907" interp="linr"  time="-9999999/1" value="1" leadInLength="0/1"  />
               <InterpolatingParam id="5908" interp="linr"  time="-9999999/1" value="1" leadInLength="0/1"  />
               <InterpolatingParam id="5909" interp="linr"  time="-9999999/1" value="1" leadInLength="0/1"  />
              </VectorParam>
              <VectorParam id="5910"  name="anchor">
               <InterpolatingParam id="5911" interp="linr"  time="0/1" value="0" leadInLength="0/1"  />
               <InterpolatingParam id="5912" interp="linr"  time="0/1" value="0" leadInLength="0/1"  />
               <InterpolatingParam id="5913" interp="linr"  time="0/1" value="0" leadInLength="0/1"  />
              </VectorParam>
             </Transformer>
             <Parameters>
              <VectorParam id="5914"  name="sourceCrop">
               <InterpolatingParam id="5915" interp="linr"  time="0/1" value="0" leadInLength="0/1"  />
               <InterpolatingParam id="5916" interp="linr"  time="0/1" value="0" leadInLength="0/1"  />
               <InterpolatingParam id="5917" interp="linr"  time="0/1" value="0" leadInLength="0/1"  />
               <InterpolatingParam id="5918" interp="linr"  time="0/1" value="0" leadInLength="0/1"  />
              </VectorParam>
              <VectorParam id="5919"  name="geometryCrop">
               <InterpolatingParam id="5920" interp="linr"  time="-9999999/1" value="0" leadInLength="0/1"  />
               <InterpolatingParam id="5921" interp="linr"  time="-9999999/1" value="0" leadInLength="0/1"  />
               <InterpolatingParam id="5922" interp="linr"  time="-9999999/1" value="0" leadInLength="0/1"  />
               <InterpolatingParam id="5923" interp="linr"  time="-9999999/1" value="0" leadInLength="0/1"  />
              </VectorParam>
              <InterpolatingParam id="5924" interp="linr"  time="-9999999/1" value="1" leadInLength="0/1"  name="opacity"/>
             </Parameters>
             <Attributes>
              <Attribute id="5925" value="" name="ident"/>
             </Attributes>
             <ExtraData>
              <Entry key="ZoomPanBin">
               <ZoomPanBin id="5926"  >
                <ZoomPanKeyframes>
                 <ZoomPanKeyframe id="5927" timeRangeEnd="-9999999/1" timeRangeDuration="0/1" interpolaterName=""  />
                </ZoomPanKeyframes>
               </ZoomPanBin>
              </Entry>
             </ExtraData>
            </VMFile>
            <MetaData>
             <entry key="WinSubProjectDisplayName" val=""/>
            </MetaData>
           </UnifiedMedia>
           <UnifiedMedia id="5928"  >
            <AMFile id="5929" start="380" duration="374" scalar="1/1" mediaStart="517/1" mediaDuration="374/1" trackNumber="1" src="4" channelNumber="0,1" >
             <Parameters>
              <InterpolatingParam id="5930" interp="linr"  time="0/1" value="1" leadInLength="0/1"  name="volume"/>
              <Parameter id="5931"  name="captions"/>
             </Parameters>
             <Attributes>
              <Attribute id="5932" value="" name="ident"/>
              <Attribute id="5933" value="48000" name="sampleRate"/>
              <Attribute id="5934" value="16" name="bitDepth"/>
              <Attribute id="5935" value="1" name="gain"/>
              <Attribute id="5936" value="0" name="mixToMono"/>
             </Attributes>
            </AMFile>
            <VMFile id="5937" start="380" duration="374" scalar="1/1" mediaStart="517/1" mediaDuration="374/1" trackNumber="0" src="4" >
             <Transformer>
              <VectorParam id="5938"  name="translation">
               <InterpolatingParam id="5939" interp="linr"  time="-9999999/1" value="0" leadInLength="0/1"  />
               <InterpolatingParam id="5940" interp="linr"  time="-9999999/1" value="0" leadInLength="0/1"  />
               <InterpolatingParam id="5941" interp="linr"  time="-9999999/1" value="0" leadInLength="0/1"  />
              </VectorParam>
              <VectorParam id="5942"  name="rotation">
               <InterpolatingParam id="5943" interp="linr"  time="-9999999/1" value="0" leadInLength="0/1"  />
               <InterpolatingParam id="5944" interp="linr"  time="-9999999/1" value="0" leadInLength="0/1"  />
               <InterpolatingParam id="5945" interp="linr"  time="-9999999/1" value="0" leadInLength="0/1"  />
              </VectorParam>
              <VectorParam id="5946"  name="shear">
               <InterpolatingParam id="5947" interp="linr"  time="-9999999/1" value="0" leadInLength="0/1"  />
               <InterpolatingParam id="5948" interp="linr"  time="-9999999/1" value="0" leadInLength="0/1"  />
               <InterpolatingParam id="5949" interp="linr"  time="-9999999/1" value="0" leadInLength="0/1"  />
              </VectorParam>
              <VectorParam id="5950"  name="scale">
               <InterpolatingParam id="5951" interp="linr"  time="-9999999/1" value="1" leadInLength="0/1"  />
               <InterpolatingParam id="5952" interp="linr"  time="-9999999/1" value="1" leadInLength="0/1"  />
               <InterpolatingParam id="5953" interp="linr"  time="-9999999/1" value="1" leadInLength="0/1"  />
              </VectorParam>
              <VectorParam id="5954"  name="anchor">
               <InterpolatingParam id="5955" interp="linr"  time="0/1" value="0" leadInLength="0/1"  />
               <InterpolatingParam id="5956" interp="linr"  time="0/1" value="0" leadInLength="0/1"  />
               <InterpolatingParam id="5957" interp="linr"  time="0/1" value="0" leadInLength="0/1"  />
              </VectorParam>
             </Transformer>
             <Parameters>
              <VectorParam id="5958"  name="sourceCrop">
               <InterpolatingParam id="5959" interp="linr"  time="0/1" value="0" leadInLength="0/1"  />
               <InterpolatingParam id="5960" interp="linr"  time="0/1" value="0" leadInLength="0/1"  />
               <InterpolatingParam id="5961" interp="linr"  time="0/1" value="0" leadInLength="0/1"  />
               <InterpolatingParam id="5962" interp="linr"  time="0/1" value="0" leadInLength="0/1"  />
              </VectorParam>
              <VectorParam id="5963"  name="geometryCrop">
               <InterpolatingParam id="5964" interp="linr"  time="-9999999/1" value="0" leadInLength="0/1"  />
               <InterpolatingParam id="5965" interp="linr"  time="-9999999/1" value="0" leadInLength="0/1"  />
               <InterpolatingParam id="5966" interp="linr"  time="-9999999/1" value="0" leadInLength="0/1"  />
               <InterpolatingParam id="5967" interp="linr"  time="-9999999/1" value="0" leadInLength="0/1"  />
              </VectorParam>
              <InterpolatingParam id="5968" interp="linr"  time="-9999999/1" value="1" leadInLength="0/1"  name="opacity"/>
             </Parameters>
             <Attributes>
              <Attribute id="5969" value="" name="ident"/>
             </Attributes>
             <ExtraData>
              <Entry key="ZoomPanBin">
               <ZoomPanBin id="5970"  >
                <ZoomPanKeyframes>
                 <ZoomPanKeyframe id="5971" timeRangeEnd="-9999999/1" timeRangeDuration="0/1" interpolaterName=""  />
                </ZoomPanKeyframes>
               </ZoomPanBin>
              </Entry>
             </ExtraData>
            </VMFile>
            <MetaData>
             <entry key="WinSubProjectDisplayName" val=""/>
            </MetaData>
           </UnifiedMedia>
           <UnifiedMedia id="5972"  >
            <AMFile id="5973" start="754" duration="271" scalar="1/1" mediaStart="915/1" mediaDuration="271/1" trackNumber="1" src="4" channelNumber="0,1" >
             <Parameters>
              <InterpolatingParam id="5974" interp="linr"  time="0/1" value="1" leadInLength="0/1"  name="volume"/>
              <Parameter id="5975"  name="captions"/>
             </Parameters>
             <Attributes>
              <Attribute id="5976" value="" name="ident"/>
              <Attribute id="5977" value="48000" name="sampleRate"/>
              <Attribute id="5978" value="16" name="bitDepth"/>
              <Attribute id="5979" value="1" name="gain"/>
              <Attribute id="5980" value="0" name="mixToMono"/>
             </Attributes>
            </AMFile>
            <VMFile id="5981" start="754" duration="271" scalar="1/1" mediaStart="915/1" mediaDuration="271/1" trackNumber="0" src="4" >
             <Transformer>
              <VectorParam id="5982"  name="translation">
               <InterpolatingParam id="5983" interp="linr"  time="-9999999/1" value="0" leadInLength="0/1"  />
               <InterpolatingParam id="5984" interp="linr"  time="-9999999/1" value="0" leadInLength="0/1"  />
               <InterpolatingParam id="5985" interp="linr"  time="-9999999/1" value="0" leadInLength="0/1"  />
              </VectorParam>
              <VectorParam id="5986"  name="rotation">
               <InterpolatingParam id="5987" interp="linr"  time="-9999999/1" value="0" leadInLength="0/1"  />
               <InterpolatingParam id="5988" interp="linr"  time="-9999999/1" value="0" leadInLength="0/1"  />
               <InterpolatingParam id="5989" interp="linr"  time="-9999999/1" value="0" leadInLength="0/1"  />
              </VectorParam>
              <VectorParam id="5990"  name="shear">
               <InterpolatingParam id="5991" interp="linr"  time="-9999999/1" value="0" leadInLength="0/1"  />
               <InterpolatingParam id="5992" interp="linr"  time="-9999999/1" value="0" leadInLength="0/1"  />
               <InterpolatingParam id="5993" interp="linr"  time="-9999999/1" value="0" leadInLength="0/1"  />
              </VectorParam>
              <VectorParam id="5994"  name="scale">
               <InterpolatingParam id="5995" interp="linr"  time="-9999999/1" value="1" leadInLength="0/1"  />
               <InterpolatingParam id="5996" interp="linr"  time="-9999999/1" value="1" leadInLength="0/1"  />
               <InterpolatingParam id="5997" interp="linr"  time="-9999999/1" value="1" leadInLength="0/1"  />
              </VectorParam>
              <VectorParam id="5998"  name="anchor">
               <InterpolatingParam id="5999" interp="linr"  time="0/1" value="0" leadInLength="0/1"  />
               <InterpolatingParam id="6000" interp="linr"  time="0/1" value="0" leadInLength="0/1"  />
               <InterpolatingParam id="6001" interp="linr"  time="0/1" value="0" leadInLength="0/1"  />
              </VectorParam>
             </Transformer>
             <Parameters>
              <VectorParam id="6002"  name="sourceCrop">
               <InterpolatingParam id="6003" interp="linr"  time="0/1" value="0" leadInLength="0/1"  />
               <InterpolatingParam id="6004" interp="linr"  time="0/1" value="0" leadInLength="0/1"  />
               <InterpolatingParam id="6005" interp="linr"  time="0/1" value="0" leadInLength="0/1"  />
               <InterpolatingParam id="6006" interp="linr"  time="0/1" value="0" leadInLength="0/1"  />
              </VectorParam>
              <VectorParam id="6007"  name="geometryCrop">
               <InterpolatingParam id="6008" interp="linr"  time="-9999999/1" value="0" leadInLength="0/1"  />
               <InterpolatingParam id="6009" interp="linr"  time="-9999999/1" value="0" leadInLength="0/1"  />
               <InterpolatingParam id="6010" interp="linr"  time="-9999999/1" value="0" leadInLength="0/1"  />
               <InterpolatingParam id="6011" interp="linr"  time="-9999999/1" value="0" leadInLength="0/1"  />
              </VectorParam>
              <InterpolatingParam id="6012" interp="linr"  time="-9999999/1" value="1" leadInLength="0/1"  name="opacity"/>
             </Parameters>
             <Attributes>
              <Attribute id="6013" value="" name="ident"/>
             </Attributes>
             <ExtraData>
              <Entry key="ZoomPanBin">
               <ZoomPanBin id="6014"  >
                <ZoomPanKeyframes>
                 <ZoomPanKeyframe id="6015" timeRangeEnd="-9999999/1" timeRangeDuration="0/1" interpolaterName=""  />
                </ZoomPanKeyframes>
               </ZoomPanBin>
              </Entry>
             </ExtraData>
            </VMFile>
            <MetaData>
             <entry key="WinSubProjectDisplayName" val=""/>
            </MetaData>
           </UnifiedMedia>
           <UnifiedMedia id="6016"  >
            <AMFile id="6017" start="1025" duration="332" scalar="1/1" mediaStart="1205/1" mediaDuration="332/1" trackNumber="1" src="4" channelNumber="0,1" >
             <Parameters>
              <InterpolatingParam id="6018" interp="linr"  time="0/1" value="1" leadInLength="0/1"  name="volume"/>
              <Parameter id="6019"  name="captions"/>
             </Parameters>
             <Attributes>
              <Attribute id="6020" value="" name="ident"/>
              <Attribute id="6021" value="48000" name="sampleRate"/>
              <Attribute id="6022" value="16" name="bitDepth"/>
              <Attribute id="6023" value="1" name="gain"/>
              <Attribute id="6024" value="0" name="mixToMono"/>
             </Attributes>
            </AMFile>
            <VMFile id="6025" start="1025" duration="332" scalar="1/1" mediaStart="1205/1" mediaDuration="332/1" trackNumber="0" src="4" >
             <Transformer>
              <VectorParam id="6026"  name="translation">
               <InterpolatingParam id="6027" interp="linr"  time="-9999999/1" value="0" leadInLength="0/1"  />
               <InterpolatingParam id="6028" interp="linr"  time="-9999999/1" value="0" leadInLength="0/1"  />
               <InterpolatingParam id="6029" interp="linr"  time="-9999999/1" value="0" leadInLength="0/1"  />
              </VectorParam>
              <VectorParam id="6030"  name="rotation">
               <InterpolatingParam id="6031" interp="linr"  time="-9999999/1" value="0" leadInLength="0/1"  />
               <InterpolatingParam id="6032" interp="linr"  time="-9999999/1" value="0" leadInLength="0/1"  />
               <InterpolatingParam id="6033" interp="linr"  time="-9999999/1" value="0" leadInLength="0/1"  />
              </VectorParam>
              <VectorParam id="6034"  name="shear">
               <InterpolatingParam id="6035" interp="linr"  time="-9999999/1" value="0" leadInLength="0/1"  />
               <InterpolatingParam id="6036" interp="linr"  time="-9999999/1" value="0" leadInLength="0/1"  />
               <InterpolatingParam id="6037" interp="linr"  time="-9999999/1" value="0" leadInLength="0/1"  />
              </VectorParam>
              <VectorParam id="6038"  name="scale">
               <InterpolatingParam id="6039" interp="linr"  time="-9999999/1" value="1" leadInLength="0/1"  />
               <InterpolatingParam id="6040" interp="linr"  time="-9999999/1" value="1" leadInLength="0/1"  />
               <InterpolatingParam id="6041" interp="linr"  time="-9999999/1" value="1" leadInLength="0/1"  />
              </VectorParam>
              <VectorParam id="6042"  name="anchor">
               <InterpolatingParam id="6043" interp="linr"  time="0/1" value="0" leadInLength="0/1"  />
               <InterpolatingParam id="6044" interp="linr"  time="0/1" value="0" leadInLength="0/1"  />
               <InterpolatingParam id="6045" interp="linr"  time="0/1" value="0" leadInLength="0/1"  />
              </VectorParam>
             </Transformer>
             <Parameters>
              <VectorParam id="6046"  name="sourceCrop">
               <InterpolatingParam id="6047" interp="linr"  time="0/1" value="0" leadInLength="0/1"  />
               <InterpolatingParam id="6048" interp="linr"  time="0/1" value="0" leadInLength="0/1"  />
               <InterpolatingParam id="6049" interp="linr"  time="0/1" value="0" leadInLength="0/1"  />
               <InterpolatingParam id="6050" interp="linr"  time="0/1" value="0" leadInLength="0/1"  />
              </VectorParam>
              <VectorParam id="6051"  name="geometryCrop">
               <InterpolatingParam id="6052" interp="linr"  time="-9999999/1" value="0" leadInLength="0/1"  />
               <InterpolatingParam id="6053" interp="linr"  time="-9999999/1" value="0" leadInLength="0/1"  />
               <InterpolatingParam id="6054" interp="linr"  time="-9999999/1" value="0" leadInLength="0/1"  />
               <InterpolatingParam id="6055" interp="linr"  time="-9999999/1" value="0" leadInLength="0/1"  />
              </VectorParam>
              <InterpolatingParam id="6056" interp="linr"  time="-9999999/1" value="1" leadInLength="0/1"  name="opacity"/>
             </Parameters>
             <Attributes>
              <Attribute id="6057" value="" name="ident"/>
             </Attributes>
             <ExtraData>
              <Entry key="ZoomPanBin">
               <ZoomPanBin id="6058"  >
                <ZoomPanKeyframes>
                 <ZoomPanKeyframe id="6059" timeRangeEnd="-9999999/1" timeRangeDuration="0/1" interpolaterName=""  />
                </ZoomPanKeyframes>
               </ZoomPanBin>
              </Entry>
             </ExtraData>
            </VMFile>
            <MetaData>
             <entry key="WinSubProjectDisplayName" val=""/>
            </MetaData>
           </UnifiedMedia>
           <UnifiedMedia id="6060"  >
            <AMFile id="6061" start="1357" duration="33" scalar="1/1" mediaStart="1675/1" mediaDuration="33/1" trackNumber="1" src="4" channelNumber="0,1" >
             <Parameters>
              <InterpolatingParam id="6062" interp="linr"  time="0/1" value="1" leadInLength="0/1"  name="volume"/>
              <Parameter id="6063"  name="captions"/>
             </Parameters>
             <Attributes>
              <Attribute id="6064" value="" name="ident"/>
              <Attribute id="6065" value="48000" name="sampleRate"/>
              <Attribute id="6066" value="16" name="bitDepth"/>
              <Attribute id="6067" value="1" name="gain"/>
              <Attribute id="6068" value="0" name="mixToMono"/>
             </Attributes>
            </AMFile>
            <VMFile id="6069" start="1357" duration="33" scalar="1/1" mediaStart="1675/1" mediaDuration="33/1" trackNumber="0" src="4" >
             <Transformer>
              <VectorParam id="6070"  name="translation">
               <InterpolatingParam id="6071" interp="linr"  time="-9999999/1" value="0" leadInLength="0/1"  />
               <InterpolatingParam id="6072" interp="linr"  time="-9999999/1" value="0" leadInLength="0/1"  />
               <InterpolatingParam id="6073" interp="linr"  time="-9999999/1" value="0" leadInLength="0/1"  />
              </VectorParam>
              <VectorParam id="6074"  name="rotation">
               <InterpolatingParam id="6075" interp="linr"  time="-9999999/1" value="0" leadInLength="0/1"  />
               <InterpolatingParam id="6076" interp="linr"  time="-9999999/1" value="0" leadInLength="0/1"  />
               <InterpolatingParam id="6077" interp="linr"  time="-9999999/1" value="0" leadInLength="0/1"  />
              </VectorParam>
              <VectorParam id="6078"  name="shear">
               <InterpolatingParam id="6079" interp="linr"  time="-9999999/1" value="0" leadInLength="0/1"  />
               <InterpolatingParam id="6080" interp="linr"  time="-9999999/1" value="0" leadInLength="0/1"  />
               <InterpolatingParam id="6081" interp="linr"  time="-9999999/1" value="0" leadInLength="0/1"  />
              </VectorParam>
              <VectorParam id="6082"  name="scale">
               <InterpolatingParam id="6083" interp="linr"  time="-9999999/1" value="1" leadInLength="0/1"  />
               <InterpolatingParam id="6084" interp="linr"  time="-9999999/1" value="1" leadInLength="0/1"  />
               <InterpolatingParam id="6085" interp="linr"  time="-9999999/1" value="1" leadInLength="0/1"  />
              </VectorParam>
              <VectorParam id="6086"  name="anchor">
               <InterpolatingParam id="6087" interp="linr"  time="0/1" value="0" leadInLength="0/1"  />
               <InterpolatingParam id="6088" interp="linr"  time="0/1" value="0" leadInLength="0/1"  />
               <InterpolatingParam id="6089" interp="linr"  time="0/1" value="0" leadInLength="0/1"  />
              </VectorParam>
             </Transformer>
             <Parameters>
              <VectorParam id="6090"  name="sourceCrop">
               <InterpolatingParam id="6091" interp="linr"  time="0/1" value="0" leadInLength="0/1"  />
               <InterpolatingParam id="6092" interp="linr"  time="0/1" value="0" leadInLength="0/1"  />
               <InterpolatingParam id="6093" interp="linr"  time="0/1" value="0" leadInLength="0/1"  />
               <InterpolatingParam id="6094" interp="linr"  time="0/1" value="0" leadInLength="0/1"  />
              </VectorParam>
              <VectorParam id="6095"  name="geometryCrop">
               <InterpolatingParam id="6096" interp="linr"  time="-9999999/1" value="0" leadInLength="0/1"  />
               <InterpolatingParam id="6097" interp="linr"  time="-9999999/1" value="0" leadInLength="0/1"  />
               <InterpolatingParam id="6098" interp="linr"  time="-9999999/1" value="0" leadInLength="0/1"  />
               <InterpolatingParam id="6099" interp="linr"  time="-9999999/1" value="0" leadInLength="0/1"  />
              </VectorParam>
              <InterpolatingParam id="6100" interp="linr"  time="-9999999/1" value="1" leadInLength="0/1"  name="opacity"/>
             </Parameters>
             <Attributes>
              <Attribute id="6101" value="" name="ident"/>
             </Attributes>
             <ExtraData>
              <Entry key="ZoomPanBin">
               <ZoomPanBin id="6102"  >
                <ZoomPanKeyframes>
                 <ZoomPanKeyframe id="6103" timeRangeEnd="-9999999/1" timeRangeDuration="0/1" interpolaterName=""  />
                </ZoomPanKeyframes>
               </ZoomPanBin>
              </Entry>
             </ExtraData>
            </VMFile>
            <MetaData>
             <entry key="WinSubProjectDisplayName" val=""/>
            </MetaData>
           </UnifiedMedia>
           <UnifiedMedia id="6104"  >
            <AMFile id="6105" start="1390" duration="92" scalar="1/1" mediaStart="1722/1" mediaDuration="92/1" trackNumber="1" src="4" channelNumber="0,1" >
             <Parameters>
              <InterpolatingParam id="6106" interp="linr"  time="0/1" value="1" leadInLength="0/1"  name="volume"/>
              <Parameter id="6107"  name="captions"/>
             </Parameters>
             <Attributes>
              <Attribute id="6108" value="" name="ident"/>
              <Attribute id="6109" value="48000" name="sampleRate"/>
              <Attribute id="6110" value="16" name="bitDepth"/>
              <Attribute id="6111" value="1" name="gain"/>
              <Attribute id="6112" value="0" name="mixToMono"/>
             </Attributes>
            </AMFile>
            <VMFile id="6113" start="1390" duration="92" scalar="1/1" mediaStart="1722/1" mediaDuration="92/1" trackNumber="0" src="4" >
             <Transformer>
              <VectorParam id="6114"  name="translation">
               <InterpolatingParam id="6115" interp="linr"  time="-9999999/1" value="0" leadInLength="0/1"  />
               <InterpolatingParam id="6116" interp="linr"  time="-9999999/1" value="0" leadInLength="0/1"  />
               <InterpolatingParam id="6117" interp="linr"  time="-9999999/1" value="0" leadInLength="0/1"  />
              </VectorParam>
              <VectorParam id="6118"  name="rotation">
               <InterpolatingParam id="6119" interp="linr"  time="-9999999/1" value="0" leadInLength="0/1"  />
               <InterpolatingParam id="6120" interp="linr"  time="-9999999/1" value="0" leadInLength="0/1"  />
               <InterpolatingParam id="6121" interp="linr"  time="-9999999/1" value="0" leadInLength="0/1"  />
              </VectorParam>
              <VectorParam id="6122"  name="shear">
               <InterpolatingParam id="6123" interp="linr"  time="-9999999/1" value="0" leadInLength="0/1"  />
               <InterpolatingParam id="6124" interp="linr"  time="-9999999/1" value="0" leadInLength="0/1"  />
               <InterpolatingParam id="6125" interp="linr"  time="-9999999/1" value="0" leadInLength="0/1"  />
              </VectorParam>
              <VectorParam id="6126"  name="scale">
               <InterpolatingParam id="6127" interp="linr"  time="-9999999/1" value="1" leadInLength="0/1"  />
               <InterpolatingParam id="6128" interp="linr"  time="-9999999/1" value="1" leadInLength="0/1"  />
               <InterpolatingParam id="6129" interp="linr"  time="-9999999/1" value="1" leadInLength="0/1"  />
              </VectorParam>
              <VectorParam id="6130"  name="anchor">
               <InterpolatingParam id="6131" interp="linr"  time="0/1" value="0" leadInLength="0/1"  />
               <InterpolatingParam id="6132" interp="linr"  time="0/1" value="0" leadInLength="0/1"  />
               <InterpolatingParam id="6133" interp="linr"  time="0/1" value="0" leadInLength="0/1"  />
              </VectorParam>
             </Transformer>
             <Parameters>
              <VectorParam id="6134"  name="sourceCrop">
               <InterpolatingParam id="6135" interp="linr"  time="0/1" value="0" leadInLength="0/1"  />
               <InterpolatingParam id="6136" interp="linr"  time="0/1" value="0" leadInLength="0/1"  />
               <InterpolatingParam id="6137" interp="linr"  time="0/1" value="0" leadInLength="0/1"  />
               <InterpolatingParam id="6138" interp="linr"  time="0/1" value="0" leadInLength="0/1"  />
              </VectorParam>
              <VectorParam id="6139"  name="geometryCrop">
               <InterpolatingParam id="6140" interp="linr"  time="-9999999/1" value="0" leadInLength="0/1"  />
               <InterpolatingParam id="6141" interp="linr"  time="-9999999/1" value="0" leadInLength="0/1"  />
               <InterpolatingParam id="6142" interp="linr"  time="-9999999/1" value="0" leadInLength="0/1"  />
               <InterpolatingParam id="6143" interp="linr"  time="-9999999/1" value="0" leadInLength="0/1"  />
              </VectorParam>
              <InterpolatingParam id="6144" interp="linr"  time="-9999999/1" value="1" leadInLength="0/1"  name="opacity"/>
             </Parameters>
             <Attributes>
              <Attribute id="6145" value="" name="ident"/>
             </Attributes>
             <ExtraData>
              <Entry key="ZoomPanBin">
               <ZoomPanBin id="6146"  >
                <ZoomPanKeyframes>
                 <ZoomPanKeyframe id="6147" timeRangeEnd="-9999999/1" timeRangeDuration="0/1" interpolaterName=""  />
                </ZoomPanKeyframes>
               </ZoomPanBin>
              </Entry>
             </ExtraData>
            </VMFile>
            <MetaData>
             <entry key="WinSubProjectDisplayName" val=""/>
            </MetaData>
           </UnifiedMedia>
           <UnifiedMedia id="6148"  >
            <AMFile id="6149" start="1482" duration="308" scalar="1/1" mediaStart="1875/1" mediaDuration="308/1" trackNumber="1" src="4" channelNumber="0,1" >
             <Parameters>
              <InterpolatingParam id="6150" interp="linr"  time="0/1" value="1" leadInLength="0/1"  name="volume"/>
              <Parameter id="6151"  name="captions"/>
             </Parameters>
             <Attributes>
              <Attribute id="6152" value="" name="ident"/>
              <Attribute id="6153" value="48000" name="sampleRate"/>
              <Attribute id="6154" value="16" name="bitDepth"/>
              <Attribute id="6155" value="1" name="gain"/>
              <Attribute id="6156" value="0" name="mixToMono"/>
             </Attributes>
            </AMFile>
            <VMFile id="6157" start="1482" duration="308" scalar="1/1" mediaStart="1875/1" mediaDuration="308/1" trackNumber="0" src="4" >
             <Transformer>
              <VectorParam id="6158"  name="translation">
               <InterpolatingParam id="6159" interp="linr"  time="-9999999/1" value="0" leadInLength="0/1"  />
               <InterpolatingParam id="6160" interp="linr"  time="-9999999/1" value="0" leadInLength="0/1"  />
               <InterpolatingParam id="6161" interp="linr"  time="-9999999/1" value="0" leadInLength="0/1"  />
              </VectorParam>
              <VectorParam id="6162"  name="rotation">
               <InterpolatingParam id="6163" interp="linr"  time="-9999999/1" value="0" leadInLength="0/1"  />
               <InterpolatingParam id="6164" interp="linr"  time="-9999999/1" value="0" leadInLength="0/1"  />
               <InterpolatingParam id="6165" interp="linr"  time="-9999999/1" value="0" leadInLength="0/1"  />
              </VectorParam>
              <VectorParam id="6166"  name="shear">
               <InterpolatingParam id="6167" interp="linr"  time="-9999999/1" value="0" leadInLength="0/1"  />
               <InterpolatingParam id="6168" interp="linr"  time="-9999999/1" value="0" leadInLength="0/1"  />
               <InterpolatingParam id="6169" interp="linr"  time="-9999999/1" value="0" leadInLength="0/1"  />
              </VectorParam>
              <VectorParam id="6170"  name="scale">
               <InterpolatingParam id="6171" interp="linr"  time="-9999999/1" value="1" leadInLength="0/1"  />
               <InterpolatingParam id="6172" interp="linr"  time="-9999999/1" value="1" leadInLength="0/1"  />
               <InterpolatingParam id="6173" interp="linr"  time="-9999999/1" value="1" leadInLength="0/1"  />
              </VectorParam>
              <VectorParam id="6174"  name="anchor">
               <InterpolatingParam id="6175" interp="linr"  time="0/1" value="0" leadInLength="0/1"  />
               <InterpolatingParam id="6176" interp="linr"  time="0/1" value="0" leadInLength="0/1"  />
               <InterpolatingParam id="6177" interp="linr"  time="0/1" value="0" leadInLength="0/1"  />
              </VectorParam>
             </Transformer>
             <Parameters>
              <VectorParam id="6178"  name="sourceCrop">
               <InterpolatingParam id="6179" interp="linr"  time="0/1" value="0" leadInLength="0/1"  />
               <InterpolatingParam id="6180" interp="linr"  time="0/1" value="0" leadInLength="0/1"  />
               <InterpolatingParam id="6181" interp="linr"  time="0/1" value="0" leadInLength="0/1"  />
               <InterpolatingParam id="6182" interp="linr"  time="0/1" value="0" leadInLength="0/1"  />
              </VectorParam>
              <VectorParam id="6183"  name="geometryCrop">
               <InterpolatingParam id="6184" interp="linr"  time="-9999999/1" value="0" leadInLength="0/1"  />
               <InterpolatingParam id="6185" interp="linr"  time="-9999999/1" value="0" leadInLength="0/1"  />
               <InterpolatingParam id="6186" interp="linr"  time="-9999999/1" value="0" leadInLength="0/1"  />
               <InterpolatingParam id="6187" interp="linr"  time="-9999999/1" value="0" leadInLength="0/1"  />
              </VectorParam>
              <InterpolatingParam id="6188" interp="linr"  time="-9999999/1" value="1" leadInLength="0/1"  name="opacity"/>
             </Parameters>
             <Attributes>
              <Attribute id="6189" value="" name="ident"/>
             </Attributes>
             <ExtraData>
              <Entry key="ZoomPanBin">
               <ZoomPanBin id="6190"  >
                <ZoomPanKeyframes>
                 <ZoomPanKeyframe id="6191" timeRangeEnd="-9999999/1" timeRangeDuration="0/1" interpolaterName=""  />
                </ZoomPanKeyframes>
               </ZoomPanBin>
              </Entry>
             </ExtraData>
            </VMFile>
            <MetaData>
             <entry key="WinSubProjectDisplayName" val=""/>
            </MetaData>
           </UnifiedMedia>
           <UnifiedMedia id="6192"  >
            <AMFile id="6193" start="1790" duration="49" scalar="1/1" mediaStart="2183/1" mediaDuration="49/1" trackNumber="1" src="4" channelNumber="0,1" >
             <Parameters>
              <InterpolatingParam id="6194" interp="linr"  time="0/1" value="1" leadInLength="0/1"  name="volume"/>
              <Parameter id="6195"  name="captions"/>
             </Parameters>
             <Attributes>
              <Attribute id="6196" value="" name="ident"/>
              <Attribute id="6197" value="48000" name="sampleRate"/>
              <Attribute id="6198" value="16" name="bitDepth"/>
              <Attribute id="6199" value="1" name="gain"/>
              <Attribute id="6200" value="0" name="mixToMono"/>
             </Attributes>
            </AMFile>
            <VMFile id="6201" start="1790" duration="49" scalar="1/1" mediaStart="2183/1" mediaDuration="49/1" trackNumber="0" src="4" >
             <Transformer>
              <VectorParam id="6202"  name="translation">
               <InterpolatingParam id="6203" interp="linr"  time="-9999999/1" value="0" leadInLength="0/1"  />
               <InterpolatingParam id="6204" interp="linr"  time="-9999999/1" value="0" leadInLength="0/1"  />
               <InterpolatingParam id="6205" interp="linr"  time="-9999999/1" value="0" leadInLength="0/1"  />
              </VectorParam>
              <VectorParam id="6206"  name="rotation">
               <InterpolatingParam id="6207" interp="linr"  time="-9999999/1" value="0" leadInLength="0/1"  />
               <InterpolatingParam id="6208" interp="linr"  time="-9999999/1" value="0" leadInLength="0/1"  />
               <InterpolatingParam id="6209" interp="linr"  time="-9999999/1" value="0" leadInLength="0/1"  />
              </VectorParam>
              <VectorParam id="6210"  name="shear">
               <InterpolatingParam id="6211" interp="linr"  time="-9999999/1" value="0" leadInLength="0/1"  />
               <InterpolatingParam id="6212" interp="linr"  time="-9999999/1" value="0" leadInLength="0/1"  />
               <InterpolatingParam id="6213" interp="linr"  time="-9999999/1" value="0" leadInLength="0/1"  />
              </VectorParam>
              <VectorParam id="6214"  name="scale">
               <InterpolatingParam id="6215" interp="linr"  time="-9999999/1" value="1" leadInLength="0/1"  />
               <InterpolatingParam id="6216" interp="linr"  time="-9999999/1" value="1" leadInLength="0/1"  />
               <InterpolatingParam id="6217" interp="linr"  time="-9999999/1" value="1" leadInLength="0/1"  />
              </VectorParam>
              <VectorParam id="6218"  name="anchor">
               <InterpolatingParam id="6219" interp="linr"  time="0/1" value="0" leadInLength="0/1"  />
               <InterpolatingParam id="6220" interp="linr"  time="0/1" value="0" leadInLength="0/1"  />
               <InterpolatingParam id="6221" interp="linr"  time="0/1" value="0" leadInLength="0/1"  />
              </VectorParam>
             </Transformer>
             <Parameters>
              <VectorParam id="6222"  name="sourceCrop">
               <InterpolatingParam id="6223" interp="linr"  time="0/1" value="0" leadInLength="0/1"  />
               <InterpolatingParam id="6224" interp="linr"  time="0/1" value="0" leadInLength="0/1"  />
               <InterpolatingParam id="6225" interp="linr"  time="0/1" value="0" leadInLength="0/1"  />
               <InterpolatingParam id="6226" interp="linr"  time="0/1" value="0" leadInLength="0/1"  />
              </VectorParam>
              <VectorParam id="6227"  name="geometryCrop">
               <InterpolatingParam id="6228" interp="linr"  time="-9999999/1" value="0" leadInLength="0/1"  />
               <InterpolatingParam id="6229" interp="linr"  time="-9999999/1" value="0" leadInLength="0/1"  />
               <InterpolatingParam id="6230" interp="linr"  time="-9999999/1" value="0" leadInLength="0/1"  />
               <InterpolatingParam id="6231" interp="linr"  time="-9999999/1" value="0" leadInLength="0/1"  />
              </VectorParam>
              <InterpolatingParam id="6232" interp="linr"  time="-9999999/1" value="1" leadInLength="0/1"  name="opacity"/>
             </Parameters>
             <Attributes>
              <Attribute id="6233" value="" name="ident"/>
             </Attributes>
             <ExtraData>
              <Entry key="ZoomPanBin">
               <ZoomPanBin id="6234"  >
                <ZoomPanKeyframes>
                 <ZoomPanKeyframe id="6235" timeRangeEnd="-9999999/1" timeRangeDuration="0/1" interpolaterName=""  />
                </ZoomPanKeyframes>
               </ZoomPanBin>
              </Entry>
             </ExtraData>
            </VMFile>
            <MetaData>
             <entry key="WinSubProjectDisplayName" val=""/>
            </MetaData>
           </UnifiedMedia>
           <UnifiedMedia id="6236"  >
            <AMFile id="6237" start="1839" duration="574" scalar="1/1" mediaStart="2241/1" mediaDuration="574/1" trackNumber="1" src="4" channelNumber="0,1" >
             <Parameters>
              <InterpolatingParam id="6238" interp="linr"  time="0/1" value="1" leadInLength="0/1"  name="volume"/>
              <Parameter id="6239"  name="captions"/>
             </Parameters>
             <Attributes>
              <Attribute id="6240" value="" name="ident"/>
              <Attribute id="6241" value="48000" name="sampleRate"/>
              <Attribute id="6242" value="16" name="bitDepth"/>
              <Attribute id="6243" value="1" name="gain"/>
              <Attribute id="6244" value="0" name="mixToMono"/>
             </Attributes>
            </AMFile>
            <VMFile id="6245" start="1839" duration="574" scalar="1/1" mediaStart="2241/1" mediaDuration="574/1" trackNumber="0" src="4" >
             <Transformer>
              <VectorParam id="6246"  name="translation">
               <InterpolatingParam id="6247" interp="linr"  time="-9999999/1" value="0" leadInLength="0/1"  />
               <InterpolatingParam id="6248" interp="linr"  time="-9999999/1" value="0" leadInLength="0/1"  />
               <InterpolatingParam id="6249" interp="linr"  time="-9999999/1" value="0" leadInLength="0/1"  />
              </VectorParam>
              <VectorParam id="6250"  name="rotation">
               <InterpolatingParam id="6251" interp="linr"  time="-9999999/1" value="0" leadInLength="0/1"  />
               <InterpolatingParam id="6252" interp="linr"  time="-9999999/1" value="0" leadInLength="0/1"  />
               <InterpolatingParam id="6253" interp="linr"  time="-9999999/1" value="0" leadInLength="0/1"  />
              </VectorParam>
              <VectorParam id="6254"  name="shear">
               <InterpolatingParam id="6255" interp="linr"  time="-9999999/1" value="0" leadInLength="0/1"  />
               <InterpolatingParam id="6256" interp="linr"  time="-9999999/1" value="0" leadInLength="0/1"  />
               <InterpolatingParam id="6257" interp="linr"  time="-9999999/1" value="0" leadInLength="0/1"  />
              </VectorParam>
              <VectorParam id="6258"  name="scale">
               <InterpolatingParam id="6259" interp="linr"  time="-9999999/1" value="1" leadInLength="0/1"  />
               <InterpolatingParam id="6260" interp="linr"  time="-9999999/1" value="1" leadInLength="0/1"  />
               <InterpolatingParam id="6261" interp="linr"  time="-9999999/1" value="1" leadInLength="0/1"  />
              </VectorParam>
              <VectorParam id="6262"  name="anchor">
               <InterpolatingParam id="6263" interp="linr"  time="0/1" value="0" leadInLength="0/1"  />
               <InterpolatingParam id="6264" interp="linr"  time="0/1" value="0" leadInLength="0/1"  />
               <InterpolatingParam id="6265" interp="linr"  time="0/1" value="0" leadInLength="0/1"  />
              </VectorParam>
             </Transformer>
             <Parameters>
              <VectorParam id="6266"  name="sourceCrop">
               <InterpolatingParam id="6267" interp="linr"  time="0/1" value="0" leadInLength="0/1"  />
               <InterpolatingParam id="6268" interp="linr"  time="0/1" value="0" leadInLength="0/1"  />
               <InterpolatingParam id="6269" interp="linr"  time="0/1" value="0" leadInLength="0/1"  />
               <InterpolatingParam id="6270" interp="linr"  time="0/1" value="0" leadInLength="0/1"  />
              </VectorParam>
              <VectorParam id="6271"  name="geometryCrop">
               <InterpolatingParam id="6272" interp="linr"  time="-9999999/1" value="0" leadInLength="0/1"  />
               <InterpolatingParam id="6273" interp="linr"  time="-9999999/1" value="0" leadInLength="0/1"  />
               <InterpolatingParam id="6274" interp="linr"  time="-9999999/1" value="0" leadInLength="0/1"  />
               <InterpolatingParam id="6275" interp="linr"  time="-9999999/1" value="0" leadInLength="0/1"  />
              </VectorParam>
              <InterpolatingParam id="6276" interp="linr"  time="-9999999/1" value="1" leadInLength="0/1"  name="opacity"/>
             </Parameters>
             <Attributes>
              <Attribute id="6277" value="" name="ident"/>
             </Attributes>
             <ExtraData>
              <Entry key="ZoomPanBin">
               <ZoomPanBin id="6278"  >
                <ZoomPanKeyframes>
                 <ZoomPanKeyframe id="6279" timeRangeEnd="-9999999/1" timeRangeDuration="0/1" interpolaterName=""  />
                </ZoomPanKeyframes>
               </ZoomPanBin>
              </Entry>
             </ExtraData>
            </VMFile>
            <MetaData>
             <entry key="WinSubProjectDisplayName" val=""/>
            </MetaData>
           </UnifiedMedia>
           <UnifiedMedia id="6280"  >
            <AMFile id="6281" start="2413" duration="82" scalar="1/1" mediaStart="2845/1" mediaDuration="82/1" trackNumber="1" src="4" channelNumber="0,1" >
             <Parameters>
              <InterpolatingParam id="6282" interp="linr"  time="0/1" value="1" leadInLength="0/1"  name="volume"/>
              <Parameter id="6283"  name="captions"/>
             </Parameters>
             <Attributes>
              <Attribute id="6284" value="" name="ident"/>
              <Attribute id="6285" value="48000" name="sampleRate"/>
              <Attribute id="6286" value="16" name="bitDepth"/>
              <Attribute id="6287" value="1" name="gain"/>
              <Attribute id="6288" value="0" name="mixToMono"/>
             </Attributes>
            </AMFile>
            <VMFile id="6289" start="2413" duration="82" scalar="1/1" mediaStart="2845/1" mediaDuration="82/1" trackNumber="0" src="4" >
             <Transformer>
              <VectorParam id="6290"  name="translation">
               <InterpolatingParam id="6291" interp="linr"  time="-9999999/1" value="0" leadInLength="0/1"  />
               <InterpolatingParam id="6292" interp="linr"  time="-9999999/1" value="0" leadInLength="0/1"  />
               <InterpolatingParam id="6293" interp="linr"  time="-9999999/1" value="0" leadInLength="0/1"  />
              </VectorParam>
              <VectorParam id="6294"  name="rotation">
               <InterpolatingParam id="6295" interp="linr"  time="-9999999/1" value="0" leadInLength="0/1"  />
               <InterpolatingParam id="6296" interp="linr"  time="-9999999/1" value="0" leadInLength="0/1"  />
               <InterpolatingParam id="6297" interp="linr"  time="-9999999/1" value="0" leadInLength="0/1"  />
              </VectorParam>
              <VectorParam id="6298"  name="shear">
               <InterpolatingParam id="6299" interp="linr"  time="-9999999/1" value="0" leadInLength="0/1"  />
               <InterpolatingParam id="6300" interp="linr"  time="-9999999/1" value="0" leadInLength="0/1"  />
               <InterpolatingParam id="6301" interp="linr"  time="-9999999/1" value="0" leadInLength="0/1"  />
              </VectorParam>
              <VectorParam id="6302"  name="scale">
               <InterpolatingParam id="6303" interp="linr"  time="-9999999/1" value="1" leadInLength="0/1"  />
               <InterpolatingParam id="6304" interp="linr"  time="-9999999/1" value="1" leadInLength="0/1"  />
               <InterpolatingParam id="6305" interp="linr"  time="-9999999/1" value="1" leadInLength="0/1"  />
              </VectorParam>
              <VectorParam id="6306"  name="anchor">
               <InterpolatingParam id="6307" interp="linr"  time="0/1" value="0" leadInLength="0/1"  />
               <InterpolatingParam id="6308" interp="linr"  time="0/1" value="0" leadInLength="0/1"  />
               <InterpolatingParam id="6309" interp="linr"  time="0/1" value="0" leadInLength="0/1"  />
              </VectorParam>
             </Transformer>
             <Parameters>
              <VectorParam id="6310"  name="sourceCrop">
               <InterpolatingParam id="6311" interp="linr"  time="0/1" value="0" leadInLength="0/1"  />
               <InterpolatingParam id="6312" interp="linr"  time="0/1" value="0" leadInLength="0/1"  />
               <InterpolatingParam id="6313" interp="linr"  time="0/1" value="0" leadInLength="0/1"  />
               <InterpolatingParam id="6314" interp="linr"  time="0/1" value="0" leadInLength="0/1"  />
              </VectorParam>
              <VectorParam id="6315"  name="geometryCrop">
               <InterpolatingParam id="6316" interp="linr"  time="-9999999/1" value="0" leadInLength="0/1"  />
               <InterpolatingParam id="6317" interp="linr"  time="-9999999/1" value="0" leadInLength="0/1"  />
               <InterpolatingParam id="6318" interp="linr"  time="-9999999/1" value="0" leadInLength="0/1"  />
               <InterpolatingParam id="6319" interp="linr"  time="-9999999/1" value="0" leadInLength="0/1"  />
              </VectorParam>
              <InterpolatingParam id="6320" interp="linr"  time="-9999999/1" value="1" leadInLength="0/1"  name="opacity"/>
             </Parameters>
             <Attributes>
              <Attribute id="6321" value="" name="ident"/>
             </Attributes>
             <ExtraData>
              <Entry key="ZoomPanBin">
               <ZoomPanBin id="6322"  >
                <ZoomPanKeyframes>
                 <ZoomPanKeyframe id="6323" timeRangeEnd="-9999999/1" timeRangeDuration="0/1" interpolaterName=""  />
                </ZoomPanKeyframes>
               </ZoomPanBin>
              </Entry>
             </ExtraData>
            </VMFile>
            <MetaData>
             <entry key="WinSubProjectDisplayName" val=""/>
            </MetaData>
           </UnifiedMedia>
           <UnifiedMedia id="6324"  >
            <AMFile id="6325" start="2495" duration="33" scalar="1/1" mediaStart="2983/1" mediaDuration="33/1" trackNumber="1" src="4" channelNumber="0,1" >
             <Parameters>
              <InterpolatingParam id="6326" interp="linr"  time="0/1" value="1" leadInLength="0/1"  name="volume"/>
              <Parameter id="6327"  name="captions"/>
             </Parameters>
             <Attributes>
              <Attribute id="6328" value="" name="ident"/>
              <Attribute id="6329" value="48000" name="sampleRate"/>
              <Attribute id="6330" value="16" name="bitDepth"/>
              <Attribute id="6331" value="1" name="gain"/>
              <Attribute id="6332" value="0" name="mixToMono"/>
             </Attributes>
            </AMFile>
            <VMFile id="6333" start="2495" duration="33" scalar="1/1" mediaStart="2983/1" mediaDuration="33/1" trackNumber="0" src="4" >
             <Transformer>
              <VectorParam id="6334"  name="translation">
               <InterpolatingParam id="6335" interp="linr"  time="-9999999/1" value="0" leadInLength="0/1"  />
               <InterpolatingParam id="6336" interp="linr"  time="-9999999/1" value="0" leadInLength="0/1"  />
               <InterpolatingParam id="6337" interp="linr"  time="-9999999/1" value="0" leadInLength="0/1"  />
              </VectorParam>
              <VectorParam id="6338"  name="rotation">
               <InterpolatingParam id="6339" interp="linr"  time="-9999999/1" value="0" leadInLength="0/1"  />
               <InterpolatingParam id="6340" interp="linr"  time="-9999999/1" value="0" leadInLength="0/1"  />
               <InterpolatingParam id="6341" interp="linr"  time="-9999999/1" value="0" leadInLength="0/1"  />
              </VectorParam>
              <VectorParam id="6342"  name="shear">
               <InterpolatingParam id="6343" interp="linr"  time="-9999999/1" value="0" leadInLength="0/1"  />
               <InterpolatingParam id="6344" interp="linr"  time="-9999999/1" value="0" leadInLength="0/1"  />
               <InterpolatingParam id="6345" interp="linr"  time="-9999999/1" value="0" leadInLength="0/1"  />
              </VectorParam>
              <VectorParam id="6346"  name="scale">
               <InterpolatingParam id="6347" interp="linr"  time="-9999999/1" value="1" leadInLength="0/1"  />
               <InterpolatingParam id="6348" interp="linr"  time="-9999999/1" value="1" leadInLength="0/1"  />
               <InterpolatingParam id="6349" interp="linr"  time="-9999999/1" value="1" leadInLength="0/1"  />
              </VectorParam>
              <VectorParam id="6350"  name="anchor">
               <InterpolatingParam id="6351" interp="linr"  time="0/1" value="0" leadInLength="0/1"  />
               <InterpolatingParam id="6352" interp="linr"  time="0/1" value="0" leadInLength="0/1"  />
               <InterpolatingParam id="6353" interp="linr"  time="0/1" value="0" leadInLength="0/1"  />
              </VectorParam>
             </Transformer>
             <Parameters>
              <VectorParam id="6354"  name="sourceCrop">
               <InterpolatingParam id="6355" interp="linr"  time="0/1" value="0" leadInLength="0/1"  />
               <InterpolatingParam id="6356" interp="linr"  time="0/1" value="0" leadInLength="0/1"  />
               <InterpolatingParam id="6357" interp="linr"  time="0/1" value="0" leadInLength="0/1"  />
               <InterpolatingParam id="6358" interp="linr"  time="0/1" value="0" leadInLength="0/1"  />
              </VectorParam>
              <VectorParam id="6359"  name="geometryCrop">
               <InterpolatingParam id="6360" interp="linr"  time="-9999999/1" value="0" leadInLength="0/1"  />
               <InterpolatingParam id="6361" interp="linr"  time="-9999999/1" value="0" leadInLength="0/1"  />
               <InterpolatingParam id="6362" interp="linr"  time="-9999999/1" value="0" leadInLength="0/1"  />
               <InterpolatingParam id="6363" interp="linr"  time="-9999999/1" value="0" leadInLength="0/1"  />
              </VectorParam>
              <InterpolatingParam id="6364" interp="linr"  time="-9999999/1" value="1" leadInLength="0/1"  name="opacity"/>
             </Parameters>
             <Attributes>
              <Attribute id="6365" value="" name="ident"/>
             </Attributes>
             <ExtraData>
              <Entry key="ZoomPanBin">
               <ZoomPanBin id="6366"  >
                <ZoomPanKeyframes>
                 <ZoomPanKeyframe id="6367" timeRangeEnd="-9999999/1" timeRangeDuration="0/1" interpolaterName=""  />
                </ZoomPanKeyframes>
               </ZoomPanBin>
              </Entry>
             </ExtraData>
            </VMFile>
            <MetaData>
             <entry key="WinSubProjectDisplayName" val=""/>
            </MetaData>
           </UnifiedMedia>
           <UnifiedMedia id="6368"  >
            <AMFile id="6369" start="2528" duration="33" scalar="1/1" mediaStart="3158/1" mediaDuration="33/1" trackNumber="1" src="4" channelNumber="0,1" >
             <Parameters>
              <InterpolatingParam id="6370" interp="linr"  time="0/1" value="1" leadInLength="0/1"  name="volume"/>
              <Parameter id="6371"  name="captions"/>
             </Parameters>
             <Attributes>
              <Attribute id="6372" value="" name="ident"/>
              <Attribute id="6373" value="48000" name="sampleRate"/>
              <Attribute id="6374" value="16" name="bitDepth"/>
              <Attribute id="6375" value="1" name="gain"/>
              <Attribute id="6376" value="0" name="mixToMono"/>
             </Attributes>
            </AMFile>
            <VMFile id="6377" start="2528" duration="33" scalar="1/1" mediaStart="3158/1" mediaDuration="33/1" trackNumber="0" src="4" >
             <Transformer>
              <VectorParam id="6378"  name="translation">
               <InterpolatingParam id="6379" interp="linr"  time="-9999999/1" value="0" leadInLength="0/1"  />
               <InterpolatingParam id="6380" interp="linr"  time="-9999999/1" value="0" leadInLength="0/1"  />
               <InterpolatingParam id="6381" interp="linr"  time="-9999999/1" value="0" leadInLength="0/1"  />
              </VectorParam>
              <VectorParam id="6382"  name="rotation">
               <InterpolatingParam id="6383" interp="linr"  time="-9999999/1" value="0" leadInLength="0/1"  />
               <InterpolatingParam id="6384" interp="linr"  time="-9999999/1" value="0" leadInLength="0/1"  />
               <InterpolatingParam id="6385" interp="linr"  time="-9999999/1" value="0" leadInLength="0/1"  />
              </VectorParam>
              <VectorParam id="6386"  name="shear">
               <InterpolatingParam id="6387" interp="linr"  time="-9999999/1" value="0" leadInLength="0/1"  />
               <InterpolatingParam id="6388" interp="linr"  time="-9999999/1" value="0" leadInLength="0/1"  />
               <InterpolatingParam id="6389" interp="linr"  time="-9999999/1" value="0" leadInLength="0/1"  />
              </VectorParam>
              <VectorParam id="6390"  name="scale">
               <InterpolatingParam id="6391" interp="linr"  time="-9999999/1" value="1" leadInLength="0/1"  />
               <InterpolatingParam id="6392" interp="linr"  time="-9999999/1" value="1" leadInLength="0/1"  />
               <InterpolatingParam id="6393" interp="linr"  time="-9999999/1" value="1" leadInLength="0/1"  />
              </VectorParam>
              <VectorParam id="6394"  name="anchor">
               <InterpolatingParam id="6395" interp="linr"  time="0/1" value="0" leadInLength="0/1"  />
               <InterpolatingParam id="6396" interp="linr"  time="0/1" value="0" leadInLength="0/1"  />
               <InterpolatingParam id="6397" interp="linr"  time="0/1" value="0" leadInLength="0/1"  />
              </VectorParam>
             </Transformer>
             <Parameters>
              <VectorParam id="6398"  name="sourceCrop">
               <InterpolatingParam id="6399" interp="linr"  time="0/1" value="0" leadInLength="0/1"  />
               <InterpolatingParam id="6400" interp="linr"  time="0/1" value="0" leadInLength="0/1"  />
               <InterpolatingParam id="6401" interp="linr"  time="0/1" value="0" leadInLength="0/1"  />
               <InterpolatingParam id="6402" interp="linr"  time="0/1" value="0" leadInLength="0/1"  />
              </VectorParam>
              <VectorParam id="6403"  name="geometryCrop">
               <InterpolatingParam id="6404" interp="linr"  time="-9999999/1" value="0" leadInLength="0/1"  />
               <InterpolatingParam id="6405" interp="linr"  time="-9999999/1" value="0" leadInLength="0/1"  />
               <InterpolatingParam id="6406" interp="linr"  time="-9999999/1" value="0" leadInLength="0/1"  />
               <InterpolatingParam id="6407" interp="linr"  time="-9999999/1" value="0" leadInLength="0/1"  />
              </VectorParam>
              <InterpolatingParam id="6408" interp="linr"  time="-9999999/1" value="1" leadInLength="0/1"  name="opacity"/>
             </Parameters>
             <Attributes>
              <Attribute id="6409" value="" name="ident"/>
             </Attributes>
             <ExtraData>
              <Entry key="ZoomPanBin">
               <ZoomPanBin id="6410"  >
                <ZoomPanKeyframes>
                 <ZoomPanKeyframe id="6411" timeRangeEnd="-9999999/1" timeRangeDuration="0/1" interpolaterName=""  />
                </ZoomPanKeyframes>
               </ZoomPanBin>
              </Entry>
             </ExtraData>
            </VMFile>
            <MetaData>
             <entry key="WinSubProjectDisplayName" val=""/>
            </MetaData>
           </UnifiedMedia>
           <UnifiedMedia id="6412"  >
            <AMFile id="6413" start="2561" duration="46" scalar="1/1" mediaStart="3257/1" mediaDuration="46/1" trackNumber="1" src="4" channelNumber="0,1" >
             <Parameters>
              <InterpolatingParam id="6414" interp="linr"  time="0/1" value="1" leadInLength="0/1"  name="volume"/>
              <Parameter id="6415"  name="captions"/>
             </Parameters>
             <Attributes>
              <Attribute id="6416" value="" name="ident"/>
              <Attribute id="6417" value="48000" name="sampleRate"/>
              <Attribute id="6418" value="16" name="bitDepth"/>
              <Attribute id="6419" value="1" name="gain"/>
              <Attribute id="6420" value="0" name="mixToMono"/>
             </Attributes>
            </AMFile>
            <VMFile id="6421" start="2561" duration="46" scalar="1/1" mediaStart="3257/1" mediaDuration="46/1" trackNumber="0" src="4" >
             <Transformer>
              <VectorParam id="6422"  name="translation">
               <InterpolatingParam id="6423" interp="linr"  time="-9999999/1" value="0" leadInLength="0/1"  />
               <InterpolatingParam id="6424" interp="linr"  time="-9999999/1" value="0" leadInLength="0/1"  />
               <InterpolatingParam id="6425" interp="linr"  time="-9999999/1" value="0" leadInLength="0/1"  />
              </VectorParam>
              <VectorParam id="6426"  name="rotation">
               <InterpolatingParam id="6427" interp="linr"  time="-9999999/1" value="0" leadInLength="0/1"  />
               <InterpolatingParam id="6428" interp="linr"  time="-9999999/1" value="0" leadInLength="0/1"  />
               <InterpolatingParam id="6429" interp="linr"  time="-9999999/1" value="0" leadInLength="0/1"  />
              </VectorParam>
              <VectorParam id="6430"  name="shear">
               <InterpolatingParam id="6431" interp="linr"  time="-9999999/1" value="0" leadInLength="0/1"  />
               <InterpolatingParam id="6432" interp="linr"  time="-9999999/1" value="0" leadInLength="0/1"  />
               <InterpolatingParam id="6433" interp="linr"  time="-9999999/1" value="0" leadInLength="0/1"  />
              </VectorParam>
              <VectorParam id="6434"  name="scale">
               <InterpolatingParam id="6435" interp="linr"  time="-9999999/1" value="1" leadInLength="0/1"  />
               <InterpolatingParam id="6436" interp="linr"  time="-9999999/1" value="1" leadInLength="0/1"  />
               <InterpolatingParam id="6437" interp="linr"  time="-9999999/1" value="1" leadInLength="0/1"  />
              </VectorParam>
              <VectorParam id="6438"  name="anchor">
               <InterpolatingParam id="6439" interp="linr"  time="0/1" value="0" leadInLength="0/1"  />
               <InterpolatingParam id="6440" interp="linr"  time="0/1" value="0" leadInLength="0/1"  />
               <InterpolatingParam id="6441" interp="linr"  time="0/1" value="0" leadInLength="0/1"  />
              </VectorParam>
             </Transformer>
             <Parameters>
              <VectorParam id="6442"  name="sourceCrop">
               <InterpolatingParam id="6443" interp="linr"  time="0/1" value="0" leadInLength="0/1"  />
               <InterpolatingParam id="6444" interp="linr"  time="0/1" value="0" leadInLength="0/1"  />
               <InterpolatingParam id="6445" interp="linr"  time="0/1" value="0" leadInLength="0/1"  />
               <InterpolatingParam id="6446" interp="linr"  time="0/1" value="0" leadInLength="0/1"  />
              </VectorParam>
              <VectorParam id="6447"  name="geometryCrop">
               <InterpolatingParam id="6448" interp="linr"  time="-9999999/1" value="0" leadInLength="0/1"  />
               <InterpolatingParam id="6449" interp="linr"  time="-9999999/1" value="0" leadInLength="0/1"  />
               <InterpolatingParam id="6450" interp="linr"  time="-9999999/1" value="0" leadInLength="0/1"  />
               <InterpolatingParam id="6451" interp="linr"  time="-9999999/1" value="0" leadInLength="0/1"  />
              </VectorParam>
              <InterpolatingParam id="6452" interp="linr"  time="-9999999/1" value="1" leadInLength="0/1"  name="opacity"/>
             </Parameters>
             <Attributes>
              <Attribute id="6453" value="" name="ident"/>
             </Attributes>
             <ExtraData>
              <Entry key="ZoomPanBin">
               <ZoomPanBin id="6454"  >
                <ZoomPanKeyframes>
                 <ZoomPanKeyframe id="6455" timeRangeEnd="-9999999/1" timeRangeDuration="0/1" interpolaterName=""  />
                </ZoomPanKeyframes>
               </ZoomPanBin>
              </Entry>
             </ExtraData>
            </VMFile>
            <MetaData>
             <entry key="WinSubProjectDisplayName" val=""/>
            </MetaData>
           </UnifiedMedia>
           <UnifiedMedia id="6456"  >
            <AMFile id="6457" start="2607" duration="22" scalar="1/1" mediaStart="3312/1" mediaDuration="22/1" trackNumber="1" src="4" channelNumber="0,1" >
             <Parameters>
              <InterpolatingParam id="6458" interp="linr"  time="0/1" value="1" leadInLength="0/1"  name="volume"/>
              <Parameter id="6459"  name="captions"/>
             </Parameters>
             <Attributes>
              <Attribute id="6460" value="" name="ident"/>
              <Attribute id="6461" value="48000" name="sampleRate"/>
              <Attribute id="6462" value="16" name="bitDepth"/>
              <Attribute id="6463" value="1" name="gain"/>
              <Attribute id="6464" value="0" name="mixToMono"/>
             </Attributes>
            </AMFile>
            <VMFile id="6465" start="2607" duration="22" scalar="1/1" mediaStart="3312/1" mediaDuration="22/1" trackNumber="0" src="4" >
             <Transformer>
              <VectorParam id="6466"  name="translation">
               <InterpolatingParam id="6467" interp="linr"  time="-9999999/1" value="0" leadInLength="0/1"  />
               <InterpolatingParam id="6468" interp="linr"  time="-9999999/1" value="0" leadInLength="0/1"  />
               <InterpolatingParam id="6469" interp="linr"  time="-9999999/1" value="0" leadInLength="0/1"  />
              </VectorParam>
              <VectorParam id="6470"  name="rotation">
               <InterpolatingParam id="6471" interp="linr"  time="-9999999/1" value="0" leadInLength="0/1"  />
               <InterpolatingParam id="6472" interp="linr"  time="-9999999/1" value="0" leadInLength="0/1"  />
               <InterpolatingParam id="6473" interp="linr"  time="-9999999/1" value="0" leadInLength="0/1"  />
              </VectorParam>
              <VectorParam id="6474"  name="shear">
               <InterpolatingParam id="6475" interp="linr"  time="-9999999/1" value="0" leadInLength="0/1"  />
               <InterpolatingParam id="6476" interp="linr"  time="-9999999/1" value="0" leadInLength="0/1"  />
               <InterpolatingParam id="6477" interp="linr"  time="-9999999/1" value="0" leadInLength="0/1"  />
              </VectorParam>
              <VectorParam id="6478"  name="scale">
               <InterpolatingParam id="6479" interp="linr"  time="-9999999/1" value="1" leadInLength="0/1"  />
               <InterpolatingParam id="6480" interp="linr"  time="-9999999/1" value="1" leadInLength="0/1"  />
               <InterpolatingParam id="6481" interp="linr"  time="-9999999/1" value="1" leadInLength="0/1"  />
              </VectorParam>
              <VectorParam id="6482"  name="anchor">
               <InterpolatingParam id="6483" interp="linr"  time="0/1" value="0" leadInLength="0/1"  />
               <InterpolatingParam id="6484" interp="linr"  time="0/1" value="0" leadInLength="0/1"  />
               <InterpolatingParam id="6485" interp="linr"  time="0/1" value="0" leadInLength="0/1"  />
              </VectorParam>
             </Transformer>
             <Parameters>
              <VectorParam id="6486"  name="sourceCrop">
               <InterpolatingParam id="6487" interp="linr"  time="0/1" value="0" leadInLength="0/1"  />
               <InterpolatingParam id="6488" interp="linr"  time="0/1" value="0" leadInLength="0/1"  />
               <InterpolatingParam id="6489" interp="linr"  time="0/1" value="0" leadInLength="0/1"  />
               <InterpolatingParam id="6490" interp="linr"  time="0/1" value="0" leadInLength="0/1"  />
              </VectorParam>
              <VectorParam id="6491"  name="geometryCrop">
               <InterpolatingParam id="6492" interp="linr"  time="-9999999/1" value="0" leadInLength="0/1"  />
               <InterpolatingParam id="6493" interp="linr"  time="-9999999/1" value="0" leadInLength="0/1"  />
               <InterpolatingParam id="6494" interp="linr"  time="-9999999/1" value="0" leadInLength="0/1"  />
               <InterpolatingParam id="6495" interp="linr"  time="-9999999/1" value="0" leadInLength="0/1"  />
              </VectorParam>
              <InterpolatingParam id="6496" interp="linr"  time="-9999999/1" value="1" leadInLength="0/1"  name="opacity"/>
             </Parameters>
             <Attributes>
              <Attribute id="6497" value="" name="ident"/>
             </Attributes>
             <ExtraData>
              <Entry key="ZoomPanBin">
               <ZoomPanBin id="6498"  >
                <ZoomPanKeyframes>
                 <ZoomPanKeyframe id="6499" timeRangeEnd="-9999999/1" timeRangeDuration="0/1" interpolaterName=""  />
                </ZoomPanKeyframes>
               </ZoomPanBin>
              </Entry>
             </ExtraData>
            </VMFile>
            <MetaData>
             <entry key="WinSubProjectDisplayName" val=""/>
            </MetaData>
           </UnifiedMedia>
           <UnifiedMedia id="6500"  >
            <AMFile id="6501" start="2629" duration="502" scalar="1/1" mediaStart="3366/1" mediaDuration="502/1" trackNumber="1" src="4" channelNumber="0,1" >
             <Parameters>
              <InterpolatingParam id="6502" interp="linr"  time="0/1" value="1" leadInLength="0/1"  name="volume"/>
              <Parameter id="6503"  name="captions"/>
             </Parameters>
             <Attributes>
              <Attribute id="6504" value="" name="ident"/>
              <Attribute id="6505" value="48000" name="sampleRate"/>
              <Attribute id="6506" value="16" name="bitDepth"/>
              <Attribute id="6507" value="1" name="gain"/>
              <Attribute id="6508" value="0" name="mixToMono"/>
             </Attributes>
            </AMFile>
            <VMFile id="6509" start="2629" duration="502" scalar="1/1" mediaStart="3366/1" mediaDuration="502/1" trackNumber="0" src="4" >
             <Transformer>
              <VectorParam id="6510"  name="translation">
               <InterpolatingParam id="6511" interp="linr"  time="-9999999/1" value="0" leadInLength="0/1"  />
               <InterpolatingParam id="6512" interp="linr"  time="-9999999/1" value="0" leadInLength="0/1"  />
               <InterpolatingParam id="6513" interp="linr"  time="-9999999/1" value="0" leadInLength="0/1"  />
              </VectorParam>
              <VectorParam id="6514"  name="rotation">
               <InterpolatingParam id="6515" interp="linr"  time="-9999999/1" value="0" leadInLength="0/1"  />
               <InterpolatingParam id="6516" interp="linr"  time="-9999999/1" value="0" leadInLength="0/1"  />
               <InterpolatingParam id="6517" interp="linr"  time="-9999999/1" value="0" leadInLength="0/1"  />
              </VectorParam>
              <VectorParam id="6518"  name="shear">
               <InterpolatingParam id="6519" interp="linr"  time="-9999999/1" value="0" leadInLength="0/1"  />
               <InterpolatingParam id="6520" interp="linr"  time="-9999999/1" value="0" leadInLength="0/1"  />
               <InterpolatingParam id="6521" interp="linr"  time="-9999999/1" value="0" leadInLength="0/1"  />
              </VectorParam>
              <VectorParam id="6522"  name="scale">
               <InterpolatingParam id="6523" interp="linr"  time="-9999999/1" value="1" leadInLength="0/1"  />
               <InterpolatingParam id="6524" interp="linr"  time="-9999999/1" value="1" leadInLength="0/1"  />
               <InterpolatingParam id="6525" interp="linr"  time="-9999999/1" value="1" leadInLength="0/1"  />
              </VectorParam>
              <VectorParam id="6526"  name="anchor">
               <InterpolatingParam id="6527" interp="linr"  time="0/1" value="0" leadInLength="0/1"  />
               <InterpolatingParam id="6528" interp="linr"  time="0/1" value="0" leadInLength="0/1"  />
               <InterpolatingParam id="6529" interp="linr"  time="0/1" value="0" leadInLength="0/1"  />
              </VectorParam>
             </Transformer>
             <Parameters>
              <VectorParam id="6530"  name="sourceCrop">
               <InterpolatingParam id="6531" interp="linr"  time="0/1" value="0" leadInLength="0/1"  />
               <InterpolatingParam id="6532" interp="linr"  time="0/1" value="0" leadInLength="0/1"  />
               <InterpolatingParam id="6533" interp="linr"  time="0/1" value="0" leadInLength="0/1"  />
               <InterpolatingParam id="6534" interp="linr"  time="0/1" value="0" leadInLength="0/1"  />
              </VectorParam>
              <VectorParam id="6535"  name="geometryCrop">
               <InterpolatingParam id="6536" interp="linr"  time="-9999999/1" value="0" leadInLength="0/1"  />
               <InterpolatingParam id="6537" interp="linr"  time="-9999999/1" value="0" leadInLength="0/1"  />
               <InterpolatingParam id="6538" interp="linr"  time="-9999999/1" value="0" leadInLength="0/1"  />
               <InterpolatingParam id="6539" interp="linr"  time="-9999999/1" value="0" leadInLength="0/1"  />
              </VectorParam>
              <InterpolatingParam id="6540" interp="linr"  time="-9999999/1" value="1" leadInLength="0/1"  name="opacity"/>
             </Parameters>
             <Attributes>
              <Attribute id="6541" value="" name="ident"/>
             </Attributes>
             <ExtraData>
              <Entry key="ZoomPanBin">
               <ZoomPanBin id="6542"  >
                <ZoomPanKeyframes>
                 <ZoomPanKeyframe id="6543" timeRangeEnd="-9999999/1" timeRangeDuration="0/1" interpolaterName=""  />
                </ZoomPanKeyframes>
               </ZoomPanBin>
              </Entry>
             </ExtraData>
            </VMFile>
            <MetaData>
             <entry key="WinSubProjectDisplayName" val=""/>
            </MetaData>
           </UnifiedMedia>
           <UnifiedMedia id="6544"  >
            <AMFile id="6545" start="3131" duration="35" scalar="1/1" mediaStart="3903/1" mediaDuration="35/1" trackNumber="1" src="4" channelNumber="0,1" >
             <Parameters>
              <InterpolatingParam id="6546" interp="linr"  time="0/1" value="1" leadInLength="0/1"  name="volume"/>
              <Parameter id="6547"  name="captions"/>
             </Parameters>
             <Attributes>
              <Attribute id="6548" value="" name="ident"/>
              <Attribute id="6549" value="48000" name="sampleRate"/>
              <Attribute id="6550" value="16" name="bitDepth"/>
              <Attribute id="6551" value="1" name="gain"/>
              <Attribute id="6552" value="0" name="mixToMono"/>
             </Attributes>
            </AMFile>
            <VMFile id="6553" start="3131" duration="35" scalar="1/1" mediaStart="3903/1" mediaDuration="35/1" trackNumber="0" src="4" >
             <Transformer>
              <VectorParam id="6554"  name="translation">
               <InterpolatingParam id="6555" interp="linr"  time="-9999999/1" value="0" leadInLength="0/1"  />
               <InterpolatingParam id="6556" interp="linr"  time="-9999999/1" value="0" leadInLength="0/1"  />
               <InterpolatingParam id="6557" interp="linr"  time="-9999999/1" value="0" leadInLength="0/1"  />
              </VectorParam>
              <VectorParam id="6558"  name="rotation">
               <InterpolatingParam id="6559" interp="linr"  time="-9999999/1" value="0" leadInLength="0/1"  />
               <InterpolatingParam id="6560" interp="linr"  time="-9999999/1" value="0" leadInLength="0/1"  />
               <InterpolatingParam id="6561" interp="linr"  time="-9999999/1" value="0" leadInLength="0/1"  />
              </VectorParam>
              <VectorParam id="6562"  name="shear">
               <InterpolatingParam id="6563" interp="linr"  time="-9999999/1" value="0" leadInLength="0/1"  />
               <InterpolatingParam id="6564" interp="linr"  time="-9999999/1" value="0" leadInLength="0/1"  />
               <InterpolatingParam id="6565" interp="linr"  time="-9999999/1" value="0" leadInLength="0/1"  />
              </VectorParam>
              <VectorParam id="6566"  name="scale">
               <InterpolatingParam id="6567" interp="linr"  time="-9999999/1" value="1" leadInLength="0/1"  />
               <InterpolatingParam id="6568" interp="linr"  time="-9999999/1" value="1" leadInLength="0/1"  />
               <InterpolatingParam id="6569" interp="linr"  time="-9999999/1" value="1" leadInLength="0/1"  />
              </VectorParam>
              <VectorParam id="6570"  name="anchor">
               <InterpolatingParam id="6571" interp="linr"  time="0/1" value="0" leadInLength="0/1"  />
               <InterpolatingParam id="6572" interp="linr"  time="0/1" value="0" leadInLength="0/1"  />
               <InterpolatingParam id="6573" interp="linr"  time="0/1" value="0" leadInLength="0/1"  />
              </VectorParam>
             </Transformer>
             <Parameters>
              <VectorParam id="6574"  name="sourceCrop">
               <InterpolatingParam id="6575" interp="linr"  time="0/1" value="0" leadInLength="0/1"  />
               <InterpolatingParam id="6576" interp="linr"  time="0/1" value="0" leadInLength="0/1"  />
               <InterpolatingParam id="6577" interp="linr"  time="0/1" value="0" leadInLength="0/1"  />
               <InterpolatingParam id="6578" interp="linr"  time="0/1" value="0" leadInLength="0/1"  />
              </VectorParam>
              <VectorParam id="6579"  name="geometryCrop">
               <InterpolatingParam id="6580" interp="linr"  time="-9999999/1" value="0" leadInLength="0/1"  />
               <InterpolatingParam id="6581" interp="linr"  time="-9999999/1" value="0" leadInLength="0/1"  />
               <InterpolatingParam id="6582" interp="linr"  time="-9999999/1" value="0" leadInLength="0/1"  />
               <InterpolatingParam id="6583" interp="linr"  time="-9999999/1" value="0" leadInLength="0/1"  />
              </VectorParam>
              <InterpolatingParam id="6584" interp="linr"  time="-9999999/1" value="1" leadInLength="0/1"  name="opacity"/>
             </Parameters>
             <Attributes>
              <Attribute id="6585" value="" name="ident"/>
             </Attributes>
             <ExtraData>
              <Entry key="ZoomPanBin">
               <ZoomPanBin id="6586"  >
                <ZoomPanKeyframes>
                 <ZoomPanKeyframe id="6587" timeRangeEnd="-9999999/1" timeRangeDuration="0/1" interpolaterName=""  />
                </ZoomPanKeyframes>
               </ZoomPanBin>
              </Entry>
             </ExtraData>
            </VMFile>
            <MetaData>
             <entry key="WinSubProjectDisplayName" val=""/>
            </MetaData>
           </UnifiedMedia>
           <UnifiedMedia id="6588"  >
            <AMFile id="6589" start="3166" duration="30" scalar="1/1" mediaStart="4007/1" mediaDuration="30/1" trackNumber="1" src="4" channelNumber="0,1" >
             <Parameters>
              <InterpolatingParam id="6590" interp="linr"  time="0/1" value="1" leadInLength="0/1"  name="volume"/>
              <Parameter id="6591"  name="captions"/>
             </Parameters>
             <Attributes>
              <Attribute id="6592" value="" name="ident"/>
              <Attribute id="6593" value="48000" name="sampleRate"/>
              <Attribute id="6594" value="16" name="bitDepth"/>
              <Attribute id="6595" value="1" name="gain"/>
              <Attribute id="6596" value="0" name="mixToMono"/>
             </Attributes>
            </AMFile>
            <VMFile id="6597" start="3166" duration="30" scalar="1/1" mediaStart="4007/1" mediaDuration="30/1" trackNumber="0" src="4" >
             <Transformer>
              <VectorParam id="6598"  name="translation">
               <InterpolatingParam id="6599" interp="linr"  time="-9999999/1" value="0" leadInLength="0/1"  />
               <InterpolatingParam id="6600" interp="linr"  time="-9999999/1" value="0" leadInLength="0/1"  />
               <InterpolatingParam id="6601" interp="linr"  time="-9999999/1" value="0" leadInLength="0/1"  />
              </VectorParam>
              <VectorParam id="6602"  name="rotation">
               <InterpolatingParam id="6603" interp="linr"  time="-9999999/1" value="0" leadInLength="0/1"  />
               <InterpolatingParam id="6604" interp="linr"  time="-9999999/1" value="0" leadInLength="0/1"  />
               <InterpolatingParam id="6605" interp="linr"  time="-9999999/1" value="0" leadInLength="0/1"  />
              </VectorParam>
              <VectorParam id="6606"  name="shear">
               <InterpolatingParam id="6607" interp="linr"  time="-9999999/1" value="0" leadInLength="0/1"  />
               <InterpolatingParam id="6608" interp="linr"  time="-9999999/1" value="0" leadInLength="0/1"  />
               <InterpolatingParam id="6609" interp="linr"  time="-9999999/1" value="0" leadInLength="0/1"  />
              </VectorParam>
              <VectorParam id="6610"  name="scale">
               <InterpolatingParam id="6611" interp="linr"  time="-9999999/1" value="1" leadInLength="0/1"  />
               <InterpolatingParam id="6612" interp="linr"  time="-9999999/1" value="1" leadInLength="0/1"  />
               <InterpolatingParam id="6613" interp="linr"  time="-9999999/1" value="1" leadInLength="0/1"  />
              </VectorParam>
              <VectorParam id="6614"  name="anchor">
               <InterpolatingParam id="6615" interp="linr"  time="0/1" value="0" leadInLength="0/1"  />
               <InterpolatingParam id="6616" interp="linr"  time="0/1" value="0" leadInLength="0/1"  />
               <InterpolatingParam id="6617" interp="linr"  time="0/1" value="0" leadInLength="0/1"  />
              </VectorParam>
             </Transformer>
             <Parameters>
              <VectorParam id="6618"  name="sourceCrop">
               <InterpolatingParam id="6619" interp="linr"  time="0/1" value="0" leadInLength="0/1"  />
               <InterpolatingParam id="6620" interp="linr"  time="0/1" value="0" leadInLength="0/1"  />
               <InterpolatingParam id="6621" interp="linr"  time="0/1" value="0" leadInLength="0/1"  />
               <InterpolatingParam id="6622" interp="linr"  time="0/1" value="0" leadInLength="0/1"  />
              </VectorParam>
              <VectorParam id="6623"  name="geometryCrop">
               <InterpolatingParam id="6624" interp="linr"  time="-9999999/1" value="0" leadInLength="0/1"  />
               <InterpolatingParam id="6625" interp="linr"  time="-9999999/1" value="0" leadInLength="0/1"  />
               <InterpolatingParam id="6626" interp="linr"  time="-9999999/1" value="0" leadInLength="0/1"  />
               <InterpolatingParam id="6627" interp="linr"  time="-9999999/1" value="0" leadInLength="0/1"  />
              </VectorParam>
              <InterpolatingParam id="6628" interp="linr"  time="-9999999/1" value="1" leadInLength="0/1"  name="opacity"/>
             </Parameters>
             <Attributes>
              <Attribute id="6629" value="" name="ident"/>
             </Attributes>
             <ExtraData>
              <Entry key="ZoomPanBin">
               <ZoomPanBin id="6630"  >
                <ZoomPanKeyframes>
                 <ZoomPanKeyframe id="6631" timeRangeEnd="-9999999/1" timeRangeDuration="0/1" interpolaterName=""  />
                </ZoomPanKeyframes>
               </ZoomPanBin>
              </Entry>
             </ExtraData>
            </VMFile>
            <MetaData>
             <entry key="WinSubProjectDisplayName" val=""/>
            </MetaData>
           </UnifiedMedia>
           <UnifiedMedia id="6632"  >
            <AMFile id="6633" start="3196" duration="287" scalar="1/1" mediaStart="4054/1" mediaDuration="287/1" trackNumber="1" src="4" channelNumber="0,1" >
             <Parameters>
              <InterpolatingParam id="6634" interp="linr"  time="0/1" value="1" leadInLength="0/1"  name="volume"/>
              <Parameter id="6635"  name="captions"/>
             </Parameters>
             <Attributes>
              <Attribute id="6636" value="" name="ident"/>
              <Attribute id="6637" value="48000" name="sampleRate"/>
              <Attribute id="6638" value="16" name="bitDepth"/>
              <Attribute id="6639" value="1" name="gain"/>
              <Attribute id="6640" value="0" name="mixToMono"/>
             </Attributes>
            </AMFile>
            <VMFile id="6641" start="3196" duration="287" scalar="1/1" mediaStart="4054/1" mediaDuration="287/1" trackNumber="0" src="4" >
             <Transformer>
              <VectorParam id="6642"  name="translation">
               <InterpolatingParam id="6643" interp="linr"  time="-9999999/1" value="0" leadInLength="0/1"  />
               <InterpolatingParam id="6644" interp="linr"  time="-9999999/1" value="0" leadInLength="0/1"  />
               <InterpolatingParam id="6645" interp="linr"  time="-9999999/1" value="0" leadInLength="0/1"  />
              </VectorParam>
              <VectorParam id="6646"  name="rotation">
               <InterpolatingParam id="6647" interp="linr"  time="-9999999/1" value="0" leadInLength="0/1"  />
               <InterpolatingParam id="6648" interp="linr"  time="-9999999/1" value="0" leadInLength="0/1"  />
               <InterpolatingParam id="6649" interp="linr"  time="-9999999/1" value="0" leadInLength="0/1"  />
              </VectorParam>
              <VectorParam id="6650"  name="shear">
               <InterpolatingParam id="6651" interp="linr"  time="-9999999/1" value="0" leadInLength="0/1"  />
               <InterpolatingParam id="6652" interp="linr"  time="-9999999/1" value="0" leadInLength="0/1"  />
               <InterpolatingParam id="6653" interp="linr"  time="-9999999/1" value="0" leadInLength="0/1"  />
              </VectorParam>
              <VectorParam id="6654"  name="scale">
               <InterpolatingParam id="6655" interp="linr"  time="-9999999/1" value="1" leadInLength="0/1"  />
               <InterpolatingParam id="6656" interp="linr"  time="-9999999/1" value="1" leadInLength="0/1"  />
               <InterpolatingParam id="6657" interp="linr"  time="-9999999/1" value="1" leadInLength="0/1"  />
              </VectorParam>
              <VectorParam id="6658"  name="anchor">
               <InterpolatingParam id="6659" interp="linr"  time="0/1" value="0" leadInLength="0/1"  />
               <InterpolatingParam id="6660" interp="linr"  time="0/1" value="0" leadInLength="0/1"  />
               <InterpolatingParam id="6661" interp="linr"  time="0/1" value="0" leadInLength="0/1"  />
              </VectorParam>
             </Transformer>
             <Parameters>
              <VectorParam id="6662"  name="sourceCrop">
               <InterpolatingParam id="6663" interp="linr"  time="0/1" value="0" leadInLength="0/1"  />
               <InterpolatingParam id="6664" interp="linr"  time="0/1" value="0" leadInLength="0/1"  />
               <InterpolatingParam id="6665" interp="linr"  time="0/1" value="0" leadInLength="0/1"  />
               <InterpolatingParam id="6666" interp="linr"  time="0/1" value="0" leadInLength="0/1"  />
              </VectorParam>
              <VectorParam id="6667"  name="geometryCrop">
               <InterpolatingParam id="6668" interp="linr"  time="-9999999/1" value="0" leadInLength="0/1"  />
               <InterpolatingParam id="6669" interp="linr"  time="-9999999/1" value="0" leadInLength="0/1"  />
               <InterpolatingParam id="6670" interp="linr"  time="-9999999/1" value="0" leadInLength="0/1"  />
               <InterpolatingParam id="6671" interp="linr"  time="-9999999/1" value="0" leadInLength="0/1"  />
              </VectorParam>
              <InterpolatingParam id="6672" interp="linr"  time="-9999999/1" value="1" leadInLength="0/1"  name="opacity"/>
             </Parameters>
             <Attributes>
              <Attribute id="6673" value="" name="ident"/>
             </Attributes>
             <ExtraData>
              <Entry key="ZoomPanBin">
               <ZoomPanBin id="6674"  >
                <ZoomPanKeyframes>
                 <ZoomPanKeyframe id="6675" timeRangeEnd="-9999999/1" timeRangeDuration="0/1" interpolaterName=""  />
                </ZoomPanKeyframes>
               </ZoomPanBin>
              </Entry>
             </ExtraData>
            </VMFile>
            <MetaData>
             <entry key="WinSubProjectDisplayName" val=""/>
            </MetaData>
           </UnifiedMedia>
           <UnifiedMedia id="6676"  >
            <AMFile id="6677" start="3483" duration="253" scalar="1/1" mediaStart="4362/1" mediaDuration="253/1" trackNumber="1" src="4" channelNumber="0,1" >
             <Parameters>
              <InterpolatingParam id="6678" interp="linr"  time="0/1" value="1" leadInLength="0/1"  name="volume"/>
              <Parameter id="6679"  name="captions"/>
             </Parameters>
             <Attributes>
              <Attribute id="6680" value="" name="ident"/>
              <Attribute id="6681" value="48000" name="sampleRate"/>
              <Attribute id="6682" value="16" name="bitDepth"/>
              <Attribute id="6683" value="1" name="gain"/>
              <Attribute id="6684" value="0" name="mixToMono"/>
             </Attributes>
            </AMFile>
            <VMFile id="6685" start="3483" duration="253" scalar="1/1" mediaStart="4362/1" mediaDuration="253/1" trackNumber="0" src="4" >
             <Transformer>
              <VectorParam id="6686"  name="translation">
               <InterpolatingParam id="6687" interp="linr"  time="-9999999/1" value="0" leadInLength="0/1"  />
               <InterpolatingParam id="6688" interp="linr"  time="-9999999/1" value="0" leadInLength="0/1"  />
               <InterpolatingParam id="6689" interp="linr"  time="-9999999/1" value="0" leadInLength="0/1"  />
              </VectorParam>
              <VectorParam id="6690"  name="rotation">
               <InterpolatingParam id="6691" interp="linr"  time="-9999999/1" value="0" leadInLength="0/1"  />
               <InterpolatingParam id="6692" interp="linr"  time="-9999999/1" value="0" leadInLength="0/1"  />
               <InterpolatingParam id="6693" interp="linr"  time="-9999999/1" value="0" leadInLength="0/1"  />
              </VectorParam>
              <VectorParam id="6694"  name="shear">
               <InterpolatingParam id="6695" interp="linr"  time="-9999999/1" value="0" leadInLength="0/1"  />
               <InterpolatingParam id="6696" interp="linr"  time="-9999999/1" value="0" leadInLength="0/1"  />
               <InterpolatingParam id="6697" interp="linr"  time="-9999999/1" value="0" leadInLength="0/1"  />
              </VectorParam>
              <VectorParam id="6698"  name="scale">
               <InterpolatingParam id="6699" interp="linr"  time="-9999999/1" value="1" leadInLength="0/1"  />
               <InterpolatingParam id="6700" interp="linr"  time="-9999999/1" value="1" leadInLength="0/1"  />
               <InterpolatingParam id="6701" interp="linr"  time="-9999999/1" value="1" leadInLength="0/1"  />
              </VectorParam>
              <VectorParam id="6702"  name="anchor">
               <InterpolatingParam id="6703" interp="linr"  time="0/1" value="0" leadInLength="0/1"  />
               <InterpolatingParam id="6704" interp="linr"  time="0/1" value="0" leadInLength="0/1"  />
               <InterpolatingParam id="6705" interp="linr"  time="0/1" value="0" leadInLength="0/1"  />
              </VectorParam>
             </Transformer>
             <Parameters>
              <VectorParam id="6706"  name="sourceCrop">
               <InterpolatingParam id="6707" interp="linr"  time="0/1" value="0" leadInLength="0/1"  />
               <InterpolatingParam id="6708" interp="linr"  time="0/1" value="0" leadInLength="0/1"  />
               <InterpolatingParam id="6709" interp="linr"  time="0/1" value="0" leadInLength="0/1"  />
               <InterpolatingParam id="6710" interp="linr"  time="0/1" value="0" leadInLength="0/1"  />
              </VectorParam>
              <VectorParam id="6711"  name="geometryCrop">
               <InterpolatingParam id="6712" interp="linr"  time="-9999999/1" value="0" leadInLength="0/1"  />
               <InterpolatingParam id="6713" interp="linr"  time="-9999999/1" value="0" leadInLength="0/1"  />
               <InterpolatingParam id="6714" interp="linr"  time="-9999999/1" value="0" leadInLength="0/1"  />
               <InterpolatingParam id="6715" interp="linr"  time="-9999999/1" value="0" leadInLength="0/1"  />
              </VectorParam>
              <InterpolatingParam id="6716" interp="linr"  time="-9999999/1" value="1" leadInLength="0/1"  name="opacity"/>
             </Parameters>
             <Attributes>
              <Attribute id="6717" value="" name="ident"/>
             </Attributes>
             <ExtraData>
              <Entry key="ZoomPanBin">
               <ZoomPanBin id="6718"  >
                <ZoomPanKeyframes>
                 <ZoomPanKeyframe id="6719" timeRangeEnd="-9999999/1" timeRangeDuration="0/1" interpolaterName=""  />
                </ZoomPanKeyframes>
               </ZoomPanBin>
              </Entry>
             </ExtraData>
            </VMFile>
            <MetaData>
             <entry key="WinSubProjectDisplayName" val=""/>
            </MetaData>
           </UnifiedMedia>
           <UnifiedMedia id="6720"  >
            <AMFile id="6721" start="3736" duration="237" scalar="1/1" mediaStart="4667/1" mediaDuration="237/1" trackNumber="1" src="4" channelNumber="0,1" >
             <Parameters>
              <InterpolatingParam id="6722" interp="linr"  time="0/1" value="1" leadInLength="0/1"  name="volume"/>
              <Parameter id="6723"  name="captions"/>
             </Parameters>
             <Attributes>
              <Attribute id="6724" value="" name="ident"/>
              <Attribute id="6725" value="48000" name="sampleRate"/>
              <Attribute id="6726" value="16" name="bitDepth"/>
              <Attribute id="6727" value="1" name="gain"/>
              <Attribute id="6728" value="0" name="mixToMono"/>
             </Attributes>
            </AMFile>
            <VMFile id="6729" start="3736" duration="237" scalar="1/1" mediaStart="4667/1" mediaDuration="237/1" trackNumber="0" src="4" >
             <Transformer>
              <VectorParam id="6730"  name="translation">
               <InterpolatingParam id="6731" interp="linr"  time="-9999999/1" value="0" leadInLength="0/1"  />
               <InterpolatingParam id="6732" interp="linr"  time="-9999999/1" value="0" leadInLength="0/1"  />
               <InterpolatingParam id="6733" interp="linr"  time="-9999999/1" value="0" leadInLength="0/1"  />
              </VectorParam>
              <VectorParam id="6734"  name="rotation">
               <InterpolatingParam id="6735" interp="linr"  time="-9999999/1" value="0" leadInLength="0/1"  />
               <InterpolatingParam id="6736" interp="linr"  time="-9999999/1" value="0" leadInLength="0/1"  />
               <InterpolatingParam id="6737" interp="linr"  time="-9999999/1" value="0" leadInLength="0/1"  />
              </VectorParam>
              <VectorParam id="6738"  name="shear">
               <InterpolatingParam id="6739" interp="linr"  time="-9999999/1" value="0" leadInLength="0/1"  />
               <InterpolatingParam id="6740" interp="linr"  time="-9999999/1" value="0" leadInLength="0/1"  />
               <InterpolatingParam id="6741" interp="linr"  time="-9999999/1" value="0" leadInLength="0/1"  />
              </VectorParam>
              <VectorParam id="6742"  name="scale">
               <InterpolatingParam id="6743" interp="linr"  time="-9999999/1" value="1" leadInLength="0/1"  />
               <InterpolatingParam id="6744" interp="linr"  time="-9999999/1" value="1" leadInLength="0/1"  />
               <InterpolatingParam id="6745" interp="linr"  time="-9999999/1" value="1" leadInLength="0/1"  />
              </VectorParam>
              <VectorParam id="6746"  name="anchor">
               <InterpolatingParam id="6747" interp="linr"  time="0/1" value="0" leadInLength="0/1"  />
               <InterpolatingParam id="6748" interp="linr"  time="0/1" value="0" leadInLength="0/1"  />
               <InterpolatingParam id="6749" interp="linr"  time="0/1" value="0" leadInLength="0/1"  />
              </VectorParam>
             </Transformer>
             <Parameters>
              <VectorParam id="6750"  name="sourceCrop">
               <InterpolatingParam id="6751" interp="linr"  time="0/1" value="0" leadInLength="0/1"  />
               <InterpolatingParam id="6752" interp="linr"  time="0/1" value="0" leadInLength="0/1"  />
               <InterpolatingParam id="6753" interp="linr"  time="0/1" value="0" leadInLength="0/1"  />
               <InterpolatingParam id="6754" interp="linr"  time="0/1" value="0" leadInLength="0/1"  />
              </VectorParam>
              <VectorParam id="6755"  name="geometryCrop">
               <InterpolatingParam id="6756" interp="linr"  time="-9999999/1" value="0" leadInLength="0/1"  />
               <InterpolatingParam id="6757" interp="linr"  time="-9999999/1" value="0" leadInLength="0/1"  />
               <InterpolatingParam id="6758" interp="linr"  time="-9999999/1" value="0" leadInLength="0/1"  />
               <InterpolatingParam id="6759" interp="linr"  time="-9999999/1" value="0" leadInLength="0/1"  />
              </VectorParam>
              <InterpolatingParam id="6760" interp="linr"  time="-9999999/1" value="1" leadInLength="0/1"  name="opacity"/>
             </Parameters>
             <Attributes>
              <Attribute id="6761" value="" name="ident"/>
             </Attributes>
             <ExtraData>
              <Entry key="ZoomPanBin">
               <ZoomPanBin id="6762"  >
                <ZoomPanKeyframes>
                 <ZoomPanKeyframe id="6763" timeRangeEnd="-9999999/1" timeRangeDuration="0/1" interpolaterName=""  />
                </ZoomPanKeyframes>
               </ZoomPanBin>
              </Entry>
             </ExtraData>
            </VMFile>
            <MetaData>
             <entry key="WinSubProjectDisplayName" val=""/>
            </MetaData>
           </UnifiedMedia>
           <UnifiedMedia id="6764"  >
            <AMFile id="6765" start="3973" duration="161" scalar="1/1" mediaStart="4918/1" mediaDuration="161/1" trackNumber="1" src="4" channelNumber="0,1" >
             <Parameters>
              <InterpolatingParam id="6766" interp="linr"  time="0/1" value="1" leadInLength="0/1"  name="volume"/>
              <Parameter id="6767"  name="captions"/>
             </Parameters>
             <Attributes>
              <Attribute id="6768" value="" name="ident"/>
              <Attribute id="6769" value="48000" name="sampleRate"/>
              <Attribute id="6770" value="16" name="bitDepth"/>
              <Attribute id="6771" value="1" name="gain"/>
              <Attribute id="6772" value="0" name="mixToMono"/>
             </Attributes>
            </AMFile>
            <VMFile id="6773" start="3973" duration="161" scalar="1/1" mediaStart="4918/1" mediaDuration="161/1" trackNumber="0" src="4" >
             <Transformer>
              <VectorParam id="6774"  name="translation">
               <InterpolatingParam id="6775" interp="linr"  time="-9999999/1" value="0" leadInLength="0/1"  />
               <InterpolatingParam id="6776" interp="linr"  time="-9999999/1" value="0" leadInLength="0/1"  />
               <InterpolatingParam id="6777" interp="linr"  time="-9999999/1" value="0" leadInLength="0/1"  />
              </VectorParam>
              <VectorParam id="6778"  name="rotation">
               <InterpolatingParam id="6779" interp="linr"  time="-9999999/1" value="0" leadInLength="0/1"  />
               <InterpolatingParam id="6780" interp="linr"  time="-9999999/1" value="0" leadInLength="0/1"  />
               <InterpolatingParam id="6781" interp="linr"  time="-9999999/1" value="0" leadInLength="0/1"  />
              </VectorParam>
              <VectorParam id="6782"  name="shear">
               <InterpolatingParam id="6783" interp="linr"  time="-9999999/1" value="0" leadInLength="0/1"  />
               <InterpolatingParam id="6784" interp="linr"  time="-9999999/1" value="0" leadInLength="0/1"  />
               <InterpolatingParam id="6785" interp="linr"  time="-9999999/1" value="0" leadInLength="0/1"  />
              </VectorParam>
              <VectorParam id="6786"  name="scale">
               <InterpolatingParam id="6787" interp="linr"  time="-9999999/1" value="1" leadInLength="0/1"  />
               <InterpolatingParam id="6788" interp="linr"  time="-9999999/1" value="1" leadInLength="0/1"  />
               <InterpolatingParam id="6789" interp="linr"  time="-9999999/1" value="1" leadInLength="0/1"  />
              </VectorParam>
              <VectorParam id="6790"  name="anchor">
               <InterpolatingParam id="6791" interp="linr"  time="0/1" value="0" leadInLength="0/1"  />
               <InterpolatingParam id="6792" interp="linr"  time="0/1" value="0" leadInLength="0/1"  />
               <InterpolatingParam id="6793" interp="linr"  time="0/1" value="0" leadInLength="0/1"  />
              </VectorParam>
             </Transformer>
             <Parameters>
              <VectorParam id="6794"  name="sourceCrop">
               <InterpolatingParam id="6795" interp="linr"  time="0/1" value="0" leadInLength="0/1"  />
               <InterpolatingParam id="6796" interp="linr"  time="0/1" value="0" leadInLength="0/1"  />
               <InterpolatingParam id="6797" interp="linr"  time="0/1" value="0" leadInLength="0/1"  />
               <InterpolatingParam id="6798" interp="linr"  time="0/1" value="0" leadInLength="0/1"  />
              </VectorParam>
              <VectorParam id="6799"  name="geometryCrop">
               <InterpolatingParam id="6800" interp="linr"  time="-9999999/1" value="0" leadInLength="0/1"  />
               <InterpolatingParam id="6801" interp="linr"  time="-9999999/1" value="0" leadInLength="0/1"  />
               <InterpolatingParam id="6802" interp="linr"  time="-9999999/1" value="0" leadInLength="0/1"  />
               <InterpolatingParam id="6803" interp="linr"  time="-9999999/1" value="0" leadInLength="0/1"  />
              </VectorParam>
              <InterpolatingParam id="6804" interp="linr"  time="-9999999/1" value="1" leadInLength="0/1"  name="opacity"/>
             </Parameters>
             <Attributes>
              <Attribute id="6805" value="" name="ident"/>
             </Attributes>
             <ExtraData>
              <Entry key="ZoomPanBin">
               <ZoomPanBin id="6806"  >
                <ZoomPanKeyframes>
                 <ZoomPanKeyframe id="6807" timeRangeEnd="-9999999/1" timeRangeDuration="0/1" interpolaterName=""  />
                </ZoomPanKeyframes>
               </ZoomPanBin>
              </Entry>
             </ExtraData>
            </VMFile>
            <MetaData>
             <entry key="WinSubProjectDisplayName" val=""/>
            </MetaData>
           </UnifiedMedia>
           <UnifiedMedia id="6808"  >
            <AMFile id="6809" start="4134" duration="502" scalar="1/1" mediaStart="5131/1" mediaDuration="502/1" trackNumber="1" src="4" channelNumber="0,1" >
             <Parameters>
              <InterpolatingParam id="6810" interp="linr"  time="0/1" value="1" leadInLength="0/1"  name="volume"/>
              <Parameter id="6811"  name="captions"/>
             </Parameters>
             <Attributes>
              <Attribute id="6812" value="" name="ident"/>
              <Attribute id="6813" value="48000" name="sampleRate"/>
              <Attribute id="6814" value="16" name="bitDepth"/>
              <Attribute id="6815" value="1" name="gain"/>
              <Attribute id="6816" value="0" name="mixToMono"/>
             </Attributes>
            </AMFile>
            <VMFile id="6817" start="4134" duration="502" scalar="1/1" mediaStart="5131/1" mediaDuration="502/1" trackNumber="0" src="4" >
             <Transformer>
              <VectorParam id="6818"  name="translation">
               <InterpolatingParam id="6819" interp="linr"  time="-9999999/1" value="0" leadInLength="0/1"  />
               <InterpolatingParam id="6820" interp="linr"  time="-9999999/1" value="0" leadInLength="0/1"  />
               <InterpolatingParam id="6821" interp="linr"  time="-9999999/1" value="0" leadInLength="0/1"  />
              </VectorParam>
              <VectorParam id="6822"  name="rotation">
               <InterpolatingParam id="6823" interp="linr"  time="-9999999/1" value="0" leadInLength="0/1"  />
               <InterpolatingParam id="6824" interp="linr"  time="-9999999/1" value="0" leadInLength="0/1"  />
               <InterpolatingParam id="6825" interp="linr"  time="-9999999/1" value="0" leadInLength="0/1"  />
              </VectorParam>
              <VectorParam id="6826"  name="shear">
               <InterpolatingParam id="6827" interp="linr"  time="-9999999/1" value="0" leadInLength="0/1"  />
               <InterpolatingParam id="6828" interp="linr"  time="-9999999/1" value="0" leadInLength="0/1"  />
               <InterpolatingParam id="6829" interp="linr"  time="-9999999/1" value="0" leadInLength="0/1"  />
              </VectorParam>
              <VectorParam id="6830"  name="scale">
               <InterpolatingParam id="6831" interp="linr"  time="-9999999/1" value="1" leadInLength="0/1"  />
               <InterpolatingParam id="6832" interp="linr"  time="-9999999/1" value="1" leadInLength="0/1"  />
               <InterpolatingParam id="6833" interp="linr"  time="-9999999/1" value="1" leadInLength="0/1"  />
              </VectorParam>
              <VectorParam id="6834"  name="anchor">
               <InterpolatingParam id="6835" interp="linr"  time="0/1" value="0" leadInLength="0/1"  />
               <InterpolatingParam id="6836" interp="linr"  time="0/1" value="0" leadInLength="0/1"  />
               <InterpolatingParam id="6837" interp="linr"  time="0/1" value="0" leadInLength="0/1"  />
              </VectorParam>
             </Transformer>
             <Parameters>
              <VectorParam id="6838"  name="sourceCrop">
               <InterpolatingParam id="6839" interp="linr"  time="0/1" value="0" leadInLength="0/1"  />
               <InterpolatingParam id="6840" interp="linr"  time="0/1" value="0" leadInLength="0/1"  />
               <InterpolatingParam id="6841" interp="linr"  time="0/1" value="0" leadInLength="0/1"  />
               <InterpolatingParam id="6842" interp="linr"  time="0/1" value="0" leadInLength="0/1"  />
              </VectorParam>
              <VectorParam id="6843"  name="geometryCrop">
               <InterpolatingParam id="6844" interp="linr"  time="-9999999/1" value="0" leadInLength="0/1"  />
               <InterpolatingParam id="6845" interp="linr"  time="-9999999/1" value="0" leadInLength="0/1"  />
               <InterpolatingParam id="6846" interp="linr"  time="-9999999/1" value="0" leadInLength="0/1"  />
               <InterpolatingParam id="6847" interp="linr"  time="-9999999/1" value="0" leadInLength="0/1"  />
              </VectorParam>
              <InterpolatingParam id="6848" interp="linr"  time="-9999999/1" value="1" leadInLength="0/1"  name="opacity"/>
             </Parameters>
             <Attributes>
              <Attribute id="6849" value="" name="ident"/>
             </Attributes>
             <ExtraData>
              <Entry key="ZoomPanBin">
               <ZoomPanBin id="6850"  >
                <ZoomPanKeyframes>
                 <ZoomPanKeyframe id="6851" timeRangeEnd="-9999999/1" timeRangeDuration="0/1" interpolaterName=""  />
                </ZoomPanKeyframes>
               </ZoomPanBin>
              </Entry>
             </ExtraData>
            </VMFile>
            <MetaData>
             <entry key="WinSubProjectDisplayName" val=""/>
            </MetaData>
           </UnifiedMedia>
           <UnifiedMedia id="6852"  >
            <AMFile id="6853" start="4636" duration="64" scalar="1/1" mediaStart="5655/1" mediaDuration="64/1" trackNumber="1" src="4" channelNumber="0,1" >
             <Parameters>
              <InterpolatingParam id="6854" interp="linr"  time="0/1" value="1" leadInLength="0/1"  name="volume"/>
              <Parameter id="6855"  name="captions"/>
             </Parameters>
             <Attributes>
              <Attribute id="6856" value="" name="ident"/>
              <Attribute id="6857" value="48000" name="sampleRate"/>
              <Attribute id="6858" value="16" name="bitDepth"/>
              <Attribute id="6859" value="1" name="gain"/>
              <Attribute id="6860" value="0" name="mixToMono"/>
             </Attributes>
            </AMFile>
            <VMFile id="6861" start="4636" duration="64" scalar="1/1" mediaStart="5655/1" mediaDuration="64/1" trackNumber="0" src="4" >
             <Transformer>
              <VectorParam id="6862"  name="translation">
               <InterpolatingParam id="6863" interp="linr"  time="-9999999/1" value="0" leadInLength="0/1"  />
               <InterpolatingParam id="6864" interp="linr"  time="-9999999/1" value="0" leadInLength="0/1"  />
               <InterpolatingParam id="6865" interp="linr"  time="-9999999/1" value="0" leadInLength="0/1"  />
              </VectorParam>
              <VectorParam id="6866"  name="rotation">
               <InterpolatingParam id="6867" interp="linr"  time="-9999999/1" value="0" leadInLength="0/1"  />
               <InterpolatingParam id="6868" interp="linr"  time="-9999999/1" value="0" leadInLength="0/1"  />
               <InterpolatingParam id="6869" interp="linr"  time="-9999999/1" value="0" leadInLength="0/1"  />
              </VectorParam>
              <VectorParam id="6870"  name="shear">
               <InterpolatingParam id="6871" interp="linr"  time="-9999999/1" value="0" leadInLength="0/1"  />
               <InterpolatingParam id="6872" interp="linr"  time="-9999999/1" value="0" leadInLength="0/1"  />
               <InterpolatingParam id="6873" interp="linr"  time="-9999999/1" value="0" leadInLength="0/1"  />
              </VectorParam>
              <VectorParam id="6874"  name="scale">
               <InterpolatingParam id="6875" interp="linr"  time="-9999999/1" value="1" leadInLength="0/1"  />
               <InterpolatingParam id="6876" interp="linr"  time="-9999999/1" value="1" leadInLength="0/1"  />
               <InterpolatingParam id="6877" interp="linr"  time="-9999999/1" value="1" leadInLength="0/1"  />
              </VectorParam>
              <VectorParam id="6878"  name="anchor">
               <InterpolatingParam id="6879" interp="linr"  time="0/1" value="0" leadInLength="0/1"  />
               <InterpolatingParam id="6880" interp="linr"  time="0/1" value="0" leadInLength="0/1"  />
               <InterpolatingParam id="6881" interp="linr"  time="0/1" value="0" leadInLength="0/1"  />
              </VectorParam>
             </Transformer>
             <Parameters>
              <VectorParam id="6882"  name="sourceCrop">
               <InterpolatingParam id="6883" interp="linr"  time="0/1" value="0" leadInLength="0/1"  />
               <InterpolatingParam id="6884" interp="linr"  time="0/1" value="0" leadInLength="0/1"  />
               <InterpolatingParam id="6885" interp="linr"  time="0/1" value="0" leadInLength="0/1"  />
               <InterpolatingParam id="6886" interp="linr"  time="0/1" value="0" leadInLength="0/1"  />
              </VectorParam>
              <VectorParam id="6887"  name="geometryCrop">
               <InterpolatingParam id="6888" interp="linr"  time="-9999999/1" value="0" leadInLength="0/1"  />
               <InterpolatingParam id="6889" interp="linr"  time="-9999999/1" value="0" leadInLength="0/1"  />
               <InterpolatingParam id="6890" interp="linr"  time="-9999999/1" value="0" leadInLength="0/1"  />
               <InterpolatingParam id="6891" interp="linr"  time="-9999999/1" value="0" leadInLength="0/1"  />
              </VectorParam>
              <InterpolatingParam id="6892" interp="linr"  time="-9999999/1" value="1" leadInLength="0/1"  name="opacity"/>
             </Parameters>
             <Attributes>
              <Attribute id="6893" value="" name="ident"/>
             </Attributes>
             <ExtraData>
              <Entry key="ZoomPanBin">
               <ZoomPanBin id="6894"  >
                <ZoomPanKeyframes>
                 <ZoomPanKeyframe id="6895" timeRangeEnd="-9999999/1" timeRangeDuration="0/1" interpolaterName=""  />
                </ZoomPanKeyframes>
               </ZoomPanBin>
              </Entry>
             </ExtraData>
            </VMFile>
            <MetaData>
             <entry key="WinSubProjectDisplayName" val=""/>
            </MetaData>
           </UnifiedMedia>
           <UnifiedMedia id="6896"  >
            <AMFile id="6897" start="4700" duration="475" scalar="1/1" mediaStart="5770/1" mediaDuration="475/1" trackNumber="1" src="4" channelNumber="0,1" >
             <Parameters>
              <InterpolatingParam id="6898" interp="linr"  time="0/1" value="1" leadInLength="0/1"  name="volume"/>
              <Parameter id="6899"  name="captions"/>
             </Parameters>
             <Attributes>
              <Attribute id="6900" value="" name="ident"/>
              <Attribute id="6901" value="48000" name="sampleRate"/>
              <Attribute id="6902" value="16" name="bitDepth"/>
              <Attribute id="6903" value="1" name="gain"/>
              <Attribute id="6904" value="0" name="mixToMono"/>
             </Attributes>
            </AMFile>
            <VMFile id="6905" start="4700" duration="475" scalar="1/1" mediaStart="5770/1" mediaDuration="475/1" trackNumber="0" src="4" >
             <Transformer>
              <VectorParam id="6906"  name="translation">
               <InterpolatingParam id="6907" interp="linr"  time="-9999999/1" value="0" leadInLength="0/1"  />
               <InterpolatingParam id="6908" interp="linr"  time="-9999999/1" value="0" leadInLength="0/1"  />
               <InterpolatingParam id="6909" interp="linr"  time="-9999999/1" value="0" leadInLength="0/1"  />
              </VectorParam>
              <VectorParam id="6910"  name="rotation">
               <InterpolatingParam id="6911" interp="linr"  time="-9999999/1" value="0" leadInLength="0/1"  />
               <InterpolatingParam id="6912" interp="linr"  time="-9999999/1" value="0" leadInLength="0/1"  />
               <InterpolatingParam id="6913" interp="linr"  time="-9999999/1" value="0" leadInLength="0/1"  />
              </VectorParam>
              <VectorParam id="6914"  name="shear">
               <InterpolatingParam id="6915" interp="linr"  time="-9999999/1" value="0" leadInLength="0/1"  />
               <InterpolatingParam id="6916" interp="linr"  time="-9999999/1" value="0" leadInLength="0/1"  />
               <InterpolatingParam id="6917" interp="linr"  time="-9999999/1" value="0" leadInLength="0/1"  />
              </VectorParam>
              <VectorParam id="6918"  name="scale">
               <InterpolatingParam id="6919" interp="linr"  time="-9999999/1" value="1" leadInLength="0/1"  />
               <InterpolatingParam id="6920" interp="linr"  time="-9999999/1" value="1" leadInLength="0/1"  />
               <InterpolatingParam id="6921" interp="linr"  time="-9999999/1" value="1" leadInLength="0/1"  />
              </VectorParam>
              <VectorParam id="6922"  name="anchor">
               <InterpolatingParam id="6923" interp="linr"  time="0/1" value="0" leadInLength="0/1"  />
               <InterpolatingParam id="6924" interp="linr"  time="0/1" value="0" leadInLength="0/1"  />
               <InterpolatingParam id="6925" interp="linr"  time="0/1" value="0" leadInLength="0/1"  />
              </VectorParam>
             </Transformer>
             <Parameters>
              <VectorParam id="6926"  name="sourceCrop">
               <InterpolatingParam id="6927" interp="linr"  time="0/1" value="0" leadInLength="0/1"  />
               <InterpolatingParam id="6928" interp="linr"  time="0/1" value="0" leadInLength="0/1"  />
               <InterpolatingParam id="6929" interp="linr"  time="0/1" value="0" leadInLength="0/1"  />
               <InterpolatingParam id="6930" interp="linr"  time="0/1" value="0" leadInLength="0/1"  />
              </VectorParam>
              <VectorParam id="6931"  name="geometryCrop">
               <InterpolatingParam id="6932" interp="linr"  time="-9999999/1" value="0" leadInLength="0/1"  />
               <InterpolatingParam id="6933" interp="linr"  time="-9999999/1" value="0" leadInLength="0/1"  />
               <InterpolatingParam id="6934" interp="linr"  time="-9999999/1" value="0" leadInLength="0/1"  />
               <InterpolatingParam id="6935" interp="linr"  time="-9999999/1" value="0" leadInLength="0/1"  />
              </VectorParam>
              <InterpolatingParam id="6936" interp="linr"  time="-9999999/1" value="1" leadInLength="0/1"  name="opacity"/>
             </Parameters>
             <Attributes>
              <Attribute id="6937" value="" name="ident"/>
             </Attributes>
             <ExtraData>
              <Entry key="ZoomPanBin">
               <ZoomPanBin id="6938"  >
                <ZoomPanKeyframes>
                 <ZoomPanKeyframe id="6939" timeRangeEnd="-9999999/1" timeRangeDuration="0/1" interpolaterName=""  />
                </ZoomPanKeyframes>
               </ZoomPanBin>
              </Entry>
             </ExtraData>
            </VMFile>
            <MetaData>
             <entry key="WinSubProjectDisplayName" val=""/>
            </MetaData>
           </UnifiedMedia>
           <UnifiedMedia id="6940"  >
            <AMFile id="6941" start="5175" duration="77" scalar="1/1" mediaStart="6277/1" mediaDuration="77/1" trackNumber="1" src="4" channelNumber="0,1" >
             <Parameters>
              <InterpolatingParam id="6942" interp="linr"  time="0/1" value="1" leadInLength="0/1"  name="volume"/>
              <Parameter id="6943"  name="captions"/>
             </Parameters>
             <Attributes>
              <Attribute id="6944" value="" name="ident"/>
              <Attribute id="6945" value="48000" name="sampleRate"/>
              <Attribute id="6946" value="16" name="bitDepth"/>
              <Attribute id="6947" value="1" name="gain"/>
              <Attribute id="6948" value="0" name="mixToMono"/>
             </Attributes>
            </AMFile>
            <VMFile id="6949" start="5175" duration="77" scalar="1/1" mediaStart="6277/1" mediaDuration="77/1" trackNumber="0" src="4" >
             <Transformer>
              <VectorParam id="6950"  name="translation">
               <InterpolatingParam id="6951" interp="linr"  time="-9999999/1" value="0" leadInLength="0/1"  />
               <InterpolatingParam id="6952" interp="linr"  time="-9999999/1" value="0" leadInLength="0/1"  />
               <InterpolatingParam id="6953" interp="linr"  time="-9999999/1" value="0" leadInLength="0/1"  />
              </VectorParam>
              <VectorParam id="6954"  name="rotation">
               <InterpolatingParam id="6955" interp="linr"  time="-9999999/1" value="0" leadInLength="0/1"  />
               <InterpolatingParam id="6956" interp="linr"  time="-9999999/1" value="0" leadInLength="0/1"  />
               <InterpolatingParam id="6957" interp="linr"  time="-9999999/1" value="0" leadInLength="0/1"  />
              </VectorParam>
              <VectorParam id="6958"  name="shear">
               <InterpolatingParam id="6959" interp="linr"  time="-9999999/1" value="0" leadInLength="0/1"  />
               <InterpolatingParam id="6960" interp="linr"  time="-9999999/1" value="0" leadInLength="0/1"  />
               <InterpolatingParam id="6961" interp="linr"  time="-9999999/1" value="0" leadInLength="0/1"  />
              </VectorParam>
              <VectorParam id="6962"  name="scale">
               <InterpolatingParam id="6963" interp="linr"  time="-9999999/1" value="1" leadInLength="0/1"  />
               <InterpolatingParam id="6964" interp="linr"  time="-9999999/1" value="1" leadInLength="0/1"  />
               <InterpolatingParam id="6965" interp="linr"  time="-9999999/1" value="1" leadInLength="0/1"  />
              </VectorParam>
              <VectorParam id="6966"  name="anchor">
               <InterpolatingParam id="6967" interp="linr"  time="0/1" value="0" leadInLength="0/1"  />
               <InterpolatingParam id="6968" interp="linr"  time="0/1" value="0" leadInLength="0/1"  />
               <InterpolatingParam id="6969" interp="linr"  time="0/1" value="0" leadInLength="0/1"  />
              </VectorParam>
             </Transformer>
             <Parameters>
              <VectorParam id="6970"  name="sourceCrop">
               <InterpolatingParam id="6971" interp="linr"  time="0/1" value="0" leadInLength="0/1"  />
               <InterpolatingParam id="6972" interp="linr"  time="0/1" value="0" leadInLength="0/1"  />
               <InterpolatingParam id="6973" interp="linr"  time="0/1" value="0" leadInLength="0/1"  />
               <InterpolatingParam id="6974" interp="linr"  time="0/1" value="0" leadInLength="0/1"  />
              </VectorParam>
              <VectorParam id="6975"  name="geometryCrop">
               <InterpolatingParam id="6976" interp="linr"  time="-9999999/1" value="0" leadInLength="0/1"  />
               <InterpolatingParam id="6977" interp="linr"  time="-9999999/1" value="0" leadInLength="0/1"  />
               <InterpolatingParam id="6978" interp="linr"  time="-9999999/1" value="0" leadInLength="0/1"  />
               <InterpolatingParam id="6979" interp="linr"  time="-9999999/1" value="0" leadInLength="0/1"  />
              </VectorParam>
              <InterpolatingParam id="6980" interp="linr"  time="-9999999/1" value="1" leadInLength="0/1"  name="opacity"/>
             </Parameters>
             <Attributes>
              <Attribute id="6981" value="" name="ident"/>
             </Attributes>
             <ExtraData>
              <Entry key="ZoomPanBin">
               <ZoomPanBin id="6982"  >
                <ZoomPanKeyframes>
                 <ZoomPanKeyframe id="6983" timeRangeEnd="-9999999/1" timeRangeDuration="0/1" interpolaterName=""  />
                </ZoomPanKeyframes>
               </ZoomPanBin>
              </Entry>
             </ExtraData>
            </VMFile>
            <MetaData>
             <entry key="WinSubProjectDisplayName" val=""/>
            </MetaData>
           </UnifiedMedia>
           <UnifiedMedia id="6984"  >
            <AMFile id="6985" start="5252" duration="82" scalar="1/1" mediaStart="6393/1" mediaDuration="82/1" trackNumber="1" src="4" channelNumber="0,1" >
             <Parameters>
              <InterpolatingParam id="6986" interp="linr"  time="0/1" value="1" leadInLength="0/1"  name="volume"/>
              <Parameter id="6987"  name="captions"/>
             </Parameters>
             <Attributes>
              <Attribute id="6988" value="" name="ident"/>
              <Attribute id="6989" value="48000" name="sampleRate"/>
              <Attribute id="6990" value="16" name="bitDepth"/>
              <Attribute id="6991" value="1" name="gain"/>
              <Attribute id="6992" value="0" name="mixToMono"/>
             </Attributes>
            </AMFile>
            <VMFile id="6993" start="5252" duration="82" scalar="1/1" mediaStart="6393/1" mediaDuration="82/1" trackNumber="0" src="4" >
             <Transformer>
              <VectorParam id="6994"  name="translation">
               <InterpolatingParam id="6995" interp="linr"  time="-9999999/1" value="0" leadInLength="0/1"  />
               <InterpolatingParam id="6996" interp="linr"  time="-9999999/1" value="0" leadInLength="0/1"  />
               <InterpolatingParam id="6997" interp="linr"  time="-9999999/1" value="0" leadInLength="0/1"  />
              </VectorParam>
              <VectorParam id="6998"  name="rotation">
               <InterpolatingParam id="6999" interp="linr"  time="-9999999/1" value="0" leadInLength="0/1"  />
               <InterpolatingParam id="7000" interp="linr"  time="-9999999/1" value="0" leadInLength="0/1"  />
               <InterpolatingParam id="7001" interp="linr"  time="-9999999/1" value="0" leadInLength="0/1"  />
              </VectorParam>
              <VectorParam id="7002"  name="shear">
               <InterpolatingParam id="7003" interp="linr"  time="-9999999/1" value="0" leadInLength="0/1"  />
               <InterpolatingParam id="7004" interp="linr"  time="-9999999/1" value="0" leadInLength="0/1"  />
               <InterpolatingParam id="7005" interp="linr"  time="-9999999/1" value="0" leadInLength="0/1"  />
              </VectorParam>
              <VectorParam id="7006"  name="scale">
               <InterpolatingParam id="7007" interp="linr"  time="-9999999/1" value="1" leadInLength="0/1"  />
               <InterpolatingParam id="7008" interp="linr"  time="-9999999/1" value="1" leadInLength="0/1"  />
               <InterpolatingParam id="7009" interp="linr"  time="-9999999/1" value="1" leadInLength="0/1"  />
              </VectorParam>
              <VectorParam id="7010"  name="anchor">
               <InterpolatingParam id="7011" interp="linr"  time="0/1" value="0" leadInLength="0/1"  />
               <InterpolatingParam id="7012" interp="linr"  time="0/1" value="0" leadInLength="0/1"  />
               <InterpolatingParam id="7013" interp="linr"  time="0/1" value="0" leadInLength="0/1"  />
              </VectorParam>
             </Transformer>
             <Parameters>
              <VectorParam id="7014"  name="sourceCrop">
               <InterpolatingParam id="7015" interp="linr"  time="0/1" value="0" leadInLength="0/1"  />
               <InterpolatingParam id="7016" interp="linr"  time="0/1" value="0" leadInLength="0/1"  />
               <InterpolatingParam id="7017" interp="linr"  time="0/1" value="0" leadInLength="0/1"  />
               <InterpolatingParam id="7018" interp="linr"  time="0/1" value="0" leadInLength="0/1"  />
              </VectorParam>
              <VectorParam id="7019"  name="geometryCrop">
               <InterpolatingParam id="7020" interp="linr"  time="-9999999/1" value="0" leadInLength="0/1"  />
               <InterpolatingParam id="7021" interp="linr"  time="-9999999/1" value="0" leadInLength="0/1"  />
               <InterpolatingParam id="7022" interp="linr"  time="-9999999/1" value="0" leadInLength="0/1"  />
               <InterpolatingParam id="7023" interp="linr"  time="-9999999/1" value="0" leadInLength="0/1"  />
              </VectorParam>
              <InterpolatingParam id="7024" interp="linr"  time="-9999999/1" value="1" leadInLength="0/1"  name="opacity"/>
             </Parameters>
             <Attributes>
              <Attribute id="7025" value="" name="ident"/>
             </Attributes>
             <ExtraData>
              <Entry key="ZoomPanBin">
               <ZoomPanBin id="7026"  >
                <ZoomPanKeyframes>
                 <ZoomPanKeyframe id="7027" timeRangeEnd="-9999999/1" timeRangeDuration="0/1" interpolaterName=""  />
                </ZoomPanKeyframes>
               </ZoomPanBin>
              </Entry>
             </ExtraData>
            </VMFile>
            <MetaData>
             <entry key="WinSubProjectDisplayName" val=""/>
            </MetaData>
           </UnifiedMedia>
           <UnifiedMedia id="7028"  >
            <AMFile id="7029" start="5334" duration="95" scalar="1/1" mediaStart="6528/1" mediaDuration="95/1" trackNumber="1" src="4" channelNumber="0,1" >
             <Parameters>
              <InterpolatingParam id="7030" interp="linr"  time="0/1" value="1" leadInLength="0/1"  name="volume"/>
              <Parameter id="7031"  name="captions"/>
             </Parameters>
             <Attributes>
              <Attribute id="7032" value="" name="ident"/>
              <Attribute id="7033" value="48000" name="sampleRate"/>
              <Attribute id="7034" value="16" name="bitDepth"/>
              <Attribute id="7035" value="1" name="gain"/>
              <Attribute id="7036" value="0" name="mixToMono"/>
             </Attributes>
            </AMFile>
            <VMFile id="7037" start="5334" duration="95" scalar="1/1" mediaStart="6528/1" mediaDuration="95/1" trackNumber="0" src="4" >
             <Transformer>
              <VectorParam id="7038"  name="translation">
               <InterpolatingParam id="7039" interp="linr"  time="-9999999/1" value="0" leadInLength="0/1"  />
               <InterpolatingParam id="7040" interp="linr"  time="-9999999/1" value="0" leadInLength="0/1"  />
               <InterpolatingParam id="7041" interp="linr"  time="-9999999/1" value="0" leadInLength="0/1"  />
              </VectorParam>
              <VectorParam id="7042"  name="rotation">
               <InterpolatingParam id="7043" interp="linr"  time="-9999999/1" value="0" leadInLength="0/1"  />
               <InterpolatingParam id="7044" interp="linr"  time="-9999999/1" value="0" leadInLength="0/1"  />
               <InterpolatingParam id="7045" interp="linr"  time="-9999999/1" value="0" leadInLength="0/1"  />
              </VectorParam>
              <VectorParam id="7046"  name="shear">
               <InterpolatingParam id="7047" interp="linr"  time="-9999999/1" value="0" leadInLength="0/1"  />
               <InterpolatingParam id="7048" interp="linr"  time="-9999999/1" value="0" leadInLength="0/1"  />
               <InterpolatingParam id="7049" interp="linr"  time="-9999999/1" value="0" leadInLength="0/1"  />
              </VectorParam>
              <VectorParam id="7050"  name="scale">
               <InterpolatingParam id="7051" interp="linr"  time="-9999999/1" value="1" leadInLength="0/1"  />
               <InterpolatingParam id="7052" interp="linr"  time="-9999999/1" value="1" leadInLength="0/1"  />
               <InterpolatingParam id="7053" interp="linr"  time="-9999999/1" value="1" leadInLength="0/1"  />
              </VectorParam>
              <VectorParam id="7054"  name="anchor">
               <InterpolatingParam id="7055" interp="linr"  time="0/1" value="0" leadInLength="0/1"  />
               <InterpolatingParam id="7056" interp="linr"  time="0/1" value="0" leadInLength="0/1"  />
               <InterpolatingParam id="7057" interp="linr"  time="0/1" value="0" leadInLength="0/1"  />
              </VectorParam>
             </Transformer>
             <Parameters>
              <VectorParam id="7058"  name="sourceCrop">
               <InterpolatingParam id="7059" interp="linr"  time="0/1" value="0" leadInLength="0/1"  />
               <InterpolatingParam id="7060" interp="linr"  time="0/1" value="0" leadInLength="0/1"  />
               <InterpolatingParam id="7061" interp="linr"  time="0/1" value="0" leadInLength="0/1"  />
               <InterpolatingParam id="7062" interp="linr"  time="0/1" value="0" leadInLength="0/1"  />
              </VectorParam>
              <VectorParam id="7063"  name="geometryCrop">
               <InterpolatingParam id="7064" interp="linr"  time="-9999999/1" value="0" leadInLength="0/1"  />
               <InterpolatingParam id="7065" interp="linr"  time="-9999999/1" value="0" leadInLength="0/1"  />
               <InterpolatingParam id="7066" interp="linr"  time="-9999999/1" value="0" leadInLength="0/1"  />
               <InterpolatingParam id="7067" interp="linr"  time="-9999999/1" value="0" leadInLength="0/1"  />
              </VectorParam>
              <InterpolatingParam id="7068" interp="linr"  time="-9999999/1" value="1" leadInLength="0/1"  name="opacity"/>
             </Parameters>
             <Attributes>
              <Attribute id="7069" value="" name="ident"/>
             </Attributes>
             <ExtraData>
              <Entry key="ZoomPanBin">
               <ZoomPanBin id="7070"  >
                <ZoomPanKeyframes>
                 <ZoomPanKeyframe id="7071" timeRangeEnd="-9999999/1" timeRangeDuration="0/1" interpolaterName=""  />
                </ZoomPanKeyframes>
               </ZoomPanBin>
              </Entry>
             </ExtraData>
            </VMFile>
            <MetaData>
             <entry key="WinSubProjectDisplayName" val=""/>
            </MetaData>
           </UnifiedMedia>
           <UnifiedMedia id="7072"  >
            <AMFile id="7073" start="5429" duration="108" scalar="1/1" mediaStart="6647/1" mediaDuration="108/1" trackNumber="1" src="4" channelNumber="0,1" >
             <Parameters>
              <InterpolatingParam id="7074" interp="linr"  time="0/1" value="1" leadInLength="0/1"  name="volume"/>
              <Parameter id="7075"  name="captions"/>
             </Parameters>
             <Attributes>
              <Attribute id="7076" value="" name="ident"/>
              <Attribute id="7077" value="48000" name="sampleRate"/>
              <Attribute id="7078" value="16" name="bitDepth"/>
              <Attribute id="7079" value="1" name="gain"/>
              <Attribute id="7080" value="0" name="mixToMono"/>
             </Attributes>
            </AMFile>
            <VMFile id="7081" start="5429" duration="108" scalar="1/1" mediaStart="6647/1" mediaDuration="108/1" trackNumber="0" src="4" >
             <Transformer>
              <VectorParam id="7082"  name="translation">
               <InterpolatingParam id="7083" interp="linr"  time="-9999999/1" value="0" leadInLength="0/1"  />
               <InterpolatingParam id="7084" interp="linr"  time="-9999999/1" value="0" leadInLength="0/1"  />
               <InterpolatingParam id="7085" interp="linr"  time="-9999999/1" value="0" leadInLength="0/1"  />
              </VectorParam>
              <VectorParam id="7086"  name="rotation">
               <InterpolatingParam id="7087" interp="linr"  time="-9999999/1" value="0" leadInLength="0/1"  />
               <InterpolatingParam id="7088" interp="linr"  time="-9999999/1" value="0" leadInLength="0/1"  />
               <InterpolatingParam id="7089" interp="linr"  time="-9999999/1" value="0" leadInLength="0/1"  />
              </VectorParam>
              <VectorParam id="7090"  name="shear">
               <InterpolatingParam id="7091" interp="linr"  time="-9999999/1" value="0" leadInLength="0/1"  />
               <InterpolatingParam id="7092" interp="linr"  time="-9999999/1" value="0" leadInLength="0/1"  />
               <InterpolatingParam id="7093" interp="linr"  time="-9999999/1" value="0" leadInLength="0/1"  />
              </VectorParam>
              <VectorParam id="7094"  name="scale">
               <InterpolatingParam id="7095" interp="linr"  time="-9999999/1" value="1" leadInLength="0/1"  />
               <InterpolatingParam id="7096" interp="linr"  time="-9999999/1" value="1" leadInLength="0/1"  />
               <InterpolatingParam id="7097" interp="linr"  time="-9999999/1" value="1" leadInLength="0/1"  />
              </VectorParam>
              <VectorParam id="7098"  name="anchor">
               <InterpolatingParam id="7099" interp="linr"  time="0/1" value="0" leadInLength="0/1"  />
               <InterpolatingParam id="7100" interp="linr"  time="0/1" value="0" leadInLength="0/1"  />
               <InterpolatingParam id="7101" interp="linr"  time="0/1" value="0" leadInLength="0/1"  />
              </VectorParam>
             </Transformer>
             <Parameters>
              <VectorParam id="7102"  name="sourceCrop">
               <InterpolatingParam id="7103" interp="linr"  time="0/1" value="0" leadInLength="0/1"  />
               <InterpolatingParam id="7104" interp="linr"  time="0/1" value="0" leadInLength="0/1"  />
               <InterpolatingParam id="7105" interp="linr"  time="0/1" value="0" leadInLength="0/1"  />
               <InterpolatingParam id="7106" interp="linr"  time="0/1" value="0" leadInLength="0/1"  />
              </VectorParam>
              <VectorParam id="7107"  name="geometryCrop">
               <InterpolatingParam id="7108" interp="linr"  time="-9999999/1" value="0" leadInLength="0/1"  />
               <InterpolatingParam id="7109" interp="linr"  time="-9999999/1" value="0" leadInLength="0/1"  />
               <InterpolatingParam id="7110" interp="linr"  time="-9999999/1" value="0" leadInLength="0/1"  />
               <InterpolatingParam id="7111" interp="linr"  time="-9999999/1" value="0" leadInLength="0/1"  />
              </VectorParam>
              <InterpolatingParam id="7112" interp="linr"  time="-9999999/1" value="1" leadInLength="0/1"  name="opacity"/>
             </Parameters>
             <Attributes>
              <Attribute id="7113" value="" name="ident"/>
             </Attributes>
             <ExtraData>
              <Entry key="ZoomPanBin">
               <ZoomPanBin id="7114"  >
                <ZoomPanKeyframes>
                 <ZoomPanKeyframe id="7115" timeRangeEnd="-9999999/1" timeRangeDuration="0/1" interpolaterName=""  />
                </ZoomPanKeyframes>
               </ZoomPanBin>
              </Entry>
             </ExtraData>
            </VMFile>
            <MetaData>
             <entry key="WinSubProjectDisplayName" val=""/>
            </MetaData>
           </UnifiedMedia>
           <UnifiedMedia id="7116"  >
            <AMFile id="7117" start="5537" duration="177" scalar="1/1" mediaStart="6776/1" mediaDuration="177/1" trackNumber="1" src="4" channelNumber="0,1" >
             <Parameters>
              <InterpolatingParam id="7118" interp="linr"  time="0/1" value="1" leadInLength="0/1"  name="volume"/>
              <Parameter id="7119"  name="captions"/>
             </Parameters>
             <Attributes>
              <Attribute id="7120" value="" name="ident"/>
              <Attribute id="7121" value="48000" name="sampleRate"/>
              <Attribute id="7122" value="16" name="bitDepth"/>
              <Attribute id="7123" value="1" name="gain"/>
              <Attribute id="7124" value="0" name="mixToMono"/>
             </Attributes>
            </AMFile>
            <VMFile id="7125" start="5537" duration="177" scalar="1/1" mediaStart="6776/1" mediaDuration="177/1" trackNumber="0" src="4" >
             <Transformer>
              <VectorParam id="7126"  name="translation">
               <InterpolatingParam id="7127" interp="linr"  time="-9999999/1" value="0" leadInLength="0/1"  />
               <InterpolatingParam id="7128" interp="linr"  time="-9999999/1" value="0" leadInLength="0/1"  />
               <InterpolatingParam id="7129" interp="linr"  time="-9999999/1" value="0" leadInLength="0/1"  />
              </VectorParam>
              <VectorParam id="7130"  name="rotation">
               <InterpolatingParam id="7131" interp="linr"  time="-9999999/1" value="0" leadInLength="0/1"  />
               <InterpolatingParam id="7132" interp="linr"  time="-9999999/1" value="0" leadInLength="0/1"  />
               <InterpolatingParam id="7133" interp="linr"  time="-9999999/1" value="0" leadInLength="0/1"  />
              </VectorParam>
              <VectorParam id="7134"  name="shear">
               <InterpolatingParam id="7135" interp="linr"  time="-9999999/1" value="0" leadInLength="0/1"  />
               <InterpolatingParam id="7136" interp="linr"  time="-9999999/1" value="0" leadInLength="0/1"  />
               <InterpolatingParam id="7137" interp="linr"  time="-9999999/1" value="0" leadInLength="0/1"  />
              </VectorParam>
              <VectorParam id="7138"  name="scale">
               <InterpolatingParam id="7139" interp="linr"  time="-9999999/1" value="1" leadInLength="0/1"  />
               <InterpolatingParam id="7140" interp="linr"  time="-9999999/1" value="1" leadInLength="0/1"  />
               <InterpolatingParam id="7141" interp="linr"  time="-9999999/1" value="1" leadInLength="0/1"  />
              </VectorParam>
              <VectorParam id="7142"  name="anchor">
               <InterpolatingParam id="7143" interp="linr"  time="0/1" value="0" leadInLength="0/1"  />
               <InterpolatingParam id="7144" interp="linr"  time="0/1" value="0" leadInLength="0/1"  />
               <InterpolatingParam id="7145" interp="linr"  time="0/1" value="0" leadInLength="0/1"  />
              </VectorParam>
             </Transformer>
             <Parameters>
              <VectorParam id="7146"  name="sourceCrop">
               <InterpolatingParam id="7147" interp="linr"  time="0/1" value="0" leadInLength="0/1"  />
               <InterpolatingParam id="7148" interp="linr"  time="0/1" value="0" leadInLength="0/1"  />
               <InterpolatingParam id="7149" interp="linr"  time="0/1" value="0" leadInLength="0/1"  />
               <InterpolatingParam id="7150" interp="linr"  time="0/1" value="0" leadInLength="0/1"  />
              </VectorParam>
              <VectorParam id="7151"  name="geometryCrop">
               <InterpolatingParam id="7152" interp="linr"  time="-9999999/1" value="0" leadInLength="0/1"  />
               <InterpolatingParam id="7153" interp="linr"  time="-9999999/1" value="0" leadInLength="0/1"  />
               <InterpolatingParam id="7154" interp="linr"  time="-9999999/1" value="0" leadInLength="0/1"  />
               <InterpolatingParam id="7155" interp="linr"  time="-9999999/1" value="0" leadInLength="0/1"  />
              </VectorParam>
              <InterpolatingParam id="7156" interp="linr"  time="-9999999/1" value="1" leadInLength="0/1"  name="opacity"/>
             </Parameters>
             <Attributes>
              <Attribute id="7157" value="" name="ident"/>
             </Attributes>
             <ExtraData>
              <Entry key="ZoomPanBin">
               <ZoomPanBin id="7158"  >
                <ZoomPanKeyframes>
                 <ZoomPanKeyframe id="7159" timeRangeEnd="-9999999/1" timeRangeDuration="0/1" interpolaterName=""  />
                </ZoomPanKeyframes>
               </ZoomPanBin>
              </Entry>
             </ExtraData>
            </VMFile>
            <MetaData>
             <entry key="WinSubProjectDisplayName" val=""/>
            </MetaData>
           </UnifiedMedia>
           <UnifiedMedia id="7160"  >
            <AMFile id="7161" start="5714" duration="116" scalar="1/1" mediaStart="6976/1" mediaDuration="116/1" trackNumber="1" src="4" channelNumber="0,1" >
             <Parameters>
              <InterpolatingParam id="7162" interp="linr"  time="0/1" value="1" leadInLength="0/1"  name="volume"/>
              <Parameter id="7163"  name="captions"/>
             </Parameters>
             <Attributes>
              <Attribute id="7164" value="" name="ident"/>
              <Attribute id="7165" value="48000" name="sampleRate"/>
              <Attribute id="7166" value="16" name="bitDepth"/>
              <Attribute id="7167" value="1" name="gain"/>
              <Attribute id="7168" value="0" name="mixToMono"/>
             </Attributes>
            </AMFile>
            <VMFile id="7169" start="5714" duration="116" scalar="1/1" mediaStart="6976/1" mediaDuration="116/1" trackNumber="0" src="4" >
             <Transformer>
              <VectorParam id="7170"  name="translation">
               <InterpolatingParam id="7171" interp="linr"  time="-9999999/1" value="0" leadInLength="0/1"  />
               <InterpolatingParam id="7172" interp="linr"  time="-9999999/1" value="0" leadInLength="0/1"  />
               <InterpolatingParam id="7173" interp="linr"  time="-9999999/1" value="0" leadInLength="0/1"  />
              </VectorParam>
              <VectorParam id="7174"  name="rotation">
               <InterpolatingParam id="7175" interp="linr"  time="-9999999/1" value="0" leadInLength="0/1"  />
               <InterpolatingParam id="7176" interp="linr"  time="-9999999/1" value="0" leadInLength="0/1"  />
               <InterpolatingParam id="7177" interp="linr"  time="-9999999/1" value="0" leadInLength="0/1"  />
              </VectorParam>
              <VectorParam id="7178"  name="shear">
               <InterpolatingParam id="7179" interp="linr"  time="-9999999/1" value="0" leadInLength="0/1"  />
               <InterpolatingParam id="7180" interp="linr"  time="-9999999/1" value="0" leadInLength="0/1"  />
               <InterpolatingParam id="7181" interp="linr"  time="-9999999/1" value="0" leadInLength="0/1"  />
              </VectorParam>
              <VectorParam id="7182"  name="scale">
               <InterpolatingParam id="7183" interp="linr"  time="-9999999/1" value="1" leadInLength="0/1"  />
               <InterpolatingParam id="7184" interp="linr"  time="-9999999/1" value="1" leadInLength="0/1"  />
               <InterpolatingParam id="7185" interp="linr"  time="-9999999/1" value="1" leadInLength="0/1"  />
              </VectorParam>
              <VectorParam id="7186"  name="anchor">
               <InterpolatingParam id="7187" interp="linr"  time="0/1" value="0" leadInLength="0/1"  />
               <InterpolatingParam id="7188" interp="linr"  time="0/1" value="0" leadInLength="0/1"  />
               <InterpolatingParam id="7189" interp="linr"  time="0/1" value="0" leadInLength="0/1"  />
              </VectorParam>
             </Transformer>
             <Parameters>
              <VectorParam id="7190"  name="sourceCrop">
               <InterpolatingParam id="7191" interp="linr"  time="0/1" value="0" leadInLength="0/1"  />
               <InterpolatingParam id="7192" interp="linr"  time="0/1" value="0" leadInLength="0/1"  />
               <InterpolatingParam id="7193" interp="linr"  time="0/1" value="0" leadInLength="0/1"  />
               <InterpolatingParam id="7194" interp="linr"  time="0/1" value="0" leadInLength="0/1"  />
              </VectorParam>
              <VectorParam id="7195"  name="geometryCrop">
               <InterpolatingParam id="7196" interp="linr"  time="-9999999/1" value="0" leadInLength="0/1"  />
               <InterpolatingParam id="7197" interp="linr"  time="-9999999/1" value="0" leadInLength="0/1"  />
               <InterpolatingParam id="7198" interp="linr"  time="-9999999/1" value="0" leadInLength="0/1"  />
               <InterpolatingParam id="7199" interp="linr"  time="-9999999/1" value="0" leadInLength="0/1"  />
              </VectorParam>
              <InterpolatingParam id="7200" interp="linr"  time="-9999999/1" value="1" leadInLength="0/1"  name="opacity"/>
             </Parameters>
             <Attributes>
              <Attribute id="7201" value="" name="ident"/>
             </Attributes>
             <ExtraData>
              <Entry key="ZoomPanBin">
               <ZoomPanBin id="7202"  >
                <ZoomPanKeyframes>
                 <ZoomPanKeyframe id="7203" timeRangeEnd="-9999999/1" timeRangeDuration="0/1" interpolaterName=""  />
                </ZoomPanKeyframes>
               </ZoomPanBin>
              </Entry>
             </ExtraData>
            </VMFile>
            <MetaData>
             <entry key="WinSubProjectDisplayName" val=""/>
            </MetaData>
           </UnifiedMedia>
           <UnifiedMedia id="7204"  >
            <AMFile id="7205" start="5830" duration="110" scalar="1/1" mediaStart="7113/1" mediaDuration="110/1" trackNumber="1" src="4" channelNumber="0,1" >
             <Parameters>
              <InterpolatingParam id="7206" interp="linr"  time="0/1" value="1" leadInLength="0/1"  name="volume"/>
              <Parameter id="7207"  name="captions"/>
             </Parameters>
             <Attributes>
              <Attribute id="7208" value="" name="ident"/>
              <Attribute id="7209" value="48000" name="sampleRate"/>
              <Attribute id="7210" value="16" name="bitDepth"/>
              <Attribute id="7211" value="1" name="gain"/>
              <Attribute id="7212" value="0" name="mixToMono"/>
             </Attributes>
            </AMFile>
            <VMFile id="7213" start="5830" duration="110" scalar="1/1" mediaStart="7113/1" mediaDuration="110/1" trackNumber="0" src="4" >
             <Transformer>
              <VectorParam id="7214"  name="translation">
               <InterpolatingParam id="7215" interp="linr"  time="-9999999/1" value="0" leadInLength="0/1"  />
               <InterpolatingParam id="7216" interp="linr"  time="-9999999/1" value="0" leadInLength="0/1"  />
               <InterpolatingParam id="7217" interp="linr"  time="-9999999/1" value="0" leadInLength="0/1"  />
              </VectorParam>
              <VectorParam id="7218"  name="rotation">
               <InterpolatingParam id="7219" interp="linr"  time="-9999999/1" value="0" leadInLength="0/1"  />
               <InterpolatingParam id="7220" interp="linr"  time="-9999999/1" value="0" leadInLength="0/1"  />
               <InterpolatingParam id="7221" interp="linr"  time="-9999999/1" value="0" leadInLength="0/1"  />
              </VectorParam>
              <VectorParam id="7222"  name="shear">
               <InterpolatingParam id="7223" interp="linr"  time="-9999999/1" value="0" leadInLength="0/1"  />
               <InterpolatingParam id="7224" interp="linr"  time="-9999999/1" value="0" leadInLength="0/1"  />
               <InterpolatingParam id="7225" interp="linr"  time="-9999999/1" value="0" leadInLength="0/1"  />
              </VectorParam>
              <VectorParam id="7226"  name="scale">
               <InterpolatingParam id="7227" interp="linr"  time="-9999999/1" value="1" leadInLength="0/1"  />
               <InterpolatingParam id="7228" interp="linr"  time="-9999999/1" value="1" leadInLength="0/1"  />
               <InterpolatingParam id="7229" interp="linr"  time="-9999999/1" value="1" leadInLength="0/1"  />
              </VectorParam>
              <VectorParam id="7230"  name="anchor">
               <InterpolatingParam id="7231" interp="linr"  time="0/1" value="0" leadInLength="0/1"  />
               <InterpolatingParam id="7232" interp="linr"  time="0/1" value="0" leadInLength="0/1"  />
               <InterpolatingParam id="7233" interp="linr"  time="0/1" value="0" leadInLength="0/1"  />
              </VectorParam>
             </Transformer>
             <Parameters>
              <VectorParam id="7234"  name="sourceCrop">
               <InterpolatingParam id="7235" interp="linr"  time="0/1" value="0" leadInLength="0/1"  />
               <InterpolatingParam id="7236" interp="linr"  time="0/1" value="0" leadInLength="0/1"  />
               <InterpolatingParam id="7237" interp="linr"  time="0/1" value="0" leadInLength="0/1"  />
               <InterpolatingParam id="7238" interp="linr"  time="0/1" value="0" leadInLength="0/1"  />
              </VectorParam>
              <VectorParam id="7239"  name="geometryCrop">
               <InterpolatingParam id="7240" interp="linr"  time="-9999999/1" value="0" leadInLength="0/1"  />
               <InterpolatingParam id="7241" interp="linr"  time="-9999999/1" value="0" leadInLength="0/1"  />
               <InterpolatingParam id="7242" interp="linr"  time="-9999999/1" value="0" leadInLength="0/1"  />
               <InterpolatingParam id="7243" interp="linr"  time="-9999999/1" value="0" leadInLength="0/1"  />
              </VectorParam>
              <InterpolatingParam id="7244" interp="linr"  time="-9999999/1" value="1" leadInLength="0/1"  name="opacity"/>
             </Parameters>
             <Attributes>
              <Attribute id="7245" value="" name="ident"/>
             </Attributes>
             <ExtraData>
              <Entry key="ZoomPanBin">
               <ZoomPanBin id="7246"  >
                <ZoomPanKeyframes>
                 <ZoomPanKeyframe id="7247" timeRangeEnd="-9999999/1" timeRangeDuration="0/1" interpolaterName=""  />
                </ZoomPanKeyframes>
               </ZoomPanBin>
              </Entry>
             </ExtraData>
            </VMFile>
            <MetaData>
             <entry key="WinSubProjectDisplayName" val=""/>
            </MetaData>
           </UnifiedMedia>
           <UnifiedMedia id="7248"  >
            <AMFile id="7249" start="5940" duration="111" scalar="1/1" mediaStart="7243/1" mediaDuration="111/1" trackNumber="1" src="4" channelNumber="0,1" >
             <Parameters>
              <InterpolatingParam id="7250" interp="linr"  time="0/1" value="1" leadInLength="0/1"  name="volume"/>
              <Parameter id="7251"  name="captions"/>
             </Parameters>
             <Attributes>
              <Attribute id="7252" value="" name="ident"/>
              <Attribute id="7253" value="48000" name="sampleRate"/>
              <Attribute id="7254" value="16" name="bitDepth"/>
              <Attribute id="7255" value="1" name="gain"/>
              <Attribute id="7256" value="0" name="mixToMono"/>
             </Attributes>
            </AMFile>
            <VMFile id="7257" start="5940" duration="111" scalar="1/1" mediaStart="7243/1" mediaDuration="111/1" trackNumber="0" src="4" >
             <Transformer>
              <VectorParam id="7258"  name="translation">
               <InterpolatingParam id="7259" interp="linr"  time="-9999999/1" value="0" leadInLength="0/1"  />
               <InterpolatingParam id="7260" interp="linr"  time="-9999999/1" value="0" leadInLength="0/1"  />
               <InterpolatingParam id="7261" interp="linr"  time="-9999999/1" value="0" leadInLength="0/1"  />
              </VectorParam>
              <VectorParam id="7262"  name="rotation">
               <InterpolatingParam id="7263" interp="linr"  time="-9999999/1" value="0" leadInLength="0/1"  />
               <InterpolatingParam id="7264" interp="linr"  time="-9999999/1" value="0" leadInLength="0/1"  />
               <InterpolatingParam id="7265" interp="linr"  time="-9999999/1" value="0" leadInLength="0/1"  />
              </VectorParam>
              <VectorParam id="7266"  name="shear">
               <InterpolatingParam id="7267" interp="linr"  time="-9999999/1" value="0" leadInLength="0/1"  />
               <InterpolatingParam id="7268" interp="linr"  time="-9999999/1" value="0" leadInLength="0/1"  />
               <InterpolatingParam id="7269" interp="linr"  time="-9999999/1" value="0" leadInLength="0/1"  />
              </VectorParam>
              <VectorParam id="7270"  name="scale">
               <InterpolatingParam id="7271" interp="linr"  time="-9999999/1" value="1" leadInLength="0/1"  />
               <InterpolatingParam id="7272" interp="linr"  time="-9999999/1" value="1" leadInLength="0/1"  />
               <InterpolatingParam id="7273" interp="linr"  time="-9999999/1" value="1" leadInLength="0/1"  />
              </VectorParam>
              <VectorParam id="7274"  name="anchor">
               <InterpolatingParam id="7275" interp="linr"  time="0/1" value="0" leadInLength="0/1"  />
               <InterpolatingParam id="7276" interp="linr"  time="0/1" value="0" leadInLength="0/1"  />
               <InterpolatingParam id="7277" interp="linr"  time="0/1" value="0" leadInLength="0/1"  />
              </VectorParam>
             </Transformer>
             <Parameters>
              <VectorParam id="7278"  name="sourceCrop">
               <InterpolatingParam id="7279" interp="linr"  time="0/1" value="0" leadInLength="0/1"  />
               <InterpolatingParam id="7280" interp="linr"  time="0/1" value="0" leadInLength="0/1"  />
               <InterpolatingParam id="7281" interp="linr"  time="0/1" value="0" leadInLength="0/1"  />
               <InterpolatingParam id="7282" interp="linr"  time="0/1" value="0" leadInLength="0/1"  />
              </VectorParam>
              <VectorParam id="7283"  name="geometryCrop">
               <InterpolatingParam id="7284" interp="linr"  time="-9999999/1" value="0" leadInLength="0/1"  />
               <InterpolatingParam id="7285" interp="linr"  time="-9999999/1" value="0" leadInLength="0/1"  />
               <InterpolatingParam id="7286" interp="linr"  time="-9999999/1" value="0" leadInLength="0/1"  />
               <InterpolatingParam id="7287" interp="linr"  time="-9999999/1" value="0" leadInLength="0/1"  />
              </VectorParam>
              <InterpolatingParam id="7288" interp="linr"  time="-9999999/1" value="1" leadInLength="0/1"  name="opacity"/>
             </Parameters>
             <Attributes>
              <Attribute id="7289" value="" name="ident"/>
             </Attributes>
             <ExtraData>
              <Entry key="ZoomPanBin">
               <ZoomPanBin id="7290"  >
                <ZoomPanKeyframes>
                 <ZoomPanKeyframe id="7291" timeRangeEnd="-9999999/1" timeRangeDuration="0/1" interpolaterName=""  />
                </ZoomPanKeyframes>
               </ZoomPanBin>
              </Entry>
             </ExtraData>
            </VMFile>
            <MetaData>
             <entry key="WinSubProjectDisplayName" val=""/>
            </MetaData>
           </UnifiedMedia>
           <UnifiedMedia id="7292"  >
            <AMFile id="7293" start="6051" duration="254" scalar="1/1" mediaStart="7367/1" mediaDuration="254/1" trackNumber="1" src="4" channelNumber="0,1" >
             <Parameters>
              <InterpolatingParam id="7294" interp="linr"  time="0/1" value="1" leadInLength="0/1"  name="volume"/>
              <Parameter id="7295"  name="captions"/>
             </Parameters>
             <Attributes>
              <Attribute id="7296" value="" name="ident"/>
              <Attribute id="7297" value="48000" name="sampleRate"/>
              <Attribute id="7298" value="16" name="bitDepth"/>
              <Attribute id="7299" value="1" name="gain"/>
              <Attribute id="7300" value="0" name="mixToMono"/>
             </Attributes>
            </AMFile>
            <VMFile id="7301" start="6051" duration="254" scalar="1/1" mediaStart="7367/1" mediaDuration="254/1" trackNumber="0" src="4" >
             <Transformer>
              <VectorParam id="7302"  name="translation">
               <InterpolatingParam id="7303" interp="linr"  time="-9999999/1" value="0" leadInLength="0/1"  />
               <InterpolatingParam id="7304" interp="linr"  time="-9999999/1" value="0" leadInLength="0/1"  />
               <InterpolatingParam id="7305" interp="linr"  time="-9999999/1" value="0" leadInLength="0/1"  />
              </VectorParam>
              <VectorParam id="7306"  name="rotation">
               <InterpolatingParam id="7307" interp="linr"  time="-9999999/1" value="0" leadInLength="0/1"  />
               <InterpolatingParam id="7308" interp="linr"  time="-9999999/1" value="0" leadInLength="0/1"  />
               <InterpolatingParam id="7309" interp="linr"  time="-9999999/1" value="0" leadInLength="0/1"  />
              </VectorParam>
              <VectorParam id="7310"  name="shear">
               <InterpolatingParam id="7311" interp="linr"  time="-9999999/1" value="0" leadInLength="0/1"  />
               <InterpolatingParam id="7312" interp="linr"  time="-9999999/1" value="0" leadInLength="0/1"  />
               <InterpolatingParam id="7313" interp="linr"  time="-9999999/1" value="0" leadInLength="0/1"  />
              </VectorParam>
              <VectorParam id="7314"  name="scale">
               <InterpolatingParam id="7315" interp="linr"  time="-9999999/1" value="1" leadInLength="0/1"  />
               <InterpolatingParam id="7316" interp="linr"  time="-9999999/1" value="1" leadInLength="0/1"  />
               <InterpolatingParam id="7317" interp="linr"  time="-9999999/1" value="1" leadInLength="0/1"  />
              </VectorParam>
              <VectorParam id="7318"  name="anchor">
               <InterpolatingParam id="7319" interp="linr"  time="0/1" value="0" leadInLength="0/1"  />
               <InterpolatingParam id="7320" interp="linr"  time="0/1" value="0" leadInLength="0/1"  />
               <InterpolatingParam id="7321" interp="linr"  time="0/1" value="0" leadInLength="0/1"  />
              </VectorParam>
             </Transformer>
             <Parameters>
              <VectorParam id="7322"  name="sourceCrop">
               <InterpolatingParam id="7323" interp="linr"  time="0/1" value="0" leadInLength="0/1"  />
               <InterpolatingParam id="7324" interp="linr"  time="0/1" value="0" leadInLength="0/1"  />
               <InterpolatingParam id="7325" interp="linr"  time="0/1" value="0" leadInLength="0/1"  />
               <InterpolatingParam id="7326" interp="linr"  time="0/1" value="0" leadInLength="0/1"  />
              </VectorParam>
              <VectorParam id="7327"  name="geometryCrop">
               <InterpolatingParam id="7328" interp="linr"  time="-9999999/1" value="0" leadInLength="0/1"  />
               <InterpolatingParam id="7329" interp="linr"  time="-9999999/1" value="0" leadInLength="0/1"  />
               <InterpolatingParam id="7330" interp="linr"  time="-9999999/1" value="0" leadInLength="0/1"  />
               <InterpolatingParam id="7331" interp="linr"  time="-9999999/1" value="0" leadInLength="0/1"  />
              </VectorParam>
              <InterpolatingParam id="7332" interp="linr"  time="-9999999/1" value="1" leadInLength="0/1"  name="opacity"/>
             </Parameters>
             <Attributes>
              <Attribute id="7333" value="" name="ident"/>
             </Attributes>
             <ExtraData>
              <Entry key="ZoomPanBin">
               <ZoomPanBin id="7334"  >
                <ZoomPanKeyframes>
                 <ZoomPanKeyframe id="7335" timeRangeEnd="-9999999/1" timeRangeDuration="0/1" interpolaterName=""  />
                </ZoomPanKeyframes>
               </ZoomPanBin>
              </Entry>
             </ExtraData>
            </VMFile>
            <MetaData>
             <entry key="WinSubProjectDisplayName" val=""/>
            </MetaData>
           </UnifiedMedia>
           <UnifiedMedia id="7336"  >
            <AMFile id="7337" start="6305" duration="484" scalar="1/1" mediaStart="7640/1" mediaDuration="484/1" trackNumber="1" src="4" channelNumber="0,1" >
             <Parameters>
              <InterpolatingParam id="7338" interp="linr"  time="0/1" value="1" leadInLength="0/1"  name="volume"/>
              <Parameter id="7339"  name="captions"/>
             </Parameters>
             <Attributes>
              <Attribute id="7340" value="" name="ident"/>
              <Attribute id="7341" value="48000" name="sampleRate"/>
              <Attribute id="7342" value="16" name="bitDepth"/>
              <Attribute id="7343" value="1" name="gain"/>
              <Attribute id="7344" value="0" name="mixToMono"/>
             </Attributes>
            </AMFile>
            <VMFile id="7345" start="6305" duration="484" scalar="1/1" mediaStart="7640/1" mediaDuration="484/1" trackNumber="0" src="4" >
             <Transformer>
              <VectorParam id="7346"  name="translation">
               <InterpolatingParam id="7347" interp="linr"  time="-9999999/1" value="0" leadInLength="0/1"  />
               <InterpolatingParam id="7348" interp="linr"  time="-9999999/1" value="0" leadInLength="0/1"  />
               <InterpolatingParam id="7349" interp="linr"  time="-9999999/1" value="0" leadInLength="0/1"  />
              </VectorParam>
              <VectorParam id="7350"  name="rotation">
               <InterpolatingParam id="7351" interp="linr"  time="-9999999/1" value="0" leadInLength="0/1"  />
               <InterpolatingParam id="7352" interp="linr"  time="-9999999/1" value="0" leadInLength="0/1"  />
               <InterpolatingParam id="7353" interp="linr"  time="-9999999/1" value="0" leadInLength="0/1"  />
              </VectorParam>
              <VectorParam id="7354"  name="shear">
               <InterpolatingParam id="7355" interp="linr"  time="-9999999/1" value="0" leadInLength="0/1"  />
               <InterpolatingParam id="7356" interp="linr"  time="-9999999/1" value="0" leadInLength="0/1"  />
               <InterpolatingParam id="7357" interp="linr"  time="-9999999/1" value="0" leadInLength="0/1"  />
              </VectorParam>
              <VectorParam id="7358"  name="scale">
               <InterpolatingParam id="7359" interp="linr"  time="-9999999/1" value="1" leadInLength="0/1"  />
               <InterpolatingParam id="7360" interp="linr"  time="-9999999/1" value="1" leadInLength="0/1"  />
               <InterpolatingParam id="7361" interp="linr"  time="-9999999/1" value="1" leadInLength="0/1"  />
              </VectorParam>
              <VectorParam id="7362"  name="anchor">
               <InterpolatingParam id="7363" interp="linr"  time="0/1" value="0" leadInLength="0/1"  />
               <InterpolatingParam id="7364" interp="linr"  time="0/1" value="0" leadInLength="0/1"  />
               <InterpolatingParam id="7365" interp="linr"  time="0/1" value="0" leadInLength="0/1"  />
              </VectorParam>
             </Transformer>
             <Parameters>
              <VectorParam id="7366"  name="sourceCrop">
               <InterpolatingParam id="7367" interp="linr"  time="0/1" value="0" leadInLength="0/1"  />
               <InterpolatingParam id="7368" interp="linr"  time="0/1" value="0" leadInLength="0/1"  />
               <InterpolatingParam id="7369" interp="linr"  time="0/1" value="0" leadInLength="0/1"  />
               <InterpolatingParam id="7370" interp="linr"  time="0/1" value="0" leadInLength="0/1"  />
              </VectorParam>
              <VectorParam id="7371"  name="geometryCrop">
               <InterpolatingParam id="7372" interp="linr"  time="-9999999/1" value="0" leadInLength="0/1"  />
               <InterpolatingParam id="7373" interp="linr"  time="-9999999/1" value="0" leadInLength="0/1"  />
               <InterpolatingParam id="7374" interp="linr"  time="-9999999/1" value="0" leadInLength="0/1"  />
               <InterpolatingParam id="7375" interp="linr"  time="-9999999/1" value="0" leadInLength="0/1"  />
              </VectorParam>
              <InterpolatingParam id="7376" interp="linr"  time="-9999999/1" value="1" leadInLength="0/1"  name="opacity"/>
             </Parameters>
             <Attributes>
              <Attribute id="7377" value="" name="ident"/>
             </Attributes>
             <ExtraData>
              <Entry key="ZoomPanBin">
               <ZoomPanBin id="7378"  >
                <ZoomPanKeyframes>
                 <ZoomPanKeyframe id="7379" timeRangeEnd="-9999999/1" timeRangeDuration="0/1" interpolaterName=""  />
                </ZoomPanKeyframes>
               </ZoomPanBin>
              </Entry>
             </ExtraData>
            </VMFile>
            <MetaData>
             <entry key="WinSubProjectDisplayName" val=""/>
            </MetaData>
           </UnifiedMedia>
           <UnifiedMedia id="7380"  >
            <AMFile id="7381" start="6789" duration="237" scalar="1/1" mediaStart="8158/1" mediaDuration="237/1" trackNumber="1" src="4" channelNumber="0,1" >
             <Parameters>
              <InterpolatingParam id="7382" interp="linr"  time="0/1" value="1" leadInLength="0/1"  name="volume"/>
              <Parameter id="7383"  name="captions"/>
             </Parameters>
             <Attributes>
              <Attribute id="7384" value="" name="ident"/>
              <Attribute id="7385" value="48000" name="sampleRate"/>
              <Attribute id="7386" value="16" name="bitDepth"/>
              <Attribute id="7387" value="1" name="gain"/>
              <Attribute id="7388" value="0" name="mixToMono"/>
             </Attributes>
            </AMFile>
            <VMFile id="7389" start="6789" duration="237" scalar="1/1" mediaStart="8158/1" mediaDuration="237/1" trackNumber="0" src="4" >
             <Transformer>
              <VectorParam id="7390"  name="translation">
               <InterpolatingParam id="7391" interp="linr"  time="-9999999/1" value="0" leadInLength="0/1"  />
               <InterpolatingParam id="7392" interp="linr"  time="-9999999/1" value="0" leadInLength="0/1"  />
               <InterpolatingParam id="7393" interp="linr"  time="-9999999/1" value="0" leadInLength="0/1"  />
              </VectorParam>
              <VectorParam id="7394"  name="rotation">
               <InterpolatingParam id="7395" interp="linr"  time="-9999999/1" value="0" leadInLength="0/1"  />
               <InterpolatingParam id="7396" interp="linr"  time="-9999999/1" value="0" leadInLength="0/1"  />
               <InterpolatingParam id="7397" interp="linr"  time="-9999999/1" value="0" leadInLength="0/1"  />
              </VectorParam>
              <VectorParam id="7398"  name="shear">
               <InterpolatingParam id="7399" interp="linr"  time="-9999999/1" value="0" leadInLength="0/1"  />
               <InterpolatingParam id="7400" interp="linr"  time="-9999999/1" value="0" leadInLength="0/1"  />
               <InterpolatingParam id="7401" interp="linr"  time="-9999999/1" value="0" leadInLength="0/1"  />
              </VectorParam>
              <VectorParam id="7402"  name="scale">
               <InterpolatingParam id="7403" interp="linr"  time="-9999999/1" value="1" leadInLength="0/1"  />
               <InterpolatingParam id="7404" interp="linr"  time="-9999999/1" value="1" leadInLength="0/1"  />
               <InterpolatingParam id="7405" interp="linr"  time="-9999999/1" value="1" leadInLength="0/1"  />
              </VectorParam>
              <VectorParam id="7406"  name="anchor">
               <InterpolatingParam id="7407" interp="linr"  time="0/1" value="0" leadInLength="0/1"  />
               <InterpolatingParam id="7408" interp="linr"  time="0/1" value="0" leadInLength="0/1"  />
               <InterpolatingParam id="7409" interp="linr"  time="0/1" value="0" leadInLength="0/1"  />
              </VectorParam>
             </Transformer>
             <Parameters>
              <VectorParam id="7410"  name="sourceCrop">
               <InterpolatingParam id="7411" interp="linr"  time="0/1" value="0" leadInLength="0/1"  />
               <InterpolatingParam id="7412" interp="linr"  time="0/1" value="0" leadInLength="0/1"  />
               <InterpolatingParam id="7413" interp="linr"  time="0/1" value="0" leadInLength="0/1"  />
               <InterpolatingParam id="7414" interp="linr"  time="0/1" value="0" leadInLength="0/1"  />
              </VectorParam>
              <VectorParam id="7415"  name="geometryCrop">
               <InterpolatingParam id="7416" interp="linr"  time="-9999999/1" value="0" leadInLength="0/1"  />
               <InterpolatingParam id="7417" interp="linr"  time="-9999999/1" value="0" leadInLength="0/1"  />
               <InterpolatingParam id="7418" interp="linr"  time="-9999999/1" value="0" leadInLength="0/1"  />
               <InterpolatingParam id="7419" interp="linr"  time="-9999999/1" value="0" leadInLength="0/1"  />
              </VectorParam>
              <InterpolatingParam id="7420" interp="linr"  time="-9999999/1" value="1" leadInLength="0/1"  name="opacity"/>
             </Parameters>
             <Attributes>
              <Attribute id="7421" value="" name="ident"/>
             </Attributes>
             <ExtraData>
              <Entry key="ZoomPanBin">
               <ZoomPanBin id="7422"  >
                <ZoomPanKeyframes>
                 <ZoomPanKeyframe id="7423" timeRangeEnd="-9999999/1" timeRangeDuration="0/1" interpolaterName=""  />
                </ZoomPanKeyframes>
               </ZoomPanBin>
              </Entry>
             </ExtraData>
            </VMFile>
            <MetaData>
             <entry key="WinSubProjectDisplayName" val=""/>
            </MetaData>
           </UnifiedMedia>
           <UnifiedMedia id="7424"  >
            <AMFile id="7425" start="7026" duration="71" scalar="1/1" mediaStart="8413/1" mediaDuration="71/1" trackNumber="1" src="4" channelNumber="0,1" >
             <Parameters>
              <InterpolatingParam id="7426" interp="linr"  time="0/1" value="1" leadInLength="0/1"  name="volume"/>
              <Parameter id="7427"  name="captions"/>
             </Parameters>
             <Attributes>
              <Attribute id="7428" value="" name="ident"/>
              <Attribute id="7429" value="48000" name="sampleRate"/>
              <Attribute id="7430" value="16" name="bitDepth"/>
              <Attribute id="7431" value="1" name="gain"/>
              <Attribute id="7432" value="0" name="mixToMono"/>
             </Attributes>
            </AMFile>
            <VMFile id="7433" start="7026" duration="71" scalar="1/1" mediaStart="8413/1" mediaDuration="71/1" trackNumber="0" src="4" >
             <Transformer>
              <VectorParam id="7434"  name="translation">
               <InterpolatingParam id="7435" interp="linr"  time="-9999999/1" value="0" leadInLength="0/1"  />
               <InterpolatingParam id="7436" interp="linr"  time="-9999999/1" value="0" leadInLength="0/1"  />
               <InterpolatingParam id="7437" interp="linr"  time="-9999999/1" value="0" leadInLength="0/1"  />
              </VectorParam>
              <VectorParam id="7438"  name="rotation">
               <InterpolatingParam id="7439" interp="linr"  time="-9999999/1" value="0" leadInLength="0/1"  />
               <InterpolatingParam id="7440" interp="linr"  time="-9999999/1" value="0" leadInLength="0/1"  />
               <InterpolatingParam id="7441" interp="linr"  time="-9999999/1" value="0" leadInLength="0/1"  />
              </VectorParam>
              <VectorParam id="7442"  name="shear">
               <InterpolatingParam id="7443" interp="linr"  time="-9999999/1" value="0" leadInLength="0/1"  />
               <InterpolatingParam id="7444" interp="linr"  time="-9999999/1" value="0" leadInLength="0/1"  />
               <InterpolatingParam id="7445" interp="linr"  time="-9999999/1" value="0" leadInLength="0/1"  />
              </VectorParam>
              <VectorParam id="7446"  name="scale">
               <InterpolatingParam id="7447" interp="linr"  time="-9999999/1" value="1" leadInLength="0/1"  />
               <InterpolatingParam id="7448" interp="linr"  time="-9999999/1" value="1" leadInLength="0/1"  />
               <InterpolatingParam id="7449" interp="linr"  time="-9999999/1" value="1" leadInLength="0/1"  />
              </VectorParam>
              <VectorParam id="7450"  name="anchor">
               <InterpolatingParam id="7451" interp="linr"  time="0/1" value="0" leadInLength="0/1"  />
               <InterpolatingParam id="7452" interp="linr"  time="0/1" value="0" leadInLength="0/1"  />
               <InterpolatingParam id="7453" interp="linr"  time="0/1" value="0" leadInLength="0/1"  />
              </VectorParam>
             </Transformer>
             <Parameters>
              <VectorParam id="7454"  name="sourceCrop">
               <InterpolatingParam id="7455" interp="linr"  time="0/1" value="0" leadInLength="0/1"  />
               <InterpolatingParam id="7456" interp="linr"  time="0/1" value="0" leadInLength="0/1"  />
               <InterpolatingParam id="7457" interp="linr"  time="0/1" value="0" leadInLength="0/1"  />
               <InterpolatingParam id="7458" interp="linr"  time="0/1" value="0" leadInLength="0/1"  />
              </VectorParam>
              <VectorParam id="7459"  name="geometryCrop">
               <InterpolatingParam id="7460" interp="linr"  time="-9999999/1" value="0" leadInLength="0/1"  />
               <InterpolatingParam id="7461" interp="linr"  time="-9999999/1" value="0" leadInLength="0/1"  />
               <InterpolatingParam id="7462" interp="linr"  time="-9999999/1" value="0" leadInLength="0/1"  />
               <InterpolatingParam id="7463" interp="linr"  time="-9999999/1" value="0" leadInLength="0/1"  />
              </VectorParam>
              <InterpolatingParam id="7464" interp="linr"  time="-9999999/1" value="1" leadInLength="0/1"  name="opacity"/>
             </Parameters>
             <Attributes>
              <Attribute id="7465" value="" name="ident"/>
             </Attributes>
             <ExtraData>
              <Entry key="ZoomPanBin">
               <ZoomPanBin id="7466"  >
                <ZoomPanKeyframes>
                 <ZoomPanKeyframe id="7467" timeRangeEnd="-9999999/1" timeRangeDuration="0/1" interpolaterName=""  />
                </ZoomPanKeyframes>
               </ZoomPanBin>
              </Entry>
             </ExtraData>
            </VMFile>
            <MetaData>
             <entry key="WinSubProjectDisplayName" val=""/>
            </MetaData>
           </UnifiedMedia>
           <UnifiedMedia id="7468"  >
            <AMFile id="7469" start="7097" duration="173" scalar="1/1" mediaStart="8497/1" mediaDuration="173/1" trackNumber="1" src="4" channelNumber="0,1" >
             <Parameters>
              <InterpolatingParam id="7470" interp="linr"  time="0/1" value="1" leadInLength="0/1"  name="volume"/>
              <Parameter id="7471"  name="captions"/>
             </Parameters>
             <Attributes>
              <Attribute id="7472" value="" name="ident"/>
              <Attribute id="7473" value="48000" name="sampleRate"/>
              <Attribute id="7474" value="16" name="bitDepth"/>
              <Attribute id="7475" value="1" name="gain"/>
              <Attribute id="7476" value="0" name="mixToMono"/>
             </Attributes>
            </AMFile>
            <VMFile id="7477" start="7097" duration="173" scalar="1/1" mediaStart="8497/1" mediaDuration="173/1" trackNumber="0" src="4" >
             <Transformer>
              <VectorParam id="7478"  name="translation">
               <InterpolatingParam id="7479" interp="linr"  time="-9999999/1" value="0" leadInLength="0/1"  />
               <InterpolatingParam id="7480" interp="linr"  time="-9999999/1" value="0" leadInLength="0/1"  />
               <InterpolatingParam id="7481" interp="linr"  time="-9999999/1" value="0" leadInLength="0/1"  />
              </VectorParam>
              <VectorParam id="7482"  name="rotation">
               <InterpolatingParam id="7483" interp="linr"  time="-9999999/1" value="0" leadInLength="0/1"  />
               <InterpolatingParam id="7484" interp="linr"  time="-9999999/1" value="0" leadInLength="0/1"  />
               <InterpolatingParam id="7485" interp="linr"  time="-9999999/1" value="0" leadInLength="0/1"  />
              </VectorParam>
              <VectorParam id="7486"  name="shear">
               <InterpolatingParam id="7487" interp="linr"  time="-9999999/1" value="0" leadInLength="0/1"  />
               <InterpolatingParam id="7488" interp="linr"  time="-9999999/1" value="0" leadInLength="0/1"  />
               <InterpolatingParam id="7489" interp="linr"  time="-9999999/1" value="0" leadInLength="0/1"  />
              </VectorParam>
              <VectorParam id="7490"  name="scale">
               <InterpolatingParam id="7491" interp="linr"  time="-9999999/1" value="1" leadInLength="0/1"  />
               <InterpolatingParam id="7492" interp="linr"  time="-9999999/1" value="1" leadInLength="0/1"  />
               <InterpolatingParam id="7493" interp="linr"  time="-9999999/1" value="1" leadInLength="0/1"  />
              </VectorParam>
              <VectorParam id="7494"  name="anchor">
               <InterpolatingParam id="7495" interp="linr"  time="0/1" value="0" leadInLength="0/1"  />
               <InterpolatingParam id="7496" interp="linr"  time="0/1" value="0" leadInLength="0/1"  />
               <InterpolatingParam id="7497" interp="linr"  time="0/1" value="0" leadInLength="0/1"  />
              </VectorParam>
             </Transformer>
             <Parameters>
              <VectorParam id="7498"  name="sourceCrop">
               <InterpolatingParam id="7499" interp="linr"  time="0/1" value="0" leadInLength="0/1"  />
               <InterpolatingParam id="7500" interp="linr"  time="0/1" value="0" leadInLength="0/1"  />
               <InterpolatingParam id="7501" interp="linr"  time="0/1" value="0" leadInLength="0/1"  />
               <InterpolatingParam id="7502" interp="linr"  time="0/1" value="0" leadInLength="0/1"  />
              </VectorParam>
              <VectorParam id="7503"  name="geometryCrop">
               <InterpolatingParam id="7504" interp="linr"  time="-9999999/1" value="0" leadInLength="0/1"  />
               <InterpolatingParam id="7505" interp="linr"  time="-9999999/1" value="0" leadInLength="0/1"  />
               <InterpolatingParam id="7506" interp="linr"  time="-9999999/1" value="0" leadInLength="0/1"  />
               <InterpolatingParam id="7507" interp="linr"  time="-9999999/1" value="0" leadInLength="0/1"  />
              </VectorParam>
              <InterpolatingParam id="7508" interp="linr"  time="-9999999/1" value="1" leadInLength="0/1"  name="opacity"/>
             </Parameters>
             <Attributes>
              <Attribute id="7509" value="" name="ident"/>
             </Attributes>
             <ExtraData>
              <Entry key="ZoomPanBin">
               <ZoomPanBin id="7510"  >
                <ZoomPanKeyframes>
                 <ZoomPanKeyframe id="7511" timeRangeEnd="-9999999/1" timeRangeDuration="0/1" interpolaterName=""  />
                </ZoomPanKeyframes>
               </ZoomPanBin>
              </Entry>
             </ExtraData>
            </VMFile>
            <MetaData>
             <entry key="WinSubProjectDisplayName" val=""/>
            </MetaData>
           </UnifiedMedia>
           <UnifiedMedia id="7512"  >
            <AMFile id="7513" start="7270" duration="118" scalar="1/1" mediaStart="8678/1" mediaDuration="118/1" trackNumber="1" src="4" channelNumber="0,1" >
             <Parameters>
              <InterpolatingParam id="7514" interp="linr"  time="0/1" value="1" leadInLength="0/1"  name="volume"/>
              <Parameter id="7515"  name="captions"/>
             </Parameters>
             <Attributes>
              <Attribute id="7516" value="" name="ident"/>
              <Attribute id="7517" value="48000" name="sampleRate"/>
              <Attribute id="7518" value="16" name="bitDepth"/>
              <Attribute id="7519" value="1" name="gain"/>
              <Attribute id="7520" value="0" name="mixToMono"/>
             </Attributes>
            </AMFile>
            <VMFile id="7521" start="7270" duration="118" scalar="1/1" mediaStart="8678/1" mediaDuration="118/1" trackNumber="0" src="4" >
             <Transformer>
              <VectorParam id="7522"  name="translation">
               <InterpolatingParam id="7523" interp="linr"  time="-9999999/1" value="0" leadInLength="0/1"  />
               <InterpolatingParam id="7524" interp="linr"  time="-9999999/1" value="0" leadInLength="0/1"  />
               <InterpolatingParam id="7525" interp="linr"  time="-9999999/1" value="0" leadInLength="0/1"  />
              </VectorParam>
              <VectorParam id="7526"  name="rotation">
               <InterpolatingParam id="7527" interp="linr"  time="-9999999/1" value="0" leadInLength="0/1"  />
               <InterpolatingParam id="7528" interp="linr"  time="-9999999/1" value="0" leadInLength="0/1"  />
               <InterpolatingParam id="7529" interp="linr"  time="-9999999/1" value="0" leadInLength="0/1"  />
              </VectorParam>
              <VectorParam id="7530"  name="shear">
               <InterpolatingParam id="7531" interp="linr"  time="-9999999/1" value="0" leadInLength="0/1"  />
               <InterpolatingParam id="7532" interp="linr"  time="-9999999/1" value="0" leadInLength="0/1"  />
               <InterpolatingParam id="7533" interp="linr"  time="-9999999/1" value="0" leadInLength="0/1"  />
              </VectorParam>
              <VectorParam id="7534"  name="scale">
               <InterpolatingParam id="7535" interp="linr"  time="-9999999/1" value="1" leadInLength="0/1"  />
               <InterpolatingParam id="7536" interp="linr"  time="-9999999/1" value="1" leadInLength="0/1"  />
               <InterpolatingParam id="7537" interp="linr"  time="-9999999/1" value="1" leadInLength="0/1"  />
              </VectorParam>
              <VectorParam id="7538"  name="anchor">
               <InterpolatingParam id="7539" interp="linr"  time="0/1" value="0" leadInLength="0/1"  />
               <InterpolatingParam id="7540" interp="linr"  time="0/1" value="0" leadInLength="0/1"  />
               <InterpolatingParam id="7541" interp="linr"  time="0/1" value="0" leadInLength="0/1"  />
              </VectorParam>
             </Transformer>
             <Parameters>
              <VectorParam id="7542"  name="sourceCrop">
               <InterpolatingParam id="7543" interp="linr"  time="0/1" value="0" leadInLength="0/1"  />
               <InterpolatingParam id="7544" interp="linr"  time="0/1" value="0" leadInLength="0/1"  />
               <InterpolatingParam id="7545" interp="linr"  time="0/1" value="0" leadInLength="0/1"  />
               <InterpolatingParam id="7546" interp="linr"  time="0/1" value="0" leadInLength="0/1"  />
              </VectorParam>
              <VectorParam id="7547"  name="geometryCrop">
               <InterpolatingParam id="7548" interp="linr"  time="-9999999/1" value="0" leadInLength="0/1"  />
               <InterpolatingParam id="7549" interp="linr"  time="-9999999/1" value="0" leadInLength="0/1"  />
               <InterpolatingParam id="7550" interp="linr"  time="-9999999/1" value="0" leadInLength="0/1"  />
               <InterpolatingParam id="7551" interp="linr"  time="-9999999/1" value="0" leadInLength="0/1"  />
              </VectorParam>
              <InterpolatingParam id="7552" interp="linr"  time="-9999999/1" value="1" leadInLength="0/1"  name="opacity"/>
             </Parameters>
             <Attributes>
              <Attribute id="7553" value="" name="ident"/>
             </Attributes>
             <ExtraData>
              <Entry key="ZoomPanBin">
               <ZoomPanBin id="7554"  >
                <ZoomPanKeyframes>
                 <ZoomPanKeyframe id="7555" timeRangeEnd="-9999999/1" timeRangeDuration="0/1" interpolaterName=""  />
                </ZoomPanKeyframes>
               </ZoomPanBin>
              </Entry>
             </ExtraData>
            </VMFile>
            <MetaData>
             <entry key="WinSubProjectDisplayName" val=""/>
            </MetaData>
           </UnifiedMedia>
          </Medias>
         </GenericTrack>
        </StitchedMedia>
       </Medias>
      </GenericTrack>
      <GenericTrack id="7556"  >
       <Attributes>
        <Attribute id="7557" value="" name="ident"/>
        <Attribute id="7558" value="0" name="audioMuted"/>
        <Attribute id="7559" value="0" name="videoHidden"/>
       </Attributes>
       <MetaData>
        <entry key="IsLocked" val="False"/>
        <entry key="WinTrackHeight" val="49"/>
       </MetaData>
       <Medias>
       </Medias>
      </GenericTrack>
      <GenericTrack id="7560"  >
       <Attributes>
        <Attribute id="7561" value="" name="ident"/>
        <Attribute id="7562" value="0" name="audioMuted"/>
        <Attribute id="7563" value="0" name="videoHidden"/>
       </Attributes>
       <MetaData>
        <entry key="IsLocked" val="False"/>
        <entry key="WinTrackHeight" val="62"/>
       </MetaData>
       <Medias>
       </Medias>
      </GenericTrack>
     </Tracks>
    </GenericMixer>
   <CaptionAttributes id="7564"  >
    <Attribute id="7565" value="1" name="captionsEnabled"/>
    <Attribute id="7566" value="Arial" name="captionsFontName"/>
    <Attribute id="7567" value="28" name="captionsFontSize"/>
    <Attribute id="7568" value="(0,0,0,255)" name="captionsBackgroundColor"/>
    <Attribute id="7569" value="(255,255,255,255)" name="captionsForegroundColor"/>
    <Attribute id="7570" value="en" name="lang"/>
    <Attribute id="7571" value="0" name="captionsAlignment"/>
    <Attribute id="7572" value="1" name="captionsDefaultFontSize"/>
    <Attribute id="7573" value="0.5" name="captionsOpacity"/>
    <Attribute id="7574" value="1" name="captionsBackgroundEnabled"/>
    <Attribute id="7575" value="1" name="captionsBackgroundOnlyAroundText"/>
   </CaptionAttributes>
   <Parameters>
    <VectorParam id="7576"  name="eyePosition">
     <InterpolatingParam id="7577" interp="linr"  time="0/1" value="0" leadInLength="0/1"  />
     <InterpolatingParam id="7578" interp="linr"  time="0/1" value="0" leadInLength="0/1"  />
     <InterpolatingParam id="7579" interp="linr"  time="0/1" value="3000" leadInLength="0/1"  />
    </VectorParam>
    <VectorParam id="7580"  name="eyeLookAtPosition">
     <InterpolatingParam id="7581" interp="linr"  time="0/1" value="0" leadInLength="0/1"  />
     <InterpolatingParam id="7582" interp="linr"  time="0/1" value="0" leadInLength="0/1"  />
     <InterpolatingParam id="7583" interp="linr"  time="0/1" value="0" leadInLength="0/1"  />
    </VectorParam>
    <VectorParam id="7584"  name="eyeUpVector">
     <InterpolatingParam id="7585" interp="linr"  time="0/1" value="0" leadInLength="0/1"  />
     <InterpolatingParam id="7586" interp="linr"  time="0/1" value="1" leadInLength="0/1"  />
     <InterpolatingParam id="7587" interp="linr"  time="0/1" value="0" leadInLength="0/1"  />
    </VectorParam>
    <InterpolatingParam id="7588" interp="linr"  time="0/1" value="0.23885785" leadInLength="0/1"  name="fov"/>
    <InterpolatingParam id="7589" interp="linr"  time="0/1" value="1.5" leadInLength="0/1"  name="nearClipDistance"/>
    <InterpolatingParam id="7590" interp="linr"  time="0/1" value="6000" leadInLength="0/1"  name="farClipDistance"/>
    <Parameter id="7591"  name="toc">
     <Keyframes>
     <Keyframe id="7592"  time="1874/1" value="HDFS" leadInLength="0/1"  >
      <MetaData>
       <entry key="Checked" val="True"/>
       <entry key="IndentLevel" val="0"/>
      </MetaData>
     </Keyframe>
     </Keyframes>
    </Parameter>
   </Parameters>
  </Timeline>
 </Project>
</GoProject>
</CSMLData>

</Project_Data>
